# https://github.com/mikedh/trimesh
mtllib material_0.mtl
usemtl material_0
v 15.99140000 2.99070000 8.71152000
v 16.56890000 2.32683000 7.93249000
v 15.99140000 3.15204000 8.39134000
v 15.99140000 2.99070000 8.71152000
v 16.56890000 2.30892000 7.96803000
v 16.56890000 2.32683000 7.93249000
v 16.56890000 2.30892000 7.96803000
v 15.99140000 2.99070000 8.71152000
v 16.56890000 2.30518000 7.97546000
v 15.99140000 3.15204000 8.39134000
v 15.38640000 3.30229000 8.73340000
v 15.99140000 2.99070000 8.71152000
v 15.38640000 3.30229000 8.73340000
v 15.99140000 3.15204000 8.39134000
v 15.38640000 3.52712000 8.28722000
v 15.38640000 3.30229000 8.73340000
v 14.20390000 3.43423000 8.58861000
v 14.20390000 3.22512000 9.00358000
v 14.20390000 3.43423000 8.58861000
v 15.38640000 3.30229000 8.73340000
v 15.38640000 3.52712000 8.28722000
v 14.20390000 3.22512000 9.00358000
v 12.63640000 3.47506000 9.15641000
v 12.63640000 3.25904000 9.58510000
v 12.63640000 3.47506000 9.15641000
v 14.20390000 3.22512000 9.00358000
v 14.20390000 3.43423000 8.58861000
v 12.63640000 3.25904000 9.58510000
v 11.17890000 3.92999000 10.17420000
v 11.17890000 3.63696000 10.75570000
v 11.17890000 3.92999000 10.17420000
v 12.63640000 3.25904000 9.58510000
v 12.63640000 3.47506000 9.15641000
v 11.17890000 3.63696000 10.75570000
v 8.34636000 4.47245000 11.15730000
v 8.34636000 4.08760000 11.92110000
v 8.34636000 4.47245000 11.15730000
v 11.17890000 3.63696000 10.75570000
v 11.17890000 3.92999000 10.17420000
v 8.34636000 4.08760000 11.92110000
v 5.65136000 5.13630000 11.35790000
v 5.65136000 4.63908000 12.34460000
v 5.65136000 5.13630000 11.35790000
v 8.34636000 4.08760000 11.92110000
v 8.34636000 4.47245000 11.15730000
v 5.65136000 4.63908000 12.34460000
v 3.53386000 5.38618000 11.55100000
v 3.53386000 4.84666000 12.62170000
v 3.53386000 5.38618000 11.55100000
v 5.65136000 4.63908000 12.34460000
v 5.65136000 5.13630000 11.35790000
v -5.84364000 3.55693000 11.96970000
v -3.80864000 5.29579000 11.31800000
v -5.84364000 3.83365000 11.10550000
v 3.53386000 4.84666000 12.62170000
v -1.05864000 5.48408000 11.56460000
v -1.05864000 4.92799000 12.66820000
v -1.05864000 5.48408000 11.56460000
v 3.53386000 4.84666000 12.62170000
v 3.53386000 5.38618000 11.55100000
v -3.80864000 4.77157000 12.35840000
v -3.80864000 5.29579000 11.31800000
v -5.84364000 3.55693000 11.96970000
v -1.05864000 5.48408000 11.56460000
v -3.80864000 4.77157000 12.35840000
v -1.05864000 4.92799000 12.66820000
v -3.80864000 4.77157000 12.35840000
v -1.05864000 5.48408000 11.56460000
v -3.80864000 5.29579000 11.31800000
v -4.12790000 0.24720500 12.43000000
v -3.27004000 0.00367808 12.02320000
v -3.27004000 0.36957800 12.80550000
v -3.27004000 0.00367808 12.02320000
v -4.12790000 0.24720500 12.43000000
v -4.12790000 -0.14317100 11.59540000
v -2.41217000 0.72922600 13.37180000
v -1.55430000 0.91497700 13.51330000
v -1.55430000 1.12898000 13.97080000
v -1.55430000 0.91497700 13.51330000
v -2.41217000 0.72922600 13.37180000
v -2.41217000 0.43526200 12.74320000
v -3.27004000 0.36957800 12.80550000
v -2.41217000 0.43526200 12.74320000
v -2.41217000 0.72922600 13.37180000
v -2.41217000 0.43526200 12.74320000
v -3.27004000 0.36957800 12.80550000
v -3.27004000 0.00367808 12.02320000
v -3.27004000 4.39416000 12.02320000
v -4.12790000 4.15063000 12.43000000
v -3.27004000 4.02826000 12.80550000
v -4.12790000 4.15063000 12.43000000
v -3.27004000 4.39416000 12.02320000
v -4.12790000 4.54101000 11.59540000
v -2.41217000 3.96258000 12.74320000
v -3.27004000 4.02826000 12.80550000
v -2.41217000 3.66861000 13.37180000
v -3.27004000 4.02826000 12.80550000
v -2.41217000 3.96258000 12.74320000
v -3.27004000 4.39416000 12.02320000
v -1.55430000 3.48286000 13.51330000
v -2.41217000 3.66861000 13.37180000
v -1.55430000 3.26886000 13.97080000
v -2.41217000 3.66861000 13.37180000
v -1.55430000 3.48286000 13.51330000
v -2.41217000 3.96258000 12.74320000
v -5.84364000 0.84091000 11.96970000
v -5.84364000 0.56419100 11.10550000
v -3.80864000 -0.89795200 11.31800000
v -3.80864000 -0.37372900 12.35840000
v -5.84364000 0.84091000 11.96970000
v -3.80864000 -0.89795200 11.31800000
v -3.80864000 -0.37372900 12.35840000
v -1.05864000 -1.08624000 11.56460000
v -1.05864000 -0.53014600 12.66820000
v -1.05864000 -1.08624000 11.56460000
v -3.80864000 -0.37372900 12.35840000
v -3.80864000 -0.89795200 11.31800000
v -1.05864000 -1.08624000 11.56460000
v 3.53386000 -0.44882000 12.62170000
v -1.05864000 -0.53014600 12.66820000
v 3.53386000 -0.44882000 12.62170000
v -1.05864000 -1.08624000 11.56460000
v 3.53386000 -0.98834400 11.55100000
v 3.53386000 -0.98834400 11.55100000
v 5.65136000 -0.24123700 12.34460000
v 3.53386000 -0.44882000 12.62170000
v 5.65136000 -0.24123700 12.34460000
v 3.53386000 -0.98834400 11.55100000
v 5.65136000 -0.73846300 11.35790000
v 5.65136000 -0.73846300 11.35790000
v 8.34636000 0.31023800 11.92110000
v 5.65136000 -0.24123700 12.34460000
v 8.34636000 0.31023800 11.92110000
v 5.65136000 -0.73846300 11.35790000
v 8.34636000 -0.07461450 11.15730000
v 8.34636000 -0.07461450 11.15730000
v 11.17890000 0.76087700 10.75570000
v 8.34636000 0.31023800 11.92110000
v 11.17890000 0.76087700 10.75570000
v 8.34636000 -0.07461450 11.15730000
v 11.17890000 0.46785100 10.17420000
v 11.17890000 0.46785100 10.17420000
v 12.63640000 1.13879000 9.58510000
v 11.17890000 0.76087700 10.75570000
v 12.63640000 1.13879000 9.58510000
v 11.17890000 0.46785100 10.17420000
v 12.63640000 0.92277600 9.15641000
v 12.63640000 0.92277600 9.15641000
v 14.20390000 1.17272000 9.00358000
v 12.63640000 1.13879000 9.58510000
v 14.20390000 1.17272000 9.00358000
v 12.63640000 0.92277600 9.15641000
v 14.20390000 0.96361200 8.58861000
v 14.20390000 0.96361200 8.58861000
v 15.38640000 1.09555000 8.73340000
v 14.20390000 1.17272000 9.00358000
v 15.38640000 1.09555000 8.73340000
v 14.20390000 0.96361200 8.58861000
v 15.38640000 0.87071700 8.28722000
v 15.38640000 1.09555000 8.73340000
v 15.99140000 1.24580000 8.39134000
v 15.99140000 1.40714000 8.71152000
v 15.99140000 1.24580000 8.39134000
v 15.38640000 1.09555000 8.73340000
v 15.38640000 0.87071700 8.28722000
v 15.99140000 1.40714000 8.71152000
v 16.56890000 2.08892000 7.96803000
v 16.56890000 2.09266000 7.97546000
v 15.99140000 1.40714000 8.71152000
v 16.56890000 2.07101000 7.93249000
v 16.56890000 2.08892000 7.96803000
v 16.56890000 2.07101000 7.93249000
v 15.99140000 1.40714000 8.71152000
v 15.99140000 1.24580000 8.39134000
vn 5.98541000 5.74886000 3.71082000
vn 8.70553000 2.44530000 0.93745700
vn 6.08136000 6.25282000 2.56200000
vn 5.98541000 5.74886000 3.71082000
vn 8.75019000 2.20178000 1.10949000
vn 8.70553000 2.44530000 0.93745700
vn 8.75019000 2.20178000 1.10949000
vn 5.98541000 5.74886000 3.71082000
vn 8.72652000 2.17802000 1.32238000
vn 6.08136000 6.25282000 2.56200000
vn 2.19485000 7.53393000 4.58990000
vn 5.98541000 5.74886000 3.71082000
vn 2.19485000 7.53393000 4.58990000
vn 6.08136000 6.25282000 2.56200000
vn 2.20491000 8.26533000 3.07689000
vn 2.19485000 7.53393000 4.58990000
vn 0.78844800 8.43818000 3.28938000
vn 1.25640000 7.63770000 4.76777000
vn 0.78844800 8.43818000 3.28938000
vn 2.19485000 7.53393000 4.58990000
vn 2.20491000 8.26533000 3.07689000
vn 1.25640000 7.63770000 4.76777000
vn 2.92511000 8.02556000 3.11106000
vn 3.49192000 7.12798000 4.43204000
vn 2.92511000 8.02556000 3.11106000
vn 1.25640000 7.63770000 4.76777000
vn 0.78844800 8.43818000 3.28938000
vn 3.49192000 7.12798000 4.43204000
vn 3.52851000 7.78872000 3.08708000
vn 4.00650000 6.90055000 4.35603000
vn 3.52851000 7.78872000 3.08708000
vn 3.49192000 7.12798000 4.43204000
vn 2.92511000 8.02556000 3.11106000
vn 4.00650000 6.90055000 4.35603000
vn 2.46614000 8.12338000 3.25169000
vn 2.65512000 7.33772000 4.66399000
vn 2.46614000 8.12338000 3.25169000
vn 4.00650000 6.90055000 4.35603000
vn 3.52851000 7.78872000 3.08708000
vn 2.65512000 7.33772000 4.66399000
vn 1.77013000 8.30839000 3.23758000
vn 1.81268000 7.55234000 4.72451000
vn 1.77013000 8.30839000 3.23758000
vn 2.65512000 7.33772000 4.66399000
vn 2.46614000 8.12338000 3.25169000
vn 1.81268000 7.55234000 4.72451000
vn 0.73840700 8.43198000 3.31679000
vn 0.77778200 7.66527000 4.82528000
vn 0.73840700 8.43198000 3.31679000
vn 1.81268000 7.55234000 4.72451000
vn 1.77013000 8.30839000 3.23758000
vn -7.91462000 4.10958000 1.76486000
vn -3.06262000 8.00764000 3.02368000
vn -8.05105000 4.07846000 1.09148000
vn 0.77778200 7.66527000 4.82528000
vn -0.34162700 8.45329000 3.32714000
vn -0.39609300 7.68539000 4.83968000
vn -0.34162700 8.45329000 3.32714000
vn 0.77778200 7.66527000 4.82528000
vn 0.73840700 8.43198000 3.31679000
vn -2.80007000 7.39439000 4.48633000
vn -3.06262000 8.00764000 3.02368000
vn -7.91462000 4.10958000 1.76486000
vn -0.34162700 8.45329000 3.32714000
vn -2.80007000 7.39439000 4.48633000
vn -0.39609300 7.68539000 4.83968000
vn -2.80007000 7.39439000 4.48633000
vn -0.34162700 8.45329000 3.32714000
vn -3.06262000 8.00764000 3.02368000
vn -1.02822000 -7.83905000 4.48739000
vn 0.88283200 -8.51853000 3.04958000
vn -0.19870600 -7.90187000 4.49062000
vn 0.88283200 -8.51853000 3.04958000
vn -1.02822000 -7.83905000 4.48739000
vn -0.37550500 -8.54424000 3.08214000
vn 0.41145000 -7.86819000 4.53507000
vn 6.79015000 -5.57961000 2.32517000
vn 6.32917000 -5.52305000 3.47593000
vn 6.79015000 -5.57961000 2.32517000
vn 0.41145000 -7.86819000 4.53507000
vn 1.79382000 -8.36855000 3.06498000
vn -0.19870600 -7.90187000 4.49062000
vn 1.79382000 -8.36855000 3.06498000
vn 0.41145000 -7.86819000 4.53507000
vn 1.79382000 -8.36855000 3.06498000
vn -0.19870600 -7.90187000 4.49062000
vn 0.88283200 -8.51853000 3.04958000
vn 0.88283200 8.51853000 3.04958000
vn -1.02822000 7.83905000 4.48739000
vn -0.19870600 7.90187000 4.49062000
vn -1.02822000 7.83905000 4.48739000
vn 0.88283200 8.51853000 3.04958000
vn -0.37550500 8.54424000 3.08214000
vn 1.79382000 8.36855000 3.06498000
vn -0.19870600 7.90187000 4.49062000
vn 0.41145000 7.86819000 4.53507000
vn -0.19870600 7.90187000 4.49062000
vn 1.79382000 8.36855000 3.06498000
vn 0.88283200 8.51853000 3.04958000
vn 6.79015000 5.57961000 2.32517000
vn 0.41145000 7.86819000 4.53507000
vn 6.32917000 5.52305000 3.47593000
vn 0.41145000 7.86819000 4.53507000
vn 6.79015000 5.57961000 2.32517000
vn 1.79382000 8.36855000 3.06498000
vn -7.91462000 -4.10958000 1.76486000
vn -8.05105000 -4.07846000 1.09148000
vn -3.06262000 -8.00764000 3.02368000
vn -2.80007000 -7.39439000 4.48633000
vn -7.91462000 -4.10958000 1.76486000
vn -3.06262000 -8.00764000 3.02368000
vn -2.80007000 -7.39439000 4.48633000
vn -0.34162700 -8.45329000 3.32714000
vn -0.39609300 -7.68539000 4.83968000
vn -0.34162700 -8.45329000 3.32714000
vn -2.80007000 -7.39439000 4.48633000
vn -3.06262000 -8.00764000 3.02368000
vn -0.34162700 -8.45329000 3.32714000
vn 0.77778200 -7.66527000 4.82528000
vn -0.39609300 -7.68539000 4.83968000
vn 0.77778200 -7.66527000 4.82528000
vn -0.34162700 -8.45329000 3.32714000
vn 0.73840700 -8.43198000 3.31679000
vn 0.73840700 -8.43198000 3.31679000
vn 1.81268000 -7.55234000 4.72451000
vn 0.77778200 -7.66527000 4.82528000
vn 1.81268000 -7.55234000 4.72451000
vn 0.73840700 -8.43198000 3.31679000
vn 1.77013000 -8.30839000 3.23758000
vn 1.77013000 -8.30839000 3.23758000
vn 2.65512000 -7.33772000 4.66399000
vn 1.81268000 -7.55234000 4.72451000
vn 2.65512000 -7.33772000 4.66399000
vn 1.77013000 -8.30839000 3.23758000
vn 2.46614000 -8.12338000 3.25169000
vn 2.46614000 -8.12338000 3.25169000
vn 4.00650000 -6.90055000 4.35603000
vn 2.65512000 -7.33772000 4.66399000
vn 4.00650000 -6.90055000 4.35603000
vn 2.46614000 -8.12338000 3.25169000
vn 3.52851000 -7.78872000 3.08708000
vn 3.52851000 -7.78872000 3.08708000
vn 3.49192000 -7.12798000 4.43204000
vn 4.00650000 -6.90055000 4.35603000
vn 3.49192000 -7.12798000 4.43204000
vn 3.52851000 -7.78872000 3.08708000
vn 2.92511000 -8.02556000 3.11106000
vn 2.92511000 -8.02556000 3.11106000
vn 1.25640000 -7.63770000 4.76777000
vn 3.49192000 -7.12798000 4.43204000
vn 1.25640000 -7.63770000 4.76777000
vn 2.92511000 -8.02556000 3.11106000
vn 0.78844800 -8.43818000 3.28938000
vn 0.78844800 -8.43818000 3.28938000
vn 2.19485000 -7.53393000 4.58990000
vn 1.25640000 -7.63770000 4.76777000
vn 2.19485000 -7.53393000 4.58990000
vn 0.78844800 -8.43818000 3.28938000
vn 2.20491000 -8.26533000 3.07689000
vn 2.19485000 -7.53393000 4.58990000
vn 6.08136000 -6.25282000 2.56200000
vn 5.98541000 -5.74886000 3.71082000
vn 6.08136000 -6.25282000 2.56200000
vn 2.19485000 -7.53393000 4.58990000
vn 2.20491000 -8.26533000 3.07689000
vn 5.98541000 -5.74886000 3.71082000
vn 8.75019000 -2.20178000 1.10949000
vn 8.72652000 -2.17802000 1.32238000
vn 5.98541000 -5.74886000 3.71082000
vn 8.70553000 -2.44530000 0.93745700
vn 8.75019000 -2.20178000 1.10949000
vn 8.70553000 -2.44530000 0.93745700
vn 5.98541000 -5.74886000 3.71082000
vn 6.08136000 -6.25282000 2.56200000
vt -3.75644000 0.55919200
vt -4.08202000 0.25560800
vt -3.70282000 0.43442000
vt -3.75644000 0.55919200
vt -4.08797000 0.26945800
vt -4.08202000 0.25560800
vt -4.08797000 0.26945800
vt -3.75644000 0.55919200
vt -4.08921000 0.27235300
vt -9.29541000 -0.10949300
vt -9.06642000 0.03230370
vt -9.32417000 0.02323470
vt -9.06642000 0.03230370
vt -9.29541000 -0.10949300
vt -9.02635000 -0.15265600
vt -11.33810000 1.69757000
vt -10.88830000 1.63617000
vt -10.89220000 1.81214000
vt -10.88830000 1.63617000
vt -11.33810000 1.69757000
vt -11.33390000 1.50837000
vt -10.33430000 1.11097000
vt -9.73370000 1.17552000
vt -9.75041000 1.35658000
vt -9.73370000 1.17552000
vt -10.33430000 1.11097000
vt -10.31810000 0.93569600
vt -7.45829000 0.40291000
vt -6.85778000 0.64490300
vt -6.91918000 0.88379300
vt -6.85778000 0.64490300
vt -7.45829000 0.40291000
vt -7.41303000 0.22680000
vt -8.45668000 1.28450000
vt -7.34038000 1.45282000
vt -7.39054000 1.77286000
vt -7.34038000 1.45282000
vt -8.45668000 1.28450000
vt -8.41849000 1.04082000
vt -7.77275000 1.95553000
vt -6.68224000 1.71845000
vt -6.73367000 2.13381000
vt -6.68224000 1.71845000
vt -7.77275000 1.95553000
vt -7.73295000 1.63404000
vt -7.23082000 2.42488000
vt -6.39351000 2.08918000
vt -6.42658000 2.54212000
vt -6.39351000 2.08918000
vt -7.23082000 2.42488000
vt -7.20034000 2.00746000
vt -4.13225000 4.44153000
vt -5.14419000 4.18672000
vt -4.19524000 4.10362000
vt -6.90784000 2.93262000
vt -5.16320000 2.48426000
vt -5.16800000 2.95233000
vt -5.16320000 2.48426000
vt -6.90784000 2.93262000
vt -6.90318000 2.47850000
vt -5.03244000 4.36288000
vt -5.14556000 3.93636000
vt -4.13681000 4.20355000
vt -5.54575000 2.82257000
vt -4.48027000 3.15881000
vt -5.52196000 3.29006000
vt -4.48027000 3.15881000
vt -5.54575000 2.82257000
vt -4.50269000 2.71812000
vt 3.99745000 4.82543000
vt 4.32749000 4.65534000
vt 4.31891000 4.98238000
vt 4.32749000 4.65534000
vt 3.99745000 4.82543000
vt 4.00661000 4.47651000
vt 4.84945000 4.84402000
vt 5.18100000 4.90308000
vt 5.19219000 5.09410000
vt 5.18100000 4.90308000
vt 4.84945000 4.84402000
vt 4.83407000 4.58163000
vt 4.49276000 4.66332000
vt 4.81848000 4.63731000
vt 4.83071000 4.89986000
vt 4.81848000 4.63731000
vt 4.49276000 4.66332000
vt 4.47754000 4.33652000
vt -4.55177000 3.12641000
vt -4.22173000 3.29650000
vt -4.54319000 3.45345000
vt -4.22173000 3.29650000
vt -4.55177000 3.12641000
vt -4.23089000 2.94758000
vt -4.42065000 3.11989000
vt -4.09494000 3.14590000
vt -4.43289000 3.38244000
vt -4.09494000 3.14590000
vt -4.42065000 3.11989000
vt -4.07971000 2.81911000
vt -4.68102000 3.39546000
vt -4.34947000 3.33639000
vt -4.69221000 3.58647000
vt -4.34947000 3.33639000
vt -4.68102000 3.39546000
vt -4.33410000 3.07401000
vt 1.95571000 5.15916000
vt 2.01871000 4.82125000
vt 2.96765000 4.90435000
vt 2.96940000 5.50180000
vt 2.07377000 5.34247000
vt 3.08252000 5.07529000
vt 4.07130000 4.76983000
vt 5.13678000 4.43359000
vt 5.11299000 4.90108000
vt 5.13678000 4.43359000
vt 4.07130000 4.76983000
vt 4.09372000 4.32913000
vt 5.24578000 4.11322000
vt 6.99041000 4.56158000
vt 5.25058000 4.58129000
vt 6.99041000 4.56158000
vt 5.24578000 4.11322000
vt 6.98575000 4.10746000
vt 6.97955000 3.68045000
vt 7.81686000 4.01615000
vt 7.01262000 4.13338000
vt 7.81686000 4.01615000
vt 6.97955000 3.68045000
vt 7.78638000 3.59872000
vt 7.67106000 3.23819000
vt 8.76156000 3.47528000
vt 7.72248000 3.65356000
vt 8.76156000 3.47528000
vt 7.67106000 3.23819000
vt 8.72176000 3.15378000
vt 8.58640000 2.90716000
vt 9.70270000 2.73884000
vt 8.63655000 3.22720000
vt 9.70270000 2.73884000
vt 8.58640000 2.90716000
vt 9.66451000 2.49516000
vt 8.86110000 1.81271000
vt 9.46161000 1.57072000
vt 8.92249000 2.05160000
vt 9.46161000 1.57072000
vt 8.86110000 1.81271000
vt 9.41634000 1.39461000
vt 10.47320000 2.74392000
vt 11.07380000 2.67937000
vt 10.48990000 2.92499000
vt 11.07380000 2.67937000
vt 10.47320000 2.74392000
vt 11.05760000 2.50410000
vt 11.06870000 3.26225000
vt 11.51850000 3.32365000
vt 11.07260000 3.43822000
vt 11.51850000 3.32365000
vt 11.06870000 3.26225000
vt 11.51430000 3.13445000
vt 10.77050000 1.33064000
vt 10.99950000 1.18885000
vt 11.02820000 1.32157000
vt 10.99950000 1.18885000
vt 10.77050000 1.33064000
vt 10.73040000 1.14568000
vt 6.93421000 0.96731400
vt 7.26573000 0.67758000
vt 7.26698000 0.68047500
vt 6.93421000 0.96731400
vt 7.25978000 0.66373100
vt 7.26573000 0.67758000
vt 7.25978000 0.66373100
vt 6.93421000 0.96731400
vt 6.88058000 0.84254300
f 1/1/1 2/2/2 3/3/3
f 4/4/4 5/5/5 6/6/6
f 7/7/7 8/8/8 9/9/9
f 10/10/10 11/11/11 12/12/12
f 13/13/13 14/14/14 15/15/15
f 16/16/16 17/17/17 18/18/18
f 19/19/19 20/20/20 21/21/21
f 22/22/22 23/23/23 24/24/24
f 25/25/25 26/26/26 27/27/27
f 28/28/28 29/29/29 30/30/30
f 31/31/31 32/32/32 33/33/33
f 34/34/34 35/35/35 36/36/36
f 37/37/37 38/38/38 39/39/39
f 40/40/40 41/41/41 42/42/42
f 43/43/43 44/44/44 45/45/45
f 46/46/46 47/47/47 48/48/48
f 49/49/49 50/50/50 51/51/51
f 52/52/52 53/53/53 54/54/54
f 55/55/55 56/56/56 57/57/57
f 58/58/58 59/59/59 60/60/60
f 61/61/61 62/62/62 63/63/63
f 64/64/64 65/65/65 66/66/66
f 67/67/67 68/68/68 69/69/69
f 70/70/70 71/71/71 72/72/72
f 73/73/73 74/74/74 75/75/75
f 76/76/76 77/77/77 78/78/78
f 79/79/79 80/80/80 81/81/81
f 82/82/82 83/83/83 84/84/84
f 85/85/85 86/86/86 87/87/87
f 88/88/88 89/89/89 90/90/90
f 91/91/91 92/92/92 93/93/93
f 94/94/94 95/95/95 96/96/96
f 97/97/97 98/98/98 99/99/99
f 100/100/100 101/101/101 102/102/102
f 103/103/103 104/104/104 105/105/105
f 106/106/106 107/107/107 108/108/108
f 109/109/109 110/110/110 111/111/111
f 112/112/112 113/113/113 114/114/114
f 115/115/115 116/116/116 117/117/117
f 118/118/118 119/119/119 120/120/120
f 121/121/121 122/122/122 123/123/123
f 124/124/124 125/125/125 126/126/126
f 127/127/127 128/128/128 129/129/129
f 130/130/130 131/131/131 132/132/132
f 133/133/133 134/134/134 135/135/135
f 136/136/136 137/137/137 138/138/138
f 139/139/139 140/140/140 141/141/141
f 142/142/142 143/143/143 144/144/144
f 145/145/145 146/146/146 147/147/147
f 148/148/148 149/149/149 150/150/150
f 151/151/151 152/152/152 153/153/153
f 154/154/154 155/155/155 156/156/156
f 157/157/157 158/158/158 159/159/159
f 160/160/160 161/161/161 162/162/162
f 163/163/163 164/164/164 165/165/165
f 166/166/166 167/167/167 168/168/168
f 169/169/169 170/170/170 171/171/171
f 172/172/172 173/173/173 174/174/174