# https://github.com/mikedh/trimesh
mtllib material_0.mtl
usemtl material_0
v -13.27850000 2.19892000 10.90860000
v -13.40150000 2.13182000 11.07420000
v -13.40150000 2.19892000 11.07420000
v -13.40150000 2.13182000 11.07420000
v -13.27850000 2.19892000 10.90860000
v -13.27850000 1.99558000 10.90860000
v -14.87700000 2.19892000 6.59570000
v -14.70830000 1.82125000 6.59570000
v -14.70830000 2.19892000 6.59570000
v -14.70830000 1.82125000 6.59570000
v -14.87700000 2.19892000 6.59570000
v -14.87700000 2.05918000 6.59570000
v -13.27850000 2.19892000 10.90860000
v -13.40150000 2.26602000 11.07420000
v -13.27850000 2.40226000 10.90860000
v -13.40150000 2.26602000 11.07420000
v -13.27850000 2.19892000 10.90860000
v -13.40150000 2.19892000 11.07420000
v -13.27850000 1.99558000 10.90860000
v -12.99250000 2.19892000 10.70970000
v -12.99250000 1.77776000 10.70970000
v -12.99250000 2.19892000 10.70970000
v -13.27850000 1.99558000 10.90860000
v -13.27850000 2.19892000 10.90860000
v -14.87700000 2.33866000 6.59570000
v -14.70830000 2.19892000 6.59570000
v -14.70830000 2.57659000 6.59570000
v -14.70830000 2.19892000 6.59570000
v -14.87700000 2.33866000 6.59570000
v -14.87700000 2.19892000 6.59570000
v -14.42230000 1.52063000 6.63922000
v -14.70830000 2.19892000 6.59570000
v -14.70830000 1.82125000 6.59570000
v -13.27850000 2.19892000 10.90860000
v -12.99250000 2.62008000 10.70970000
v -12.99250000 2.19892000 10.70970000
v -12.99250000 2.62008000 10.70970000
v -13.27850000 2.19892000 10.90860000
v -13.27850000 2.40226000 10.90860000
v -12.99250000 1.77776000 10.70970000
v -11.84870000 2.19892000 9.97781000
v -11.84870000 1.30015000 9.97781000
v -11.84870000 2.19892000 9.97781000
v -12.99250000 1.77776000 10.70970000
v -12.99250000 2.19892000 10.70970000
v -14.42230000 2.87721000 6.63922000
v -14.70830000 2.57659000 6.59570000
v -14.70830000 2.19892000 6.59570000
v -14.13640000 2.19892000 6.63922000
v -14.70830000 2.19892000 6.59570000
v -14.42230000 1.52063000 6.63922000
v -12.99250000 2.19892000 10.70970000
v -11.84870000 3.09769000 9.97781000
v -11.84870000 2.19892000 9.97781000
v -11.84870000 3.09769000 9.97781000
v -12.99250000 2.19892000 10.70970000
v -12.99250000 2.62008000 10.70970000
v -10.70490000 2.19892000 8.73044000
v -11.84870000 1.30015000 9.97781000
v -11.84870000 2.19892000 9.97781000
v -11.84870000 1.30015000 9.97781000
v -10.70490000 2.19892000 8.73044000
v -10.70490000 0.62074300 8.73044000
v -14.13640000 1.35106000 6.63922000
v -14.13640000 2.19892000 6.63922000
v -14.42230000 1.52063000 6.63922000
v -14.13640000 2.19892000 6.63922000
v -14.42230000 2.87721000 6.63922000
v -14.70830000 2.19892000 6.59570000
v -10.70490000 2.19892000 8.73044000
v -11.84870000 3.09769000 9.97781000
v -10.70490000 3.77710000 8.73044000
v -11.84870000 3.09769000 9.97781000
v -10.70490000 2.19892000 8.73044000
v -11.84870000 2.19892000 9.97781000
v -9.84702000 2.19892000 7.36091000
v -10.70490000 0.62074300 8.73044000
v -10.70490000 2.19892000 8.73044000
v -10.70490000 0.62074300 8.73044000
v -9.84702000 2.19892000 7.36091000
v -9.84702000 -0.08829260 7.36091000
v -13.56450000 2.19892000 6.52799000
v -14.13640000 1.35106000 6.63922000
v -13.56450000 1.20843000 6.52799000
v -14.13640000 1.35106000 6.63922000
v -13.56450000 2.19892000 6.52799000
v -14.13640000 2.19892000 6.63922000
v -14.13640000 3.04678000 6.63922000
v -14.42230000 2.87721000 6.63922000
v -14.13640000 2.19892000 6.63922000
v -9.84702000 2.19892000 7.36091000
v -10.70490000 3.77710000 8.73044000
v -9.84702000 4.48613000 7.36091000
v -10.70490000 3.77710000 8.73044000
v -9.84702000 2.19892000 7.36091000
v -10.70490000 2.19892000 8.73044000
v -10.99080000 2.19892000 6.81050000
v -9.84702000 -0.08829260 7.36091000
v -9.84702000 2.19892000 7.36091000
v -9.84702000 -0.08829260 7.36091000
v -10.99080000 2.19892000 6.81050000
v -10.99080000 0.50752600 6.81050000
v -13.56450000 2.19892000 6.52799000
v -12.42060000 0.88978100 6.57714000
v -12.42060000 2.19892000 6.57714000
v -12.42060000 0.88978100 6.57714000
v -13.56450000 2.19892000 6.52799000
v -13.56450000 1.20843000 6.52799000
v -14.13640000 3.04678000 6.63922000
v -13.56450000 2.19892000 6.52799000
v -13.56450000 3.18941000 6.52799000
v -13.56450000 2.19892000 6.52799000
v -14.13640000 3.04678000 6.63922000
v -14.13640000 2.19892000 6.63922000
v -10.99080000 3.89031000 6.81050000
v -9.84702000 2.19892000 7.36091000
v -9.84702000 4.48613000 7.36091000
v -9.84702000 2.19892000 7.36091000
v -10.99080000 3.89031000 6.81050000
v -10.99080000 2.19892000 6.81050000
v -12.42060000 2.19892000 6.57714000
v -10.99080000 0.50752600 6.81050000
v -10.99080000 2.19892000 6.81050000
v -10.99080000 0.50752600 6.81050000
v -12.42060000 2.19892000 6.57714000
v -12.42060000 0.88978100 6.57714000
v -13.56450000 3.18941000 6.52799000
v -12.42060000 2.19892000 6.57714000
v -12.42060000 3.50806000 6.57714000
v -12.42060000 2.19892000 6.57714000
v -13.56450000 3.18941000 6.52799000
v -13.56450000 2.19892000 6.52799000
v -12.42060000 3.50806000 6.57714000
v -10.99080000 2.19892000 6.81050000
v -10.99080000 3.89031000 6.81050000
v -10.99080000 2.19892000 6.81050000
v -12.42060000 3.50806000 6.57714000
v -12.42060000 2.19892000 6.57714000
vn -6.32802000 -0.00000000 -6.52693000
vn -8.46787000 -2.36277000 -2.31454000
vn -8.63122000 0.00000000 -2.85425000
vn -8.46787000 -2.36277000 -2.31454000
vn -6.32802000 -0.00000000 -6.52693000
vn -7.00436000 -3.76097000 -4.40893000
vn -6.42824000 0.00000000 6.42824000
vn -5.92579000 -4.42599000 5.28586000
vn -0.43261800 0.00000000 9.08061000
vn -5.92579000 -4.42599000 5.28586000
vn -6.42824000 0.00000000 6.42824000
vn -6.74235000 -2.46818000 5.57615000
vn -6.32802000 0.00000000 -6.52693000
vn -8.46787000 2.36277000 -2.31454000
vn -7.00436000 3.76097000 -4.40893000
vn -8.46787000 2.36277000 -2.31454000
vn -6.32802000 0.00000000 -6.52693000
vn -8.63122000 -0.00000000 -2.85425000
vn -7.00436000 -3.76097000 -4.40893000
vn -5.04655000 -0.00000000 -7.56154000
vn -5.83192000 -5.00361000 -4.85770000
vn -5.04655000 -0.00000000 -7.56154000
vn -7.00436000 -3.76097000 -4.40893000
vn -6.32802000 -0.00000000 -6.52693000
vn -6.74235000 2.46818000 5.57615000
vn -0.43261800 0.00000000 9.08061000
vn -5.92579000 4.42599000 5.28586000
vn -0.43261800 0.00000000 9.08061000
vn -6.74235000 2.46818000 5.57615000
vn -6.42824000 0.00000000 6.42824000
vn -4.53209000 -5.56294000 5.58198000
vn -0.43261800 0.00000000 9.08061000
vn -5.92579000 -4.42599000 5.28586000
vn -6.32802000 0.00000000 -6.52693000
vn -5.83192000 5.00361000 -4.85770000
vn -5.04655000 0.00000000 -7.56154000
vn -5.83192000 5.00361000 -4.85770000
vn -6.32802000 0.00000000 -6.52693000
vn -7.00436000 3.76097000 -4.40893000
vn -5.83192000 -5.00361000 -4.85770000
vn -5.84921000 0.00000000 -6.95927000
vn -6.42031000 -4.76896000 -4.32219000
vn -5.84921000 0.00000000 -6.95927000
vn -5.83192000 -5.00361000 -4.85770000
vn -5.04655000 -0.00000000 -7.56154000
vn -4.53209000 5.56294000 5.58198000
vn -5.92579000 4.42599000 5.28586000
vn -0.43261800 0.00000000 9.08061000
vn 0.61513900 0.00000000 9.07007000
vn -0.43261800 0.00000000 9.08061000
vn -4.53209000 -5.56294000 5.58198000
vn -5.04655000 0.00000000 -7.56154000
vn -6.42031000 4.76896000 -4.32219000
vn -5.84921000 0.00000000 -6.95927000
vn -6.42031000 4.76896000 -4.32219000
vn -5.04655000 0.00000000 -7.56154000
vn -5.83192000 5.00361000 -4.85770000
vn -7.23237000 0.00000000 -5.50794000
vn -6.42031000 -4.76896000 -4.32219000
vn -5.84921000 0.00000000 -6.95927000
vn -6.42031000 -4.76896000 -4.32219000
vn -7.23237000 0.00000000 -5.50794000
vn -7.51747000 -3.92063000 -3.28038000
vn -2.04142000 -6.74120000 5.74747000
vn 0.61513900 0.00000000 9.07007000
vn -4.53209000 -5.56294000 5.58198000
vn 0.61513900 0.00000000 9.07007000
vn -4.53209000 5.56294000 5.58198000
vn -0.43261800 0.00000000 9.08061000
vn -7.23237000 0.00000000 -5.50794000
vn -6.42031000 4.76896000 -4.32219000
vn -7.51747000 3.92063000 -3.28038000
vn -6.42031000 4.76896000 -4.32219000
vn -7.23237000 0.00000000 -5.50794000
vn -5.84921000 0.00000000 -6.95927000
vn -8.73347000 0.00000000 2.52410000
vn -7.51747000 -3.92063000 -3.28038000
vn -7.23237000 0.00000000 -5.50794000
vn -7.51747000 -3.92063000 -3.28038000
vn -8.73347000 0.00000000 2.52410000
vn -4.64605000 -7.78467000 -0.67657400
vn 0.67735900 -0.00000000 9.06564000
vn -2.04142000 -6.74120000 5.74747000
vn -1.61942000 -7.13787000 5.39193000
vn -2.04142000 -6.74120000 5.74747000
vn 0.67735900 -0.00000000 9.06564000
vn 0.61513900 0.00000000 9.07007000
vn -2.04142000 6.74120000 5.74747000
vn -4.53209000 5.56294000 5.58198000
vn 0.61513900 0.00000000 9.07007000
vn -8.73347000 0.00000000 2.52410000
vn -7.51747000 3.92063000 -3.28038000
vn -4.64605000 7.78467000 -0.67657400
vn -7.51747000 3.92063000 -3.28038000
vn -8.73347000 0.00000000 2.52410000
vn -7.23237000 0.00000000 -5.50794000
vn -2.73118000 0.00000000 8.67094000
vn -4.64605000 -7.78467000 -0.67657400
vn -8.73347000 0.00000000 2.52410000
vn -4.64605000 -7.78467000 -0.67657400
vn -2.73118000 0.00000000 8.67094000
vn -4.33478000 -6.41992000 4.75805000
vn 0.67735900 -0.00000000 9.06564000
vn -2.49554000 -6.93010000 5.32829000
vn -0.92896600 0.00000000 9.04332000
vn -2.49554000 -6.93010000 5.32829000
vn 0.67735900 -0.00000000 9.06564000
vn -1.61942000 -7.13787000 5.39193000
vn -2.04142000 6.74120000 5.74747000
vn 0.67735900 -0.00000000 9.06564000
vn -1.61942000 7.13787000 5.39193000
vn 0.67735900 -0.00000000 9.06564000
vn -2.04142000 6.74120000 5.74747000
vn 0.61513900 0.00000000 9.07007000
vn -4.33478000 6.41992000 4.75805000
vn -8.73347000 0.00000000 2.52410000
vn -4.64605000 7.78467000 -0.67657400
vn -8.73347000 0.00000000 2.52410000
vn -4.33478000 6.41992000 4.75805000
vn -2.73118000 0.00000000 8.67094000
vn -0.92896600 0.00000000 9.04332000
vn -4.33478000 -6.41992000 4.75805000
vn -2.73118000 0.00000000 8.67094000
vn -4.33478000 -6.41992000 4.75805000
vn -0.92896600 0.00000000 9.04332000
vn -2.49554000 -6.93010000 5.32829000
vn -1.61942000 7.13787000 5.39193000
vn -0.92896600 0.00000000 9.04332000
vn -2.49554000 6.93010000 5.32829000
vn -0.92896600 0.00000000 9.04332000
vn -1.61942000 7.13787000 5.39193000
vn 0.67735900 -0.00000000 9.06564000
vn -2.49554000 6.93010000 5.32829000
vn -2.73118000 0.00000000 8.67094000
vn -4.33478000 6.41992000 4.75805000
vn -2.73118000 0.00000000 8.67094000
vn -2.49554000 6.93010000 5.32829000
vn -0.92896600 0.00000000 9.04332000
vt -1.81079000 2.95644000
vt -1.78537000 3.03456000
vt -1.81079000 3.03456000
vt -1.78537000 3.03456000
vt -1.81079000 2.95644000
vt -1.73377000 2.95644000
vt 0.00000000 1.81079000
vt 0.06390680 1.66773000
vt 0.06390680 1.81079000
vt 0.06390680 1.66773000
vt 0.00000000 1.81079000
vt 0.00000000 1.75786000
vt -1.81079000 2.95644000
vt -1.83621000 3.03456000
vt -1.88781000 2.95644000
vt -1.83621000 3.03456000
vt -1.81079000 2.95644000
vt -1.81079000 3.03456000
vt -1.73377000 1.86259000
vt -1.81079000 1.73064000
vt -1.65126000 1.73064000
vt -1.81079000 1.73064000
vt -1.73377000 1.86259000
vt -1.81079000 1.86259000
vt 0.00000000 1.86372000
vt 0.06390680 1.81079000
vt 0.06390680 1.95385000
vt 0.06390680 1.81079000
vt 0.00000000 1.86372000
vt 0.00000000 1.81079000
vt -1.55386000 0.54871000
vt -1.81079000 0.43914500
vt -1.66773000 0.43914500
vt -1.81079000 1.86259000
vt -1.97032000 1.73064000
vt -1.81079000 1.73064000
vt -1.97032000 1.73064000
vt -1.81079000 1.86259000
vt -1.88781000 1.86259000
vt -1.65126000 1.58522000
vt -1.81079000 1.07085000
vt -1.47034000 1.07085000
vt -1.81079000 1.07085000
vt -1.65126000 1.58522000
vt -1.81079000 1.58522000
vt -2.06772000 0.54871000
vt -1.95385000 0.43914500
vt -1.81079000 0.43914500
vt -1.77755000 -0.23641200
vt -1.69340000 -0.43671100
vt -1.49872000 -0.23641200
vt -1.81079000 1.58522000
vt -2.15123000 1.07085000
vt -1.81079000 1.07085000
vt -2.15123000 1.07085000
vt -1.81079000 1.58522000
vt -1.97032000 1.58522000
vt -1.81079000 1.36928000
vt -1.47034000 2.01035000
vt -1.81079000 2.01035000
vt -1.47034000 2.01035000
vt -1.81079000 1.36928000
vt -1.21299000 1.36928000
vt 0.28054000 1.48963000
vt 0.28054000 1.81079000
vt 0.17222300 1.55386000
vt -1.55959000 1.16570000
vt -1.83841000 1.16570000
vt -1.64374000 0.96539700
vt -1.81079000 1.36928000
vt -2.15123000 2.01035000
vt -2.40858000 1.36928000
vt -2.15123000 2.01035000
vt -1.81079000 1.36928000
vt -1.81079000 2.01035000
vt -1.81079000 1.35150000
vt -1.21299000 1.96363000
vt -1.81079000 1.96363000
vt -1.21299000 1.96363000
vt -1.81079000 1.35150000
vt -0.94442000 1.35150000
vt 1.81079000 -0.01594040
vt 1.48963000 0.20475200
vt 1.43560000 -0.01594040
vt 1.48963000 0.20475200
vt 1.81079000 -0.01594040
vt 1.81079000 0.20475200
vt 0.28054000 2.13195000
vt 0.17222300 2.06772000
vt 0.28054000 1.81079000
vt -1.81079000 1.35150000
vt -2.40858000 1.96363000
vt -2.67716000 1.35150000
vt -2.40858000 1.96363000
vt -1.81079000 1.35150000
vt -1.81079000 1.96363000
vt -1.81079000 2.44504000
vt -0.94442000 2.92586000
vt -1.81079000 2.92586000
vt -0.94442000 2.92586000
vt -1.81079000 2.44504000
vt -1.17011000 2.44504000
vt -1.81079000 0.60286200
vt -1.31490000 1.03653000
vt -1.81079000 1.03653000
vt -1.31490000 1.03653000
vt -1.81079000 0.60286200
vt -1.43560000 0.60286200
vt 2.13195000 0.20475200
vt 1.81079000 -0.01594040
vt 2.18598000 -0.01594040
vt 1.81079000 -0.01594040
vt 2.13195000 0.20475200
vt 1.81079000 0.20475200
vt -2.45147000 2.44504000
vt -1.81079000 2.92586000
vt -2.67716000 2.92586000
vt -1.81079000 2.92586000
vt -2.45147000 2.44504000
vt -1.81079000 2.44504000
vt -1.81079000 1.31961000
vt -1.17011000 1.86836000
vt -1.81079000 1.86836000
vt -1.17011000 1.86836000
vt -1.81079000 1.31961000
vt -1.31490000 1.31961000
vt -2.18598000 0.60286200
vt -1.81079000 1.03653000
vt -2.30667000 1.03653000
vt -1.81079000 1.03653000
vt -2.18598000 0.60286200
vt -1.81079000 0.60286200
vt -2.30667000 1.31961000
vt -1.81079000 1.86836000
vt -2.45147000 1.86836000
vt -1.81079000 1.86836000
vt -2.30667000 1.31961000
vt -1.81079000 1.31961000
f 1/1/1 2/2/2 3/3/3
f 4/4/4 5/5/5 6/6/6
f 7/7/7 8/8/8 9/9/9
f 10/10/10 11/11/11 12/12/12
f 13/13/13 14/14/14 15/15/15
f 16/16/16 17/17/17 18/18/18
f 19/19/19 20/20/20 21/21/21
f 22/22/22 23/23/23 24/24/24
f 25/25/25 26/26/26 27/27/27
f 28/28/28 29/29/29 30/30/30
f 31/31/31 32/32/32 33/33/33
f 34/34/34 35/35/35 36/36/36
f 37/37/37 38/38/38 39/39/39
f 40/40/40 41/41/41 42/42/42
f 43/43/43 44/44/44 45/45/45
f 46/46/46 47/47/47 48/48/48
f 49/49/49 50/50/50 51/51/51
f 52/52/52 53/53/53 54/54/54
f 55/55/55 56/56/56 57/57/57
f 58/58/58 59/59/59 60/60/60
f 61/61/61 62/62/62 63/63/63
f 64/64/64 65/65/65 66/66/66
f 67/67/67 68/68/68 69/69/69
f 70/70/70 71/71/71 72/72/72
f 73/73/73 74/74/74 75/75/75
f 76/76/76 77/77/77 78/78/78
f 79/79/79 80/80/80 81/81/81
f 82/82/82 83/83/83 84/84/84
f 85/85/85 86/86/86 87/87/87
f 88/88/88 89/89/89 90/90/90
f 91/91/91 92/92/92 93/93/93
f 94/94/94 95/95/95 96/96/96
f 97/97/97 98/98/98 99/99/99
f 100/100/100 101/101/101 102/102/102
f 103/103/103 104/104/104 105/105/105
f 106/106/106 107/107/107 108/108/108
f 109/109/109 110/110/110 111/111/111
f 112/112/112 113/113/113 114/114/114
f 115/115/115 116/116/116 117/117/117
f 118/118/118 119/119/119 120/120/120
f 121/121/121 122/122/122 123/123/123
f 124/124/124 125/125/125 126/126/126
f 127/127/127 128/128/128 129/129/129
f 130/130/130 131/131/131 132/132/132
f 133/133/133 134/134/134 135/135/135
f 136/136/136 137/137/137 138/138/138