# https://github.com/mikedh/trimesh
v -0.11127330 -0.01287507 -0.00719817
v -0.11108223 -0.01290624 -0.00722802
v -0.11088906 -0.01292199 -0.00724311
v -0.11146089 -0.01282869 -0.00715374
v -0.11278548 -0.01181640 -0.00618363
v -0.11256870 -0.01211988 -0.00647445
v -0.11230077 -0.01238439 -0.00672795
v -0.11198946 -0.01260234 -0.00693681
v -0.11214999 -0.01249962 -0.00683838
v -0.11182026 -0.01269186 -0.00702261
v -0.11164365 -0.01276749 -0.00709506
v -0.11294496 -0.01148268 -0.00586383
v -0.11304252 -0.01112829 -0.00552423
v -0.11307534 -0.01076343 -0.00517455
v -0.11222538 -0.00005760 -0.00678315
v -0.10191063 -0.00609048 -0.00759816
v -0.11146089 -0.01282872 0.00708141
v -0.11127330 -0.01287507 0.00712584
v -0.11108223 -0.01290624 0.00715569
v -0.11088906 -0.01292199 0.00717078
v -0.11294496 -0.01148268 0.00579150
v -0.11304252 -0.01112829 0.00545190
v -0.11307534 -0.01076343 0.00510222
v -0.11278548 -0.01181640 0.00611130
v -0.11256870 -0.01211988 0.00640212
v -0.11230077 -0.01238442 0.00665562
v -0.11198946 -0.01260237 0.00686448
v -0.11214999 -0.01249962 0.00676605
v -0.11182026 -0.01269186 0.00695025
v -0.11164365 -0.01276749 0.00702273
v -0.11305893 -0.00018243 0.00527706
v -0.11299374 -0.00017721 0.00562170
v -0.11286522 -0.00016686 0.00595140
v -0.11267709 -0.00015174 0.00625671
v -0.11243472 -0.00013227 0.00652887
v -0.11206971 -0.00005136 0.00681528
v -0.11190486 -0.00004476 0.00690738
v -0.11173194 -0.00003783 0.00698649
v -0.11117778 -0.00001560 0.00714078
v -0.11098566 -0.00000789 0.00716325
v -0.11278548 0.00000000 -0.00618363
v -0.11256870 0.00000000 -0.00647445
v -0.11267709 0.00015174 -0.00632904
v -0.11230077 0.00000000 -0.00672795
v -0.11198946 0.00000000 -0.00693681
v -0.11190486 0.00004476 -0.00697971
v -0.11214999 0.00000000 -0.00683838
v -0.11206971 0.00005136 -0.00688758
v -0.11243472 0.00013227 -0.00660120
v -0.11127330 0.00000000 -0.00719814
v -0.11117778 0.00001557 -0.00721308
v -0.11108223 0.00000000 -0.00722802
v -0.11098566 0.00000786 -0.00723558
v -0.11088906 0.00000000 -0.00724311
v -0.11173194 0.00003783 -0.00705882
v -0.11182026 0.00000000 -0.00702258
v -0.11164365 0.00000000 -0.00709506
v -0.11155227 0.00003060 -0.00712440
v -0.11146089 0.00000000 -0.00715374
v -0.11136711 0.00002319 -0.00717594
v -0.11286522 0.00016686 -0.00602373
v -0.11294496 0.00000000 -0.00586383
v -0.11299374 0.00017718 -0.00569403
v -0.11304252 0.00000000 -0.00552423
v -0.11305893 0.00018243 -0.00534939
v -0.11278548 0.01181640 -0.00618363
v -0.11256870 0.01211988 -0.00647445
v -0.11230077 0.01238439 -0.00672795
v -0.11214999 0.01249962 -0.00683835
v -0.11198946 0.01260234 -0.00693681
v -0.11182026 0.01269186 -0.00702258
v -0.11164365 0.01276749 -0.00709506
v -0.11307534 0.01076343 -0.00517455
v -0.11304252 0.01112829 -0.00552420
v -0.11294496 0.01148268 -0.00586383
v -0.11127330 0.01287507 -0.00719814
v -0.11108223 0.01290621 -0.00722802
v -0.11088906 0.01292196 -0.00724311
v -0.11146089 0.01282869 -0.00715374
v -0.11307534 0.00000000 -0.00003615
v -0.11304252 0.00000000 0.00545190
v -0.11294496 0.00000000 0.00579150
v -0.11278548 0.00000000 0.00611130
v -0.11256870 0.00000000 0.00640215
v -0.11230077 0.00000000 0.00665562
v -0.11222538 0.00005760 0.00671085
v -0.11214999 0.00000000 0.00676605
v -0.11198946 0.00000000 0.00686448
v -0.11182026 0.00000000 0.00695028
v -0.11164365 0.00000000 0.00702273
v -0.11155227 0.00003060 0.00705207
v -0.11146089 0.00000000 0.00708141
v -0.11136711 0.00002316 0.00710361
v -0.11127330 0.00000000 0.00712584
v -0.11108223 0.00000000 0.00715569
v -0.11088906 0.00000000 0.00717078
v -0.11307534 0.01076343 0.00510225
v -0.11304252 0.01112829 0.00545190
v -0.11294496 0.01148268 0.00579150
v -0.11278548 0.01181640 0.00611133
v -0.11256870 0.01211988 0.00640215
v -0.11230077 0.01238439 0.00665562
v -0.11214999 0.01249962 0.00676605
v -0.11198946 0.01260234 0.00686451
v -0.11182026 0.01269186 0.00695028
v -0.11164365 0.01276749 0.00702273
v -0.11146089 0.01282869 0.00708141
v -0.11127330 0.01287504 0.00712584
v -0.11108223 0.01290621 0.00715569
v -0.11088906 0.01292196 0.00717078
v -0.10191063 0.00609048 0.00752586
v -0.09293220 -0.01366299 -0.00795324
v -0.09293220 -0.01366299 -0.00074628
v -0.07457534 -0.01683063 -0.01589313
v -0.07457534 -0.01680754 -0.01592817
v -0.07457534 -0.01664394 -0.01607079
v -0.07470795 -0.01653879 -0.01592817
v -0.07457534 -0.01695876 -0.01565253
v -0.07457534 -0.01687352 -0.01582806
v -0.07457534 -0.01699420 -0.01557954
v -0.07463901 -0.01690827 -0.01557954
v -0.07480485 -0.01657212 -0.01557954
v -0.07457534 -0.01639388 -0.01625526
v -0.07457534 -0.01649316 -0.01620225
v -0.07457534 -0.01645545 -0.01622238
v -0.07457534 -0.01621980 -0.01631716
v -0.07457534 -0.01615869 -0.01633888
v -0.07463901 -0.01616931 -0.01625526
v -0.07480485 -0.01619694 -0.01592817
v -0.07490643 -0.01621386 -0.01557954
v -0.07457534 -0.01703025 -0.01535207
v -0.07466907 -0.01692468 -0.01521999
v -0.07457534 -0.01705121 -0.01521999
v -0.07483749 -0.01658334 -0.01521999
v -0.07494063 -0.01621956 -0.01521999
v -0.07457534 -0.01594995 -0.01636386
v -0.07466907 -0.01584438 -0.01625526
v -0.07457534 -0.01584438 -0.01637651
v -0.07483749 -0.01584438 -0.01592817
v -0.07494063 -0.01584438 -0.01557954
v -0.07497534 -0.01584438 -0.01521999
v -0.07497534 -0.01440399 -0.00866334
v -0.07497534 -0.01512420 -0.00331449
v -0.07466907 -0.01692468 -0.00003618
v -0.07475328 -0.01675401 -0.00003618
v -0.07483749 -0.01658334 -0.00003618
v -0.07488906 -0.01640145 -0.00003618
v -0.07494063 -0.01621956 -0.00003618
v -0.07495797 -0.01603197 -0.00003618
v -0.07497534 -0.01584438 -0.00003618
v -0.08395377 -0.00683148 -0.00830829
v -0.07457534 -0.00284821 -0.01637650
v -0.09293220 -0.01366299 0.00788091
v -0.09293220 -0.00074100 0.00788091
v -0.07497534 -0.01440399 0.00859101
v -0.07466907 -0.01692468 0.01514766
v -0.07457534 -0.01705121 0.01514766
v -0.07483749 -0.01658337 0.01514766
v -0.07494063 -0.01621956 0.01514766
v -0.07457534 -0.01701250 0.01539188
v -0.07457534 -0.01699421 0.01550721
v -0.07463901 -0.01690827 0.01550721
v -0.07457534 -0.01687354 0.01575573
v -0.07480485 -0.01657212 0.01550721
v -0.07457534 -0.01680757 0.01585584
v -0.07470795 -0.01653879 0.01585584
v -0.07490643 -0.01621389 0.01550721
v -0.07457534 -0.01649319 0.01612992
v -0.07457534 -0.01639390 0.01618293
v -0.07480485 -0.01619694 0.01585584
v -0.07463901 -0.01616931 0.01618293
v -0.07457534 -0.01615870 0.01626655
v -0.07457534 -0.01606509 0.01627777
v -0.07497534 -0.01584441 0.01514766
v -0.07494063 -0.01584441 0.01550721
v -0.07483749 -0.01584441 0.01585584
v -0.07466907 -0.01584441 0.01618293
v -0.07457534 -0.01584441 0.01630418
v -0.08395377 -0.00757251 0.00823596
v -0.07497534 -0.00072021 0.01186935
v -0.07457534 -0.00284821 0.01630419
v -0.09293220 0.00074100 -0.00795324
v -0.09293220 0.01366299 -0.00795321
v -0.08395377 0.00757251 -0.00830829
v -0.07466907 0.00000000 -0.01625526
v -0.07457534 0.00000000 -0.01637650
v -0.07475328 0.00000000 -0.01609170
v -0.07483749 0.00000000 -0.01592814
v -0.07488906 0.00000000 -0.01575384
v -0.07494063 0.00000000 -0.01557954
v -0.07495797 0.00000000 -0.01539978
v -0.07497534 0.00000000 -0.01521999
v -0.07457534 0.00284821 -0.01637650
v -0.07497534 0.00072021 -0.01194168
v -0.07497534 0.00000000 -0.00866334
v -0.07466907 0.01584438 -0.01625526
v -0.07457534 0.01584438 -0.01637651
v -0.07457534 0.01598220 -0.01635643
v -0.07483749 0.01584438 -0.01592814
v -0.07494063 0.01584438 -0.01557954
v -0.07497534 0.01584438 -0.01521999
v -0.07457534 0.01621956 -0.01632186
v -0.07463901 0.01621956 -0.01623951
v -0.07480485 0.01621956 -0.01591740
v -0.07457534 0.01629573 -0.01628790
v -0.07457534 0.01647888 -0.01620623
v -0.07490643 0.01621956 -0.01557408
v -0.07457534 0.01654678 -0.01616515
v -0.07457534 0.01658334 -0.01614302
v -0.07470795 0.01658334 -0.01588545
v -0.07457534 0.01673218 -0.01598622
v -0.07480485 0.01658334 -0.01555785
v -0.07457534 0.01686936 -0.01584173
v -0.07457534 0.01689037 -0.01580560
v -0.07457534 0.01692468 -0.01574658
v -0.07463901 0.01692468 -0.01553136
v -0.07457534 0.01698927 -0.01557975
v -0.07457534 0.01701194 -0.01552119
v -0.07494063 0.01621956 -0.01521999
v -0.07483749 0.01658334 -0.01521999
v -0.07457534 0.01703801 -0.01532117
v -0.07466907 0.01692468 -0.01521999
v -0.07457534 0.01705121 -0.01521999
v -0.07497534 0.01440399 -0.00866334
v -0.09293220 0.01366296 0.00067395
v -0.09293220 0.01366296 0.00788091
v -0.08395377 0.00683148 0.00823596
v -0.07497534 0.00000000 0.00859101
v -0.07497534 0.00000000 0.01514766
v -0.07495797 0.00000000 0.01532745
v -0.07494063 0.00000000 0.01550721
v -0.07488906 0.00000000 0.01568154
v -0.07483749 0.00000000 0.01585584
v -0.07475328 0.00000000 0.01601937
v -0.07466907 0.00000000 0.01618293
v -0.07457534 0.00000000 0.01630419
v -0.07457534 0.00284821 0.01630419
v -0.07497534 0.01584438 -0.00003615
v -0.07495797 0.01603197 -0.00003615
v -0.07494063 0.01621956 -0.00003615
v -0.07488906 0.01640145 -0.00003615
v -0.07483749 0.01658334 -0.00003615
v -0.07475328 0.01675401 -0.00003615
v -0.07466907 0.01692468 -0.00003615
v -0.07497534 0.01512417 0.00324216
v -0.07457534 0.01705121 0.00269332
v -0.07497534 0.01440399 0.00859101
v -0.07497534 0.01584438 0.01514769
v -0.07494063 0.01584438 0.01550721
v -0.07483749 0.01584438 0.01585584
v -0.07466907 0.01584438 0.01618293
v -0.07457534 0.01584438 0.01630418
v -0.07494063 0.01621956 0.01514769
v -0.07483749 0.01658334 0.01514769
v -0.07466907 0.01692468 0.01514769
v -0.07457534 0.01705120 0.01514769
v -0.07490643 0.01621956 0.01550175
v -0.07480485 0.01621956 0.01584507
v -0.07457534 0.01609921 0.01626709
v -0.07463901 0.01621956 0.01616721
v -0.07457534 0.01621956 0.01624956
v -0.07457534 0.01647888 0.01613391
v -0.07480485 0.01658334 0.01548555
v -0.07457534 0.01702363 0.01535918
v -0.07463901 0.01692468 0.01545906
v -0.07457534 0.01701193 0.01544889
v -0.07457534 0.01686936 0.01576943
v -0.07457534 0.01692468 0.01567429
v -0.07470795 0.01658334 0.01581312
v -0.07457534 0.01658334 0.01607069
f 4 1 17
f 2 18 1
f 2 3 19
f 2 1 52
f 2 54 3
f 4 11 59
f 4 50 1
f 7 25 6
f 6 24 5
f 9 28 7
f 10 29 8
f 8 27 9
f 5 21 12
f 11 30 10
f 4 30 11
f 12 22 13
f 13 23 14
f 113 20 3
f 6 5 42
f 9 7 15
f 10 8 56
f 8 9 45
f 7 6 44
f 11 10 57
f 5 12 41
f 12 13 62
f 13 14 64
f 1 50 51
f 1 51 52
f 2 52 53
f 2 53 54
f 4 59 60
f 4 60 50
f 14 23 80
f 6 42 49
f 5 43 42
f 5 41 43
f 9 15 47
f 7 44 15
f 8 45 46
f 8 46 56
f 9 47 48
f 9 48 45
f 6 49 44
f 10 55 57
f 10 56 55
f 11 57 58
f 11 58 59
f 12 61 41
f 12 62 61
f 13 63 62
f 13 64 63
f 14 65 64
f 3 54 16
f 112 113 3
f 112 3 16
f 16 54 182
f 112 16 182
f 4 17 30
f 1 18 17
f 2 19 18
f 3 20 19
f 5 24 21
f 12 21 22
f 13 22 23
f 6 25 24
f 7 26 25
f 7 28 26
f 9 27 28
f 8 29 27
f 10 30 29
f 17 92 30
f 17 18 94
f 19 39 18
f 19 20 40
f 24 33 21
f 21 32 22
f 23 22 31
f 25 34 24
f 25 26 35
f 26 28 87
f 27 36 28
f 29 37 27
f 29 30 38
f 30 90 38
f 17 93 92
f 17 94 93
f 18 39 94
f 19 95 39
f 19 40 95
f 20 96 40
f 22 81 31
f 22 32 81
f 21 82 32
f 21 33 82
f 24 83 33
f 25 84 34
f 25 35 84
f 24 34 83
f 26 85 35
f 26 86 85
f 26 87 86
f 28 36 87
f 27 88 36
f 27 37 88
f 29 89 37
f 29 38 89
f 30 91 90
f 30 92 91
f 23 31 97
f 20 154 96
f 113 153 20
f 153 154 20
f 14 73 65
f 43 41 66
f 42 43 67
f 49 42 67
f 44 49 68
f 15 44 68
f 15 68 47
f 46 45 70
f 48 47 69
f 45 48 70
f 56 46 71
f 55 56 71
f 41 61 66
f 61 62 75
f 62 63 75
f 64 74 63
f 64 65 74
f 14 80 73
f 60 76 50
f 50 76 51
f 52 51 77
f 52 77 53
f 54 53 78
f 57 55 72
f 58 57 72
f 58 79 59
f 59 79 60
f 43 66 67
f 47 68 69
f 46 70 71
f 48 69 70
f 49 67 68
f 55 71 72
f 65 73 74
f 63 74 75
f 61 75 66
f 54 78 182
f 51 76 77
f 53 77 78
f 58 72 79
f 60 79 76
f 66 101 67
f 68 67 102
f 69 68 102
f 69 103 70
f 70 104 71
f 72 71 105
f 74 73 98
f 74 99 75
f 75 100 66
f 72 107 79
f 79 108 76
f 76 108 77
f 77 109 78
f 182 78 183
f 78 225 183
f 23 97 80
f 31 81 97
f 32 98 81
f 32 82 98
f 33 99 82
f 33 83 99
f 34 100 83
f 34 84 100
f 35 101 84
f 35 85 101
f 85 86 102
f 86 87 103
f 36 103 87
f 36 88 103
f 37 104 88
f 37 89 104
f 38 105 89
f 38 90 105
f 73 80 97
f 90 91 106
f 91 92 107
f 93 107 92
f 93 94 108
f 39 108 94
f 39 95 108
f 40 109 95
f 40 96 109
f 81 98 97
f 82 99 98
f 83 100 99
f 84 101 100
f 85 102 101
f 86 103 102
f 88 104 103
f 89 105 104
f 90 106 105
f 96 111 110
f 73 97 98
f 74 98 99
f 75 99 100
f 66 100 101
f 67 101 102
f 69 102 103
f 70 103 104
f 71 104 105
f 72 105 106
f 72 106 107
f 91 107 106
f 93 108 107
f 95 109 108
f 96 110 109
f 79 107 108
f 77 108 109
f 78 109 110
f 78 110 225
f 154 111 96
f 154 226 111
f 111 226 110
f 110 226 225
f 112 142 113
f 112 182 151
f 112 151 142
f 117 115 114
f 117 116 115
f 117 124 116
f 121 114 119
f 121 119 118
f 121 118 120
f 121 120 131
f 121 131 132
f 121 122 114
f 117 114 122
f 121 134 122
f 128 126 123
f 128 125 129
f 128 123 125
f 117 129 125
f 117 125 124
f 128 127 126
f 128 136 127
f 128 137 136
f 128 129 139
f 122 135 130
f 129 130 140
f 117 122 130
f 117 130 129
f 132 131 133
f 121 132 134
f 130 135 141
f 122 134 135
f 137 138 136
f 128 139 137
f 130 141 140
f 129 140 139
f 132 145 134
f 134 147 135
f 135 149 141
f 141 143 142
f 137 152 138
f 137 139 187
f 139 140 189
f 140 141 191
f 141 142 192
f 113 142 155
f 141 150 143
f 132 133 157
f 132 144 145
f 134 145 146
f 134 146 147
f 135 147 148
f 135 148 149
f 141 149 150
f 132 157 144
f 142 143 155
f 151 182 195
f 137 185 152
f 137 187 185
f 139 188 187
f 139 189 188
f 140 190 189
f 140 191 190
f 141 192 191
f 142 151 195
f 142 194 192
f 142 195 194
f 185 186 152
f 113 155 153
f 153 179 154
f 150 155 143
f 144 156 145
f 145 158 146
f 146 158 147
f 147 159 148
f 148 159 149
f 149 174 150
f 150 174 155
f 153 155 179
f 144 157 156
f 145 156 158
f 147 158 159
f 149 159 174
f 156 157 160
f 156 164 158
f 158 167 159
f 156 160 162
f 162 160 161
f 156 162 164
f 162 161 163
f 162 163 165
f 162 166 164
f 162 165 166
f 166 165 168
f 159 167 175
f 158 164 167
f 164 166 170
f 164 170 167
f 167 170 176
f 166 171 170
f 166 168 171
f 171 168 169
f 171 169 172
f 171 172 173
f 170 171 177
f 171 173 177
f 159 175 174
f 167 176 175
f 170 177 176
f 177 173 178
f 155 174 180
f 177 178 181
f 174 175 230
f 175 176 232
f 176 177 234
f 154 179 228
f 155 228 179
f 155 180 228
f 174 229 180
f 177 181 235
f 174 230 229
f 175 231 230
f 175 232 231
f 176 233 232
f 176 234 233
f 177 235 234
f 235 181 236
f 182 183 184
f 183 225 224
f 182 184 195
f 185 193 186
f 185 187 196
f 187 188 199
f 188 189 199
f 189 190 200
f 190 191 200
f 191 192 201
f 185 196 193
f 192 194 201
f 195 184 224
f 194 195 224
f 184 183 224
f 187 199 196
f 189 200 199
f 191 201 200
f 196 197 193
f 194 224 201
f 196 198 197
f 196 199 203
f 200 201 207
f 199 200 204
f 196 203 198
f 203 202 198
f 203 205 202
f 203 199 204
f 203 206 205
f 203 208 206
f 203 204 208
f 204 210 208
f 204 200 207
f 207 219 212
f 204 207 210
f 207 212 210
f 210 209 208
f 210 211 209
f 210 213 211
f 210 212 214
f 210 214 213
f 212 220 216
f 212 216 214
f 216 215 214
f 216 217 215
f 216 218 217
f 216 222 221
f 216 221 218
f 201 219 207
f 219 220 212
f 220 222 216
f 222 223 221
f 201 239 219
f 219 241 220
f 220 243 222
f 222 244 223
f 201 224 238
f 201 238 239
f 219 239 240
f 219 240 241
f 220 241 242
f 220 242 243
f 222 243 244
f 244 246 223
f 224 245 238
f 154 227 226
f 225 226 247
f 154 228 227
f 235 236 237
f 228 247 227
f 180 247 228
f 180 229 247
f 229 230 248
f 230 231 249
f 231 232 249
f 232 233 250
f 233 234 250
f 234 235 251
f 235 237 251
f 224 225 247
f 224 247 245
f 238 248 239
f 239 253 240
f 240 253 241
f 241 254 242
f 242 254 243
f 243 255 244
f 244 255 246
f 245 248 238
f 227 247 226
f 229 248 247
f 230 249 248
f 232 250 249
f 234 251 250
f 251 237 252
f 245 247 248
f 239 248 253
f 241 253 254
f 243 254 255
f 255 256 246
f 248 249 253
f 249 250 257
f 250 251 258
f 251 252 259
f 253 257 254
f 254 263 255
f 255 264 256
f 249 257 253
f 257 250 258
f 257 263 254
f 257 258 263
f 258 269 263
f 258 251 260
f 251 259 260
f 260 259 261
f 258 260 269
f 269 260 262
f 260 261 262
f 263 269 265
f 263 265 255
f 255 265 264
f 265 268 266
f 265 266 264
f 265 267 268
f 269 267 265
f 269 262 270
f 269 270 267
f 116 124 157
f 124 125 157
f 123 126 157
f 123 157 125
f 119 114 157
f 119 157 118
f 115 157 114
f 116 157 115
f 120 118 157
f 120 157 131
f 126 127 157
f 127 136 157
f 136 138 157
f 131 157 133
f 138 152 157
f 152 186 157
f 157 186 193
f 157 197 160
f 160 197 161
f 161 197 163
f 163 197 165
f 165 197 168
f 168 211 169
f 169 211 172
f 172 211 173
f 173 211 178
f 178 223 181
f 157 193 197
f 198 168 197
f 198 202 168
f 205 168 202
f 205 206 168
f 206 208 168
f 208 209 168
f 211 168 209
f 178 211 213
f 178 213 214
f 178 214 215
f 178 215 217
f 178 217 218
f 178 218 221
f 178 221 223
f 181 223 236
f 223 237 236
f 223 246 237
f 237 246 252
f 246 256 264
f 246 264 266
f 246 259 252
f 246 261 259
f 246 262 261
f 246 270 262
f 246 266 268
f 246 268 267
f 246 267 270