# https://github.com/mikedh/trimesh

o decomp_7.obj
v -0.03146129 0.01800498 0.01514752 0.79607843 0.45882353 0.78039216
v -0.03573639 0.01798031 0.01541658 0.79607843 0.45882353 0.78039216
v -0.03146129 0.01798031 0.01540646 0.79607843 0.45882353 0.78039216
v -0.03146129 0.01800498 0.00860147 0.79607843 0.45882353 0.78039216
v -0.07268889 0.01800498 0.01514752 0.79607843 0.45882353 0.78039216
v -0.03146129 0.01796973 0.01550683 0.79607843 0.45882353 0.78039216
v -0.07268889 0.01796973 0.01550683 0.79607843 0.45882353 0.78039216
v -0.03146129 -0.01800498 0.00860147 0.79607843 0.45882353 0.78039216
v -0.07268889 0.01800498 0.00860147 0.79607843 0.45882353 0.78039216
v -0.07308559 0.01796973 0.01514752 0.79607843 0.45882353 0.78039216
v -0.07307715 0.01796973 0.01520994 0.79607843 0.45882353 0.78039216
v -0.07306027 0.01796973 0.01526982 0.79607843 0.45882353 0.78039216
v -0.07303073 0.01796973 0.01532718 0.79607843 0.45882353 0.78039216
v -0.07299275 0.01796973 0.01537863 0.79607843 0.45882353 0.78039216
v -0.07294211 0.01796973 0.01542249 0.79607843 0.45882353 0.78039216
v -0.07288724 0.01796973 0.01545876 0.79607843 0.45882353 0.78039216
v -0.07282394 0.01796973 0.01548490 0.79607843 0.45882353 0.78039216
v -0.07275642 0.01796973 0.01550093 0.79607843 0.45882353 0.78039216
v -0.05420842 0.01795916 0.01555069 0.79607843 0.45882353 0.78039216
v -0.03146129 0.01789571 0.01577927 0.79607843 0.45882353 0.78039216
v -0.07282394 0.01787456 0.01584506 0.79607843 0.45882353 0.78039216
v -0.07268889 0.01787456 0.01585518 0.79607843 0.45882353 0.78039216
v -0.03146129 -0.01800498 0.01514752 0.79607843 0.45882353 0.78039216
v -0.07268889 -0.01800498 0.00860147 0.79607843 0.45882353 0.78039216
v -0.07308559 0.01796973 0.00860147 0.79607843 0.45882353 0.78039216
v -0.07346964 0.01787456 0.01514752 0.79607843 0.45882353 0.78039216
v -0.07345697 0.01787456 0.01526982 0.79607843 0.45882353 0.78039216
v -0.07342321 0.01787456 0.01538959 0.79607843 0.45882353 0.78039216
v -0.07336413 0.01787456 0.01550093 0.79607843 0.45882353 0.78039216
v -0.07328817 0.01787456 0.01560214 0.79607843 0.45882353 0.78039216
v -0.07319110 0.01787456 0.01568986 0.79607843 0.45882353 0.78039216
v -0.07307715 0.01787456 0.01576071 0.79607843 0.45882353 0.78039216
v -0.07295477 0.01787456 0.01581301 0.79607843 0.45882353 0.78039216
v -0.03146129 0.01787456 0.01585518 0.79607843 0.45882353 0.78039216
v -0.07307715 0.01771242 0.01612002 0.79607843 0.45882353 0.78039216
v -0.07288724 0.01771242 0.01616641 0.79607843 0.45882353 0.78039216
v -0.07268889 0.01771242 0.01618244 0.79607843 0.45882353 0.78039216
v -0.03146129 0.01771947 0.01617316 0.79607843 0.45882353 0.78039216
v -0.05420842 0.01781464 0.01597832 0.79607843 0.45882353 0.78039216
v -0.03146129 0.01783931 0.01592772 0.79607843 0.45882353 0.78039216
v -0.03146129 -0.01798031 0.01540646 0.79607843 0.45882353 0.78039216
v -0.03573639 -0.01798031 0.01541658 0.79607843 0.45882353 0.78039216
v -0.07268889 -0.01800498 0.01514752 0.79607843 0.45882353 0.78039216
v -0.07308559 -0.01796973 0.00860147 0.79607843 0.45882353 0.78039216
v -0.07346964 0.01787456 0.00860147 0.79607843 0.45882353 0.78039216
v -0.07375239 0.01774767 0.00860147 0.79607843 0.45882353 0.78039216
v -0.07382836 0.01771242 0.01514752 0.79607843 0.45882353 0.78039216
v -0.07381148 0.01771242 0.01532718 0.79607843 0.45882353 0.78039216
v -0.07376083 0.01771242 0.01550093 0.79607843 0.45882353 0.78039216
v -0.07367643 0.01771242 0.01566456 0.79607843 0.45882353 0.78039216
v -0.07356248 0.01771242 0.01581301 0.79607843 0.45882353 0.78039216
v -0.07342321 0.01771242 0.01594037 0.79607843 0.45882353 0.78039216
v -0.07325863 0.01771242 0.01604411 0.79607843 0.45882353 0.78039216
v -0.07319110 0.01749740 0.01639752 0.79607843 0.45882353 0.78039216
v -0.07294211 0.01749740 0.01645825 0.79607843 0.45882353 0.78039216
v -0.07268889 0.01749740 0.01647849 0.79607843 0.45882353 0.78039216
v -0.05420842 0.01768774 0.01621955 0.79607843 0.45882353 0.78039216
v -0.03146129 0.01770889 0.01619172 0.79607843 0.45882353 0.78039216
v -0.03146129 -0.01796973 0.01550683 0.79607843 0.45882353 0.78039216
v -0.07268889 -0.01796973 0.01550683 0.79607843 0.45882353 0.78039216
v -0.07307715 -0.01793801 0.01550683 0.79607843 0.45882353 0.78039216
v -0.07308559 -0.01796973 0.01514752 0.79607843 0.45882353 0.78039216
v -0.07346964 -0.01787456 0.00860147 0.79607843 0.45882353 0.78039216
v -0.07382836 0.01771242 0.00860147 0.79607843 0.45882353 0.78039216
v -0.07390010 0.01766659 0.00860147 0.79607843 0.45882353 0.78039216
v -0.07415754 0.01749740 0.01514752 0.79607843 0.45882353 0.78039216
v -0.07413644 0.01749740 0.01537863 0.79607843 0.45882353 0.78039216
v -0.07406891 0.01749740 0.01560214 0.79607843 0.45882353 0.78039216
v -0.07395919 0.01749740 0.01581301 0.79607843 0.45882353 0.78039216
v -0.07381148 0.01749740 0.01600278 0.79607843 0.45882353 0.78039216
v -0.07342321 0.01749740 0.01629968 0.79607843 0.45882353 0.78039216
v -0.07363001 0.01749740 0.01616641 0.79607843 0.45882353 0.78039216
v -0.07328817 0.01723304 0.01663790 0.79607843 0.45882353 0.78039216
v -0.07299275 0.01723304 0.01670960 0.79607843 0.45882353 0.78039216
v -0.07268889 0.01723304 0.01673322 0.79607843 0.45882353 0.78039216
v -0.05420842 0.01746568 0.01650970 0.79607843 0.45882353 0.78039216
v -0.03146129 0.01749035 0.01648608 0.79607843 0.45882353 0.78039216
v -0.03573639 0.01749740 0.01647849 0.79607843 0.45882353 0.78039216
v -0.05420842 0.01752560 0.01644138 0.79607843 0.45882353 0.78039216
v -0.03146129 0.01754675 0.01641355 0.79607843 0.45882353 0.78039216
v -0.03146129 -0.01789571 0.01577842 0.79607843 0.45882353 0.78039216
v -0.05420842 -0.01795916 0.01555069 0.79607843 0.45882353 0.78039216
v -0.07268889 -0.01787456 0.01585518 0.79607843 0.45882353 0.78039216
v -0.07306027 -0.01784284 0.01585518 0.79607843 0.45882353 0.78039216
v -0.07345697 -0.01784284 0.01550683 0.79607843 0.45882353 0.78039216
v -0.07346964 -0.01787456 0.01514752 0.79607843 0.45882353 0.78039216
v -0.07375239 -0.01774767 0.00860147 0.79607843 0.45882353 0.78039216
v -0.07415754 0.01749740 0.00860147 0.79607843 0.45882353 0.78039216
v -0.07444029 0.01723304 0.01514752 0.79607843 0.45882353 0.78039216
v -0.07441075 0.01723304 0.01542249 0.79607843 0.45882353 0.78039216
v -0.07433479 0.01723304 0.01568986 0.79607843 0.45882353 0.78039216
v -0.07420396 0.01723304 0.01594037 0.79607843 0.45882353 0.78039216
v -0.07402671 0.01723304 0.01616641 0.79607843 0.45882353 0.78039216
v -0.07381148 0.01723304 0.01636209 0.79607843 0.45882353 0.78039216
v -0.07356248 0.01723304 0.01652066 0.79607843 0.45882353 0.78039216
v -0.07367643 0.01692285 0.01670032 0.79607843 0.45882353 0.78039216
v -0.07336413 0.01692285 0.01683190 0.79607843 0.45882353 0.78039216
v -0.07303073 0.01692285 0.01691287 0.79607843 0.45882353 0.78039216
v -0.07268889 0.01692285 0.01694071 0.79607843 0.45882353 0.78039216
v -0.03146129 0.01693342 0.01693480 0.79607843 0.45882353 0.78039216
v -0.03573639 0.01715549 0.01678551 0.79607843 0.45882353 0.78039216
v -0.03573639 0.01723304 0.01673322 0.79607843 0.45882353 0.78039216
v -0.03146129 0.01730706 0.01666236 0.79607843 0.45882353 0.78039216
v -0.03146129 0.01750445 0.01646921 0.79607843 0.45882353 0.78039216
v -0.03146129 -0.01787456 0.01584506 0.79607843 0.45882353 0.78039216
v -0.03573639 -0.01787456 0.01585518 0.79607843 0.45882353 0.78039216
v -0.05420842 -0.01773357 0.01614195 0.79607843 0.45882353 0.78039216
v -0.07268889 -0.01771242 0.01618244 0.79607843 0.45882353 0.78039216
v -0.07303073 -0.01768422 0.01618244 0.79607843 0.45882353 0.78039216
v -0.03573639 -0.01775472 0.01610062 0.79607843 0.45882353 0.78039216
v -0.03146129 -0.01771947 0.01617232 0.79607843 0.45882353 0.78039216
v -0.07342321 -0.01775119 0.01585518 0.79607843 0.45882353 0.78039216
v -0.07381148 -0.01768422 0.01550683 0.79607843 0.45882353 0.78039216
v -0.07382836 -0.01771242 0.01514752 0.79607843 0.45882353 0.78039216
v -0.07382836 -0.01771242 0.00860147 0.79607843 0.45882353 0.78039216
v -0.07444029 0.01723304 0.00860147 0.79607843 0.45882353 0.78039216
v -0.07457112 0.01704974 0.01514752 0.79607843 0.45882353 0.78039216
v -0.07457112 0.01701097 0.01544863 0.79607843 0.45882353 0.78039216
v -0.07454580 0.01692285 0.01576071 0.79607843 0.45882353 0.78039216
v -0.07440231 0.01692285 0.01604411 0.79607843 0.45882353 0.78039216
v -0.07420396 0.01692285 0.01629968 0.79607843 0.45882353 0.78039216
v -0.07395919 0.01692285 0.01652066 0.79607843 0.45882353 0.78039216
v -0.07406891 0.01658094 0.01663790 0.79607843 0.45882353 0.78039216
v -0.07376083 0.01658094 0.01683190 0.79607843 0.45882353 0.78039216
v -0.07342321 0.01658094 0.01697529 0.79607843 0.45882353 0.78039216
v -0.07306027 0.01658094 0.01706301 0.79607843 0.45882353 0.78039216
v -0.07268889 0.01658094 0.01709253 0.79607843 0.45882353 0.78039216
v -0.03146129 0.01684883 0.01697444 0.79607843 0.45882353 0.78039216
v -0.03573639 0.01692285 0.01694071 0.79607843 0.45882353 0.78039216
v -0.03146129 0.01691227 0.01694492 0.79607843 0.45882353 0.78039216
v -0.03146129 0.01722246 0.01673996 0.79607843 0.45882353 0.78039216
v -0.03146129 0.01724009 0.01672562 0.79607843 0.45882353 0.78039216
v -0.03146129 -0.01786751 0.01586446 0.79607843 0.45882353 0.78039216
v -0.03146129 -0.01783931 0.01592687 0.79607843 0.45882353 0.78039216
v -0.05420842 -0.01768774 0.01621955 0.79607843 0.45882353 0.78039216
v -0.07268889 -0.01749740 0.01647849 0.79607843 0.45882353 0.78039216
v -0.07299275 -0.01747273 0.01647849 0.79607843 0.45882353 0.78039216
v -0.03146129 -0.01770889 0.01619087 0.79607843 0.45882353 0.78039216
v -0.07328817 -0.01739870 0.01647849 0.79607843 0.45882353 0.78039216
v -0.07336413 -0.01759962 0.01618244 0.79607843 0.45882353 0.78039216
v -0.07367643 -0.01746215 0.01618244 0.79607843 0.45882353 0.78039216
v -0.07376083 -0.01759962 0.01585518 0.79607843 0.45882353 0.78039216
v -0.07413644 -0.01747273 0.01550683 0.79607843 0.45882353 0.78039216
v -0.07415754 -0.01749740 0.01514752 0.79607843 0.45882353 0.78039216
v -0.07390010 -0.01766659 0.00860147 0.79607843 0.45882353 0.78039216
v -0.07457112 0.01704974 0.00860147 0.79607843 0.45882353 0.78039216
v -0.07457112 0.01692285 0.01567384 0.79607843 0.45882353 0.78039216
v -0.07457112 0.01686645 0.01576915 0.79607843 0.45882353 0.78039216
v -0.07457112 0.01658094 0.01607026 0.79607843 0.45882353 0.78039216
v -0.07433479 0.01658094 0.01639752 0.79607843 0.45882353 0.78039216
v -0.07454580 0.01658094 0.01612002 0.79607843 0.45882353 0.78039216
v -0.07413644 0.01621788 0.01670960 0.79607843 0.45882353 0.78039216
v -0.07381148 0.01621788 0.01691287 0.79607843 0.45882353 0.78039216
v -0.07345697 0.01621788 0.01706301 0.79607843 0.45882353 0.78039216
v -0.07307715 0.01621788 0.01715494 0.79607843 0.45882353 0.78039216
v -0.07268889 0.01621788 0.01718615 0.79607843 0.45882353 0.78039216
v -0.05420842 0.01635535 0.01715157 0.79607843 0.45882353 0.78039216
v -0.03146129 0.01657036 0.01709590 0.79607843 0.45882353 0.78039216
v -0.03146129 0.01658094 0.01709253 0.79607843 0.45882353 0.78039216
v -0.03146129 0.01659151 0.01708831 0.79607843 0.45882353 0.78039216
v -0.05420842 -0.01752560 0.01644138 0.79607843 0.45882353 0.78039216
v -0.05420842 -0.01746568 0.01650970 0.79607843 0.45882353 0.78039216
v -0.07268889 -0.01723304 0.01673322 0.79607843 0.45882353 0.78039216
v -0.03573639 -0.01749740 0.01647849 0.79607843 0.45882353 0.78039216
v -0.03146129 -0.01744100 0.01653416 0.79607843 0.45882353 0.78039216
v -0.07294211 -0.01721189 0.01673322 0.79607843 0.45882353 0.78039216
v -0.03146129 -0.01754675 0.01641270 0.79607843 0.45882353 0.78039216
v -0.07319110 -0.01714844 0.01673322 0.79607843 0.45882353 0.78039216
v -0.07342321 -0.01704622 0.01673322 0.79607843 0.45882353 0.78039216
v -0.07356248 -0.01727533 0.01647849 0.79607843 0.45882353 0.78039216
v -0.07395919 -0.01727533 0.01618244 0.79607843 0.45882353 0.78039216
v -0.07406891 -0.01739870 0.01585518 0.79607843 0.45882353 0.78039216
v -0.07433479 -0.01714844 0.01585518 0.79607843 0.45882353 0.78039216
v -0.07441075 -0.01721189 0.01550683 0.79607843 0.45882353 0.78039216
v -0.07444029 -0.01723304 0.01514752 0.79607843 0.45882353 0.78039216
v -0.07415754 -0.01749740 0.00860147 0.79607843 0.45882353 0.78039216
v -0.07457112 -0.01704974 0.00860147 0.79607843 0.45882353 0.78039216
v -0.07457112 0.01647872 0.01613352 0.79607843 0.45882353 0.78039216
v -0.07457112 0.01621788 0.01624907 0.79607843 0.45882353 0.78039216
v -0.07441075 0.01621788 0.01645825 0.79607843 0.45882353 0.78039216
v -0.07415754 0.01584424 0.01673322 0.79607843 0.45882353 0.78039216
v -0.07382836 0.01584424 0.01694071 0.79607843 0.45882353 0.78039216
v -0.07444029 0.01584424 0.01647849 0.79607843 0.45882353 0.78039216
v -0.07346964 0.01584424 0.01709253 0.79607843 0.45882353 0.78039216
v -0.07308559 0.01584424 0.01718615 0.79607843 0.45882353 0.78039216
v -0.07268889 0.01584424 0.01721736 0.79607843 0.45882353 0.78039216
v -0.05420842 0.01589006 0.01721398 0.79607843 0.45882353 0.78039216
v -0.05420842 0.01617205 0.01719037 0.79607843 0.45882353 0.78039216
v -0.03146129 0.01621788 0.01718615 0.79607843 0.45882353 0.78039216
v -0.03146129 0.01622845 0.01718362 0.79607843 0.45882353 0.78039216
v -0.03573639 0.01630952 0.01716338 0.79607843 0.45882353 0.78039216
v -0.03146129 0.01629895 0.01716591 0.79607843 0.45882353 0.78039216
v -0.03146129 -0.01750445 0.01646921 0.79607843 0.45882353 0.78039216
v -0.07268889 -0.01692285 0.01694071 0.79607843 0.45882353 0.78039216
v -0.03573639 -0.01723304 0.01673322 0.79607843 0.45882353 0.78039216
v -0.03573639 -0.01715549 0.01678551 0.79607843 0.45882353 0.78039216
v -0.03146129 -0.01749035 0.01648524 0.79607843 0.45882353 0.78039216
v -0.03146129 -0.01724009 0.01672562 0.79607843 0.45882353 0.78039216
v -0.07288724 -0.01690522 0.01694071 0.79607843 0.45882353 0.78039216
v -0.07307715 -0.01685940 0.01694071 0.79607843 0.45882353 0.78039216
v -0.07325863 -0.01677833 0.01694071 0.79607843 0.45882353 0.78039216
v -0.07342321 -0.01666906 0.01694071 0.79607843 0.45882353 0.78039216
v -0.07363001 -0.01690522 0.01673322 0.79607843 0.45882353 0.78039216
v -0.07381148 -0.01710967 0.01647849 0.79607843 0.45882353 0.78039216
v -0.07420396 -0.01704622 0.01618244 0.79607843 0.45882353 0.78039216
v -0.07440231 -0.01677833 0.01618244 0.79607843 0.45882353 0.78039216
v -0.07454580 -0.01685940 0.01585518 0.79607843 0.45882353 0.78039216
v -0.07457112 -0.01687350 0.01575565 0.79607843 0.45882353 0.78039216
v -0.07457112 -0.01699335 0.01550683 0.79607843 0.45882353 0.78039216
v -0.07457112 -0.01704974 0.01514752 0.79607843 0.45882353 0.78039216
v -0.07444029 -0.01723304 0.00860147 0.79607843 0.45882353 0.78039216
v -0.07457112 0.01609803 0.01626679 0.79607843 0.45882353 0.78039216
v -0.07415754 -0.01584424 0.01673322 0.79607843 0.45882353 0.78039216
v -0.07382836 -0.01584424 0.01694071 0.79607843 0.45882353 0.78039216
v -0.07365111 0.00000000 0.01701662 0.79607843 0.45882353 0.78039216
v -0.07457112 0.01584424 0.01630390 0.79607843 0.45882353 0.78039216
v -0.07455424 0.00000000 0.01633004 0.79607843 0.45882353 0.78039216
v -0.07444029 -0.01584424 0.01647849 0.79607843 0.45882353 0.78039216
v -0.07346964 -0.01584424 0.01709253 0.79607843 0.45882353 0.78039216
v -0.07308559 -0.01584424 0.01718615 0.79607843 0.45882353 0.78039216
v -0.07288724 0.00000000 0.01720218 0.79607843 0.45882353 0.78039216
v -0.07268889 -0.01584424 0.01721736 0.79607843 0.45882353 0.78039216
v -0.03146129 0.01584424 0.01721736 0.79607843 0.45882353 0.78039216
v -0.03146129 0.01585482 0.01721651 0.79607843 0.45882353 0.78039216
v -0.03146129 0.01611213 0.01719543 0.79607843 0.45882353 0.78039216
v -0.03573639 0.01612271 0.01719458 0.79607843 0.45882353 0.78039216
v -0.07268889 -0.01658094 0.01709253 0.79607843 0.45882353 0.78039216
v -0.07282394 -0.01657036 0.01709253 0.79607843 0.45882353 0.78039216
v -0.03146129 -0.01693342 0.01693396 0.79607843 0.45882353 0.78039216
v -0.03573639 -0.01692285 0.01694071 0.79607843 0.45882353 0.78039216
v -0.03573639 -0.01683825 0.01697866 0.79607843 0.45882353 0.78039216
v -0.03146129 -0.01665848 0.01705879 0.79607843 0.45882353 0.78039216
v -0.03146129 -0.01722246 0.01673912 0.79607843 0.45882353 0.78039216
v -0.03146129 -0.01714492 0.01679141 0.79607843 0.45882353 0.78039216
v -0.07295477 -0.01653864 0.01709253 0.79607843 0.45882353 0.78039216
v -0.07319110 -0.01640822 0.01709253 0.79607843 0.45882353 0.78039216
v -0.07307715 -0.01648224 0.01709253 0.79607843 0.45882353 0.78039216
v -0.07356248 -0.01653864 0.01694071 0.79607843 0.45882353 0.78039216
v -0.07381148 -0.01673603 0.01673322 0.79607843 0.45882353 0.78039216
v -0.07402671 -0.01690522 0.01647849 0.79607843 0.45882353 0.78039216
v -0.07420396 -0.01666906 0.01647849 0.79607843 0.45882353 0.78039216
v -0.07433479 -0.01640822 0.01647849 0.79607843 0.45882353 0.78039216
v -0.07454580 -0.01648224 0.01618244 0.79607843 0.45882353 0.78039216
v -0.07457112 -0.01649282 0.01612930 0.79607843 0.45882353 0.78039216
v -0.07457112 -0.01680653 0.01585518 0.79607843 0.45882353 0.78039216
v -0.07413644 -0.01608393 0.01673322 0.79607843 0.45882353 0.78039216
v -0.07381148 -0.01603106 0.01694071 0.79607843 0.45882353 0.78039216
v -0.07457112 -0.01584424 0.01630390 0.79607843 0.45882353 0.78039216
v -0.07457112 -0.01606278 0.01627775 0.79607843 0.45882353 0.78039216
v -0.07457112 -0.01615795 0.01626594 0.79607843 0.45882353 0.78039216
v -0.07441075 -0.01612976 0.01647849 0.79607843 0.45882353 0.78039216
v -0.07345697 -0.01597114 0.01709253 0.79607843 0.45882353 0.78039216
v -0.07307715 -0.01590769 0.01718615 0.79607843 0.45882353 0.78039216
v -0.07306027 -0.01597114 0.01718615 0.79607843 0.45882353 0.78039216
v -0.07303073 -0.01603106 0.01718615 0.79607843 0.45882353 0.78039216
v -0.07299275 -0.01608393 0.01718615 0.79607843 0.45882353 0.78039216
v -0.07294211 -0.01612976 0.01718615 0.79607843 0.45882353 0.78039216
v -0.07288724 -0.01616853 0.01718615 0.79607843 0.45882353 0.78039216
v -0.07282394 -0.01619673 0.01718615 0.79607843 0.45882353 0.78039216
v -0.07275642 -0.01621083 0.01718615 0.79607843 0.45882353 0.78039216
v -0.07268889 -0.01621788 0.01718615 0.79607843 0.45882353 0.78039216
v -0.05420842 -0.01589006 0.01721398 0.79607843 0.45882353 0.78039216
v -0.03146129 -0.01584424 0.01721736 0.79607843 0.45882353 0.78039216
v -0.05420842 -0.01635535 0.01715157 0.79607843 0.45882353 0.78039216
v -0.03146129 -0.01659151 0.01708831 0.79607843 0.45882353 0.78039216
v -0.03146129 -0.01658094 0.01709253 0.79607843 0.45882353 0.78039216
v -0.03146129 -0.01657036 0.01709590 0.79607843 0.45882353 0.78039216
v -0.03146129 -0.01650339 0.01711361 0.79607843 0.45882353 0.78039216
v -0.03146129 -0.01691227 0.01694492 0.79607843 0.45882353 0.78039216
v -0.03146129 -0.01684883 0.01697360 0.79607843 0.45882353 0.78039216
v -0.07328817 -0.01631657 0.01709253 0.79607843 0.45882353 0.78039216
v -0.07367643 -0.01638355 0.01694071 0.79607843 0.45882353 0.78039216
v -0.07395919 -0.01653864 0.01673322 0.79607843 0.45882353 0.78039216
v -0.07406891 -0.01631657 0.01673322 0.79607843 0.45882353 0.78039216
v -0.07457112 -0.01639059 0.01618244 0.79607843 0.45882353 0.78039216
v -0.07376083 -0.01621083 0.01694071 0.79607843 0.45882353 0.78039216
v -0.07342321 -0.01609451 0.01709253 0.79607843 0.45882353 0.78039216
v -0.07336413 -0.01621083 0.01709253 0.79607843 0.45882353 0.78039216
v -0.05420842 -0.01617205 0.01719037 0.79607843 0.45882353 0.78039216
v -0.03573639 -0.01630952 0.01716338 0.79607843 0.45882353 0.78039216
v -0.03146129 -0.01622845 0.01718362 0.79607843 0.45882353 0.78039216
v -0.03146129 -0.01621788 0.01718615 0.79607843 0.45882353 0.78039216
v -0.03573639 -0.01612271 0.01719458 0.79607843 0.45882353 0.78039216
v -0.03146129 -0.01597114 0.01720724 0.79607843 0.45882353 0.78039216
v -0.03146129 -0.01629895 0.01716591 0.79607843 0.45882353 0.78039216
v -0.03146129 -0.01611213 0.01719543 0.79607843 0.45882353 0.78039216
f 1 2 3
f 1 3 6
f 1 6 20
f 1 20 34
f 1 34 40
f 1 40 38
f 1 38 58
f 1 58 80
f 1 80 104
f 1 104 77
f 1 77 103
f 1 103 132
f 1 132 131
f 1 131 100
f 1 100 130
f 1 130 128
f 1 128 160
f 1 160 159
f 1 159 158
f 1 158 192
f 1 192 190
f 1 190 189
f 1 189 225
f 1 225 224
f 1 224 223
f 1 223 263
f 1 263 284
f 1 284 286
f 1 286 282
f 1 282 281
f 1 281 285
f 1 285 268
f 1 268 267
f 1 267 266
f 1 266 265
f 1 265 232
f 1 232 270
f 1 270 269
f 1 269 229
f 1 229 234
f 1 234 233
f 1 233 198
f 1 198 165
f 1 165 197
f 1 197 193
f 1 193 167
f 1 167 138
f 1 138 111
f 1 111 134
f 1 134 133
f 1 133 105
f 1 105 81
f 1 81 59
f 1 59 41
f 1 41 23
f 1 23 8
f 1 8 4
f 1 4 9
f 1 9 5
f 1 5 2
f 2 6 3
f 2 5 7
f 2 7 6
f 4 8 24
f 4 24 44
f 4 44 63
f 4 63 87
f 4 87 115
f 4 115 145
f 4 145 176
f 4 176 211
f 4 211 177
f 4 177 146
f 4 146 116
f 4 116 88
f 4 88 65
f 4 65 64
f 4 64 46
f 4 46 45
f 4 45 25
f 4 25 9
f 5 9 25
f 5 25 10
f 5 10 11
f 5 11 12
f 5 12 13
f 5 13 14
f 5 14 15
f 5 15 16
f 5 16 17
f 5 17 18
f 5 18 7
f 6 19 20
f 6 7 19
f 7 18 21
f 7 21 22
f 7 22 19
f 8 23 43
f 8 43 24
f 10 25 45
f 10 45 26
f 10 26 27
f 10 27 11
f 11 27 28
f 11 28 12
f 12 28 13
f 13 28 29
f 13 29 14
f 14 29 30
f 14 30 31
f 14 31 15
f 15 31 16
f 16 31 32
f 16 32 33
f 16 33 17
f 17 33 21
f 17 21 18
f 19 22 20
f 20 22 34
f 21 33 35
f 21 35 36
f 21 36 37
f 21 37 22
f 22 37 38
f 22 38 39
f 22 39 40
f 22 40 34
f 23 41 42
f 23 42 43
f 24 43 62
f 24 62 44
f 26 45 46
f 26 46 47
f 26 47 48
f 26 48 27
f 27 48 28
f 28 48 49
f 28 49 50
f 28 50 29
f 29 50 30
f 30 50 51
f 30 51 52
f 30 52 31
f 31 52 53
f 31 53 32
f 32 53 33
f 33 53 35
f 35 53 54
f 35 54 36
f 36 55 37
f 36 54 55
f 37 55 56
f 37 56 57
f 37 57 58
f 37 58 38
f 38 40 39
f 41 59 42
f 42 59 60
f 42 60 43
f 43 60 61
f 43 61 62
f 44 62 86
f 44 86 63
f 46 64 47
f 47 64 65
f 47 65 66
f 47 66 67
f 47 67 48
f 48 67 49
f 49 67 68
f 49 68 50
f 50 68 69
f 50 69 51
f 51 69 70
f 51 70 52
f 52 71 53
f 52 70 72
f 52 72 71
f 53 71 54
f 54 71 73
f 54 73 55
f 55 73 74
f 55 74 56
f 56 74 75
f 56 75 76
f 56 76 77
f 56 77 78
f 56 78 104
f 56 104 80
f 56 80 79
f 56 79 57
f 57 79 80
f 57 80 58
f 59 81 82
f 59 82 60
f 60 82 83
f 60 83 61
f 61 84 85
f 61 85 86
f 61 86 62
f 61 83 84
f 63 86 87
f 65 88 66
f 66 88 116
f 66 116 89
f 66 89 67
f 67 89 90
f 67 90 91
f 67 91 68
f 68 91 69
f 69 91 92
f 69 92 70
f 70 92 93
f 70 93 94
f 70 94 72
f 71 72 94
f 71 94 95
f 71 95 73
f 73 95 96
f 73 96 97
f 73 97 98
f 73 98 74
f 74 98 99
f 74 99 75
f 75 99 100
f 75 100 101
f 75 101 102
f 75 102 103
f 75 103 76
f 76 103 77
f 77 104 78
f 81 105 106
f 81 106 82
f 82 106 83
f 83 107 108
f 83 108 109
f 83 109 84
f 83 106 110
f 83 110 111
f 83 111 107
f 84 109 112
f 84 112 85
f 85 112 113
f 85 113 86
f 86 113 114
f 86 114 87
f 87 114 115
f 89 116 146
f 89 146 117
f 89 117 118
f 89 118 90
f 90 118 91
f 91 118 119
f 91 119 120
f 91 120 92
f 92 120 121
f 92 121 93
f 93 121 94
f 94 122 95
f 94 121 122
f 95 122 96
f 96 122 123
f 96 123 124
f 96 124 125
f 96 125 97
f 97 125 98
f 98 125 126
f 98 126 99
f 99 126 127
f 99 127 128
f 99 128 129
f 99 129 100
f 100 129 130
f 100 131 101
f 101 131 102
f 102 131 132
f 102 132 103
f 105 133 106
f 106 133 134
f 106 134 111
f 106 111 110
f 107 111 108
f 108 135 136
f 108 136 137
f 108 137 109
f 108 111 138
f 108 138 135
f 109 137 139
f 109 139 140
f 109 140 112
f 112 140 141
f 112 141 142
f 112 142 113
f 113 142 143
f 113 143 114
f 114 143 144
f 114 144 145
f 114 145 115
f 117 146 177
f 117 177 210
f 117 210 209
f 117 209 208
f 117 208 245
f 117 245 244
f 117 244 275
f 117 275 250
f 117 250 249
f 117 249 248
f 117 248 216
f 117 216 212
f 117 212 179
f 117 179 178
f 117 178 149
f 117 149 148
f 117 148 147
f 117 147 118
f 118 147 119
f 119 147 148
f 119 148 149
f 119 149 120
f 120 150 121
f 120 149 151
f 120 151 150
f 121 123 122
f 121 150 123
f 123 150 152
f 123 152 124
f 124 152 153
f 124 153 125
f 125 154 155
f 125 155 126
f 125 153 154
f 126 155 156
f 126 156 127
f 127 156 157
f 127 157 158
f 127 158 159
f 127 159 160
f 127 160 128
f 128 130 129
f 135 161 136
f 135 138 167
f 135 167 161
f 136 162 163
f 136 163 137
f 136 161 193
f 136 193 164
f 136 164 165
f 136 165 162
f 137 166 139
f 137 163 166
f 139 168 169
f 139 169 170
f 139 170 141
f 139 141 140
f 139 166 168
f 141 170 171
f 141 171 172
f 141 172 142
f 142 172 143
f 143 172 173
f 143 173 174
f 143 174 175
f 143 175 144
f 144 176 145
f 144 175 211
f 144 211 176
f 149 178 151
f 150 151 178
f 150 178 179
f 150 179 180
f 150 180 152
f 152 181 182
f 152 182 153
f 152 180 183
f 152 183 181
f 153 182 154
f 154 184 185
f 154 185 155
f 154 182 184
f 155 185 156
f 156 185 186
f 156 186 187
f 156 187 188
f 156 188 189
f 156 189 190
f 156 190 191
f 156 191 157
f 157 191 158
f 158 191 192
f 161 167 193
f 162 165 163
f 163 194 166
f 163 165 195
f 163 195 196
f 163 196 194
f 164 193 197
f 164 197 165
f 165 198 195
f 166 199 200
f 166 200 168
f 166 194 199
f 168 200 169
f 169 200 201
f 169 201 202
f 169 202 203
f 169 203 204
f 169 204 170
f 170 204 171
f 171 204 205
f 171 205 172
f 172 205 173
f 173 205 206
f 173 206 207
f 173 207 208
f 173 208 209
f 173 209 174
f 174 209 175
f 175 209 210
f 175 210 177
f 175 177 211
f 179 212 183
f 179 183 180
f 181 183 218
f 181 218 213
f 181 213 214
f 181 214 182
f 182 214 215
f 182 215 184
f 183 212 216
f 183 216 217
f 183 217 218
f 184 219 220
f 184 220 185
f 184 215 219
f 185 220 221
f 185 221 186
f 186 221 222
f 186 222 263
f 186 263 223
f 186 223 187
f 187 223 224
f 187 224 225
f 187 225 226
f 187 226 188
f 188 226 189
f 189 226 225
f 190 192 191
f 194 227 228
f 194 228 199
f 194 196 229
f 194 229 230
f 194 230 231
f 194 231 232
f 194 232 227
f 195 198 233
f 195 233 234
f 195 234 196
f 196 234 229
f 199 228 200
f 200 228 235
f 200 235 201
f 201 236 202
f 201 235 237
f 201 237 236
f 202 236 238
f 202 238 239
f 202 239 203
f 203 239 204
f 204 239 240
f 204 240 205
f 205 241 206
f 205 240 241
f 206 241 242
f 206 242 243
f 206 243 244
f 206 244 207
f 207 244 245
f 207 245 208
f 213 246 214
f 213 218 246
f 214 247 219
f 214 219 215
f 214 246 247
f 216 248 217
f 217 248 218
f 218 248 249
f 218 249 250
f 218 250 251
f 218 251 246
f 219 252 220
f 219 247 252
f 220 252 253
f 220 253 222
f 220 222 221
f 222 253 254
f 222 254 255
f 222 255 256
f 222 256 257
f 222 257 258
f 222 258 259
f 222 259 260
f 222 260 261
f 222 261 262
f 222 262 263
f 227 264 261
f 227 261 228
f 227 232 265
f 227 265 266
f 227 266 267
f 227 267 268
f 227 268 264
f 228 260 259
f 228 259 235
f 228 261 260
f 229 269 230
f 230 269 270
f 230 270 231
f 231 270 232
f 235 259 258
f 235 258 237
f 236 271 238
f 236 237 258
f 236 258 257
f 236 257 256
f 236 256 271
f 238 272 273
f 238 273 239
f 238 271 272
f 239 273 241
f 239 241 240
f 241 273 242
f 242 251 250
f 242 250 243
f 242 273 274
f 242 274 246
f 242 246 251
f 243 250 275
f 243 275 244
f 246 274 276
f 246 276 247
f 247 276 277
f 247 277 252
f 252 277 254
f 252 254 253
f 254 277 255
f 255 277 278
f 255 278 271
f 255 271 256
f 261 279 262
f 261 264 280
f 261 280 281
f 261 281 282
f 261 282 279
f 262 279 283
f 262 283 284
f 262 284 263
f 264 268 280
f 268 285 280
f 271 278 272
f 272 276 274
f 272 274 273
f 272 278 277
f 272 277 276
f 279 282 283
f 280 285 281
f 282 286 283
f 283 286 284

