# https://github.com/mikedh/trimesh
v 0.07242455 -0.01749462 -0.01655559
v 0.07242455 -0.01749951 -0.01655091
v 0.07242455 -0.01771551 -0.01625526
v 0.07242455 -0.01723809 -0.01680143
v 0.07242455 -0.01723320 -0.01680612
v 0.07242455 -0.01722753 -0.01680992
v 0.07242455 -0.01695300 -0.01699411
v 0.07242455 -0.01692468 -0.01701312
v 0.07242455 -0.01787469 -0.01592817
v 0.07242455 -0.01787648 -0.01592177
v 0.07242455 -0.01788364 -0.01589617
v 0.07242455 -0.01797216 -0.01557954
v 0.07242455 -0.01797276 -0.01557294
v 0.07242455 -0.01797397 -0.01555974
v 0.07242455 -0.01800498 -0.01521999
v 0.07242455 -0.01660214 -0.01715727
v 0.07242455 -0.01658961 -0.01716287
v 0.07242455 -0.01658334 -0.01716567
v 0.07242455 -0.01654994 -0.01717424
v 0.07242455 -0.01621956 -0.01725906
v 0.07242455 -0.01618512 -0.01726195
v 0.07242455 -0.01584438 -0.01729053
v 0.07513866 -0.01749951 -0.01655091
v 0.07513866 -0.01771551 -0.01625526
v 0.07553562 -0.01747434 -0.01653069
v 0.07553562 -0.01768710 -0.01623954
v 0.07513866 -0.01723320 -0.01680612
v 0.07513866 -0.01692468 -0.01701312
v 0.07553562 -0.01721208 -0.01678200
v 0.07553562 -0.01690827 -0.01698588
v 0.07592052 -0.01739967 -0.01647063
v 0.07592052 -0.01714944 -0.01671045
v 0.07628166 -0.01727775 -0.01637259
v 0.07628166 -0.01704711 -0.01659360
v 0.07513866 -0.01787469 -0.01592817
v 0.07553562 -0.01784382 -0.01591740
v 0.07513866 -0.01797216 -0.01557954
v 0.07513866 -0.01800498 -0.01521999
v 0.07553562 -0.01793982 -0.01557408
v 0.07553562 -0.01797216 -0.01521999
v 0.07592052 -0.01775223 -0.01588545
v 0.07592052 -0.01760268 -0.01619283
v 0.07628166 -0.01746483 -0.01611657
v 0.07628166 -0.01760268 -0.01583328
v 0.07592052 -0.01784382 -0.01555785
v 0.07592052 -0.01787469 -0.01521999
v 0.07628166 -0.01768710 -0.01553136
v 0.07628166 -0.01771551 -0.01521999
v 0.07513866 -0.01658334 -0.01716567
v 0.07553562 -0.01657212 -0.01713609
v 0.07513866 -0.01621956 -0.01725906
v 0.07513866 -0.01584438 -0.01729053
v 0.07553562 -0.01621386 -0.01722810
v 0.07553562 -0.01584438 -0.01725906
v 0.07592052 -0.01685952 -0.01690500
v 0.07592052 -0.01653879 -0.01704831
v 0.07628166 -0.01677993 -0.01677288
v 0.07628166 -0.01648434 -0.01690500
v 0.07592052 -0.01619694 -0.01713609
v 0.07592052 -0.01584438 -0.01716567
v 0.07628166 -0.01616931 -0.01698588
v 0.07628166 -0.01584438 -0.01701312
v 0.07660806 -0.01711227 -0.01623954
v 0.07660806 -0.01690827 -0.01643502
v 0.07660806 -0.01747434 -0.01549542
v 0.07660806 -0.01749951 -0.01521999
v 0.07660806 -0.01727775 -0.01601307
v 0.07660806 -0.01739967 -0.01576248
v 0.07688982 -0.01690827 -0.01607550
v 0.07688982 -0.01704711 -0.01588545
v 0.07688982 -0.01714944 -0.01567521
v 0.07688982 -0.01721208 -0.01545111
v 0.07688982 -0.01723320 -0.01521999
v 0.07711839 -0.01690827 -0.01539978
v 0.07711839 -0.01692468 -0.01521999
v 0.07660806 -0.01667193 -0.01659360
v 0.07660806 -0.01641048 -0.01671045
v 0.07688982 -0.01673709 -0.01623954
v 0.07688982 -0.01653879 -0.01637259
v 0.07688982 -0.01631937 -0.01647063
v 0.07660806 -0.01613178 -0.01678200
v 0.07660806 -0.01584438 -0.01680612
v 0.07688982 -0.01608555 -0.01653069
v 0.07688982 -0.01584438 -0.01655091
v 0.07711839 -0.01603197 -0.01623954
v 0.07711839 -0.01584438 -0.01625526
v 0.07711839 -0.01677993 -0.01573764
v 0.07711839 -0.01667193 -0.01588545
v 0.07711839 -0.01653879 -0.01601307
v 0.07711839 -0.01638453 -0.01611657
v 0.07711839 -0.01685952 -0.01557408
v 0.07711839 -0.01621386 -0.01619283
v 0.07728678 -0.01641048 -0.01567521
v 0.07728678 -0.01631937 -0.01576248
v 0.07728678 -0.01648434 -0.01557408
v 0.07728678 -0.01653879 -0.01546221
v 0.07728678 -0.01657212 -0.01534296
v 0.07728678 -0.01658334 -0.01521999
v 0.07728678 -0.01621386 -0.01583328
v 0.07728678 -0.01609713 -0.01588545
v 0.07728678 -0.01597269 -0.01591740
v 0.07728678 -0.01584438 -0.01592817
v 0.07738992 -0.01613178 -0.01545111
v 0.07738992 -0.01608555 -0.01549542
v 0.07738992 -0.01619694 -0.01534296
v 0.07738992 -0.01621386 -0.01528242
v 0.07738992 -0.01621956 -0.01521999
v 0.07738992 -0.01616931 -0.01539978
v 0.07738992 -0.01597269 -0.01555785
v 0.07738992 -0.01590954 -0.01557408
v 0.07738992 -0.01603197 -0.01553136
v 0.07738992 -0.01584438 -0.01557954
v 0.07742466 -0.01584438 -0.01521999
v 0.07742466 -0.01440399 -0.00866334
v 0.07513866 -0.01800498 -0.00003618
v 0.07533714 -0.01798857 -0.00003618
v 0.07553562 -0.01797216 -0.00003618
v 0.07572807 -0.01792344 -0.00003618
v 0.07592052 -0.01787469 -0.00003618
v 0.07610109 -0.01779510 -0.00003618
v 0.07628166 -0.01771551 -0.00003618
v 0.07644486 -0.01760751 -0.00003618
v 0.07660806 -0.01749951 -0.00003618
v 0.07674894 -0.01736634 -0.00003618
v 0.07688982 -0.01723320 -0.00003618
v 0.07700412 -0.01707894 -0.00003618
v 0.07711839 -0.01692468 -0.00003618
v 0.07720260 -0.01675401 -0.00003618
v 0.07728678 -0.01658334 -0.00003618
v 0.07733835 -0.01640145 -0.00003618
v 0.07738992 -0.01621956 -0.00003618
v 0.07740729 -0.01603197 -0.00003618
v 0.07742466 -0.01584438 -0.00003618
v 0.07242455 -0.00096710 -0.01729053
v 0.07742466 -0.00072021 -0.01194168
v 0.08640309 -0.00757248 -0.00830829
v 0.07742466 -0.01512420 0.00324216
v 0.07742466 -0.01440399 0.00859101
v 0.07242455 -0.01800498 0.01514766
v 0.07242455 -0.01800438 0.01515426
v 0.07242455 -0.01797397 0.01548741
v 0.07242455 -0.01797216 0.01550721
v 0.07242455 -0.01797037 0.01551361
v 0.07242455 -0.01788006 0.01583664
v 0.07242455 -0.01787648 0.01584944
v 0.07242455 -0.01787469 0.01585584
v 0.07242455 -0.01771551 0.01618293
v 0.07242455 -0.01749951 0.01647858
v 0.07242455 -0.01723320 0.01673379
v 0.07242455 -0.01692468 0.01694079
v 0.07242455 -0.01691841 0.01694359
v 0.07242455 -0.01689335 0.01695479
v 0.07242455 -0.01658337 0.01709331
v 0.07242455 -0.01657669 0.01709503
v 0.07242455 -0.01654997 0.01710188
v 0.07242455 -0.01621956 0.01718673
v 0.07242455 -0.01584441 0.01721817
v 0.07513866 -0.01800498 0.01514766
v 0.07513866 -0.01797216 0.01550721
v 0.07553562 -0.01797216 0.01514766
v 0.07553562 -0.01793985 0.01550175
v 0.07513866 -0.01787469 0.01585584
v 0.07553562 -0.01784385 0.01584507
v 0.07592052 -0.01787469 0.01514766
v 0.07592052 -0.01784385 0.01548552
v 0.07628166 -0.01771551 0.01514766
v 0.07628166 -0.01768710 0.01545903
v 0.07592052 -0.01775226 0.01581312
v 0.07592052 -0.01760268 0.01612050
v 0.07628166 -0.01760268 0.01576095
v 0.07628166 -0.01746483 0.01604424
v 0.07513866 -0.01771551 0.01618293
v 0.07513866 -0.01749951 0.01647858
v 0.07553562 -0.01768710 0.01616721
v 0.07553562 -0.01747437 0.01645836
v 0.07513866 -0.01723320 0.01673379
v 0.07513866 -0.01692468 0.01694079
v 0.07553562 -0.01721211 0.01670967
v 0.07553562 -0.01690827 0.01691355
v 0.07592052 -0.01739970 0.01639830
v 0.07592052 -0.01714944 0.01663812
v 0.07628166 -0.01727775 0.01630026
v 0.07628166 -0.01704714 0.01652127
v 0.07513866 -0.01658337 0.01709331
v 0.07553562 -0.01657212 0.01706376
v 0.07513866 -0.01621956 0.01718673
v 0.07513866 -0.01584441 0.01721817
v 0.07553562 -0.01621389 0.01715574
v 0.07553562 -0.01584441 0.01718673
v 0.07592052 -0.01685955 0.01683264
v 0.07592052 -0.01653879 0.01697598
v 0.07628166 -0.01677996 0.01670055
v 0.07628166 -0.01648437 0.01683264
v 0.07592052 -0.01619694 0.01706376
v 0.07592052 -0.01584441 0.01709331
v 0.07628166 -0.01616931 0.01691355
v 0.07628166 -0.01584441 0.01694079
v 0.07660806 -0.01749951 0.01514766
v 0.07660806 -0.01747437 0.01542309
v 0.07688982 -0.01723320 0.01514766
v 0.07688982 -0.01721211 0.01537878
v 0.07711839 -0.01692468 0.01514766
v 0.07711839 -0.01690827 0.01532742
v 0.07660806 -0.01739970 0.01569015
v 0.07660806 -0.01727775 0.01594071
v 0.07688982 -0.01714944 0.01560285
v 0.07688982 -0.01704714 0.01581312
v 0.07688982 -0.01690827 0.01600314
v 0.07660806 -0.01711227 0.01616721
v 0.07660806 -0.01690827 0.01636269
v 0.07711839 -0.01685955 0.01550175
v 0.07711839 -0.01677996 0.01566528
v 0.07711839 -0.01667196 0.01581312
v 0.07711839 -0.01653879 0.01594071
v 0.07711839 -0.01638453 0.01604424
v 0.07711839 -0.01621389 0.01612050
v 0.07728678 -0.01658337 0.01514766
v 0.07728678 -0.01657212 0.01527063
v 0.07728678 -0.01653879 0.01538985
v 0.07728678 -0.01648437 0.01550175
v 0.07728678 -0.01641048 0.01560285
v 0.07728678 -0.01631940 0.01569015
v 0.07738992 -0.01621956 0.01514766
v 0.07738992 -0.01621389 0.01521009
v 0.07738992 -0.01619694 0.01527063
v 0.07738992 -0.01616931 0.01532742
v 0.07738992 -0.01613181 0.01537878
v 0.07738992 -0.01608555 0.01542309
v 0.07742466 -0.01584441 0.01514766
v 0.07738992 -0.01603200 0.01545903
v 0.07738992 -0.01597272 0.01548552
v 0.07738992 -0.01590954 0.01550175
v 0.07738992 -0.01584441 0.01550721
v 0.07728678 -0.01621389 0.01576095
v 0.07728678 -0.01609713 0.01581312
v 0.07728678 -0.01597272 0.01584507
v 0.07728678 -0.01584441 0.01585584
v 0.07660806 -0.01667196 0.01652127
v 0.07660806 -0.01641048 0.01663812
v 0.07688982 -0.01673709 0.01616721
v 0.07688982 -0.01653879 0.01630026
v 0.07688982 -0.01631940 0.01639830
v 0.07688982 -0.01608555 0.01645836
v 0.07711839 -0.01603200 0.01616721
v 0.07711839 -0.01584441 0.01618293
v 0.07688982 -0.01584441 0.01647858
v 0.07660806 -0.01613181 0.01670967
v 0.07660806 -0.01584441 0.01673379
v 0.07242455 -0.01271051 0.01721817
v 0.07242455 -0.00133401 0.01721819
v 0.08640309 -0.00683148 0.00823596
v 0.07242455 0.00131014 -0.01729052
v 0.07513866 0.00000000 -0.01729053
v 0.07533714 0.00000000 -0.01727478
v 0.07553562 0.00000000 -0.01725906
v 0.07572807 0.00000000 -0.01721235
v 0.07592052 0.00000000 -0.01716564
v 0.07610109 0.00000000 -0.01708938
v 0.07628166 0.00000000 -0.01701312
v 0.07644486 0.00000000 -0.01690962
v 0.07660806 0.00000000 -0.01680612
v 0.07674894 0.00000000 -0.01667850
v 0.07688982 0.00000000 -0.01655091
v 0.07700412 0.00000000 -0.01640307
v 0.07711839 0.00000000 -0.01625526
v 0.07720260 0.00000000 -0.01609170
v 0.07728678 0.00000000 -0.01592814
v 0.07733835 0.00000000 -0.01575384
v 0.07738992 0.00000000 -0.01557954
v 0.07740729 0.00000000 -0.01539978
v 0.07742466 0.00000000 -0.01521999
v 0.07742466 0.00000000 -0.00866334
v 0.07242455 0.01260003 -0.01729050
v 0.07242455 0.01584438 -0.01729050
v 0.07242455 0.01621956 -0.01725906
v 0.07242455 0.01658334 -0.01716564
v 0.07242455 0.01658961 -0.01716284
v 0.07242455 0.01661468 -0.01715164
v 0.07242455 0.01692468 -0.01701312
v 0.07242455 0.01723320 -0.01680609
v 0.07242455 0.01724786 -0.01679203
v 0.07242455 0.01749462 -0.01655559
v 0.07242455 0.01749951 -0.01655091
v 0.07242455 0.01771551 -0.01625526
v 0.07242455 0.01787469 -0.01592814
v 0.07242455 0.01788363 -0.01589614
v 0.07242455 0.01796679 -0.01559874
v 0.07242455 0.01797216 -0.01557954
v 0.07242455 0.01797276 -0.01557294
v 0.07242455 0.01797397 -0.01555973
v 0.07242455 0.01800498 -0.01521999
v 0.07513866 0.01584438 -0.01729050
v 0.07513866 0.01621956 -0.01725906
v 0.07553562 0.01584438 -0.01725906
v 0.07553562 0.01621386 -0.01722807
v 0.07513866 0.01658334 -0.01716564
v 0.07553562 0.01657212 -0.01713609
v 0.07592052 0.01584438 -0.01716564
v 0.07592052 0.01619694 -0.01713609
v 0.07628166 0.01584438 -0.01701312
v 0.07628166 0.01616931 -0.01698588
v 0.07592052 0.01653879 -0.01704831
v 0.07592052 0.01685952 -0.01690497
v 0.07628166 0.01648434 -0.01690497
v 0.07628166 0.01677996 -0.01677288
v 0.07513866 0.01692468 -0.01701312
v 0.07513866 0.01723320 -0.01680609
v 0.07553562 0.01690827 -0.01698588
v 0.07553562 0.01721208 -0.01678200
v 0.07513866 0.01749951 -0.01655091
v 0.07513866 0.01771551 -0.01625526
v 0.07553562 0.01747434 -0.01653066
v 0.07553562 0.01768707 -0.01623951
v 0.07592052 0.01714944 -0.01671045
v 0.07592052 0.01739967 -0.01647063
v 0.07628166 0.01704711 -0.01659360
v 0.07628166 0.01727775 -0.01637259
v 0.07513866 0.01787469 -0.01592814
v 0.07553562 0.01784382 -0.01591740
v 0.07513866 0.01797216 -0.01557954
v 0.07513866 0.01800498 -0.01521999
v 0.07553562 0.01793982 -0.01557408
v 0.07553562 0.01797216 -0.01521999
v 0.07592052 0.01760268 -0.01619280
v 0.07592052 0.01775223 -0.01588545
v 0.07628166 0.01746483 -0.01611654
v 0.07628166 0.01760268 -0.01583328
v 0.07592052 0.01784382 -0.01555785
v 0.07592052 0.01787469 -0.01521999
v 0.07628166 0.01768707 -0.01553136
v 0.07628166 0.01771551 -0.01521999
v 0.07660806 0.01584438 -0.01680609
v 0.07660806 0.01613178 -0.01678200
v 0.07688982 0.01584438 -0.01655091
v 0.07711839 0.01584438 -0.01625526
v 0.07711839 0.01603197 -0.01623951
v 0.07688982 0.01608555 -0.01653066
v 0.07660806 0.01641048 -0.01671045
v 0.07660806 0.01667193 -0.01659360
v 0.07688982 0.01631937 -0.01647063
v 0.07688982 0.01653879 -0.01637259
v 0.07688982 0.01673709 -0.01623951
v 0.07711839 0.01621386 -0.01619283
v 0.07711839 0.01638453 -0.01611654
v 0.07711839 0.01653879 -0.01601304
v 0.07711839 0.01667193 -0.01588545
v 0.07711839 0.01677996 -0.01573761
v 0.07711839 0.01685952 -0.01557408
v 0.07728678 0.01584438 -0.01592814
v 0.07728678 0.01597269 -0.01591740
v 0.07728678 0.01609713 -0.01588545
v 0.07728678 0.01621386 -0.01583328
v 0.07738992 0.01584438 -0.01557954
v 0.07738992 0.01590954 -0.01557408
v 0.07738992 0.01597269 -0.01555785
v 0.07738992 0.01603197 -0.01553136
v 0.07742466 0.01584438 -0.01521999
v 0.07738992 0.01608555 -0.01549542
v 0.07738992 0.01613178 -0.01545111
v 0.07738992 0.01616931 -0.01539975
v 0.07738992 0.01619694 -0.01534296
v 0.07738992 0.01621386 -0.01528242
v 0.07738992 0.01621956 -0.01521999
v 0.07728678 0.01631937 -0.01576248
v 0.07728678 0.01641048 -0.01567518
v 0.07728678 0.01648434 -0.01557408
v 0.07728678 0.01653879 -0.01546218
v 0.07728678 0.01657212 -0.01534296
v 0.07728678 0.01658334 -0.01521999
v 0.07660806 0.01690827 -0.01643502
v 0.07660806 0.01711227 -0.01623951
v 0.07660806 0.01727775 -0.01601304
v 0.07660806 0.01739967 -0.01576248
v 0.07688982 0.01690827 -0.01607547
v 0.07688982 0.01704711 -0.01588545
v 0.07688982 0.01714944 -0.01567518
v 0.07711839 0.01690827 -0.01539975
v 0.07711839 0.01692468 -0.01521999
v 0.07688982 0.01721208 -0.01545111
v 0.07688982 0.01723320 -0.01521999
v 0.07660806 0.01747434 -0.01549542
v 0.07660806 0.01749948 -0.01521999
v 0.07742466 0.01440399 -0.00866334
v 0.08640309 0.00683148 -0.00830829
v 0.07742466 0.00000000 0.00859101
v 0.07742466 0.00072018 0.01186935
v 0.07242455 0.00089994 0.01721820
v 0.07513866 0.00000000 0.01721820
v 0.07533714 0.00000000 0.01720245
v 0.07553562 0.00000000 0.01718673
v 0.07572807 0.00000000 0.01714002
v 0.07592052 0.00000000 0.01709334
v 0.07610109 0.00000000 0.01701705
v 0.07628166 0.00000000 0.01694079
v 0.07644486 0.00000000 0.01683729
v 0.07742466 0.00000000 0.01514766
v 0.07740729 0.00000000 0.01532745
v 0.07738992 0.00000000 0.01550721
v 0.07728678 0.00000000 0.01585584
v 0.07733835 0.00000000 0.01568154
v 0.07720260 0.00000000 0.01601937
v 0.07674894 0.00000000 0.01660617
v 0.07711839 0.00000000 0.01618293
v 0.07700412 0.00000000 0.01633077
v 0.07688982 0.00000000 0.01647858
v 0.07660806 0.00000000 0.01673379
v 0.07742466 0.01512417 0.00324216
v 0.07513866 0.01800498 -0.00003615
v 0.07533714 0.01798857 -0.00003615
v 0.07553562 0.01797216 -0.00003615
v 0.07572807 0.01792341 -0.00003615
v 0.07592052 0.01787469 -0.00003615
v 0.07610109 0.01779510 -0.00003615
v 0.07628166 0.01771551 -0.00003615
v 0.07644486 0.01760751 -0.00003615
v 0.07742466 0.01584438 -0.00003615
v 0.07740729 0.01603197 -0.00003615
v 0.07738992 0.01621956 -0.00003615
v 0.07728678 0.01658334 -0.00003615
v 0.07733835 0.01640145 -0.00003615
v 0.07720260 0.01675401 -0.00003615
v 0.07674894 0.01736634 -0.00003615
v 0.07711839 0.01692468 -0.00003615
v 0.07700412 0.01707894 -0.00003615
v 0.07688982 0.01723317 -0.00003615
v 0.07660806 0.01749948 -0.00003615
v 0.07742466 0.01440399 0.00859101
v 0.07242455 0.01584438 0.01721820
v 0.07242455 0.01587882 0.01721531
v 0.07242455 0.01621267 0.01718731
v 0.07242455 0.01621956 0.01718673
v 0.07242455 0.01654994 0.01710192
v 0.07242455 0.01658334 0.01709334
v 0.07242455 0.01658961 0.01709054
v 0.07242455 0.01661467 0.01707934
v 0.07242455 0.01800498 0.01514769
v 0.07242455 0.01797397 0.01548741
v 0.07242455 0.01797276 0.01550061
v 0.07242455 0.01797037 0.01551361
v 0.07242455 0.01797216 0.01550721
v 0.07242455 0.01796321 0.01553921
v 0.07242455 0.01787466 0.01585584
v 0.07242455 0.01787174 0.01586184
v 0.07242455 0.01692468 0.01694079
v 0.07242455 0.01720485 0.01675279
v 0.07242455 0.01723317 0.01673379
v 0.07242455 0.01771551 0.01618293
v 0.07242455 0.01747503 0.01650201
v 0.07242455 0.01749948 0.01647858
v 0.07242455 0.01749459 0.01648326
v 0.07242455 0.01773012 0.01615290
v 0.07513866 0.01584438 0.01721820
v 0.07513866 0.01621956 0.01718673
v 0.07553562 0.01584438 0.01718673
v 0.07552959 0.01621956 0.01715577
v 0.07513866 0.01658334 0.01709334
v 0.07551168 0.01658334 0.01706376
v 0.07592052 0.01584438 0.01709334
v 0.07590864 0.01621956 0.01706376
v 0.07628166 0.01584438 0.01694079
v 0.07626429 0.01621956 0.01691355
v 0.07587336 0.01658334 0.01697598
v 0.07621272 0.01658334 0.01683267
v 0.07513866 0.01800498 0.01514769
v 0.07513866 0.01797216 0.01550721
v 0.07520757 0.01797216 0.01550175
v 0.07527441 0.01797216 0.01548555
v 0.07533714 0.01797216 0.01545906
v 0.07544274 0.01797216 0.01537878
v 0.07539381 0.01797216 0.01542312
v 0.07553562 0.01797216 0.01514769
v 0.07552959 0.01797216 0.01521012
v 0.07548243 0.01797216 0.01532745
v 0.07551168 0.01797216 0.01527063
v 0.07513866 0.01787466 0.01585584
v 0.07527441 0.01787466 0.01584507
v 0.07540605 0.01787466 0.01581312
v 0.07552959 0.01771551 0.01612050
v 0.07571013 0.01771551 0.01604424
v 0.07552959 0.01787466 0.01576098
v 0.07564122 0.01787466 0.01569015
v 0.07573758 0.01787466 0.01560288
v 0.07592052 0.01787466 0.01514769
v 0.07590864 0.01787466 0.01527063
v 0.07587336 0.01787466 0.01538988
v 0.07581576 0.01787466 0.01550175
v 0.07628166 0.01771551 0.01514769
v 0.07626429 0.01771551 0.01532745
v 0.07621272 0.01771551 0.01550175
v 0.07601424 0.01771551 0.01581312
v 0.07587336 0.01771551 0.01594074
v 0.07612851 0.01771551 0.01566531
v 0.07641120 0.01749948 0.01581312
v 0.07626429 0.01749948 0.01600317
v 0.07573758 0.01723317 0.01663815
v 0.07513866 0.01692468 0.01694079
v 0.07513866 0.01723317 0.01673379
v 0.07544274 0.01723317 0.01670970
v 0.07548243 0.01692468 0.01691355
v 0.07513866 0.01771551 0.01618293
v 0.07533714 0.01771551 0.01616721
v 0.07513866 0.01749948 0.01647858
v 0.07539381 0.01749948 0.01645836
v 0.07564122 0.01749948 0.01639833
v 0.07601424 0.01723317 0.01652130
v 0.07641120 0.01692468 0.01652130
v 0.07626429 0.01723317 0.01636272
v 0.07581576 0.01692468 0.01683267
v 0.07612851 0.01692468 0.01670058
v 0.07587336 0.01749948 0.01630029
v 0.07608315 0.01749948 0.01616721
v 0.07699899 0.01658334 0.01612050
v 0.07742466 0.01584438 0.01514769
v 0.07738992 0.01584438 0.01550721
v 0.07738992 0.01621956 0.01514769
v 0.07735572 0.01621956 0.01550175
v 0.07728678 0.01584438 0.01585584
v 0.07725414 0.01621956 0.01584507
v 0.07728678 0.01658334 0.01514769
v 0.07725414 0.01658334 0.01548555
v 0.07715724 0.01658334 0.01581312
v 0.07711839 0.01584438 0.01618293
v 0.07688982 0.01584438 0.01647858
v 0.07708830 0.01621956 0.01616721
v 0.07686324 0.01621956 0.01645836
v 0.07660806 0.01584438 0.01673379
v 0.07658574 0.01621956 0.01670970
v 0.07678422 0.01658334 0.01639833
v 0.07651944 0.01658334 0.01663815
v 0.07711839 0.01692468 0.01514769
v 0.07708830 0.01692468 0.01545906
v 0.07688982 0.01723317 0.01514769
v 0.07686324 0.01723317 0.01542312
v 0.07678422 0.01723317 0.01569015
v 0.07665522 0.01723317 0.01594074
v 0.07699899 0.01692468 0.01576098
v 0.07685316 0.01692468 0.01604424
v 0.07660806 0.01749948 0.01514769
v 0.07658574 0.01749948 0.01537878
v 0.07651944 0.01749948 0.01560288
v 0.07665522 0.01692468 0.01630029
v 0.07648014 0.01723317 0.01616721
v 0.08640309 0.00757248 0.00823596
v 0.09538152 -0.01366299 -0.00795324
v 0.09538152 -0.00074100 -0.00795324
v 0.11333835 -0.01292199 -0.00724311
v 0.11353155 -0.01290624 -0.00722802
v 0.11372262 -0.01287507 -0.00719817
v 0.11391018 -0.01282869 -0.00715374
v 0.11409294 -0.01276749 -0.00709506
v 0.11426955 -0.01269186 -0.00702261
v 0.11443875 -0.01260234 -0.00693681
v 0.11459931 -0.01249962 -0.00683838
v 0.11475009 -0.01238439 -0.00672795
v 0.11501799 -0.01211988 -0.00647445
v 0.11523480 -0.01181640 -0.00618363
v 0.11539428 -0.01148268 -0.00586383
v 0.11549181 -0.01112829 -0.00552423
v 0.11552463 -0.01076343 -0.00517455
v 0.11381640 -0.00002319 -0.00717594
v 0.11400156 -0.00003060 -0.00712440
v 0.11451903 -0.00005136 -0.00688758
v 0.11488404 -0.00013227 -0.00660120
v 0.11512638 -0.00015174 -0.00632904
v 0.11531454 -0.00016686 -0.00602373
v 0.11544306 -0.00017721 -0.00569403
v 0.11550822 -0.00018243 -0.00534939
v 0.09538152 -0.01366299 0.00067395
v 0.09538152 -0.01366299 0.00788091
v 0.10435995 -0.00609048 0.00752583
v 0.11501799 -0.01211988 0.00640212
v 0.11523480 -0.01181640 0.00611130
v 0.11539428 -0.01148268 0.00579150
v 0.11333835 -0.01292199 0.00717078
v 0.11353155 -0.01290624 0.00715569
v 0.11372262 -0.01287507 0.00712584
v 0.11391018 -0.01282872 0.00708141
v 0.11409294 -0.01276749 0.00702273
v 0.11426955 -0.01269186 0.00695025
v 0.11443875 -0.01260237 0.00686448
v 0.11475009 -0.01238442 0.00665562
v 0.11459931 -0.01249962 0.00676605
v 0.11552463 -0.01076343 0.00510222
v 0.11549181 -0.01112829 0.00545190
v 0.11381640 -0.00002319 0.00710361
v 0.11400156 -0.00003060 0.00705207
v 0.11451903 -0.00005136 0.00681528
v 0.11467470 -0.00005763 0.00671085
v 0.10435995 0.00609048 -0.00759816
v 0.09538152 0.01366299 -0.00795321
v 0.09538152 0.01366296 -0.00074628
v 0.11333835 0.00000000 -0.00724311
v 0.11343495 0.00000786 -0.00723558
v 0.11353155 0.00000000 -0.00722802
v 0.11362707 0.00001557 -0.00721308
v 0.11372262 0.00000000 -0.00719814
v 0.11391018 0.00000000 -0.00715374
v 0.11409294 0.00000000 -0.00709506
v 0.11418123 0.00003783 -0.00705882
v 0.11426955 0.00000000 -0.00702258
v 0.11435415 0.00004476 -0.00697971
v 0.11443875 0.00000000 -0.00693681
v 0.11459931 0.00000000 -0.00683838
v 0.11467470 0.00005760 -0.00678315
v 0.11475009 0.00000000 -0.00672795
v 0.11501799 0.00000000 -0.00647445
v 0.11523480 0.00000000 -0.00618363
v 0.11539428 0.00000000 -0.00586383
v 0.11549181 0.00000000 -0.00552423
v 0.11549181 0.01112829 -0.00552420
v 0.11552463 0.01076343 -0.00517455
v 0.11333835 0.01292196 -0.00724311
v 0.11353155 0.01290621 -0.00722802
v 0.11372262 0.01287507 -0.00719814
v 0.11391018 0.01282869 -0.00715374
v 0.11409294 0.01276749 -0.00709506
v 0.11443875 0.01260234 -0.00693681
v 0.11426955 0.01269186 -0.00702258
v 0.11459931 0.01249962 -0.00683835
v 0.11475009 0.01238439 -0.00672795
v 0.11539428 0.01148268 -0.00586383
v 0.11501799 0.01211988 -0.00647445
v 0.11523480 0.01181640 -0.00618363
v 0.09538152 0.00074100 0.00788091
v 0.09538152 0.01366296 0.00788091
v 0.11552463 0.00000000 -0.00003615
v 0.11550822 0.00018243 0.00527706
v 0.11549181 0.00000000 0.00545190
v 0.11544306 0.00017718 0.00562170
v 0.11539428 0.00000000 0.00579150
v 0.11501799 0.00000000 0.00640215
v 0.11512638 0.00015174 0.00625671
v 0.11523480 0.00000000 0.00611130
v 0.11531454 0.00016686 0.00595140
v 0.11333835 0.00000000 0.00717078
v 0.11343495 0.00000786 0.00716325
v 0.11353155 0.00000000 0.00715569
v 0.11362707 0.00001557 0.00714078
v 0.11372262 0.00000000 0.00712584
v 0.11391018 0.00000000 0.00708141
v 0.11409294 0.00000000 0.00702273
v 0.11426955 0.00000000 0.00695028
v 0.11435415 0.00004473 0.00690738
v 0.11443875 0.00000000 0.00686448
v 0.11475009 0.00000000 0.00665562
v 0.11459931 0.00000000 0.00676605
v 0.11418123 0.00003780 0.00698649
v 0.11488404 0.00013224 0.00652887
v 0.11552463 0.01076343 0.00510225
v 0.11549181 0.01112829 0.00545190
v 0.11539428 0.01148268 0.00579150
v 0.11501799 0.01211988 0.00640215
v 0.11523480 0.01181640 0.00611133
v 0.11333835 0.01292196 0.00717078
v 0.11353155 0.01290621 0.00715569
v 0.11372262 0.01287504 0.00712584
v 0.11391018 0.01282869 0.00708141
v 0.11409294 0.01276749 0.00702273
v 0.11443875 0.01260234 0.00686451
v 0.11426955 0.01269186 0.00695028
v 0.11475009 0.01238439 0.00665562
v 0.11459931 0.01249962 0.00676605
f 23 2 1
f 24 3 2
f 27 4 5
f 27 5 6
f 27 6 7
f 28 7 8
f 23 1 4
f 35 9 3
f 35 10 9
f 35 11 10
f 37 12 11
f 37 13 12
f 37 14 13
f 38 15 14
f 28 8 16
f 49 16 17
f 49 17 18
f 49 18 19
f 51 19 20
f 51 20 21
f 52 21 22
f 23 24 2
f 27 7 28
f 23 4 27
f 24 35 3
f 35 37 11
f 37 38 14
f 28 16 49
f 49 19 51
f 51 21 52
f 23 26 24
f 23 25 26
f 25 42 26
f 27 28 29
f 29 28 30
f 29 30 32
f 23 27 25
f 25 27 29
f 25 29 31
f 25 31 42
f 31 43 42
f 30 55 32
f 34 55 57
f 29 32 31
f 31 32 33
f 32 55 34
f 31 33 43
f 32 34 33
f 34 57 64
f 33 34 63
f 24 36 35
f 24 26 36
f 35 39 37
f 35 36 39
f 26 41 36
f 36 45 39
f 37 39 40
f 37 40 38
f 39 46 40
f 36 41 45
f 26 42 41
f 41 42 44
f 42 43 44
f 41 44 47
f 43 68 44
f 39 45 46
f 41 47 45
f 45 48 46
f 45 47 48
f 44 65 47
f 47 66 48
f 33 67 43
f 28 49 30
f 30 49 50
f 49 51 50
f 50 51 53
f 30 50 55
f 50 53 56
f 51 52 53
f 53 52 54
f 53 54 59
f 55 50 56
f 55 56 57
f 56 59 58
f 56 58 57
f 57 58 76
f 58 61 77
f 56 53 59
f 59 60 61
f 59 54 60
f 59 61 58
f 61 62 81
f 60 62 61
f 34 64 63
f 63 64 69
f 44 68 65
f 47 65 66
f 43 67 68
f 33 63 67
f 67 71 68
f 63 70 67
f 63 69 70
f 67 70 71
f 69 87 70
f 70 91 71
f 70 87 91
f 65 68 72
f 68 71 72
f 65 73 66
f 65 72 73
f 71 74 72
f 71 91 74
f 72 75 73
f 72 74 75
f 64 57 76
f 64 76 78
f 64 78 69
f 76 79 78
f 58 77 76
f 76 77 79
f 77 80 79
f 79 80 90
f 77 61 81
f 81 62 82
f 77 81 80
f 80 81 83
f 81 82 83
f 82 84 83
f 80 83 92
f 80 92 90
f 83 85 92
f 83 84 85
f 84 86 85
f 69 78 88
f 78 79 89
f 78 89 88
f 69 88 87
f 79 90 89
f 87 88 95
f 89 90 94
f 88 89 93
f 88 93 95
f 89 94 93
f 74 91 97
f 87 96 91
f 87 95 96
f 91 96 97
f 74 98 75
f 74 97 98
f 93 108 95
f 95 105 96
f 97 107 98
f 96 106 97
f 97 106 107
f 90 92 99
f 85 100 92
f 92 100 99
f 90 99 94
f 94 99 104
f 99 100 111
f 85 86 101
f 85 101 100
f 86 102 101
f 100 101 109
f 101 102 110
f 101 110 109
f 102 112 110
f 93 94 103
f 94 104 103
f 95 108 105
f 93 103 108
f 99 111 104
f 96 105 106
f 103 113 108
f 105 113 106
f 105 108 113
f 106 113 107
f 100 109 111
f 104 111 113
f 109 113 111
f 109 110 113
f 110 112 113
f 103 104 113
f 38 115 15
f 38 40 116
f 40 46 118
f 46 48 120
f 48 66 122
f 66 73 124
f 73 75 126
f 75 98 128
f 98 107 130
f 107 113 132
f 52 22 134
f 52 254 54
f 54 256 60
f 60 258 62
f 62 260 82
f 82 262 84
f 84 264 86
f 86 266 102
f 102 268 112
f 112 270 113
f 113 135 114
f 38 116 115
f 40 117 116
f 40 118 117
f 46 119 118
f 46 120 119
f 48 121 120
f 48 122 121
f 66 123 122
f 66 124 123
f 73 125 124
f 73 126 125
f 75 127 126
f 75 128 127
f 98 129 128
f 98 130 129
f 107 131 130
f 107 132 131
f 113 133 132
f 113 114 133
f 115 158 15
f 114 137 133
f 52 134 253
f 52 253 254
f 54 254 255
f 54 255 256
f 60 256 257
f 60 257 258
f 62 258 259
f 62 259 260
f 82 260 261
f 82 261 262
f 84 262 263
f 84 263 264
f 86 264 265
f 86 265 266
f 102 266 267
f 102 267 268
f 112 268 269
f 112 269 270
f 113 270 271
f 113 271 135
f 114 135 272
f 114 272 136
f 114 136 544
f 114 544 568
f 136 272 545
f 544 136 545
f 114 138 137
f 158 139 15
f 115 116 158
f 116 117 160
f 117 118 160
f 118 119 164
f 119 120 164
f 120 121 166
f 121 122 166
f 122 123 198
f 123 124 198
f 124 125 200
f 125 126 200
f 126 127 202
f 127 128 202
f 128 129 217
f 129 130 217
f 130 131 223
f 131 132 223
f 132 133 229
f 133 137 229
f 116 160 158
f 118 164 160
f 120 166 164
f 122 198 166
f 124 200 198
f 126 202 200
f 128 217 202
f 130 223 217
f 132 229 223
f 137 138 229
f 158 140 139
f 159 141 140
f 159 142 141
f 159 143 142
f 162 144 143
f 162 145 144
f 162 146 145
f 172 147 146
f 173 148 147
f 176 149 148
f 177 150 149
f 177 151 150
f 177 152 151
f 184 153 152
f 184 154 153
f 184 155 154
f 186 156 155
f 187 157 156
f 158 159 140
f 159 162 143
f 162 172 146
f 172 173 147
f 173 176 148
f 176 177 149
f 177 184 152
f 184 186 155
f 186 187 156
f 187 249 157
f 158 160 161
f 158 161 159
f 160 165 161
f 159 163 162
f 159 161 163
f 162 174 172
f 162 163 174
f 161 168 163
f 163 169 174
f 160 164 165
f 161 165 168
f 164 167 165
f 164 166 167
f 165 167 170
f 166 199 167
f 165 170 168
f 163 168 169
f 168 171 169
f 167 204 170
f 168 170 171
f 170 205 171
f 172 175 173
f 172 174 175
f 174 180 175
f 173 178 176
f 173 175 178
f 175 181 178
f 176 179 177
f 176 178 179
f 178 190 179
f 169 180 174
f 169 171 182
f 169 182 180
f 175 180 181
f 180 183 181
f 180 182 183
f 171 209 182
f 182 210 183
f 181 183 192
f 181 190 178
f 181 192 190
f 177 185 184
f 177 179 185
f 184 188 186
f 184 185 188
f 179 191 185
f 185 194 188
f 186 188 189
f 186 189 187
f 188 195 189
f 183 238 192
f 179 190 191
f 190 193 191
f 185 191 194
f 190 192 193
f 191 193 196
f 239 193 192
f 194 195 188
f 191 196 194
f 194 197 195
f 193 247 196
f 194 196 197
f 196 248 197
f 166 198 199
f 167 199 204
f 198 201 199
f 198 200 201
f 199 206 204
f 199 201 206
f 200 203 201
f 200 202 203
f 201 211 206
f 201 203 211
f 206 211 212
f 170 204 205
f 204 206 207
f 204 207 205
f 171 205 209
f 205 207 208
f 205 208 209
f 208 240 209
f 206 212 207
f 182 209 210
f 209 240 210
f 207 212 213
f 207 213 208
f 208 214 240
f 208 213 214
f 214 215 240
f 202 218 203
f 202 217 218
f 203 218 219
f 203 219 211
f 211 219 220
f 211 220 212
f 217 223 224
f 217 224 218
f 218 225 219
f 218 224 225
f 220 221 212
f 219 226 220
f 220 227 221
f 212 221 213
f 213 221 222
f 213 222 214
f 222 234 214
f 214 234 215
f 219 225 226
f 223 229 224
f 224 229 225
f 225 229 226
f 226 229 227
f 220 226 227
f 221 228 222
f 221 227 228
f 222 228 230
f 230 231 234
f 227 229 228
f 228 229 230
f 229 231 230
f 229 232 231
f 231 232 235
f 229 233 232
f 222 230 234
f 231 235 234
f 215 235 216
f 215 234 235
f 235 236 216
f 216 236 244
f 232 236 235
f 232 233 236
f 233 237 236
f 236 237 244
f 237 245 244
f 210 241 238
f 210 240 241
f 210 238 183
f 238 239 192
f 238 241 242
f 238 242 239
f 215 241 240
f 216 242 241
f 215 216 241
f 239 247 193
f 242 243 239
f 239 243 247
f 246 248 247
f 243 246 247
f 242 244 243
f 216 244 242
f 243 245 246
f 243 244 245
f 247 248 196
f 187 388 249
f 138 396 229
f 187 189 389
f 189 195 391
f 195 197 393
f 248 395 197
f 229 397 233
f 233 400 237
f 237 401 245
f 246 402 248
f 245 404 246
f 138 251 385
f 138 385 386
f 138 386 396
f 388 250 249
f 187 389 388
f 189 390 389
f 189 391 390
f 195 392 391
f 195 393 392
f 197 395 394
f 197 394 393
f 229 396 397
f 233 397 398
f 233 398 400
f 237 400 399
f 237 399 401
f 245 401 403
f 245 403 404
f 246 405 402
f 246 404 405
f 248 406 395
f 248 402 406
f 388 387 250
f 114 568 138
f 138 569 251
f 138 568 569
f 251 624 385
f 569 624 251
f 253 134 252
f 253 252 273
f 254 253 292
f 254 294 255
f 255 294 256
f 256 298 257
f 257 298 258
f 258 300 259
f 259 300 260
f 260 332 261
f 261 332 262
f 262 334 263
f 263 334 264
f 264 335 265
f 265 335 266
f 266 349 267
f 267 349 268
f 268 353 269
f 269 353 270
f 270 357 271
f 135 271 383
f 135 383 272
f 272 383 384
f 253 273 292
f 254 292 294
f 256 294 298
f 258 298 300
f 260 300 332
f 262 332 334
f 264 334 335
f 266 335 349
f 268 349 353
f 270 353 357
f 271 357 383
f 292 273 274
f 292 274 275
f 293 275 276
f 296 276 277
f 296 277 278
f 306 278 279
f 306 279 280
f 307 280 281
f 307 281 282
f 310 282 283
f 310 283 284
f 311 284 285
f 318 285 286
f 320 286 287
f 320 287 288
f 320 288 289
f 320 289 290
f 320 290 291
f 292 275 293
f 293 276 296
f 296 278 306
f 306 280 307
f 307 282 310
f 310 284 311
f 311 285 318
f 318 286 320
f 320 291 321
f 292 293 294
f 294 293 295
f 294 295 298
f 293 296 295
f 295 296 297
f 296 306 297
f 297 306 308
f 295 297 299
f 297 308 302
f 298 299 300
f 298 295 299
f 299 302 301
f 300 301 332
f 299 301 300
f 301 304 333
f 299 297 302
f 302 308 303
f 302 303 304
f 302 304 301
f 304 305 338
f 303 305 304
f 305 316 339
f 306 307 308
f 308 307 309
f 303 308 309
f 307 310 309
f 309 310 312
f 309 312 314
f 310 311 312
f 312 311 313
f 315 312 313
f 303 309 314
f 303 314 305
f 314 312 315
f 314 315 316
f 315 324 317
f 305 314 316
f 316 317 370
f 315 317 316
f 371 317 326
f 315 313 324
f 317 324 326
f 311 318 313
f 313 318 319
f 318 320 319
f 319 320 322
f 313 319 324
f 319 322 325
f 320 321 322
f 322 321 323
f 328 322 323
f 324 325 326
f 324 319 325
f 325 328 327
f 325 327 326
f 372 326 327
f 373 327 330
f 325 322 328
f 328 329 330
f 328 323 329
f 328 330 327
f 381 330 331
f 329 331 330
f 332 301 333
f 332 333 334
f 333 337 334
f 333 338 337
f 337 338 340
f 334 337 335
f 335 337 336
f 336 337 340
f 336 340 343
f 333 304 338
f 338 339 340
f 340 339 341
f 305 339 338
f 339 316 370
f 341 339 370
f 341 370 342
f 340 341 343
f 341 342 344
f 341 344 343
f 342 345 344
f 342 374 345
f 346 374 375
f 345 374 346
f 346 375 347
f 335 336 349
f 336 350 349
f 349 350 353
f 350 354 353
f 350 351 354
f 336 343 350
f 350 343 351
f 343 344 351
f 351 344 352
f 351 352 355
f 352 364 356
f 353 354 357
f 351 355 354
f 354 355 357
f 355 356 357
f 356 358 357
f 357 358 359
f 352 356 355
f 356 364 358
f 358 365 359
f 358 364 365
f 359 366 360
f 357 359 360
f 357 360 361
f 357 361 362
f 357 362 363
f 360 367 361
f 352 344 345
f 352 345 364
f 345 346 364
f 364 346 365
f 365 346 347
f 365 347 366
f 359 365 366
f 360 366 367
f 361 368 362
f 361 367 368
f 362 368 369
f 362 369 363
f 347 348 366
f 366 348 367
f 367 348 377
f 367 377 368
f 368 378 369
f 368 377 378
f 370 317 371
f 342 370 371
f 342 371 374
f 371 372 374
f 374 372 375
f 371 326 372
f 372 327 373
f 375 372 373
f 375 373 376
f 347 375 376
f 376 381 379
f 376 373 381
f 379 381 382
f 379 382 380
f 348 376 379
f 347 376 348
f 348 379 377
f 377 379 380
f 377 380 378
f 373 330 381
f 381 331 382
f 321 409 323
f 323 411 329
f 329 413 331
f 382 331 415
f 357 363 417
f 363 369 420
f 369 378 421
f 380 382 422
f 378 380 424
f 321 291 436
f 357 416 383
f 321 408 409
f 323 409 410
f 323 410 411
f 329 411 412
f 329 412 413
f 331 414 415
f 331 413 414
f 357 417 416
f 363 418 417
f 363 420 418
f 369 419 420
f 369 421 419
f 378 423 421
f 378 424 423
f 380 422 425
f 380 425 424
f 382 415 426
f 382 426 422
f 383 416 407
f 545 272 384
f 545 384 590
f 384 383 590
f 383 427 591
f 383 591 590
f 385 543 427
f 385 427 386
f 388 452 387
f 386 513 396
f 388 389 452
f 389 390 454
f 391 454 390
f 391 392 458
f 393 458 392
f 395 460 394
f 393 394 460
f 396 513 397
f 397 514 398
f 398 514 400
f 400 517 399
f 399 517 401
f 401 522 403
f 403 522 404
f 405 523 402
f 404 523 405
f 406 526 395
f 402 526 406
f 321 436 408
f 383 407 427
f 407 416 513
f 409 408 464
f 409 471 410
f 411 410 471
f 411 483 412
f 413 412 483
f 415 414 487
f 413 487 414
f 416 417 513
f 417 418 515
f 418 420 515
f 420 419 519
f 419 421 519
f 421 423 530
f 423 424 530
f 425 422 532
f 424 425 532
f 426 415 538
f 422 426 538
f 386 427 513
f 452 428 387
f 389 454 452
f 391 458 454
f 393 460 458
f 395 526 460
f 397 513 514
f 400 514 517
f 401 517 522
f 402 523 526
f 404 522 523
f 408 436 464
f 407 513 427
f 409 464 471
f 411 471 483
f 413 483 487
f 415 487 538
f 417 515 513
f 420 519 515
f 421 530 519
f 422 538 532
f 424 532 530
f 452 429 428
f 453 430 429
f 453 431 430
f 453 432 431
f 456 433 432
f 456 434 433
f 456 435 434
f 496 444 435
f 464 436 437
f 465 439 441
f 465 437 438
f 465 440 439
f 465 438 440
f 475 441 442
f 475 442 443
f 475 443 451
f 497 448 446
f 496 445 444
f 497 446 445
f 500 451 447
f 500 447 449
f 502 450 448
f 502 449 450
f 452 453 429
f 453 456 432
f 456 496 435
f 464 437 465
f 465 441 475
f 475 451 500
f 497 502 448
f 496 497 445
f 500 449 502
f 452 454 453
f 454 455 453
f 454 458 455
f 458 459 455
f 453 455 456
f 455 457 456
f 456 457 496
f 457 499 496
f 459 457 455
f 459 462 457
f 462 508 499
f 457 462 499
f 458 460 459
f 526 461 460
f 459 460 461
f 529 506 509
f 463 462 461
f 459 461 462
f 463 508 462
f 463 509 508
f 463 461 527
f 463 527 529
f 463 529 509
f 464 472 471
f 464 470 469
f 464 469 473
f 464 474 472
f 464 473 474
f 464 465 466
f 464 466 467
f 464 467 468
f 464 468 470
f 467 466 477
f 468 467 480
f 474 473 485
f 471 472 483
f 472 474 484
f 483 472 484
f 474 485 484
f 473 469 486
f 468 481 470
f 469 470 482
f 470 481 482
f 473 486 485
f 469 482 486
f 466 465 476
f 465 475 476
f 466 476 477
f 467 477 480
f 475 501 476
f 475 500 501
f 478 477 476
f 478 476 501
f 468 480 481
f 491 481 480
f 479 477 478
f 479 480 477
f 491 480 479
f 494 511 542
f 535 493 494
f 483 484 487
f 484 485 488
f 486 482 492
f 489 485 486
f 489 488 485
f 489 486 492
f 538 487 488
f 489 492 540
f 489 540 539
f 489 539 488
f 484 488 487
f 491 479 511
f 491 511 494
f 490 491 494
f 490 482 481
f 490 481 491
f 492 482 490
f 492 490 493
f 492 493 540
f 490 494 493
f 497 498 502
f 498 503 502
f 495 504 503
f 495 503 498
f 496 499 497
f 499 498 497
f 499 508 498
f 495 498 508
f 500 502 503
f 501 500 503
f 501 503 504
f 478 501 504
f 478 504 510
f 479 478 510
f 505 495 509
f 505 510 504
f 505 507 510
f 511 510 507
f 505 504 495
f 541 507 506
f 505 506 507
f 505 509 506
f 511 507 542
f 495 508 509
f 479 510 511
f 520 531 536
f 518 512 524
f 518 521 512
f 520 536 521
f 521 537 512
f 521 536 537
f 513 516 514
f 513 515 516
f 514 518 517
f 517 524 522
f 514 516 518
f 517 518 524
f 515 519 520
f 516 520 521
f 515 520 516
f 519 530 531
f 519 531 520
f 516 521 518
f 523 527 526
f 523 525 527
f 522 525 523
f 522 524 525
f 526 527 461
f 525 529 527
f 525 528 529
f 528 541 506
f 528 506 529
f 524 528 525
f 512 528 524
f 512 541 528
f 512 537 541
f 532 538 539
f 532 539 533
f 533 539 540
f 533 540 534
f 530 532 533
f 531 533 534
f 530 533 531
f 537 535 542
f 534 540 493
f 534 493 535
f 535 494 542
f 531 534 536
f 536 534 535
f 536 535 537
f 538 488 539
f 541 542 507
f 537 542 541
f 385 624 543
f 543 624 625
f 543 625 427
f 591 427 625
f 544 546 568
f 544 545 546
f 546 547 574
f 547 548 575
f 548 549 577
f 549 550 578
f 550 551 579
f 551 552 580
f 552 553 580
f 553 554 581
f 554 555 581
f 555 556 571
f 556 557 572
f 557 558 573
f 558 559 584
f 546 545 592
f 546 592 547
f 547 594 548
f 548 560 549
f 549 561 550
f 550 598 551
f 551 600 552
f 552 562 553
f 553 603 554
f 554 563 555
f 555 564 556
f 556 565 557
f 557 566 558
f 558 567 559
f 547 592 593
f 547 593 594
f 548 594 595
f 548 596 560
f 548 595 596
f 549 560 597
f 549 597 561
f 550 561 598
f 551 598 599
f 551 599 600
f 552 600 601
f 552 601 602
f 552 602 562
f 553 562 603
f 554 603 604
f 554 604 605
f 554 605 563
f 555 563 606
f 555 606 564
f 556 564 607
f 556 607 565
f 557 565 608
f 557 608 566
f 558 566 609
f 558 609 567
f 559 567 611
f 568 574 569
f 569 574 570
f 569 570 624
f 570 635 624
f 546 574 568
f 556 572 571
f 557 573 572
f 547 575 574
f 548 576 575
f 548 577 576
f 549 578 577
f 550 579 578
f 551 580 579
f 553 582 580
f 553 581 582
f 555 571 581
f 558 584 573
f 559 583 584
f 559 626 583
f 574 635 570
f 571 572 631
f 583 628 584
f 573 584 630
f 572 573 633
f 574 575 635
f 575 576 637
f 576 577 585
f 577 578 586
f 579 641 578
f 579 580 642
f 571 645 581
f 580 582 587
f 581 588 582
f 583 627 628
f 573 630 634
f 584 628 629
f 584 629 630
f 572 632 631
f 572 633 632
f 573 634 633
f 575 636 635
f 575 637 636
f 576 638 637
f 576 585 639
f 576 639 638
f 577 640 585
f 577 586 640
f 578 641 586
f 579 642 647
f 580 644 643
f 580 643 642
f 580 587 644
f 581 645 588
f 582 646 587
f 582 588 646
f 579 647 641
f 571 648 645
f 571 631 648
f 545 590 589
f 545 589 592
f 612 590 591
f 589 590 612
f 592 612 593
f 593 613 594
f 594 613 595
f 596 595 614
f 560 596 615
f 560 615 597
f 561 597 616
f 561 616 598
f 598 616 599
f 601 617 602
f 599 618 600
f 600 618 601
f 562 602 619
f 562 619 603
f 603 619 604
f 604 620 605
f 563 605 622
f 563 622 606
f 564 606 623
f 565 607 621
f 564 623 607
f 566 608 610
f 566 610 609
f 565 621 608
f 567 609 611
f 559 611 626
f 592 589 612
f 593 612 613
f 595 613 614
f 596 614 615
f 597 615 616
f 602 617 619
f 604 619 620
f 605 620 622
f 599 616 618
f 601 618 617
f 607 623 621
f 608 621 610
f 609 610 611
f 606 622 623
f 612 591 654
f 610 649 611
f 610 621 650
f 612 654 613
f 614 613 655
f 614 657 615
f 616 615 658
f 620 652 622
f 617 618 659
f 619 617 659
f 616 660 618
f 619 662 620
f 621 623 651
f 623 622 653
f 624 654 625
f 591 625 654
f 624 635 654
f 583 626 649
f 583 649 627
f 627 650 628
f 628 650 629
f 629 651 630
f 630 651 634
f 631 632 652
f 633 634 653
f 633 653 632
f 636 654 635
f 636 637 655
f 638 655 637
f 585 657 639
f 638 639 656
f 585 640 657
f 586 658 640
f 586 641 658
f 641 647 658
f 644 659 643
f 642 660 647
f 642 643 660
f 588 645 661
f 648 661 645
f 587 662 644
f 587 646 662
f 588 661 646
f 631 652 648
f 611 649 626
f 627 649 650
f 629 650 651
f 634 651 653
f 632 653 652
f 636 655 654
f 638 656 655
f 639 657 656
f 640 658 657
f 644 662 659
f 646 661 662
f 643 659 660
f 647 660 658
f 648 652 661
f 610 650 649
f 620 661 652
f 621 651 650
f 623 653 651
f 622 652 653
f 613 654 655
f 614 655 656
f 614 656 657
f 615 657 658
f 616 658 660
f 618 660 659
f 619 659 662
f 620 662 661
f 1 2 436
f 9 10 436
f 10 11 436
f 12 436 11
f 2 3 436
f 3 9 436
f 13 14 436
f 12 13 436
f 14 15 436
f 4 436 5
f 1 436 4
f 5 436 6
f 7 6 436
f 8 7 436
f 8 436 16
f 17 16 436
f 17 436 18
f 18 436 19
f 19 436 20
f 20 436 21
f 21 436 22
f 15 139 152
f 15 152 153
f 15 154 155
f 15 153 154
f 15 155 156
f 15 156 157
f 15 157 249
f 15 249 250
f 142 143 149
f 139 140 152
f 141 152 140
f 141 142 150
f 144 149 143
f 146 147 148
f 144 145 149
f 145 146 149
f 146 148 149
f 142 149 150
f 141 150 151
f 141 151 152
f 15 250 387
f 15 387 428
f 22 436 134
f 134 436 252
f 278 291 279
f 279 290 280
f 280 286 281
f 281 285 282
f 282 284 283
f 282 285 284
f 281 286 285
f 286 280 287
f 290 279 291
f 280 290 289
f 280 289 288
f 280 288 287
f 273 252 436
f 273 436 274
f 274 436 275
f 275 436 276
f 276 436 277
f 277 436 278
f 278 436 291
f 15 428 429
f 15 429 430
f 15 430 431
f 15 431 432
f 15 433 434
f 15 432 433
f 15 435 444
f 15 434 435
f 15 444 445
f 15 445 446
f 15 446 448
f 15 437 436
f 15 441 439
f 15 438 437
f 15 440 438
f 15 439 440
f 15 451 443
f 15 449 447
f 15 447 451
f 15 442 441
f 15 443 442
f 15 448 450
f 15 450 449