# https://github.com/mikedh/trimesh
v -0.00039070 -0.00859595 -0.01729053
v -0.00077323 -0.00859595 -0.01726012
v -0.00039070 -0.00000061 -0.01729053
v -0.00077323 0.00859472 -0.01726012
v -0.00114779 -0.00859595 -0.01717141
v -0.00039070 0.00859472 -0.01728800
v -0.00074135 0.00859472 -0.01726265
v -0.00114779 0.00859472 -0.01717141
v -0.00147454 -0.00859595 -0.01703709
v -0.00117967 0.00859472 -0.01715874
v -0.00149845 0.00859472 -0.01702695
v -0.00149845 -0.00859595 -0.01702695
v -0.00180925 -0.00859595 -0.01684193
v -0.00182519 0.00859472 -0.01682926
v -0.00182519 -0.00859595 -0.01682926
v -0.00210412 0.00859472 -0.01658595
v -0.00208818 -0.00859595 -0.01659863
v -0.00222366 -0.00859595 -0.01645162
v -0.00222366 0.00859472 -0.01645162
v -0.00233523 -0.00859595 -0.01630463
v -0.00233523 0.00859472 -0.01630463
v -0.00243086 -0.00859595 -0.01615256
v -0.00243086 0.00859472 -0.01615256
v -0.00251056 -0.00859595 -0.01599289
v -0.00251056 0.00859472 -0.01599289
v -0.00257431 -0.00859595 -0.01582562
v -0.00257431 0.00859472 -0.01582562
v -0.00263010 -0.00859595 -0.01565581
v -0.00263010 0.00859472 -0.01565581
v -0.00266198 -0.00859595 -0.01548346
v -0.00266198 0.00859472 -0.01548346
v -0.00267791 -0.00859595 -0.01530859
v -0.00267791 0.00859472 -0.01530859
v -0.00270182 -0.00859595 -0.01486252
v -0.00268588 0.00859472 -0.01514892
v -0.00299669 -0.00859595 -0.00866578
v -0.00383348 -0.00780843 0.00860147
v -0.00383348 0.00768269 0.00860147
v -0.00299669 0.00859472 -0.00866578
v 0.07242455 -0.00000061 -0.01729053
v 0.07242455 -0.00030822 -0.01729053
v 0.07242455 -0.00859595 -0.00921974
v 0.07242455 -0.00859595 -0.00866578
v 0.07242455 0.00859472 -0.01728800
v 0.07242455 0.00828711 -0.01728809
v 0.07242455 0.00859472 -0.00866578
v 0.07242455 0.00859472 -0.00921508
v 0.07242455 0.00859472 -0.01728701
v 0.07242455 0.00859472 -0.01728800
v 0.07242455 -0.00859595 -0.00866578
v 0.07242455 -0.00854751 -0.00760371
v 0.07242455 0.00853862 -0.00760371
v 0.07242455 0.00859472 -0.00866578
v 0.07242455 -0.00780843 0.00860147
v 0.07242455 -0.00685561 0.00860147
v 0.07242455 -0.00030822 -0.01729053
v 0.07242455 -0.00859595 -0.01729053
v 0.07242455 -0.00859595 -0.01729053
v 0.07242455 -0.00859595 -0.01725893
v 0.07242455 -0.00859595 -0.01725893
v 0.07242455 -0.00859595 -0.01723955
v 0.07242455 -0.00859595 -0.01723955
v 0.07242455 -0.00859595 -0.01716960
v 0.07242455 -0.00859595 -0.01716960
v 0.07242455 -0.00859595 -0.01713591
v 0.07242455 -0.00859595 -0.01713591
v 0.07242455 -0.00859595 -0.01705920
v 0.07242455 -0.00859595 -0.01705920
v 0.07242455 -0.00859595 -0.01702574
v 0.07242455 -0.00859595 -0.01702574
v 0.07242455 -0.00859595 -0.01683031
v 0.07242455 -0.00859595 -0.01683031
v 0.07242455 -0.00859595 -0.01659082
v 0.07242455 -0.00859595 -0.01659082
v 0.07242455 -0.00859595 -0.01631663
v 0.07242455 -0.00859595 -0.01631663
v 0.07242455 -0.00859595 -0.01601221
v 0.07242455 -0.00859595 -0.01601221
v 0.07242455 -0.00859595 -0.01568646
v 0.07242455 -0.00859595 -0.01568646
v 0.07242455 -0.00859595 -0.01535288
v 0.07242455 -0.00859595 -0.01535288
v 0.07242455 -0.00859595 -0.00921974
v 0.07242455 0.00828711 -0.01728809
v 0.07242455 -0.00000061 -0.01729053
v 0.07242455 0.00859472 -0.00921508
v 0.07242455 0.00859472 -0.01535028
v 0.07242455 0.00859472 -0.01535028
v 0.07242455 0.00859472 -0.01568400
v 0.07242455 0.00859472 -0.01568400
v 0.07242455 0.00859472 -0.01600990
v 0.07242455 0.00859472 -0.01600990
v 0.07242455 0.00859472 -0.01631449
v 0.07242455 0.00859472 -0.01631449
v 0.07242455 0.00859472 -0.01658887
v 0.07242455 0.00859472 -0.01658887
v 0.07242455 0.00859472 -0.01682854
v 0.07242455 0.00859472 -0.01682854
v 0.07242455 0.00859472 -0.01702415
v 0.07242455 0.00859472 -0.01702415
v 0.07242455 0.00859472 -0.01705765
v 0.07242455 0.00859472 -0.01705765
v 0.07242455 0.00859472 -0.01713446
v 0.07242455 0.00859472 -0.01713446
v 0.07242455 0.00859472 -0.01716819
v 0.07242455 0.00859472 -0.01716819
v 0.07242455 0.00859472 -0.01723826
v 0.07242455 0.00859472 -0.01723826
v 0.07242455 0.00859472 -0.01725768
v 0.07242455 0.00859472 -0.01725768
v 0.07242455 0.00859472 -0.01728209
v 0.07242455 0.00859472 -0.01728209
v 0.07242455 0.00859472 -0.01728701
v 0.07242455 -0.00854751 -0.00760371
v 0.07242455 -0.00780843 0.00860147
v 0.07242455 0.00768269 0.00860147
v 0.07242455 0.00853862 -0.00760371
v 0.07242455 -0.00685561 0.00860147
v 0.07242455 0.00768269 0.00860147
f 37 38 34
f 7 6 3
f 7 3 4
f 37 34 36
f 11 9 12
f 38 39 35
f 35 34 38
f 35 33 34
f 34 33 32
f 17 16 15
f 17 18 16
f 13 11 12
f 5 9 10
f 9 11 10
f 11 13 14
f 14 13 15
f 15 16 14
f 5 10 8
f 16 18 19
f 57 3 40
f 1 3 57
f 115 38 37
f 116 38 115
f 6 44 40
f 40 3 6
f 53 57 40
f 40 44 53
f 53 50 57
f 116 115 53
f 115 50 53
f 53 38 116
f 53 39 38
f 2 3 1
f 4 3 2
f 36 50 115
f 36 115 37
f 26 28 27
f 27 28 29
f 31 28 30
f 29 28 31
f 30 32 31
f 31 32 33
f 26 27 25
f 25 24 26
f 22 24 25
f 25 23 22
f 8 2 5
f 4 2 8
f 1 57 20
f 57 50 20
f 20 24 22
f 20 17 15
f 20 2 1
f 30 28 20
f 20 9 5
f 5 2 20
f 50 36 20
f 20 32 30
f 20 36 34
f 12 9 20
f 20 28 26
f 15 13 20
f 34 32 20
f 26 24 20
f 18 17 20
f 20 13 12
f 23 21 20
f 22 23 20
f 19 7 4
f 19 53 44
f 44 6 19
f 39 53 19
f 19 27 29
f 6 7 19
f 19 14 16
f 19 35 39
f 29 31 19
f 19 25 27
f 33 35 19
f 19 31 33
f 4 8 19
f 19 10 11
f 19 21 23
f 23 25 19
f 11 14 19
f 19 8 10
f 18 20 19
f 19 20 21

