# https://github.com/mikedh/trimesh
v -0.06984274 -0.02300498 -0.01899837
v -0.06984274 -0.02017419 -0.01899837
v -0.06612473 -0.02122665 -0.01899837
v -0.06313841 -0.01806933 -0.01899837
v -0.06112214 -0.02175285 -0.01899837
v -0.05916208 -0.02122665 -0.01899837
v -0.06817337 -0.00504351 -0.01899837
v -0.05855975 -0.02175285 -0.01899837
v -0.05727856 -0.02175285 -0.01899837
v -0.05471617 -0.02175285 -0.01899837
v -0.05319491 -0.02227908 -0.01899837
v -0.05372075 -0.02070042 -0.01899837
v -0.05783408 -0.01596447 -0.01899837
v -0.05746662 -0.01559700 -0.01896864
v -0.05710870 -0.01523910 -0.01888026
v -0.05676967 -0.01490007 -0.01873545
v -0.05645831 -0.01458870 -0.01853805
v -0.05618273 -0.01431312 -0.01829319
v -0.05595011 -0.01408050 -0.01800717
v -0.05585184 -0.01398225 -0.01785105
v -0.05576648 -0.01389687 -0.01768752
v -0.05569457 -0.01382496 -0.01751763
v -0.05563660 -0.01376700 -0.01734249
v -0.05559296 -0.01372335 -0.01716324
v -0.05556389 -0.01369431 -0.01698108
v -0.05554964 -0.01368003 -0.01679715
v -0.05555024 -0.01368063 -0.01661265
v -0.05156631 -0.02017422 -0.01899837
v -0.05023674 -0.01701690 -0.01899837
v -0.05765033 -0.00018369 -0.01898352
v -0.05728767 -0.00017889 -0.01892445
v -0.05693917 -0.00016947 -0.01880784
v -0.05661399 -0.00015564 -0.01863675
v -0.05632052 -0.00013773 -0.01841562
v -0.05606641 -0.00011628 -0.01815018
v -0.05590094 -0.00004908 -0.01792911
v -0.05573054 -0.00003591 -0.01760256
v -0.05561477 -0.00002178 -0.01725288
v -0.05555675 -0.00000708 -0.01688910
v -0.05554994 -0.00000024 -0.01670490
v -0.06984274 -0.02300498 0.01910163
v -0.06204053 -0.01916721 0.01910163
v -0.05992061 -0.02090613 0.01910163
v -0.05929789 -0.01742832 0.01910163
v -0.05891189 -0.01704228 0.01906878
v -0.05628215 -0.01441257 0.00015135
v -0.04831648 -0.01441257 0.00015135
v -0.05853692 -0.01666734 0.01897125
v -0.05818385 -0.01631424 0.01881177
v -0.05786273 -0.01599315 0.01859496
v -0.05735228 -0.01548267 0.01801572
v -0.05746094 -0.01559136 0.01817628
v -0.05758289 -0.01571328 0.01832706
v -0.05701410 -0.01514451 0.01691535
v -0.05703080 -0.01516116 0.01710852
v -0.05706373 -0.01519413 0.01729959
v -0.05711276 -0.01524318 0.01748715
v -0.05717756 -0.01530795 0.01766991
v -0.05725757 -0.01538796 0.01784652
v -0.04789593 -0.01916724 0.01910163
v -0.04895588 -0.01829778 0.01910163
v -0.04777757 -0.01723530 0.01908522
v -0.05664812 -0.00720627 0.00853335
v -0.05740661 -0.00005430 0.01809600
v -0.05702243 -0.00000828 0.01701192
v -0.05704727 -0.00001644 0.01720404
v -0.05708825 -0.00002448 0.01739337
v -0.05721756 -0.00003996 0.01775823
v -0.06817337 0.01092099 -0.01899837
v -0.06984274 0.01207517 -0.01899837
v -0.06984274 0.02300498 -0.01899837
v -0.06313841 0.01806942 -0.01899837
v -0.06065251 0.02017431 -0.01899837
v -0.05783405 0.00000006 -0.01899837
v -0.05746662 0.00000006 -0.01896864
v -0.05710867 0.00000006 -0.01888026
v -0.05676967 0.00000006 -0.01873545
v -0.05645831 0.00000006 -0.01853805
v -0.05618273 0.00000006 -0.01829319
v -0.05595008 0.00000003 -0.01800717
v -0.05585181 0.00000003 -0.01785105
v -0.05580914 0.00004272 -0.01776927
v -0.05576648 0.00000003 -0.01768752
v -0.05569457 0.00000006 -0.01751763
v -0.05566559 0.00002904 -0.01743006
v -0.05563660 0.00000006 -0.01734249
v -0.05559296 0.00000006 -0.01716324
v -0.05557841 0.00001458 -0.01707216
v -0.05556389 0.00000006 -0.01698108
v -0.05554964 0.00000003 -0.01679715
v -0.05555024 0.00000006 -0.01661265
v -0.05618273 0.01431324 -0.01829319
v -0.05595008 0.01408059 -0.01800717
v -0.05746662 0.01559709 -0.01896864
v -0.05783405 0.01596456 -0.01899837
v -0.05676967 0.01490016 -0.01873545
v -0.05710867 0.01523919 -0.01888026
v -0.05645831 0.01458882 -0.01853805
v -0.05585181 0.01398234 -0.01785105
v -0.05576648 0.01389696 -0.01768752
v -0.05569457 0.01382508 -0.01751763
v -0.05563660 0.01376712 -0.01734249
v -0.05559293 0.01372347 -0.01716324
v -0.05556386 0.01369440 -0.01698108
v -0.05554964 0.01368012 -0.01679715
v -0.05555024 0.01368072 -0.01661265
v -0.05023674 0.01701699 -0.01899837
v -0.04899377 0.01806942 -0.01899837
v -0.06945423 0.00522660 0.01910163
v -0.05929789 0.00000006 0.01910163
v -0.05910488 0.00019308 0.01908522
v -0.05891186 0.00000006 0.01906878
v -0.05872439 0.00018753 0.01902003
v -0.06984274 0.02300498 0.01910163
v -0.05891186 0.01704237 0.01906878
v -0.06204053 0.01916733 0.01910163
v -0.05929789 0.01742841 0.01910163
v -0.05992061 0.02090622 0.01910163
v -0.05628215 0.00073197 0.00015135
v -0.05853692 0.00000006 0.01897125
v -0.05802329 0.00016059 0.01870338
v -0.05836037 0.00017658 0.01889151
v -0.05818385 0.00000006 0.01881177
v -0.05772281 0.00013998 0.01846101
v -0.05735228 0.00000003 0.01801572
v -0.05746094 0.00000006 0.01817628
v -0.05752193 0.00006102 0.01825167
v -0.05758289 0.00000006 0.01832706
v -0.05786273 0.00000006 0.01859496
v -0.05701407 0.00000006 0.01691535
v -0.05703077 0.00000006 0.01710852
v -0.05706373 0.00000006 0.01729959
v -0.05711276 0.00000006 0.01748715
v -0.05714515 0.00003243 0.01757853
v -0.05717753 0.00000006 0.01766991
v -0.05725757 0.00000003 0.01784652
v -0.05730491 0.00004740 0.01793112
v -0.05628215 0.01441266 0.00015135
v -0.05735225 0.01548276 0.01801572
v -0.05746094 0.01559145 0.01817628
v -0.05758289 0.01571337 0.01832706
v -0.05818385 0.01631433 0.01881177
v -0.05853692 0.01666743 0.01897125
v -0.05786270 0.01599324 0.01859496
v -0.05701407 0.01514460 0.01691535
v -0.05703077 0.01516125 0.01710852
v -0.05706373 0.01519422 0.01729959
v -0.05711276 0.01524327 0.01748715
v -0.05717753 0.01530804 0.01766991
v -0.05725754 0.01538805 0.01784652
v -0.04895585 0.01829787 0.01910163
v -0.04789588 0.01916733 0.01910163
v -0.04523687 -0.02122665 -0.01899837
v -0.04267449 -0.02122665 -0.01899837
v -0.04070040 -0.02175285 -0.01899837
v -0.04131680 -0.02017422 -0.01899837
v -0.03754973 -0.02122665 -0.01899837
v -0.03931724 -0.01398225 -0.01785105
v -0.03947454 -0.01382499 -0.01751763
v -0.03940262 -0.01389687 -0.01768752
v -0.03953249 -0.01376703 -0.01734249
v -0.03960517 -0.01369431 -0.01698108
v -0.03961946 -0.01368003 -0.01679715
v -0.03957618 -0.01372335 -0.01716324
v -0.03961885 -0.01368063 -0.01661265
v -0.03871082 -0.01458870 -0.01853805
v -0.03806042 -0.01523910 -0.01888026
v -0.03839945 -0.01490007 -0.01873545
v -0.03733505 -0.01596447 -0.01899837
v -0.03770249 -0.01559700 -0.01896864
v -0.03898637 -0.01431315 -0.01829319
v -0.03921902 -0.01408053 -0.01800717
v -0.03926813 -0.00004911 -0.01792911
v -0.03943859 -0.00003591 -0.01760256
v -0.03935993 -0.00004263 -0.01776927
v -0.03950350 -0.00002895 -0.01743006
v -0.03955433 -0.00002178 -0.01725288
v -0.03959066 -0.00001449 -0.01707216
v -0.03135650 -0.02175288 -0.01899837
v -0.02935157 -0.02070042 -0.01899837
v -0.02820584 -0.02122665 -0.01899837
v -0.02891282 -0.01964799 -0.01899837
v -0.02932073 -0.01912179 -0.01899837
v -0.02807039 -0.02070042 -0.01899837
v -0.02739155 -0.02017422 -0.01899837
v -0.02533401 -0.02300498 -0.01899837
v -0.02550800 -0.02070042 -0.01899837
v -0.02533401 -0.02069282 -0.01899837
v -0.02533401 -0.01938928 -0.01899837
v -0.02799116 -0.00399108 -0.01899837
v -0.03888692 -0.01441257 0.00015135
v -0.04758455 -0.01742832 0.01910163
v -0.03815498 -0.01514451 0.01691535
v -0.03813833 -0.01516116 0.01710852
v -0.03810536 -0.01519413 0.01729959
v -0.03805631 -0.01524318 0.01748715
v -0.03799157 -0.01530795 0.01766991
v -0.03791156 -0.01538799 0.01784652
v -0.03730634 -0.01599315 0.01859496
v -0.03663221 -0.01666734 0.01897125
v -0.03698528 -0.01631424 0.01881177
v -0.03781685 -0.01548267 0.01801572
v -0.03770813 -0.01559136 0.01817628
v -0.03758621 -0.01571328 0.01832706
v -0.03888692 -0.00073188 0.00015135
v -0.03812186 -0.00001644 0.01720404
v -0.03744629 -0.00013989 0.01846101
v -0.03714581 -0.00016050 0.01870338
v -0.03680873 -0.00017649 0.01889151
v -0.03587120 -0.01742832 0.01910163
v -0.03625724 -0.01704228 0.01906878
v -0.02533401 -0.02300498 0.01910163
v -0.03644471 -0.00018744 0.01902003
v -0.03606422 -0.00019299 0.01908522
v -0.03931724 0.00000003 -0.01785105
v -0.03947454 0.00000003 -0.01751763
v -0.03940262 0.00000003 -0.01768752
v -0.03953249 0.00000003 -0.01734249
v -0.03960517 0.00000006 -0.01698108
v -0.03961233 0.00000717 -0.01688910
v -0.03961946 0.00000003 -0.01679715
v -0.03961917 0.00000033 -0.01670490
v -0.03957618 0.00000006 -0.01716324
v -0.03961885 0.00000006 -0.01661265
v -0.03884858 0.00013782 -0.01841562
v -0.03855512 0.00015573 -0.01863675
v -0.03871079 0.00000003 -0.01853805
v -0.03910271 0.00011637 -0.01815018
v -0.03898637 0.00000003 -0.01829319
v -0.03921902 0.00000003 -0.01800717
v -0.03839942 0.00000003 -0.01873545
v -0.03822992 0.00016956 -0.01880784
v -0.03806042 0.00000003 -0.01888026
v -0.03788144 0.00017901 -0.01892445
v -0.03770249 0.00000003 -0.01896864
v -0.03751877 0.00018378 -0.01898352
v -0.03733505 0.00000003 -0.01899837
v -0.03931724 0.01398231 -0.01785105
v -0.03947454 0.01382508 -0.01751763
v -0.03940262 0.01389696 -0.01768752
v -0.03953249 0.01376709 -0.01734249
v -0.03960517 0.01369440 -0.01698108
v -0.03961946 0.01368012 -0.01679715
v -0.03957618 0.01372347 -0.01716324
v -0.03961885 0.01368072 -0.01661265
v -0.03898637 0.01431324 -0.01829319
v -0.03921902 0.01408059 -0.01800717
v -0.03871079 0.01458879 -0.01853805
v -0.03839942 0.01490016 -0.01873545
v -0.03806042 0.01523919 -0.01888026
v -0.03770249 0.01559709 -0.01896864
v -0.03733505 0.01596456 -0.01899837
v -0.02533401 0.02300498 -0.01899837
v -0.03852095 0.00720636 0.00853335
v -0.03815498 0.00000003 0.01691535
v -0.03814667 0.00000837 0.01701192
v -0.03813833 0.00000003 0.01710852
v -0.03810536 0.00000003 0.01729959
v -0.03808082 0.00002457 0.01739337
v -0.03805628 0.00000003 0.01748715
v -0.03802394 0.00003243 0.01757853
v -0.03799157 0.00000003 0.01766991
v -0.03795155 0.00004005 0.01775823
v -0.03791156 0.00000003 0.01784652
v -0.03786419 0.00004740 0.01793112
v -0.03781685 0.00000003 0.01801572
v -0.03776249 0.00005439 0.01809600
v -0.03770813 0.00000003 0.01817628
v -0.03764717 0.00006099 0.01825167
v -0.03758621 0.00000003 0.01832706
v -0.03730634 0.00000003 0.01859496
v -0.03698525 0.00000003 0.01881177
v -0.03663218 0.00000003 0.01897125
v -0.04685261 0.01441266 0.00015135
v -0.03888692 0.01441266 0.00015135
v -0.04739152 0.01723539 0.01908522
v -0.04758455 0.01742841 0.01910163
v -0.03815498 0.01514457 0.01691535
v -0.03813833 0.01516125 0.01710852
v -0.03810536 0.01519422 0.01729959
v -0.03805628 0.01524327 0.01748715
v -0.03799157 0.01530804 0.01766991
v -0.03791153 0.01538805 0.01784652
v -0.03781682 0.01548276 0.01801572
v -0.03770810 0.01559145 0.01817628
v -0.03758621 0.01571337 0.01832706
v -0.03730634 0.01599324 0.01859496
v -0.03698525 0.01631433 0.01881177
v -0.03663218 0.01666740 0.01897125
v -0.03625724 0.00000003 0.01906878
v -0.03587120 0.00000003 0.01910163
v -0.02689328 0.00435714 0.01910163
v -0.03625724 0.01704237 0.01906878
v -0.03587120 0.01742841 0.01910163
v -0.02533401 0.02300498 0.01910163
f 3 1 2
f 3 6 1
f 13 2 7
f 5 1 6
f 5 8 1
f 8 9 1
f 3 2 28
f 4 2 13
f 4 28 2
f 9 10 1
f 10 11 1
f 3 12 6
f 7 2 70
f 13 7 74
f 3 28 12
f 5 153 8
f 5 6 153
f 8 153 9
f 4 29 28
f 4 13 29
f 11 179 1
f 9 154 10
f 6 12 156
f 10 157 11
f 9 153 154
f 6 156 153
f 12 28 156
f 13 14 169
f 14 15 170
f 15 16 167
f 16 17 168
f 17 18 166
f 18 19 171
f 13 169 29
f 19 20 172
f 20 21 160
f 21 22 160
f 22 23 161
f 23 24 164
f 24 25 162
f 25 26 163
f 26 27 165
f 27 47 165
f 27 46 47
f 13 30 14
f 14 31 15
f 15 32 16
f 16 33 17
f 17 34 18
f 18 35 19
f 19 36 20
f 20 81 21
f 21 37 22
f 22 84 23
f 23 38 24
f 24 87 25
f 25 39 26
f 26 40 27
f 13 74 30
f 14 30 75
f 14 75 31
f 15 31 76
f 15 76 32
f 16 32 77
f 16 77 33
f 17 33 78
f 17 78 34
f 18 34 79
f 18 79 35
f 19 35 80
f 19 80 36
f 20 36 81
f 21 81 82
f 21 82 83
f 21 83 37
f 22 37 84
f 23 84 85
f 23 85 86
f 23 86 38
f 24 38 87
f 25 87 88
f 25 88 89
f 25 89 39
f 26 39 90
f 26 90 40
f 27 40 91
f 27 91 119
f 27 119 46
f 43 42 41
f 42 44 41
f 44 110 41
f 109 41 110
f 44 45 110
f 45 48 112
f 45 111 110
f 45 112 111
f 48 113 112
f 46 63 54
f 46 54 47
f 43 61 42
f 42 61 44
f 44 62 45
f 43 41 212
f 43 60 61
f 44 61 192
f 44 192 62
f 47 54 193
f 45 200 48
f 48 201 49
f 49 199 50
f 54 55 194
f 55 56 195
f 56 57 196
f 58 196 57
f 59 51 198
f 58 59 198
f 51 52 203
f 50 204 53
f 52 53 204
f 45 62 211
f 46 119 63
f 63 119 130
f 54 63 130
f 48 49 120
f 49 50 123
f 50 53 129
f 52 128 53
f 51 64 52
f 54 65 55
f 55 66 56
f 58 57 135
f 56 67 57
f 58 68 59
f 59 125 51
f 48 120 113
f 50 121 123
f 49 122 120
f 49 123 122
f 53 124 129
f 52 64 126
f 51 125 64
f 52 126 127
f 52 127 128
f 53 128 124
f 50 129 121
f 54 130 65
f 55 65 131
f 55 131 66
f 56 66 132
f 56 132 67
f 57 67 133
f 57 133 134
f 57 134 135
f 58 135 68
f 59 68 136
f 59 136 137
f 59 137 125
f 7 70 74
f 74 70 69
f 74 69 95
f 69 70 95
f 72 70 71
f 72 71 73
f 95 70 72
f 30 74 94
f 30 94 75
f 31 75 97
f 31 97 76
f 32 76 96
f 32 96 77
f 33 77 98
f 33 98 78
f 34 78 92
f 35 79 93
f 35 93 80
f 34 92 79
f 36 80 99
f 36 99 81
f 81 99 82
f 82 100 83
f 37 83 101
f 37 101 84
f 84 101 85
f 85 102 86
f 38 86 103
f 38 103 87
f 87 103 88
f 88 104 89
f 39 89 105
f 39 105 90
f 40 90 105
f 40 106 91
f 91 106 119
f 74 95 94
f 75 94 97
f 76 97 96
f 77 96 98
f 78 98 92
f 79 92 93
f 80 93 99
f 82 99 100
f 83 100 101
f 86 102 103
f 85 101 102
f 88 103 104
f 89 104 105
f 40 105 106
f 106 138 119
f 95 72 107
f 72 73 107
f 73 108 107
f 93 238 99
f 93 92 247
f 96 97 249
f 96 248 98
f 98 246 92
f 94 250 97
f 94 95 251
f 99 238 100
f 100 239 101
f 101 239 102
f 102 244 103
f 103 244 104
f 104 242 105
f 105 243 106
f 95 107 252
f 73 71 253
f 106 274 138
f 109 114 41
f 112 115 111
f 112 113 115
f 109 110 117
f 110 111 117
f 113 143 115
f 109 117 114
f 111 115 117
f 116 114 117
f 116 118 114
f 118 152 114
f 119 138 145
f 119 145 130
f 113 120 143
f 122 143 120
f 121 142 123
f 122 123 142
f 64 125 139
f 137 139 125
f 64 139 126
f 126 140 127
f 127 141 128
f 124 128 141
f 129 144 121
f 124 144 129
f 65 145 131
f 65 130 145
f 66 131 146
f 66 146 132
f 67 132 147
f 67 147 133
f 134 133 148
f 134 149 135
f 68 149 136
f 68 135 149
f 136 150 137
f 121 144 142
f 122 142 143
f 124 141 144
f 126 139 140
f 127 140 141
f 131 145 146
f 132 146 147
f 133 147 148
f 134 148 149
f 136 149 150
f 137 150 139
f 138 274 145
f 116 117 151
f 116 151 118
f 115 277 117
f 145 278 146
f 146 280 147
f 147 280 148
f 149 148 282
f 149 282 150
f 150 283 139
f 139 284 140
f 140 286 141
f 143 142 289
f 115 276 277
f 143 293 115
f 141 287 144
f 144 288 142
f 117 277 151
f 118 151 152
f 152 294 114
f 10 154 157
f 28 29 169
f 11 157 155
f 179 186 1
f 20 160 158
f 22 159 160
f 22 161 159
f 23 164 161
f 24 162 164
f 25 163 162
f 26 165 163
f 14 170 169
f 15 167 170
f 17 166 168
f 16 168 167
f 18 171 166
f 19 172 171
f 20 158 172
f 11 155 179
f 28 183 156
f 28 169 183
f 153 180 154
f 153 156 180
f 165 47 191
f 172 158 173
f 159 174 160
f 158 160 175
f 159 161 176
f 161 164 177
f 162 163 219
f 163 165 222
f 164 162 178
f 171 227 166
f 171 172 229
f 168 166 231
f 167 168 233
f 167 235 170
f 169 170 237
f 158 175 215
f 158 215 173
f 159 216 174
f 160 217 175
f 160 174 217
f 161 218 176
f 159 176 216
f 161 177 218
f 162 219 178
f 163 220 219
f 163 221 220
f 163 222 221
f 165 224 222
f 164 223 177
f 164 178 223
f 171 225 227
f 166 227 226
f 166 226 231
f 171 229 225
f 172 173 230
f 172 228 229
f 172 230 228
f 168 231 232
f 168 232 233
f 167 233 234
f 167 234 235
f 170 235 236
f 170 236 237
f 165 205 224
f 165 191 205
f 154 184 157
f 155 157 181
f 155 181 179
f 154 180 184
f 156 185 180
f 156 182 185
f 156 183 189
f 156 189 182
f 157 187 181
f 157 184 187
f 179 181 186
f 169 189 183
f 180 188 184
f 180 185 188
f 185 182 188
f 181 188 186
f 187 188 181
f 184 188 187
f 182 189 188
f 169 190 189
f 169 237 190
f 190 253 189
f 47 193 191
f 43 212 60
f 60 210 61
f 61 210 192
f 50 199 204
f 49 201 199
f 192 211 62
f 45 211 200
f 48 200 201
f 54 194 193
f 55 195 194
f 58 197 196
f 56 196 195
f 58 198 197
f 51 203 202
f 52 204 203
f 51 202 198
f 192 210 211
f 191 193 205
f 193 194 257
f 194 195 206
f 195 196 260
f 196 197 262
f 197 198 264
f 203 204 270
f 198 202 266
f 202 203 268
f 199 207 204
f 201 208 199
f 200 209 201
f 193 255 205
f 193 256 255
f 193 257 256
f 194 206 257
f 195 258 206
f 195 259 258
f 195 260 259
f 196 261 260
f 196 262 261
f 197 263 262
f 197 264 263
f 198 265 264
f 198 266 265
f 202 267 266
f 202 268 267
f 203 269 268
f 204 207 270
f 203 270 269
f 199 271 207
f 199 208 271
f 201 272 208
f 201 209 272
f 200 273 209
f 200 213 273
f 60 212 210
f 210 214 211
f 210 212 291
f 200 211 213
f 210 291 214
f 211 290 213
f 211 214 290
f 291 212 292
f 173 238 230
f 173 215 238
f 174 239 217
f 174 216 239
f 175 240 215
f 175 217 240
f 176 218 241
f 176 241 216
f 177 244 218
f 178 219 242
f 219 220 242
f 220 221 243
f 221 222 243
f 222 224 245
f 177 223 244
f 178 242 223
f 225 248 227
f 226 227 248
f 225 229 246
f 229 228 246
f 228 230 247
f 231 226 249
f 231 249 232
f 233 232 250
f 233 250 234
f 234 251 235
f 235 251 236
f 236 252 237
f 205 245 224
f 230 238 247
f 217 239 240
f 215 240 238
f 218 244 241
f 216 241 239
f 220 243 242
f 222 245 243
f 223 242 244
f 225 246 248
f 226 248 249
f 228 247 246
f 232 249 250
f 234 250 251
f 236 251 252
f 205 275 245
f 93 247 238
f 100 238 240
f 100 240 239
f 102 239 241
f 102 241 244
f 104 244 242
f 105 242 243
f 106 243 245
f 107 108 252
f 92 246 247
f 98 248 246
f 96 249 248
f 97 250 249
f 94 251 250
f 95 252 251
f 106 245 274
f 73 253 108
f 108 253 252
f 245 275 274
f 190 237 253
f 237 252 253
f 205 255 254
f 205 254 275
f 255 256 278
f 256 257 279
f 206 279 257
f 206 258 279
f 258 259 280
f 259 260 281
f 260 261 281
f 261 262 282
f 262 263 282
f 263 264 283
f 264 265 283
f 265 266 284
f 266 267 284
f 267 268 285
f 268 269 285
f 207 286 270
f 269 270 286
f 207 271 286
f 208 287 271
f 208 272 287
f 209 288 272
f 209 273 288
f 213 289 273
f 254 255 278
f 256 279 278
f 258 280 279
f 259 281 280
f 261 282 281
f 263 283 282
f 265 284 283
f 267 285 284
f 269 286 285
f 271 287 286
f 272 288 287
f 273 289 288
f 274 275 278
f 254 278 275
f 274 278 145
f 115 293 276
f 146 278 279
f 146 279 280
f 148 280 281
f 148 281 282
f 150 282 283
f 139 283 284
f 140 284 285
f 140 285 286
f 141 286 287
f 144 287 288
f 142 288 289
f 143 289 293
f 151 277 294
f 151 294 152
f 277 276 294
f 294 295 114
f 276 293 294
f 213 290 289
f 214 293 290
f 214 291 293
f 289 290 293
f 291 294 293
f 291 292 294
f 292 212 295
f 292 295 294
f 1 114 2
f 41 114 1
f 1 212 41
f 2 114 70
f 70 114 71
f 71 114 253
f 212 1 186
f 186 188 212
f 188 189 212
f 189 253 212
f 114 295 253
f 212 253 295