# https://github.com/mikedh/trimesh
v -0.07393225 0.01523657 0.01676382 0.38039216 0.78823529 0.52549020
v -0.02400498 0.01523284 0.01676382 0.38039216 0.78823529 0.52549020
v -0.07393225 0.01523657 -0.01676388 0.38039216 0.78823529 0.52549020
v -0.07451423 0.01523657 0.01735307 0.38039216 0.78823529 0.52549020
v -0.02400498 0.01522911 0.01682722 0.38039216 0.78823529 0.52549020
v -0.02400498 0.01523284 -0.01676388 0.38039216 0.78823529 0.52549020
v -0.07472587 0.01523657 0.01755446 0.38039216 0.78823529 0.52549020
v -0.07512267 0.01523657 0.01790503 0.38039216 0.78823529 0.52549020
v -0.07554594 0.01523657 0.01823322 0.38039216 0.78823529 0.52549020
v -0.07599565 0.01523657 0.01851293 0.38039216 0.78823529 0.52549020
v -0.07645419 0.01523657 0.01874042 0.38039216 0.78823529 0.52549020
v -0.07692154 0.01523657 0.01891198 0.38039216 0.78823529 0.52549020
v -0.07738889 0.01523657 0.01901267 0.38039216 0.78823529 0.52549020
v -0.07787388 0.01523657 0.01904997 0.38039216 0.78823529 0.52549020
v -0.07432024 0.01523657 -0.01715920 0.38039216 0.78823529 0.52549020
v -0.02400498 0.01520300 0.01712558 0.38039216 0.78823529 0.52549020
v -0.02400498 0.01520300 -0.01712564 0.38039216 0.78823529 0.52549020
v -0.07787388 0.01523657 -0.01905003 0.38039216 0.78823529 0.52549020
v -0.07738889 0.01523657 -0.01901274 0.38039216 0.78823529 0.52549020
v -0.07712435 0.01523657 -0.01895679 0.38039216 0.78823529 0.52549020
v -0.07692154 0.01523657 -0.01891204 0.38039216 0.78823529 0.52549020
v -0.07645419 0.01523657 -0.01874049 0.38039216 0.78823529 0.52549020
v -0.07624256 0.01523657 -0.01863606 0.38039216 0.78823529 0.52549020
v -0.07599565 0.01523657 -0.01851299 0.38039216 0.78823529 0.52549020
v -0.07554594 0.01523657 -0.01823328 0.38039216 0.78823529 0.52549020
v -0.07512267 0.01523657 -0.01790509 0.38039216 0.78823529 0.52549020
v -0.07471705 0.01523657 -0.01754333 0.38039216 0.78823529 0.52549020
v -0.09456627 0.01523657 0.01904997 0.38039216 0.78823529 0.52549020
v -0.02400498 0.01294658 0.01904997 0.38039216 0.78823529 0.52549020
v -0.02400498 0.01334565 0.01901267 0.38039216 0.78823529 0.52549020
v -0.02400498 0.01340533 0.01899776 0.38039216 0.78823529 0.52549020
v -0.02400498 0.01372980 0.01891198 0.38039216 0.78823529 0.52549020
v -0.02400498 0.01409158 0.01874042 0.38039216 0.78823529 0.52549020
v -0.02400498 0.01419973 0.01866584 0.38039216 0.78823529 0.52549020
v -0.02400498 0.01436384 0.01855022 0.38039216 0.78823529 0.52549020
v -0.02400498 0.01441605 0.01851293 0.38039216 0.78823529 0.52549020
v -0.02400498 0.01469950 0.01823322 0.38039216 0.78823529 0.52549020
v -0.02400498 0.01492701 0.01790503 0.38039216 0.78823529 0.52549020
v -0.02400498 0.01503890 0.01766634 0.38039216 0.78823529 0.52549020
v -0.02400498 0.01507992 0.01757684 0.38039216 0.78823529 0.52549020
v -0.02400498 0.01509484 0.01754327 0.38039216 0.78823529 0.52549020
v -0.02400498 0.01511349 0.01747987 0.38039216 0.78823529 0.52549020
v -0.02400498 0.01514705 0.01735680 0.38039216 0.78823529 0.52549020
v -0.02400498 0.01519927 0.01715914 0.38039216 0.78823529 0.52549020
v -0.02400498 0.01519927 -0.01715920 0.38039216 0.78823529 0.52549020
v -0.11106466 0.01523657 -0.01905003 0.38039216 0.78823529 0.52549020
v -0.02400498 0.01514705 -0.01735686 0.38039216 0.78823529 0.52549020
v -0.02400498 0.01511349 -0.01747993 0.38039216 0.78823529 0.52549020
v -0.02400498 0.01509484 -0.01754333 0.38039216 0.78823529 0.52549020
v -0.02400498 0.01492701 -0.01790509 0.38039216 0.78823529 0.52549020
v -0.02400498 0.01469950 -0.01823328 0.38039216 0.78823529 0.52549020
v -0.02400498 0.01441605 -0.01851299 0.38039216 0.78823529 0.52549020
v -0.02400498 0.01430789 -0.01859131 0.38039216 0.78823529 0.52549020
v -0.02400498 0.01409158 -0.01874049 0.38039216 0.78823529 0.52549020
v -0.02400498 0.01396850 -0.01880016 0.38039216 0.78823529 0.52549020
v -0.02400498 0.01372980 -0.01891204 0.38039216 0.78823529 0.52549020
v -0.02400498 0.01337922 -0.01900528 0.38039216 0.78823529 0.52549020
v -0.02400498 0.01334565 -0.01901274 0.38039216 0.78823529 0.52549020
v -0.02400498 0.01327852 -0.01902019 0.38039216 0.78823529 0.52549020
v -0.02400498 0.01298015 -0.01904630 0.38039216 0.78823529 0.52549020
v -0.03695856 0.01294658 -0.01905003 0.38039216 0.78823529 0.52549020
v -0.11108230 0.01523657 0.01904624 0.38039216 0.78823529 0.52549020
v -0.09363157 -0.00219937 0.01904997 0.38039216 0.78823529 0.52549020
v -0.02400498 -0.02057891 0.01904997 0.38039216 0.78823529 0.52549020
v -0.10281988 0.00699039 -0.01905003 0.38039216 0.78823529 0.52549020
v -0.10303150 0.00677780 -0.01902392 0.38039216 0.78823529 0.52549020
v -0.11159374 0.01523657 -0.01901646 0.38039216 0.78823529 0.52549020
v -0.02400498 -0.02057891 -0.01904630 0.38039216 0.78823529 0.52549020
v -0.03662348 0.00456614 -0.01905003 0.38039216 0.78823529 0.52549020
v -0.11159374 0.01523657 0.01901640 0.38039216 0.78823529 0.52549020
v -0.10303150 0.00677780 0.01902386 0.38039216 0.78823529 0.52549020
v -0.08444325 -0.01138541 0.01904997 0.38039216 0.78823529 0.52549020
v -0.03762872 -0.02087355 0.01902386 0.38039216 0.78823529 0.52549020
v -0.02400498 -0.02093695 0.01901640 0.38039216 0.78823529 0.52549020
v -0.07524613 -0.02057891 0.01904997 0.38039216 0.78823529 0.52549020
v -0.09363157 -0.00219937 -0.01905003 0.38039216 0.78823529 0.52549020
v -0.08444325 -0.01138541 -0.01905003 0.38039216 0.78823529 0.52549020
v -0.07524613 -0.02057891 -0.01905003 0.38039216 0.78823529 0.52549020
v -0.08464607 -0.01159800 -0.01902392 0.38039216 0.78823529 0.52549020
v -0.11163783 0.01523657 -0.01901274 0.38039216 0.78823529 0.52549020
v -0.07552830 -0.02085863 -0.01901274 0.38039216 0.78823529 0.52549020
v -0.09391374 -0.00248282 -0.01901274 0.38039216 0.78823529 0.52549020
v -0.02400498 -0.02091084 -0.01902019 0.38039216 0.78823529 0.52549020
v -0.03762872 -0.02057891 -0.01905003 0.38039216 0.78823529 0.52549020
v -0.11163783 0.01523657 0.01901267 0.38039216 0.78823529 0.52549020
v -0.09391374 -0.00248282 0.01901267 0.38039216 0.78823529 0.52549020
v -0.07552830 -0.02085863 0.01901267 0.38039216 0.78823529 0.52549020
v -0.08464607 -0.01159800 0.01902386 0.38039216 0.78823529 0.52549020
v -0.05644624 -0.02082506 0.01902759 0.38039216 0.78823529 0.52549020
v -0.07524613 -0.02097425 0.01901267 0.38039216 0.78823529 0.52549020
v -0.02400498 -0.02097425 0.01901267 0.38039216 0.78823529 0.52549020
v -0.07548421 -0.02089965 0.01901267 0.38039216 0.78823529 0.52549020
v -0.07543131 -0.02092949 0.01901267 0.38039216 0.78823529 0.52549020
v -0.07536958 -0.02095560 0.01901267 0.38039216 0.78823529 0.52549020
v -0.07530785 -0.02097052 0.01901267 0.38039216 0.78823529 0.52549020
v -0.07524613 -0.02097425 -0.01901274 0.38039216 0.78823529 0.52549020
v -0.07530785 -0.02097052 -0.01901274 0.38039216 0.78823529 0.52549020
v -0.07536958 -0.02095560 -0.01901274 0.38039216 0.78823529 0.52549020
v -0.07543131 -0.02092949 -0.01901274 0.38039216 0.78823529 0.52549020
v -0.07548421 -0.02089965 -0.01901274 0.38039216 0.78823529 0.52549020
v -0.03762872 -0.02087355 -0.01902392 0.38039216 0.78823529 0.52549020
v -0.05644624 -0.02082506 -0.01902765 0.38039216 0.78823529 0.52549020
v -0.11216691 0.01523657 -0.01891204 0.38039216 0.78823529 0.52549020
v -0.07580166 -0.02113089 -0.01891204 0.38039216 0.78823529 0.52549020
v -0.10337541 0.00643841 -0.01891204 0.38039216 0.78823529 0.52549020
v -0.02400498 -0.02097425 -0.01901274 0.38039216 0.78823529 0.52549020
v -0.11217572 0.01523657 0.01890825 0.38039216 0.78823529 0.52549020
v -0.10337541 0.00643841 0.01891198 0.38039216 0.78823529 0.52549020
v -0.07580166 -0.02113089 0.01891198 0.38039216 0.78823529 0.52549020
v -0.07524613 -0.02135840 0.01891198 0.38039216 0.78823529 0.52549020
v -0.05644624 -0.02102273 0.01900149 0.38039216 0.78823529 0.52549020
v -0.02400498 -0.02103392 0.01899776 0.38039216 0.78823529 0.52549020
v -0.07570466 -0.02120921 0.01891198 0.38039216 0.78823529 0.52549020
v -0.07560766 -0.02127261 0.01891198 0.38039216 0.78823529 0.52549020
v -0.07549303 -0.02132110 0.01891198 0.38039216 0.78823529 0.52549020
v -0.07536958 -0.02135094 0.01891198 0.38039216 0.78823529 0.52549020
v -0.07524613 -0.02135840 -0.01891204 0.38039216 0.78823529 0.52549020
v -0.02400498 -0.02100781 -0.01900528 0.38039216 0.78823529 0.52549020
v -0.05644624 -0.02102273 -0.01900155 0.38039216 0.78823529 0.52549020
v -0.07536958 -0.02135094 -0.01891204 0.38039216 0.78823529 0.52549020
v -0.07549303 -0.02132110 -0.01891204 0.38039216 0.78823529 0.52549020
v -0.07560766 -0.02127261 -0.01891204 0.38039216 0.78823529 0.52549020
v -0.07570466 -0.02120921 -0.01891204 0.38039216 0.78823529 0.52549020
v -0.11267835 0.01523657 -0.01874049 0.38039216 0.78823529 0.52549020
v -0.10363112 0.00618107 -0.01874049 0.38039216 0.78823529 0.52549020
v -0.07591629 -0.02150385 -0.01874049 0.38039216 0.78823529 0.52549020
v -0.07605738 -0.02138450 -0.01874049 0.38039216 0.78823529 0.52549020
v -0.08518396 -0.01213133 -0.01878524 0.38039216 0.78823529 0.52549020
v -0.11267835 0.01523657 0.01874042 0.38039216 0.78823529 0.52549020
v -0.10363112 0.00618107 0.01874042 0.38039216 0.78823529 0.52549020
v -0.08518396 -0.01213133 0.01878518 0.38039216 0.78823529 0.52549020
v -0.07605738 -0.02138450 0.01874042 0.38039216 0.78823529 0.52549020
v -0.07591629 -0.02150385 0.01874042 0.38039216 0.78823529 0.52549020
v -0.07524613 -0.02172017 0.01874042 0.38039216 0.78823529 0.52549020
v -0.05644624 -0.02149639 0.01884858 0.38039216 0.78823529 0.52549020
v -0.02400498 -0.02135840 0.01891198 0.38039216 0.78823529 0.52549020
v -0.02400498 -0.02110478 0.01897911 0.38039216 0.78823529 0.52549020
v -0.07576639 -0.02159709 0.01874042 0.38039216 0.78823529 0.52549020
v -0.07559885 -0.02166422 0.01874042 0.38039216 0.78823529 0.52549020
v -0.07543131 -0.02170525 0.01874042 0.38039216 0.78823529 0.52549020
v -0.07524613 -0.02172017 -0.01874049 0.38039216 0.78823529 0.52549020
v -0.02400498 -0.02135840 -0.01891204 0.38039216 0.78823529 0.52549020
v -0.05644624 -0.02149639 -0.01884864 0.38039216 0.78823529 0.52549020
v -0.07543131 -0.02170525 -0.01874049 0.38039216 0.78823529 0.52549020
v -0.07559885 -0.02166422 -0.01874049 0.38039216 0.78823529 0.52549020
v -0.07576639 -0.02159709 -0.01874049 0.38039216 0.78823529 0.52549020
v -0.11295170 0.01523657 -0.01860623 0.38039216 0.78823529 0.52549020
v -0.11304870 0.01513960 -0.01851299 0.38039216 0.78823529 0.52549020
v -0.08530742 -0.01225441 -0.01868454 0.38039216 0.78823529 0.52549020
v -0.09467209 -0.00323994 -0.01851299 0.38039216 0.78823529 0.52549020
v -0.07591629 -0.02188800 -0.01851299 0.38039216 0.78823529 0.52549020
v -0.07611028 -0.02176493 -0.01851299 0.38039216 0.78823529 0.52549020
v -0.07628665 -0.02161574 -0.01851299 0.38039216 0.78823529 0.52549020
v -0.11302225 0.01523657 0.01857260 0.38039216 0.78823529 0.52549020
v -0.11304870 0.01513960 0.01851293 0.38039216 0.78823529 0.52549020
v -0.09467209 -0.00323994 0.01851293 0.38039216 0.78823529 0.52549020
v -0.08530742 -0.01225441 0.01868448 0.38039216 0.78823529 0.52549020
v -0.07628665 -0.02161574 0.01851293 0.38039216 0.78823529 0.52549020
v -0.07591629 -0.02188800 0.01851293 0.38039216 0.78823529 0.52549020
v -0.07611028 -0.02176493 0.01851293 0.38039216 0.78823529 0.52549020
v -0.07524613 -0.02204838 0.01851293 0.38039216 0.78823529 0.52549020
v -0.05644624 -0.02176120 0.01871432 0.38039216 0.78823529 0.52549020
v -0.02400498 -0.02175001 0.01872178 0.38039216 0.78823529 0.52549020
v -0.02400498 -0.02172017 0.01874042 0.38039216 0.78823529 0.52549020
v -0.02400498 -0.02166422 0.01877026 0.38039216 0.78823529 0.52549020
v -0.07570466 -0.02197378 0.01851293 0.38039216 0.78823529 0.52549020
v -0.07547539 -0.02202973 0.01851293 0.38039216 0.78823529 0.52549020
v -0.07524613 -0.02204838 -0.01851299 0.38039216 0.78823529 0.52549020
v -0.05644624 -0.02167541 -0.01876286 0.38039216 0.78823529 0.52549020
v -0.02400498 -0.02172017 -0.01874049 0.38039216 0.78823529 0.52549020
v -0.05644624 -0.02176120 -0.01871438 0.38039216 0.78823529 0.52549020
v -0.02400498 -0.02159709 -0.01880016 0.38039216 0.78823529 0.52549020
v -0.03762872 -0.02163066 -0.01878524 0.38039216 0.78823529 0.52549020
v -0.07547539 -0.02202973 -0.01851299 0.38039216 0.78823529 0.52549020
v -0.07570466 -0.02197378 -0.01851299 0.38039216 0.78823529 0.52549020
v -0.11312807 0.01523657 -0.01851299 0.38039216 0.78823529 0.52549020
v -0.11325152 0.01494193 -0.01823328 0.38039216 0.78823529 0.52549020
v -0.11331325 0.01523657 -0.01837500 0.38039216 0.78823529 0.52549020
v -0.07648946 -0.02181714 -0.01823328 0.38039216 0.78823529 0.52549020
v -0.07579284 -0.02224232 -0.01823328 0.38039216 0.78823529 0.52549020
v -0.07603974 -0.02213789 -0.01823328 0.38039216 0.78823529 0.52549020
v -0.07627783 -0.02199243 -0.01823328 0.38039216 0.78823529 0.52549020
v -0.11312807 0.01523657 0.01851293 0.38039216 0.78823529 0.52549020
v -0.11331325 0.01523657 0.01837494 0.38039216 0.78823529 0.52549020
v -0.11325152 0.01494193 0.01823322 0.38039216 0.78823529 0.52549020
v -0.07648946 -0.02181714 0.01823322 0.38039216 0.78823529 0.52549020
v -0.07579284 -0.02224232 0.01823322 0.38039216 0.78823529 0.52549020
v -0.07627783 -0.02199243 0.01823322 0.38039216 0.78823529 0.52549020
v -0.07603974 -0.02213789 0.01823322 0.38039216 0.78823529 0.52549020
v -0.07524613 -0.02232810 0.01823322 0.38039216 0.78823529 0.52549020
v -0.02400498 -0.02204838 0.01851293 0.38039216 0.78823529 0.52549020
v -0.02400498 -0.02201854 0.01853530 0.38039216 0.78823529 0.52549020
v -0.05644624 -0.02200735 0.01854276 0.38039216 0.78823529 0.52549020
v -0.02400498 -0.02183206 0.01866584 0.38039216 0.78823529 0.52549020
v -0.02400498 -0.02177239 0.01870686 0.38039216 0.78823529 0.52549020
v -0.07551948 -0.02230572 0.01823322 0.38039216 0.78823529 0.52549020
v -0.07524613 -0.02232810 -0.01823328 0.38039216 0.78823529 0.52549020
v -0.05644624 -0.02200735 -0.01854283 0.38039216 0.78823529 0.52549020
v -0.02400498 -0.02201854 -0.01853537 0.38039216 0.78823529 0.52549020
v -0.02400498 -0.02204838 -0.01851299 0.38039216 0.78823529 0.52549020
v -0.02400498 -0.02177239 -0.01870692 0.38039216 0.78823529 0.52549020
v -0.02400498 -0.02183206 -0.01866590 0.38039216 0.78823529 0.52549020
v -0.07551948 -0.02230572 -0.01823328 0.38039216 0.78823529 0.52549020
v -0.10422193 0.00558806 -0.01790509 0.38039216 0.78823529 0.52549020
v -0.11341024 0.01478155 -0.01790509 0.38039216 0.78823529 0.52549020
v -0.11361305 0.01501652 -0.01790509 0.38039216 0.78823529 0.52549020
v -0.11342788 0.01515078 -0.01823328 0.38039216 0.78823529 0.52549020
v -0.11348079 0.01523657 -0.01823328 0.38039216 0.78823529 0.52549020
v -0.07641010 -0.02217891 -0.01790509 0.38039216 0.78823529 0.52549020
v -0.07664818 -0.02197751 -0.01790509 0.38039216 0.78823529 0.52549020
v -0.07586338 -0.02245863 -0.01790509 0.38039216 0.78823529 0.52549020
v -0.07614555 -0.02234302 -0.01790509 0.38039216 0.78823529 0.52549020
v -0.07555475 -0.02253323 -0.01790509 0.38039216 0.78823529 0.52549020
v -0.11348079 0.01523657 0.01823322 0.38039216 0.78823529 0.52549020
v -0.11342788 0.01515078 0.01823322 0.38039216 0.78823529 0.52549020
v -0.11361305 0.01501652 0.01790503 0.38039216 0.78823529 0.52549020
v -0.11341024 0.01478155 0.01790503 0.38039216 0.78823529 0.52549020
v -0.10422193 0.00558806 0.01790503 0.38039216 0.78823529 0.52549020
v -0.07664818 -0.02197751 0.01790503 0.38039216 0.78823529 0.52549020
v -0.07641010 -0.02217891 0.01790503 0.38039216 0.78823529 0.52549020
v -0.07614555 -0.02234302 0.01790503 0.38039216 0.78823529 0.52549020
v -0.07586338 -0.02245863 0.01790503 0.38039216 0.78823529 0.52549020
v -0.07555475 -0.02253323 0.01790503 0.38039216 0.78823529 0.52549020
v -0.07524613 -0.02255560 0.01790503 0.38039216 0.78823529 0.52549020
v -0.05644624 -0.02252950 0.01794605 0.38039216 0.78823529 0.52549020
v -0.05644624 -0.02235793 0.01819220 0.38039216 0.78823529 0.52549020
v -0.02400498 -0.02232810 0.01823322 0.38039216 0.78823529 0.52549020
v -0.07524613 -0.02255560 -0.01790509 0.38039216 0.78823529 0.52549020
v -0.02400498 -0.02232810 -0.01823328 0.38039216 0.78823529 0.52549020
v -0.02400498 -0.02235047 -0.01820345 0.38039216 0.78823529 0.52549020
v -0.05644624 -0.02235793 -0.01819226 0.38039216 0.78823529 0.52549020
v -0.05644624 -0.02252950 -0.01794611 0.38039216 0.78823529 0.52549020
v -0.08587176 -0.01281758 -0.01781558 0.38039216 0.78823529 0.52549020
v -0.07677163 -0.02209686 -0.01754333 0.38039216 0.78823529 0.52549020
v -0.09514826 -0.00372106 -0.01754333 0.38039216 0.78823529 0.52549020
v -0.11352487 0.01466221 -0.01754333 0.38039216 0.78823529 0.52549020
v -0.11374532 0.01491582 -0.01754333 0.38039216 0.78823529 0.52549020
v -0.11386878 0.01523657 -0.01768505 0.38039216 0.78823529 0.52549020
v -0.11374532 0.01523657 -0.01790509 0.38039216 0.78823529 0.52549020
v -0.07650710 -0.02231691 -0.01754333 0.38039216 0.78823529 0.52549020
v -0.07622492 -0.02249220 -0.01754333 0.38039216 0.78823529 0.52549020
v -0.07591629 -0.02261901 -0.01754333 0.38039216 0.78823529 0.52549020
v -0.07524613 -0.02272717 -0.01754333 0.38039216 0.78823529 0.52549020
v -0.07558121 -0.02269733 -0.01754333 0.38039216 0.78823529 0.52549020
v -0.11374532 0.01523657 0.01790503 0.38039216 0.78823529 0.52549020
v -0.11377178 0.01523657 0.01786028 0.38039216 0.78823529 0.52549020
v -0.11386878 0.01523657 0.01768499 0.38039216 0.78823529 0.52549020
v -0.11374532 0.01491582 0.01754327 0.38039216 0.78823529 0.52549020
v -0.11352487 0.01466221 0.01754327 0.38039216 0.78823529 0.52549020
v -0.09514826 -0.00372106 0.01754327 0.38039216 0.78823529 0.52549020
v -0.07677163 -0.02209686 0.01754327 0.38039216 0.78823529 0.52549020
v -0.08587176 -0.01281758 0.01781552 0.38039216 0.78823529 0.52549020
v -0.07650710 -0.02231691 0.01754327 0.38039216 0.78823529 0.52549020
v -0.07622492 -0.02249220 0.01754327 0.38039216 0.78823529 0.52549020
v -0.07591629 -0.02261901 0.01754327 0.38039216 0.78823529 0.52549020
v -0.07558121 -0.02269733 0.01754327 0.38039216 0.78823529 0.52549020
v -0.07524613 -0.02272717 0.01754327 0.38039216 0.78823529 0.52549020
v -0.02400498 -0.02258544 0.01784909 0.38039216 0.78823529 0.52549020
v -0.02400498 -0.02255560 0.01790503 0.38039216 0.78823529 0.52549020
v -0.02400498 -0.02252204 0.01795724 0.38039216 0.78823529 0.52549020
v -0.02400498 -0.02255560 -0.01790509 0.38039216 0.78823529 0.52549020
v -0.05644624 -0.02257798 -0.01786034 0.38039216 0.78823529 0.52549020
v -0.07656882 -0.02239896 -0.01715920 0.38039216 0.78823529 0.52549020
v -0.07684218 -0.02216772 -0.01715920 0.38039216 0.78823529 0.52549020
v -0.11360423 0.01458761 -0.01715920 0.38039216 0.78823529 0.52549020
v -0.11383350 0.01485615 -0.01715920 0.38039216 0.78823529 0.52549020
v -0.11392168 0.01520300 -0.01754333 0.38039216 0.78823529 0.52549020
v -0.11393932 0.01523657 -0.01754333 0.38039216 0.78823529 0.52549020
v -0.07594274 -0.02271971 -0.01715920 0.38039216 0.78823529 0.52549020
v -0.07626901 -0.02258171 -0.01715920 0.38039216 0.78823529 0.52549020
v -0.07559885 -0.02280176 -0.01715920 0.38039216 0.78823529 0.52549020
v -0.07524613 -0.02282786 -0.01715920 0.38039216 0.78823529 0.52549020
v -0.03762872 -0.02260036 -0.01781558 0.38039216 0.78823529 0.52549020
v -0.02400498 -0.02272717 -0.01754333 0.38039216 0.78823529 0.52549020
v -0.05644624 -0.02281668 -0.01720769 0.38039216 0.78823529 0.52549020
v -0.11393932 0.01523657 0.01754327 0.38039216 0.78823529 0.52549020
v -0.11392168 0.01520300 0.01754327 0.38039216 0.78823529 0.52549020
v -0.11360423 0.01458761 0.01715914 0.38039216 0.78823529 0.52549020
v -0.11383350 0.01485615 0.01715914 0.38039216 0.78823529 0.52549020
v -0.07684218 -0.02216772 0.01715914 0.38039216 0.78823529 0.52549020
v -0.07656882 -0.02239896 0.01715914 0.38039216 0.78823529 0.52549020
v -0.07626901 -0.02258171 0.01715914 0.38039216 0.78823529 0.52549020
v -0.07594274 -0.02271971 0.01715914 0.38039216 0.78823529 0.52549020
v -0.07559885 -0.02280176 0.01715914 0.38039216 0.78823529 0.52549020
v -0.07524613 -0.02282786 0.01715914 0.38039216 0.78823529 0.52549020
v -0.05644624 -0.02281668 0.01720762 0.38039216 0.78823529 0.52549020
v -0.02400498 -0.02272717 0.01754327 0.38039216 0.78823529 0.52549020
v -0.02400498 -0.02264511 -0.01771862 0.38039216 0.78823529 0.52549020
v -0.07659527 -0.02242507 -0.01676388 0.38039216 0.78823529 0.52549020
v -0.07628665 -0.02261528 -0.01676388 0.38039216 0.78823529 0.52549020
v -0.07686863 -0.02219383 -0.01676388 0.38039216 0.78823529 0.52549020
v -0.10443356 0.00537920 -0.01686085 0.38039216 0.78823529 0.52549020
v -0.11362187 0.01456524 -0.01676388 0.38039216 0.78823529 0.52549020
v -0.11385996 0.01483750 -0.01676388 0.38039216 0.78823529 0.52549020
v -0.11401868 0.01515824 -0.01715920 0.38039216 0.78823529 0.52549020
v -0.11404513 0.01523657 -0.01715920 0.38039216 0.78823529 0.52549020
v -0.07595156 -0.02275327 -0.01676388 0.38039216 0.78823529 0.52549020
v -0.07524613 -0.02286516 -0.01676388 0.38039216 0.78823529 0.52549020
v -0.07560766 -0.02283532 -0.01676388 0.38039216 0.78823529 0.52549020
v -0.02400498 -0.02282786 -0.01715920 0.38039216 0.78823529 0.52549020
v -0.02400498 -0.02283532 -0.01709580 0.38039216 0.78823529 0.52549020
v -0.03762872 -0.02283905 -0.01705851 0.38039216 0.78823529 0.52549020
v -0.05644624 -0.02284278 -0.01701002 0.38039216 0.78823529 0.52549020
v -0.02400498 -0.02281295 -0.01721887 0.38039216 0.78823529 0.52549020
v -0.11402750 0.01523657 0.01724119 0.38039216 0.78823529 0.52549020
v -0.11401868 0.01515824 0.01715914 0.38039216 0.78823529 0.52549020
v -0.11385996 0.01483750 0.01676382 0.38039216 0.78823529 0.52549020
v -0.11362187 0.01456524 0.01676382 0.38039216 0.78823529 0.52549020
v -0.10443356 0.00537920 0.01686079 0.38039216 0.78823529 0.52549020
v -0.07686863 -0.02219383 0.01676382 0.38039216 0.78823529 0.52549020
v -0.07659527 -0.02242507 0.01676382 0.38039216 0.78823529 0.52549020
v -0.07628665 -0.02261528 0.01676382 0.38039216 0.78823529 0.52549020
v -0.07595156 -0.02275327 0.01676382 0.38039216 0.78823529 0.52549020
v -0.07560766 -0.02283532 0.01676382 0.38039216 0.78823529 0.52549020
v -0.07524613 -0.02286516 0.01676382 0.38039216 0.78823529 0.52549020
v -0.03762872 -0.02283905 0.01705845 0.38039216 0.78823529 0.52549020
v -0.02400498 -0.02283532 0.01709574 0.38039216 0.78823529 0.52549020
v -0.02400498 -0.02282786 0.01715914 0.38039216 0.78823529 0.52549020
v -0.02400498 -0.02279430 0.01728967 0.38039216 0.78823529 0.52549020
v -0.02400498 -0.02277565 0.01736053 0.38039216 0.78823529 0.52549020
v -0.10443356 0.00537174 -0.01676388 0.38039216 0.78823529 0.52549020
v -0.11374532 0.01469950 -0.00000003 0.38039216 0.78823529 0.52549020
v -0.11395695 0.01499041 -0.00000003 0.38039216 0.78823529 0.52549020
v -0.11404513 0.01514333 -0.01676388 0.38039216 0.78823529 0.52549020
v -0.11408041 0.01523657 -0.01676388 0.38039216 0.78823529 0.52549020
v -0.11405395 0.01523657 -0.01706224 0.38039216 0.78823529 0.52549020
v -0.07578402 -0.02279430 -0.00000003 0.38039216 0.78823529 0.52549020
v -0.07543131 -0.02285024 -0.00000003 0.38039216 0.78823529 0.52549020
v -0.02400498 -0.02286516 -0.01676388 0.38039216 0.78823529 0.52549020
v -0.11404513 0.01523657 0.01715914 0.38039216 0.78823529 0.52549020
v -0.11407159 0.01523657 0.01686824 0.38039216 0.78823529 0.52549020
v -0.11408041 0.01523657 0.01676382 0.38039216 0.78823529 0.52549020
v -0.11404513 0.01514333 0.01676382 0.38039216 0.78823529 0.52549020
v -0.10443356 0.00537174 0.01676382 0.38039216 0.78823529 0.52549020
v -0.02400498 -0.02286516 0.01676382 0.38039216 0.78823529 0.52549020
f 1 2 6
f 1 6 3
f 1 3 15
f 1 15 27
f 1 27 26
f 1 26 25
f 1 25 24
f 1 24 23
f 1 23 22
f 1 22 21
f 1 21 20
f 1 20 19
f 1 19 18
f 1 18 46
f 1 46 67
f 1 67 80
f 1 80 103
f 1 103 124
f 1 124 147
f 1 147 176
f 1 176 178
f 1 178 208
f 1 208 239
f 1 239 238
f 1 238 268
f 1 268 296
f 1 296 326
f 1 326 325
f 1 325 332
f 1 332 331
f 1 331 330
f 1 330 305
f 1 305 276
f 1 276 247
f 1 247 246
f 1 246 245
f 1 245 214
f 1 214 184
f 1 184 183
f 1 183 154
f 1 154 129
f 1 129 107
f 1 107 85
f 1 85 70
f 1 70 62
f 1 62 28
f 1 28 14
f 1 14 13
f 1 13 12
f 1 12 11
f 1 11 10
f 1 10 9
f 1 9 8
f 1 8 7
f 1 7 4
f 1 4 2
f 2 5 16
f 2 16 44
f 2 44 43
f 2 43 42
f 2 42 41
f 2 41 40
f 2 40 39
f 2 39 38
f 2 38 37
f 2 37 36
f 2 36 35
f 2 35 34
f 2 34 33
f 2 33 32
f 2 32 31
f 2 31 30
f 2 30 29
f 2 29 64
f 2 64 74
f 2 74 91
f 2 91 112
f 2 112 137
f 2 137 136
f 2 136 165
f 2 165 164
f 2 164 163
f 2 163 195
f 2 195 194
f 2 194 192
f 2 192 191
f 2 191 227
f 2 227 260
f 2 260 259
f 2 259 258
f 2 258 287
f 2 287 320
f 2 320 319
f 2 319 318
f 2 318 317
f 2 317 335
f 2 335 329
f 2 329 301
f 2 301 300
f 2 300 304
f 2 304 274
f 2 274 288
f 2 288 261
f 2 261 230
f 2 230 229
f 2 229 200
f 2 200 199
f 2 199 202
f 2 202 201
f 2 201 170
f 2 170 172
f 2 172 142
f 2 142 118
f 2 118 106
f 2 106 83
f 2 83 68
f 2 68 60
f 2 60 59
f 2 59 58
f 2 58 57
f 2 57 56
f 2 56 55
f 2 55 54
f 2 54 53
f 2 53 52
f 2 52 51
f 2 51 50
f 2 50 49
f 2 49 48
f 2 48 47
f 2 47 45
f 2 45 17
f 2 17 6
f 2 4 7
f 2 7 8
f 2 8 9
f 2 9 10
f 2 10 11
f 2 11 12
f 2 12 13
f 2 13 14
f 2 14 5
f 3 6 15
f 5 14 16
f 6 17 18
f 6 18 19
f 6 19 20
f 6 20 21
f 6 21 22
f 6 22 23
f 6 23 24
f 6 24 25
f 6 25 26
f 6 26 27
f 6 27 15
f 14 28 63
f 14 63 72
f 14 72 75
f 14 75 64
f 14 64 29
f 14 29 30
f 14 30 31
f 14 31 32
f 14 32 33
f 14 33 34
f 14 34 35
f 14 35 36
f 14 36 37
f 14 37 38
f 14 38 39
f 14 39 40
f 14 40 41
f 14 41 42
f 14 42 43
f 14 43 44
f 14 44 16
f 17 45 18
f 18 45 47
f 18 47 48
f 18 48 49
f 18 49 50
f 18 50 51
f 18 51 52
f 18 52 53
f 18 53 54
f 18 54 55
f 18 55 56
f 18 56 57
f 18 57 58
f 18 58 59
f 18 59 60
f 18 60 61
f 18 61 69
f 18 69 84
f 18 84 78
f 18 78 77
f 18 77 76
f 18 76 65
f 18 65 46
f 28 62 63
f 46 65 66
f 46 66 67
f 60 68 69
f 60 69 61
f 62 70 71
f 62 71 63
f 63 71 72
f 64 73 74
f 64 75 73
f 65 76 66
f 66 76 77
f 66 77 78
f 66 78 79
f 66 79 67
f 67 79 81
f 67 81 82
f 67 82 80
f 68 83 84
f 68 84 69
f 70 85 86
f 70 86 87
f 70 87 88
f 70 88 71
f 71 88 75
f 71 75 72
f 73 89 90
f 73 90 91
f 73 91 74
f 73 75 89
f 75 88 87
f 75 87 92
f 75 92 93
f 75 93 94
f 75 94 95
f 75 95 90
f 75 90 89
f 78 96 97
f 78 97 98
f 78 98 99
f 78 99 100
f 78 100 81
f 78 81 79
f 78 84 101
f 78 101 102
f 78 102 96
f 80 82 104
f 80 104 105
f 80 105 103
f 81 100 104
f 81 104 82
f 83 101 84
f 83 106 96
f 83 96 101
f 85 107 108
f 85 108 109
f 85 109 86
f 86 109 87
f 87 109 92
f 90 95 116
f 90 116 110
f 90 110 111
f 90 111 91
f 91 111 112
f 92 109 113
f 92 113 114
f 92 114 93
f 93 114 115
f 93 115 94
f 94 115 116
f 94 116 95
f 96 117 120
f 96 120 97
f 96 102 101
f 96 106 118
f 96 118 119
f 96 119 117
f 97 120 121
f 97 121 98
f 98 121 122
f 98 122 99
f 99 122 100
f 100 122 123
f 100 123 104
f 103 105 125
f 103 125 124
f 104 123 126
f 104 126 127
f 104 127 128
f 104 128 105
f 105 128 125
f 107 129 108
f 108 129 130
f 108 130 131
f 108 131 109
f 109 132 133
f 109 133 113
f 109 131 132
f 110 116 134
f 110 134 135
f 110 135 136
f 110 136 111
f 111 136 137
f 111 137 112
f 113 133 114
f 114 133 138
f 114 138 115
f 115 138 139
f 115 139 140
f 115 140 116
f 116 140 134
f 117 141 120
f 117 119 142
f 117 142 143
f 117 143 141
f 118 142 119
f 120 144 121
f 120 141 144
f 121 145 146
f 121 146 122
f 121 144 145
f 122 146 126
f 122 126 123
f 124 125 148
f 124 148 147
f 125 149 150
f 125 150 148
f 125 128 127
f 125 127 149
f 126 146 151
f 126 151 152
f 126 152 153
f 126 153 127
f 127 153 149
f 129 154 155
f 129 155 130
f 130 155 156
f 130 156 157
f 130 157 132
f 130 132 131
f 132 158 160
f 132 160 133
f 132 157 158
f 133 159 138
f 133 160 159
f 134 140 161
f 134 161 162
f 134 162 163
f 134 163 164
f 134 164 165
f 134 165 135
f 135 165 136
f 138 159 166
f 138 166 139
f 139 166 140
f 140 166 167
f 140 167 161
f 141 168 144
f 141 143 169
f 141 169 173
f 141 173 170
f 141 170 171
f 141 171 168
f 142 172 173
f 142 173 143
f 143 173 169
f 144 174 175
f 144 175 145
f 144 168 174
f 145 175 146
f 146 175 151
f 147 148 176
f 148 177 178
f 148 178 176
f 148 150 177
f 149 153 150
f 150 153 179
f 150 179 177
f 151 175 180
f 151 180 181
f 151 181 182
f 151 182 152
f 152 182 179
f 152 179 153
f 154 183 155
f 155 183 184
f 155 184 185
f 155 185 156
f 156 185 186
f 156 186 158
f 156 158 157
f 158 186 160
f 159 187 166
f 159 160 188
f 159 188 189
f 159 189 187
f 160 186 188
f 161 167 190
f 161 190 227
f 161 227 191
f 161 191 192
f 161 192 193
f 161 193 162
f 162 193 194
f 162 194 195
f 162 195 163
f 166 187 167
f 167 187 196
f 167 196 190
f 168 197 174
f 168 171 198
f 168 198 199
f 168 199 200
f 168 200 229
f 168 229 197
f 170 173 172
f 170 201 171
f 171 201 202
f 171 202 198
f 174 203 180
f 174 180 175
f 174 197 203
f 177 204 205
f 177 205 206
f 177 206 207
f 177 207 178
f 177 179 204
f 178 207 208
f 179 182 209
f 179 209 210
f 179 210 204
f 180 211 212
f 180 212 181
f 180 203 213
f 180 213 211
f 181 212 182
f 182 212 209
f 184 214 215
f 184 215 185
f 185 215 216
f 185 216 217
f 185 217 218
f 185 218 186
f 186 219 220
f 186 220 188
f 186 218 219
f 187 189 221
f 187 221 222
f 187 222 223
f 187 223 196
f 188 221 189
f 188 220 221
f 190 196 223
f 190 223 224
f 190 224 225
f 190 225 226
f 190 226 227
f 192 194 193
f 197 228 213
f 197 213 203
f 197 229 230
f 197 230 231
f 197 231 232
f 197 232 228
f 198 202 199
f 204 233 234
f 204 234 235
f 204 235 236
f 204 236 205
f 204 210 233
f 205 236 237
f 205 237 206
f 206 237 238
f 206 238 239
f 206 239 208
f 206 208 207
f 209 240 234
f 209 234 210
f 209 212 241
f 209 241 240
f 210 234 233
f 211 242 212
f 211 213 242
f 212 242 241
f 213 228 243
f 213 243 244
f 213 244 242
f 214 245 216
f 214 216 215
f 216 245 246
f 216 246 247
f 216 247 248
f 216 248 217
f 217 248 249
f 217 249 218
f 218 249 250
f 218 250 251
f 218 251 252
f 218 252 219
f 219 251 220
f 219 252 251
f 220 251 253
f 220 253 254
f 220 254 221
f 221 254 255
f 221 255 222
f 222 255 223
f 223 256 257
f 223 257 224
f 223 255 256
f 224 257 258
f 224 258 259
f 224 259 225
f 225 259 260
f 225 260 226
f 226 260 227
f 228 232 261
f 228 261 273
f 228 273 262
f 228 262 243
f 230 261 232
f 230 232 231
f 234 240 263
f 234 263 264
f 234 264 265
f 234 265 235
f 235 265 236
f 236 265 237
f 237 265 266
f 237 266 267
f 237 267 238
f 238 267 268
f 240 241 263
f 241 242 269
f 241 269 270
f 241 270 263
f 242 244 271
f 242 271 269
f 243 272 271
f 243 271 244
f 243 262 273
f 243 273 274
f 243 274 275
f 243 275 272
f 247 276 277
f 247 277 248
f 248 278 249
f 248 277 279
f 248 279 278
f 249 278 250
f 250 278 251
f 251 280 281
f 251 281 253
f 251 278 280
f 253 281 254
f 254 282 283
f 254 283 255
f 254 281 282
f 255 283 284
f 255 284 256
f 256 284 257
f 257 284 285
f 257 285 286
f 257 286 287
f 257 287 258
f 261 288 273
f 263 289 291
f 263 291 264
f 263 270 290
f 263 290 289
f 264 291 265
f 265 292 293
f 265 293 294
f 265 294 266
f 265 291 292
f 266 294 295
f 266 295 267
f 267 295 268
f 268 295 296
f 269 297 290
f 269 290 270
f 269 271 299
f 269 299 297
f 271 272 298
f 271 298 299
f 272 275 300
f 272 300 301
f 272 301 302
f 272 302 303
f 272 303 298
f 273 288 274
f 274 304 275
f 275 304 300
f 276 305 306
f 276 306 277
f 277 306 279
f 278 279 307
f 278 307 308
f 278 308 309
f 278 309 310
f 278 310 280
f 279 306 307
f 280 310 311
f 280 311 281
f 281 311 312
f 281 312 282
f 282 312 283
f 283 312 313
f 283 313 314
f 283 314 284
f 284 314 315
f 284 315 285
f 285 315 316
f 285 316 317
f 285 317 318
f 285 318 286
f 286 318 319
f 286 319 320
f 286 320 287
f 289 311 310
f 289 310 291
f 289 290 312
f 289 312 311
f 290 297 313
f 290 313 312
f 291 310 334
f 291 334 321
f 291 321 292
f 292 321 293
f 293 308 322
f 293 322 294
f 293 321 334
f 293 334 308
f 294 322 307
f 294 307 323
f 294 323 324
f 294 324 295
f 295 324 325
f 295 325 326
f 295 326 296
f 297 299 327
f 297 327 313
f 298 315 328
f 298 328 299
f 298 303 302
f 298 302 329
f 298 329 335
f 298 335 315
f 299 328 314
f 299 314 327
f 301 329 302
f 305 330 306
f 306 330 331
f 306 331 332
f 306 332 333
f 306 333 307
f 307 322 308
f 307 333 323
f 308 334 309
f 309 334 310
f 313 327 314
f 314 328 315
f 315 335 316
f 316 335 317
f 323 333 324
f 324 333 332
f 324 332 325