# https://github.com/mikedh/trimesh
v -0.00336216 -0.00781280 -0.00106449
v -0.00382243 -0.00781280 0.00860147
v -0.03177067 -0.00826375 -0.00106449
v -0.03177067 -0.00822085 -0.00012590
v -0.03177067 -0.00782377 0.00860147
v -0.00340497 -0.00781280 -0.00017226
v -0.00344779 -0.00781280 0.00072565
v -0.03177067 -0.01800398 -0.00106449
v -0.03177067 -0.01800398 0.00860147
v -0.01413042 -0.01800398 -0.00106449
v -0.01413042 -0.01800398 0.00860147
v 0.07242455 -0.00781280 0.00802681
v 0.07242455 -0.00781280 0.00796967
v 0.07242455 -0.00781280 0.00808426
v 0.07242455 -0.00781280 0.00802681
v 0.07242455 -0.00781280 0.00858552
v 0.07242455 -0.00781280 0.00808426
v 0.07242455 -0.00829343 -0.00106449
v 0.07242455 -0.00838588 -0.00106449
v 0.07242455 -0.00783407 -0.00106449
v 0.07242455 -0.00829343 -0.00106449
v 0.07242455 -0.00781280 -0.00106449
v 0.07242455 -0.00783407 -0.00106449
v 0.07242455 -0.00781330 0.00860147
v 0.07242455 -0.00781280 0.00860147
v 0.07242455 -0.00827820 0.00860147
v 0.07242455 -0.00781330 0.00860147
v 0.07242455 -0.00836788 0.00860147
v 0.07242455 -0.00827820 0.00860147
v 0.07242455 -0.01800302 0.00830844
v 0.07242455 -0.01800302 0.00860147
v 0.07242455 -0.00781280 0.00796967
v 0.07242455 -0.00781280 -0.00106449
v 0.07242455 -0.00781280 0.00860147
v 0.07242455 -0.00781280 0.00858552
v 0.07242455 -0.00838588 -0.00106449
v 0.07242455 -0.01800302 -0.00106449
v 0.07242455 -0.01800302 0.00860147
v 0.07242455 -0.00836788 0.00860147
v 0.07242455 -0.01800302 -0.00106449
v 0.07242455 -0.01800302 0.00830844
f 3 4 1
f 1 4 5
f 7 5 2
f 6 1 5
f 5 7 6
f 22 25 40
f 40 25 31
f 9 4 3
f 3 8 9
f 5 4 9
f 10 8 3
f 3 1 10
f 22 40 10
f 10 1 22
f 11 25 2
f 2 5 11
f 31 25 11
f 5 9 11
f 11 40 31
f 11 10 40
f 11 9 8
f 8 10 11
f 6 25 22
f 2 25 6
f 22 1 6
f 6 7 2

