# https://github.com/mikedh/trimesh
v 0.07792749 0.01534275 -0.01904997 0.43529412 0.89019608 0.96078431
v 0.07746875 0.01534275 -0.01901267 0.43529412 0.89019608 0.96078431
v 0.07848731 0.02056869 -0.01904997 0.43529412 0.89019608 0.96078431
v 0.11117436 0.01534275 -0.01904997 0.43529412 0.89019608 0.96078431
v 0.07809077 0.02056869 -0.01901267 0.43529412 0.89019608 0.96078431
v 0.07699835 0.01534275 -0.01891198 0.43529412 0.89019608 0.96078431
v 0.07809855 0.02096577 -0.01897911 0.43529412 0.89019608 0.96078431
v 0.07848731 0.02096577 -0.01901267 0.43529412 0.89019608 0.96078431
v 0.11201020 0.02056869 -0.01904997 0.43529412 0.89019608 0.96078431
v 0.11201020 0.01618176 -0.01904997 0.43529412 0.89019608 0.96078431
v 0.11170696 0.01534275 -0.01901640 0.43529412 0.89019608 0.96078431
v 0.07770590 0.02056869 -0.01891198 0.43529412 0.89019608 0.96078431
v 0.07655905 0.01534275 -0.01874042 0.43529412 0.89019608 0.96078431
v 0.07811410 0.02135034 -0.01887841 0.43529412 0.89019608 0.96078431
v 0.07848731 0.02135034 -0.01891198 0.43529412 0.89019608 0.96078431
v 0.07771756 0.02096577 -0.01887841 0.43529412 0.89019608 0.96078431
v 0.11201020 0.02096577 -0.01901267 0.43529412 0.89019608 0.96078431
v 0.11241062 0.02095915 -0.01897911 0.43529412 0.89019608 0.96078431
v 0.11241062 0.02056869 -0.01901267 0.43529412 0.89019608 0.96078431
v 0.11241062 0.01618176 -0.01901267 0.43529412 0.89019608 0.96078431
v 0.11240285 0.01611999 -0.01901267 0.43529412 0.89019608 0.96078431
v 0.11239119 0.01605969 -0.01901267 0.43529412 0.89019608 0.96078431
v 0.11236397 0.01600160 -0.01901267 0.43529412 0.89019608 0.96078431
v 0.11233287 0.01594866 -0.01901267 0.43529412 0.89019608 0.96078431
v 0.11229400 0.01590160 -0.01901267 0.43529412 0.89019608 0.96078431
v 0.11174195 0.01534275 -0.01901267 0.43529412 0.89019608 0.96078431
v 0.07734435 0.02056869 -0.01874042 0.43529412 0.89019608 0.96078431
v 0.07736379 0.02096577 -0.01871059 0.43529412 0.89019608 0.96078431
v 0.07654350 0.01534275 -0.01873297 0.43529412 0.89019608 0.96078431
v 0.07814520 0.02171138 -0.01871059 0.43529412 0.89019608 0.96078431
v 0.07775255 0.02135034 -0.01878145 0.43529412 0.89019608 0.96078431
v 0.07781086 0.02171138 -0.01862108 0.43529412 0.89019608 0.96078431
v 0.07848731 0.02171138 -0.01874042 0.43529412 0.89019608 0.96078431
v 0.09524681 0.02153123 -0.01882620 0.43529412 0.89019608 0.96078431
v 0.11201020 0.02135034 -0.01891198 0.43529412 0.89019608 0.96078431
v 0.07741432 0.02135034 -0.01862108 0.43529412 0.89019608 0.96078431
v 0.11241062 0.02133857 -0.01887841 0.43529412 0.89019608 0.96078431
v 0.11279550 0.02094150 -0.01887841 0.43529412 0.89019608 0.96078431
v 0.11279550 0.02056869 -0.01891198 0.43529412 0.89019608 0.96078431
v 0.11279550 0.01618176 -0.01891198 0.43529412 0.89019608 0.96078431
v 0.11278384 0.01605969 -0.01891198 0.43529412 0.89019608 0.96078431
v 0.11275662 0.01594057 -0.01891198 0.43529412 0.89019608 0.96078431
v 0.11270997 0.01582733 -0.01891198 0.43529412 0.89019608 0.96078431
v 0.11264388 0.01572218 -0.01891198 0.43529412 0.89019608 0.96078431
v 0.11256613 0.01562953 -0.01891198 0.43529412 0.89019608 0.96078431
v 0.11227456 0.01534275 -0.01891198 0.43529412 0.89019608 0.96078431
v 0.07610809 0.01534275 -0.01851293 0.43529412 0.89019608 0.96078431
v 0.07570378 0.01534275 -0.01823322 0.43529412 0.89019608 0.96078431
v 0.07704112 0.02096577 -0.01848682 0.43529412 0.89019608 0.96078431
v 0.07710720 0.02135034 -0.01840850 0.43529412 0.89019608 0.96078431
v 0.07818408 0.02203787 -0.01848682 0.43529412 0.89019608 0.96078431
v 0.07788862 0.02203787 -0.01840850 0.43529412 0.89019608 0.96078431
v 0.07749985 0.02171138 -0.01847563 0.43529412 0.89019608 0.96078431
v 0.07848731 0.02203787 -0.01851293 0.43529412 0.89019608 0.96078431
v 0.09524681 0.02187463 -0.01862854 0.43529412 0.89019608 0.96078431
v 0.11201020 0.02171138 -0.01874042 0.43529412 0.89019608 0.96078431
v 0.11241062 0.02169447 -0.01871059 0.43529412 0.89019608 0.96078431
v 0.11279550 0.02130328 -0.01878145 0.43529412 0.89019608 0.96078431
v 0.11315316 0.02091209 -0.01871059 0.43529412 0.89019608 0.96078431
v 0.11315316 0.02056869 -0.01874042 0.43529412 0.89019608 0.96078431
v 0.11315316 0.01618176 -0.01874042 0.43529412 0.89019608 0.96078431
v 0.11314150 0.01600307 -0.01874042 0.43529412 0.89019608 0.96078431
v 0.11309873 0.01582880 -0.01874042 0.43529412 0.89019608 0.96078431
v 0.11302876 0.01566335 -0.01874042 0.43529412 0.89019608 0.96078431
v 0.11293545 0.01551041 -0.01874042 0.43529412 0.89019608 0.96078431
v 0.11281882 0.01537364 -0.01874042 0.43529412 0.89019608 0.96078431
v 0.11278772 0.01534275 -0.01874042 0.43529412 0.89019608 0.96078431
v 0.07530724 0.01534275 -0.01790503 0.43529412 0.89019608 0.96078431
v 0.07676509 0.02096577 -0.01821084 0.43529412 0.89019608 0.96078431
v 0.07721606 0.02171138 -0.01827797 0.43529412 0.89019608 0.96078431
v 0.07684285 0.02135034 -0.01814371 0.43529412 0.89019608 0.96078431
v 0.07697114 0.02171138 -0.01803556 0.43529412 0.89019608 0.96078431
v 0.07823461 0.02231950 -0.01821084 0.43529412 0.89019608 0.96078431
v 0.07848731 0.02231950 -0.01823322 0.43529412 0.89019608 0.96078431
v 0.07761259 0.02203787 -0.01827797 0.43529412 0.89019608 0.96078431
v 0.07775255 0.02231950 -0.01803556 0.43529412 0.89019608 0.96078431
v 0.07798580 0.02231950 -0.01814371 0.43529412 0.89019608 0.96078431
v 0.11201020 0.02203787 -0.01851293 0.43529412 0.89019608 0.96078431
v 0.11241062 0.02201581 -0.01848682 0.43529412 0.89019608 0.96078431
v 0.11279550 0.02194889 -0.01840850 0.43529412 0.89019608 0.96078431
v 0.11279550 0.02164226 -0.01862108 0.43529412 0.89019608 0.96078431
v 0.11315316 0.02155844 -0.01847563 0.43529412 0.89019608 0.96078431
v 0.11315316 0.02124592 -0.01862108 0.43529412 0.89019608 0.96078431
v 0.11347972 0.02116724 -0.01840850 0.43529412 0.89019608 0.96078431
v 0.11347972 0.02087238 -0.01848682 0.43529412 0.89019608 0.96078431
v 0.11347972 0.02056869 -0.01851293 0.43529412 0.89019608 0.96078431
v 0.11347972 0.01618176 -0.01851293 0.43529412 0.89019608 0.96078431
v 0.11346416 0.01595234 -0.01851293 0.43529412 0.89019608 0.96078431
v 0.11340974 0.01572806 -0.01851293 0.43529412 0.89019608 0.96078431
v 0.11332032 0.01551482 -0.01851293 0.43529412 0.89019608 0.96078431
v 0.11316871 0.01534275 -0.01854276 0.43529412 0.89019608 0.96078431
v 0.11284992 0.01534275 -0.01871059 0.43529412 0.89019608 0.96078431
v 0.07495735 0.01534275 -0.01754327 0.43529412 0.89019608 0.96078431
v 0.07653961 0.02096577 -0.01788638 0.43529412 0.89019608 0.96078431
v 0.07662903 0.02135034 -0.01783790 0.43529412 0.89019608 0.96078431
v 0.07736379 0.02203787 -0.01810269 0.43529412 0.89019608 0.96078431
v 0.07677287 0.02171138 -0.01775212 0.43529412 0.89019608 0.96078431
v 0.07697114 0.02203787 -0.01763651 0.43529412 0.89019608 0.96078431
v 0.07714608 0.02203787 -0.01788638 0.43529412 0.89019608 0.96078431
v 0.07809855 0.02254818 -0.01783790 0.43529412 0.89019608 0.96078431
v 0.07828904 0.02254818 -0.01788638 0.43529412 0.89019608 0.96078431
v 0.07848731 0.02254818 -0.01790503 0.43529412 0.89019608 0.96078431
v 0.09524681 0.02243421 -0.01806912 0.43529412 0.89019608 0.96078431
v 0.11201020 0.02231950 -0.01823322 0.43529412 0.89019608 0.96078431
v 0.07754262 0.02231950 -0.01788638 0.43529412 0.89019608 0.96078431
v 0.07775255 0.02254818 -0.01763651 0.43529412 0.89019608 0.96078431
v 0.07791583 0.02254818 -0.01775212 0.43529412 0.89019608 0.96078431
v 0.11241062 0.02229302 -0.01821084 0.43529412 0.89019608 0.96078431
v 0.11279550 0.02221434 -0.01814371 0.43529412 0.89019608 0.96078431
v 0.11315316 0.02208493 -0.01803556 0.43529412 0.89019608 0.96078431
v 0.11315316 0.02184080 -0.01827797 0.43529412 0.89019608 0.96078431
v 0.11347972 0.02169447 -0.01810269 0.43529412 0.89019608 0.96078431
v 0.11347972 0.02144373 -0.01827797 0.43529412 0.89019608 0.96078431
v 0.11376351 0.02130328 -0.01803556 0.43529412 0.89019608 0.96078431
v 0.11376351 0.02107092 -0.01814371 0.43529412 0.89019608 0.96078431
v 0.11376351 0.02082385 -0.01821084 0.43529412 0.89019608 0.96078431
v 0.11376351 0.02056869 -0.01823322 0.43529412 0.89019608 0.96078431
v 0.11376351 0.01618176 -0.01823322 0.43529412 0.89019608 0.96078431
v 0.11374018 0.01590822 -0.01823322 0.43529412 0.89019608 0.96078431
v 0.11367798 0.01564129 -0.01823322 0.43529412 0.89019608 0.96078431
v 0.11357302 0.01538687 -0.01823322 0.43529412 0.89019608 0.96078431
v 0.11321536 0.01534275 -0.01851293 0.43529412 0.89019608 0.96078431
v 0.07486794 0.01534275 -0.01740155 0.43529412 0.89019608 0.96078431
v 0.07637245 0.02096577 -0.01753208 0.43529412 0.89019608 0.96078431
v 0.07471632 0.01534275 -0.01715914 0.43529412 0.89019608 0.96078431
v 0.07646963 0.02135034 -0.01749852 0.43529412 0.89019608 0.96078431
v 0.07684285 0.02203787 -0.01736053 0.43529412 0.89019608 0.96078431
v 0.07662903 0.02171138 -0.01743885 0.43529412 0.89019608 0.96078431
v 0.07721606 0.02231950 -0.01749852 0.43529412 0.89019608 0.96078431
v 0.07736379 0.02231950 -0.01770737 0.43529412 0.89019608 0.96078431
v 0.07821906 0.02271657 -0.01749852 0.43529412 0.89019608 0.96078431
v 0.07835124 0.02271657 -0.01753208 0.43529412 0.89019608 0.96078431
v 0.07848731 0.02271657 -0.01754327 0.43529412 0.89019608 0.96078431
v 0.09524681 0.02263274 -0.01772602 0.43529412 0.89019608 0.96078431
v 0.11201020 0.02254818 -0.01790503 0.43529412 0.89019608 0.96078431
v 0.07761259 0.02254818 -0.01749852 0.43529412 0.89019608 0.96078431
v 0.07798580 0.02271657 -0.01736053 0.43529412 0.89019608 0.96078431
v 0.07809855 0.02271657 -0.01743885 0.43529412 0.89019608 0.96078431
v 0.11241062 0.02251803 -0.01788638 0.43529412 0.89019608 0.96078431
v 0.11279550 0.02242906 -0.01783790 0.43529412 0.89019608 0.96078431
v 0.11315316 0.02228273 -0.01775212 0.43529412 0.89019608 0.96078431
v 0.11347972 0.02208493 -0.01763651 0.43529412 0.89019608 0.96078431
v 0.11347972 0.02190992 -0.01788638 0.43529412 0.89019608 0.96078431
v 0.11376351 0.02169447 -0.01770737 0.43529412 0.89019608 0.96078431
v 0.11376351 0.02151285 -0.01788638 0.43529412 0.89019608 0.96078431
v 0.11399288 0.02130328 -0.01763651 0.43529412 0.89019608 0.96078431
v 0.11399288 0.02114004 -0.01775212 0.43529412 0.89019608 0.96078431
v 0.11399288 0.02095915 -0.01783790 0.43529412 0.89019608 0.96078431
v 0.11399288 0.02076723 -0.01788638 0.43529412 0.89019608 0.96078431
v 0.11399288 0.02056869 -0.01790503 0.43529412 0.89019608 0.96078431
v 0.11399288 0.01618176 -0.01790503 0.43529412 0.89019608 0.96078431
v 0.11396567 0.01587218 -0.01790503 0.43529412 0.89019608 0.96078431
v 0.11389569 0.01556997 -0.01790503 0.43529412 0.89019608 0.96078431
v 0.11380239 0.01534275 -0.01790503 0.43529412 0.89019608 0.96078431
v 0.11354581 0.01534275 -0.01823322 0.43529412 0.89019608 0.96078431
v 0.11375962 0.01534275 -0.01796097 0.43529412 0.89019608 0.96078431
v 0.11365855 0.01534275 -0.01809150 0.43529412 0.89019608 0.96078431
v 0.07458415 0.01534275 -0.01676382 0.43529412 0.89019608 0.96078431
v 0.07637245 0.02135034 -0.01713676 0.43529412 0.89019608 0.96078431
v 0.07653961 0.02171138 -0.01710693 0.43529412 0.89019608 0.96078431
v 0.07676509 0.02203787 -0.01706590 0.43529412 0.89019608 0.96078431
v 0.07704112 0.02231950 -0.01701742 0.43529412 0.89019608 0.96078431
v 0.07710720 0.02231950 -0.01726357 0.43529412 0.89019608 0.96078431
v 0.07741432 0.02254818 -0.01715168 0.43529412 0.89019608 0.96078431
v 0.07749985 0.02254818 -0.01733442 0.43529412 0.89019608 0.96078431
v 0.07828904 0.02281951 -0.01710693 0.43529412 0.89019608 0.96078431
v 0.07835124 0.02281951 -0.01713676 0.43529412 0.89019608 0.96078431
v 0.07841733 0.02281951 -0.01715168 0.43529412 0.89019608 0.96078431
v 0.07848731 0.02281951 -0.01715914 0.43529412 0.89019608 0.96078431
v 0.09524681 0.02276804 -0.01735307 0.43529412 0.89019608 0.96078431
v 0.11201020 0.02271657 -0.01754327 0.43529412 0.89019608 0.96078431
v 0.11241062 0.02268422 -0.01753208 0.43529412 0.89019608 0.96078431
v 0.07781086 0.02271657 -0.01715168 0.43529412 0.89019608 0.96078431
v 0.07788862 0.02271657 -0.01726357 0.43529412 0.89019608 0.96078431
v 0.07818408 0.02281951 -0.01701742 0.43529412 0.89019608 0.96078431
v 0.07823461 0.02281951 -0.01706590 0.43529412 0.89019608 0.96078431
v 0.11279550 0.02258715 -0.01749852 0.43529412 0.89019608 0.96078431
v 0.11315316 0.02242906 -0.01743885 0.43529412 0.89019608 0.96078431
v 0.11347972 0.02221434 -0.01736053 0.43529412 0.89019608 0.96078431
v 0.11376351 0.02184080 -0.01749852 0.43529412 0.89019608 0.96078431
v 0.11399288 0.02144373 -0.01749852 0.43529412 0.89019608 0.96078431
v 0.11416005 0.02107092 -0.01736053 0.43529412 0.89019608 0.96078431
v 0.11416005 0.02095915 -0.01743885 0.43529412 0.89019608 0.96078431
v 0.11416005 0.02083561 -0.01749852 0.43529412 0.89019608 0.96078431
v 0.11416005 0.02070399 -0.01753208 0.43529412 0.89019608 0.96078431
v 0.11416005 0.02056869 -0.01754327 0.43529412 0.89019608 0.96078431
v 0.11416005 0.01618176 -0.01754327 0.43529412 0.89019608 0.96078431
v 0.11413283 0.01584571 -0.01754327 0.43529412 0.89019608 0.96078431
v 0.11405508 0.01551850 -0.01754327 0.43529412 0.89019608 0.96078431
v 0.11391513 0.01534275 -0.01767753 0.43529412 0.89019608 0.96078431
v 0.07458415 0.01534275 0.01676388 0.43529412 0.89019608 0.96078431
v 0.07634135 0.02135034 -0.01676382 0.43529412 0.89019608 0.96078431
v 0.07650851 0.02171138 -0.01676382 0.43529412 0.89019608 0.96078431
v 0.07673788 0.02203787 -0.01676382 0.43529412 0.89019608 0.96078431
v 0.07701779 0.02231950 -0.01676382 0.43529412 0.89019608 0.96078431
v 0.07734435 0.02254818 -0.01676382 0.43529412 0.89019608 0.96078431
v 0.07736379 0.02254818 -0.01696148 0.43529412 0.89019608 0.96078431
v 0.07771756 0.02271657 -0.01689808 0.43529412 0.89019608 0.96078431
v 0.07775255 0.02271657 -0.01702861 0.43529412 0.89019608 0.96078431
v 0.07848731 0.02285481 -0.01676382 0.43529412 0.89019608 0.96078431
v 0.11201020 0.02281951 -0.01715914 0.43529412 0.89019608 0.96078431
v 0.11241062 0.02278569 -0.01715168 0.43529412 0.89019608 0.96078431
v 0.11279550 0.02268422 -0.01713676 0.43529412 0.89019608 0.96078431
v 0.07811410 0.02281951 -0.01689808 0.43529412 0.89019608 0.96078431
v 0.07814520 0.02281951 -0.01696148 0.43529412 0.89019608 0.96078431
v 0.11315316 0.02251803 -0.01710693 0.43529412 0.89019608 0.96078431
v 0.11347972 0.02229302 -0.01706590 0.43529412 0.89019608 0.96078431
v 0.11376351 0.02201581 -0.01701742 0.43529412 0.89019608 0.96078431
v 0.11376351 0.02194889 -0.01726357 0.43529412 0.89019608 0.96078431
v 0.11399288 0.02155844 -0.01733442 0.43529412 0.89019608 0.96078431
v 0.11416005 0.02124592 -0.01715168 0.43529412 0.89019608 0.96078431
v 0.11416005 0.02116724 -0.01726357 0.43529412 0.89019608 0.96078431
v 0.11426502 0.02087238 -0.01701742 0.43529412 0.89019608 0.96078431
v 0.11426502 0.02082385 -0.01706590 0.43529412 0.89019608 0.96078431
v 0.11426502 0.02076723 -0.01710693 0.43529412 0.89019608 0.96078431
v 0.11426502 0.02070399 -0.01713676 0.43529412 0.89019608 0.96078431
v 0.11426502 0.02063708 -0.01715168 0.43529412 0.89019608 0.96078431
v 0.11426502 0.02056869 -0.01715914 0.43529412 0.89019608 0.96078431
v 0.11426502 0.01618176 -0.01715914 0.43529412 0.89019608 0.96078431
v 0.11423392 0.01583027 -0.01715914 0.43529412 0.89019608 0.96078431
v 0.11415227 0.01548614 -0.01715914 0.43529412 0.89019608 0.96078431
v 0.11409396 0.01534275 -0.01715914 0.43529412 0.89019608 0.96078431
v 0.11398121 0.01534275 -0.01754327 0.43529412 0.89019608 0.96078431
v 0.07471632 0.01534275 0.01715920 0.43529412 0.89019608 0.96078431
v 0.07646963 0.02130328 0.01754333 0.43529412 0.89019608 0.96078431
v 0.07637245 0.02133857 0.01715920 0.43529412 0.89019608 0.96078431
v 0.07634135 0.02135034 0.01676388 0.43529412 0.89019608 0.96078431
v 0.07642299 0.02153123 0.00000003 0.43529412 0.89019608 0.96078431
v 0.07650851 0.02171138 0.01676388 0.43529412 0.89019608 0.96078431
v 0.07662125 0.02187463 0.00000003 0.43529412 0.89019608 0.96078431
v 0.07673788 0.02203787 0.01676388 0.43529412 0.89019608 0.96078431
v 0.07687784 0.02217905 0.00000003 0.43529412 0.89019608 0.96078431
v 0.07701779 0.02231950 0.01676388 0.43529412 0.89019608 0.96078431
v 0.07718107 0.02243421 0.00000003 0.43529412 0.89019608 0.96078431
v 0.07734435 0.02254818 0.01676388 0.43529412 0.89019608 0.96078431
v 0.07770590 0.02271657 -0.01676382 0.43529412 0.89019608 0.96078431
v 0.07809077 0.02281951 -0.01676382 0.43529412 0.89019608 0.96078431
v 0.07809855 0.02281951 -0.01683095 0.43529412 0.89019608 0.96078431
v 0.07848731 0.02285481 0.01676388 0.43529412 0.89019608 0.96078431
v 0.11201020 0.02285481 -0.01676382 0.43529412 0.89019608 0.96078431
v 0.11241062 0.02281951 -0.01676382 0.43529412 0.89019608 0.96078431
v 0.11279550 0.02271657 -0.01676382 0.43529412 0.89019608 0.96078431
v 0.11315316 0.02254818 -0.01676382 0.43529412 0.89019608 0.96078431
v 0.11347972 0.02231950 -0.01676382 0.43529412 0.89019608 0.96078431
v 0.11376351 0.02203787 -0.01676382 0.43529412 0.89019608 0.96078431
v 0.11399288 0.02169447 -0.01696148 0.43529412 0.89019608 0.96078431
v 0.11399288 0.02164226 -0.01715168 0.43529412 0.89019608 0.96078431
v 0.11416005 0.02130328 -0.01702861 0.43529412 0.89019608 0.96078431
v 0.11426502 0.02091209 -0.01696148 0.43529412 0.89019608 0.96078431
v 0.11429612 0.02056869 -0.01676382 0.43529412 0.89019608 0.96078431
v 0.11429612 0.01618176 -0.01676382 0.43529412 0.89019608 0.96078431
v 0.11426890 0.01582439 -0.01676382 0.43529412 0.89019608 0.96078431
v 0.11418726 0.01547585 -0.01676382 0.43529412 0.89019608 0.96078431
v 0.11413283 0.01534275 -0.01676382 0.43529412 0.89019608 0.96078431
v 0.07495735 0.01534275 0.01754333 0.43529412 0.89019608 0.96078431
v 0.07653961 0.02091209 0.01790509 0.43529412 0.89019608 0.96078431
v 0.07637245 0.02094150 0.01754333 0.43529412 0.89019608 0.96078431
v 0.07653961 0.02169447 0.01715920 0.43529412 0.89019608 0.96078431
v 0.07662903 0.02124592 0.01790509 0.43529412 0.89019608 0.96078431
v 0.07677287 0.02155844 0.01790509 0.43529412 0.89019608 0.96078431
v 0.07662903 0.02164226 0.01754333 0.43529412 0.89019608 0.96078431
v 0.07676509 0.02201581 0.01715920 0.43529412 0.89019608 0.96078431
v 0.07704112 0.02229302 0.01715920 0.43529412 0.89019608 0.96078431
v 0.07736379 0.02251803 0.01715920 0.43529412 0.89019608 0.96078431
v 0.07771756 0.02268422 0.01715920 0.43529412 0.89019608 0.96078431
v 0.07770590 0.02271657 0.01676388 0.43529412 0.89019608 0.96078431
v 0.07809077 0.02281951 0.01676388 0.43529412 0.89019608 0.96078431
v 0.07809855 0.02278569 0.01715920 0.43529412 0.89019608 0.96078431
v 0.07848731 0.02281951 0.01715920 0.43529412 0.89019608 0.96078431
v 0.11201020 0.02285481 0.01676388 0.43529412 0.89019608 0.96078431
v 0.11221235 0.02283716 0.00000003 0.43529412 0.89019608 0.96078431
v 0.11241062 0.02281951 0.01676388 0.43529412 0.89019608 0.96078431
v 0.11279550 0.02271657 0.01676388 0.43529412 0.89019608 0.96078431
v 0.11297432 0.02263274 0.00000003 0.43529412 0.89019608 0.96078431
v 0.11315316 0.02254818 0.01676388 0.43529412 0.89019608 0.96078431
v 0.11331643 0.02243421 0.00000003 0.43529412 0.89019608 0.96078431
v 0.11347972 0.02231950 0.01676388 0.43529412 0.89019608 0.96078431
v 0.11362356 0.02217905 0.00000003 0.43529412 0.89019608 0.96078431
v 0.11376351 0.02203787 0.01676388 0.43529412 0.89019608 0.96078431
v 0.11399288 0.02171138 -0.01676382 0.43529412 0.89019608 0.96078431
v 0.11416005 0.02135034 -0.01676382 0.43529412 0.89019608 0.96078431
v 0.11416005 0.02133857 -0.01689808 0.43529412 0.89019608 0.96078431
v 0.11426502 0.02094150 -0.01689808 0.43529412 0.89019608 0.96078431
v 0.11429612 0.02056869 0.01676388 0.43529412 0.89019608 0.96078431
v 0.11426502 0.02095915 -0.01683095 0.43529412 0.89019608 0.96078431
v 0.11426502 0.02096577 -0.01676382 0.43529412 0.89019608 0.96078431
v 0.11429612 0.01618176 0.01676388 0.43529412 0.89019608 0.96078431
v 0.11428445 0.01600307 0.00000003 0.43529412 0.89019608 0.96078431
v 0.11426890 0.01582439 0.01676388 0.43529412 0.89019608 0.96078431
v 0.11418726 0.01547585 0.01676388 0.43529412 0.89019608 0.96078431
v 0.11413283 0.01534275 0.01676388 0.43529412 0.89019608 0.96078431
v 0.07530724 0.01534275 0.01790509 0.43529412 0.89019608 0.96078431
v 0.07676509 0.02087238 0.01823328 0.43529412 0.89019608 0.96078431
v 0.07684285 0.02116724 0.01823328 0.43529412 0.89019608 0.96078431
v 0.07684285 0.02194889 0.01754333 0.43529412 0.89019608 0.96078431
v 0.07697114 0.02144373 0.01823328 0.43529412 0.89019608 0.96078431
v 0.07714608 0.02169447 0.01823328 0.43529412 0.89019608 0.96078431
v 0.07697114 0.02184080 0.01790509 0.43529412 0.89019608 0.96078431
v 0.07710720 0.02221434 0.01754333 0.43529412 0.89019608 0.96078431
v 0.07741432 0.02242906 0.01754333 0.43529412 0.89019608 0.96078431
v 0.07775255 0.02258715 0.01754333 0.43529412 0.89019608 0.96078431
v 0.07811410 0.02268422 0.01754333 0.43529412 0.89019608 0.96078431
v 0.07848731 0.02271657 0.01754333 0.43529412 0.89019608 0.96078431
v 0.09524681 0.02276804 0.01735313 0.43529412 0.89019608 0.96078431
v 0.11201020 0.02281951 0.01715920 0.43529412 0.89019608 0.96078431
v 0.11241062 0.02278569 0.01715174 0.43529412 0.89019608 0.96078431
v 0.11279550 0.02268422 0.01713683 0.43529412 0.89019608 0.96078431
v 0.11315316 0.02251803 0.01710699 0.43529412 0.89019608 0.96078431
v 0.11347972 0.02229302 0.01706597 0.43529412 0.89019608 0.96078431
v 0.11376351 0.02201581 0.01701748 0.43529412 0.89019608 0.96078431
v 0.11399288 0.02169447 0.01696154 0.43529412 0.89019608 0.96078431
v 0.11399288 0.02171138 0.01676388 0.43529412 0.89019608 0.96078431
v 0.11416005 0.02135034 0.01676388 0.43529412 0.89019608 0.96078431
v 0.11426502 0.02056869 0.01715920 0.43529412 0.89019608 0.96078431
v 0.11426502 0.02096577 0.01676388 0.43529412 0.89019608 0.96078431
v 0.11426502 0.02095915 0.01683101 0.43529412 0.89019608 0.96078431
v 0.11426502 0.02094150 0.01689814 0.43529412 0.89019608 0.96078431
v 0.11426502 0.02091209 0.01696154 0.43529412 0.89019608 0.96078431
v 0.11426502 0.02087238 0.01701748 0.43529412 0.89019608 0.96078431
v 0.11426502 0.02082385 0.01706597 0.43529412 0.89019608 0.96078431
v 0.11426502 0.02076723 0.01710699 0.43529412 0.89019608 0.96078431
v 0.11426502 0.02070399 0.01713683 0.43529412 0.89019608 0.96078431
v 0.11426502 0.02063708 0.01715174 0.43529412 0.89019608 0.96078431
v 0.11426502 0.01618176 0.01715920 0.43529412 0.89019608 0.96078431
v 0.11423392 0.01583027 0.01715920 0.43529412 0.89019608 0.96078431
v 0.11415227 0.01548614 0.01715920 0.43529412 0.89019608 0.96078431
v 0.11411729 0.01534275 0.01692798 0.43529412 0.89019608 0.96078431
v 0.07562213 0.01534275 0.01816615 0.43529412 0.89019608 0.96078431
v 0.07704112 0.02082385 0.01851299 0.43529412 0.89019608 0.96078431
v 0.07710720 0.02107092 0.01851299 0.43529412 0.89019608 0.96078431
v 0.07721606 0.02130328 0.01851299 0.43529412 0.89019608 0.96078431
v 0.07736379 0.02151285 0.01851299 0.43529412 0.89019608 0.96078431
v 0.07754262 0.02169447 0.01851299 0.43529412 0.89019608 0.96078431
v 0.07736379 0.02190992 0.01823328 0.43529412 0.89019608 0.96078431
v 0.07721606 0.02208493 0.01790509 0.43529412 0.89019608 0.96078431
v 0.07749985 0.02228273 0.01790509 0.43529412 0.89019608 0.96078431
v 0.07781086 0.02242906 0.01790509 0.43529412 0.89019608 0.96078431
v 0.07814520 0.02251803 0.01790509 0.43529412 0.89019608 0.96078431
v 0.07848731 0.02254818 0.01790509 0.43529412 0.89019608 0.96078431
v 0.09524681 0.02263274 0.01772608 0.43529412 0.89019608 0.96078431
v 0.11201020 0.02271657 0.01754333 0.43529412 0.89019608 0.96078431
v 0.11241062 0.02268422 0.01753215 0.43529412 0.89019608 0.96078431
v 0.11279550 0.02258715 0.01749858 0.43529412 0.89019608 0.96078431
v 0.11315316 0.02242906 0.01743891 0.43529412 0.89019608 0.96078431
v 0.11347972 0.02221434 0.01736059 0.43529412 0.89019608 0.96078431
v 0.11376351 0.02194889 0.01726363 0.43529412 0.89019608 0.96078431
v 0.11399288 0.02164226 0.01715174 0.43529412 0.89019608 0.96078431
v 0.11416005 0.02130328 0.01702867 0.43529412 0.89019608 0.96078431
v 0.11416005 0.02133857 0.01689814 0.43529412 0.89019608 0.96078431
v 0.11416005 0.02070399 0.01753215 0.43529412 0.89019608 0.96078431
v 0.11416005 0.02056869 0.01754333 0.43529412 0.89019608 0.96078431
v 0.11416005 0.02124592 0.01715174 0.43529412 0.89019608 0.96078431
v 0.11416005 0.02116724 0.01726363 0.43529412 0.89019608 0.96078431
v 0.11416005 0.02107092 0.01736059 0.43529412 0.89019608 0.96078431
v 0.11416005 0.02095915 0.01743891 0.43529412 0.89019608 0.96078431
v 0.11416005 0.02083561 0.01749858 0.43529412 0.89019608 0.96078431
v 0.11416005 0.01618176 0.01754333 0.43529412 0.89019608 0.96078431
v 0.11413283 0.01584571 0.01754333 0.43529412 0.89019608 0.96078431
v 0.11405508 0.01551850 0.01754333 0.43529412 0.89019608 0.96078431
v 0.11409396 0.01534275 0.01715920 0.43529412 0.89019608 0.96078431
v 0.07570378 0.01534275 0.01823328 0.43529412 0.89019608 0.96078431
v 0.07736379 0.02076723 0.01874049 0.43529412 0.89019608 0.96078431
v 0.07741432 0.02095915 0.01874049 0.43529412 0.89019608 0.96078431
v 0.07610809 0.01534275 0.01851299 0.43529412 0.89019608 0.96078431
v 0.07749985 0.02114004 0.01874049 0.43529412 0.89019608 0.96078431
v 0.07761259 0.02130328 0.01874049 0.43529412 0.89019608 0.96078431
v 0.07775255 0.02144373 0.01874049 0.43529412 0.89019608 0.96078431
v 0.07791583 0.02155844 0.01874049 0.43529412 0.89019608 0.96078431
v 0.07775255 0.02184080 0.01851299 0.43529412 0.89019608 0.96078431
v 0.07761259 0.02208493 0.01823328 0.43529412 0.89019608 0.96078431
v 0.07788862 0.02221434 0.01823328 0.43529412 0.89019608 0.96078431
v 0.07818408 0.02229302 0.01823328 0.43529412 0.89019608 0.96078431
v 0.07848731 0.02231950 0.01823328 0.43529412 0.89019608 0.96078431
v 0.09524681 0.02243421 0.01806919 0.43529412 0.89019608 0.96078431
v 0.11201020 0.02254818 0.01790509 0.43529412 0.89019608 0.96078431
v 0.11241062 0.02251803 0.01788644 0.43529412 0.89019608 0.96078431
v 0.11279550 0.02242906 0.01783796 0.43529412 0.89019608 0.96078431
v 0.11315316 0.02228273 0.01775218 0.43529412 0.89019608 0.96078431
v 0.11347972 0.02208493 0.01763657 0.43529412 0.89019608 0.96078431
v 0.11376351 0.02184080 0.01749858 0.43529412 0.89019608 0.96078431
v 0.11399288 0.02155844 0.01733449 0.43529412 0.89019608 0.96078431
v 0.11399288 0.02095915 0.01783796 0.43529412 0.89019608 0.96078431
v 0.11399288 0.02076723 0.01788644 0.43529412 0.89019608 0.96078431
v 0.11399288 0.02056869 0.01790509 0.43529412 0.89019608 0.96078431
v 0.11399288 0.02144373 0.01749858 0.43529412 0.89019608 0.96078431
v 0.11399288 0.02130328 0.01763657 0.43529412 0.89019608 0.96078431
v 0.11399288 0.02114004 0.01775218 0.43529412 0.89019608 0.96078431
v 0.11399288 0.01618176 0.01790509 0.43529412 0.89019608 0.96078431
v 0.11396567 0.01587218 0.01790509 0.43529412 0.89019608 0.96078431
v 0.11389569 0.01556997 0.01790509 0.43529412 0.89019608 0.96078431
v 0.11380239 0.01534275 0.01790509 0.43529412 0.89019608 0.96078431
v 0.11398121 0.01534275 0.01754333 0.43529412 0.89019608 0.96078431
v 0.07771756 0.02070399 0.01891204 0.43529412 0.89019608 0.96078431
v 0.07655905 0.01534275 0.01874049 0.43529412 0.89019608 0.96078431
v 0.07775255 0.02083561 0.01891204 0.43529412 0.89019608 0.96078431
v 0.07781086 0.02095915 0.01891204 0.43529412 0.89019608 0.96078431
v 0.07788862 0.02107092 0.01891204 0.43529412 0.89019608 0.96078431
v 0.07798580 0.02116724 0.01891204 0.43529412 0.89019608 0.96078431
v 0.07809855 0.02124592 0.01891204 0.43529412 0.89019608 0.96078431
v 0.07821906 0.02130328 0.01891204 0.43529412 0.89019608 0.96078431
v 0.07809855 0.02164226 0.01874049 0.43529412 0.89019608 0.96078431
v 0.07798580 0.02194889 0.01851299 0.43529412 0.89019608 0.96078431
v 0.07823461 0.02201581 0.01851299 0.43529412 0.89019608 0.96078431
v 0.07848731 0.02203787 0.01851299 0.43529412 0.89019608 0.96078431
v 0.11201020 0.02231950 0.01823328 0.43529412 0.89019608 0.96078431
v 0.11241062 0.02229302 0.01821091 0.43529412 0.89019608 0.96078431
v 0.11279550 0.02221434 0.01814378 0.43529412 0.89019608 0.96078431
v 0.11315316 0.02208493 0.01803562 0.43529412 0.89019608 0.96078431
v 0.11347972 0.02190992 0.01788644 0.43529412 0.89019608 0.96078431
v 0.11376351 0.02169447 0.01770743 0.43529412 0.89019608 0.96078431
v 0.11376351 0.02130328 0.01803562 0.43529412 0.89019608 0.96078431
v 0.11376351 0.02107092 0.01814378 0.43529412 0.89019608 0.96078431
v 0.11376351 0.02082385 0.01821091 0.43529412 0.89019608 0.96078431
v 0.11376351 0.02056869 0.01823328 0.43529412 0.89019608 0.96078431
v 0.11376351 0.02151285 0.01788644 0.43529412 0.89019608 0.96078431
v 0.11376351 0.01618176 0.01823328 0.43529412 0.89019608 0.96078431
v 0.11374018 0.01590822 0.01823328 0.43529412 0.89019608 0.96078431
v 0.11367798 0.01564129 0.01823328 0.43529412 0.89019608 0.96078431
v 0.11357302 0.01538687 0.01823328 0.43529412 0.89019608 0.96078431
v 0.11365855 0.01534275 0.01809156 0.43529412 0.89019608 0.96078431
v 0.07809855 0.02063708 0.01901274 0.43529412 0.89019608 0.96078431
v 0.07811410 0.02070399 0.01901274 0.43529412 0.89019608 0.96078431
v 0.07699835 0.01534275 0.01891204 0.43529412 0.89019608 0.96078431
v 0.07814520 0.02076723 0.01901274 0.43529412 0.89019608 0.96078431
v 0.07818408 0.02082385 0.01901274 0.43529412 0.89019608 0.96078431
v 0.07823461 0.02087238 0.01901274 0.43529412 0.89019608 0.96078431
v 0.07828904 0.02091209 0.01901274 0.43529412 0.89019608 0.96078431
v 0.07835124 0.02094150 0.01901274 0.43529412 0.89019608 0.96078431
v 0.07835124 0.02133857 0.01891204 0.43529412 0.89019608 0.96078431
v 0.07828904 0.02169447 0.01874049 0.43529412 0.89019608 0.96078431
v 0.07848731 0.02171138 0.01874049 0.43529412 0.89019608 0.96078431
v 0.09524681 0.02187463 0.01862860 0.43529412 0.89019608 0.96078431
v 0.11201020 0.02203787 0.01851299 0.43529412 0.89019608 0.96078431
v 0.11241062 0.02201581 0.01848688 0.43529412 0.89019608 0.96078431
v 0.11279550 0.02194889 0.01840857 0.43529412 0.89019608 0.96078431
v 0.11315316 0.02184080 0.01827804 0.43529412 0.89019608 0.96078431
v 0.11347972 0.02169447 0.01810275 0.43529412 0.89019608 0.96078431
v 0.11347972 0.02144373 0.01827804 0.43529412 0.89019608 0.96078431
v 0.11347972 0.02116724 0.01840857 0.43529412 0.89019608 0.96078431
v 0.11347972 0.02087238 0.01848688 0.43529412 0.89019608 0.96078431
v 0.11347972 0.02056869 0.01851299 0.43529412 0.89019608 0.96078431
v 0.11347972 0.01618176 0.01851299 0.43529412 0.89019608 0.96078431
v 0.11346416 0.01595234 0.01851299 0.43529412 0.89019608 0.96078431
v 0.11340974 0.01572806 0.01851299 0.43529412 0.89019608 0.96078431
v 0.11332032 0.01551482 0.01851299 0.43529412 0.89019608 0.96078431
v 0.11333588 0.01534275 0.01841230 0.43529412 0.89019608 0.96078431
v 0.11354581 0.01534275 0.01823328 0.43529412 0.89019608 0.96078431
v 0.07746875 0.01534275 0.01901274 0.43529412 0.89019608 0.96078431
v 0.07848731 0.02056869 0.01904630 0.43529412 0.89019608 0.96078431
v 0.07841733 0.02095915 0.01901274 0.43529412 0.89019608 0.96078431
v 0.07848731 0.02096577 0.01901274 0.43529412 0.89019608 0.96078431
v 0.07848731 0.02135034 0.01891204 0.43529412 0.89019608 0.96078431
v 0.09524681 0.02153123 0.01882626 0.43529412 0.89019608 0.96078431
v 0.11201020 0.02171138 0.01874049 0.43529412 0.89019608 0.96078431
v 0.11241062 0.02169447 0.01871065 0.43529412 0.89019608 0.96078431
v 0.11279550 0.02164226 0.01862114 0.43529412 0.89019608 0.96078431
v 0.11315316 0.02155844 0.01847570 0.43529412 0.89019608 0.96078431
v 0.11315316 0.02124592 0.01862114 0.43529412 0.89019608 0.96078431
v 0.11315316 0.02091209 0.01871065 0.43529412 0.89019608 0.96078431
v 0.11315316 0.02056869 0.01874049 0.43529412 0.89019608 0.96078431
v 0.11315316 0.01618176 0.01874049 0.43529412 0.89019608 0.96078431
v 0.11314150 0.01600307 0.01874049 0.43529412 0.89019608 0.96078431
v 0.11309873 0.01582880 0.01874049 0.43529412 0.89019608 0.96078431
v 0.11316871 0.01534275 0.01854283 0.43529412 0.89019608 0.96078431
v 0.11321536 0.01534275 0.01851299 0.43529412 0.89019608 0.96078431
v 0.11302876 0.01566335 0.01874049 0.43529412 0.89019608 0.96078431
v 0.07792749 0.01534275 0.01904630 0.43529412 0.89019608 0.96078431
v 0.09387059 0.01534275 0.01905003 0.43529412 0.89019608 0.96078431
v 0.09524681 0.02056869 0.01905003 0.43529412 0.89019608 0.96078431
v 0.11201020 0.02096577 0.01901274 0.43529412 0.89019608 0.96078431
v 0.11201020 0.02135034 0.01891204 0.43529412 0.89019608 0.96078431
v 0.11241062 0.02133857 0.01887848 0.43529412 0.89019608 0.96078431
v 0.11279550 0.02130328 0.01878151 0.43529412 0.89019608 0.96078431
v 0.11279550 0.02094150 0.01887848 0.43529412 0.89019608 0.96078431
v 0.11279550 0.02056869 0.01891204 0.43529412 0.89019608 0.96078431
v 0.11279550 0.01618176 0.01891204 0.43529412 0.89019608 0.96078431
v 0.11278384 0.01605969 0.01891204 0.43529412 0.89019608 0.96078431
v 0.11275662 0.01594057 0.01891204 0.43529412 0.89019608 0.96078431
v 0.11270997 0.01582733 0.01891204 0.43529412 0.89019608 0.96078431
v 0.11293545 0.01551041 0.01874049 0.43529412 0.89019608 0.96078431
v 0.11284992 0.01534275 0.01871065 0.43529412 0.89019608 0.96078431
v 0.11117436 0.01534275 0.01905003 0.43529412 0.89019608 0.96078431
v 0.11201020 0.02056869 0.01905003 0.43529412 0.89019608 0.96078431
v 0.11241062 0.02095915 0.01897917 0.43529412 0.89019608 0.96078431
v 0.11241062 0.02056869 0.01901274 0.43529412 0.89019608 0.96078431
v 0.11241062 0.01618176 0.01901274 0.43529412 0.89019608 0.96078431
v 0.11240285 0.01611999 0.01901274 0.43529412 0.89019608 0.96078431
v 0.11239119 0.01605969 0.01901274 0.43529412 0.89019608 0.96078431
v 0.11236397 0.01600160 0.01901274 0.43529412 0.89019608 0.96078431
v 0.11233287 0.01594866 0.01901274 0.43529412 0.89019608 0.96078431
v 0.11264388 0.01572218 0.01891204 0.43529412 0.89019608 0.96078431
v 0.11256613 0.01562953 0.01891204 0.43529412 0.89019608 0.96078431
v 0.11281882 0.01537364 0.01874049 0.43529412 0.89019608 0.96078431
v 0.11279161 0.01534275 0.01874049 0.43529412 0.89019608 0.96078431
v 0.11170696 0.01534275 0.01901646 0.43529412 0.89019608 0.96078431
v 0.11201020 0.01618176 0.01905003 0.43529412 0.89019608 0.96078431
v 0.11229400 0.01590160 0.01901274 0.43529412 0.89019608 0.96078431
v 0.11174195 0.01534275 0.01901274 0.43529412 0.89019608 0.96078431
v 0.11227844 0.01534275 0.01891204 0.43529412 0.89019608 0.96078431
v 0.11229010 0.01534275 0.01890831 0.43529412 0.89019608 0.96078431
f 1 2 3
f 1 3 9
f 1 9 10
f 1 10 4
f 1 4 11
f 1 11 26
f 1 26 46
f 1 46 67
f 1 67 92
f 1 92 91
f 1 91 122
f 1 122 155
f 1 155 157
f 1 157 156
f 1 156 154
f 1 154 190
f 1 190 223
f 1 223 222
f 1 222 254
f 1 254 291
f 1 291 327
f 1 327 360
f 1 360 392
f 1 392 391
f 1 391 420
f 1 420 447
f 1 447 446
f 1 446 465
f 1 465 464
f 1 464 481
f 1 481 494
f 1 494 500
f 1 500 499
f 1 499 498
f 1 498 495
f 1 495 482
f 1 482 468
f 1 468 467
f 1 467 448
f 1 448 423
f 1 423 394
f 1 394 364
f 1 364 361
f 1 361 328
f 1 328 292
f 1 292 255
f 1 255 224
f 1 224 191
f 1 191 158
f 1 158 125
f 1 125 123
f 1 123 93
f 1 93 68
f 1 68 48
f 1 48 47
f 1 47 29
f 1 29 13
f 1 13 6
f 1 6 2
f 2 5 3
f 2 6 5
f 3 5 7
f 3 7 8
f 3 8 17
f 3 17 9
f 4 10 11
f 5 12 7
f 5 6 12
f 6 13 12
f 7 14 15
f 7 15 8
f 7 12 16
f 7 16 14
f 8 15 35
f 8 35 17
f 9 17 18
f 9 18 19
f 9 19 20
f 9 20 10
f 10 20 21
f 10 21 22
f 10 22 23
f 10 23 24
f 10 24 25
f 10 25 11
f 11 25 26
f 12 27 28
f 12 28 16
f 12 13 27
f 13 29 27
f 14 30 15
f 14 16 31
f 14 31 32
f 14 32 30
f 15 30 33
f 15 33 34
f 15 34 35
f 16 28 36
f 16 36 31
f 17 35 18
f 18 37 38
f 18 38 39
f 18 39 19
f 18 35 37
f 19 39 40
f 19 40 20
f 20 40 41
f 20 41 21
f 21 41 22
f 22 41 42
f 22 42 43
f 22 43 23
f 23 43 24
f 24 43 44
f 24 44 25
f 25 44 45
f 25 45 26
f 26 45 46
f 27 29 47
f 27 47 28
f 28 47 48
f 28 48 49
f 28 49 50
f 28 50 36
f 30 51 33
f 30 32 52
f 30 52 51
f 31 36 53
f 31 53 32
f 32 53 52
f 33 51 54
f 33 54 55
f 33 55 56
f 33 56 34
f 34 56 35
f 35 56 57
f 35 57 37
f 36 50 53
f 37 57 58
f 37 58 38
f 38 58 59
f 38 59 39
f 39 59 60
f 39 60 61
f 39 61 40
f 40 61 62
f 40 62 41
f 41 62 42
f 42 62 63
f 42 63 43
f 43 63 64
f 43 64 65
f 43 65 44
f 44 65 45
f 45 65 66
f 45 66 67
f 45 67 46
f 48 68 49
f 49 68 69
f 49 69 50
f 50 70 53
f 50 69 71
f 50 71 72
f 50 72 70
f 51 73 74
f 51 74 54
f 51 52 73
f 52 53 75
f 52 75 76
f 52 76 77
f 52 77 73
f 53 70 75
f 54 74 104
f 54 104 78
f 54 78 55
f 55 78 56
f 56 78 79
f 56 79 57
f 57 79 80
f 57 80 81
f 57 81 58
f 58 81 82
f 58 82 83
f 58 83 59
f 59 83 84
f 59 84 85
f 59 85 60
f 60 85 86
f 60 86 87
f 60 87 61
f 61 87 62
f 62 87 88
f 62 88 89
f 62 89 63
f 63 89 90
f 63 90 64
f 64 90 91
f 64 91 65
f 65 92 66
f 65 91 92
f 66 92 67
f 68 93 69
f 69 93 94
f 69 94 95
f 69 95 71
f 70 96 75
f 70 72 96
f 71 95 97
f 71 97 72
f 72 97 98
f 72 98 99
f 72 99 96
f 73 77 100
f 73 100 101
f 73 101 102
f 73 102 74
f 74 102 103
f 74 103 104
f 75 96 76
f 76 96 105
f 76 105 106
f 76 106 107
f 76 107 100
f 76 100 77
f 78 104 79
f 79 108 80
f 79 104 108
f 80 109 110
f 80 110 111
f 80 111 82
f 80 82 81
f 80 108 109
f 82 111 112
f 82 112 113
f 82 113 84
f 82 84 83
f 84 113 114
f 84 114 115
f 84 115 116
f 84 116 85
f 85 116 117
f 85 117 86
f 86 117 118
f 86 118 87
f 87 118 88
f 88 118 119
f 88 119 120
f 88 120 89
f 89 120 121
f 89 121 90
f 90 122 91
f 90 121 122
f 93 123 94
f 94 124 95
f 94 123 125
f 94 125 124
f 95 124 126
f 95 126 97
f 96 99 105
f 97 127 98
f 97 126 128
f 97 128 127
f 98 127 129
f 98 129 99
f 99 129 130
f 99 130 105
f 100 107 131
f 100 131 101
f 101 132 102
f 101 131 132
f 102 132 133
f 102 133 134
f 102 134 135
f 102 135 103
f 103 135 104
f 104 135 108
f 105 136 106
f 105 130 136
f 106 136 137
f 106 137 107
f 107 137 138
f 107 138 131
f 108 139 140
f 108 140 109
f 108 135 139
f 109 140 110
f 110 141 142
f 110 142 143
f 110 143 112
f 110 112 111
f 110 140 141
f 112 143 144
f 112 144 145
f 112 145 114
f 112 114 113
f 114 145 146
f 114 146 147
f 114 147 148
f 114 148 115
f 115 148 116
f 116 148 149
f 116 149 150
f 116 150 117
f 117 150 151
f 117 151 118
f 118 151 119
f 119 151 152
f 119 152 153
f 119 153 120
f 120 153 154
f 120 154 121
f 121 155 122
f 121 154 156
f 121 156 157
f 121 157 155
f 124 125 158
f 124 158 126
f 126 158 159
f 126 159 160
f 126 160 128
f 127 128 160
f 127 160 161
f 127 161 162
f 127 162 163
f 127 163 129
f 129 163 164
f 129 164 165
f 129 165 136
f 129 136 130
f 131 138 166
f 131 166 167
f 131 167 132
f 132 167 168
f 132 168 169
f 132 169 133
f 133 169 170
f 133 170 171
f 133 171 134
f 134 171 135
f 135 171 172
f 135 172 139
f 136 165 173
f 136 173 174
f 136 174 137
f 137 175 176
f 137 176 166
f 137 166 138
f 137 174 175
f 139 172 140
f 140 177 178
f 140 178 141
f 140 172 177
f 141 178 179
f 141 179 142
f 142 179 180
f 142 180 143
f 143 180 144
f 144 180 181
f 144 181 145
f 145 181 146
f 146 181 182
f 146 182 147
f 147 182 183
f 147 183 184
f 147 184 148
f 148 184 185
f 148 185 149
f 149 185 150
f 150 185 186
f 150 186 187
f 150 187 151
f 151 187 188
f 151 188 152
f 152 188 153
f 153 188 189
f 153 189 154
f 154 189 190
f 158 191 227
f 158 227 192
f 158 192 159
f 159 192 193
f 159 193 160
f 160 193 161
f 161 193 194
f 161 194 195
f 161 195 162
f 162 195 196
f 162 196 197
f 162 197 164
f 162 164 163
f 164 197 198
f 164 198 199
f 164 199 165
f 165 199 173
f 166 200 167
f 166 176 200
f 167 200 168
f 168 200 169
f 169 200 240
f 169 240 201
f 169 201 170
f 170 201 171
f 171 201 172
f 172 202 203
f 172 203 177
f 172 201 202
f 173 199 204
f 173 204 205
f 173 205 175
f 173 175 174
f 175 205 200
f 175 200 176
f 177 203 178
f 178 206 179
f 178 203 206
f 179 207 208
f 179 208 209
f 179 209 180
f 179 206 207
f 180 209 210
f 180 210 181
f 181 210 211
f 181 211 212
f 181 212 182
f 182 212 213
f 182 213 214
f 182 214 215
f 182 215 183
f 183 215 184
f 184 215 216
f 184 216 185
f 185 216 217
f 185 217 218
f 185 218 186
f 186 218 219
f 186 219 187
f 187 219 188
f 188 219 220
f 188 220 221
f 188 221 189
f 189 221 222
f 189 222 223
f 189 223 190
f 191 224 225
f 191 225 226
f 191 226 227
f 192 227 228
f 192 228 193
f 193 229 230
f 193 230 194
f 193 228 229
f 194 230 231
f 194 231 232
f 194 232 195
f 195 233 234
f 195 234 196
f 195 232 233
f 196 235 266
f 196 266 236
f 196 236 198
f 196 198 197
f 196 234 235
f 198 236 237
f 198 237 238
f 198 238 204
f 198 204 199
f 200 205 204
f 200 204 238
f 200 238 237
f 200 237 267
f 200 267 239
f 200 239 270
f 200 270 240
f 201 240 202
f 202 241 203
f 202 240 241
f 203 241 242
f 203 242 243
f 203 243 206
f 206 243 207
f 207 244 208
f 207 243 244
f 208 244 245
f 208 245 246
f 208 246 209
f 209 246 247
f 209 247 210
f 210 247 248
f 210 248 211
f 211 248 249
f 211 249 212
f 212 249 213
f 213 249 250
f 213 250 214
f 214 250 215
f 215 250 216
f 216 250 217
f 217 250 218
f 218 250 251
f 218 251 219
f 219 251 252
f 219 252 220
f 220 252 253
f 220 253 221
f 221 253 222
f 222 253 254
f 224 255 256
f 224 256 257
f 224 257 225
f 225 258 226
f 225 257 259
f 225 259 260
f 225 260 261
f 225 261 258
f 226 258 229
f 226 229 227
f 227 229 228
f 229 258 262
f 229 262 231
f 229 231 230
f 231 262 233
f 231 233 232
f 233 263 235
f 233 235 234
f 233 262 263
f 235 263 264
f 235 264 265
f 235 265 266
f 236 266 267
f 236 267 237
f 239 267 268
f 239 268 269
f 239 269 305
f 239 305 270
f 240 270 271
f 240 271 241
f 241 272 273
f 241 273 242
f 241 271 272
f 242 273 274
f 242 274 243
f 243 275 276
f 243 276 244
f 243 274 275
f 244 276 277
f 244 277 278
f 244 278 245
f 245 278 279
f 245 279 312
f 245 312 280
f 245 280 246
f 246 280 281
f 246 281 282
f 246 282 248
f 246 248 247
f 248 282 283
f 248 283 249
f 249 283 250
f 250 284 287
f 250 287 251
f 250 283 285
f 250 285 286
f 250 286 315
f 250 315 284
f 251 287 288
f 251 288 252
f 252 288 289
f 252 289 290
f 252 290 253
f 253 290 291
f 253 291 254
f 255 292 293
f 255 293 256
f 256 293 294
f 256 294 259
f 256 259 257
f 258 261 295
f 258 295 262
f 259 294 260
f 260 294 296
f 260 296 297
f 260 297 298
f 260 298 295
f 260 295 261
f 262 295 263
f 263 299 300
f 263 300 264
f 263 295 299
f 264 300 265
f 265 300 301
f 265 301 302
f 265 302 268
f 265 268 267
f 265 267 266
f 268 302 269
f 269 302 303
f 269 303 304
f 269 304 305
f 270 305 306
f 270 306 272
f 270 272 271
f 272 306 307
f 272 307 273
f 273 307 275
f 273 275 274
f 275 308 309
f 275 309 277
f 275 277 276
f 275 307 308
f 277 309 310
f 277 310 279
f 277 279 278
f 279 310 311
f 279 311 312
f 280 312 313
f 280 313 281
f 281 313 315
f 281 315 286
f 281 286 282
f 282 286 285
f 282 285 283
f 284 314 324
f 284 324 287
f 284 315 316
f 284 316 317
f 284 317 318
f 284 318 319
f 284 319 320
f 284 320 321
f 284 321 322
f 284 322 323
f 284 323 314
f 287 324 289
f 287 289 288
f 289 324 325
f 289 325 290
f 290 325 326
f 290 326 327
f 290 327 291
f 292 328 329
f 292 329 293
f 293 329 294
f 294 329 330
f 294 330 296
f 295 298 299
f 296 330 331
f 296 331 297
f 297 331 332
f 297 332 333
f 297 333 334
f 297 334 335
f 297 335 298
f 298 335 299
f 299 335 300
f 300 335 336
f 300 336 337
f 300 337 301
f 301 337 302
f 302 338 339
f 302 339 303
f 302 337 338
f 303 339 340
f 303 340 341
f 303 341 304
f 304 341 305
f 305 341 342
f 305 342 306
f 306 342 307
f 307 342 343
f 307 343 344
f 307 344 308
f 308 344 345
f 308 345 309
f 309 345 310
f 310 345 346
f 310 346 311
f 311 346 347
f 311 347 348
f 311 348 349
f 311 349 313
f 311 313 312
f 313 349 315
f 314 323 350
f 314 350 351
f 314 351 357
f 314 357 324
f 315 349 316
f 316 349 317
f 317 349 348
f 317 348 318
f 318 348 352
f 318 352 353
f 318 353 319
f 319 353 354
f 319 354 320
f 320 354 321
f 321 354 355
f 321 355 356
f 321 356 322
f 322 356 350
f 322 350 323
f 324 357 358
f 324 358 325
f 325 358 326
f 326 358 359
f 326 359 360
f 326 360 327
f 328 361 329
f 329 362 363
f 329 363 330
f 329 361 364
f 329 364 362
f 330 363 331
f 331 363 365
f 331 365 366
f 331 366 332
f 332 366 333
f 333 366 367
f 333 367 368
f 333 368 369
f 333 369 370
f 333 370 334
f 334 370 335
f 335 370 336
f 336 370 337
f 337 370 371
f 337 371 372
f 337 372 338
f 338 372 339
f 339 372 373
f 339 373 374
f 339 374 375
f 339 375 340
f 340 375 341
f 341 375 342
f 342 376 377
f 342 377 343
f 342 375 376
f 343 377 344
f 344 378 345
f 344 377 378
f 345 379 380
f 345 380 346
f 345 378 379
f 346 380 381
f 346 381 347
f 347 381 348
f 348 381 352
f 350 356 382
f 350 382 383
f 350 383 384
f 350 384 351
f 351 384 388
f 351 388 357
f 352 381 385
f 352 385 353
f 353 385 354
f 354 385 386
f 354 386 387
f 354 387 355
f 355 387 356
f 356 387 382
f 357 388 358
f 358 388 389
f 358 389 390
f 358 390 359
f 359 390 391
f 359 391 392
f 359 392 360
f 362 393 363
f 362 364 394
f 362 394 393
f 363 393 395
f 363 395 396
f 363 396 365
f 365 396 366
f 366 396 397
f 366 397 367
f 367 397 398
f 367 398 368
f 368 398 399
f 368 399 400
f 368 400 401
f 368 401 402
f 368 402 369
f 369 402 371
f 369 371 370
f 371 402 403
f 371 403 372
f 372 403 404
f 372 404 373
f 373 404 433
f 373 433 405
f 373 405 374
f 374 405 375
f 375 405 406
f 375 406 376
f 376 406 377
f 377 406 407
f 377 407 408
f 377 408 378
f 378 408 379
f 379 409 380
f 379 408 409
f 380 409 410
f 380 410 385
f 380 385 381
f 382 387 411
f 382 411 412
f 382 412 413
f 382 413 383
f 383 413 384
f 384 413 414
f 384 414 416
f 384 416 388
f 385 410 415
f 385 415 386
f 386 415 411
f 386 411 387
f 388 416 417
f 388 417 389
f 389 417 390
f 390 417 418
f 390 418 391
f 391 418 419
f 391 419 420
f 393 421 422
f 393 422 395
f 393 394 423
f 393 423 421
f 395 422 396
f 396 422 424
f 396 424 425
f 396 425 397
f 397 425 398
f 398 425 426
f 398 426 427
f 398 427 399
f 399 427 400
f 400 427 428
f 400 428 450
f 400 450 429
f 400 429 430
f 400 430 401
f 401 430 402
f 402 430 403
f 403 430 404
f 404 430 431
f 404 431 432
f 404 432 433
f 405 433 434
f 405 434 406
f 406 434 435
f 406 435 407
f 407 435 408
f 408 436 437
f 408 437 409
f 408 435 436
f 409 437 410
f 410 437 415
f 411 415 437
f 411 437 438
f 411 438 439
f 411 439 412
f 412 439 413
f 413 439 440
f 413 440 414
f 414 440 441
f 414 441 442
f 414 442 416
f 416 442 443
f 416 443 417
f 417 443 418
f 418 443 444
f 418 444 419
f 419 444 445
f 419 445 446
f 419 446 447
f 419 447 420
f 421 448 449
f 421 449 422
f 421 423 448
f 422 449 424
f 424 449 425
f 425 449 426
f 426 449 427
f 427 449 428
f 428 449 450
f 429 450 451
f 429 451 452
f 429 452 430
f 430 452 431
f 431 452 453
f 431 453 454
f 431 454 432
f 432 454 433
f 433 454 434
f 434 455 435
f 434 454 455
f 435 455 456
f 435 456 457
f 435 457 436
f 436 457 437
f 437 457 438
f 438 457 439
f 439 457 458
f 439 458 459
f 439 459 440
f 440 459 460
f 440 460 441
f 441 460 461
f 441 461 442
f 442 461 462
f 442 462 443
f 443 462 444
f 444 462 463
f 444 463 445
f 445 464 465
f 445 465 446
f 445 463 466
f 445 466 464
f 448 467 449
f 449 451 450
f 449 467 468
f 449 468 469
f 449 469 451
f 451 469 483
f 451 483 470
f 451 470 471
f 451 471 452
f 452 471 453
f 453 471 454
f 454 471 455
f 455 472 473
f 455 473 456
f 455 471 472
f 456 473 457
f 457 473 458
f 458 473 459
f 459 473 474
f 459 474 475
f 459 475 460
f 460 475 476
f 460 476 461
f 461 476 462
f 462 476 477
f 462 477 478
f 462 478 463
f 463 478 479
f 463 479 466
f 464 466 480
f 464 480 481
f 466 479 480
f 468 482 496
f 468 496 483
f 468 483 469
f 470 483 484
f 470 484 471
f 471 484 472
f 472 484 474
f 472 474 473
f 474 484 475
f 475 484 485
f 475 485 486
f 475 486 476
f 476 486 477
f 477 486 487
f 477 487 488
f 477 488 478
f 478 488 479
f 479 488 489
f 479 489 490
f 479 490 491
f 479 491 480
f 480 491 492
f 480 492 493
f 480 493 481
f 481 493 494
f 482 495 496
f 483 496 486
f 483 486 485
f 483 485 484
f 486 496 487
f 487 496 488
f 488 496 489
f 489 496 490
f 490 496 497
f 490 497 491
f 491 497 492
f 492 494 493
f 492 497 498
f 492 498 499
f 492 499 500
f 492 500 494
f 495 498 497
f 495 497 496