# https://github.com/mikedh/trimesh

o coacd_hull_07_oriented.ply
v 0.09472197 0.00860733 0.00794600
v 0.09497230 0.00772760 0.00786834
v 0.09586394 0.00801639 0.00793979
v 0.09622397 0.00867135 0.00784271
v 0.09569237 0.00897215 0.00784193
v 0.06855786 0.01101040 0.00564797
v 0.06855786 0.01066158 0.00576524
v 0.06855786 0.00991258 0.00593998
v 0.06855786 0.00937901 0.00595240
v 0.06855786 0.00896482 0.00593144
v 0.09412286 0.00749549 0.00747459
v 0.09578519 0.00728807 0.00727888
v 0.09619021 0.00742813 0.00743032
v 0.09654744 0.00779629 0.00765477
v 0.06855786 0.00804107 0.00567670
v 0.06855786 0.00788300 0.00560137
v 0.06855786 0.00725272 0.00520374
v 0.06855786 0.00718602 0.00515947
v 0.06855786 0.00655240 0.00441857
v 0.06855786 0.00643101 0.00426402
v 0.09651931 0.00827718 0.00780931
v 0.09683715 0.00842257 0.00767496
v 0.09673870 0.00883943 0.00754526
v 0.09610301 0.00918158 0.00753594
v 0.09466289 0.00922160 0.00765865
v 0.06855786 0.01120249 0.00555633
v 0.09636742 0.00736610 0.00696124
v 0.09628585 0.00736610 0.00719733
v 0.09535484 0.00721737 0.00714375
v 0.09672745 0.00750816 0.00724082
v 0.09694403 0.00759620 0.00718879
v 0.09711279 0.00783431 0.00731460
v 0.09698904 0.00801506 0.00753750
v 0.06855786 0.00627494 0.00388192
v 0.09728999 0.00825450 0.00701172
v 0.09706497 0.00866402 0.00710492
v 0.09692715 0.00882809 0.00711656
v 0.09669933 0.00901017 0.00712045
v 0.09634773 0.00918759 0.00709249
v 0.09597082 0.00931364 0.00700085
v 0.09472759 0.00948839 0.00727344
v 0.07015269 0.01246372 0.00442245
v 0.06855786 0.01207888 0.00493347
v 0.06918509 0.01198084 0.00502900
v 0.07021175 0.01171739 0.00525965
v 0.06855786 0.01151063 0.00534586
v 0.09690183 0.00759020 0.00668166
v 0.09062661 0.00731608 0.00352933
v 0.09110196 0.00735943 0.00363107
v 0.06855786 0.00626294 0.00348351
v 0.06855786 0.00629962 0.00292124
v 0.09725063 0.00781564 0.00686028
v 0.09719718 0.00829452 0.00673136
v 0.09703122 0.00868136 0.00692396
v 0.09649681 0.00902551 0.00678883
v 0.09495261 0.00954308 0.00676553
v 0.09000500 0.01016336 0.00331110
v 0.09438163 0.00962845 0.00673990
v 0.07011612 0.01295394 0.00313714
v 0.07017800 0.01284456 0.00359923
v 0.06985453 0.01272584 0.00397745
v 0.06930886 0.01261846 0.00423373
v 0.06855786 0.01224763 0.00472534
v 0.09691872 0.00776228 0.00650458
v 0.09070256 0.00742346 0.00330722
v 0.09114134 0.00755752 0.00337246
v 0.08695318 0.00719602 0.00300201
v 0.07121871 0.00682719 0.00033974
v 0.06855786 0.00630963 0.00288241
v 0.07107244 0.00684320 0.00028071
v 0.07104994 0.00677450 0.00059369
v 0.09682590 0.00825250 0.00639741
v 0.09668244 0.00866935 0.00650458
v 0.09075318 0.00987856 0.00342527
v 0.09050567 0.00999061 0.00340041
v 0.09039879 0.01015936 0.00382367
v 0.08969560 0.01032543 0.00382445
v 0.08937213 0.01035544 0.00355030
v 0.09057879 0.00985388 0.00328858
v 0.09017658 0.00976384 0.00309442
v 0.08959715 0.01004864 0.00312704
v 0.07152249 0.01188346 0.00048574
v 0.07185720 0.01195550 0.00063718
v 0.06957889 0.01283856 0.00193415
v 0.07001205 0.01289592 0.00225722
v 0.08202244 0.01137790 0.00440071
v 0.06973921 0.01302598 0.00256943
v 0.06935950 0.01304999 0.00298259
v 0.06957045 0.01292860 0.00348662
v 0.06855786 0.01287391 0.00366990
v 0.06855786 0.01268382 0.00409782
v 0.09154357 0.00764756 0.00356739
v 0.07119058 0.00691857 0.00014558
v 0.07215534 0.00703462 0.00013005
v 0.07680200 0.00720336 0.00079717
v 0.08048950 0.00733209 0.00137109
v 0.07728860 0.00739812 0.00071873
v 0.07772458 0.00753351 0.00078163
v 0.08549055 0.00787633 0.00223548
v 0.09060411 0.00789901 0.00324121
v 0.09074195 0.00938234 0.00319461
v 0.06855786 0.00645903 0.00246380
v 0.06855786 0.00646836 0.00244517
v 0.06855786 0.00677117 0.00188211
v 0.06855786 0.00687655 0.00170504
v 0.07080242 0.00695925 0.00024732
v 0.09113291 0.00953708 0.00339964
v 0.07673731 0.00772226 0.00063951
v 0.07130872 0.01181877 0.00044769
v 0.06855786 0.01262580 0.00178503
v 0.06911197 0.01271450 0.00179668
v 0.06855786 0.01295995 0.00220596
v 0.06887852 0.01301464 0.00230071
v 0.06921323 0.01305065 0.00245060
v 0.06901352 0.01298463 0.00335770
v 0.06868443 0.01307533 0.00281018
v 0.06855786 0.01303398 0.00311928
v 0.06855786 0.01301530 0.00324121
v 0.06855786 0.00870270 0.00072882
v 0.07165749 0.00710265 0.00001278
v 0.07629852 0.00758553 0.00058127
v 0.07213286 0.00727139 0.00004229
v 0.06855786 0.00716935 0.00128799
v 0.06855786 0.00727339 0.00116451
v 0.06855786 0.00738011 0.00106433
v 0.06855786 0.00749016 0.00099055
v 0.06855786 0.00763222 0.00091521
v 0.06855786 0.00800039 0.00082513
v 0.06855786 0.00814779 0.00080027
v 0.06855786 0.00867936 0.00073115
v 0.07103869 0.01175274 0.00046555
v 0.06886163 0.01161668 0.00081503
v 0.06909227 0.01193148 0.00093929
v 0.06855786 0.01253976 0.00169728
v 0.06855786 0.01285857 0.00205996
v 0.06855786 0.01307066 0.00277756
v 0.06855786 0.01146061 0.00100297
v 0.06855786 0.01175607 0.00116606
v 0.06855786 0.01210556 0.00137964
f 1 2 3
f 1 3 4
f 1 4 5
f 1 5 6
f 1 6 7
f 1 7 8
f 1 8 9
f 1 9 10
f 1 10 2
f 2 11 12
f 2 12 13
f 2 13 14
f 2 14 3
f 2 10 15
f 2 15 16
f 2 16 17
f 2 17 18
f 2 18 19
f 2 19 20
f 2 20 11
f 3 14 21
f 3 21 4
f 4 21 22
f 4 22 23
f 4 23 5
f 5 23 24
f 5 24 25
f 5 25 26
f 5 26 6
f 6 26 46
f 6 46 43
f 6 43 63
f 6 63 91
f 6 91 90
f 6 90 118
f 6 118 117
f 6 117 136
f 6 136 112
f 6 112 135
f 6 135 110
f 6 110 134
f 6 134 139
f 6 139 138
f 6 138 137
f 6 137 119
f 6 119 130
f 6 130 129
f 6 129 128
f 6 128 127
f 6 127 126
f 6 126 125
f 6 125 124
f 6 124 123
f 6 123 105
f 6 105 104
f 6 104 103
f 6 103 102
f 6 102 69
f 6 69 51
f 6 51 50
f 6 50 34
f 6 34 20
f 6 20 19
f 6 19 18
f 6 18 17
f 6 17 16
f 6 16 15
f 6 15 10
f 6 10 9
f 6 9 8
f 6 8 7
f 11 20 12
f 12 27 28
f 12 28 13
f 12 20 29
f 12 29 27
f 13 28 30
f 13 30 14
f 14 30 31
f 14 31 32
f 14 32 33
f 14 33 21
f 20 34 29
f 21 33 22
f 22 33 35
f 22 35 23
f 23 35 36
f 23 36 37
f 23 37 38
f 23 38 24
f 24 39 40
f 24 40 41
f 24 41 25
f 24 38 39
f 25 41 42
f 25 42 43
f 25 43 44
f 25 44 45
f 25 45 26
f 26 45 46
f 27 47 31
f 27 31 30
f 27 30 28
f 27 29 48
f 27 48 49
f 27 49 47
f 29 34 50
f 29 50 51
f 29 51 48
f 31 52 32
f 31 47 52
f 32 52 35
f 32 35 33
f 35 52 53
f 35 53 54
f 35 54 36
f 36 54 37
f 37 54 38
f 38 55 39
f 38 54 55
f 39 55 40
f 40 56 41
f 40 55 57
f 40 57 56
f 41 56 58
f 41 58 59
f 41 59 60
f 41 60 61
f 41 61 62
f 41 62 42
f 42 62 63
f 42 63 43
f 43 46 44
f 44 46 45
f 47 64 52
f 47 49 65
f 47 65 66
f 47 66 64
f 48 65 49
f 48 51 67
f 48 67 68
f 48 68 65
f 51 69 70
f 51 70 68
f 51 68 71
f 51 71 67
f 52 64 53
f 53 64 72
f 53 72 73
f 53 73 54
f 54 73 55
f 55 73 74
f 55 74 75
f 55 75 57
f 56 57 76
f 56 76 77
f 56 77 58
f 57 78 76
f 57 75 79
f 57 79 80
f 57 80 81
f 57 81 82
f 57 82 83
f 57 83 84
f 57 84 85
f 57 85 78
f 58 77 86
f 58 86 59
f 59 87 88
f 59 88 89
f 59 89 60
f 59 86 87
f 60 89 61
f 61 89 90
f 61 90 62
f 62 90 91
f 62 91 63
f 64 66 92
f 64 92 72
f 65 68 93
f 65 93 94
f 65 94 95
f 65 95 96
f 65 96 97
f 65 97 98
f 65 98 66
f 66 98 99
f 66 99 100
f 66 100 101
f 66 101 92
f 67 71 68
f 68 70 93
f 69 102 70
f 70 102 103
f 70 103 104
f 70 104 105
f 70 105 106
f 70 106 93
f 72 92 107
f 72 107 73
f 73 107 74
f 74 107 79
f 74 79 75
f 76 78 77
f 77 78 87
f 77 87 86
f 78 85 87
f 79 107 80
f 80 107 101
f 80 101 98
f 80 98 108
f 80 108 82
f 80 82 81
f 82 108 109
f 82 109 110
f 82 110 111
f 82 111 84
f 82 84 83
f 84 111 112
f 84 112 113
f 84 113 114
f 84 114 85
f 85 114 87
f 87 114 88
f 88 115 89
f 88 114 116
f 88 116 117
f 88 117 118
f 88 118 115
f 89 115 90
f 90 115 118
f 92 101 107
f 93 106 119
f 93 119 120
f 93 120 94
f 94 120 97
f 94 97 95
f 95 97 96
f 97 121 108
f 97 108 98
f 97 120 122
f 97 122 121
f 98 101 99
f 99 101 100
f 105 123 106
f 106 123 124
f 106 124 125
f 106 125 126
f 106 126 127
f 106 127 128
f 106 128 129
f 106 129 130
f 106 130 119
f 108 121 122
f 108 122 109
f 109 122 120
f 109 120 131
f 109 131 132
f 109 132 133
f 109 133 110
f 110 135 111
f 110 133 134
f 111 135 112
f 112 136 113
f 113 136 114
f 114 136 116
f 116 136 117
f 119 137 132
f 119 132 120
f 120 132 131
f 132 137 138
f 132 138 139
f 132 139 134
f 132 134 133

