# https://github.com/mikedh/trimesh
v 0.03817642 0.01798031 0.01541658
v 0.05665793 0.01798383 0.01537188
v -0.00420400 0.01800498 0.01514752
v -0.00420400 0.01798736 0.01533983
v -0.00420400 0.01797326 0.01549334
v 0.05665793 0.01795916 0.01555069
v -0.00420400 0.01800498 0.00860147
v -0.00420400 0.01796973 0.01550683
v 0.01971089 0.01795916 0.01555069
v -0.00420400 0.01788514 0.01581722
v 0.05665793 0.01781464 0.01597832
v -0.00420400 0.01787456 0.01585518
v -0.00420400 0.01785694 0.01589145
v -0.00420400 -0.01800498 0.00860147
v 0.03817642 0.01775472 0.01610062
v 0.05665793 0.01773357 0.01614195
v 0.01971089 0.01781464 0.01597832
v 0.05665793 0.01768774 0.01621955
v -0.00420400 0.01771947 0.01617063
v -0.00420400 0.01771242 0.01618244
v -0.00420400 0.01770537 0.01619340
v -0.00420400 0.01780054 0.01600700
v -0.00420400 -0.01800498 0.01514752
v 0.05665793 0.01752560 0.01644138
v 0.01971089 0.01768774 0.01621955
v 0.05665793 0.01746568 0.01650970
v -0.00420400 0.01749740 0.01647849
v -0.00420400 0.01752208 0.01644560
v 0.00122939 0.01760667 0.01633004
v -0.00420400 -0.01798736 0.01533983
v 0.01971089 0.01752560 0.01644138
v 0.01971089 0.01746568 0.01650970
v -0.00420400 0.01739518 0.01657802
v 0.05665793 0.01719426 0.01675936
v -0.00420400 0.01723304 0.01673322
v 0.05665793 -0.01798383 0.01537188
v 0.03817642 -0.01798031 0.01541658
v -0.00420400 -0.01797326 0.01549334
v 0.05665793 0.01703917 0.01686311
v 0.03817642 0.01715549 0.01678551
v -0.00420400 0.01695810 0.01691793
v -0.00420400 0.01692285 0.01694071
v 0.00122939 0.01675366 0.01701662
v -0.00420400 0.01659504 0.01708747
v -0.00420400 0.01706737 0.01684455
v 0.05665793 -0.01795916 0.01555069
v 0.01971089 -0.01795916 0.01555069
v -0.00420400 -0.01796973 0.01550683
v 0.05665793 0.01635535 0.01715157
v -0.00420400 0.01658094 0.01709253
v -0.00420400 0.01656684 0.01709674
v 0.05665793 -0.01773357 0.01614195
v 0.03817642 -0.01775472 0.01610062
v 0.01971089 -0.01781464 0.01597832
v -0.00420400 -0.01787456 0.01585518
v -0.00420400 -0.01788514 0.01581722
v 0.03817642 0.01630952 0.01716338
v 0.00122939 0.01640117 0.01713976
v 0.05665793 0.01617205 0.01719037
v 0.05665793 0.01589006 0.01721398
v -0.00420400 0.01623198 0.01718278
v -0.00420400 0.01621788 0.01718615
v -0.00420400 0.01620378 0.01718784
v -0.00420400 0.01643994 0.01712964
v 0.05665793 -0.01768774 0.01621955
v -0.00420400 -0.01770537 0.01619340
v -0.00420400 -0.01771242 0.01618244
v -0.00420400 -0.01771947 0.01617063
v -0.00420400 -0.01780054 0.01600700
v 0.03817642 0.01612271 0.01719458
v 0.01971089 0.01598171 0.01720639
v 0.01971089 0.01589006 0.01721398
v -0.00420400 0.01584424 0.01721736
v -0.00420400 0.01598876 0.01720555
v 0.00122939 0.01603106 0.01720218
v 0.05665793 -0.01752560 0.01644138
v 0.05665793 -0.01746568 0.01650970
v -0.00420400 -0.01746920 0.01650633
v -0.00420400 -0.01749740 0.01647849
v 0.01971089 -0.01768774 0.01621955
v 0.00122939 -0.01760667 0.01633004
v -0.00420400 -0.01752208 0.01644560
v -0.00420400 0.01585482 0.01721651
v 0.05665793 -0.01589006 0.01721398
v -0.00420400 -0.01584424 0.01721736
v 0.01971089 -0.01752560 0.01644138
v 0.05665793 -0.01719426 0.01675936
v -0.00420400 -0.01723304 0.01673322
v -0.00420400 -0.01735641 0.01661513
v 0.03817642 -0.01612271 0.01719458
v 0.05665793 -0.01617205 0.01719037
v 0.01971089 -0.01589006 0.01721398
v -0.00420400 -0.01620378 0.01718784
v 0.03817642 -0.01630952 0.01716338
v 0.05665793 -0.01635535 0.01715157
v -0.00420400 -0.01621788 0.01718615
v -0.00420400 -0.01623198 0.01718278
v -0.00420400 -0.01585482 0.01721651
v -0.00420400 -0.01659504 0.01708747
v -0.00420400 -0.01661971 0.01707650
v 0.00122939 -0.01675366 0.01701662
v -0.00420400 -0.01692285 0.01694071
v -0.00420400 -0.01706737 0.01684455
v 0.03817642 -0.01715549 0.01678551
v 0.00122939 -0.01603106 0.01720218
v 0.00122939 -0.01640117 0.01713976
v -0.00420400 -0.01656684 0.01709674
v -0.00420400 -0.01658094 0.01709253
v -0.00420400 -0.01643994 0.01712964
v 0.07242455 0.01800188 0.01518040
v 0.07242455 0.01800317 0.01516723
v 0.07242455 0.01800498 0.01514752
v 0.07242455 0.01800498 0.01492417
v 0.07242455 0.01800438 0.01515408
v 0.07242455 0.01800498 0.01514752
v 0.07242455 0.01800317 0.01516723
v 0.07242455 0.01800438 0.01515408
v 0.07242455 0.01797050 0.01550022
v 0.07242455 0.01797180 0.01548706
v 0.07242455 0.01796985 0.01550637
v 0.07242455 0.01797050 0.01550022
v 0.07242455 0.01796818 0.01551326
v 0.07242455 0.01796985 0.01550637
v 0.07242455 0.01800498 0.00860147
v 0.07242455 0.01677633 0.00860147
v 0.07242455 0.01787492 0.01585388
v 0.07242455 0.01788696 0.01581056
v 0.07242455 0.01785390 0.01589720
v 0.07242455 0.01786578 0.01587322
v 0.07242455 0.01787456 0.01585518
v 0.07242455 0.01787492 0.01585388
v 0.07242455 0.01787396 0.01585642
v 0.07242455 0.01787456 0.01585518
v 0.07242455 0.01786578 0.01587322
v 0.07242455 0.01787396 0.01585642
v 0.07242455 0.01771266 0.01618204
v 0.07242455 0.01771552 0.01617651
v 0.07242455 0.01771242 0.01618244
v 0.07242455 0.01771266 0.01618204
v 0.07242455 0.01771218 0.01618281
v 0.07242455 0.01771242 0.01618244
v 0.07242455 0.01770880 0.01618788
v 0.07242455 0.01771218 0.01618281
v 0.07242455 -0.01800498 0.01492417
v 0.07242455 -0.01800498 0.01514752
v 0.07242455 0.01750153 0.01647305
v 0.07242455 0.01752529 0.01644055
v 0.07242455 0.01749878 0.01647668
v 0.07242455 0.01750153 0.01647305
v 0.07242455 0.01749740 0.01647849
v 0.07242455 0.01749878 0.01647668
v 0.07242455 0.01749585 0.01648001
v 0.07242455 0.01749740 0.01647849
v 0.07242455 0.01749275 0.01648306
v 0.07242455 0.01749585 0.01648001
v 0.07242455 -0.01800498 0.01514752
v 0.07242455 -0.01800438 0.01515408
v 0.07242455 0.01723857 0.01672792
v 0.07242455 0.01726713 0.01670047
v 0.07242455 0.01720463 0.01675225
v 0.07242455 0.01722736 0.01673705
v 0.07242455 0.01723304 0.01673322
v 0.07242455 0.01723857 0.01672792
v 0.07242455 0.01722736 0.01673705
v 0.07242455 0.01723304 0.01673322
v 0.07242455 0.01722736 0.01673705
v 0.07242455 0.01722736 0.01673705
v 0.07242455 -0.01800317 0.01516723
v 0.07242455 -0.01800188 0.01518040
v 0.07242455 -0.01800438 0.01515408
v 0.07242455 -0.01800317 0.01516723
v 0.07242455 0.01692405 0.01693993
v 0.07242455 0.01693989 0.01692934
v 0.07242455 0.01692285 0.01694071
v 0.07242455 0.01692405 0.01693993
v 0.07242455 0.01691665 0.01694349
v 0.07242455 0.01692285 0.01694071
v 0.07242455 0.01691167 0.01694572
v 0.07242455 0.01691665 0.01694349
v 0.07242455 -0.01796985 0.01550637
v 0.07242455 -0.01796818 0.01551326
v 0.07242455 -0.01797050 0.01550022
v 0.07242455 -0.01796985 0.01550637
v 0.07242455 -0.01797180 0.01548706
v 0.07242455 -0.01797050 0.01550022
v 0.07242455 0.01658094 0.01709253
v 0.07242455 0.01658142 0.01709236
v 0.07242455 0.01658046 0.01709267
v 0.07242455 0.01658094 0.01709253
v 0.07242455 0.01654788 0.01710118
v 0.07242455 0.01658046 0.01709267
v 0.07242455 -0.01786578 0.01587316
v 0.07242455 -0.01785390 0.01589720
v 0.07242455 -0.01787163 0.01586119
v 0.07242455 -0.01786578 0.01587316
v 0.07242455 -0.01787456 0.01585518
v 0.07242455 -0.01787163 0.01586119
v 0.07242455 -0.01787492 0.01585388
v 0.07242455 -0.01787456 0.01585518
v 0.07242455 -0.01788696 0.01581056
v 0.07242455 -0.01787492 0.01585388
v 0.07242455 0.01622459 0.01718448
v 0.07242455 0.01623802 0.01718108
v 0.07242455 0.01616984 0.01719023
v 0.07242455 0.01621116 0.01718677
v 0.07242455 0.01621836 0.01718604
v 0.07242455 0.01622459 0.01718448
v 0.07242455 0.01621788 0.01718615
v 0.07242455 0.01621836 0.01718604
v 0.07242455 0.01621740 0.01718621
v 0.07242455 0.01621788 0.01718615
v 0.07242455 0.01621116 0.01718677
v 0.07242455 0.01621740 0.01718621
v 0.07242455 -0.01771218 0.01618281
v 0.07242455 -0.01770880 0.01618788
v 0.07242455 -0.01771242 0.01618244
v 0.07242455 -0.01771218 0.01618281
v 0.07242455 -0.01771266 0.01618204
v 0.07242455 -0.01771242 0.01618244
v 0.07242455 -0.01771552 0.01617651
v 0.07242455 -0.01771266 0.01618204
v 0.07242455 0.01584424 0.01721736
v 0.07242455 0.01585095 0.01721686
v 0.07242455 0.01476304 0.01721736
v 0.07242455 0.01584424 0.01721736
v 0.07242455 -0.01752529 0.01644055
v 0.07242455 -0.01750153 0.01647305
v 0.07242455 -0.01749644 0.01647944
v 0.07242455 -0.01749275 0.01648306
v 0.07242455 -0.01749740 0.01647849
v 0.07242455 -0.01749644 0.01647944
v 0.07242455 -0.01749878 0.01647668
v 0.07242455 -0.01749740 0.01647849
v 0.07242455 -0.01750153 0.01647305
v 0.07242455 -0.01749878 0.01647668
v 0.07242455 -0.01584648 0.01721719
v 0.07242455 -0.01584424 0.01721736
v 0.07242455 -0.01585095 0.01721686
v 0.07242455 -0.01584648 0.01721719
v 0.07242455 -0.01722736 0.01673705
v 0.07242455 -0.01722736 0.01673705
v 0.07242455 -0.01723304 0.01673322
v 0.07242455 -0.01722736 0.01673705
v 0.07242455 -0.01723725 0.01672919
v 0.07242455 -0.01723304 0.01673322
v 0.07242455 -0.01726713 0.01670047
v 0.07242455 -0.01723725 0.01672919
v 0.07242455 -0.01621116 0.01718677
v 0.07242455 -0.01616984 0.01719023
v 0.07242455 -0.01623802 0.01718108
v 0.07242455 -0.01622459 0.01718448
v 0.07242455 -0.01621740 0.01718621
v 0.07242455 -0.01621116 0.01718677
v 0.07242455 -0.01621788 0.01718615
v 0.07242455 -0.01621740 0.01718621
v 0.07242455 -0.01621836 0.01718604
v 0.07242455 -0.01621788 0.01718615
v 0.07242455 -0.01622459 0.01718448
v 0.07242455 -0.01621836 0.01718604
v 0.07242455 -0.01691251 0.01694534
v 0.07242455 -0.01691167 0.01694572
v 0.07242455 -0.01691665 0.01694349
v 0.07242455 -0.01691251 0.01694534
v 0.07242455 -0.01692285 0.01694071
v 0.07242455 -0.01691665 0.01694349
v 0.07242455 -0.01692778 0.01693743
v 0.07242455 -0.01692285 0.01694071
v 0.07242455 -0.01693989 0.01692934
v 0.07242455 -0.01692778 0.01693743
v 0.07242455 -0.01696262 0.01691414
v 0.07242455 -0.01693989 0.01692934
v 0.07242455 -0.01658046 0.01709267
v 0.07242455 -0.01654788 0.01710118
v 0.07242455 -0.01658094 0.01709253
v 0.07242455 -0.01658046 0.01709267
v 0.07242455 -0.01658142 0.01709236
v 0.07242455 -0.01658094 0.01709253
v 0.07242455 0.01797180 0.01548706
v 0.07242455 0.01800188 0.01518040
v 0.07242455 0.01800498 0.01492417
v 0.07242455 0.01800498 0.00860147
v 0.07242455 0.01788696 0.01581056
v 0.07242455 0.01796818 0.01551326
v 0.07242455 0.01677633 0.00860147
v 0.07242455 -0.01800498 0.00860147
v 0.07242455 0.01771552 0.01617651
v 0.07242455 0.01785390 0.01589720
v 0.07242455 0.01752529 0.01644055
v 0.07242455 0.01770880 0.01618788
v 0.07242455 -0.01800498 0.00860147
v 0.07242455 -0.01800498 0.01492417
v 0.07242455 0.01726713 0.01670047
v 0.07242455 0.01749275 0.01648306
v 0.07242455 0.01693989 0.01692934
v 0.07242455 0.01720463 0.01675225
v 0.07242455 -0.01800188 0.01518040
v 0.07242455 -0.01797180 0.01548706
v 0.07242455 0.01658142 0.01709236
v 0.07242455 0.01691167 0.01694572
v 0.07242455 -0.01796818 0.01551326
v 0.07242455 -0.01788696 0.01581056
v 0.07242455 0.01623802 0.01718108
v 0.07242455 0.01654788 0.01710118
v 0.07242455 -0.01785390 0.01589720
v 0.07242455 -0.01771552 0.01617651
v 0.07242455 0.01585095 0.01721686
v 0.07242455 0.01616984 0.01719023
v 0.07242455 -0.01770880 0.01618788
v 0.07242455 -0.01752529 0.01644055
v 0.07242455 -0.01584424 0.01721736
v 0.07242455 0.01476304 0.01721736
v 0.07242455 -0.01749275 0.01648306
v 0.07242455 -0.01726713 0.01670047
v 0.07242455 -0.01616984 0.01719023
v 0.07242455 -0.01585095 0.01721686
v 0.07242455 -0.01722736 0.01673705
v 0.07242455 -0.01696262 0.01691414
v 0.07242455 -0.01654788 0.01710118
v 0.07242455 -0.01623802 0.01718108
v 0.07242455 -0.01691167 0.01694572
v 0.07242455 -0.01658142 0.01709236
f 9 6 5
f 37 171 182
f 30 37 38
f 6 9 10
f 1 4 5
f 18 21 25
f 49 51 58
f 71 63 72
f 93 92 105
f 93 91 90
f 84 90 91
f 84 92 93
f 93 90 84
f 46 47 38
f 46 56 47
f 78 77 89
f 8 9 5
f 8 10 9
f 32 27 33
f 33 26 32
f 64 58 51
f 49 58 57
f 71 72 60
f 75 72 63
f 93 105 98
f 98 92 85
f 98 105 92
f 238 84 249
f 38 47 48
f 47 56 48
f 77 229 246
f 69 53 68
f 104 103 88
f 15 22 19
f 19 16 15
f 15 16 11
f 11 17 15
f 15 17 22
f 21 28 29
f 29 25 21
f 31 28 27
f 25 29 31
f 31 29 28
f 40 41 39
f 43 42 44
f 111 1 118
f 58 64 61
f 61 57 58
f 70 63 71
f 71 60 70
f 74 75 63
f 73 72 83
f 72 75 83
f 75 74 83
f 53 69 54
f 54 69 55
f 68 53 52
f 99 261 276
f 45 40 35
f 41 40 45
f 49 203 190
f 187 178 44
f 13 17 11
f 22 17 13
f 159 154 26
f 60 306 307
f 63 70 59
f 59 70 60
f 46 300 301
f 66 81 82
f 82 86 79
f 82 81 86
f 86 81 80
f 80 81 66
f 66 65 80
f 243 271 104
f 97 109 106
f 106 94 97
f 106 109 107
f 95 94 106
f 106 107 95
f 39 173 160
f 127 122 6
f 304 220 52
f 308 226 65
f 101 100 102
f 147 289 18
f 95 318 250
f 124 7 3
f 3 112 124
f 14 7 285
f 7 124 285
f 14 285 23
f 285 156 23
f 4 112 3
f 4 114 112
f 73 85 310
f 310 222 73
f 180 38 182
f 38 37 182
f 111 114 1
f 114 4 1
f 170 23 156
f 170 30 23
f 170 171 37
f 37 30 170
f 238 310 85
f 85 92 238
f 92 84 238
f 231 78 79
f 231 79 230
f 231 229 77
f 77 78 231
f 249 84 248
f 248 84 91
f 18 25 31
f 31 24 18
f 118 1 5
f 5 123 118
f 73 222 306
f 306 72 73
f 306 60 72
f 300 38 180
f 300 46 38
f 244 88 89
f 245 88 244
f 89 77 244
f 77 246 244
f 252 93 96
f 96 254 252
f 252 248 91
f 252 91 93
f 137 129 11
f 11 16 137
f 137 16 19
f 19 139 137
f 49 57 207
f 207 203 49
f 165 35 167
f 35 40 167
f 172 41 42
f 42 177 172
f 39 41 172
f 172 173 39
f 44 50 187
f 187 50 186
f 179 177 42
f 42 43 179
f 179 43 44
f 44 178 179
f 122 123 5
f 5 6 122
f 153 149 24
f 153 31 27
f 24 31 153
f 153 32 26
f 27 32 153
f 26 154 153
f 192 53 197
f 53 54 197
f 55 199 197
f 197 54 55
f 243 88 245
f 243 104 88
f 102 103 266
f 266 264 102
f 103 104 266
f 104 271 266
f 107 7 14
f 3 7 107
f 96 93 107
f 62 61 107
f 14 23 107
f 107 35 33
f 107 4 3
f 107 103 102
f 107 85 73
f 107 30 38
f 33 27 107
f 42 41 107
f 107 69 68
f 89 88 107
f 5 4 107
f 12 10 107
f 107 8 5
f 38 48 107
f 73 83 107
f 21 20 107
f 44 42 107
f 107 50 44
f 107 98 85
f 107 78 89
f 23 30 107
f 107 82 79
f 107 45 35
f 107 28 21
f 107 63 62
f 107 56 55
f 107 13 12
f 79 78 107
f 88 103 107
f 68 67 107
f 10 8 107
f 19 22 107
f 107 20 19
f 27 28 107
f 102 100 107
f 51 50 107
f 107 64 51
f 93 98 107
f 107 48 56
f 55 69 107
f 107 61 64
f 107 74 63
f 107 83 74
f 107 67 66
f 107 99 108
f 107 97 96
f 41 45 107
f 22 13 107
f 66 82 107
f 107 100 99
f 109 97 107
f 19 20 141
f 141 139 19
f 141 20 21
f 21 140 141
f 289 140 21
f 289 21 18
f 191 50 51
f 186 50 191
f 191 51 49
f 49 190 191
f 209 61 62
f 62 208 209
f 209 207 57
f 57 61 209
f 160 167 40
f 160 40 39
f 11 129 135
f 135 13 11
f 12 13 135
f 135 133 12
f 33 35 158
f 158 35 165
f 158 26 33
f 158 159 26
f 60 307 205
f 205 59 60
f 55 56 201
f 201 199 55
f 56 46 201
f 46 301 201
f 304 53 192
f 304 52 53
f 218 67 68
f 219 67 218
f 68 52 218
f 52 220 218
f 86 80 76
f 76 80 65
f 99 100 260
f 261 99 260
f 264 262 101
f 102 264 101
f 262 260 101
f 101 260 100
f 259 254 96
f 96 97 259
f 108 99 277
f 277 99 276
f 24 149 147
f 18 24 147
f 126 10 12
f 12 133 126
f 6 10 126
f 126 127 6
f 62 63 213
f 213 208 62
f 59 205 213
f 63 59 213
f 66 67 214
f 214 67 219
f 214 65 66
f 214 308 65
f 230 79 234
f 79 86 234
f 86 76 234
f 234 76 65
f 65 226 234
f 251 259 97
f 251 97 94
f 275 107 108
f 108 277 275
f 107 275 318
f 318 95 107
f 111 118 250
f 250 124 112
f 250 170 156
f 112 114 250
f 250 262 264
f 250 114 111
f 250 285 124
f 250 156 285
f 250 118 123
f 250 238 249
f 222 310 250
f 139 141 250
f 276 261 250
f 180 182 250
f 250 231 230
f 250 306 222
f 250 182 171
f 123 122 250
f 250 147 149
f 250 300 180
f 199 201 250
f 261 260 250
f 171 170 250
f 250 252 254
f 186 191 250
f 250 172 177
f 249 248 250
f 310 238 250
f 250 126 133
f 250 246 229
f 229 231 250
f 192 197 250
f 245 244 250
f 250 214 219
f 129 137 250
f 250 277 276
f 165 167 250
f 250 187 186
f 177 179 250
f 250 135 129
f 149 153 250
f 250 158 165
f 250 244 246
f 208 213 250
f 250 243 245
f 248 252 250
f 250 137 139
f 264 266 250
f 250 190 203
f 203 207 250
f 250 209 208
f 173 172 250
f 178 187 250
f 250 179 178
f 250 160 173
f 154 159 250
f 250 153 154
f 250 307 306
f 250 301 300
f 250 197 199
f 250 304 192
f 219 218 250
f 271 243 250
f 250 266 271
f 250 141 140
f 140 289 250
f 250 191 190
f 207 209 250
f 167 160 250
f 122 127 250
f 133 135 250
f 159 158 250
f 250 205 307
f 250 201 301
f 220 304 250
f 250 218 220
f 226 308 250
f 250 260 262
f 254 259 250
f 230 234 250
f 289 147 250
f 127 126 250
f 250 213 205
f 308 214 250
f 250 234 226
f 259 251 250
f 250 275 277
f 250 318 275
f 250 251 94
f 94 95 250

