# https://github.com/mikedh/trimesh

o decomp_15.obj
v -0.03264938 0.01800498 -0.00866791 0.67058824 0.20784314 0.12549020
v -0.03264938 0.00860952 -0.00866791 0.67058824 0.20784314 0.12549020
v -0.03264938 0.01800498 -0.01458599 0.67058824 0.20784314 0.12549020
v -0.07268752 0.01800498 -0.00866791 0.67058824 0.20784314 0.12549020
v -0.03265348 -0.00768668 -0.00866791 0.67058824 0.20784314 0.12549020
v -0.03264938 0.00890375 -0.01516590 0.67058824 0.20784314 0.12549020
v -0.03264938 0.01800246 -0.01522667 0.67058824 0.20784314 0.12549020
v -0.03573555 0.01800498 -0.01521992 0.67058824 0.20784314 0.12549020
v -0.07268752 0.01800498 -0.01521992 0.67058824 0.20784314 0.12549020
v -0.07298711 0.01797983 -0.00866791 0.67058824 0.20784314 0.12549020
v -0.03287510 -0.00768668 -0.01332910 0.67058824 0.20784314 0.12549020
v -0.03264938 0.01001783 -0.01702717 0.67058824 0.20784314 0.12549020
v -0.03264938 0.01000274 -0.01701872 0.67058824 0.20784314 0.12549020
v -0.03264938 0.00972359 -0.01683809 0.67058824 0.20784314 0.12549020
v -0.03264938 0.00971353 -0.01683133 0.67058824 0.20784314 0.12549020
v -0.03264938 0.00944445 -0.01658485 0.67058824 0.20784314 0.12549020
v -0.03264938 0.00933631 -0.01645570 0.67058824 0.20784314 0.12549020
v -0.03264938 0.00922817 -0.01630292 0.67058824 0.20784314 0.12549020
v -0.03264938 0.00914266 -0.01615604 0.67058824 0.20784314 0.12549020
v -0.03264938 0.00906722 -0.01599819 0.67058824 0.20784314 0.12549020
v -0.03264938 0.00900435 -0.01582768 0.67058824 0.20784314 0.12549020
v -0.03264938 0.00895908 -0.01566223 0.67058824 0.20784314 0.12549020
v -0.03264938 0.00892639 -0.01548666 0.67058824 0.20784314 0.12549020
v -0.03264938 0.00891130 -0.01531362 0.67058824 0.20784314 0.12549020
v -0.07457534 -0.00768668 -0.00866791 0.67058824 0.20784314 0.12549020
v -0.03264938 0.01799744 -0.01530180 0.67058824 0.20784314 0.12549020
v -0.07268752 0.01796977 -0.01557951 0.67058824 0.20784314 0.12549020
v -0.07275729 0.01796977 -0.01557360 0.67058824 0.20784314 0.12549020
v -0.07282295 0.01796977 -0.01555756 0.67058824 0.20784314 0.12549020
v -0.07288451 0.01796977 -0.01553055 0.67058824 0.20784314 0.12549020
v -0.07294197 0.01796977 -0.01549510 0.67058824 0.20784314 0.12549020
v -0.07299121 0.01796977 -0.01545036 0.67058824 0.20784314 0.12549020
v -0.07303226 0.01796977 -0.01539971 0.67058824 0.20784314 0.12549020
v -0.07306098 0.01796977 -0.01534232 0.67058824 0.20784314 0.12549020
v -0.07307740 0.01796977 -0.01528238 0.67058824 0.20784314 0.12549020
v -0.07308561 0.01796977 -0.01521992 0.67058824 0.20784314 0.12549020
v -0.03264938 0.01798235 -0.01546556 0.67058824 0.20784314 0.12549020
v -0.03264938 0.01797229 -0.01557107 0.67058824 0.20784314 0.12549020
v -0.07308561 0.01796977 -0.00866791 0.67058824 0.20784314 0.12549020
v -0.03297359 -0.00768668 -0.01532206 0.67058824 0.20784314 0.12549020
v -0.03264938 0.01003292 -0.01703392 0.67058824 0.20784314 0.12549020
v -0.07457534 0.01704934 -0.00866791 0.67058824 0.20784314 0.12549020
v -0.07457534 -0.00768668 -0.01637636 0.67058824 0.20784314 0.12549020
v -0.07268752 0.01787421 -0.01592813 0.67058824 0.20784314 0.12549020
v -0.07282295 0.01787421 -0.01591716 0.67058824 0.20784314 0.12549020
v -0.03264938 0.01796977 -0.01558626 0.67058824 0.20784314 0.12549020
v -0.05420743 0.01795971 -0.01562256 0.67058824 0.20784314 0.12549020
v -0.07295428 0.01787421 -0.01588508 0.67058824 0.20784314 0.12549020
v -0.07307740 0.01787421 -0.01583275 0.67058824 0.20784314 0.12549020
v -0.07318821 0.01787421 -0.01576184 0.67058824 0.20784314 0.12549020
v -0.07328670 0.01787421 -0.01567490 0.67058824 0.20784314 0.12549020
v -0.07336467 0.01787421 -0.01557360 0.67058824 0.20784314 0.12549020
v -0.07342213 0.01787421 -0.01546218 0.67058824 0.20784314 0.12549020
v -0.07345907 0.01787421 -0.01534232 0.67058824 0.20784314 0.12549020
v -0.07316769 0.01794965 -0.00866791 0.67058824 0.20784314 0.12549020
v -0.07346727 0.01787421 -0.01521992 0.67058824 0.20784314 0.12549020
v -0.03299001 -0.00768668 -0.01548497 0.67058824 0.20784314 0.12549020
v -0.03264938 0.01034979 -0.01717235 0.67058824 0.20784314 0.12549020
v -0.07443991 0.01723292 -0.00866791 0.67058824 0.20784314 0.12549020
v -0.07457534 0.01704934 -0.01521992 0.67058824 0.20784314 0.12549020
v -0.07457534 0.01584221 -0.01637636 0.67058824 0.20784314 0.12549020
v -0.07443991 -0.00768668 -0.01655024 0.67058824 0.20784314 0.12549020
v -0.07268752 0.01771326 -0.01625480 0.67058824 0.20784314 0.12549020
v -0.05420743 0.01788678 -0.01588424 0.67058824 0.20784314 0.12549020
v -0.03264938 0.01787672 -0.01591969 0.67058824 0.20784314 0.12549020
v -0.03573555 0.01787421 -0.01592813 0.67058824 0.20784314 0.12549020
v -0.03264938 0.01775853 -0.01616617 0.67058824 0.20784314 0.12549020
v -0.07288451 0.01771326 -0.01623876 0.67058824 0.20784314 0.12549020
v -0.07307740 0.01771326 -0.01619234 0.67058824 0.20784314 0.12549020
v -0.03264938 0.01794965 -0.01565886 0.67058824 0.20784314 0.12549020
v -0.07325797 0.01771326 -0.01611637 0.67058824 0.20784314 0.12549020
v -0.07342213 0.01771326 -0.01601254 0.67058824 0.20784314 0.12549020
v -0.07356167 0.01771326 -0.01588508 0.67058824 0.20784314 0.12549020
v -0.07367658 0.01771326 -0.01573736 0.67058824 0.20784314 0.12549020
v -0.07376276 0.01771326 -0.01557360 0.67058824 0.20784314 0.12549020
v -0.07381200 0.01771326 -0.01539971 0.67058824 0.20784314 0.12549020
v -0.07382842 0.01771326 -0.01521992 0.67058824 0.20784314 0.12549020
v -0.07346727 0.01787421 -0.00866791 0.67058824 0.20784314 0.12549020
v -0.07374224 0.01775349 -0.00866791 0.67058824 0.20784314 0.12549020
v -0.03301874 -0.00768668 -0.01564535 0.67058824 0.20784314 0.12549020
v -0.03264938 0.01070438 -0.01726014 0.67058824 0.20784314 0.12549020
v -0.07443991 0.01723292 -0.01521992 0.67058824 0.20784314 0.12549020
v -0.07421829 0.01744165 -0.00866791 0.67058824 0.20784314 0.12549020
v -0.07457534 0.01703676 -0.01532037 0.67058824 0.20784314 0.12549020
v -0.07457534 0.01621944 -0.01632149 0.67058824 0.20784314 0.12549020
v -0.07443991 0.01584221 -0.01655024 0.67058824 0.20784314 0.12549020
v -0.07423061 -0.00768668 -0.01674017 0.67058824 0.20784314 0.12549020
v -0.07268752 0.01749950 -0.01655024 0.67058824 0.20784314 0.12549020
v -0.07294197 0.01749950 -0.01652998 0.67058824 0.20784314 0.12549020
v -0.03264938 0.01771829 -0.01624721 0.67058824 0.20784314 0.12549020
v -0.03264938 0.01771074 -0.01626071 0.67058824 0.20784314 0.12549020
v -0.05420743 0.01768811 -0.01629194 0.67058824 0.20784314 0.12549020
v -0.03264938 0.01789684 -0.01584794 0.67058824 0.20784314 0.12549020
v -0.03264938 0.01783146 -0.01601592 0.67058824 0.20784314 0.12549020
v -0.07318821 0.01749950 -0.01647005 0.67058824 0.20784314 0.12549020
v -0.07342213 0.01749950 -0.01637213 0.67058824 0.20784314 0.12549020
v -0.07363143 0.01749950 -0.01623876 0.67058824 0.20784314 0.12549020
v -0.07381200 0.01749950 -0.01607501 0.67058824 0.20784314 0.12549020
v -0.07395975 0.01749950 -0.01588508 0.67058824 0.20784314 0.12549020
v -0.07406645 0.01749950 -0.01567490 0.67058824 0.20784314 0.12549020
v -0.07413622 0.01749950 -0.01545036 0.67058824 0.20784314 0.12549020
v -0.07382842 0.01771326 -0.00866791 0.67058824 0.20784314 0.12549020
v -0.07415674 0.01749698 -0.01521992 0.67058824 0.20784314 0.12549020
v -0.07390229 0.01766799 -0.00866791 0.67058824 0.20784314 0.12549020
v -0.03307209 -0.00768668 -0.01582768 0.67058824 0.20784314 0.12549020
v -0.03264938 0.01072953 -0.01726268 0.67058824 0.20784314 0.12549020
v -0.03313365 -0.00768668 -0.01599313 0.67058824 0.20784314 0.12549020
v -0.03321572 -0.00768668 -0.01615351 0.67058824 0.20784314 0.12549020
v -0.03330191 -0.00768668 -0.01629363 0.67058824 0.20784314 0.12549020
v -0.03331833 -0.00768668 -0.01631895 0.67058824 0.20784314 0.12549020
v -0.07441118 0.01723292 -0.01549510 0.67058824 0.20784314 0.12549020
v -0.07457534 0.01701162 -0.01552042 0.67058824 0.20784314 0.12549020
v -0.07415674 0.01749698 -0.00866791 0.67058824 0.20784314 0.12549020
v -0.07457534 0.01647847 -0.01620584 0.67058824 0.20784314 0.12549020
v -0.07433321 0.01658158 -0.01647005 0.67058824 0.20784314 0.12549020
v -0.07441118 0.01621944 -0.01652998 0.67058824 0.20784314 0.12549020
v -0.07413622 0.01621944 -0.01678153 0.67058824 0.20784314 0.12549020
v -0.07415674 0.01584221 -0.01680601 0.67058824 0.20784314 0.12549020
v -0.07415674 -0.00768668 -0.01680601 0.67058824 0.20784314 0.12549020
v -0.07268752 0.01723292 -0.01680601 0.67058824 0.20784314 0.12549020
v -0.03573555 0.01749950 -0.01655024 0.67058824 0.20784314 0.12549020
v -0.07299121 0.01723292 -0.01678153 0.67058824 0.20784314 0.12549020
v -0.07328670 0.01723292 -0.01670978 0.67058824 0.20784314 0.12549020
v -0.03264938 0.01764787 -0.01634681 0.67058824 0.20784314 0.12549020
v -0.07356167 0.01723292 -0.01659329 0.67058824 0.20784314 0.12549020
v -0.07381200 0.01723292 -0.01643460 0.67058824 0.20784314 0.12549020
v -0.07402952 0.01723292 -0.01623876 0.67058824 0.20784314 0.12549020
v -0.07420188 0.01723292 -0.01601254 0.67058824 0.20784314 0.12549020
v -0.07433321 0.01723292 -0.01576184 0.67058824 0.20784314 0.12549020
v -0.07408697 0.01754476 -0.00866791 0.67058824 0.20784314 0.12549020
v -0.03264938 0.01104137 -0.01728800 0.67058824 0.20784314 0.12549020
v -0.03341682 -0.00768668 -0.01645232 0.67058824 0.20784314 0.12549020
v -0.03352762 -0.00768668 -0.01657557 0.67058824 0.20784314 0.12549020
v -0.03353994 -0.00768668 -0.01658823 0.67058824 0.20784314 0.12549020
v -0.07457534 0.01698898 -0.01557951 0.67058824 0.20784314 0.12549020
v -0.07457534 0.01654637 -0.01616448 0.67058824 0.20784314 0.12549020
v -0.07454661 0.01658158 -0.01619234 0.67058824 0.20784314 0.12549020
v -0.07420188 0.01692360 -0.01637213 0.67058824 0.20784314 0.12549020
v -0.07395975 0.01692360 -0.01659329 0.67058824 0.20784314 0.12549020
v -0.07406645 0.01658158 -0.01670978 0.67058824 0.20784314 0.12549020
v -0.07440298 0.01692360 -0.01611637 0.67058824 0.20784314 0.12549020
v -0.07376276 0.01658158 -0.01690477 0.67058824 0.20784314 0.12549020
v -0.07381200 0.01621944 -0.01698581 0.67058824 0.20784314 0.12549020
v -0.07407466 -0.00768668 -0.01685919 0.67058824 0.20784314 0.12549020
v -0.07382842 0.01584221 -0.01701282 0.67058824 0.20784314 0.12549020
v -0.07268752 0.01692360 -0.01701282 0.67058824 0.20784314 0.12549020
v -0.07303226 0.01692360 -0.01698581 0.67058824 0.20784314 0.12549020
v -0.03573555 0.01723292 -0.01680601 0.67058824 0.20784314 0.12549020
v -0.03573555 0.01700156 -0.01696133 0.67058824 0.20784314 0.12549020
v -0.03264938 0.01755734 -0.01647005 0.67058824 0.20784314 0.12549020
v -0.03264938 0.01750201 -0.01654433 0.67058824 0.20784314 0.12549020
v -0.03264938 0.01749195 -0.01655615 0.67058824 0.20784314 0.12549020
v -0.03264938 0.01742657 -0.01661946 0.67058824 0.20784314 0.12549020
v -0.07336467 0.01692360 -0.01690477 0.67058824 0.20784314 0.12549020
v -0.07367658 0.01692360 -0.01677225 0.67058824 0.20784314 0.12549020
v -0.07454661 0.01692360 -0.01583275 0.67058824 0.20784314 0.12549020
v -0.07457534 0.01692360 -0.01574580 0.67058824 0.20784314 0.12549020
v -0.03264938 0.01106904 -0.01728969 0.67058824 0.20784314 0.12549020
v -0.03381901 -0.00768668 -0.01683133 0.67058824 0.20784314 0.12549020
v -0.03410218 -0.00768668 -0.01700438 0.67058824 0.20784314 0.12549020
v -0.07457534 0.01658158 -0.01614254 0.67058824 0.20784314 0.12549020
v -0.07457534 0.01686827 -0.01584119 0.67058824 0.20784314 0.12549020
v -0.07342213 0.01658158 -0.01704827 0.67058824 0.20784314 0.12549020
v -0.07345907 0.01621944 -0.01713606 0.67058824 0.20784314 0.12549020
v -0.07391460 -0.00768668 -0.01695964 0.67058824 0.20784314 0.12549020
v -0.07346727 0.01584221 -0.01716560 0.67058824 0.20784314 0.12549020
v -0.07373813 -0.00768668 -0.01705165 0.67058824 0.20784314 0.12549020
v -0.07382842 -0.00768668 -0.01701282 0.67058824 0.20784314 0.12549020
v -0.05420743 0.01679534 -0.01707022 0.67058824 0.20784314 0.12549020
v -0.07268752 0.01658158 -0.01716560 0.67058824 0.20784314 0.12549020
v -0.03573555 0.01692360 -0.01701282 0.67058824 0.20784314 0.12549020
v -0.07306098 0.01658158 -0.01713606 0.67058824 0.20784314 0.12549020
v -0.03264938 0.01723795 -0.01680010 0.67058824 0.20784314 0.12549020
v -0.03264938 0.01722538 -0.01681023 0.67058824 0.20784314 0.12549020
v -0.03264938 0.01702168 -0.01694782 0.67058824 0.20784314 0.12549020
v -0.03264938 0.01693114 -0.01700775 0.67058824 0.20784314 0.12549020
v -0.03264938 0.01585227 -0.01728969 0.67058824 0.20784314 0.12549020
v -0.03414322 -0.00768668 -0.01702717 0.67058824 0.20784314 0.12549020
v -0.03444691 -0.00768668 -0.01715294 0.67058824 0.20784314 0.12549020
v -0.03449616 -0.00768668 -0.01717235 0.67058824 0.20784314 0.12549020
v -0.03486962 -0.00768668 -0.01726014 0.67058824 0.20784314 0.12549020
v -0.03525539 -0.00768668 -0.01729053 0.67058824 0.20784314 0.12549020
v -0.07307740 0.01621944 -0.01722807 0.67058824 0.20784314 0.12549020
v -0.07308561 0.01584221 -0.01725845 0.67058824 0.20784314 0.12549020
v -0.07327849 0.00000120 -0.01721203 0.67058824 0.20784314 0.12549020
v -0.07346727 -0.00768668 -0.01716560 0.67058824 0.20784314 0.12549020
v -0.07356167 -0.00768668 -0.01712593 0.67058824 0.20784314 0.12549020
v -0.03264938 0.01681797 -0.01706009 0.67058824 0.20784314 0.12549020
v -0.03573555 0.01658158 -0.01716560 0.67058824 0.20784314 0.12549020
v -0.07268752 0.01621944 -0.01725845 0.67058824 0.20784314 0.12549020
v -0.03264938 0.01648350 -0.01719093 0.67058824 0.20784314 0.12549020
v -0.03573555 0.01630997 -0.01723566 0.67058824 0.20784314 0.12549020
v -0.03264938 0.01691605 -0.01701619 0.67058824 0.20784314 0.12549020
v -0.03573555 0.01612387 -0.01726690 0.67058824 0.20784314 0.12549020
v -0.03264938 0.01613394 -0.01726605 0.67058824 0.20784314 0.12549020
v -0.03525539 0.00000120 -0.01729053 0.67058824 0.20784314 0.12549020
v -0.07268752 0.00000120 -0.01729053 0.67058824 0.20784314 0.12549020
v -0.07268752 0.01584221 -0.01728969 0.67058824 0.20784314 0.12549020
v -0.05420743 0.01588999 -0.01728631 0.67058824 0.20784314 0.12549020
v -0.07268752 -0.00768668 -0.01729053 0.67058824 0.20784314 0.12549020
v -0.07298301 -0.00768668 -0.01726690 0.67058824 0.20784314 0.12549020
v -0.07308561 -0.00768668 -0.01725845 0.67058824 0.20784314 0.12549020
v -0.07318410 -0.00768668 -0.01723482 0.67058824 0.20784314 0.12549020
v -0.03264938 0.01658912 -0.01716222 0.67058824 0.20784314 0.12549020
v -0.03264938 0.01657403 -0.01716729 0.67058824 0.20784314 0.12549020
v -0.03264938 0.01622698 -0.01725677 0.67058824 0.20784314 0.12549020
v -0.03573555 0.01621944 -0.01725845 0.67058824 0.20784314 0.12549020
v -0.03264938 0.01620938 -0.01725930 0.67058824 0.20784314 0.12549020
f 1 2 6
f 1 6 24
f 1 24 23
f 1 23 22
f 1 22 21
f 1 21 20
f 1 20 19
f 1 19 18
f 1 18 17
f 1 17 16
f 1 16 15
f 1 15 14
f 1 14 13
f 1 13 12
f 1 12 41
f 1 41 58
f 1 58 81
f 1 81 106
f 1 106 131
f 1 131 158
f 1 158 177
f 1 177 195
f 1 195 208
f 1 208 206
f 1 206 191
f 1 191 205
f 1 205 204
f 1 204 188
f 1 188 193
f 1 193 176
f 1 176 175
f 1 175 174
f 1 174 173
f 1 173 153
f 1 153 152
f 1 152 151
f 1 151 150
f 1 150 124
f 1 124 91
f 1 91 90
f 1 90 67
f 1 67 94
f 1 94 65
f 1 65 93
f 1 93 70
f 1 70 46
f 1 46 38
f 1 38 37
f 1 37 26
f 1 26 7
f 1 7 3
f 1 3 8
f 1 8 9
f 1 9 4
f 1 4 10
f 1 10 39
f 1 39 55
f 1 55 78
f 1 78 79
f 1 79 102
f 1 102 104
f 1 104 130
f 1 130 113
f 1 113 83
f 1 83 59
f 1 59 42
f 1 42 25
f 1 25 5
f 1 5 2
f 2 5 6
f 3 7 8
f 4 9 10
f 5 11 12
f 5 12 13
f 5 13 14
f 5 14 15
f 5 15 16
f 5 16 17
f 5 17 18
f 5 18 19
f 5 19 20
f 5 20 21
f 5 21 22
f 5 22 23
f 5 23 24
f 5 24 6
f 5 25 43
f 5 43 62
f 5 62 87
f 5 87 119
f 5 119 144
f 5 144 165
f 5 165 168
f 5 168 167
f 5 167 187
f 5 187 186
f 5 186 203
f 5 203 202
f 5 202 201
f 5 201 200
f 5 200 182
f 5 182 181
f 5 181 180
f 5 180 179
f 5 179 178
f 5 178 160
f 5 160 159
f 5 159 134
f 5 134 133
f 5 133 132
f 5 132 110
f 5 110 109
f 5 109 108
f 5 108 107
f 5 107 105
f 5 105 80
f 5 80 57
f 5 57 40
f 5 40 11
f 7 26 8
f 8 26 37
f 8 37 9
f 9 27 28
f 9 28 29
f 9 29 30
f 9 30 31
f 9 31 32
f 9 32 33
f 9 33 34
f 9 34 35
f 9 35 36
f 9 36 10
f 9 37 38
f 9 38 27
f 10 36 39
f 11 40 12
f 12 40 41
f 25 42 60
f 25 60 84
f 25 84 112
f 25 112 135
f 25 135 157
f 25 157 162
f 25 162 161
f 25 161 136
f 25 136 114
f 25 114 85
f 25 85 61
f 25 61 43
f 27 44 45
f 27 45 28
f 27 38 46
f 27 46 47
f 27 47 44
f 28 45 48
f 28 48 29
f 29 48 49
f 29 49 30
f 30 49 31
f 31 49 50
f 31 50 51
f 31 51 32
f 32 51 33
f 33 51 52
f 33 52 53
f 33 53 34
f 34 53 54
f 34 54 35
f 35 54 36
f 36 55 39
f 36 54 56
f 36 56 55
f 40 57 58
f 40 58 41
f 42 59 82
f 42 82 60
f 43 61 86
f 43 86 62
f 44 63 45
f 44 47 64
f 44 64 65
f 44 65 66
f 44 66 67
f 44 67 63
f 45 68 69
f 45 69 48
f 45 63 68
f 46 70 47
f 47 70 64
f 48 69 71
f 48 71 49
f 49 71 72
f 49 72 50
f 50 72 51
f 51 72 73
f 51 73 74
f 51 74 52
f 52 74 75
f 52 75 53
f 53 75 54
f 54 75 76
f 54 76 77
f 54 77 56
f 55 56 78
f 56 77 79
f 56 79 78
f 57 80 81
f 57 81 58
f 59 83 82
f 60 82 84
f 61 85 86
f 62 86 87
f 63 88 89
f 63 89 68
f 63 67 90
f 63 90 91
f 63 91 92
f 63 92 88
f 64 70 93
f 64 93 65
f 65 94 66
f 66 94 67
f 68 89 69
f 69 95 96
f 69 96 71
f 69 89 95
f 71 96 72
f 72 96 97
f 72 97 98
f 72 98 73
f 73 98 99
f 73 99 74
f 74 99 75
f 75 99 100
f 75 100 101
f 75 101 76
f 76 101 77
f 77 102 79
f 77 101 103
f 77 103 104
f 77 104 102
f 80 105 81
f 81 105 107
f 81 107 108
f 81 108 109
f 81 109 110
f 81 110 106
f 82 111 112
f 82 112 84
f 82 83 103
f 82 103 101
f 82 101 111
f 83 113 103
f 85 114 115
f 85 115 116
f 85 116 86
f 86 116 117
f 86 117 118
f 86 118 87
f 87 118 119
f 88 120 89
f 88 92 121
f 88 121 148
f 88 148 120
f 89 120 122
f 89 122 123
f 89 123 95
f 91 124 121
f 91 121 92
f 95 123 96
f 96 123 125
f 96 125 126
f 96 126 97
f 97 126 127
f 97 127 98
f 98 127 99
f 99 127 128
f 99 128 129
f 99 129 100
f 100 129 101
f 101 129 111
f 103 113 130
f 103 130 104
f 106 110 132
f 106 132 133
f 106 133 134
f 106 134 131
f 111 129 112
f 112 129 135
f 114 136 137
f 114 137 115
f 115 138 139
f 115 139 140
f 115 140 117
f 115 117 116
f 115 137 141
f 115 141 138
f 117 140 142
f 117 142 143
f 117 143 118
f 118 144 119
f 118 143 145
f 118 145 144
f 120 146 147
f 120 147 122
f 120 148 175
f 120 175 149
f 120 149 146
f 121 124 150
f 121 150 151
f 121 151 152
f 121 152 153
f 121 153 148
f 122 147 123
f 123 154 125
f 123 147 154
f 125 155 139
f 125 139 126
f 125 154 155
f 126 139 127
f 127 139 138
f 127 138 141
f 127 141 128
f 128 141 129
f 129 141 156
f 129 156 157
f 129 157 135
f 131 134 159
f 131 159 160
f 131 160 158
f 136 161 137
f 137 161 141
f 139 155 142
f 139 142 140
f 141 161 162
f 141 162 156
f 142 155 154
f 142 154 163
f 142 163 164
f 142 164 143
f 143 164 145
f 144 145 165
f 145 164 166
f 145 166 167
f 145 167 168
f 145 168 165
f 146 169 170
f 146 170 147
f 146 149 171
f 146 171 193
f 146 193 188
f 146 188 169
f 147 170 172
f 147 172 163
f 147 163 154
f 148 153 173
f 148 173 174
f 148 174 175
f 149 175 176
f 149 176 171
f 156 162 157
f 158 160 178
f 158 178 179
f 158 179 180
f 158 180 181
f 158 181 182
f 158 182 196
f 158 196 177
f 163 172 164
f 164 172 183
f 164 183 184
f 164 184 166
f 166 184 185
f 166 185 186
f 166 186 187
f 166 187 167
f 169 188 189
f 169 189 170
f 170 190 183
f 170 183 172
f 170 189 191
f 170 191 192
f 170 192 190
f 171 176 193
f 177 194 195
f 177 196 197
f 177 197 198
f 177 198 199
f 177 199 194
f 182 200 197
f 182 197 196
f 183 190 198
f 183 198 184
f 184 198 197
f 184 197 201
f 184 201 202
f 184 202 203
f 184 203 185
f 185 203 186
f 188 204 189
f 189 204 205
f 189 205 191
f 190 199 198
f 190 192 206
f 190 206 207
f 190 207 195
f 190 195 194
f 190 194 199
f 191 206 192
f 195 207 208
f 197 200 201
f 206 208 207

