# https://github.com/mikedh/trimesh

o coacd_hull_05_oriented.ply
v 0.04220482 0.01036530 0.00155320
v 0.04220482 0.01035360 0.00174148
v 0.04220482 0.01036317 0.00148706
v 0.03969348 0.00968480 -0.00014069
v 0.04125709 0.01011437 0.00133184
v 0.04220482 0.01022176 0.00190041
v 0.04144695 0.01007290 0.00173068
v 0.04220482 0.00996444 0.00020584
v 0.04157938 0.00996870 -0.00004385
v 0.04134165 0.00998784 -0.00008198
v 0.04082790 0.00994637 0.00000204
v 0.03961689 0.00942962 -0.00023990
v 0.03927067 0.00954552 -0.00012484
v 0.03915739 0.00951043 0.00016333
v 0.03889572 0.00938071 0.00029830
v 0.03863565 0.00924992 0.00043327
v 0.03858459 0.00917443 0.00063978
v 0.04220482 0.01019305 0.00192875
v 0.02590502 0.00328496 0.00166489
v 0.02590502 0.00325094 0.00174722
v 0.02590502 0.00311377 0.00192538
v 0.04220482 0.00984642 0.00013870
v 0.04162087 0.00984855 -0.00013968
v 0.03916856 0.00926800 -0.00021189
v 0.04220482 0.00146889 -0.00100384
v 0.04220482 -0.00049710 -0.00120056
v 0.04142940 0.00107442 -0.00104872
v 0.04146769 -0.00049710 -0.00118537
v 0.04082470 -0.00016111 -0.00112194
v 0.02637729 0.00328709 0.00104874
v 0.02590502 0.00309995 0.00111218
v 0.02590502 0.00311909 0.00112601
v 0.02630230 0.00341362 0.00116988
v 0.02590502 0.00331367 0.00128089
v 0.02590502 0.00333068 0.00133927
v 0.03595359 0.00803141 0.00055677
v 0.03634927 0.00817283 0.00070693
v 0.04220482 0.00970926 0.00216428
v 0.04161767 0.00989640 0.00196688
v 0.02590502 0.00332111 0.00150393
v 0.02590502 0.00309038 0.00194563
v 0.04220482 0.00657367 -0.00031211
v 0.04220482 0.00167836 -0.00097887
v 0.02674904 0.00161562 0.00052100
v 0.03014112 0.00451729 0.00051527
v 0.04165118 -0.00049710 -0.00119043
v 0.04220482 -0.00049710 0.00020821
v 0.04040029 -0.00049710 -0.00107571
v 0.02669799 -0.00049710 0.00038266
v 0.02636453 0.00193460 0.00069174
v 0.02603425 0.00200903 0.00087969
v 0.02590502 -0.00048541 0.00058478
v 0.04220482 0.00967523 0.00218048
v 0.02590502 0.00283094 0.00205192
v 0.02655758 -0.00049710 0.00040560
v 0.02627039 -0.00049710 0.00046094
v 0.02645547 0.00169005 0.00062392
v 0.04220482 0.00871404 0.00219026
v 0.03932651 -0.00049710 0.00074742
v 0.02590502 -0.00049710 0.00058309
v 0.04220482 0.00919357 0.00224661
v 0.02590502 0.00268846 0.00206912
v 0.03925152 -0.00049710 0.00075552
v 0.02822331 -0.00027169 0.00193483
v 0.02816906 -0.00049710 0.00191053
v 0.02848018 -0.00049710 0.00189029
v 0.02590502 -0.00049710 0.00202155
v 0.02590502 0.00238650 0.00209274
v 0.02590502 0.00226528 0.00210186
v 0.02590502 0.00010471 0.00208026
v 0.02590502 -0.00006222 0.00207216
v 0.02590502 -0.00020470 0.00206373
f 1 2 6
f 1 6 18
f 1 18 38
f 1 38 53
f 1 53 61
f 1 61 58
f 1 58 47
f 1 47 26
f 1 26 25
f 1 25 43
f 1 43 42
f 1 42 22
f 1 22 8
f 1 8 3
f 1 3 4
f 1 4 5
f 1 5 2
f 2 5 7
f 2 7 6
f 3 8 9
f 3 9 10
f 3 10 11
f 3 11 4
f 4 12 13
f 4 13 14
f 4 14 5
f 4 11 10
f 4 10 12
f 5 14 15
f 5 15 16
f 5 16 17
f 5 17 7
f 6 7 18
f 7 17 19
f 7 19 20
f 7 20 21
f 7 21 18
f 8 22 23
f 8 23 9
f 9 23 10
f 10 23 12
f 12 24 13
f 12 23 25
f 12 25 26
f 12 26 27
f 12 27 28
f 12 28 29
f 12 29 24
f 13 24 30
f 13 30 31
f 13 31 32
f 13 32 33
f 13 33 34
f 13 34 35
f 13 35 36
f 13 36 14
f 14 36 15
f 15 36 16
f 16 36 37
f 16 37 17
f 17 37 19
f 18 21 39
f 18 39 38
f 19 40 35
f 19 35 34
f 19 34 32
f 19 32 31
f 19 31 52
f 19 52 60
f 19 60 67
f 19 67 72
f 19 72 71
f 19 71 70
f 19 70 69
f 19 69 68
f 19 68 62
f 19 62 54
f 19 54 41
f 19 41 21
f 19 21 20
f 19 37 36
f 19 36 40
f 21 41 39
f 22 42 23
f 23 42 43
f 23 43 25
f 24 29 44
f 24 44 45
f 24 45 30
f 26 46 27
f 26 47 59
f 26 59 63
f 26 63 66
f 26 66 65
f 26 65 67
f 26 67 60
f 26 60 56
f 26 56 55
f 26 55 49
f 26 49 48
f 26 48 28
f 26 28 46
f 27 46 28
f 28 48 29
f 29 48 49
f 29 49 44
f 30 45 50
f 30 50 31
f 31 50 51
f 31 51 52
f 32 34 33
f 35 40 36
f 38 39 53
f 39 41 53
f 41 54 53
f 44 49 55
f 44 55 56
f 44 56 57
f 44 57 50
f 44 50 45
f 47 58 59
f 50 57 60
f 50 60 52
f 50 52 51
f 53 54 61
f 54 62 61
f 56 60 57
f 58 63 59
f 58 61 64
f 58 64 65
f 58 65 66
f 58 66 63
f 61 62 68
f 61 68 69
f 61 69 70
f 61 70 71
f 61 71 72
f 61 72 64
f 64 72 65
f 65 72 67

