# https://github.com/mikedh/trimesh
v -0.03264335 -0.00768769 -0.00866791
v -0.03295579 -0.00768769 -0.01530959
v -0.07456978 -0.00768769 -0.00866791
v -0.03298556 -0.00768769 -0.01548430
v -0.07456978 -0.00768769 -0.01637560
v -0.07456978 -0.01704960 -0.00866791
v -0.03301531 -0.00768769 -0.01565733
v -0.07449539 -0.00768769 -0.01647351
v -0.07456978 -0.01584275 -0.01637560
v -0.07443588 -0.01723139 -0.00866791
v -0.07456978 -0.01704960 -0.01521928
v -0.03305994 -0.00768769 -0.01582698
v -0.07443588 -0.00768769 -0.01654947
v -0.07443588 -0.01584275 -0.01654947
v -0.07456978 -0.01594879 -0.01636294
v -0.07415320 -0.01749800 -0.00866791
v -0.07443588 -0.01723139 -0.01521928
v -0.07456978 -0.01699305 -0.01557884
v -0.03311945 -0.00768769 -0.01597975
v -0.07422759 -0.00768769 -0.01673938
v -0.07415320 -0.01584275 -0.01680521
v -0.07440613 -0.01613058 -0.01654947
v -0.07456978 -0.01615785 -0.01633762
v -0.07415320 -0.01749800 -0.01521928
v -0.07390027 -0.01766767 -0.00866791
v -0.07440613 -0.01721018 -0.01557884
v -0.07456978 -0.01695770 -0.01565142
v -0.03320873 -0.00768769 -0.01615278
v -0.07415320 -0.00768769 -0.01680521
v -0.07382587 -0.01584275 -0.01701200
v -0.07381100 -0.01603060 -0.01701200
v -0.07412343 -0.01608412 -0.01680521
v -0.07456978 -0.01639215 -0.01625406
v -0.07406392 -0.01631842 -0.01680521
v -0.07431685 -0.01640932 -0.01654947
v -0.07412343 -0.01747275 -0.01557884
v -0.07381100 -0.01768585 -0.01557884
v -0.07382587 -0.01771412 -0.01521928
v -0.07382587 -0.01771412 -0.00866791
v -0.07456978 -0.01687186 -0.01582698
v -0.07431685 -0.01714756 -0.01592742
v -0.07406392 -0.01739802 -0.01592742
v -0.03329799 -0.00768769 -0.01630555
v -0.03353604 -0.00768769 -0.01658745
v -0.03341702 -0.00768769 -0.01645156
v -0.07382587 -0.00768769 -0.01701200
v -0.07346880 -0.01584275 -0.01716477
v -0.07345393 -0.01597101 -0.01716477
v -0.07375149 -0.01621238 -0.01701200
v -0.07456978 -0.01649213 -0.01620089
v -0.07454002 -0.01648304 -0.01625406
v -0.07394490 -0.01653758 -0.01680521
v -0.07419783 -0.01667088 -0.01654947
v -0.07366222 -0.01638306 -0.01701200
v -0.07375149 -0.01760101 -0.01592742
v -0.07345393 -0.01784238 -0.01557884
v -0.07346880 -0.01787369 -0.01521928
v -0.07346880 -0.01787369 -0.00866791
v -0.07456978 -0.01682944 -0.01589197
v -0.07454002 -0.01685772 -0.01592742
v -0.07419783 -0.01704556 -0.01625406
v -0.07394490 -0.01727582 -0.01625406
v -0.07366222 -0.01746367 -0.01625406
v -0.03381872 -0.00768769 -0.01683053
v -0.07346880 -0.00768769 -0.01716477
v -0.07308197 -0.01584275 -0.01725761
v -0.07306709 -0.01590840 -0.01725761
v -0.07305221 -0.01597101 -0.01725761
v -0.07340929 -0.01609624 -0.01716477
v -0.07334977 -0.01621238 -0.01716477
v -0.07456978 -0.01664261 -0.01607006
v -0.07439125 -0.01677894 -0.01625406
v -0.07355807 -0.01653758 -0.01701200
v -0.07381100 -0.01673552 -0.01680521
v -0.07401929 -0.01690720 -0.01654947
v -0.07334977 -0.01760101 -0.01625406
v -0.07340929 -0.01775048 -0.01592742
v -0.07305221 -0.01784238 -0.01592742
v -0.07306709 -0.01793833 -0.01557884
v -0.07308197 -0.01797064 -0.01521928
v -0.07308197 -0.01797064 -0.00866791
v -0.07456978 -0.01680621 -0.01592742
v -0.07381100 -0.01711121 -0.01654947
v -0.07355807 -0.01727582 -0.01654947
v -0.03413116 -0.00768769 -0.01702635
v -0.07308197 -0.00768769 -0.01725761
v -0.07268027 -0.01584275 -0.01729053
v -0.07302246 -0.01603060 -0.01725761
v -0.07327539 -0.01631842 -0.01716477
v -0.07318612 -0.01640932 -0.01716477
v -0.07340929 -0.01667088 -0.01701200
v -0.07361758 -0.01690720 -0.01680521
v -0.07327539 -0.01739802 -0.01654947
v -0.07302246 -0.01768585 -0.01625406
v -0.07268027 -0.01787369 -0.01592742
v -0.07268027 -0.01797064 -0.01557884
v -0.07268027 -0.01800397 -0.01521928
v -0.07268027 -0.01800397 -0.00866791
v -0.07340929 -0.01704556 -0.01680521
v -0.07318612 -0.01714756 -0.01680521
v -0.03448824 -0.00768769 -0.01717152
v -0.07268027 -0.00768769 -0.01729053
v -0.01776528 -0.01584376 -0.01729053
v -0.03572312 -0.01612452 -0.01726605
v -0.07268027 -0.01621844 -0.01725761
v -0.07275466 -0.01621238 -0.01725761
v -0.07281416 -0.01619521 -0.01725761
v -0.07287367 -0.01616795 -0.01725761
v -0.07293320 -0.01613058 -0.01725761
v -0.07297783 -0.01608412 -0.01725761
v -0.07306709 -0.01648304 -0.01716477
v -0.07324563 -0.01677894 -0.01701200
v -0.07297783 -0.01747275 -0.01654947
v -0.07268027 -0.01749800 -0.01654947
v -0.07268027 -0.01771412 -0.01625406
v -0.01776528 -0.01797165 -0.01557884
v -0.05420169 -0.01773432 -0.01621355
v -0.07306709 -0.01685772 -0.01701200
v -0.07287367 -0.01690720 -0.01701200
v -0.07293320 -0.01721018 -0.01680521
v -0.03486019 -0.00768769 -0.01725930
v -0.03524702 -0.00768769 -0.01729053
v 0.03816142 -0.01612452 -0.01726605
v -0.01724455 -0.01617199 -0.01726183
v -0.01776528 -0.01626288 -0.01724664
v -0.03572312 -0.01630933 -0.01723482
v -0.07268027 -0.01658201 -0.01716477
v -0.07281416 -0.01657090 -0.01716477
v -0.07294807 -0.01653758 -0.01716477
v -0.07268027 -0.01723139 -0.01680521
v -0.01724455 -0.01746569 -0.01658154
v -0.01776528 -0.01749901 -0.01654947
v -0.05420169 -0.01752527 -0.01651318
v -0.01724455 -0.01768787 -0.01629120
v 0.05663999 -0.01773432 -0.01621355
v -0.07268027 -0.01692336 -0.01701200
v 0.03816142 -0.01766060 -0.01632834
v 0.05663999 -0.01746569 -0.01658154
v -0.01776528 -0.01723240 -0.01680521
v -0.01776528 -0.01692437 -0.01701200
v 0.01969772 -0.01679611 -0.01706939
v 0.03816142 -0.01630933 -0.01723482
v -0.05420169 -0.01711626 -0.01688286
v 0.07242455 -0.01800397 -0.00866791
v 0.07242455 -0.01774607 -0.00866791
v 0.07242455 -0.00855533 -0.01492167
v 0.07242455 -0.00855545 -0.01522337
v 0.07242455 -0.00855568 -0.01548772
v 0.07242455 -0.00855569 -0.01549559
v 0.07242455 -0.00855569 -0.01549559
v 0.07242455 -0.00855570 -0.01550338
v 0.07242455 -0.00855582 -0.01558236
v 0.07242455 -0.00855584 -0.01558997
v 0.07242455 -0.00855666 -0.01592300
v 0.07242455 -0.00855668 -0.01592972
v 0.07242455 -0.00855691 -0.01600073
v 0.07242455 -0.00855694 -0.01600829
v 0.07242455 -0.00855800 -0.01624976
v 0.07242455 -0.00855803 -0.01625625
v 0.07242455 -0.00855948 -0.01648071
v 0.07242455 -0.00855952 -0.01648626
v 0.07242455 -0.00855944 -0.01647473
v 0.07242455 -0.00855948 -0.01648071
v 0.07242455 -0.00856164 -0.01674002
v 0.07242455 -0.00856173 -0.01674937
v 0.07242455 -0.00856492 -0.01700567
v 0.07242455 -0.00856501 -0.01701250
v 0.07242455 -0.00856785 -0.01716039
v 0.07242455 -0.00856795 -0.01716498
v 0.07242455 -0.00857443 -0.01729053
v 0.07242455 -0.00872870 -0.01729053
v 0.07242455 -0.01584374 -0.01729053
v 0.07242455 -0.01584376 -0.01729053
v 0.07242455 -0.01785337 -0.01596914
v 0.07242455 -0.01787369 -0.01592742
v 0.07242455 -0.01796986 -0.01558519
v 0.07242455 -0.01797165 -0.01557884
v 0.07242455 -0.01797165 -0.01557884
v 0.07242455 -0.01797224 -0.01557229
v 0.07242455 -0.01800397 -0.00878733
v 0.07242455 -0.01800397 -0.00866791
v 0.07242455 -0.00857104 -0.01725519
v 0.07242455 -0.00857113 -0.01725766
v 0.07242455 -0.01584376 -0.01729053
v 0.07242455 -0.01586423 -0.01728875
v 0.07242455 -0.01621709 -0.01725773
v 0.07242455 -0.01621844 -0.01725761
v 0.07242455 -0.01621844 -0.01725761
v 0.07242455 -0.01621973 -0.01725729
v 0.07242455 -0.01771335 -0.01625514
v 0.07242455 -0.01771412 -0.01625406
v 0.07242455 -0.01771412 -0.01625406
v 0.07242455 -0.01771706 -0.01624815
v 0.07242455 -0.01771022 -0.01625947
v 0.07242455 -0.01771335 -0.01625514
v 0.07242455 -0.01750452 -0.01654194
v 0.07242455 -0.01751079 -0.01653335
v 0.07242455 -0.01749901 -0.01654947
v 0.07242455 -0.01750452 -0.01654194
v 0.07242455 -0.01749804 -0.01655041
v 0.07242455 -0.01749901 -0.01654947
v 0.07242455 -0.01749415 -0.01655415
v 0.07242455 -0.01749804 -0.01655041
v 0.07242455 -0.01723920 -0.01679869
v 0.07242455 -0.01726641 -0.01677260
v 0.07242455 -0.01723240 -0.01680521
v 0.07242455 -0.01723920 -0.01679869
v 0.07242455 -0.01722347 -0.01681121
v 0.07242455 -0.01723240 -0.01680521
v 0.07242455 -0.01691814 -0.01701479
v 0.07242455 -0.01692437 -0.01701200
v 0.07242455 -0.01658201 -0.01716477
v 0.07242455 -0.01659242 -0.01716013
v 0.07242455 -0.01657538 -0.01716647
v 0.07242455 -0.01658201 -0.01716477
v 0.07242455 -0.01656213 -0.01716988
v 0.07242455 -0.01657538 -0.01716647
v 0.07242455 -0.01621973 -0.01725729
v 0.07242455 -0.01622507 -0.01725595
v 0.07242455 -0.01621159 -0.01725823
v 0.07242455 -0.01621709 -0.01725773
v 0.07242455 -0.00857436 -0.01728976
v 0.07242455 -0.00857443 -0.01729053
v 0.07242455 -0.01774607 -0.00866791
v 0.07242455 -0.01769106 -0.00866791
v 0.07242455 -0.01769106 -0.00866791
v 0.07242455 -0.01767732 -0.00866791
v 0.07242455 -0.01767732 -0.00866791
v 0.07242455 -0.01764849 -0.00866791
v 0.07242455 -0.01764849 -0.00866791
v 0.07242455 -0.01754690 -0.00866791
v 0.07242455 -0.01754690 -0.00866791
v 0.07242455 -0.01750070 -0.00866791
v 0.07242455 -0.01750070 -0.00866791
v 0.07242455 -0.01736063 -0.00866791
v 0.07242455 -0.01736063 -0.00866791
v 0.07242455 -0.01730112 -0.00866791
v 0.07242455 -0.01730112 -0.00866791
v 0.07242455 -0.01712474 -0.00866791
v 0.07242455 -0.01712474 -0.00866791
v 0.07242455 -0.01690483 -0.00866791
v 0.07242455 -0.01690483 -0.00866791
v 0.07242455 -0.01684460 -0.00866791
v 0.07242455 -0.01684460 -0.00866791
v 0.07242455 -0.01652987 -0.00866791
v 0.07242455 -0.01652987 -0.00866791
v 0.07242455 -0.01618946 -0.00866791
v 0.07242455 -0.01618946 -0.00866791
v 0.07242455 -0.01583421 -0.00866791
v 0.07242455 -0.01583421 -0.00866791
v 0.07242455 -0.01575597 -0.00866791
v 0.07242455 -0.01575597 -0.00866791
v 0.07242455 -0.01547325 -0.00866791
v 0.07242455 -0.01547325 -0.00866791
v 0.07242455 -0.00855533 -0.00866791
v 0.07242455 -0.00855533 -0.00866791
v 0.07242455 -0.00855533 -0.01492167
v 0.07242455 -0.00855545 -0.01522337
v 0.07242455 -0.00855568 -0.01548772
v 0.07242455 -0.00855570 -0.01550338
v 0.07242455 -0.00855582 -0.01558236
v 0.07242455 -0.00855584 -0.01558997
v 0.07242455 -0.00855666 -0.01592300
v 0.07242455 -0.00855668 -0.01592972
v 0.07242455 -0.00855691 -0.01600073
v 0.07242455 -0.00855694 -0.01600829
v 0.07242455 -0.00855800 -0.01624976
v 0.07242455 -0.00855952 -0.01648626
v 0.07242455 -0.00855999 -0.01655100
v 0.07242455 -0.00855803 -0.01625625
v 0.07242455 -0.00855944 -0.01647473
v 0.07242455 -0.00856173 -0.01674937
v 0.07242455 -0.00856232 -0.01680617
v 0.07242455 -0.00855999 -0.01655100
v 0.07242455 -0.00856164 -0.01674002
v 0.07242455 -0.00856232 -0.01680617
v 0.07242455 -0.00856492 -0.01700567
v 0.07242455 -0.00856501 -0.01701250
v 0.07242455 -0.00856785 -0.01716039
v 0.07242455 -0.00872870 -0.01729053
v 0.07242455 -0.01584374 -0.01729053
v 0.07242455 -0.01787369 -0.01592742
v 0.07242455 -0.01796986 -0.01558519
v 0.07242455 -0.01797224 -0.01557229
v 0.07242455 -0.01800397 -0.01521928
v 0.07242455 -0.01800397 -0.01521928
v 0.07242455 -0.01800397 -0.00878733
v 0.07242455 -0.00856795 -0.01716498
v 0.07242455 -0.00857104 -0.01725519
v 0.07242455 -0.01771706 -0.01624815
v 0.07242455 -0.01785337 -0.01596914
v 0.07242455 -0.01751079 -0.01653335
v 0.07242455 -0.01771022 -0.01625947
v 0.07242455 -0.01726641 -0.01677260
v 0.07242455 -0.01749415 -0.01655415
v 0.07242455 -0.01692437 -0.01701200
v 0.07242455 -0.01722347 -0.01681121
v 0.07242455 -0.01659242 -0.01716013
v 0.07242455 -0.01691814 -0.01701479
v 0.07242455 -0.01622507 -0.01725595
v 0.07242455 -0.01656213 -0.01716988
v 0.07242455 -0.01586423 -0.01728875
v 0.07242455 -0.01621159 -0.01725823
v 0.07242455 -0.00857184 -0.01726505
v 0.07242455 -0.00857436 -0.01728976
v 0.07242455 -0.00857113 -0.01725766
v 0.07242455 -0.00857184 -0.01726505
f 117 95 115
f 133 115 114
f 146 1 255
f 94 115 95
f 95 78 94
f 113 114 94
f 94 114 115
f 56 80 57
f 56 57 37
f 97 80 96
f 96 116 97
f 96 95 116
f 17 11 18
f 25 16 24
f 37 42 55
f 55 56 37
f 143 130 136
f 136 127 140
f 136 140 143
f 114 130 131
f 99 84 83
f 51 33 35
f 62 42 61
f 61 83 62
f 8 9 5
f 29 21 20
f 14 8 13
f 9 8 14
f 13 20 14
f 14 20 21
f 126 127 105
f 140 127 141
f 79 78 95
f 95 96 79
f 79 56 78
f 80 56 79
f 79 96 80
f 41 61 42
f 38 39 25
f 25 24 38
f 38 24 37
f 37 57 38
f 77 94 78
f 78 56 77
f 56 55 77
f 119 136 130
f 134 115 133
f 139 131 130
f 139 130 143
f 143 140 139
f 114 131 132
f 133 114 132
f 132 134 133
f 52 73 74
f 113 94 93
f 50 33 51
f 72 50 51
f 2 258 148
f 219 216 142
f 87 108 109
f 118 112 129
f 129 119 118
f 87 88 68
f 31 30 47
f 21 30 31
f 26 41 42
f 26 24 17
f 17 18 26
f 26 40 41
f 62 83 63
f 83 84 63
f 63 42 62
f 63 55 42
f 118 119 100
f 113 93 100
f 84 99 100
f 100 93 84
f 100 112 118
f 99 112 100
f 92 99 83
f 83 74 92
f 82 72 60
f 60 72 61
f 61 41 60
f 41 40 60
f 71 72 82
f 50 72 71
f 51 35 53
f 53 72 51
f 52 74 53
f 61 72 53
f 53 34 52
f 35 34 53
f 22 14 21
f 22 34 35
f 22 23 14
f 33 23 22
f 22 35 33
f 9 14 15
f 14 23 15
f 304 121 183
f 43 159 162
f 154 12 153
f 85 167 168
f 273 166 64
f 275 44 269
f 142 126 125
f 125 126 105
f 110 88 87
f 87 109 110
f 87 105 106
f 105 127 106
f 119 129 128
f 127 136 128
f 136 119 128
f 128 106 127
f 129 106 128
f 108 129 111
f 111 129 112
f 67 66 87
f 87 68 67
f 48 31 47
f 48 67 68
f 47 66 48
f 66 67 48
f 34 31 49
f 31 48 49
f 21 31 32
f 32 31 34
f 32 22 21
f 34 22 32
f 123 185 220
f 123 124 104
f 87 103 104
f 104 105 87
f 104 124 105
f 298 299 141
f 36 42 37
f 36 26 42
f 37 24 36
f 24 26 36
f 27 26 18
f 40 26 27
f 84 93 76
f 76 63 84
f 76 93 94
f 94 77 76
f 76 77 55
f 55 63 76
f 120 119 130
f 120 100 119
f 113 100 120
f 120 114 113
f 120 130 114
f 193 174 135
f 205 202 138
f 91 112 99
f 99 92 91
f 91 74 73
f 91 92 74
f 82 60 59
f 59 60 40
f 83 61 75
f 61 53 75
f 75 74 83
f 75 53 74
f 121 304 305
f 182 101 169
f 260 261 7
f 156 19 264
f 273 64 165
f 107 129 108
f 107 106 129
f 107 108 87
f 87 106 107
f 90 109 108
f 108 111 90
f 90 91 73
f 90 111 112
f 112 91 90
f 54 70 73
f 54 49 70
f 54 73 52
f 52 34 54
f 34 49 54
f 70 49 69
f 69 49 48
f 69 48 68
f 88 70 69
f 69 68 88
f 137 292 194
f 89 110 109
f 109 90 89
f 88 110 89
f 89 70 88
f 73 70 89
f 89 90 73
f 269 44 161
f 157 158 28
f 144 98 285
f 285 98 97
f 97 116 285
f 116 177 285
f 175 177 116
f 116 95 175
f 98 81 80
f 97 98 80
f 80 81 58
f 58 57 80
f 170 184 103
f 87 102 103
f 102 122 103
f 103 122 170
f 10 98 144
f 3 6 10
f 144 255 10
f 10 1 3
f 255 1 10
f 10 81 98
f 25 39 10
f 58 81 10
f 10 39 58
f 10 16 25
f 6 11 10
f 10 11 17
f 16 10 24
f 24 10 17
f 30 46 65
f 65 47 30
f 29 46 30
f 30 21 29
f 258 2 1
f 1 146 258
f 66 102 87
f 66 86 102
f 65 86 66
f 66 47 65
f 212 127 126
f 126 216 212
f 142 216 126
f 38 57 58
f 58 39 38
f 139 211 206
f 140 211 139
f 299 211 140
f 140 141 299
f 174 175 95
f 174 95 117
f 117 135 174
f 131 138 202
f 201 132 202
f 202 132 131
f 12 7 261
f 153 12 261
f 19 154 264
f 12 154 19
f 168 101 85
f 169 101 168
f 64 166 167
f 64 167 85
f 104 103 184
f 184 185 104
f 104 185 123
f 298 127 212
f 298 141 127
f 193 135 117
f 117 115 193
f 115 192 193
f 205 139 206
f 131 139 205
f 205 138 131
f 59 6 3
f 3 5 59
f 59 71 82
f 5 9 59
f 59 11 6
f 59 18 11
f 59 27 18
f 33 50 59
f 59 23 33
f 9 15 59
f 50 71 59
f 59 15 23
f 40 27 59
f 170 122 305
f 122 121 305
f 121 101 182
f 183 121 182
f 3 1 28
f 28 122 102
f 28 5 3
f 28 8 5
f 28 46 29
f 102 86 28
f 28 86 65
f 1 2 28
f 65 46 28
f 28 121 122
f 28 2 4
f 29 20 28
f 13 8 28
f 28 20 13
f 85 101 28
f 4 7 28
f 28 64 85
f 28 7 12
f 43 45 28
f 28 101 121
f 12 19 28
f 44 64 28
f 28 45 44
f 165 64 44
f 44 275 165
f 218 105 188
f 218 125 105
f 218 219 142
f 142 125 218
f 188 105 221
f 105 124 221
f 221 124 123
f 123 220 221
f 199 132 201
f 134 132 199
f 199 137 134
f 199 292 137
f 160 45 43
f 43 162 160
f 4 2 150
f 2 148 150
f 150 7 4
f 150 260 7
f 43 28 158
f 158 159 43
f 195 192 115
f 115 134 195
f 134 137 195
f 137 194 195
f 44 45 161
f 45 160 161
f 157 255 144
f 157 218 188
f 157 184 170
f 157 146 255
f 169 168 157
f 177 175 157
f 273 165 157
f 144 285 157
f 157 285 177
f 175 174 157
f 159 158 157
f 212 216 157
f 157 185 184
f 153 261 157
f 206 211 157
f 157 193 192
f 170 305 157
f 157 258 146
f 157 162 159
f 157 154 153
f 157 148 258
f 157 205 206
f 192 195 157
f 157 166 273
f 216 219 157
f 157 150 148
f 211 299 157
f 157 298 212
f 201 202 157
f 157 304 183
f 157 199 201
f 157 182 169
f 264 154 157
f 167 166 157
f 157 168 167
f 157 275 269
f 157 220 185
f 299 298 157
f 174 193 157
f 188 221 157
f 202 205 157
f 157 305 304
f 183 182 157
f 261 260 157
f 157 156 264
f 157 165 275
f 219 218 157
f 157 221 220
f 157 194 292
f 292 199 157
f 157 160 162
f 260 150 157
f 269 161 157
f 157 195 194
f 157 161 160
f 157 28 19
f 19 156 157

