# https://github.com/mikedh/trimesh

o decomp_6.obj
v -0.03228355 -0.00825922 -0.00106523 0.77647059 0.86666667 0.97647059
v -0.01435890 -0.00826399 -0.00106523 0.77647059 0.86666667 0.97647059
v -0.03263721 -0.00825922 -0.00830614 0.77647059 0.86666667 0.97647059
v -0.07457534 -0.00825922 -0.00106523 0.77647059 0.86666667 0.97647059
v -0.01435890 -0.01800498 -0.00106523 0.77647059 0.86666667 0.97647059
v -0.01435890 -0.00831170 -0.00212718 0.77647059 0.86666667 0.97647059
v -0.03265489 -0.00825922 -0.00866706 0.77647059 0.86666667 0.97647059
v -0.07457534 -0.00825922 -0.00866706 0.77647059 0.86666667 0.97647059
v -0.07457534 -0.01705092 -0.00106523 0.77647059 0.86666667 0.97647059
v -0.01435890 -0.01800498 -0.00866706 0.77647059 0.86666667 0.97647059
v -0.07268915 -0.01800498 -0.00106523 0.77647059 0.86666667 0.97647059
v -0.01435890 -0.00835177 -0.00300755 0.77647059 0.86666667 0.97647059
v -0.01435890 -0.00861032 -0.00866706 0.77647059 0.86666667 0.97647059
v -0.07457534 -0.01705092 -0.00866706 0.77647059 0.86666667 0.97647059
v -0.07443977 -0.01723314 -0.00106523 0.77647059 0.86666667 0.97647059
v -0.07268915 -0.01800498 -0.00866706 0.77647059 0.86666667 0.97647059
v -0.07308407 -0.01797159 -0.00106523 0.77647059 0.86666667 0.97647059
v -0.07299566 -0.01797922 -0.00866706 0.77647059 0.86666667 0.97647059
v -0.07443977 -0.01723314 -0.00866706 0.77647059 0.86666667 0.97647059
v -0.07422757 -0.01743350 -0.00866706 0.77647059 0.86666667 0.97647059
v -0.07415684 -0.01749933 -0.00106523 0.77647059 0.86666667 0.97647059
v -0.07329037 -0.01792007 -0.00106523 0.77647059 0.86666667 0.97647059
v -0.07308407 -0.01797159 -0.00866706 0.77647059 0.86666667 0.97647059
v -0.07415684 -0.01749933 -0.00866706 0.77647059 0.86666667 0.97647059
v -0.07408611 -0.01754608 -0.00866706 0.77647059 0.86666667 0.97647059
v -0.07400359 -0.01759950 -0.00106523 0.77647059 0.86666667 0.97647059
v -0.07346721 -0.01787427 -0.00106523 0.77647059 0.86666667 0.97647059
v -0.07346721 -0.01787427 -0.00866706 0.77647059 0.86666667 0.97647059
v -0.07338468 -0.01789526 -0.00866706 0.77647059 0.86666667 0.97647059
v -0.07390928 -0.01766152 -0.00866706 0.77647059 0.86666667 0.97647059
v -0.07382676 -0.01771494 -0.00106523 0.77647059 0.86666667 0.97647059
v -0.07363814 -0.01779986 -0.00106523 0.77647059 0.86666667 0.97647059
v -0.07375013 -0.01774929 -0.00866706 0.77647059 0.86666667 0.97647059
v -0.07382676 -0.01771494 -0.00866706 0.77647059 0.86666667 0.97647059
v -0.07366171 -0.01778936 -0.00106523 0.77647059 0.86666667 0.97647059
f 1 2 3
f 1 3 7
f 1 7 8
f 1 8 4
f 1 4 9
f 1 9 15
f 1 15 21
f 1 21 26
f 1 26 31
f 1 31 35
f 1 35 32
f 1 32 27
f 1 27 22
f 1 22 17
f 1 17 11
f 1 11 5
f 1 5 2
f 2 5 10
f 2 10 13
f 2 13 12
f 2 12 6
f 2 6 7
f 2 7 3
f 4 8 14
f 4 14 9
f 5 11 16
f 5 16 10
f 6 12 7
f 7 12 13
f 7 13 10
f 7 10 16
f 7 16 18
f 7 18 23
f 7 23 29
f 7 29 28
f 7 28 33
f 7 33 34
f 7 34 30
f 7 30 25
f 7 25 24
f 7 24 20
f 7 20 19
f 7 19 14
f 7 14 8
f 9 14 19
f 9 19 15
f 11 17 18
f 11 18 16
f 15 20 21
f 15 19 20
f 17 22 23
f 17 23 18
f 20 24 21
f 21 24 25
f 21 25 26
f 22 27 28
f 22 28 29
f 22 29 23
f 25 30 31
f 25 31 26
f 27 32 28
f 28 32 33
f 30 34 31
f 31 34 35
f 32 35 33
f 33 35 34

