# https://github.com/mikedh/trimesh
v -0.11201223 0.01618214 -0.01905003 0.54117647 0.42352941 0.64313725
v -0.11201223 0.02056844 -0.01905003 0.54117647 0.42352941 0.64313725
v -0.11106788 0.01523657 -0.01905003 0.54117647 0.42352941 0.64313725
v -0.11159734 0.01523657 -0.01901646 0.54117647 0.42352941 0.64313725
v -0.11229277 0.01590175 -0.01901274 0.54117647 0.42352941 0.64313725
v -0.11233228 0.01594873 -0.01901274 0.54117647 0.42352941 0.64313725
v -0.11236389 0.01600167 -0.01901274 0.54117647 0.42352941 0.64313725
v -0.11238760 0.01605909 -0.01901274 0.54117647 0.42352941 0.64313725
v -0.11240340 0.01612024 -0.01901274 0.54117647 0.42352941 0.64313725
v -0.11240735 0.01618214 -0.01901274 0.54117647 0.42352941 0.64313725
v -0.11240735 0.02056844 -0.01901274 0.54117647 0.42352941 0.64313725
v -0.11240735 0.02095920 -0.01897917 0.54117647 0.42352941 0.64313725
v -0.11201223 0.02096516 -0.01901274 0.54117647 0.42352941 0.64313725
v -0.07848986 0.02056844 -0.01905003 0.54117647 0.42352941 0.64313725
v -0.07787741 0.01523657 -0.01905003 0.54117647 0.42352941 0.64313725
v -0.11163686 0.01523657 -0.01901274 0.54117647 0.42352941 0.64313725
v -0.11256540 0.01562956 -0.01891204 0.54117647 0.42352941 0.64313725
v -0.11264443 0.01572277 -0.01891204 0.54117647 0.42352941 0.64313725
v -0.11270765 0.01582717 -0.01891204 0.54117647 0.42352941 0.64313725
v -0.11275506 0.01594052 -0.01891204 0.54117647 0.42352941 0.64313725
v -0.11278272 0.01605984 -0.01891204 0.54117647 0.42352941 0.64313725
v -0.11279457 0.01618214 -0.01891204 0.54117647 0.42352941 0.64313725
v -0.11279457 0.02056844 -0.01891204 0.54117647 0.42352941 0.64313725
v -0.11279457 0.02094130 -0.01887848 0.54117647 0.42352941 0.64313725
v -0.11240735 0.02133877 -0.01887848 0.54117647 0.42352941 0.64313725
v -0.11201223 0.02134995 -0.01891204 0.54117647 0.42352941 0.64313725
v -0.07848986 0.02096516 -0.01901274 0.54117647 0.42352941 0.64313725
v -0.07809868 0.02096516 -0.01897917 0.54117647 0.42352941 0.64313725
v -0.07809078 0.02056844 -0.01901274 0.54117647 0.42352941 0.64313725
v -0.07739536 0.01523657 -0.01901274 0.54117647 0.42352941 0.64313725
v -0.11217423 0.01523657 -0.01891204 0.54117647 0.42352941 0.64313725
v -0.11282223 0.01537378 -0.01874049 0.54117647 0.42352941 0.64313725
v -0.11293682 0.01551025 -0.01874049 0.54117647 0.42352941 0.64313725
v -0.11303165 0.01566312 -0.01874049 0.54117647 0.42352941 0.64313725
v -0.11309882 0.01582867 -0.01874049 0.54117647 0.42352941 0.64313725
v -0.11314229 0.01600316 -0.01874049 0.54117647 0.42352941 0.64313725
v -0.11315414 0.01618214 -0.01874049 0.54117647 0.42352941 0.64313725
v -0.11315414 0.02056844 -0.01874049 0.54117647 0.42352941 0.64313725
v -0.11315414 0.02091222 -0.01871065 0.54117647 0.42352941 0.64313725
v -0.11279457 0.02130297 -0.01878151 0.54117647 0.42352941 0.64313725
v -0.11279457 0.02164228 -0.01862114 0.54117647 0.42352941 0.64313725
v -0.11240735 0.02169373 -0.01871065 0.54117647 0.42352941 0.64313725
v -0.11201223 0.02171163 -0.01874049 0.54117647 0.42352941 0.64313725
v -0.09524709 0.02153116 -0.01882626 0.54117647 0.42352941 0.64313725
v -0.07848986 0.02134995 -0.01891204 0.54117647 0.42352941 0.64313725
v -0.07811449 0.02134995 -0.01887848 0.54117647 0.42352941 0.64313725
v -0.07771936 0.02096516 -0.01887848 0.54117647 0.42352941 0.64313725
v -0.07770751 0.02056844 -0.01891204 0.54117647 0.42352941 0.64313725
v -0.07692516 0.01523657 -0.01891204 0.54117647 0.42352941 0.64313725
v -0.07713063 0.01523657 -0.01895679 0.54117647 0.42352941 0.64313725
v -0.11268394 0.01523657 -0.01874049 0.54117647 0.42352941 0.64313725
v -0.11295658 0.01523657 -0.01860623 0.54117647 0.42352941 0.64313725
v -0.11320156 0.01531860 -0.01851299 0.54117647 0.42352941 0.64313725
v -0.11332009 0.01551472 -0.01851299 0.54117647 0.42352941 0.64313725
v -0.11341097 0.01572799 -0.01851299 0.54117647 0.42352941 0.64313725
v -0.11346234 0.01595245 -0.01851299 0.54117647 0.42352941 0.64313725
v -0.11348209 0.01618214 -0.01851299 0.54117647 0.42352941 0.64313725
v -0.11348209 0.02056844 -0.01851299 0.54117647 0.42352941 0.64313725
v -0.11348209 0.02087270 -0.01848688 0.54117647 0.42352941 0.64313725
v -0.11348209 0.02116725 -0.01840857 0.54117647 0.42352941 0.64313725
v -0.11315414 0.02124555 -0.01862114 0.54117647 0.42352941 0.64313725
v -0.11315414 0.02155801 -0.01847570 0.54117647 0.42352941 0.64313725
v -0.11279457 0.02194951 -0.01840857 0.54117647 0.42352941 0.64313725
v -0.11240735 0.02201588 -0.01848688 0.54117647 0.42352941 0.64313725
v -0.11201223 0.02203750 -0.01851299 0.54117647 0.42352941 0.64313725
v -0.09524709 0.02187494 -0.01862860 0.54117647 0.42352941 0.64313725
v -0.07848986 0.02171163 -0.01874049 0.54117647 0.42352941 0.64313725
v -0.07814610 0.02171163 -0.01871065 0.54117647 0.42352941 0.64313725
v -0.07781024 0.02171163 -0.01862114 0.54117647 0.42352941 0.64313725
v -0.07775492 0.02134995 -0.01878151 0.54117647 0.42352941 0.64313725
v -0.07736375 0.02096516 -0.01871065 0.54117647 0.42352941 0.64313725
v -0.07734400 0.02056844 -0.01874049 0.54117647 0.42352941 0.64313725
v -0.07646287 0.01523657 -0.01874049 0.54117647 0.42352941 0.64313725
v -0.11313043 0.01523657 -0.01851299 0.54117647 0.42352941 0.64313725
v -0.11331219 0.01523657 -0.01837500 0.54117647 0.42352941 0.64313725
v -0.11348209 0.01523657 -0.01823328 0.54117647 0.42352941 0.64313725
v -0.11357297 0.01538720 -0.01823328 0.54117647 0.42352941 0.64313725
v -0.11367570 0.01564074 -0.01823328 0.54117647 0.42352941 0.64313725
v -0.11374288 0.01590846 -0.01823328 0.54117647 0.42352941 0.64313725
v -0.11376263 0.01618214 -0.01823328 0.54117647 0.42352941 0.64313725
v -0.11376263 0.02056844 -0.01823328 0.54117647 0.42352941 0.64313725
v -0.11376263 0.02082348 -0.01821091 0.54117647 0.42352941 0.64313725
v -0.11348209 0.02144391 -0.01827804 0.54117647 0.42352941 0.64313725
v -0.11376263 0.02107106 -0.01814378 0.54117647 0.42352941 0.64313725
v -0.11376263 0.02130297 -0.01803562 0.54117647 0.42352941 0.64313725
v -0.11315414 0.02184064 -0.01827804 0.54117647 0.42352941 0.64313725
v -0.11279457 0.02221424 -0.01814378 0.54117647 0.42352941 0.64313725
v -0.11240735 0.02229329 -0.01821091 0.54117647 0.42352941 0.64313725
v -0.11315414 0.02208523 -0.01803562 0.54117647 0.42352941 0.64313725
v -0.11201223 0.02231939 -0.01823328 0.54117647 0.42352941 0.64313725
v -0.07848986 0.02203750 -0.01851299 0.54117647 0.42352941 0.64313725
v -0.07818561 0.02203750 -0.01848688 0.54117647 0.42352941 0.64313725
v -0.07788927 0.02203750 -0.01840857 0.54117647 0.42352941 0.64313725
v -0.07749809 0.02171163 -0.01847570 0.54117647 0.42352941 0.64313725
v -0.07741511 0.02134995 -0.01862114 0.54117647 0.42352941 0.64313725
v -0.07710692 0.02134995 -0.01840857 0.54117647 0.42352941 0.64313725
v -0.07703975 0.02096516 -0.01848688 0.54117647 0.42352941 0.64313725
v -0.07555408 0.01523657 -0.01823328 0.54117647 0.42352941 0.64313725
v -0.07600452 0.01523657 -0.01851299 0.54117647 0.42352941 0.64313725
v -0.07624950 0.01523657 -0.01863606 0.54117647 0.42352941 0.64313725
v -0.11374683 0.01523657 -0.01790509 0.54117647 0.42352941 0.64313725
v -0.11377449 0.01528355 -0.01790509 0.54117647 0.42352941 0.64313725
v -0.11389302 0.01557065 -0.01790509 0.54117647 0.42352941 0.64313725
v -0.11396809 0.01587266 -0.01790509 0.54117647 0.42352941 0.64313725
v -0.11399180 0.01618214 -0.01790509 0.54117647 0.42352941 0.64313725
v -0.11399180 0.02056844 -0.01790509 0.54117647 0.42352941 0.64313725
v -0.11399180 0.02076680 -0.01788644 0.54117647 0.42352941 0.64313725
v -0.11399180 0.02095920 -0.01783796 0.54117647 0.42352941 0.64313725
v -0.11348209 0.02169373 -0.01810275 0.54117647 0.42352941 0.64313725
v -0.11376263 0.02151327 -0.01788644 0.54117647 0.42352941 0.64313725
v -0.11399180 0.02113966 -0.01775218 0.54117647 0.42352941 0.64313725
v -0.11399180 0.02130297 -0.01763657 0.54117647 0.42352941 0.64313725
v -0.11279457 0.02242901 -0.01783796 0.54117647 0.42352941 0.64313725
v -0.11240735 0.02251775 -0.01788644 0.54117647 0.42352941 0.64313725
v -0.11201223 0.02254832 -0.01790509 0.54117647 0.42352941 0.64313725
v -0.11348209 0.02190999 -0.01788644 0.54117647 0.42352941 0.64313725
v -0.11348209 0.02208523 -0.01763657 0.54117647 0.42352941 0.64313725
v -0.11315414 0.02228285 -0.01775218 0.54117647 0.42352941 0.64313725
v -0.09524709 0.02243423 -0.01806919 0.54117647 0.42352941 0.64313725
v -0.07848986 0.02231939 -0.01823328 0.54117647 0.42352941 0.64313725
v -0.07823303 0.02231939 -0.01821091 0.54117647 0.42352941 0.64313725
v -0.07798409 0.02231939 -0.01814378 0.54117647 0.42352941 0.64313725
v -0.07761268 0.02203750 -0.01827804 0.54117647 0.42352941 0.64313725
v -0.07721361 0.02171163 -0.01827804 0.54117647 0.42352941 0.64313725
v -0.07684218 0.02134995 -0.01814378 0.54117647 0.42352941 0.64313725
v -0.07676316 0.02096516 -0.01821091 0.54117647 0.42352941 0.64313725
v -0.07438451 0.01523657 -0.01721887 0.54117647 0.42352941 0.64313725
v -0.07472037 0.01523657 -0.01754333 0.54117647 0.42352941 0.64313725
v -0.07512735 0.01523657 -0.01790509 0.54117647 0.42352941 0.64313725
v -0.11386536 0.01523657 -0.01768505 0.54117647 0.42352941 0.64313725
v -0.11394043 0.01523657 -0.01754333 0.54117647 0.42352941 0.64313725
v -0.11405502 0.01551845 -0.01754333 0.54117647 0.42352941 0.64313725
v -0.11413405 0.01584582 -0.01754333 0.54117647 0.42352941 0.64313725
v -0.11416171 0.01618214 -0.01754333 0.54117647 0.42352941 0.64313725
v -0.11416171 0.02056844 -0.01754333 0.54117647 0.42352941 0.64313725
v -0.11416171 0.02070416 -0.01753215 0.54117647 0.42352941 0.64313725
v -0.11416171 0.02083616 -0.01749858 0.54117647 0.42352941 0.64313725
v -0.11376263 0.02169373 -0.01770743 0.54117647 0.42352941 0.64313725
v -0.11399180 0.02144391 -0.01749858 0.54117647 0.42352941 0.64313725
v -0.11416171 0.02095920 -0.01743891 0.54117647 0.42352941 0.64313725
v -0.11416171 0.02107106 -0.01736059 0.54117647 0.42352941 0.64313725
v -0.11279457 0.02258710 -0.01749858 0.54117647 0.42352941 0.64313725
v -0.11240735 0.02268404 -0.01753215 0.54117647 0.42352941 0.64313725
v -0.11315414 0.02242901 -0.01743891 0.54117647 0.42352941 0.64313725
v -0.11201223 0.02271685 -0.01754333 0.54117647 0.42352941 0.64313725
v -0.09524709 0.02263259 -0.01772608 0.54117647 0.42352941 0.64313725
v -0.07848986 0.02254832 -0.01790509 0.54117647 0.42352941 0.64313725
v -0.11376263 0.02184064 -0.01749858 0.54117647 0.42352941 0.64313725
v -0.11348209 0.02221424 -0.01736059 0.54117647 0.42352941 0.64313725
v -0.07828834 0.02254832 -0.01788644 0.54117647 0.42352941 0.64313725
v -0.07809868 0.02254832 -0.01783796 0.54117647 0.42352941 0.64313725
v -0.07775492 0.02231939 -0.01803562 0.54117647 0.42352941 0.64313725
v -0.07754156 0.02231939 -0.01788644 0.54117647 0.42352941 0.64313725
v -0.07736375 0.02203750 -0.01810275 0.54117647 0.42352941 0.64313725
v -0.07714643 0.02203750 -0.01788644 0.54117647 0.42352941 0.64313725
v -0.07697258 0.02171163 -0.01803562 0.54117647 0.42352941 0.64313725
v -0.07662882 0.02134995 -0.01783796 0.54117647 0.42352941 0.64313725
v -0.07653794 0.02096516 -0.01788644 0.54117647 0.42352941 0.64313725
v -0.07393407 0.01523657 -0.01676388 0.54117647 0.42352941 0.64313725
v -0.07432525 0.01523657 -0.01715920 0.54117647 0.42352941 0.64313725
v -0.11395229 0.01523657 -0.01750231 0.54117647 0.42352941 0.64313725
v -0.11415380 0.01548638 -0.01715920 0.54117647 0.42352941 0.64313725
v -0.11423678 0.01583016 -0.01715920 0.54117647 0.42352941 0.64313725
v -0.11426444 0.01618214 -0.01715920 0.54117647 0.42352941 0.64313725
v -0.11426444 0.02056844 -0.01715920 0.54117647 0.42352941 0.64313725
v -0.11426444 0.02063705 -0.01715174 0.54117647 0.42352941 0.64313725
v -0.11426444 0.02070416 -0.01713683 0.54117647 0.42352941 0.64313725
v -0.11426444 0.02076680 -0.01710699 0.54117647 0.42352941 0.64313725
v -0.11416171 0.02116725 -0.01726363 0.54117647 0.42352941 0.64313725
v -0.11416171 0.02124555 -0.01715174 0.54117647 0.42352941 0.64313725
v -0.11399180 0.02155801 -0.01733449 0.54117647 0.42352941 0.64313725
v -0.11426444 0.02082348 -0.01706597 0.54117647 0.42352941 0.64313725
v -0.11426444 0.02087270 -0.01701748 0.54117647 0.42352941 0.64313725
v -0.11279457 0.02268404 -0.01713683 0.54117647 0.42352941 0.64313725
v -0.11240735 0.02278546 -0.01715174 0.54117647 0.42352941 0.64313725
v -0.11201223 0.02281976 -0.01715920 0.54117647 0.42352941 0.64313725
v -0.11348209 0.02229329 -0.01706597 0.54117647 0.42352941 0.64313725
v -0.11315414 0.02251775 -0.01710699 0.54117647 0.42352941 0.64313725
v -0.09524709 0.02276831 -0.01735313 0.54117647 0.42352941 0.64313725
v -0.07848986 0.02271685 -0.01754333 0.54117647 0.42352941 0.64313725
v -0.07835156 0.02271685 -0.01753215 0.54117647 0.42352941 0.64313725
v -0.11376263 0.02194951 -0.01726363 0.54117647 0.42352941 0.64313725
v -0.11376263 0.02201588 -0.01701748 0.54117647 0.42352941 0.64313725
v -0.07791693 0.02254832 -0.01775218 0.54117647 0.42352941 0.64313725
v -0.07822117 0.02271685 -0.01749858 0.54117647 0.42352941 0.64313725
v -0.07775492 0.02254832 -0.01763657 0.54117647 0.42352941 0.64313725
v -0.07761268 0.02254832 -0.01749858 0.54117647 0.42352941 0.64313725
v -0.07736375 0.02231939 -0.01770743 0.54117647 0.42352941 0.64313725
v -0.07721361 0.02231939 -0.01749858 0.54117647 0.42352941 0.64313725
v -0.07697258 0.02203750 -0.01763657 0.54117647 0.42352941 0.64313725
v -0.07677502 0.02171163 -0.01775218 0.54117647 0.42352941 0.64313725
v -0.07662882 0.02171163 -0.01743891 0.54117647 0.42352941 0.64313725
v -0.07647077 0.02134995 -0.01749858 0.54117647 0.42352941 0.64313725
v -0.07393407 0.01523657 0.01676382 0.54117647 0.42352941 0.64313725
v -0.07637199 0.02134995 -0.01713683 0.54117647 0.42352941 0.64313725
v -0.07634038 0.02134995 -0.01676388 0.54117647 0.42352941 0.64313725
v -0.11405107 0.01523657 -0.01715920 0.54117647 0.42352941 0.64313725
v -0.11418542 0.01547594 -0.01676388 0.54117647 0.42352941 0.64313725
v -0.11426839 0.01582419 -0.01676388 0.54117647 0.42352941 0.64313725
v -0.11430000 0.01618214 -0.01676388 0.54117647 0.42352941 0.64313725
v -0.11430000 0.02056844 -0.01676388 0.54117647 0.42352941 0.64313725
v -0.11426444 0.02091222 -0.01696154 0.54117647 0.42352941 0.64313725
v -0.11416171 0.02130297 -0.01702867 0.54117647 0.42352941 0.64313725
v -0.11399180 0.02164228 -0.01715174 0.54117647 0.42352941 0.64313725
v -0.11279457 0.02271685 -0.01676388 0.54117647 0.42352941 0.64313725
v -0.11240735 0.02281976 -0.01676388 0.54117647 0.42352941 0.64313725
v -0.11315414 0.02254832 -0.01676388 0.54117647 0.42352941 0.64313725
v -0.11201223 0.02285407 -0.01676388 0.54117647 0.42352941 0.64313725
v -0.07848986 0.02281976 -0.01715920 0.54117647 0.42352941 0.64313725
v -0.11348209 0.02231939 -0.01676388 0.54117647 0.42352941 0.64313725
v -0.07841874 0.02281976 -0.01715174 0.54117647 0.42352941 0.64313725
v -0.07835156 0.02281976 -0.01713683 0.54117647 0.42352941 0.64313725
v -0.11399180 0.02169373 -0.01696154 0.54117647 0.42352941 0.64313725
v -0.11376263 0.02203750 -0.01676388 0.54117647 0.42352941 0.64313725
v -0.11399180 0.02171163 -0.01676388 0.54117647 0.42352941 0.64313725
v -0.07809868 0.02271685 -0.01743891 0.54117647 0.42352941 0.64313725
v -0.07798409 0.02271685 -0.01736059 0.54117647 0.42352941 0.64313725
v -0.07828834 0.02281976 -0.01710699 0.54117647 0.42352941 0.64313725
v -0.07749809 0.02254832 -0.01733449 0.54117647 0.42352941 0.64313725
v -0.07788927 0.02271685 -0.01726363 0.54117647 0.42352941 0.64313725
v -0.07781024 0.02271685 -0.01715174 0.54117647 0.42352941 0.64313725
v -0.07710692 0.02231939 -0.01726363 0.54117647 0.42352941 0.64313725
v -0.07684218 0.02203750 -0.01736059 0.54117647 0.42352941 0.64313725
v -0.07653794 0.02171163 -0.01710699 0.54117647 0.42352941 0.64313725
v -0.07432129 0.01523657 0.01715541 0.54117647 0.42352941 0.64313725
v -0.07634038 0.02134995 0.01676382 0.54117647 0.42352941 0.64313725
v -0.07637199 0.02133877 0.01715914 0.54117647 0.42352941 0.64313725
v -0.07647077 0.02130297 0.01754327 0.54117647 0.42352941 0.64313725
v -0.07662882 0.02124555 0.01790503 0.54117647 0.42352941 0.64313725
v -0.07684218 0.02116725 0.01823322 0.54117647 0.42352941 0.64313725
v -0.07676316 0.02087270 0.01823322 0.54117647 0.42352941 0.64313725
v -0.07650633 0.02171163 -0.01676388 0.54117647 0.42352941 0.64313725
v -0.07642335 0.02153116 -0.00000003 0.54117647 0.42352941 0.64313725
v -0.11408663 0.01523657 -0.01676388 0.54117647 0.42352941 0.64313725
v -0.11418542 0.01547594 0.01676382 0.54117647 0.42352941 0.64313725
v -0.11422887 0.01565044 -0.00000003 0.54117647 0.42352941 0.64313725
v -0.11411824 0.01530965 -0.00000003 0.54117647 0.42352941 0.64313725
v -0.11426839 0.01582419 0.01676382 0.54117647 0.42352941 0.64313725
v -0.11430000 0.01618214 0.01676382 0.54117647 0.42352941 0.64313725
v -0.11430000 0.02056844 0.01676382 0.54117647 0.42352941 0.64313725
v -0.11426444 0.02096516 -0.01676388 0.54117647 0.42352941 0.64313725
v -0.11426444 0.02095920 -0.01683101 0.54117647 0.42352941 0.64313725
v -0.11426444 0.02094130 -0.01689814 0.54117647 0.42352941 0.64313725
v -0.11416171 0.02133877 -0.01689814 0.54117647 0.42352941 0.64313725
v -0.11297633 0.02263259 -0.00000003 0.54117647 0.42352941 0.64313725
v -0.11279457 0.02271685 0.01676382 0.54117647 0.42352941 0.64313725
v -0.11240735 0.02281976 0.01676382 0.54117647 0.42352941 0.64313725
v -0.11332009 0.02243423 -0.00000003 0.54117647 0.42352941 0.64313725
v -0.11315414 0.02254832 0.01676382 0.54117647 0.42352941 0.64313725
v -0.11201223 0.02285407 0.01676382 0.54117647 0.42352941 0.64313725
v -0.07848986 0.02285407 -0.01676388 0.54117647 0.42352941 0.64313725
v -0.11348209 0.02231939 0.01676382 0.54117647 0.42352941 0.64313725
v -0.11376263 0.02203750 0.01676382 0.54117647 0.42352941 0.64313725
v -0.11387722 0.02187494 -0.00000003 0.54117647 0.42352941 0.64313725
v -0.11399180 0.02171163 0.01676382 0.54117647 0.42352941 0.64313725
v -0.11416171 0.02134995 -0.01676388 0.54117647 0.42352941 0.64313725
v -0.07823303 0.02281976 -0.01706597 0.54117647 0.42352941 0.64313725
v -0.07741511 0.02254832 -0.01715174 0.54117647 0.42352941 0.64313725
v -0.07818561 0.02281976 -0.01701748 0.54117647 0.42352941 0.64313725
v -0.07775492 0.02271685 -0.01702867 0.54117647 0.42352941 0.64313725
v -0.07814610 0.02281976 -0.01696154 0.54117647 0.42352941 0.64313725
v -0.07811449 0.02281976 -0.01689814 0.54117647 0.42352941 0.64313725
v -0.07703975 0.02231939 -0.01701748 0.54117647 0.42352941 0.64313725
v -0.07676316 0.02203750 -0.01706597 0.54117647 0.42352941 0.64313725
v -0.07452280 0.01523657 0.01735307 0.54117647 0.42352941 0.64313725
v -0.07650633 0.02171163 0.01676382 0.54117647 0.42352941 0.64313725
v -0.07653794 0.02169373 0.01715914 0.54117647 0.42352941 0.64313725
v -0.07662882 0.02164228 0.01754327 0.54117647 0.42352941 0.64313725
v -0.07677502 0.02155801 0.01790503 0.54117647 0.42352941 0.64313725
v -0.07697258 0.02144391 0.01823322 0.54117647 0.42352941 0.64313725
v -0.07721361 0.02130297 0.01851293 0.54117647 0.42352941 0.64313725
v -0.07710692 0.02107106 0.01851293 0.54117647 0.42352941 0.64313725
v -0.07703975 0.02082348 0.01851293 0.54117647 0.42352941 0.64313725
v -0.07673550 0.02203750 -0.01676388 0.54117647 0.42352941 0.64313725
v -0.07662092 0.02187494 -0.00000003 0.54117647 0.42352941 0.64313725
v -0.11408663 0.01523657 0.01676382 0.54117647 0.42352941 0.64313725
v -0.11423678 0.01583016 0.01715914 0.54117647 0.42352941 0.64313725
v -0.11407873 0.01523657 0.01686824 0.54117647 0.42352941 0.64313725
v -0.11415380 0.01548638 0.01715914 0.54117647 0.42352941 0.64313725
v -0.11426444 0.01618214 0.01715914 0.54117647 0.42352941 0.64313725
v -0.11426444 0.02056844 0.01715914 0.54117647 0.42352941 0.64313725
v -0.11426444 0.02096516 0.01676382 0.54117647 0.42352941 0.64313725
v -0.11278272 0.02268404 0.01715914 0.54117647 0.42352941 0.64313725
v -0.11240340 0.02278546 0.01715914 0.54117647 0.42352941 0.64313725
v -0.11313833 0.02251775 0.01715914 0.54117647 0.42352941 0.64313725
v -0.11201223 0.02281976 0.01715914 0.54117647 0.42352941 0.64313725
v -0.07848986 0.02285407 0.01676382 0.54117647 0.42352941 0.64313725
v -0.07828834 0.02283691 -0.00000003 0.54117647 0.42352941 0.64313725
v -0.07809078 0.02281976 -0.01676388 0.54117647 0.42352941 0.64313725
v -0.07809868 0.02281976 -0.01683101 0.54117647 0.42352941 0.64313725
v -0.11345839 0.02229329 0.01715914 0.54117647 0.42352941 0.64313725
v -0.11373497 0.02201588 0.01715914 0.54117647 0.42352941 0.64313725
v -0.11396019 0.02169373 0.01715914 0.54117647 0.42352941 0.64313725
v -0.11416171 0.02134995 0.01676382 0.54117647 0.42352941 0.64313725
v -0.07771936 0.02271685 -0.01689814 0.54117647 0.42352941 0.64313725
v -0.07736375 0.02254832 -0.01696154 0.54117647 0.42352941 0.64313725
v -0.07734400 0.02254832 -0.01676388 0.54117647 0.42352941 0.64313725
v -0.07701999 0.02231939 -0.01676388 0.54117647 0.42352941 0.64313725
v -0.07472037 0.01523657 0.01754327 0.54117647 0.42352941 0.64313725
v -0.07673550 0.02203750 0.01676382 0.54117647 0.42352941 0.64313725
v -0.07676316 0.02201588 0.01715914 0.54117647 0.42352941 0.64313725
v -0.07684218 0.02194951 0.01754327 0.54117647 0.42352941 0.64313725
v -0.07697258 0.02184064 0.01790503 0.54117647 0.42352941 0.64313725
v -0.07714643 0.02169373 0.01823322 0.54117647 0.42352941 0.64313725
v -0.07736375 0.02151327 0.01851293 0.54117647 0.42352941 0.64313725
v -0.07761268 0.02130297 0.01874042 0.54117647 0.42352941 0.64313725
v -0.07749809 0.02113966 0.01874042 0.54117647 0.42352941 0.64313725
v -0.07741511 0.02095920 0.01874042 0.54117647 0.42352941 0.64313725
v -0.07736375 0.02076680 0.01874042 0.54117647 0.42352941 0.64313725
v -0.07555408 0.01523657 0.01823322 0.54117647 0.42352941 0.64313725
v -0.07512735 0.01523657 0.01790503 0.54117647 0.42352941 0.64313725
v -0.11413405 0.01584582 0.01754327 0.54117647 0.42352941 0.64313725
v -0.11416171 0.01618214 0.01754327 0.54117647 0.42352941 0.64313725
v -0.11405107 0.01523657 0.01715914 0.54117647 0.42352941 0.64313725
v -0.11394043 0.01523657 0.01754327 0.54117647 0.42352941 0.64313725
v -0.11405502 0.01551845 0.01754327 0.54117647 0.42352941 0.64313725
v -0.11422887 0.02095920 0.01715914 0.54117647 0.42352941 0.64313725
v -0.11416171 0.02056844 0.01754327 0.54117647 0.42352941 0.64313725
v -0.11308697 0.02242901 0.01754327 0.54117647 0.42352941 0.64313725
v -0.11274716 0.02258710 0.01754327 0.54117647 0.42352941 0.64313725
v -0.11238364 0.02268404 0.01754327 0.54117647 0.42352941 0.64313725
v -0.11201223 0.02271685 0.01754327 0.54117647 0.42352941 0.64313725
v -0.09524709 0.02276831 0.01735307 0.54117647 0.42352941 0.64313725
v -0.07848986 0.02281976 0.01715914 0.54117647 0.42352941 0.64313725
v -0.07809078 0.02281976 0.01676382 0.54117647 0.42352941 0.64313725
v -0.07789717 0.02276831 -0.00000003 0.54117647 0.42352941 0.64313725
v -0.07770751 0.02271685 -0.01676388 0.54117647 0.42352941 0.64313725
v -0.11339121 0.02221424 0.01754327 0.54117647 0.42352941 0.64313725
v -0.11365594 0.02194951 0.01754327 0.54117647 0.42352941 0.64313725
v -0.11387327 0.02164228 0.01754327 0.54117647 0.42352941 0.64313725
v -0.11412614 0.02133877 0.01715914 0.54117647 0.42352941 0.64313725
v -0.07734400 0.02254832 0.01676382 0.54117647 0.42352941 0.64313725
v -0.07718199 0.02243423 -0.00000003 0.54117647 0.42352941 0.64313725
v -0.07701999 0.02231939 0.01676382 0.54117647 0.42352941 0.64313725
v -0.07703975 0.02229329 0.01715914 0.54117647 0.42352941 0.64313725
v -0.07710692 0.02221424 0.01754327 0.54117647 0.42352941 0.64313725
v -0.07721361 0.02208523 0.01790503 0.54117647 0.42352941 0.64313725
v -0.07736375 0.02190999 0.01823322 0.54117647 0.42352941 0.64313725
v -0.07754156 0.02169373 0.01851293 0.54117647 0.42352941 0.64313725
v -0.07775492 0.02144391 0.01874042 0.54117647 0.42352941 0.64313725
v -0.07798409 0.02116725 0.01891198 0.54117647 0.42352941 0.64313725
v -0.07788927 0.02107106 0.01891198 0.54117647 0.42352941 0.64313725
v -0.07781024 0.02095920 0.01891198 0.54117647 0.42352941 0.64313725
v -0.07775492 0.02083616 0.01891198 0.54117647 0.42352941 0.64313725
v -0.07771936 0.02070416 0.01891198 0.54117647 0.42352941 0.64313725
v -0.07646287 0.01523657 0.01874042 0.54117647 0.42352941 0.64313725
v -0.07621393 0.01523657 0.01861735 0.54117647 0.42352941 0.64313725
v -0.07600452 0.01523657 0.01851293 0.54117647 0.42352941 0.64313725
v -0.11396809 0.01587266 0.01790503 0.54117647 0.42352941 0.64313725
v -0.11399180 0.01618214 0.01790503 0.54117647 0.42352941 0.64313725
v -0.11389302 0.01557065 0.01790503 0.54117647 0.42352941 0.64313725
v -0.11377449 0.01523657 0.01786028 0.54117647 0.42352941 0.64313725
v -0.11377449 0.01528355 0.01790503 0.54117647 0.42352941 0.64313725
v -0.11412614 0.02094130 0.01754327 0.54117647 0.42352941 0.64313725
v -0.11403132 0.02130297 0.01754327 0.54117647 0.42352941 0.64313725
v -0.11399180 0.02056844 0.01790503 0.54117647 0.42352941 0.64313725
v -0.11396019 0.02091222 0.01790503 0.54117647 0.42352941 0.64313725
v -0.11300004 0.02228285 0.01790503 0.54117647 0.42352941 0.64313725
v -0.11268789 0.02242901 0.01790503 0.54117647 0.42352941 0.64313725
v -0.11328453 0.02208523 0.01790503 0.54117647 0.42352941 0.64313725
v -0.11235598 0.02251775 0.01790503 0.54117647 0.42352941 0.64313725
v -0.11201223 0.02254832 0.01790503 0.54117647 0.42352941 0.64313725
v -0.09524709 0.02263259 0.01772602 0.54117647 0.42352941 0.64313725
v -0.07848986 0.02271685 0.01754327 0.54117647 0.42352941 0.64313725
v -0.07811449 0.02268404 0.01754327 0.54117647 0.42352941 0.64313725
v -0.07809868 0.02278546 0.01715914 0.54117647 0.42352941 0.64313725
v -0.07771936 0.02268404 0.01715914 0.54117647 0.42352941 0.64313725
v -0.07770751 0.02271685 0.01676382 0.54117647 0.42352941 0.64313725
v -0.11352951 0.02184064 0.01790503 0.54117647 0.42352941 0.64313725
v -0.11387327 0.02124555 0.01790503 0.54117647 0.42352941 0.64313725
v -0.11372707 0.02155801 0.01790503 0.54117647 0.42352941 0.64313725
v -0.07736375 0.02251775 0.01715914 0.54117647 0.42352941 0.64313725
v -0.07741511 0.02242901 0.01754327 0.54117647 0.42352941 0.64313725
v -0.07749809 0.02228285 0.01790503 0.54117647 0.42352941 0.64313725
v -0.07761268 0.02208523 0.01823322 0.54117647 0.42352941 0.64313725
v -0.07775492 0.02184064 0.01851293 0.54117647 0.42352941 0.64313725
v -0.07791693 0.02155801 0.01874042 0.54117647 0.42352941 0.64313725
v -0.07809868 0.02124555 0.01891198 0.54117647 0.42352941 0.64313725
v -0.07828834 0.02091222 0.01901267 0.54117647 0.42352941 0.64313725
v -0.07823303 0.02087270 0.01901267 0.54117647 0.42352941 0.64313725
v -0.07818561 0.02082348 0.01901267 0.54117647 0.42352941 0.64313725
v -0.07814610 0.02076680 0.01901267 0.54117647 0.42352941 0.64313725
v -0.07811449 0.02070416 0.01901267 0.54117647 0.42352941 0.64313725
v -0.07692516 0.01523657 0.01891198 0.54117647 0.42352941 0.64313725
v -0.07652213 0.01523657 0.01876280 0.54117647 0.42352941 0.64313725
v -0.07809868 0.02063705 0.01901267 0.54117647 0.42352941 0.64313725
v -0.11374288 0.01590846 0.01823322 0.54117647 0.42352941 0.64313725
v -0.11376263 0.01618214 0.01823322 0.54117647 0.42352941 0.64313725
v -0.11357297 0.01538720 0.01823322 0.54117647 0.42352941 0.64313725
v -0.11367570 0.01564074 0.01823322 0.54117647 0.42352941 0.64313725
v -0.11374683 0.01523657 0.01790503 0.54117647 0.42352941 0.64313725
v -0.11376263 0.02056844 0.01823322 0.54117647 0.42352941 0.64313725
v -0.11373497 0.02087270 0.01823322 0.54117647 0.42352941 0.64313725
v -0.11288941 0.02208523 0.01823322 0.54117647 0.42352941 0.64313725
v -0.11261282 0.02221424 0.01823322 0.54117647 0.42352941 0.64313725
v -0.11313833 0.02190999 0.01823322 0.54117647 0.42352941 0.64313725
v -0.11231648 0.02229329 0.01823322 0.54117647 0.42352941 0.64313725
v -0.11201223 0.02231939 0.01823322 0.54117647 0.42352941 0.64313725
v -0.09524709 0.02243423 0.01806912 0.54117647 0.42352941 0.64313725
v -0.07848986 0.02254832 0.01790503 0.54117647 0.42352941 0.64313725
v -0.07814610 0.02251775 0.01790503 0.54117647 0.42352941 0.64313725
v -0.07781024 0.02242901 0.01790503 0.54117647 0.42352941 0.64313725
v -0.07775492 0.02258710 0.01754327 0.54117647 0.42352941 0.64313725
v -0.11352951 0.02144391 0.01823322 0.54117647 0.42352941 0.64313725
v -0.11335170 0.02169373 0.01823322 0.54117647 0.42352941 0.64313725
v -0.11365594 0.02116725 0.01823322 0.54117647 0.42352941 0.64313725
v -0.07788927 0.02221424 0.01823322 0.54117647 0.42352941 0.64313725
v -0.07798409 0.02194951 0.01851293 0.54117647 0.42352941 0.64313725
v -0.07809868 0.02164228 0.01874042 0.54117647 0.42352941 0.64313725
v -0.07822117 0.02130297 0.01891198 0.54117647 0.42352941 0.64313725
v -0.07835156 0.02094130 0.01901267 0.54117647 0.42352941 0.64313725
v -0.07848986 0.02056844 0.01904997 0.54117647 0.42352941 0.64313725
v -0.07739536 0.01523657 0.01901267 0.54117647 0.42352941 0.64313725
v -0.11341097 0.01572799 0.01851293 0.54117647 0.42352941 0.64313725
v -0.11346234 0.01595245 0.01851293 0.54117647 0.42352941 0.64313725
v -0.11348209 0.01618214 0.01851293 0.54117647 0.42352941 0.64313725
v -0.11348209 0.01523657 0.01823322 0.54117647 0.42352941 0.64313725
v -0.11332009 0.01551472 0.01851293 0.54117647 0.42352941 0.64313725
v -0.11348209 0.02056844 0.01851293 0.54117647 0.42352941 0.64313725
v -0.11345839 0.02082348 0.01851293 0.54117647 0.42352941 0.64313725
v -0.11295658 0.02169373 0.01851293 0.54117647 0.42352941 0.64313725
v -0.11274716 0.02184064 0.01851293 0.54117647 0.42352941 0.64313725
v -0.11251404 0.02194951 0.01851293 0.54117647 0.42352941 0.64313725
v -0.11226906 0.02201588 0.01851293 0.54117647 0.42352941 0.64313725
v -0.11313833 0.02151327 0.01851293 0.54117647 0.42352941 0.64313725
v -0.11201223 0.02203750 0.01851293 0.54117647 0.42352941 0.64313725
v -0.07848986 0.02231939 0.01823322 0.54117647 0.42352941 0.64313725
v -0.07818561 0.02229329 0.01823322 0.54117647 0.42352941 0.64313725
v -0.11339121 0.02107106 0.01851293 0.54117647 0.42352941 0.64313725
v -0.11328453 0.02130297 0.01851293 0.54117647 0.42352941 0.64313725
v -0.07823303 0.02201588 0.01851293 0.54117647 0.42352941 0.64313725
v -0.07828834 0.02169373 0.01874042 0.54117647 0.42352941 0.64313725
v -0.07835156 0.02133877 0.01891198 0.54117647 0.42352941 0.64313725
v -0.07841874 0.02095920 0.01901267 0.54117647 0.42352941 0.64313725
v -0.07787741 0.01523657 0.01904997 0.54117647 0.42352941 0.64313725
v -0.07848986 0.02096516 0.01901267 0.54117647 0.42352941 0.64313725
v -0.09524709 0.02056844 0.01904997 0.54117647 0.42352941 0.64313725
v -0.11303165 0.01566312 0.01874042 0.54117647 0.42352941 0.64313725
v -0.11309882 0.01582867 0.01874042 0.54117647 0.42352941 0.64313725
v -0.11314229 0.01600316 0.01874042 0.54117647 0.42352941 0.64313725
v -0.11315414 0.01618214 0.01874042 0.54117647 0.42352941 0.64313725
v -0.11331219 0.01523657 0.01837494 0.54117647 0.42352941 0.64313725
v -0.11320156 0.01531860 0.01851293 0.54117647 0.42352941 0.64313725
v -0.11315414 0.02056844 0.01874042 0.54117647 0.42352941 0.64313725
v -0.11313833 0.02076680 0.01874042 0.54117647 0.42352941 0.64313725
v -0.11308697 0.02095920 0.01874042 0.54117647 0.42352941 0.64313725
v -0.11288941 0.02130297 0.01874042 0.54117647 0.42352941 0.64313725
v -0.11274716 0.02144391 0.01874042 0.54117647 0.42352941 0.64313725
v -0.11258516 0.02155801 0.01874042 0.54117647 0.42352941 0.64313725
v -0.11240340 0.02164228 0.01874042 0.54117647 0.42352941 0.64313725
v -0.11220979 0.02169373 0.01874042 0.54117647 0.42352941 0.64313725
v -0.11201223 0.02171163 0.01874042 0.54117647 0.42352941 0.64313725
v -0.09524709 0.02187494 0.01862854 0.54117647 0.42352941 0.64313725
v -0.07848986 0.02203750 0.01851293 0.54117647 0.42352941 0.64313725
v -0.11300004 0.02113966 0.01874042 0.54117647 0.42352941 0.64313725
v -0.07848986 0.02171163 0.01874042 0.54117647 0.42352941 0.64313725
v -0.07848986 0.02134995 0.01891198 0.54117647 0.42352941 0.64313725
v -0.09456748 0.01523657 0.01904997 0.54117647 0.42352941 0.64313725
v -0.11201223 0.02096516 0.01901267 0.54117647 0.42352941 0.64313725
v -0.11201223 0.02056844 0.01904624 0.54117647 0.42352941 0.64313725
v -0.09524709 0.01685179 0.01904997 0.54117647 0.42352941 0.64313725
v -0.11293682 0.01551025 0.01874042 0.54117647 0.42352941 0.64313725
v -0.11264443 0.01572277 0.01891198 0.54117647 0.42352941 0.64313725
v -0.11270765 0.01582717 0.01891198 0.54117647 0.42352941 0.64313725
v -0.11275506 0.01594052 0.01891198 0.54117647 0.42352941 0.64313725
v -0.11278272 0.01605984 0.01891198 0.54117647 0.42352941 0.64313725
v -0.11279457 0.01618214 0.01891198 0.54117647 0.42352941 0.64313725
v -0.11321340 0.01523657 0.01845326 0.54117647 0.42352941 0.64313725
v -0.11313043 0.01523657 0.01851293 0.54117647 0.42352941 0.64313725
v -0.11302374 0.01523657 0.01857260 0.54117647 0.42352941 0.64313725
v -0.11279457 0.02056844 0.01891198 0.54117647 0.42352941 0.64313725
v -0.11278272 0.02070416 0.01891198 0.54117647 0.42352941 0.64313725
v -0.11274716 0.02083616 0.01891198 0.54117647 0.42352941 0.64313725
v -0.11261282 0.02107106 0.01891198 0.54117647 0.42352941 0.64313725
v -0.11251404 0.02116725 0.01891198 0.54117647 0.42352941 0.64313725
v -0.11240340 0.02124555 0.01891198 0.54117647 0.42352941 0.64313725
v -0.11228091 0.02130297 0.01891198 0.54117647 0.42352941 0.64313725
v -0.11214657 0.02133877 0.01891198 0.54117647 0.42352941 0.64313725
v -0.11201223 0.02134995 0.01891198 0.54117647 0.42352941 0.64313725
v -0.09524709 0.02153116 0.01882620 0.54117647 0.42352941 0.64313725
v -0.11268789 0.02095920 0.01891198 0.54117647 0.42352941 0.64313725
v -0.09471367 0.01538198 0.01904997 0.54117647 0.42352941 0.64313725
v -0.11107973 0.01523657 0.01904624 0.54117647 0.42352941 0.64313725
v -0.11207940 0.02095920 0.01901267 0.54117647 0.42352941 0.64313725
v -0.11214657 0.02094130 0.01901267 0.54117647 0.42352941 0.64313725
v -0.11220979 0.02091222 0.01901267 0.54117647 0.42352941 0.64313725
v -0.11226906 0.02087270 0.01901267 0.54117647 0.42352941 0.64313725
v -0.11231648 0.02082348 0.01901267 0.54117647 0.42352941 0.64313725
v -0.11235598 0.02076680 0.01901267 0.54117647 0.42352941 0.64313725
v -0.11238364 0.02070416 0.01901267 0.54117647 0.42352941 0.64313725
v -0.11240340 0.02063705 0.01901267 0.54117647 0.42352941 0.64313725
v -0.11240735 0.02056844 0.01901267 0.54117647 0.42352941 0.64313725
v -0.11201223 0.01618214 0.01904624 0.54117647 0.42352941 0.64313725
v -0.09521153 0.01645432 0.01904997 0.54117647 0.42352941 0.64313725
v -0.11282223 0.01537378 0.01874042 0.54117647 0.42352941 0.64313725
v -0.11256540 0.01562956 0.01891198 0.54117647 0.42352941 0.64313725
v -0.11229277 0.01590175 0.01901267 0.54117647 0.42352941 0.64313725
v -0.11233228 0.01594873 0.01901267 0.54117647 0.42352941 0.64313725
v -0.11236389 0.01600167 0.01901267 0.54117647 0.42352941 0.64313725
v -0.11238760 0.01605909 0.01901267 0.54117647 0.42352941 0.64313725
v -0.11240340 0.01612024 0.01901267 0.54117647 0.42352941 0.64313725
v -0.11240735 0.01618214 0.01901267 0.54117647 0.42352941 0.64313725
v -0.11295658 0.01523657 0.01860616 0.54117647 0.42352941 0.64313725
v -0.09494284 0.01570861 0.01904997 0.54117647 0.42352941 0.64313725
v -0.11159734 0.01523657 0.01901640 0.54117647 0.42352941 0.64313725
v -0.09510880 0.01606953 0.01904997 0.54117647 0.42352941 0.64313725
v -0.11268394 0.01523657 0.01874042 0.54117647 0.42352941 0.64313725
v -0.11217818 0.01523657 0.01890825 0.54117647 0.42352941 0.64313725
v -0.11165662 0.01523657 0.01900894 0.54117647 0.42352941 0.64313725
v -0.11163686 0.01523657 0.01901267 0.54117647 0.42352941 0.64313725
f 1 2 14
f 1 14 15
f 1 15 3
f 1 3 4
f 1 4 5
f 1 5 6
f 1 6 7
f 1 7 8
f 1 8 9
f 1 9 10
f 1 10 11
f 1 11 2
f 2 11 12
f 2 12 13
f 2 13 27
f 2 27 14
f 3 15 30
f 3 30 50
f 3 50 49
f 3 49 73
f 3 73 100
f 3 100 99
f 3 99 98
f 3 98 129
f 3 129 128
f 3 128 127
f 3 127 160
f 3 160 159
f 3 159 194
f 3 194 225
f 3 225 265
f 3 265 299
f 3 299 311
f 3 311 310
f 3 310 348
f 3 348 347
f 3 347 346
f 3 346 385
f 3 385 384
f 3 384 413
f 3 413 435
f 3 435 458
f 3 458 483
f 3 483 505
f 3 505 510
f 3 510 509
f 3 509 508
f 3 508 507
f 3 507 503
f 3 503 470
f 3 470 469
f 3 469 468
f 3 468 442
f 3 442 417
f 3 417 391
f 3 391 352
f 3 352 315
f 3 315 314
f 3 314 278
f 3 278 276
f 3 276 234
f 3 234 197
f 3 197 161
f 3 161 131
f 3 131 130
f 3 130 101
f 3 101 76
f 3 76 75
f 3 75 74
f 3 74 52
f 3 52 51
f 3 51 31
f 3 31 16
f 3 16 4
f 4 16 5
f 5 17 18
f 5 18 6
f 5 16 17
f 6 18 19
f 6 19 7
f 7 19 20
f 7 20 8
f 8 20 9
f 9 20 21
f 9 21 22
f 9 22 10
f 10 22 23
f 10 23 11
f 11 23 12
f 12 23 24
f 12 24 25
f 12 25 26
f 12 26 13
f 13 26 45
f 13 45 27
f 14 27 28
f 14 28 29
f 14 29 30
f 14 30 15
f 16 31 17
f 17 32 18
f 17 31 32
f 18 32 33
f 18 33 34
f 18 34 19
f 19 34 20
f 20 34 35
f 20 35 36
f 20 36 21
f 21 36 22
f 22 36 37
f 22 37 38
f 22 38 23
f 23 38 39
f 23 39 24
f 24 40 25
f 24 39 40
f 25 40 41
f 25 41 42
f 25 42 26
f 26 42 43
f 26 43 44
f 26 44 45
f 27 45 28
f 28 45 46
f 28 46 47
f 28 47 48
f 28 48 29
f 29 48 49
f 29 49 50
f 29 50 30
f 31 51 32
f 32 51 52
f 32 52 53
f 32 53 33
f 33 53 34
f 34 53 54
f 34 54 55
f 34 55 35
f 35 55 36
f 36 55 56
f 36 56 57
f 36 57 37
f 37 57 58
f 37 58 38
f 38 58 59
f 38 59 39
f 39 59 60
f 39 60 61
f 39 61 40
f 40 61 62
f 40 62 41
f 41 63 42
f 41 62 63
f 42 63 64
f 42 64 43
f 43 64 65
f 43 65 66
f 43 66 67
f 43 67 44
f 44 67 45
f 45 67 68
f 45 68 46
f 46 68 69
f 46 69 70
f 46 70 47
f 47 70 95
f 47 95 71
f 47 71 72
f 47 72 48
f 48 72 73
f 48 73 49
f 52 74 53
f 53 74 75
f 53 75 76
f 53 76 54
f 54 76 77
f 54 77 55
f 55 77 78
f 55 78 79
f 55 79 56
f 56 79 57
f 57 79 80
f 57 80 81
f 57 81 58
f 58 81 59
f 59 81 82
f 59 82 60
f 60 83 62
f 60 62 61
f 60 82 84
f 60 84 85
f 60 85 83
f 62 83 86
f 62 86 63
f 63 87 88
f 63 88 64
f 63 86 89
f 63 89 87
f 64 88 90
f 64 90 65
f 65 90 120
f 65 120 91
f 65 91 66
f 66 91 67
f 67 91 92
f 67 92 68
f 68 92 93
f 68 93 69
f 69 93 94
f 69 94 70
f 70 94 95
f 71 95 96
f 71 96 97
f 71 97 98
f 71 98 99
f 71 99 72
f 72 99 100
f 72 100 73
f 76 101 77
f 77 101 102
f 77 102 103
f 77 103 78
f 78 103 79
f 79 103 104
f 79 104 105
f 79 105 80
f 80 105 106
f 80 106 81
f 81 106 82
f 82 106 107
f 82 107 108
f 82 108 84
f 83 109 86
f 83 85 109
f 84 108 85
f 85 110 109
f 85 108 111
f 85 111 112
f 85 112 110
f 86 109 89
f 87 113 88
f 87 89 113
f 88 113 114
f 88 114 115
f 88 115 90
f 89 109 116
f 89 116 117
f 89 117 118
f 89 118 113
f 90 115 119
f 90 119 120
f 91 120 92
f 92 120 121
f 92 121 93
f 93 121 122
f 93 122 152
f 93 152 123
f 93 123 94
f 94 123 124
f 94 124 96
f 94 96 95
f 96 124 125
f 96 125 126
f 96 126 97
f 97 126 127
f 97 127 128
f 97 128 129
f 97 129 98
f 101 130 102
f 102 130 131
f 102 131 103
f 103 131 132
f 103 132 104
f 104 132 133
f 104 133 134
f 104 134 105
f 105 134 135
f 105 135 106
f 106 135 136
f 106 136 107
f 107 136 108
f 108 136 137
f 108 137 111
f 109 110 138
f 109 138 116
f 110 112 139
f 110 139 138
f 111 137 140
f 111 140 141
f 111 141 112
f 112 141 139
f 113 142 143
f 113 143 114
f 113 118 144
f 113 144 142
f 114 143 115
f 115 143 145
f 115 145 146
f 115 146 147
f 115 147 119
f 116 138 148
f 116 148 117
f 117 149 118
f 117 148 149
f 118 149 144
f 119 147 120
f 120 147 121
f 121 147 150
f 121 150 151
f 121 151 122
f 122 151 184
f 122 184 152
f 123 152 153
f 123 153 154
f 123 154 124
f 124 155 156
f 124 156 125
f 124 154 155
f 125 157 126
f 125 156 157
f 126 157 158
f 126 158 159
f 126 159 160
f 126 160 127
f 131 161 162
f 131 162 132
f 132 162 133
f 133 162 163
f 133 163 134
f 134 163 164
f 134 164 165
f 134 165 135
f 135 165 136
f 136 165 166
f 136 166 167
f 136 167 137
f 137 167 168
f 137 168 140
f 138 139 148
f 139 141 169
f 139 169 170
f 139 170 171
f 139 171 148
f 140 168 141
f 141 168 172
f 141 172 173
f 141 173 169
f 142 174 143
f 142 144 174
f 143 174 175
f 143 175 176
f 143 176 145
f 144 149 177
f 144 177 178
f 144 178 174
f 145 176 179
f 145 179 180
f 145 180 146
f 146 180 147
f 147 180 181
f 147 181 150
f 148 182 149
f 148 171 182
f 149 182 183
f 149 183 177
f 150 181 151
f 151 181 185
f 151 185 184
f 152 184 153
f 153 184 186
f 153 186 187
f 153 187 188
f 153 188 155
f 153 155 154
f 155 188 189
f 155 189 190
f 155 190 191
f 155 191 156
f 156 191 157
f 157 191 192
f 157 192 193
f 157 193 159
f 157 159 158
f 159 193 195
f 159 195 196
f 159 196 226
f 159 226 194
f 161 197 162
f 162 197 198
f 162 198 163
f 163 198 199
f 163 199 200
f 163 200 164
f 164 200 201
f 164 201 165
f 165 201 166
f 166 201 167
f 167 201 168
f 168 201 172
f 169 173 202
f 169 202 170
f 170 203 171
f 170 202 203
f 171 203 204
f 171 204 182
f 172 201 173
f 173 201 202
f 174 205 206
f 174 206 175
f 174 178 207
f 174 207 205
f 175 206 176
f 176 206 208
f 176 208 251
f 176 251 209
f 176 209 179
f 177 210 207
f 177 207 178
f 177 183 210
f 179 209 180
f 180 209 181
f 181 211 212
f 181 212 185
f 181 209 211
f 182 204 213
f 182 213 183
f 183 214 210
f 183 213 215
f 183 215 214
f 184 185 216
f 184 216 217
f 184 217 186
f 185 212 218
f 185 218 216
f 186 217 187
f 187 219 189
f 187 189 188
f 187 217 220
f 187 220 221
f 187 221 219
f 189 222 223
f 189 223 190
f 189 219 258
f 189 258 222
f 190 223 191
f 191 223 192
f 192 224 193
f 192 223 224
f 193 224 195
f 194 226 227
f 194 227 228
f 194 228 229
f 194 229 230
f 194 230 231
f 194 231 225
f 195 224 232
f 195 232 196
f 196 232 233
f 196 233 226
f 197 234 198
f 198 235 236
f 198 236 199
f 198 234 237
f 198 237 235
f 199 238 239
f 199 239 200
f 199 236 238
f 200 239 240
f 200 240 201
f 201 240 282
f 201 282 241
f 201 241 242
f 201 242 243
f 201 243 202
f 202 243 203
f 203 244 204
f 203 243 244
f 204 244 213
f 205 207 245
f 205 245 246
f 205 246 247
f 205 247 206
f 206 247 250
f 206 250 208
f 207 210 248
f 207 248 249
f 207 249 245
f 208 250 287
f 208 287 251
f 209 251 211
f 210 214 253
f 210 253 252
f 210 252 248
f 211 251 212
f 212 251 218
f 213 244 215
f 214 215 254
f 214 254 253
f 215 255 254
f 215 244 256
f 215 256 294
f 215 294 255
f 216 218 217
f 217 218 257
f 217 257 259
f 217 259 220
f 218 251 257
f 219 221 258
f 220 259 261
f 220 261 221
f 221 260 258
f 221 261 262
f 221 262 260
f 222 258 263
f 222 263 223
f 223 264 224
f 223 263 264
f 224 264 232
f 225 231 265
f 226 233 266
f 226 266 227
f 227 266 267
f 227 267 268
f 227 268 228
f 228 268 229
f 229 268 269
f 229 269 230
f 230 269 270
f 230 270 271
f 230 271 272
f 230 272 273
f 230 273 231
f 231 273 265
f 232 264 274
f 232 274 275
f 232 275 266
f 232 266 233
f 234 276 237
f 235 277 238
f 235 238 236
f 235 237 276
f 235 276 278
f 235 278 279
f 235 279 277
f 238 277 239
f 239 277 280
f 239 280 281
f 239 281 240
f 240 281 282
f 241 282 294
f 241 294 256
f 241 256 244
f 241 244 242
f 242 244 243
f 245 249 246
f 246 283 284
f 246 284 247
f 246 249 285
f 246 285 283
f 247 284 286
f 247 286 250
f 248 252 249
f 249 252 285
f 250 286 324
f 250 324 287
f 251 287 288
f 251 288 289
f 251 289 290
f 251 290 262
f 251 262 261
f 251 261 259
f 251 259 257
f 252 291 285
f 252 253 292
f 252 292 291
f 253 254 255
f 253 255 292
f 255 293 292
f 255 294 293
f 258 260 295
f 258 295 296
f 258 296 263
f 260 262 295
f 262 290 295
f 263 296 297
f 263 297 298
f 263 298 274
f 263 274 264
f 265 273 299
f 266 275 300
f 266 300 301
f 266 301 267
f 267 301 302
f 267 302 268
f 268 302 269
f 269 302 303
f 269 303 304
f 269 304 270
f 270 304 271
f 271 304 305
f 271 305 306
f 271 306 307
f 271 307 272
f 272 307 308
f 272 308 273
f 273 308 309
f 273 309 310
f 273 310 311
f 273 311 299
f 274 300 275
f 274 298 334
f 274 334 300
f 277 279 312
f 277 312 313
f 277 313 280
f 278 314 279
f 279 314 315
f 279 315 316
f 279 316 312
f 280 313 318
f 280 318 281
f 281 317 282
f 281 318 317
f 282 317 294
f 283 285 319
f 283 319 320
f 283 320 284
f 284 320 321
f 284 321 322
f 284 322 286
f 285 291 319
f 286 322 323
f 286 323 324
f 287 324 325
f 287 325 288
f 288 325 289
f 289 325 326
f 289 326 327
f 289 327 295
f 289 295 290
f 291 328 319
f 291 292 329
f 291 329 328
f 292 293 330
f 292 330 329
f 293 294 331
f 293 331 330
f 294 317 331
f 295 327 297
f 295 297 296
f 297 327 368
f 297 368 332
f 297 332 333
f 297 333 298
f 298 333 334
f 300 334 335
f 300 335 301
f 301 335 302
f 302 335 336
f 302 336 337
f 302 337 303
f 303 337 304
f 304 337 338
f 304 338 339
f 304 339 305
f 305 339 306
f 306 339 340
f 306 340 341
f 306 341 342
f 306 342 343
f 306 343 307
f 307 343 308
f 308 343 344
f 308 344 345
f 308 345 309
f 309 345 346
f 309 346 347
f 309 347 348
f 309 348 310
f 312 316 349
f 312 349 313
f 313 349 350
f 313 350 356
f 313 356 318
f 315 351 316
f 315 352 353
f 315 353 351
f 316 351 349
f 317 318 354
f 317 354 355
f 317 355 331
f 318 356 357
f 318 357 354
f 319 358 359
f 319 359 320
f 319 328 360
f 319 360 358
f 320 359 361
f 320 361 321
f 321 361 362
f 321 362 322
f 322 362 363
f 322 363 364
f 322 364 323
f 323 364 324
f 324 364 365
f 324 365 366
f 324 366 325
f 325 366 367
f 325 367 368
f 325 368 326
f 326 368 327
f 328 329 369
f 328 369 360
f 329 330 369
f 330 331 355
f 330 355 370
f 330 370 371
f 330 371 369
f 332 372 335
f 332 335 334
f 332 334 333
f 332 368 367
f 332 367 372
f 335 372 373
f 335 373 336
f 336 373 337
f 337 373 374
f 337 374 375
f 337 375 338
f 338 375 339
f 339 375 376
f 339 376 377
f 339 377 340
f 340 377 341
f 341 377 378
f 341 378 379
f 341 379 380
f 341 380 342
f 342 380 381
f 342 381 343
f 343 381 382
f 343 382 383
f 343 383 344
f 344 383 345
f 345 384 385
f 345 385 346
f 345 383 386
f 345 386 384
f 349 351 387
f 349 387 350
f 350 387 388
f 350 388 392
f 350 392 356
f 351 353 389
f 351 389 390
f 351 390 387
f 352 391 353
f 353 391 389
f 354 357 370
f 354 370 355
f 356 392 393
f 356 393 357
f 357 393 370
f 358 394 359
f 358 360 394
f 359 394 395
f 359 395 361
f 360 369 396
f 360 396 394
f 361 397 362
f 361 395 397
f 362 397 398
f 362 398 399
f 362 399 400
f 362 400 363
f 363 400 364
f 364 400 365
f 365 400 401
f 365 401 402
f 365 402 403
f 365 403 367
f 365 367 366
f 367 403 373
f 367 373 372
f 369 371 404
f 369 404 405
f 369 405 396
f 370 393 406
f 370 406 404
f 370 404 371
f 373 403 402
f 373 402 374
f 374 402 375
f 375 402 407
f 375 407 408
f 375 408 376
f 376 408 377
f 377 408 409
f 377 409 410
f 377 410 378
f 378 410 379
f 379 411 412
f 379 412 380
f 379 410 411
f 380 412 381
f 381 412 382
f 382 412 383
f 383 412 386
f 384 386 413
f 386 412 413
f 387 390 414
f 387 414 415
f 387 415 416
f 387 416 388
f 388 416 419
f 388 419 392
f 389 391 417
f 389 417 418
f 389 418 414
f 389 414 390
f 392 419 393
f 393 419 420
f 393 420 406
f 394 396 421
f 394 421 422
f 394 422 423
f 394 423 395
f 395 423 424
f 395 424 397
f 396 405 425
f 396 425 421
f 397 424 398
f 398 424 426
f 398 426 454
f 398 454 427
f 398 427 399
f 399 427 400
f 400 427 428
f 400 428 401
f 401 428 402
f 402 428 407
f 404 406 429
f 404 429 430
f 404 430 425
f 404 425 405
f 406 420 429
f 407 428 408
f 408 428 431
f 408 431 432
f 408 432 409
f 409 432 433
f 409 433 410
f 410 433 411
f 411 433 434
f 411 434 412
f 412 435 413
f 412 434 436
f 412 436 459
f 412 459 437
f 412 437 461
f 412 461 494
f 412 494 506
f 412 506 504
f 412 504 482
f 412 482 458
f 412 458 435
f 414 418 438
f 414 438 439
f 414 439 440
f 414 440 415
f 415 440 416
f 416 440 441
f 416 441 444
f 416 444 419
f 417 442 443
f 417 443 418
f 418 443 438
f 419 444 445
f 419 445 420
f 420 445 446
f 420 446 429
f 421 447 448
f 421 448 449
f 421 449 422
f 421 425 447
f 422 449 423
f 423 449 450
f 423 450 424
f 424 450 451
f 424 451 452
f 424 452 426
f 425 430 447
f 426 452 453
f 426 453 454
f 427 454 431
f 427 431 428
f 429 446 430
f 430 446 455
f 430 455 447
f 431 454 456
f 431 456 432
f 432 456 433
f 433 456 457
f 433 457 436
f 433 436 434
f 436 457 479
f 436 479 459
f 437 459 460
f 437 460 493
f 437 493 461
f 438 462 463
f 438 463 464
f 438 464 465
f 438 465 439
f 438 443 462
f 439 465 440
f 440 465 466
f 440 466 467
f 440 467 441
f 441 467 471
f 441 471 444
f 442 468 443
f 443 468 469
f 443 469 470
f 443 470 462
f 444 471 445
f 445 471 472
f 445 472 446
f 446 472 473
f 446 473 481
f 446 481 455
f 447 455 474
f 447 474 448
f 448 474 475
f 448 475 476
f 448 476 449
f 449 476 477
f 449 477 450
f 450 477 478
f 450 478 451
f 451 478 452
f 452 478 479
f 452 479 480
f 452 480 456
f 452 456 453
f 453 456 454
f 455 481 474
f 456 480 457
f 457 480 479
f 458 482 483
f 459 479 478
f 459 478 484
f 459 484 460
f 460 484 485
f 460 485 486
f 460 486 487
f 460 487 488
f 460 488 489
f 460 489 490
f 460 490 491
f 460 491 492
f 460 492 502
f 460 502 493
f 461 493 494
f 462 470 495
f 462 495 463
f 463 496 497
f 463 497 498
f 463 498 464
f 463 495 496
f 464 498 499
f 464 499 465
f 465 499 500
f 465 500 501
f 465 501 466
f 466 501 467
f 467 501 502
f 467 502 492
f 467 492 471
f 470 503 495
f 471 492 491
f 471 491 472
f 472 491 473
f 473 491 490
f 473 490 489
f 473 489 481
f 474 489 488
f 474 488 487
f 474 487 475
f 474 481 489
f 475 487 476
f 476 487 486
f 476 486 477
f 477 486 485
f 477 485 484
f 477 484 478
f 482 504 493
f 482 493 483
f 483 493 505
f 493 502 501
f 493 501 500
f 493 500 499
f 493 499 498
f 493 498 497
f 493 497 505
f 493 504 506
f 493 506 494
f 495 503 507
f 495 507 496
f 496 507 508
f 496 508 509
f 496 509 510
f 496 510 497
f 497 510 505