# https://github.com/mikedh/trimesh

o coacd_hull_01_oriented.ply
v 0.02590502 -0.00049710 0.00058271
v 0.02590502 -0.00134261 0.00041116
v 0.02590502 -0.00049710 0.00202156
v 0.02627240 -0.00049710 0.00046041
v 0.02628910 -0.00128514 0.00023296
v 0.02590502 -0.00164020 0.00036191
v 0.02817195 -0.00049710 0.00191033
v 0.02590502 -0.00130429 0.00197286
v 0.02866041 -0.00238098 0.00187989
v 0.06855504 -0.00260193 0.00098282
v 0.06855504 -0.00210638 0.00098725
v 0.02656046 -0.00049710 0.00040507
v 0.02675251 -0.00093518 0.00023296
v 0.02629745 -0.00169001 0.00017375
v 0.04520524 -0.00596097 -0.00296570
v 0.02590502 -0.00184072 0.00035637
v 0.04576467 -0.00049710 0.00087491
v 0.02590502 -0.00181390 0.00194021
v 0.02611794 -0.00174876 0.00194298
v 0.02777951 -0.00302341 0.00183064
v 0.03010907 -0.00424569 0.00171553
v 0.06855504 -0.01248492 0.00044602
v 0.06855504 -0.00174621 0.00064082
v 0.02669824 -0.00049710 0.00038238
v 0.04599429 -0.00054436 -0.00181075
v 0.02704057 -0.00264408 0.00001769
v 0.02674833 -0.00280756 0.00012284
v 0.02604696 -0.00181518 0.00029162
v 0.03348233 -0.00581793 -0.00132486
v 0.03495187 -0.00702488 -0.00167295
v 0.04927987 -0.01081051 -0.00354346
v 0.04680002 -0.01100592 -0.00340677
v 0.04650361 -0.01116174 -0.00339680
v 0.03938136 -0.00936599 -0.00239459
v 0.04691275 -0.00197100 -0.00223687
v 0.04710896 -0.00185221 -0.00222359
v 0.05317498 -0.00139498 -0.00216548
v 0.05408509 -0.00213064 -0.00228889
v 0.05256129 -0.00757280 -0.00311789
v 0.05492007 -0.01116557 -0.00360765
v 0.02638512 -0.00295444 0.00034973
v 0.02590502 -0.00310004 0.00064912
v 0.04610283 -0.00049710 0.00083341
v 0.05776730 -0.00067847 0.00010955
v 0.05838934 -0.00058140 -0.00011347
v 0.05798021 -0.00052520 -0.00019924
v 0.05794681 -0.00051115 -0.00031601
v 0.02590502 -0.00258278 0.00182676
v 0.02590502 -0.00298382 0.00174541
v 0.02590502 -0.00308599 0.00172217
v 0.03014664 -0.00446920 0.00165853
v 0.06855504 -0.01282082 0.00039124
v 0.06855504 -0.00168746 0.00052295
v 0.06594996 -0.00126215 0.00011896
v 0.06435516 -0.00119573 0.00021968
v 0.04614458 -0.00049710 -0.00180632
v 0.04681255 -0.00049710 -0.00186222
v 0.03468885 -0.00722540 -0.00158386
v 0.03500196 -0.00749489 -0.00163256
v 0.04941347 -0.01107489 -0.00355286
v 0.05495764 -0.01156789 -0.00363200
v 0.04704216 -0.01177480 -0.00323964
v 0.04424086 -0.01148743 -0.00287882
v 0.04915046 -0.01114130 -0.00353460
v 0.05129214 -0.01212731 -0.00344882
v 0.05134224 -0.01235209 -0.00339680
v 0.05074107 -0.01260243 -0.00326675
v 0.03923941 -0.00965592 -0.00224794
v 0.03885115 -0.00935322 -0.00225679
v 0.04356036 -0.01138397 -0.00274379
v 0.04940094 -0.00056096 -0.00199282
v 0.04931327 -0.00066825 -0.00201385
v 0.05303722 -0.00118679 -0.00211346
v 0.05696156 -0.00115742 -0.00198673
v 0.06377487 -0.00371182 -0.00195962
v 0.05944975 -0.01112853 -0.00327782
v 0.02590502 -0.00315879 0.00066406
v 0.04626982 -0.00049710 0.00080850
v 0.06602511 -0.00115997 -0.00033151
v 0.05946645 -0.00062355 -0.00034534
v 0.05980043 -0.00060694 -0.00085447
v 0.05517473 -0.00049710 -0.00145547
v 0.05524987 -0.00049710 -0.00140677
v 0.05535842 -0.00049710 -0.00114722
v 0.05539181 -0.00049710 -0.00092420
v 0.05540017 -0.00049710 -0.00085171
v 0.05529580 -0.00049710 -0.00073936
v 0.05519143 -0.00049710 -0.00064086
v 0.05486997 -0.00049710 -0.00049642
v 0.02590502 -0.00319711 0.00167181
v 0.03586198 -0.00819352 0.00067790
v 0.03577013 -0.00789977 0.00079245
v 0.06830873 -0.01288980 0.00033258
v 0.06855504 -0.01320526 0.00009683
v 0.03609994 -0.00812711 0.00072549
v 0.04225364 -0.01098549 -0.00033815
v 0.04245820 -0.01127286 -0.00047539
v 0.04693362 -0.01255644 -0.00091590
v 0.06855504 -0.00158017 0.00029605
v 0.06855504 -0.00156229 0.00024292
v 0.04936337 -0.00049710 -0.00195906
v 0.03762793 -0.00905819 -0.00194578
v 0.03465128 -0.00781292 -0.00130771
v 0.02590502 -0.00334399 0.00075372
v 0.05335033 -0.01217073 -0.00353349
v 0.05851041 -0.01214902 -0.00334755
v 0.05853546 -0.01245682 -0.00334091
v 0.05870246 -0.01282210 -0.00326399
v 0.05347975 -0.01235592 -0.00349199
v 0.04695032 -0.01201874 -0.00310295
v 0.04389435 -0.01166496 -0.00271446
v 0.05347557 -0.01262414 -0.00335751
v 0.05318752 -0.01282210 -0.00324351
v 0.05121699 -0.01274420 -0.00319758
v 0.05071184 -0.01303795 -0.00293693
v 0.05034028 -0.01284381 -0.00303377
v 0.03809969 -0.00941325 -0.00196072
v 0.05391393 -0.00049710 -0.00186111
v 0.05902392 -0.00121234 -0.00186886
v 0.06361206 -0.00314985 -0.00185060
v 0.06855504 -0.00213320 -0.00074767
v 0.06809999 -0.00285865 -0.00096460
v 0.06395021 -0.00390212 -0.00195796
v 0.06629646 -0.01190890 -0.00254899
v 0.05882353 -0.01229717 -0.00331490
v 0.06823777 -0.00145501 -0.00009631
v 0.06855504 -0.00150737 -0.00029886
v 0.06793718 -0.00144223 -0.00044938
v 0.06566606 -0.00112676 -0.00042503
v 0.05993820 -0.00067464 -0.00121363
v 0.05434811 -0.00049710 -0.00174102
v 0.05476977 -0.00049710 -0.00161651
v 0.05499521 -0.00049710 -0.00154291
v 0.02590502 -0.00332100 0.00157829
v 0.03633791 -0.00865842 0.00040673
v 0.03749851 -0.00956396 -0.00003654
v 0.03784502 -0.00955246 0.00004259
v 0.04192382 -0.01113620 -0.00045602
v 0.06850494 -0.01321293 0.00007967
v 0.06855504 -0.01325507 -0.00002769
v 0.04715071 -0.01289363 -0.00131380
v 0.04202402 -0.01137248 -0.00063200
v 0.04578554 -0.01245172 -0.00102492
v 0.04652448 -0.01265096 -0.00109465
v 0.06855504 -0.00150226 -0.00004208
v 0.02590502 -0.00339891 0.00078858
v 0.03775318 -0.00962016 -0.00162979
v 0.03511051 -0.00818969 -0.00126952
v 0.05869411 -0.01331383 -0.00295796
v 0.05847702 -0.01287319 -0.00324572
v 0.06637996 -0.01230867 -0.00238850
v 0.06342418 -0.01284381 -0.00256947
v 0.06291486 -0.01303156 -0.00252962
v 0.04707974 -0.01254495 -0.00265856
v 0.04433270 -0.01185909 -0.00268291
v 0.04368143 -0.01188080 -0.00237080
v 0.05374693 -0.01305072 -0.00307362
v 0.05070348 -0.01325507 -0.00250195
v 0.05008979 -0.01311075 -0.00262149
v 0.04704216 -0.01276974 -0.00232265
v 0.05325848 -0.01327296 -0.00285668
v 0.05369684 -0.01335086 -0.00277146
v 0.05978374 -0.00074616 -0.00134866
v 0.06031812 -0.00083684 -0.00138574
v 0.06049345 -0.00102586 -0.00159160
v 0.06012607 -0.00111016 -0.00168347
v 0.06033899 -0.00130813 -0.00175375
v 0.06346594 -0.00277435 -0.00176980
v 0.06848826 -0.00209871 -0.00074933
v 0.06855504 -0.00206679 -0.00072830
v 0.06855504 -0.00300808 -0.00090040
v 0.06855504 -0.00842086 -0.00172664
v 0.06766580 -0.01025493 -0.00215774
v 0.06699784 -0.00996117 -0.00222248
v 0.06855504 -0.01141974 -0.00206366
v 0.06855504 -0.01145550 -0.00205591
v 0.06660958 -0.01202513 -0.00243554
v 0.06855504 -0.00150226 -0.00010185
v 0.06855504 -0.00158528 -0.00045934
v 0.06834213 -0.00149971 -0.00038740
v 0.06818767 -0.00159167 -0.00056615
v 0.06561597 -0.00123150 -0.00070450
v 0.06582053 -0.00119829 -0.00060101
v 0.02590502 -0.00344105 0.00142942
v 0.03690986 -0.00932385 -0.00003544
v 0.03712277 -0.00962654 -0.00033538
v 0.03757783 -0.00973638 -0.00023411
v 0.05029436 -0.01321676 -0.00158773
v 0.05386383 -0.01346837 -0.00171059
v 0.06819184 -0.01325891 -0.00004540
v 0.06855504 -0.01335342 -0.00028834
v 0.04551001 -0.01246832 -0.00113283
v 0.04615710 -0.01273142 -0.00143499
v 0.04668730 -0.01283871 -0.00143388
v 0.04684177 -0.01289874 -0.00183289
v 0.04733858 -0.01296387 -0.00180356
v 0.04993949 -0.01327296 -0.00173881
v 0.04170674 -0.01139291 -0.00094578
v 0.04232461 -0.01163175 -0.00114280
v 0.02590502 -0.00346787 0.00090756
v 0.03492682 -0.00835956 -0.00093472
v 0.03814979 -0.00984367 -0.00159991
v 0.03749851 -0.00974788 -0.00124462
v 0.05813886 -0.01348241 -0.00266355
v 0.06378740 -0.01331893 -0.00219149
v 0.06428421 -0.01336747 -0.00203488
v 0.06855504 -0.01218222 -0.00184728
v 0.06855504 -0.01259859 -0.00166576
v 0.06855504 -0.01267139 -0.00162979
v 0.06855504 -0.01271610 -0.00160765
v 0.06855504 -0.01313246 -0.00138629
v 0.06855504 -0.01317717 -0.00135752
v 0.06847990 -0.01316695 -0.00137965
v 0.06432177 -0.01311075 -0.00224960
v 0.04434523 -0.01210304 -0.00235253
v 0.04412396 -0.01219627 -0.00191756
v 0.04369813 -0.01205067 -0.00193084
v 0.04318880 -0.01183483 -0.00199282
v 0.03806211 -0.01002503 -0.00119371
v 0.05002299 -0.01326402 -0.00220477
v 0.04968483 -0.01321293 -0.00226952
v 0.05317081 -0.01345687 -0.00244993
v 0.05360082 -0.01351690 -0.00236083
v 0.04636167 -0.01274292 -0.00197954
v 0.04591914 -0.01261392 -0.00204761
v 0.06792882 -0.00165425 -0.00067351
v 0.06078987 -0.00116125 -0.00162647
v 0.06782863 -0.00197738 -0.00081297
v 0.06855504 -0.00169767 -0.00057888
v 0.06837553 -0.00173216 -0.00063200
v 0.06855504 -0.00938771 -0.00186333
v 0.06855504 -0.01088203 -0.00202492
v 0.02590502 -0.00351641 0.00114331
v 0.03728977 -0.00976320 -0.00081075
v 0.03776153 -0.00995990 -0.00076205
v 0.03772813 -0.00990881 -0.00054512
v 0.05343382 -0.01349902 -0.00191092
v 0.06855504 -0.01340195 -0.00045215
v 0.04365221 -0.01206855 -0.00148369
v 0.04518019 -0.01250280 -0.00165193
v 0.04577719 -0.01264457 -0.00161761
v 0.04939676 -0.01321676 -0.00185558
v 0.04181946 -0.01146061 -0.00122193
v 0.03956087 -0.01063170 -0.00102492
v 0.04297171 -0.01184504 -0.00147982
v 0.03430477 -0.00813349 -0.00052022
v 0.03684724 -0.00951798 -0.00086056
v 0.05859809 -0.01350030 -0.00255176
v 0.06795387 -0.01341600 -0.00110682
v 0.06855504 -0.01342877 -0.00094412
v 0.06392516 -0.01347858 -0.00166465
v 0.04534719 -0.01243766 -0.00213394
v 0.04249578 -0.01165985 -0.00160987
v 0.03903485 -0.01042479 -0.00108469
v 0.05405587 -0.01352201 -0.00224573
v 0.05800526 -0.01354500 -0.00222580
v 0.06771591 -0.01341600 -0.00060046
v 0.06855504 -0.01342111 -0.00072110
v 0.06464323 -0.01347858 -0.00148480
f 1 2 6
f 1 6 16
f 1 16 42
f 1 42 77
f 1 77 104
f 1 104 146
f 1 146 200
f 1 200 233
f 1 233 184
f 1 184 134
f 1 134 90
f 1 90 50
f 1 50 49
f 1 49 48
f 1 48 18
f 1 18 8
f 1 8 3
f 1 3 7
f 1 7 17
f 1 17 43
f 1 43 78
f 1 78 89
f 1 89 88
f 1 88 87
f 1 87 86
f 1 86 85
f 1 85 84
f 1 84 83
f 1 83 82
f 1 82 133
f 1 133 132
f 1 132 131
f 1 131 118
f 1 118 101
f 1 101 57
f 1 57 56
f 1 56 24
f 1 24 12
f 1 12 4
f 1 4 5
f 1 5 2
f 2 5 6
f 3 8 9
f 3 9 10
f 3 10 11
f 3 11 7
f 4 12 13
f 4 13 5
f 5 14 6
f 5 13 15
f 5 15 14
f 6 14 16
f 7 11 17
f 8 18 19
f 8 19 9
f 9 19 18
f 9 18 20
f 9 20 21
f 9 21 22
f 9 22 10
f 10 22 52
f 10 52 94
f 10 94 140
f 10 140 191
f 10 191 238
f 10 238 258
f 10 258 250
f 10 250 212
f 10 212 211
f 10 211 210
f 10 210 209
f 10 209 208
f 10 208 207
f 10 207 176
f 10 176 175
f 10 175 232
f 10 232 231
f 10 231 172
f 10 172 171
f 10 171 121
f 10 121 170
f 10 170 229
f 10 229 179
f 10 179 127
f 10 127 178
f 10 178 145
f 10 145 100
f 10 100 99
f 10 99 53
f 10 53 23
f 10 23 11
f 11 23 17
f 12 24 13
f 13 24 25
f 13 25 15
f 14 26 27
f 14 27 28
f 14 28 16
f 14 15 29
f 14 29 30
f 14 30 26
f 15 31 32
f 15 32 33
f 15 33 34
f 15 34 30
f 15 30 29
f 15 25 35
f 15 35 36
f 15 36 37
f 15 37 38
f 15 38 39
f 15 39 40
f 15 40 31
f 16 41 42
f 16 28 27
f 16 27 41
f 17 23 44
f 17 44 45
f 17 45 46
f 17 46 47
f 17 47 43
f 18 48 20
f 20 48 21
f 21 48 49
f 21 49 50
f 21 50 51
f 21 51 52
f 21 52 22
f 23 53 54
f 23 54 55
f 23 55 44
f 24 56 25
f 25 56 57
f 25 57 36
f 25 36 35
f 26 30 58
f 26 58 27
f 27 58 59
f 27 59 41
f 30 34 59
f 30 59 58
f 31 60 33
f 31 33 32
f 31 40 61
f 31 61 60
f 33 62 63
f 33 63 34
f 33 60 64
f 33 64 65
f 33 65 66
f 33 66 67
f 33 67 62
f 34 68 69
f 34 69 59
f 34 63 70
f 34 70 68
f 36 57 71
f 36 71 72
f 36 72 37
f 37 73 74
f 37 74 38
f 37 72 71
f 37 71 73
f 38 74 40
f 38 40 39
f 40 74 75
f 40 75 76
f 40 76 61
f 41 77 42
f 41 59 77
f 43 47 78
f 44 55 45
f 45 55 54
f 45 54 46
f 46 54 79
f 46 79 80
f 46 80 47
f 47 80 81
f 47 81 82
f 47 82 83
f 47 83 84
f 47 84 85
f 47 85 86
f 47 86 87
f 47 87 88
f 47 88 89
f 47 89 78
f 50 90 51
f 51 90 91
f 51 91 92
f 51 92 52
f 52 93 94
f 52 92 95
f 52 95 91
f 52 91 96
f 52 96 97
f 52 97 98
f 52 98 93
f 53 99 54
f 54 99 100
f 54 100 79
f 57 101 71
f 59 69 102
f 59 102 103
f 59 103 104
f 59 104 77
f 60 61 105
f 60 105 64
f 61 76 106
f 61 106 107
f 61 107 108
f 61 108 109
f 61 109 105
f 62 110 63
f 62 67 110
f 63 110 111
f 63 111 70
f 64 105 65
f 65 105 66
f 66 105 109
f 66 109 67
f 67 109 112
f 67 112 113
f 67 113 114
f 67 114 115
f 67 115 116
f 67 116 110
f 68 117 69
f 68 70 111
f 68 111 117
f 69 117 102
f 71 101 118
f 71 118 73
f 73 118 74
f 74 119 75
f 74 118 119
f 75 120 121
f 75 121 122
f 75 122 123
f 75 123 124
f 75 124 76
f 75 119 120
f 76 124 125
f 76 125 107
f 76 107 106
f 79 100 126
f 79 126 127
f 79 127 128
f 79 128 129
f 79 129 81
f 79 81 80
f 81 129 130
f 81 130 131
f 81 131 132
f 81 132 133
f 81 133 82
f 90 134 91
f 91 95 92
f 91 134 135
f 91 135 136
f 91 136 137
f 91 137 138
f 91 138 97
f 91 97 96
f 93 98 94
f 94 139 140
f 94 98 141
f 94 141 139
f 97 138 142
f 97 142 98
f 98 142 143
f 98 143 144
f 98 144 141
f 100 145 126
f 102 117 103
f 103 146 104
f 103 117 147
f 103 147 148
f 103 148 146
f 107 125 124
f 107 124 108
f 108 149 150
f 108 150 109
f 108 124 151
f 108 151 152
f 108 152 153
f 108 153 149
f 109 150 112
f 110 154 155
f 110 155 111
f 110 116 115
f 110 115 154
f 111 155 156
f 111 156 147
f 111 147 117
f 112 150 113
f 113 150 149
f 113 149 157
f 113 157 115
f 113 115 114
f 115 158 159
f 115 159 160
f 115 160 154
f 115 157 161
f 115 161 162
f 115 162 158
f 118 131 130
f 118 130 163
f 118 163 164
f 118 164 165
f 118 165 119
f 119 165 166
f 119 166 167
f 119 167 120
f 120 167 168
f 120 168 169
f 120 169 121
f 121 169 170
f 121 171 122
f 122 171 123
f 123 171 172
f 123 172 173
f 123 173 174
f 123 174 124
f 124 174 173
f 124 173 175
f 124 175 176
f 124 176 177
f 124 177 151
f 126 145 178
f 126 178 127
f 127 179 180
f 127 180 128
f 128 180 179
f 128 179 181
f 128 181 165
f 128 165 182
f 128 182 183
f 128 183 129
f 129 183 130
f 130 183 164
f 130 164 163
f 134 184 185
f 134 185 136
f 134 136 135
f 136 185 186
f 136 186 187
f 136 187 142
f 136 142 137
f 137 142 138
f 139 188 189
f 139 189 190
f 139 190 140
f 139 141 188
f 140 190 191
f 141 144 192
f 141 192 193
f 141 193 194
f 141 194 195
f 141 195 196
f 141 196 197
f 141 197 188
f 142 198 199
f 142 199 192
f 142 192 143
f 142 187 186
f 142 186 198
f 143 192 144
f 146 148 201
f 146 201 200
f 147 202 203
f 147 203 201
f 147 201 148
f 147 156 202
f 149 204 162
f 149 162 161
f 149 161 157
f 149 153 205
f 149 205 206
f 149 206 204
f 151 177 207
f 151 207 208
f 151 208 209
f 151 209 210
f 151 210 211
f 151 211 212
f 151 212 213
f 151 213 214
f 151 214 152
f 152 214 153
f 153 214 205
f 154 160 215
f 154 215 155
f 155 215 156
f 156 215 216
f 156 216 217
f 156 217 218
f 156 218 219
f 156 219 203
f 156 203 202
f 158 220 221
f 158 221 159
f 158 162 222
f 158 222 223
f 158 223 220
f 159 221 160
f 160 195 224
f 160 224 225
f 160 225 215
f 160 221 195
f 162 223 222
f 162 204 223
f 164 183 182
f 164 182 165
f 165 181 226
f 165 226 227
f 165 227 166
f 166 227 167
f 167 227 228
f 167 228 168
f 168 228 170
f 168 170 169
f 170 228 230
f 170 230 229
f 172 231 173
f 173 231 232
f 173 232 175
f 176 207 177
f 179 229 181
f 181 229 226
f 184 233 186
f 184 186 185
f 186 234 235
f 186 235 236
f 186 236 198
f 186 233 234
f 188 197 189
f 189 197 237
f 189 237 238
f 189 238 191
f 189 191 190
f 192 199 193
f 193 199 239
f 193 239 240
f 193 240 241
f 193 241 195
f 193 195 194
f 195 241 240
f 195 240 216
f 195 216 224
f 195 221 220
f 195 220 196
f 196 220 242
f 196 242 197
f 197 242 220
f 197 220 223
f 197 223 237
f 198 243 199
f 198 236 235
f 198 235 244
f 198 244 243
f 199 243 245
f 199 245 239
f 200 201 246
f 200 246 233
f 201 203 247
f 201 247 246
f 203 219 234
f 203 234 247
f 204 206 248
f 204 248 223
f 205 214 212
f 205 212 206
f 206 212 249
f 206 249 250
f 206 250 251
f 206 251 248
f 212 250 249
f 212 214 213
f 215 252 216
f 215 225 252
f 216 239 245
f 216 245 217
f 216 252 225
f 216 225 224
f 216 240 239
f 217 245 253
f 217 253 219
f 217 219 218
f 219 254 235
f 219 235 234
f 219 253 254
f 223 255 237
f 223 248 256
f 223 256 255
f 226 229 230
f 226 230 227
f 227 230 228
f 233 246 234
f 234 246 247
f 235 254 244
f 237 255 256
f 237 256 257
f 237 257 238
f 238 257 258
f 243 244 254
f 243 254 253
f 243 253 245
f 248 251 256
f 250 259 251
f 250 258 259
f 251 259 256
f 256 259 258
f 256 258 257

