# https://github.com/mikedh/trimesh
v -0.03264792 0.01800498 -0.00866875
v -0.01776830 0.01797182 -0.01557882
v -0.03264792 0.01797274 -0.01557038
v -0.01776830 0.01800498 -0.01521927
v -0.03264792 0.01800498 -0.01458540
v -0.03264792 0.00861130 -0.00866875
v 0.05665137 0.01795985 -0.01562187
v -0.03264792 0.01796998 -0.01558557
v -0.03264792 0.01800406 -0.01522602
v -0.00298565 0.00859472 -0.00866875
v -0.03264792 0.00890606 -0.01516525
v -0.00114320 0.00859472 -0.01717151
v -0.00118630 0.00859472 -0.01715884
v -0.00149876 0.00859472 -0.01702718
v -0.00153109 0.00859472 -0.01701283
v -0.00182200 0.00859472 -0.01683052
v -0.00210214 0.00859472 -0.01658744
v -0.00223143 0.00859472 -0.01645155
v -0.00243615 0.00859472 -0.01615276
v -0.00257621 0.00859472 -0.01582697
v -0.00261931 0.00859472 -0.01565732
v -0.00265164 0.00859472 -0.01548429
v -0.00267318 0.00859472 -0.01530958
v -0.00268396 0.00859472 -0.01514837
v 0.05665137 0.01773509 -0.01621353
v -0.01776830 0.01787418 -0.01592741
v -0.01776830 0.01788708 -0.01588183
v -0.03264792 0.01794971 -0.01565816
v -0.03264792 0.00891343 -0.01531295
v -0.00077687 0.00859472 -0.01725928
v 0.03817305 0.01766140 -0.01632832
v -0.01776830 0.01771482 -0.01625405
v -0.03264792 0.01771851 -0.01624729
v -0.01725112 0.01773509 -0.01621353
v -0.03264792 0.01783089 -0.01601603
v -0.03264792 0.01787050 -0.01593416
v -0.03264792 0.01787602 -0.01591897
v -0.03264792 0.01790089 -0.01583203
v -0.03264792 0.01794142 -0.01568770
v -0.03264792 0.00892909 -0.01548598
v -0.00073377 0.00859472 -0.01726266
v -0.03264792 0.00896133 -0.01566154
v -0.03264792 0.00900647 -0.01582697
v -0.03264792 0.00907003 -0.01599746
v 0.05665137 0.01746612 -0.01658153
v -0.01776830 0.01749928 -0.01654946
v 0.05665137 0.01752599 -0.01651316
v -0.01725112 0.01752599 -0.01651316
v -0.03264792 0.01771022 -0.01625995
v -0.00038899 0.00859472 -0.01728883
v -0.03264792 0.00914556 -0.01615529
v -0.03264792 0.01702121 -0.01694699
v -0.01776830 0.01723307 -0.01680520
v -0.03264792 0.01730492 -0.01673599
v -0.03264792 0.01749283 -0.01655536
v -0.03264792 0.01750296 -0.01654355
v -0.03264792 0.01754810 -0.01648193
v -0.03264792 0.00923122 -0.01630216
v -0.03264792 0.00933807 -0.01645492
v -0.03264792 0.00944769 -0.01658406
v -0.03264792 0.00945782 -0.01659503
v -0.03264792 0.00971574 -0.01683052
v -0.03264792 0.01001879 -0.01702718
v -0.03264792 0.01035316 -0.01717151
v -0.03264792 0.01070687 -0.01725928
v -0.03264792 0.01073082 -0.01726182
v -0.03264792 0.01107164 -0.01728967
v 0.05665137 0.01679554 -0.01706938
v -0.03264792 0.01691621 -0.01701536
v -0.01776830 0.01692357 -0.01701198
v -0.03264792 0.01699450 -0.01696472
v -0.03264792 0.01716215 -0.01685246
v -0.03264792 0.01722570 -0.01680942
v -0.03264792 0.01723860 -0.01679929
v -0.01776830 0.01584309 -0.01728967
v -0.03264792 0.01558057 -0.01728967
v 0.03817305 0.01630918 -0.01723481
v -0.01776830 0.01658276 -0.01716475
v -0.03264792 0.01659012 -0.01716138
v -0.03264792 0.01693002 -0.01700692
v -0.03264792 0.01585138 -0.01728883
v -0.03264792 0.01613325 -0.01726519
v -0.01725112 0.01598402 -0.01727785
v 0.01970551 0.01598402 -0.01727785
v 0.05665137 0.01589007 -0.01728545
v 0.03817305 0.01612403 -0.01726604
v -0.01776830 0.01617377 -0.01726182
v -0.03264792 0.01621154 -0.01725844
v -0.01776830 0.01621891 -0.01725760
v -0.03264792 0.01622720 -0.01725591
v -0.03264792 0.01648420 -0.01719007
v -0.03264792 0.01657447 -0.01716644
v 0.07242455 0.01800498 -0.00881725
v 0.07242455 0.01800498 -0.00885950
v 0.07242455 0.01800498 -0.00866875
v 0.07242455 0.01800498 -0.00881725
v 0.07242455 0.01776921 -0.00866875
v 0.07242455 0.01800498 -0.00866875
v 0.07242455 0.01767910 -0.00866875
v 0.07242455 0.01776921 -0.00866875
v 0.07242455 0.01800417 -0.01522808
v 0.07242455 0.01800401 -0.01522974
v 0.07242455 0.01800498 -0.01521927
v 0.07242455 0.01800417 -0.01522808
v 0.07242455 0.01797093 -0.01557882
v 0.07242455 0.01796928 -0.01558512
v 0.07242455 0.01787011 -0.01593579
v 0.07242455 0.01785382 -0.01596930
v 0.07242455 0.01787418 -0.01592741
v 0.07242455 0.01787011 -0.01593579
v 0.07242455 0.01787456 -0.01592608
v 0.07242455 0.01787418 -0.01592741
v 0.07242455 0.01788672 -0.01588268
v 0.07242455 0.01787456 -0.01592608
v 0.07242455 0.00859472 -0.01728964
v 0.07242455 0.00859472 -0.01699113
v 0.07242455 0.01771393 -0.01625405
v 0.07242455 0.01771006 -0.01625949
v 0.07242455 0.01771402 -0.01625388
v 0.07242455 0.01771393 -0.01625405
v 0.07242455 0.01771700 -0.01624812
v 0.07242455 0.01771402 -0.01625388
v 0.07242455 0.01749928 -0.01654946
v 0.07242455 0.01749443 -0.01655415
v 0.07242455 0.01750006 -0.01654840
v 0.07242455 0.01749928 -0.01654946
v 0.07242455 0.01750319 -0.01654415
v 0.07242455 0.01750006 -0.01654840
v 0.07242455 0.01751115 -0.01653327
v 0.07242455 0.01750319 -0.01654415
v 0.07242455 0.01723307 -0.01680520
v 0.07242455 0.01722775 -0.01680876
v 0.07242455 0.01726719 -0.01677246
v 0.07242455 0.01723307 -0.01680520
v 0.07242455 0.00865689 -0.01728967
v 0.07242455 0.00859472 -0.01728964
v 0.07242455 0.01692339 -0.01701206
v 0.07242455 0.01690483 -0.01702038
v 0.07242455 0.01692357 -0.01701198
v 0.07242455 0.01692339 -0.01701206
v 0.07242455 0.01692602 -0.01701035
v 0.07242455 0.01692357 -0.01701198
v 0.07242455 0.00877006 -0.01728967
v 0.07242455 0.00865689 -0.01728967
v 0.07242455 0.00880579 -0.01728967
v 0.07242455 0.00877006 -0.01728967
v 0.07242455 0.01658186 -0.01716475
v 0.07242455 0.01656187 -0.01716988
v 0.07242455 0.01661312 -0.01715079
v 0.07242455 0.01658186 -0.01716475
v 0.07242455 0.01584997 -0.01728834
v 0.07242455 0.01584309 -0.01728885
v 0.07242455 0.01621111 -0.01725822
v 0.07242455 0.01616998 -0.01726168
v 0.07242455 0.01621670 -0.01725772
v 0.07242455 0.01621111 -0.01725822
v 0.07242455 0.01621783 -0.01725762
v 0.07242455 0.01621670 -0.01725772
v 0.07242455 0.01621802 -0.01725760
v 0.07242455 0.01621783 -0.01725762
v 0.07242455 0.01621822 -0.01725756
v 0.07242455 0.01621802 -0.01725760
v 0.07242455 0.01622466 -0.01725593
v 0.07242455 0.01621822 -0.01725756
v 0.07242455 0.01800498 -0.00885950
v 0.07242455 0.01800498 -0.01521927
v 0.07242455 0.00859472 -0.00866875
v 0.07242455 0.01767910 -0.00866875
v 0.07242455 0.01800401 -0.01522974
v 0.07242455 0.01797093 -0.01557882
v 0.07242455 0.01796928 -0.01558512
v 0.07242455 0.01788672 -0.01588268
v 0.07242455 0.01785382 -0.01596930
v 0.07242455 0.01771700 -0.01624812
v 0.07242455 0.00859472 -0.01699113
v 0.07242455 0.00859472 -0.01691807
v 0.07242455 0.00859472 -0.01691807
v 0.07242455 0.00859472 -0.01681784
v 0.07242455 0.00859472 -0.01681784
v 0.07242455 0.00859472 -0.01678988
v 0.07242455 0.00859472 -0.01678988
v 0.07242455 0.00859472 -0.01660699
v 0.07242455 0.00859472 -0.01660699
v 0.07242455 0.00859472 -0.01637880
v 0.07242455 0.00859472 -0.01637880
v 0.07242455 0.00859472 -0.01611027
v 0.07242455 0.00859472 -0.01611027
v 0.07242455 0.00859472 -0.01604054
v 0.07242455 0.00859472 -0.01604054
v 0.07242455 0.00859472 -0.01581013
v 0.07242455 0.00859472 -0.01581013
v 0.07242455 0.00859472 -0.01548793
v 0.07242455 0.00859472 -0.01548793
v 0.07242455 0.00859472 -0.01515261
v 0.07242455 0.00859472 -0.01515261
v 0.07242455 0.00859472 -0.01507414
v 0.07242455 0.00859472 -0.01507414
v 0.07242455 0.00859472 -0.01481194
v 0.07242455 0.00859472 -0.01481194
v 0.07242455 0.00859472 -0.00866875
v 0.07242455 0.01771006 -0.01625949
v 0.07242455 0.01751115 -0.01653327
v 0.07242455 0.01749443 -0.01655415
v 0.07242455 0.01726719 -0.01677246
v 0.07242455 0.01722775 -0.01680876
v 0.07242455 0.01692602 -0.01701035
v 0.07242455 0.01690483 -0.01702038
v 0.07242455 0.01661312 -0.01715079
v 0.07242455 0.01584309 -0.01728885
v 0.07242455 0.00880579 -0.01728967
v 0.07242455 0.01656187 -0.01716988
v 0.07242455 0.01622466 -0.01725593
v 0.07242455 0.01616998 -0.01726168
v 0.07242455 0.01584997 -0.01728834
f 5 4 9
f 10 6 24
f 12 29 30
f 30 29 40
f 152 145 75
f 11 12 6
f 29 12 11
f 15 16 6
f 42 43 30
f 30 40 42
f 50 64 65
f 50 62 63
f 63 64 50
f 61 62 50
f 6 20 21
f 21 22 6
f 23 24 6
f 6 22 23
f 19 20 6
f 6 18 19
f 6 16 17
f 17 18 6
f 56 46 55
f 81 75 76
f 82 75 81
f 6 12 13
f 67 50 66
f 50 65 66
f 44 51 50
f 50 41 44
f 44 41 30
f 30 43 44
f 58 59 50
f 50 51 58
f 50 59 60
f 60 61 50
f 48 46 56
f 2 8 3
f 9 4 3
f 26 38 27
f 102 105 2
f 7 8 2
f 74 53 73
f 45 53 46
f 54 53 74
f 46 53 54
f 54 55 46
f 78 79 69
f 69 68 78
f 91 78 77
f 80 70 69
f 205 141 52
f 14 15 6
f 6 13 14
f 49 33 32
f 32 48 49
f 35 36 26
f 26 33 35
f 34 33 26
f 31 48 32
f 26 36 37
f 37 38 26
f 8 7 28
f 28 7 27
f 72 53 52
f 72 73 53
f 133 45 124
f 87 82 88
f 79 78 92
f 92 78 91
f 91 77 90
f 85 154 151
f 52 70 71
f 70 80 71
f 57 48 56
f 57 49 48
f 33 34 25
f 48 31 47
f 39 27 38
f 39 28 27
f 106 113 7
f 75 82 83
f 82 87 83
f 83 87 86
f 148 163 77
f 88 90 89
f 68 138 208
f 31 201 202
f 75 83 84
f 84 83 86
f 84 85 75
f 84 86 85
f 25 173 121
f 1 6 167
f 167 95 1
f 167 6 10
f 1 95 103
f 103 5 1
f 4 5 103
f 115 50 135
f 135 50 67
f 76 135 67
f 145 135 76
f 76 75 145
f 141 70 52
f 139 70 141
f 4 103 3
f 3 103 101
f 102 3 101
f 2 3 102
f 45 126 124
f 46 126 45
f 205 53 131
f 52 53 205
f 137 70 139
f 69 70 137
f 14 167 10
f 115 167 14
f 14 50 115
f 30 41 14
f 10 24 14
f 14 41 50
f 14 12 30
f 16 15 14
f 24 23 14
f 14 21 20
f 20 19 14
f 14 17 16
f 22 21 14
f 14 23 22
f 14 19 18
f 18 17 14
f 14 13 12
f 131 53 133
f 53 45 133
f 152 75 151
f 75 85 151
f 69 137 138
f 138 68 69
f 130 126 47
f 47 126 46
f 46 48 47
f 32 117 201
f 201 31 32
f 39 6 1
f 39 80 69
f 88 82 39
f 39 63 62
f 1 5 39
f 39 11 6
f 39 5 9
f 39 54 74
f 56 55 39
f 43 42 39
f 39 60 59
f 39 76 67
f 39 40 29
f 79 92 39
f 67 66 39
f 62 61 39
f 36 35 39
f 69 79 39
f 29 11 39
f 39 42 40
f 39 65 64
f 64 63 39
f 39 44 43
f 59 58 39
f 9 3 39
f 74 73 39
f 81 76 39
f 39 82 81
f 39 72 52
f 39 66 65
f 51 44 39
f 39 58 51
f 61 60 39
f 52 71 39
f 39 3 8
f 39 37 36
f 8 28 39
f 55 54 39
f 39 90 88
f 33 49 39
f 39 35 33
f 38 37 39
f 39 57 56
f 73 72 39
f 39 92 91
f 91 90 39
f 39 71 80
f 49 57 39
f 2 105 106
f 106 7 2
f 111 112 26
f 26 27 111
f 27 7 111
f 7 113 111
f 148 78 147
f 148 77 78
f 159 157 89
f 89 157 88
f 159 89 164
f 164 89 90
f 77 163 164
f 164 90 77
f 147 78 208
f 208 78 68
f 173 34 26
f 26 112 173
f 173 25 34
f 130 47 202
f 202 47 31
f 88 157 158
f 158 87 88
f 85 86 153
f 153 154 85
f 87 158 153
f 86 87 153
f 95 167 122
f 122 167 115
f 122 103 95
f 159 164 122
f 101 103 122
f 122 106 105
f 122 126 130
f 122 145 152
f 115 135 122
f 122 157 159
f 122 135 145
f 131 133 122
f 122 205 131
f 122 137 139
f 122 102 101
f 139 141 122
f 147 208 122
f 105 102 122
f 124 126 122
f 112 111 122
f 141 205 122
f 152 151 122
f 122 173 112
f 122 133 124
f 122 148 147
f 122 151 154
f 122 138 137
f 122 201 117
f 113 106 122
f 122 111 113
f 130 202 122
f 163 148 122
f 122 164 163
f 122 208 138
f 122 158 157
f 122 202 201
f 154 153 122
f 122 121 173
f 122 153 158
f 122 117 32
f 32 33 122
f 33 25 122
f 25 121 122

