# https://github.com/mikedh/trimesh

o coacd_hull_04_oriented.ply
v -0.03395533 0.00817228 0.00107387
v -0.03395533 0.00816017 0.00056491
v -0.03395533 0.00816774 0.00116297
v -0.03385866 0.00816774 0.00111977
v -0.03057886 0.00805111 0.00148428
v -0.03248014 0.00815259 0.00019230
v -0.03395533 0.00814956 0.00035700
v -0.03395533 0.00813593 0.00154908
v -0.02775379 0.00799810 0.00010319
v -0.03357937 0.00811473 0.00163279
v -0.03395533 0.00807838 0.00191359
v -0.03007758 0.00796478 0.00189874
v -0.01791799 0.00757098 0.00197570
v -0.03355072 0.00804354 -0.00088234
v -0.03374766 0.00810715 -0.00039902
v -0.03395533 0.00813745 0.00014234
v -0.02947962 0.00801173 -0.00034772
v -0.02724894 0.00796781 -0.00005746
v -0.01323461 0.00742104 0.00126693
v -0.01763512 0.00760733 -0.00000886
v -0.03395533 0.00796024 0.00239286
v -0.03040699 0.00788905 0.00232671
v -0.01357835 0.00734379 0.00228351
v -0.01314510 0.00737863 0.00186499
v -0.02153436 0.00760279 0.00232671
v -0.01165558 0.00722414 0.00255621
v -0.03312106 0.00799659 -0.00105919
v -0.03395533 0.00795569 -0.00117799
v -0.03395533 0.00803294 -0.00088234
v -0.03395533 0.00807232 -0.00060828
v -0.03395533 0.00810110 -0.00039362
v -0.01279062 0.00734076 -0.00052998
v -0.00070980 0.00679853 0.00107792
v -0.00051645 0.00680459 0.00054330
v -0.03395533 0.00779969 0.00275737
v -0.02207144 0.00741195 0.00295582
v -0.02727042 0.00769669 0.00260481
v -0.01804689 0.00738468 0.00272362
v -0.01147656 0.00718476 0.00264397
v -0.00083512 0.00670159 0.00150723
v -0.01363922 0.00722111 0.00278977
v -0.01319881 0.00702875 0.00331359
v -0.03259471 0.00794206 -0.00116044
v -0.03266275 0.00778606 -0.00163026
v -0.03395533 0.00794055 -0.00122255
v -0.01227144 0.00719990 -0.00097549
v -0.00034101 0.00658497 0.00159364
v -0.00019778 0.00667585 0.00114812
v -0.00016914 0.00672128 0.00074446
v 0.00240887 0.00588067 0.00005864
v -0.00036249 0.00669554 0.00014639
v -0.03395533 0.00762702 0.00310838
v -0.00092822 0.00652287 0.00191494
v -0.03395533 0.00738166 0.00353094
v -0.03136658 0.00720899 0.00370780
v -0.03057886 0.00708631 0.00387115
v -0.01801466 0.00689698 0.00369430
v -0.01284075 0.00674249 0.00371995
v -0.03262694 0.00752251 -0.00218782
v -0.03395533 0.00770427 -0.00172206
v -0.01222847 0.00681368 -0.00188676
v -0.01193129 0.00682276 -0.00180846
v -0.00043052 0.00639413 0.00199865
v 0.00202933 0.00495525 0.00314078
v 0.00216181 0.00512943 0.00272632
v 0.00166411 0.00548839 0.00233481
v 0.00262370 0.00577617 0.00060001
v 0.00262370 0.00578222 0.00052035
v 0.00262370 0.00578677 0.00007079
v 0.00262370 0.00562925 -0.00040982
v 0.00200426 0.00587462 -0.00051648
v 0.00155669 0.00599427 -0.00059073
v 0.00112344 0.00604122 -0.00067578
v -0.00019778 0.00651378 -0.00018707
v -0.03395533 0.00735894 0.00356469
v -0.03084740 0.00694848 0.00407771
v -0.01394715 0.00651681 0.00409391
v -0.01174510 0.00560653 0.00490258
v -0.00044126 0.00575496 0.00281137
v -0.03266991 0.00725897 -0.00254828
v -0.03395533 0.00716204 -0.00274404
v -0.03395533 0.00727563 -0.00258609
v -0.00058448 0.00642291 -0.00040982
v 0.00003137 0.00560804 -0.00161271
v 0.00015311 0.00544598 -0.00184491
v -0.00016556 0.00542478 -0.00192457
v -0.01218551 0.00655316 -0.00218782
v -0.03395533 0.00696059 -0.00300325
v -0.03366172 0.00702572 -0.00290875
v 0.00148866 0.00517789 0.00305978
v 0.00171782 0.00475532 0.00346479
v 0.00219045 0.00446451 0.00351609
v 0.00258431 0.00460688 0.00313673
v 0.00143495 0.00487800 0.00343509
v 0.00262370 0.00572467 0.00071611
v 0.00262370 0.00561259 -0.00045842
v 0.00167485 0.00584584 -0.00083238
v 0.00129173 0.00578222 -0.00110104
v -0.03395533 0.00705450 0.00393865
v -0.03237988 0.00693636 0.00409121
v -0.03096556 0.00669251 0.00434772
v -0.01337784 0.00593369 0.00467712
v -0.01241824 0.00532936 0.00521849
v 0.00086206 0.00430548 0.00404126
v 0.00089071 0.00468716 0.00372400
v 0.00045746 0.00476440 0.00372265
v 0.00093726 0.00499614 0.00340269
v 0.00031782 0.00517941 -0.00203797
v -0.00054152 0.00458265 -0.00274404
v -0.01207451 0.00564439 -0.00303160
v -0.01512873 0.00611544 -0.00283989
v -0.03324638 0.00607152 -0.00383487
v -0.03395533 0.00615936 -0.00377817
v 0.00138124 0.00456599 0.00371995
v 0.00144570 0.00400861 0.00408041
v 0.00153163 0.00346487 0.00430991
v 0.00262370 0.00407071 0.00344049
v 0.00262370 0.00416765 0.00337974
v 0.00262370 0.00454933 0.00312863
v 0.00262370 0.00458265 0.00306518
v 0.00262370 0.00559896 -0.00047327
v 0.00223700 0.00553383 -0.00078783
v 0.00177153 0.00547930 -0.00109969
v -0.03395533 0.00665616 0.00435987
v -0.03174254 0.00652136 0.00452187
v -0.02727400 0.00614876 0.00477568
v -0.01385047 0.00559593 0.00500248
v -0.01234305 0.00480530 0.00556680
v -0.01198858 0.00485074 0.00549120
v 0.00036079 0.00400861 0.00432071
v -0.03232618 0.00625478 0.00476083
v -0.02719881 0.00578828 0.00504974
v -0.03246582 0.00546264 0.00533999
v 0.00093009 0.00377385 0.00437877
v 0.00040017 0.00500068 -0.00212437
v -0.00024433 0.00442816 -0.00278049
v 0.00011731 0.00498099 -0.00225263
v -0.00046633 0.00438575 -0.00283854
v -0.00526070 0.00229407 -0.00460439
v -0.00559011 0.00251520 -0.00452069
v -0.01209599 0.00374053 -0.00442889
v -0.01232873 0.00467050 -0.00387807
v -0.01199574 0.00533087 -0.00330566
v -0.01559420 0.00592308 -0.00304375
v -0.01249344 0.00517032 -0.00348386
v -0.03395533 0.00590642 -0.00400363
v -0.03395533 0.00593672 -0.00397798
v -0.01912464 0.00559290 -0.00350951
v 0.00262370 0.00405708 0.00344589
v 0.00065439 0.00198206 0.00530624
v 0.00065081 0.00140499 0.00553710
v 0.00114851 0.00164279 0.00518744
v 0.00262370 0.00555352 -0.00050838
v 0.00221194 0.00492647 -0.00123065
v 0.00244825 0.00514154 -0.00093229
v -0.03395533 0.00611998 0.00480943
v -0.01233947 0.00435546 0.00577066
v 0.00002779 0.00225166 0.00529544
v 0.00039301 0.00350576 0.00462042
v -0.03157784 0.00515669 0.00553035
v -0.03206121 0.00482196 0.00571395
v -0.01452720 0.00403436 0.00594211
v -0.03130929 0.00600790 0.00493093
v -0.03322132 0.00535662 0.00539265
v -0.03395533 0.00511579 0.00554385
v 0.00045030 0.00294687 0.00488773
v 0.00029633 0.00473865 -0.00233363
v 0.00022114 0.00328614 -0.00318550
v 0.00010656 0.00276663 -0.00352436
v -0.01225354 0.00351485 -0.00454904
v -0.00015482 0.00135955 -0.00410893
v -0.00511032 0.00197449 -0.00469080
v -0.03000239 0.00211838 -0.00627979
v -0.03029599 0.00279844 -0.00606244
v -0.02992003 0.00299079 -0.00594093
v -0.03027451 0.00353757 -0.00558452
v -0.01591646 0.00520667 -0.00365262
v -0.03395533 0.00588219 -0.00402118
v 0.00262370 0.00403285 0.00345129
v 0.00048968 0.00235466 0.00516314
v 0.00022114 0.00169277 0.00549390
v 0.00072242 0.00090063 0.00559785
v 0.00096590 0.00102483 0.00543990
v -0.01218193 0.00335279 0.00611087
v 0.00014237 0.00118386 0.00563700
v 0.00030708 0.00074462 0.00570045
v 0.00130247 0.00122930 0.00509969
v 0.00262370 0.00356635 0.00354309
v 0.00262370 0.00516881 -0.00077703
v 0.00246257 0.00475683 -0.00112399
v 0.00224416 0.00449480 -0.00142640
v 0.00031782 0.00290749 -0.00333941
v -0.01229292 0.00392077 0.00595966
v -0.03395533 0.00490829 0.00565050
v -0.03395533 0.00474017 0.00573286
v -0.02990929 0.00223349 0.00687094
v 0.00096590 0.00227590 -0.00326515
v 0.00060068 0.00210020 -0.00352436
v 0.00004569 0.00117780 -0.00407383
v -0.00014408 0.00105815 -0.00416428
v -0.00516044 0.00084004 -0.00482850
v -0.02978039 0.00096878 -0.00652820
v -0.02952259 0.00118992 -0.00646340
v -0.02967298 0.00186846 -0.00632299
v -0.03062540 0.00133078 -0.00645395
v -0.03036761 0.00212746 -0.00626629
v -0.03075431 0.00274543 -0.00605974
v -0.03060034 0.00309833 -0.00589773
v -0.03061466 0.00349970 -0.00562367
v -0.03395533 0.00550354 -0.00427903
v 0.00079403 0.00041595 0.00563295
v 0.00094084 -0.00001571 0.00555330
v -0.01251850 0.00249249 0.00633092
v -0.01219625 0.00191087 0.00645108
v -0.01386479 0.00357089 0.00610547
v -0.03009190 0.00190633 0.00700189
v 0.00035362 0.00026298 0.00571800
v 0.00047178 -0.00020504 0.00572476
v -0.01248627 0.00010697 0.00655098
v 0.00101245 -0.00146065 0.00557895
v 0.00146360 -0.00168330 0.00512399
v 0.00217255 -0.00365230 0.00413036
v 0.00262370 0.00319527 0.00354039
v 0.00262370 0.00484922 -0.00091069
v 0.00240529 0.00401467 -0.00139670
v 0.00203291 0.00325585 -0.00203797
v 0.00145644 0.00190784 -0.00301675
v 0.00110554 0.00185029 -0.00334886
v -0.03395533 0.00430245 0.00590701
v 0.00082626 0.00175033 -0.00351896
v 0.00117715 -0.00141370 -0.00399148
v 0.00078329 -0.00149246 -0.00421828
v -0.00523205 0.00049925 -0.00481500
v -0.01205303 -0.00123195 -0.00521731
v -0.02967656 0.00036748 -0.00653900
v -0.03056812 0.00075825 -0.00651470
v -0.03127707 0.00105057 -0.00638779
v -0.03104075 0.00188967 -0.00626494
v -0.03395533 0.00298322 -0.00534962
v -0.03395533 0.00326342 -0.00525646
v -0.03395533 0.00397832 -0.00501076
v -0.03395533 0.00438878 -0.00484875
v -0.03395533 0.00482045 -0.00467595
v -0.03395533 0.00489618 -0.00463815
v 0.00066155 -0.00086693 0.00569775
v -0.03001671 0.00106572 0.00718685
v -0.03021364 0.00074917 0.00723005
v -0.03069702 0.00202447 0.00693034
v -0.03051083 0.00136258 0.00713420
v -0.01219267 -0.00103505 0.00651858
v -0.03013845 0.00004184 0.00724490
v 0.00110196 -0.00195290 0.00548040
v 0.00084774 -0.00152881 0.00561810
v 0.00164263 -0.00350993 0.00478648
v 0.00181091 -0.00340693 0.00461637
v 0.00184672 -0.00386283 0.00450972
v 0.00221552 -0.00409457 0.00398995
v 0.00245900 -0.00391584 0.00362004
v 0.00239812 -0.00340087 0.00374695
v 0.00262370 -0.00417181 0.00313673
v 0.00262370 -0.00277837 -0.00246998
v 0.00217255 0.00334067 -0.00184896
v 0.00146002 -0.00138795 -0.00366072
v -0.03395533 0.00411464 0.00597181
v 0.00087280 -0.00201955 -0.00406978
v 0.00252344 -0.00279351 -0.00257798
v 0.00257357 -0.00319792 -0.00249293
v 0.00233009 -0.00337058 -0.00264684
v 0.00047536 -0.00209831 -0.00415888
v -0.01187042 -0.00140764 -0.00517681
v -0.03035328 0.00009334 -0.00651605
v -0.01235738 -0.00260570 -0.00496080
v -0.03102643 0.00037354 -0.00643370
v -0.03395533 -0.00107746 -0.00576543
v -0.03395533 -0.00094872 -0.00576678
v -0.03395533 -0.00050796 -0.00576813
v -0.03395533 -0.00008993 -0.00574518
v -0.03395533 0.00032962 -0.00570603
v -0.03395533 0.00251672 -0.00544277
v -0.03395533 0.00279995 -0.00540092
v -0.03088321 0.00103088 0.00715715
v -0.03049292 0.00020845 0.00725300
v -0.03395533 0.00357543 0.00613787
v -0.03395533 0.00347093 0.00616622
v -0.03033896 -0.00037771 0.00721250
v -0.01246479 -0.00170451 0.00644838
v -0.01184893 -0.00152578 0.00644433
v 0.00128815 -0.00320549 0.00504568
v -0.01244331 -0.00255420 0.00628097
v -0.01183461 -0.00421725 0.00573556
v -0.01208525 -0.00210891 0.00635387
v 0.00125592 -0.00374166 0.00486613
v 0.00130247 -0.00404004 0.00472303
v 0.00192191 -0.00416272 0.00430181
v 0.00159250 -0.00449897 0.00431666
v 0.00221910 -0.00448231 0.00380770
v 0.00246974 -0.00436568 0.00346614
v 0.00262370 -0.00422482 0.00312188
v 0.00262370 -0.00309795 -0.00244568
v 0.00188611 -0.00383254 -0.00283584
v 0.00195771 -0.00445353 -0.00256853
v 0.00155311 -0.00454744 -0.00272379
v 0.00262370 -0.00320700 -0.00239843
v 0.00259864 -0.00373560 -0.00217972
v 0.00229071 -0.00402186 -0.00243353
v -0.01230367 -0.00458227 -0.00416698
v -0.01204228 -0.00444293 -0.00421288
v -0.01201006 -0.00406124 -0.00439379
v -0.01211748 -0.00361595 -0.00460574
v -0.03050367 -0.00066700 -0.00634729
v -0.03091543 -0.00025957 -0.00640940
v -0.02965507 -0.00031561 -0.00638779
v -0.01382183 -0.00327062 -0.00481365
v -0.03395533 -0.00166664 -0.00573033
v -0.03128781 0.00091274 0.00709774
v -0.03106223 0.00045079 0.00717605
v -0.03395533 0.00294384 0.00628097
v -0.03095124 -0.00017475 0.00718415
v -0.03068985 -0.00075182 0.00714500
v -0.02991287 -0.00065639 0.00716390
v -0.03046428 -0.00129102 0.00702214
v -0.01203512 -0.00474282 0.00525764
v 0.00109122 -0.00463225 0.00437067
v 0.00095516 -0.00433387 0.00461367
v -0.03021364 -0.00166664 0.00687769
v -0.03395533 -0.00384465 0.00574231
v -0.03395533 -0.00421876 0.00554655
v -0.03395533 -0.00443990 0.00540615
v -0.03395533 -0.00493821 0.00506999
v -0.03395533 -0.00511996 0.00492283
v -0.01337784 -0.00506089 0.00497953
v 0.00191833 -0.00484884 0.00380500
v 0.00137766 -0.00495790 0.00399670
v 0.00243393 -0.00475797 0.00329738
v 0.00195055 -0.00505029 0.00357819
v 0.00257357 -0.00472313 0.00300713
v 0.00262370 -0.00467618 0.00291667
v 0.00229787 -0.00449897 -0.00206902
v 0.00195413 -0.00484278 -0.00226073
v 0.00152447 -0.00491094 -0.00239573
v -0.01211032 -0.00504574 -0.00386997
v 0.00262370 -0.00369016 -0.00215677
v 0.00262370 -0.00401278 -0.00181521
v -0.01321671 -0.00454744 -0.00421693
v -0.01281211 -0.00443838 -0.00426553
v -0.01379318 -0.00387343 -0.00457064
v -0.03043564 -0.00142885 -0.00609079
v -0.03395533 -0.00348115 -0.00525781
v -0.03395533 -0.00286621 -0.00545357
v -0.03395533 -0.00282683 -0.00546572
v -0.03395533 -0.00223614 -0.00563717
v -0.03395533 -0.00173631 -0.00572493
v -0.03188218 0.00062800 0.00696679
v -0.03395533 0.00080824 0.00643353
v -0.03144177 0.00015695 0.00709774
v -0.03163154 -0.00036105 0.00702754
v -0.03112310 -0.00069880 0.00708694
v -0.03395533 -0.00259813 0.00620402
v -0.03110162 -0.00127284 0.00695869
v -0.03395533 -0.00283744 0.00614057
v -0.03395533 -0.00316762 0.00603121
v -0.03395533 -0.00361140 0.00585976
v -0.03091185 -0.00173328 0.00681289
v -0.01253640 -0.00560918 0.00437202
v -0.03395533 -0.00527445 0.00478378
v -0.01814356 -0.00562584 0.00443007
v -0.01439113 -0.00550164 0.00454752
v 0.00089429 -0.00511087 0.00386845
v 0.00106974 -0.00536381 0.00354579
v 0.00150299 -0.00523507 0.00362274
v 0.00217255 -0.00526839 0.00299363
v 0.00237306 -0.00523355 0.00267907
v 0.00262370 -0.00501091 0.00244686
v 0.00262370 -0.00475191 0.00284917
v 0.00161040 -0.00535472 0.00339729
v 0.00223700 -0.00480038 -0.00168021
v 0.00262370 -0.00402035 -0.00180441
v 0.00245900 -0.00450654 -0.00153305
v 0.00188252 -0.00508361 -0.00186921
v 0.00145286 -0.00515782 -0.00200557
v -0.01276198 -0.00648614 -0.00225263
v -0.01346019 -0.00608628 -0.00291820
v -0.01312362 -0.00589544 -0.00310990
v -0.01376454 -0.00581971 -0.00327460
v -0.03371185 -0.00559403 -0.00397528
v -0.03341466 -0.00515934 -0.00431009
v -0.03056812 -0.00487762 -0.00443699
v -0.03307451 -0.00424754 -0.00492030
v -0.01603819 -0.00427480 -0.00445589
v -0.03262336 -0.00381285 -0.00514846
v -0.03080801 -0.00344934 -0.00525106
v -0.03316760 -0.00365533 -0.00520786
v -0.03395533 -0.00390675 -0.00508636
v -0.03395533 -0.00019444 0.00643488
v -0.03395533 -0.00084269 0.00641597
v -0.03395533 -0.00147883 0.00637412
v -0.03395533 -0.00243909 0.00623507
v -0.01238244 -0.00676331 0.00275197
v -0.01489241 -0.00594845 0.00408176
v -0.01403308 -0.00615141 0.00373480
v -0.03395533 -0.00557283 0.00445977
v -0.03178551 -0.00580153 0.00423971
v -0.01862336 -0.00596814 0.00406556
v 0.00122370 -0.00554859 0.00323123
v 0.00183598 -0.00545923 0.00300038
v 0.00158892 -0.00570157 0.00228486
v 0.00249122 -0.00522750 0.00218630
v 0.00262370 -0.00506695 0.00222950
v 0.00132396 -0.00563190 0.00300578
v 0.00214748 -0.00499879 -0.00127790
v 0.00262370 -0.00478069 -0.00009391
v 0.00262370 -0.00491549 0.00035970
v 0.00262370 -0.00433539 -0.00119555
v 0.00262370 -0.00458682 -0.00057588
v 0.00173930 -0.00534412 -0.00120500
v 0.00111270 -0.00570611 -0.00090124
v 0.00136692 -0.00536381 -0.00160596
v 0.00031066 -0.00583789 -0.00105244
v -0.01250418 -0.00668001 -0.00184491
v -0.01595584 -0.00657096 -0.00227018
v -0.01583410 -0.00645433 -0.00245378
v -0.01927860 -0.00638920 -0.00270219
v -0.02327093 -0.00638163 -0.00283449
v -0.03058244 -0.00611052 -0.00337991
v -0.03287042 -0.00584091 -0.00371472
v -0.03395533 -0.00639375 -0.00310180
v -0.03395533 -0.00578639 -0.00376062
v -0.03395533 -0.00562887 -0.00392532
v -0.03395533 -0.00518963 -0.00428173
v -0.03395533 -0.00481855 -0.00454094
v -0.03383717 -0.00402186 -0.00503236
v -0.03395533 -0.00402944 -0.00502156
v -0.01250418 -0.00685419 0.00256296
v 0.00085490 -0.00573186 0.00295312
v -0.01541159 -0.00610294 0.00389545
v -0.01565149 -0.00653158 0.00325283
v -0.01838346 -0.00677240 0.00286807
v -0.03395533 -0.00577427 0.00423566
v -0.03395533 -0.00615292 0.00377395
v -0.03395533 -0.00647099 0.00336084
v -0.01911748 -0.00633165 0.00359169
v 0.00049327 -0.00596360 -0.00006151
v 0.00131321 -0.00571066 0.00023685
v 0.00186104 -0.00557889 0.00140868
v 0.00075107 -0.00589696 0.00200135
v 0.00261654 -0.00512753 0.00174754
v 0.00262370 -0.00512147 0.00176104
v 0.00204723 -0.00516388 -0.00086614
v 0.00262370 -0.00500939 0.00081601
v 0.00245183 -0.00513662 0.00072961
v 0.00156385 -0.00553193 -0.00062448
v 0.00144570 -0.00563493 -0.00019787
v 0.00075107 -0.00580153 -0.00092689
v -0.00039113 -0.00603024 -0.00031127
v -0.01218551 -0.00706927 0.00008969
v -0.01269395 -0.00682087 -0.00140075
v -0.01615993 -0.00675120 -0.00183546
v -0.02355379 -0.00685873 -0.00192727
v -0.02197118 -0.00668152 -0.00226478
v -0.02340699 -0.00663306 -0.00241193
v -0.01904945 -0.00654672 -0.00242678
v -0.03312822 -0.00664063 -0.00273189
v -0.03369753 -0.00642555 -0.00306670
v -0.03395533 -0.00649523 -0.00295195
v -0.03379421 -0.00662094 -0.00277644
v -0.03395533 -0.00419605 -0.00492165
v -0.01255073 -0.00698596 0.00217280
v -0.01884893 -0.00684359 0.00271282
v 0.00050043 -0.00581820 0.00261291
v -0.03395533 -0.00675271 0.00293692
v -0.03395533 -0.00692083 0.00260616
v -0.03395533 -0.00698596 0.00247386
v -0.03304587 -0.00658762 0.00319478
v -0.01227860 -0.00710107 0.00049065
v 0.00209378 -0.00534412 0.00056221
v 0.00262370 -0.00512147 0.00172864
v -0.01255073 -0.00702989 0.00164359
v -0.01277988 -0.00711319 0.00034755
v -0.01592003 -0.00711773 -0.00008581
v -0.01607400 -0.00704655 -0.00055833
v -0.01608116 -0.00693295 -0.00111589
v -0.02429855 -0.00695264 -0.00165996
v -0.03340034 -0.00670121 -0.00260364
v -0.03395533 -0.00662548 -0.00273189
v -0.03395533 -0.00682087 -0.00222562
v -0.03395533 -0.00680269 -0.00227288
v -0.03342899 -0.00714954 0.00189199
v -0.03392310 -0.00718286 0.00175159
v -0.01278704 -0.00699959 0.00205805
v -0.03395533 -0.00716923 0.00180154
v -0.03085456 -0.00730100 -0.00005476
v -0.03066121 -0.00726162 -0.00035177
v -0.02474970 -0.00700262 -0.00142370
v -0.03298500 -0.00715711 -0.00096334
v -0.03278807 -0.00701777 -0.00161676
v -0.03395533 -0.00683450 -0.00217837
v -0.03395533 -0.00717983 0.00175699
v -0.03395533 -0.00718286 0.00173809
v -0.03395533 -0.00721012 0.00098072
v -0.03395533 -0.00724345 -0.00007771
v -0.03283461 -0.00725405 -0.00026807
v -0.03363666 -0.00699959 -0.00157626
v -0.03395533 -0.00708138 -0.00101059
v -0.03395533 -0.00697687 -0.00160461
f 1 2 7
f 1 7 16
f 1 16 31
f 1 31 30
f 1 30 29
f 1 29 28
f 1 28 45
f 1 45 60
f 1 60 82
f 1 82 81
f 1 81 88
f 1 88 113
f 1 113 147
f 1 147 146
f 1 146 178
f 1 178 210
f 1 210 244
f 1 244 243
f 1 243 242
f 1 242 241
f 1 241 240
f 1 240 239
f 1 239 280
f 1 280 279
f 1 279 278
f 1 278 277
f 1 277 276
f 1 276 275
f 1 275 274
f 1 274 314
f 1 314 352
f 1 352 351
f 1 351 350
f 1 350 349
f 1 349 348
f 1 348 393
f 1 393 432
f 1 432 466
f 1 466 430
f 1 430 429
f 1 429 428
f 1 428 427
f 1 427 426
f 1 426 464
f 1 464 484
f 1 484 486
f 1 486 485
f 1 485 496
f 1 496 504
f 1 504 503
f 1 503 500
f 1 500 499
f 1 499 498
f 1 498 497
f 1 497 490
f 1 490 472
f 1 472 471
f 1 471 470
f 1 470 440
f 1 440 439
f 1 439 438
f 1 438 401
f 1 401 365
f 1 365 330
f 1 330 329
f 1 329 328
f 1 328 327
f 1 327 326
f 1 326 362
f 1 362 361
f 1 361 360
f 1 360 358
f 1 358 397
f 1 397 396
f 1 396 395
f 1 395 394
f 1 394 354
f 1 354 317
f 1 317 284
f 1 284 283
f 1 283 264
f 1 264 229
f 1 229 195
f 1 195 194
f 1 194 165
f 1 165 156
f 1 156 124
f 1 124 99
f 1 99 75
f 1 75 54
f 1 54 52
f 1 52 35
f 1 35 21
f 1 21 11
f 1 11 8
f 1 8 3
f 1 3 4
f 1 4 5
f 1 5 6
f 1 6 2
f 2 6 7
f 3 8 5
f 3 5 4
f 5 9 6
f 5 8 10
f 5 10 11
f 5 11 12
f 5 12 13
f 5 13 9
f 6 14 15
f 6 15 16
f 6 16 7
f 6 9 17
f 6 17 14
f 8 11 10
f 9 18 17
f 9 13 19
f 9 19 20
f 9 20 18
f 11 21 22
f 11 22 12
f 12 22 13
f 13 23 24
f 13 24 19
f 13 22 25
f 13 25 26
f 13 26 23
f 14 27 28
f 14 28 29
f 14 29 30
f 14 30 15
f 14 17 27
f 15 30 31
f 15 31 16
f 17 18 20
f 17 20 32
f 17 32 27
f 19 24 33
f 19 33 34
f 19 34 20
f 20 34 32
f 21 35 36
f 21 36 37
f 21 37 22
f 22 37 38
f 22 38 26
f 22 26 25
f 23 26 24
f 24 26 33
f 26 39 40
f 26 40 33
f 26 38 41
f 26 41 42
f 26 42 39
f 27 43 44
f 27 44 45
f 27 45 28
f 27 32 46
f 27 46 43
f 32 34 46
f 33 40 47
f 33 47 48
f 33 48 49
f 33 49 34
f 34 49 50
f 34 50 51
f 34 51 46
f 35 52 42
f 35 42 36
f 36 42 37
f 37 42 38
f 38 42 41
f 39 53 40
f 39 42 53
f 40 53 47
f 42 52 54
f 42 54 55
f 42 55 56
f 42 56 57
f 42 57 58
f 42 58 53
f 43 46 44
f 44 59 60
f 44 60 45
f 44 46 61
f 44 61 59
f 46 51 62
f 46 62 61
f 47 63 64
f 47 64 65
f 47 65 66
f 47 66 67
f 47 67 48
f 47 53 63
f 48 67 49
f 49 67 68
f 49 68 50
f 50 68 69
f 50 69 70
f 50 70 71
f 50 71 72
f 50 72 51
f 51 72 73
f 51 73 74
f 51 74 61
f 51 61 62
f 53 58 63
f 54 75 56
f 54 56 55
f 56 75 76
f 56 76 77
f 56 77 57
f 57 77 58
f 58 77 78
f 58 78 79
f 58 79 63
f 59 80 81
f 59 81 82
f 59 82 60
f 59 61 80
f 61 74 83
f 61 83 84
f 61 84 85
f 61 85 86
f 61 86 87
f 61 87 88
f 61 88 89
f 61 89 80
f 63 79 90
f 63 90 64
f 64 91 92
f 64 92 93
f 64 93 65
f 64 90 94
f 64 94 91
f 65 93 95
f 65 95 67
f 65 67 66
f 67 95 120
f 67 120 119
f 67 119 118
f 67 118 117
f 67 117 149
f 67 149 179
f 67 179 188
f 67 188 223
f 67 223 260
f 67 260 298
f 67 298 337
f 67 337 374
f 67 374 373
f 67 373 408
f 67 408 447
f 67 447 476
f 67 476 449
f 67 449 412
f 67 412 411
f 67 411 414
f 67 414 413
f 67 413 377
f 67 377 343
f 67 343 342
f 67 342 303
f 67 303 299
f 67 299 261
f 67 261 224
f 67 224 189
f 67 189 153
f 67 153 121
f 67 121 96
f 67 96 70
f 67 70 69
f 67 69 68
f 70 96 71
f 71 97 72
f 71 96 97
f 72 97 73
f 73 98 74
f 73 97 98
f 74 98 83
f 75 99 100
f 75 100 76
f 76 100 101
f 76 101 77
f 77 102 78
f 77 101 102
f 78 103 104
f 78 104 105
f 78 105 106
f 78 106 107
f 78 107 79
f 78 102 103
f 79 107 94
f 79 94 90
f 80 89 81
f 81 89 88
f 83 98 84
f 84 98 85
f 85 108 109
f 85 109 86
f 85 98 108
f 86 109 110
f 86 110 87
f 87 110 111
f 87 111 88
f 88 112 113
f 88 111 112
f 91 94 114
f 91 114 92
f 92 114 115
f 92 115 116
f 92 116 117
f 92 117 93
f 93 117 118
f 93 118 119
f 93 119 120
f 93 120 95
f 94 107 106
f 94 106 105
f 94 105 114
f 96 121 97
f 97 121 122
f 97 122 123
f 97 123 98
f 98 123 108
f 99 124 100
f 100 125 101
f 100 124 125
f 101 125 126
f 101 126 102
f 102 126 127
f 102 127 103
f 103 128 129
f 103 129 130
f 103 130 104
f 103 127 126
f 103 126 131
f 103 131 132
f 103 132 133
f 103 133 128
f 104 130 134
f 104 134 115
f 104 115 114
f 104 114 105
f 108 135 136
f 108 136 137
f 108 137 109
f 108 123 135
f 109 137 136
f 109 136 138
f 109 138 139
f 109 139 140
f 109 140 141
f 109 141 142
f 109 142 143
f 109 143 110
f 110 143 111
f 111 144 112
f 111 143 145
f 111 145 144
f 112 146 147
f 112 147 113
f 112 144 148
f 112 148 146
f 115 134 116
f 116 149 117
f 116 134 150
f 116 150 151
f 116 151 152
f 116 152 149
f 121 153 122
f 122 154 123
f 122 153 155
f 122 155 154
f 123 154 135
f 124 156 131
f 124 131 125
f 125 131 126
f 128 157 158
f 128 158 159
f 128 159 129
f 128 133 160
f 128 160 161
f 128 161 162
f 128 162 157
f 129 159 130
f 130 159 134
f 131 133 163
f 131 163 132
f 131 156 133
f 132 163 133
f 133 156 164
f 133 164 165
f 133 165 160
f 134 159 166
f 134 166 150
f 135 167 136
f 135 154 167
f 136 167 168
f 136 168 169
f 136 169 138
f 138 169 139
f 139 170 141
f 139 141 140
f 139 169 171
f 139 171 172
f 139 172 173
f 139 173 174
f 139 174 170
f 141 170 174
f 141 174 175
f 141 175 142
f 142 145 143
f 142 175 176
f 142 176 146
f 142 146 177
f 142 177 145
f 144 177 148
f 144 145 177
f 146 176 178
f 146 148 177
f 149 152 179
f 150 166 180
f 150 180 158
f 150 158 181
f 150 181 151
f 151 182 183
f 151 183 152
f 151 181 184
f 151 184 185
f 151 185 186
f 151 186 182
f 152 183 187
f 152 187 188
f 152 188 179
f 153 189 155
f 154 155 190
f 154 190 191
f 154 191 192
f 154 192 168
f 154 168 167
f 155 189 190
f 156 165 164
f 157 193 158
f 157 162 193
f 158 180 166
f 158 166 159
f 158 193 181
f 160 165 161
f 161 165 194
f 161 194 195
f 161 195 196
f 161 196 162
f 162 196 193
f 168 192 169
f 169 192 197
f 169 197 198
f 169 198 171
f 171 198 199
f 171 199 200
f 171 200 172
f 172 200 201
f 172 201 202
f 172 202 203
f 172 203 204
f 172 204 173
f 173 204 202
f 173 202 205
f 173 205 206
f 173 206 174
f 174 206 207
f 174 207 208
f 174 208 175
f 175 208 176
f 176 208 209
f 176 209 178
f 178 209 208
f 178 208 210
f 181 193 184
f 182 211 183
f 182 186 211
f 183 211 212
f 183 212 187
f 184 213 214
f 184 214 185
f 184 193 215
f 184 215 216
f 184 216 213
f 185 214 186
f 186 217 218
f 186 218 211
f 186 214 219
f 186 219 217
f 187 212 220
f 187 220 221
f 187 221 188
f 188 222 223
f 188 221 222
f 189 224 190
f 190 224 225
f 190 225 226
f 190 226 191
f 191 226 227
f 191 227 228
f 191 228 197
f 191 197 192
f 193 196 216
f 193 216 215
f 195 229 216
f 195 216 196
f 197 228 198
f 198 228 230
f 198 230 199
f 199 230 228
f 199 228 231
f 199 231 232
f 199 232 200
f 200 232 201
f 201 232 233
f 201 233 234
f 201 234 235
f 201 235 202
f 202 235 236
f 202 236 205
f 202 204 203
f 205 236 237
f 205 237 238
f 205 238 206
f 206 238 207
f 207 238 239
f 207 239 240
f 207 240 241
f 207 241 242
f 207 242 243
f 207 243 244
f 207 244 208
f 208 244 210
f 211 218 245
f 211 245 220
f 211 220 212
f 213 216 214
f 214 216 246
f 214 246 247
f 214 247 219
f 216 229 248
f 216 248 249
f 216 249 246
f 217 219 218
f 218 219 250
f 218 250 245
f 219 247 251
f 219 251 250
f 220 252 221
f 220 245 253
f 220 253 252
f 221 252 254
f 221 254 255
f 221 255 222
f 222 255 256
f 222 256 257
f 222 257 258
f 222 258 259
f 222 259 223
f 223 258 260
f 223 259 258
f 224 261 225
f 225 262 226
f 225 261 262
f 226 262 227
f 227 263 231
f 227 231 228
f 227 262 263
f 229 264 248
f 231 265 232
f 231 263 261
f 231 261 266
f 231 266 267
f 231 267 268
f 231 268 265
f 232 265 269
f 232 269 234
f 232 234 233
f 234 269 270
f 234 270 235
f 235 271 236
f 235 270 272
f 235 272 271
f 236 271 273
f 236 273 237
f 237 273 274
f 237 274 275
f 237 275 276
f 237 276 277
f 237 277 278
f 237 278 279
f 237 279 280
f 237 280 238
f 238 280 239
f 245 250 253
f 246 249 247
f 247 249 281
f 247 281 282
f 247 282 251
f 248 264 283
f 248 283 249
f 249 283 284
f 249 284 281
f 250 251 285
f 250 285 286
f 250 286 287
f 250 287 253
f 251 282 285
f 252 288 254
f 252 253 289
f 252 289 290
f 252 290 288
f 253 287 291
f 253 291 289
f 254 256 255
f 254 288 292
f 254 292 293
f 254 293 256
f 256 294 257
f 256 293 295
f 256 295 294
f 257 294 296
f 257 296 297
f 257 297 258
f 258 297 298
f 258 298 260
f 261 299 267
f 261 267 266
f 261 263 262
f 265 268 300
f 265 300 301
f 265 301 302
f 265 302 269
f 267 299 303
f 267 303 304
f 267 304 305
f 267 305 268
f 268 305 301
f 268 301 300
f 269 302 306
f 269 306 307
f 269 307 308
f 269 308 309
f 269 309 272
f 269 272 270
f 271 310 311
f 271 311 273
f 271 272 312
f 271 312 310
f 272 309 313
f 272 313 310
f 272 310 312
f 273 311 314
f 273 314 274
f 281 315 316
f 281 316 282
f 281 284 317
f 281 317 315
f 282 316 318
f 282 318 285
f 285 318 319
f 285 319 320
f 285 320 286
f 286 289 291
f 286 291 287
f 286 320 289
f 288 290 292
f 289 320 321
f 289 321 290
f 290 322 323
f 290 323 324
f 290 324 293
f 290 293 292
f 290 321 325
f 290 325 326
f 290 326 327
f 290 327 328
f 290 328 329
f 290 329 330
f 290 330 331
f 290 331 322
f 293 324 323
f 293 323 295
f 294 295 332
f 294 332 296
f 295 323 333
f 295 333 332
f 296 334 297
f 296 332 335
f 296 335 334
f 297 336 337
f 297 337 298
f 297 334 336
f 301 305 338
f 301 338 339
f 301 339 302
f 302 339 340
f 302 340 341
f 302 341 306
f 303 342 304
f 304 342 343
f 304 343 338
f 304 338 305
f 306 308 307
f 306 341 344
f 306 344 345
f 306 345 308
f 308 345 309
f 309 345 346
f 309 346 313
f 310 313 347
f 310 347 348
f 310 348 349
f 310 349 350
f 310 350 351
f 310 351 311
f 311 351 352
f 311 352 314
f 313 346 347
f 315 353 316
f 315 317 354
f 315 354 353
f 316 353 355
f 316 355 318
f 318 355 356
f 318 356 357
f 318 357 319
f 319 321 320
f 319 357 358
f 319 358 359
f 319 359 321
f 321 359 360
f 321 360 361
f 321 361 362
f 321 362 363
f 321 363 325
f 322 364 323
f 322 331 364
f 323 364 333
f 325 363 362
f 325 362 326
f 330 365 331
f 331 365 366
f 331 366 367
f 331 367 364
f 332 333 335
f 333 364 368
f 333 368 369
f 333 369 370
f 333 370 335
f 334 335 371
f 334 371 372
f 334 372 373
f 334 373 374
f 334 374 336
f 335 375 371
f 335 370 375
f 336 374 337
f 338 376 339
f 338 343 377
f 338 377 378
f 338 378 376
f 339 376 379
f 339 379 380
f 339 380 340
f 340 380 381
f 340 381 382
f 340 382 383
f 340 383 384
f 340 384 341
f 341 384 385
f 341 385 386
f 341 386 387
f 341 387 388
f 341 388 344
f 344 388 389
f 344 389 345
f 345 389 346
f 346 389 390
f 346 390 391
f 346 391 347
f 347 391 390
f 347 390 392
f 347 392 348
f 348 392 393
f 353 354 355
f 354 394 355
f 355 394 395
f 355 395 356
f 356 395 396
f 356 396 357
f 357 396 397
f 357 397 358
f 358 360 359
f 364 398 369
f 364 369 368
f 364 367 399
f 364 399 400
f 364 400 398
f 365 401 402
f 365 402 366
f 366 403 399
f 366 399 367
f 366 402 403
f 369 404 370
f 369 398 404
f 370 404 375
f 371 375 405
f 371 405 372
f 372 405 406
f 372 406 407
f 372 407 373
f 373 407 408
f 375 404 409
f 375 409 405
f 376 410 379
f 376 378 411
f 376 411 412
f 376 412 410
f 377 413 378
f 378 413 414
f 378 414 411
f 379 410 415
f 379 415 416
f 379 416 417
f 379 417 380
f 380 417 418
f 380 418 381
f 381 418 419
f 381 419 420
f 381 420 421
f 381 421 382
f 382 421 422
f 382 422 423
f 382 423 384
f 382 384 383
f 384 423 424
f 384 424 425
f 384 425 385
f 385 425 426
f 385 426 427
f 385 427 428
f 385 428 429
f 385 429 386
f 386 429 430
f 386 430 388
f 386 388 387
f 388 430 431
f 388 431 390
f 388 390 389
f 390 431 393
f 390 393 392
f 393 431 432
f 398 433 434
f 398 434 404
f 398 400 399
f 398 399 435
f 398 435 436
f 398 436 437
f 398 437 433
f 399 403 435
f 401 438 402
f 402 438 439
f 402 439 440
f 402 440 441
f 402 441 403
f 403 441 435
f 404 434 409
f 405 409 406
f 406 442 443
f 406 443 444
f 406 444 407
f 406 409 434
f 406 434 445
f 406 445 442
f 407 444 446
f 407 446 447
f 407 447 408
f 410 448 415
f 410 412 449
f 410 449 448
f 415 448 450
f 415 450 451
f 415 451 416
f 416 451 452
f 416 452 443
f 416 443 442
f 416 442 453
f 416 453 417
f 417 453 418
f 418 453 442
f 418 442 454
f 418 454 455
f 418 455 456
f 418 456 419
f 419 456 457
f 419 457 458
f 419 458 420
f 420 458 459
f 420 459 460
f 420 460 461
f 420 461 422
f 420 422 421
f 422 461 462
f 422 462 423
f 423 462 463
f 423 463 424
f 424 463 425
f 425 463 426
f 426 463 465
f 426 465 464
f 430 466 431
f 431 466 432
f 433 467 434
f 433 437 468
f 433 468 467
f 434 469 445
f 434 467 469
f 435 441 436
f 436 441 437
f 437 441 470
f 437 470 471
f 437 471 472
f 437 472 468
f 440 470 473
f 440 473 441
f 441 473 470
f 442 445 474
f 442 474 454
f 443 452 444
f 444 452 451
f 444 451 475
f 444 475 450
f 444 450 476
f 444 476 446
f 445 469 467
f 445 467 477
f 445 477 474
f 446 476 447
f 448 449 450
f 449 476 450
f 450 475 451
f 454 474 455
f 455 474 478
f 455 478 479
f 455 479 480
f 455 480 456
f 456 480 481
f 456 481 482
f 456 482 458
f 456 458 457
f 458 482 483
f 458 483 462
f 458 462 459
f 459 462 460
f 460 462 461
f 462 483 465
f 462 465 463
f 464 465 484
f 465 483 485
f 465 485 486
f 465 486 484
f 467 468 472
f 467 472 487
f 467 487 488
f 467 488 489
f 467 489 477
f 472 490 487
f 474 477 491
f 474 491 478
f 477 489 491
f 478 491 479
f 479 491 492
f 479 492 480
f 480 492 493
f 480 493 482
f 480 482 481
f 482 493 492
f 482 492 494
f 482 494 495
f 482 495 483
f 483 495 485
f 485 495 496
f 487 490 488
f 488 490 497
f 488 497 498
f 488 498 491
f 488 491 489
f 491 498 499
f 491 499 500
f 491 500 501
f 491 501 494
f 491 494 492
f 494 502 495
f 494 501 500
f 494 500 503
f 494 503 504
f 494 504 502
f 495 502 496
f 496 502 504

