# https://github.com/mikedh/trimesh

o coacd_hull_03_oriented.ply
v 0.00262370 0.00578775 0.00007028
v 0.00262370 0.00562907 -0.00040958
v 0.00262370 0.00578231 0.00052130
v 0.01678483 0.00441186 0.00104591
v 0.01640653 0.00444120 0.00094758
v 0.00262370 0.00561277 -0.00045845
v 0.00262370 0.00577579 0.00060020
v 0.01670279 0.00439773 0.00125964
v 0.02400441 0.00358589 0.00162587
v 0.02392920 0.00359458 0.00136680
v 0.02590502 0.00331202 0.00128084
v 0.01653643 0.00438143 0.00084160
v 0.00262370 0.00559973 -0.00047376
v 0.02114438 0.00376195 0.00089459
v 0.00262370 0.00572471 0.00071678
v 0.00262370 0.00458249 0.00306606
v 0.00262370 0.00454988 0.00312906
v 0.02442601 0.00347721 0.00170771
v 0.02590502 0.00325007 0.00174716
v 0.02590502 0.00328376 0.00166473
v 0.02590502 0.00331962 0.00150399
v 0.02590502 0.00332941 0.00133913
v 0.02432118 0.00354894 0.00142863
v 0.02590502 0.00311748 0.00112599
v 0.02491825 0.00324138 0.00100646
v 0.02514614 0.00327181 0.00108359
v 0.00262370 0.00555300 -0.00050850
v 0.00262370 0.00416841 0.00338047
v 0.02590502 0.00308922 0.00194559
v 0.02587995 0.00309900 0.00194088
v 0.02590502 0.00311313 0.00192557
v 0.02433485 0.00333701 0.00187552
v 0.02590502 0.00309900 0.00111186
v 0.02513019 0.00312291 0.00097349
v 0.00262370 0.00516936 -0.00077699
v 0.00262370 0.00407060 0.00344053
v 0.02590502 0.00283056 0.00205157
v 0.02590502 -0.00163944 0.00036232
v 0.02551533 0.00296859 0.00100999
v 0.02479975 0.00302184 0.00091755
v 0.00262370 0.00484984 -0.00091065
v 0.00262370 0.00405756 0.00344583
v 0.02586628 0.00280992 0.00205863
v 0.02590502 0.00268711 0.00206923
v 0.00262370 0.00403257 0.00345172
v 0.02590502 -0.00184050 0.00035702
v 0.00262370 -0.00277841 -0.00247095
v 0.00262370 0.00356741 0.00354416
v 0.02590502 0.00238606 0.00209278
v 0.02590502 -0.00309901 0.00064906
v 0.02425053 -0.00319900 0.00033112
v 0.00262370 -0.00309793 -0.00244563
v 0.00262370 0.00319464 0.00354004
v 0.02456502 0.00120036 0.00226589
v 0.02470176 0.00156118 0.00223645
v 0.02590502 0.00226434 0.00210162
v 0.02590502 -0.00315770 0.00066378
v 0.02422774 -0.00349787 0.00044240
v 0.00262370 -0.00320661 -0.00239853
v 0.00262370 0.00307509 0.00353356
v 0.02420495 -0.00017661 0.00224587
v 0.02474505 -0.00068741 0.00218699
v 0.02486356 0.00093301 0.00223292
v 0.02503675 0.00139164 0.00221996
v 0.02590502 0.00010487 0.00208042
v 0.02590502 -0.00334246 0.00075387
v 0.02590502 -0.00339788 0.00078861
v 0.02590502 -0.00346635 0.00090754
v 0.02446930 -0.00360438 0.00072796
v 0.02147938 -0.00401084 0.00073797
v 0.02098030 -0.00404779 0.00067968
v 0.02062707 -0.00397606 0.00045359
v 0.02015533 -0.00396193 0.00034054
v 0.02045159 -0.00371958 0.00011326
v 0.00262370 -0.00369023 -0.00215771
v 0.00262370 -0.00417169 0.00313730
v 0.02590502 -0.00258061 0.00182665
v 0.02590502 -0.00181224 0.00194029
v 0.02590502 -0.00020487 0.00206393
v 0.02578652 -0.00019074 0.00208042
v 0.02590502 -0.00006141 0.00207218
v 0.02537403 0.00009835 0.00214754
v 0.02590502 -0.00351526 0.00114306
v 0.02174829 -0.00404997 0.00114777
v 0.02045159 -0.00413365 0.00075387
v 0.01857377 -0.00432275 0.00070559
v 0.01162083 -0.00467705 -0.00010459
v 0.01165501 -0.00441839 -0.00037190
v 0.00262370 -0.00401301 -0.00181562
v 0.00262370 -0.00422494 0.00312199
v 0.02590502 -0.00308489 0.00172243
v 0.02590502 -0.00298164 0.00174540
v 0.02590502 -0.00344027 0.00142922
v 0.01800177 -0.00443361 0.00101471
v 0.01758473 -0.00447273 0.00091697
v 0.01849629 -0.00437818 0.00095170
v 0.02502080 -0.00352613 0.00147455
v 0.02170727 -0.00391955 0.00141155
v 0.00262370 -0.00501070 0.00244783
v 0.00759172 -0.00517263 0.00004202
v 0.00782417 -0.00505634 -0.00010165
v 0.00262370 -0.00402062 -0.00180443
v 0.00262370 -0.00467596 0.00291709
v 0.02590502 -0.00319574 0.00167180
v 0.02590502 -0.00332072 0.00157818
v 0.00541080 -0.00529218 0.00093875
v 0.00708124 -0.00528240 0.00038411
v 0.00759172 -0.00524001 0.00030757
v 0.00262370 -0.00475204 0.00284997
v 0.00262370 -0.00506721 0.00222938
v 0.00661635 -0.00525196 0.00027636
v 0.00706301 -0.00510416 -0.00005042
v 0.00262370 -0.00433579 -0.00119562
v 0.00495046 -0.00531500 0.00083748
v 0.00602383 -0.00529870 0.00059961
v 0.00557261 -0.00530739 0.00048126
v 0.00262370 -0.00512155 0.00176188
v 0.00262370 -0.00458684 -0.00057621
v 0.00504162 -0.00523023 0.00037645
v 0.00262370 -0.00512264 0.00172950
v 0.00262370 -0.00501070 0.00081569
v 0.00262370 -0.00491614 0.00036115
v 0.00262370 -0.00512264 0.00175011
v 0.00262370 -0.00478029 -0.00009458
f 1 2 6
f 1 6 13
f 1 13 27
f 1 27 35
f 1 35 41
f 1 41 47
f 1 47 52
f 1 52 59
f 1 59 75
f 1 75 89
f 1 89 102
f 1 102 113
f 1 113 118
f 1 118 124
f 1 124 122
f 1 122 121
f 1 121 120
f 1 120 123
f 1 123 117
f 1 117 110
f 1 110 99
f 1 99 109
f 1 109 103
f 1 103 90
f 1 90 76
f 1 76 60
f 1 60 53
f 1 53 48
f 1 48 45
f 1 45 42
f 1 42 36
f 1 36 28
f 1 28 17
f 1 17 16
f 1 16 15
f 1 15 7
f 1 7 3
f 1 3 4
f 1 4 5
f 1 5 2
f 2 5 6
f 3 7 4
f 4 8 9
f 4 9 10
f 4 10 5
f 4 7 8
f 5 10 11
f 5 11 12
f 5 12 6
f 6 12 11
f 6 11 14
f 6 14 13
f 7 15 8
f 8 15 16
f 8 16 17
f 8 17 9
f 9 18 19
f 9 19 20
f 9 20 21
f 9 21 22
f 9 22 23
f 9 23 10
f 9 17 18
f 10 23 22
f 10 22 11
f 11 22 21
f 11 21 20
f 11 20 19
f 11 19 31
f 11 31 29
f 11 29 37
f 11 37 44
f 11 44 49
f 11 49 56
f 11 56 65
f 11 65 81
f 11 81 79
f 11 79 78
f 11 78 77
f 11 77 92
f 11 92 91
f 11 91 104
f 11 104 105
f 11 105 93
f 11 93 83
f 11 83 68
f 11 68 67
f 11 67 66
f 11 66 57
f 11 57 50
f 11 50 46
f 11 46 38
f 11 38 33
f 11 33 24
f 11 24 25
f 11 25 26
f 11 26 14
f 13 14 26
f 13 26 25
f 13 25 27
f 17 28 29
f 17 29 30
f 17 30 31
f 17 31 32
f 17 32 18
f 18 32 31
f 18 31 19
f 24 33 25
f 25 33 34
f 25 34 35
f 25 35 27
f 28 36 29
f 29 31 30
f 29 36 37
f 33 38 39
f 33 39 34
f 34 39 38
f 34 38 40
f 34 40 41
f 34 41 35
f 36 42 37
f 37 43 44
f 37 42 45
f 37 45 43
f 38 46 47
f 38 47 40
f 40 47 41
f 43 45 48
f 43 48 44
f 44 48 49
f 46 50 51
f 46 51 52
f 46 52 47
f 48 53 54
f 48 54 55
f 48 55 49
f 49 55 56
f 50 57 51
f 51 57 58
f 51 58 52
f 52 58 59
f 53 60 61
f 53 61 54
f 54 61 62
f 54 62 63
f 54 63 64
f 54 64 55
f 55 64 56
f 56 64 65
f 57 66 58
f 58 66 67
f 58 67 68
f 58 68 69
f 58 69 70
f 58 70 71
f 58 71 72
f 58 72 73
f 58 73 74
f 58 74 75
f 58 75 59
f 60 76 61
f 61 76 62
f 62 77 78
f 62 78 79
f 62 79 80
f 62 80 81
f 62 81 82
f 62 82 63
f 62 76 77
f 63 82 65
f 63 65 64
f 65 82 81
f 68 83 70
f 68 70 69
f 70 84 85
f 70 85 71
f 70 83 84
f 71 85 86
f 71 86 72
f 72 86 87
f 72 87 73
f 73 87 74
f 74 87 88
f 74 88 75
f 75 88 87
f 75 87 89
f 76 90 91
f 76 91 92
f 76 92 77
f 79 81 80
f 83 93 84
f 84 94 95
f 84 95 96
f 84 96 85
f 84 93 97
f 84 97 98
f 84 98 99
f 84 99 94
f 85 96 95
f 85 95 86
f 86 95 100
f 86 100 87
f 87 100 101
f 87 101 89
f 89 101 100
f 89 100 102
f 90 103 91
f 91 103 104
f 93 105 97
f 94 99 106
f 94 106 107
f 94 107 95
f 95 107 108
f 95 108 100
f 97 105 109
f 97 109 98
f 98 109 99
f 99 110 106
f 100 108 107
f 100 107 111
f 100 111 112
f 100 112 102
f 102 112 113
f 103 109 105
f 103 105 104
f 106 110 114
f 106 114 107
f 107 114 115
f 107 115 116
f 107 116 111
f 110 117 114
f 111 116 113
f 111 113 112
f 113 116 119
f 113 119 118
f 114 120 121
f 114 121 122
f 114 122 119
f 114 119 116
f 114 116 115
f 114 117 123
f 114 123 120
f 118 119 124
f 119 122 124

