# https://github.com/mikedh/trimesh
v -0.07267797 0.01800397 0.00860147
v -0.07267797 0.01800397 -0.00106449
v -0.07308009 0.01797165 0.00860147
v -0.07308009 0.01797165 -0.00106449
v -0.07328860 0.01791914 -0.00106449
v -0.07346732 0.01787369 0.00860147
v -0.07346732 0.01787369 -0.00106449
v -0.07375030 0.01774846 0.00860147
v -0.07382476 0.01771412 -0.00106449
v -0.07382476 0.01771412 0.00860147
v -0.07389923 0.01766767 0.00860147
v -0.07415242 0.01749800 -0.00106449
v -0.07415242 0.01749800 0.00860147
v -0.07443539 0.01723240 -0.00106449
v -0.07443539 0.01723240 0.00860147
v -0.07450986 0.01713645 0.00860147
v -0.07456943 0.01705061 -0.00106449
v -0.07456943 0.01705061 0.00860147
v -0.07456943 0.00779070 -0.00106449
v -0.07456943 0.00779070 0.00860147
v -0.00334908 0.00768769 -0.00106449
v -0.00382567 0.00768769 0.00860147
v 0.07242455 0.01800397 0.00860147
v 0.07242455 0.01800397 0.00842491
v 0.07242455 0.01800338 0.00860147
v 0.07242455 0.01800397 0.00860147
v 0.07242455 0.01800160 0.00860147
v 0.07242455 0.01800338 0.00860147
v 0.07242455 0.01799934 0.00860147
v 0.07242455 0.01800160 0.00860147
v 0.07242455 0.01799872 0.00860147
v 0.07242455 0.01799934 0.00860147
v 0.07242455 0.01799788 0.00860147
v 0.07242455 0.01799872 0.00860147
v 0.07242455 0.01799482 0.00860147
v 0.07242455 0.01799788 0.00860147
v 0.07242455 0.01799004 0.00860147
v 0.07242455 0.01799482 0.00860147
v 0.07242455 0.01798832 0.00860147
v 0.07242455 0.01799004 0.00860147
v 0.07242455 0.01798678 0.00860147
v 0.07242455 0.01798832 0.00860147
v 0.07242455 0.01781977 0.00860147
v 0.07242455 0.01798678 0.00860147
v 0.07242455 0.01765119 0.00860147
v 0.07242455 0.01781977 0.00860147
v 0.07242455 0.01781977 -0.00106449
v 0.07242455 0.01764905 -0.00106449
v 0.07242455 0.01798678 -0.00106449
v 0.07242455 0.01781977 -0.00106449
v 0.07242455 0.01799004 -0.00106449
v 0.07242455 0.01798678 -0.00106449
v 0.07242455 0.01799482 -0.00106449
v 0.07242455 0.01799004 -0.00106449
v 0.07242455 0.01799872 -0.00106449
v 0.07242455 0.01799482 -0.00106449
v 0.07242455 0.01800160 -0.00106449
v 0.07242455 0.01799872 -0.00106449
v 0.07242455 0.01800243 -0.00106449
v 0.07242455 0.01800160 -0.00106449
v 0.07242455 0.01800338 -0.00106449
v 0.07242455 0.01800243 -0.00106449
v 0.07242455 0.01800397 -0.00106449
v 0.07242455 0.01800338 -0.00106449
v 0.07242455 0.00768769 0.00800387
v 0.07242455 0.00768769 0.00860147
v 0.07242455 0.01800397 0.00842491
v 0.07242455 0.01800397 -0.00106449
v 0.07242455 0.00768769 0.00860147
v 0.07242455 0.01765119 0.00860147
v 0.07242455 0.01764905 -0.00106449
v 0.07242455 0.00768769 -0.00106449
v 0.07242455 0.00768769 -0.00106449
v 0.07242455 0.00768769 0.00796957
v 0.07242455 0.00768769 0.00796957
v 0.07242455 0.00768769 0.00800387
f 22 19 21
f 20 19 22
f 10 9 11
f 13 11 12
f 12 11 9
f 17 18 16
f 14 16 15
f 17 16 14
f 6 3 5
f 5 3 4
f 7 6 5
f 8 7 9
f 8 9 10
f 6 7 8
f 17 19 18
f 18 19 20
f 2 1 23
f 23 63 2
f 69 22 73
f 73 22 21
f 23 69 73
f 73 63 23
f 14 15 13
f 13 12 14
f 1 2 4
f 4 3 1
f 7 73 21
f 7 19 17
f 21 19 7
f 7 2 63
f 63 73 7
f 17 14 7
f 7 12 9
f 7 4 2
f 7 14 12
f 5 4 7
f 8 18 20
f 23 1 8
f 20 22 8
f 8 69 23
f 8 22 69
f 8 16 18
f 10 11 8
f 13 15 8
f 8 11 13
f 15 16 8
f 1 3 8
f 3 6 8

