# https://github.com/mikedh/trimesh

o coacd_hull_06_oriented.ply
v 0.09726839 0.00181520 0.00705700
v 0.09684540 0.00170105 0.00693485
v 0.09743352 0.00143005 0.00686071
v 0.09773482 0.00200322 0.00692284
v 0.09739585 0.00237332 0.00698074
v 0.09715828 0.00228018 0.00702593
v 0.09672083 0.00214327 0.00696733
v 0.06855506 0.00369228 0.00246249
v 0.06855506 0.00343563 0.00245543
v 0.06855506 0.00323990 0.00241306
v 0.09701633 0.00132115 0.00672161
v 0.06855506 0.00295209 0.00229020
v 0.06855506 0.00285370 0.00223160
v 0.09752911 0.00133131 0.00665453
v 0.09769426 0.00154314 0.00676962
v 0.09712352 0.00119720 0.00650343
v 0.09802742 0.00219930 0.00658886
v 0.09774061 0.00262716 0.00673997
v 0.09704241 0.00266008 0.00692637
v 0.09665708 0.00264117 0.00688966
v 0.06855506 0.00397589 0.00236505
v 0.06855506 0.00272765 0.00213133
v 0.06855506 0.00257850 0.00200000
v 0.07055116 0.00104805 0.00100442
v 0.07035705 0.00097312 0.00083708
v 0.09769136 0.00132431 0.00619981
v 0.09729445 0.00115414 0.00603882
v 0.09800136 0.00174412 0.00641375
v 0.07083508 0.00095911 0.00088650
v 0.07105237 0.00093005 0.00070009
v 0.09814911 0.00234705 0.00617792
v 0.09797817 0.00275566 0.00627536
v 0.09763922 0.00308479 0.00631137
v 0.09736978 0.00293599 0.00667430
v 0.09708877 0.00306168 0.00664535
v 0.09660494 0.00317898 0.00655850
v 0.06855506 0.00421188 0.00221960
v 0.06855506 0.00113873 0.00064926
v 0.06855506 0.00111317 0.00061254
v 0.06956904 0.00100603 0.00065844
v 0.06855506 0.00101968 0.00034211
v 0.06998622 0.00096717 0.00066408
v 0.07060042 0.00092935 0.00058006
v 0.09741613 0.00126233 0.00561376
v 0.09780145 0.00145421 0.00577969
v 0.09697866 0.00121401 0.00548454
v 0.08236271 0.00106800 0.00217229
v 0.09810854 0.00188207 0.00600564
v 0.09807958 0.00245420 0.00566460
v 0.09704241 0.00319369 0.00519646
v 0.09716119 0.00330293 0.00625488
v 0.09671792 0.00340097 0.00618145
v 0.06855506 0.00436524 0.00201130
v 0.06855506 0.00105155 0.00009921
v 0.06982109 0.00095211 0.00039153
v 0.07133049 0.00095911 0.00050733
v 0.09748857 0.00150602 0.00522259
v 0.09706558 0.00141429 0.00508278
v 0.09661363 0.00140904 0.00496486
v 0.08291607 0.00122907 0.00187644
v 0.08246121 0.00123432 0.00176134
v 0.07173897 0.00100708 0.00042401
v 0.09745090 0.00197031 0.00490979
v 0.09764501 0.00245035 0.00509549
v 0.09737268 0.00241008 0.00488296
v 0.09626888 0.00305083 0.00474668
v 0.09610952 0.00331693 0.00500158
v 0.09503470 0.00351791 0.00511032
v 0.09620515 0.00344368 0.00605789
v 0.06855506 0.00444087 0.00176841
v 0.09481452 0.00353682 0.00573167
v 0.06855506 0.00113943 -0.00008296
v 0.06989062 0.00102634 0.00016347
v 0.09707138 0.00185231 0.00474456
v 0.09617616 0.00155014 0.00469867
v 0.09665708 0.00176023 0.00462735
v 0.08177750 0.00130820 0.00160954
v 0.08235112 0.00152528 0.00158623
v 0.07166946 0.00114818 0.00019948
v 0.07127835 0.00103824 0.00030822
v 0.09656438 0.00222906 0.00450167
v 0.09545189 0.00285966 0.00439293
v 0.09520273 0.00332499 0.00477069
v 0.06929961 0.00446083 0.00046214
v 0.06870860 0.00450600 0.00055464
v 0.06855506 0.00449970 0.00054123
v 0.06855506 0.00214818 -0.00015639
v 0.07065256 0.00133621 0.00002225
v 0.07118563 0.00123712 0.00009357
v 0.09551562 0.00191709 0.00431244
v 0.08287840 0.00168424 0.00165049
v 0.07192150 0.00118530 0.00021925
v 0.07161440 0.00139328 0.00008227
v 0.08274223 0.00211211 0.00172463
v 0.06962988 0.00411980 0.00024043
v 0.06935756 0.00427666 0.00026868
v 0.06904466 0.00443492 0.00037600
v 0.06855506 0.00446223 0.00046991
v 0.06855506 0.00238452 -0.00012815
v 0.06856374 0.00237717 -0.00012956
v 0.07157964 0.00162017 0.00008015
v 0.08231346 0.00199026 0.00162436
v 0.07192729 0.00179419 0.00015217
v 0.06988193 0.00352071 0.00014652
v 0.06937204 0.00404277 0.00017547
v 0.06910551 0.00420173 0.00022843
v 0.06855506 0.00422099 0.00024467
v 0.06855506 0.00427071 0.00027503
v 0.06855506 0.00328927 0.00005402
v 0.06957194 0.00368773 0.00013805
f 1 2 3
f 1 3 4
f 1 4 5
f 1 5 6
f 1 6 7
f 1 7 8
f 1 8 9
f 1 9 10
f 1 10 2
f 2 11 3
f 2 10 12
f 2 12 13
f 2 13 11
f 3 14 15
f 3 15 4
f 3 11 16
f 3 16 14
f 4 17 18
f 4 18 5
f 4 15 17
f 5 18 19
f 5 19 6
f 6 19 20
f 6 20 8
f 6 8 7
f 8 21 37
f 8 37 53
f 8 53 70
f 8 70 86
f 8 86 98
f 8 98 108
f 8 108 107
f 8 107 109
f 8 109 99
f 8 99 87
f 8 87 72
f 8 72 54
f 8 54 41
f 8 41 39
f 8 39 38
f 8 38 23
f 8 23 22
f 8 22 13
f 8 13 12
f 8 12 10
f 8 10 9
f 8 20 21
f 11 13 22
f 11 22 23
f 11 23 24
f 11 24 25
f 11 25 16
f 14 26 15
f 14 16 27
f 14 27 26
f 15 26 28
f 15 28 17
f 16 25 29
f 16 29 30
f 16 30 27
f 17 28 31
f 17 31 32
f 17 32 18
f 18 32 33
f 18 33 34
f 18 34 19
f 19 34 35
f 19 35 36
f 19 36 20
f 20 36 21
f 21 36 37
f 23 38 24
f 24 38 39
f 24 39 25
f 25 39 40
f 25 40 41
f 25 41 42
f 25 42 43
f 25 43 29
f 26 27 44
f 26 44 45
f 26 45 28
f 27 46 44
f 27 30 47
f 27 47 46
f 28 45 48
f 28 48 31
f 29 43 30
f 30 43 47
f 31 48 49
f 31 49 32
f 32 49 33
f 33 49 50
f 33 50 51
f 33 51 35
f 33 35 34
f 35 51 36
f 36 51 52
f 36 52 53
f 36 53 37
f 39 41 40
f 41 54 55
f 41 55 42
f 42 55 43
f 43 55 56
f 43 56 47
f 44 57 45
f 44 46 58
f 44 58 57
f 45 57 48
f 46 59 58
f 46 47 60
f 46 60 59
f 47 61 60
f 47 56 62
f 47 62 61
f 48 57 63
f 48 63 49
f 49 63 64
f 49 64 50
f 50 52 51
f 50 64 65
f 50 65 66
f 50 66 67
f 50 67 68
f 50 68 52
f 52 68 69
f 52 69 53
f 53 69 71
f 53 71 70
f 54 72 73
f 54 73 55
f 55 73 56
f 56 73 62
f 57 58 74
f 57 74 63
f 58 59 75
f 58 75 76
f 58 76 74
f 59 60 75
f 60 61 75
f 61 77 78
f 61 78 76
f 61 76 75
f 61 62 79
f 61 79 77
f 62 73 80
f 62 80 79
f 63 74 81
f 63 81 65
f 63 65 64
f 65 81 66
f 66 81 82
f 66 82 83
f 66 83 67
f 67 83 68
f 68 71 69
f 68 83 84
f 68 84 85
f 68 85 71
f 70 85 86
f 70 71 85
f 72 87 88
f 72 88 89
f 72 89 79
f 72 79 73
f 73 79 80
f 74 76 81
f 76 90 81
f 76 78 90
f 77 79 78
f 78 91 90
f 78 79 92
f 78 92 93
f 78 93 91
f 79 89 93
f 79 93 92
f 81 90 91
f 81 91 82
f 82 91 94
f 82 94 95
f 82 95 96
f 82 96 83
f 83 96 97
f 83 97 84
f 84 97 85
f 85 97 86
f 86 97 98
f 87 93 88
f 87 99 100
f 87 100 101
f 87 101 93
f 88 93 89
f 91 102 94
f 91 93 101
f 91 101 103
f 91 103 104
f 91 104 102
f 94 102 105
f 94 105 95
f 95 105 96
f 96 105 106
f 96 106 107
f 96 107 108
f 96 108 97
f 97 108 98
f 99 109 105
f 99 105 100
f 100 105 110
f 100 110 104
f 100 104 101
f 101 104 103
f 102 104 105
f 104 110 105
f 105 109 107
f 105 107 106

