# https://github.com/mikedh/trimesh

o decomp_3.obj
v -0.03228732 0.00819960 -0.00106523 0.38039216 0.78823529 0.52549020
v -0.03228732 -0.00825666 -0.00106523 0.38039216 0.78823529 0.52549020
v -0.03229146 0.00819960 -0.00119770 0.38039216 0.78823529 0.52549020
v -0.07457534 0.00819960 -0.00106523 0.38039216 0.78823529 0.52549020
v -0.03265162 -0.00825666 -0.00866706 0.38039216 0.78823529 0.52549020
v -0.07457534 -0.00825666 -0.00106523 0.38039216 0.78823529 0.52549020
v -0.03265162 0.00819960 -0.00866706 0.38039216 0.78823529 0.52549020
v -0.07457534 0.00819960 -0.00866706 0.38039216 0.78823529 0.52549020
v -0.07457534 -0.00825666 -0.00866706 0.38039216 0.78823529 0.52549020
f 1 2 3
f 1 3 7
f 1 7 8
f 1 8 4
f 1 4 6
f 1 6 2
f 2 5 3
f 2 6 9
f 2 9 5
f 3 5 7
f 4 8 9
f 4 9 6
f 5 9 8
f 5 8 7

