# https://github.com/mikedh/trimesh
v -0.00336012 -0.00824138 -0.00106523
v -0.00336012 -0.00824138 -0.00111137
v -0.01435890 -0.00826336 -0.00106523
v -0.00300039 -0.00824138 -0.00866706
v -0.01435890 -0.00861028 -0.00866706
v -0.01435890 -0.01800402 -0.00106523
v -0.01435890 -0.01800402 -0.00866706
v 0.07242455 -0.00824138 -0.00106813
v 0.07242455 -0.00824138 -0.00154597
v 0.07242455 -0.00824138 -0.00106523
v 0.07242455 -0.00824138 -0.00106813
v 0.07242455 -0.00824260 -0.00106523
v 0.07242455 -0.00824138 -0.00106523
v 0.07242455 -0.00878244 -0.00106523
v 0.07242455 -0.00824260 -0.00106523
v 0.07242455 -0.00826145 -0.00866706
v 0.07242455 -0.00877251 -0.00866706
v 0.07242455 -0.00824138 -0.00866706
v 0.07242455 -0.00826145 -0.00866706
v 0.07242455 -0.01800402 -0.00866706
v 0.07242455 -0.01800402 -0.00843697
v 0.07242455 -0.00824138 -0.00154597
v 0.07242455 -0.00824138 -0.00866706
v 0.07242455 -0.01800402 -0.00106523
v 0.07242455 -0.00878244 -0.00106523
v 0.07242455 -0.00877251 -0.00866706
v 0.07242455 -0.01800402 -0.00866706
v 0.07242455 -0.01800402 -0.00843697
v 0.07242455 -0.01800402 -0.00106523
f 3 4 5
f 3 1 2
f 2 4 3
f 24 18 10
f 20 18 24
f 10 1 24
f 3 6 24
f 24 1 3
f 7 18 20
f 7 5 4
f 4 18 7
f 20 24 7
f 7 24 6
f 7 6 3
f 3 5 7
f 2 18 4
f 10 18 2
f 2 1 10

