# https://github.com/mikedh/trimesh
v -0.02400498 -0.02235103 -0.01820389
v -0.02400498 -0.02233035 -0.01823343
v -0.02400498 -0.02255889 -0.01790703
v -0.02400498 -0.02240818 -0.01812229
v -0.02400498 -0.02209353 -0.01847025
v -0.02400498 -0.02204859 -0.01851519
v -0.02400498 -0.02201905 -0.01853587
v -0.02400498 -0.02168949 -0.01875901
v -0.02400498 -0.02187837 -0.01863440
v -0.02400498 -0.02183332 -0.01866593
v -0.02400498 -0.02177422 -0.01870729
v -0.02400498 -0.02172216 -0.01874376
v -0.02400498 -0.02264673 -0.01771868
v -0.02400498 -0.02270044 -0.01760347
v -0.02400498 -0.02271206 -0.01757856
v -0.02400498 -0.02272731 -0.01754589
v -0.02400498 -0.02273663 -0.01751105
v -0.02400498 -0.02274374 -0.01748449
v -0.02400498 -0.02281399 -0.01722236
v -0.02400498 -0.02283045 -0.01716099
v -0.02400498 -0.02283358 -0.01712506
v -0.02400498 -0.02283597 -0.01709768
v -0.02400498 -0.02284227 -0.01702582
v -0.02400498 -0.02284855 -0.01695397
v -0.02400498 -0.02285334 -0.01689920
v -0.02400498 -0.02285964 -0.01682734
v -0.02400498 -0.02286203 -0.01679996
v -0.02400498 -0.02286516 -0.01676403
v -0.02400498 -0.02159920 -0.01880110
v -0.02400498 -0.02148401 -0.01885481
v -0.02400498 -0.02141863 -0.01888531
v -0.02400498 -0.02139371 -0.01889692
v -0.02400498 -0.02136102 -0.01891215
v -0.02400498 -0.02110720 -0.01898018
v -0.02400498 -0.02101097 -0.01900595
v -0.02400498 -0.02097615 -0.01901529
v -0.02400498 -0.02091284 -0.01902084
v -0.02400498 -0.02071433 -0.01903818
v -0.02400498 -0.02057916 -0.01905001
v -0.01881327 -0.02257995 -0.01786188
v -0.01881327 -0.02235891 -0.01819263
v -0.01881327 -0.02233035 -0.01823343
v -0.01881327 -0.02229513 -0.01826865
v -0.01881327 -0.02247321 -0.01802943
v -0.01881327 -0.02253033 -0.01794783
v -0.01881327 -0.02255889 -0.01790703
v -0.01881327 -0.02241606 -0.01811103
v -0.01881327 -0.02204859 -0.01851519
v -0.01881327 -0.02208381 -0.01847997
v -0.01881327 -0.02200779 -0.01854375
v -0.01881327 -0.02167704 -0.01876482
v -0.01881327 -0.02184459 -0.01865805
v -0.01881327 -0.02192619 -0.01860090
v -0.01881327 -0.02176296 -0.01871517
v -0.01881327 -0.02172216 -0.01874376
v -0.01881327 -0.02222469 -0.01833909
v -0.01881327 -0.02215425 -0.01840953
v -0.01881327 -0.02262204 -0.01777158
v -0.01881327 -0.02266416 -0.01768131
v -0.01881327 -0.02270625 -0.01759101
v -0.01881327 -0.02272731 -0.01754589
v -0.01881327 -0.02274018 -0.01749777
v -0.01881327 -0.02279175 -0.01730532
v -0.01881327 -0.02276598 -0.01740153
v -0.01881327 -0.02281755 -0.01720908
v -0.01881327 -0.02283045 -0.01716099
v -0.01881327 -0.02283477 -0.01711137
v -0.01881327 -0.02284347 -0.01701213
v -0.01881327 -0.02285214 -0.01691289
v -0.01881327 -0.02286084 -0.01681365
v -0.01881327 -0.02286516 -0.01676403
v -0.01881327 -0.02158674 -0.01880691
v -0.01881327 -0.02149647 -0.01884900
v -0.01881327 -0.02140617 -0.01889112
v -0.01881327 -0.02136102 -0.01891215
v -0.01881327 -0.02131293 -0.01892505
v -0.01881327 -0.02121669 -0.01895082
v -0.01881327 -0.02112048 -0.01897662
v -0.01881327 -0.02102424 -0.01900239
v -0.01881327 -0.02097615 -0.01901529
v -0.01881327 -0.02092653 -0.01901964
v -0.01881327 -0.02082726 -0.01902831
v -0.01881327 -0.02072802 -0.01903698
v -0.01881327 -0.02062878 -0.01904568
v -0.01881327 -0.02057916 -0.01905000
v -0.01864587 -0.01638816 -0.01905000
v -0.01445619 -0.02286516 -0.01550136
v -0.01732719 -0.02286516 -0.01360737
v -0.01742835 -0.02286516 -0.01171338
v -0.01704231 -0.02283234 -0.01132734
v -0.01666737 -0.02273478 -0.01095240
v -0.01631427 -0.02257530 -0.01059930
v -0.01599318 -0.02235852 -0.01027821
v -0.01571331 -0.02209059 -0.00999834
v -0.01559139 -0.02193981 -0.00987642
v -0.01548270 -0.02177925 -0.00976773
v -0.01538802 -0.02161008 -0.00967302
v -0.01530798 -0.02143347 -0.00959301
v -0.01524324 -0.02125071 -0.00952824
v -0.01519419 -0.02106315 -0.00947919
v -0.01516122 -0.02087208 -0.00944622
v -0.01514454 -0.02067888 -0.00942957
v -0.01742838 -0.02286516 -0.00000003
v -0.01831110 -0.00800616 -0.01905000
v -0.01441260 -0.00391488 -0.00869763
v -0.00574200 -0.02286516 -0.01297605
v -0.00019302 -0.02284875 -0.01152036
v -0.00018747 -0.02278356 -0.01113987
v -0.00017655 -0.02265504 -0.01077585
v -0.00016053 -0.02246691 -0.01043874
v -0.00013992 -0.02222457 -0.01013826
v -0.00004734 -0.02169468 -0.00972036
v -0.00073194 -0.00391488 -0.00869763
v -0.01723533 -0.02284875 0.00019302
v -0.01519419 -0.02106315 0.00947916
v -0.01516122 -0.02087208 0.00944619
v -0.01514454 -0.02067888 0.00942954
v -0.02400498 -0.02286516 0.01676399
v -0.02400498 -0.02286203 0.01679992
v -0.02400498 -0.02285964 0.01682731
v -0.02400498 -0.02285334 0.01689914
v -0.02400498 -0.02284706 0.01697099
v -0.02400498 -0.02284227 0.01702576
v -0.02400498 -0.02283597 0.01709762
v -0.02400498 -0.02283358 0.01712500
v -0.02400498 -0.02283045 0.01716093
v -0.02400498 -0.02279531 0.01729201
v -0.02400498 -0.02277665 0.01736167
v -0.02400498 -0.02276242 0.01741478
v -0.02400498 -0.02274374 0.01748446
v -0.02400498 -0.02272731 0.01754583
v -0.02400498 -0.02271206 0.01757852
v -0.02400498 -0.02270044 0.01760344
v -0.02400498 -0.02264673 0.01771865
v -0.02400498 -0.02261624 0.01778401
v -0.02400498 -0.02258576 0.01784939
v -0.02400498 -0.02255889 0.01790699
v -0.02400498 -0.02252245 0.01795906
v -0.02400498 -0.02233035 0.01823340
v -0.02400498 -0.02204859 0.01851516
v -0.02400498 -0.02201905 0.01853584
v -0.02400498 -0.02199653 0.01855160
v -0.02400498 -0.02193745 0.01859298
v -0.02400498 -0.02183332 0.01866590
v -0.02400498 -0.02177422 0.01870726
v -0.02400498 -0.02175170 0.01872302
v -0.02400498 -0.02172216 0.01874370
v -0.02400498 -0.02166458 0.01877057
v -0.02400498 -0.02148401 0.01885478
v -0.02400498 -0.02136102 0.01891212
v -0.02400498 -0.02132620 0.01892146
v -0.02400498 -0.02122997 0.01894723
v -0.02400498 -0.02116031 0.01896591
v -0.02400498 -0.02110720 0.01898014
v -0.02400498 -0.02103752 0.01899880
v -0.02400498 -0.02097615 0.01901526
v -0.02400498 -0.02094022 0.01901841
v -0.02400498 -0.02084096 0.01902708
v -0.02400498 -0.02071433 0.01903815
v -0.02400498 -0.02061509 0.01904684
v -0.02400498 -0.02057916 0.01904997
v -0.01881327 -0.02286516 0.01676400
v -0.01881327 -0.02286084 0.01681362
v -0.01881327 -0.02285214 0.01691283
v -0.01881327 -0.02284347 0.01701207
v -0.01881327 -0.02283477 0.01711131
v -0.01881327 -0.02283045 0.01716093
v -0.01881327 -0.02281755 0.01720905
v -0.01881327 -0.02279175 0.01730529
v -0.01881327 -0.02276598 0.01740150
v -0.01881327 -0.02274018 0.01749774
v -0.01881327 -0.02272731 0.01754583
v -0.01881327 -0.02270625 0.01759098
v -0.01881327 -0.02266416 0.01768128
v -0.01881327 -0.02262204 0.01777155
v -0.01881327 -0.02257995 0.01786185
v -0.01881327 -0.02255889 0.01790700
v -0.01881327 -0.02253033 0.01794780
v -0.01881327 -0.02247321 0.01802940
v -0.01881327 -0.02241606 0.01811100
v -0.01881327 -0.02235891 0.01819260
v -0.01881327 -0.02233035 0.01823340
v -0.01881327 -0.02229513 0.01826862
v -0.01881327 -0.02222469 0.01833906
v -0.01881327 -0.02215425 0.01840950
v -0.01881327 -0.02208381 0.01847994
v -0.01881327 -0.02204859 0.01851516
v -0.01881327 -0.02200779 0.01854372
v -0.01881327 -0.02192619 0.01860087
v -0.01881327 -0.02184459 0.01865802
v -0.01881327 -0.02176296 0.01871514
v -0.01881327 -0.02172216 0.01874370
v -0.01881327 -0.02167704 0.01876476
v -0.01881327 -0.02158674 0.01880688
v -0.01881327 -0.02149647 0.01884897
v -0.01881327 -0.02140617 0.01889106
v -0.01881327 -0.02136102 0.01891212
v -0.01881327 -0.02131293 0.01892502
v -0.01881327 -0.02121669 0.01895079
v -0.01881327 -0.02112048 0.01897659
v -0.01881327 -0.02102424 0.01900236
v -0.01881327 -0.02097615 0.01901526
v -0.01881327 -0.02092653 0.01901961
v -0.01881327 -0.02082726 0.01902828
v -0.01881327 -0.02072802 0.01903695
v -0.01881327 -0.02062878 0.01904565
v -0.01881327 -0.02057916 0.01904997
v -0.01898067 -0.01638816 0.01904997
v -0.01742838 -0.02286516 0.01171335
v -0.01666737 -0.02273478 0.01095237
v -0.01704234 -0.02283234 0.01132731
v -0.01631430 -0.02257530 0.01059927
v -0.01599318 -0.02235852 0.01027818
v -0.01571331 -0.02209059 0.00999831
v -0.01548270 -0.02177925 0.00976770
v -0.01559142 -0.02193981 0.00987639
v -0.01538802 -0.02161008 0.00967299
v -0.01530801 -0.02143347 0.00959298
v -0.01524324 -0.02125071 0.00952821
v -0.01441260 -0.00391488 0.00073191
v -0.01441260 -0.00391488 0.00869760
v -0.01931544 -0.00800616 0.01904997
v -0.00002454 -0.02115693 0.00950370
v -0.00000834 -0.02077548 0.00943785
v -0.00584319 -0.02286516 0.01234470
v -0.00006096 -0.02201520 0.00993735
v -0.00005433 -0.02185953 0.00982206
v -0.00004734 -0.02169468 0.00972036
v -0.00004002 -0.02152176 0.00963300
v -0.00720630 -0.01229688 0.00906357
v -0.01797633 0.00037581 -0.01905000
v -0.01831110 0.00875781 -0.01905000
v -0.02400498 0.01294881 -0.01905001
v -0.02400498 0.01298359 -0.01904698
v -0.02400498 0.01308283 -0.01903828
v -0.02400498 0.01328134 -0.01902094
v -0.02400498 0.01334580 -0.01901529
v -0.02400498 0.01337951 -0.01900625
v -0.02400498 0.01347574 -0.01898048
v -0.02400498 0.01373067 -0.01891215
v -0.02400498 0.01376232 -0.01889741
v -0.02400498 0.01378932 -0.01888482
v -0.02400498 0.01396989 -0.01880061
v -0.02400498 0.01409184 -0.01874376
v -0.02400498 0.01414484 -0.01870663
v -0.02400498 0.01430804 -0.01859236
v -0.02400498 0.01441824 -0.01851519
v -0.02400498 0.01446399 -0.01846944
v -0.02400498 0.01470000 -0.01823343
v -0.02400498 0.01481134 -0.01807442
v -0.02400498 0.01485140 -0.01801723
v -0.02400498 0.01489144 -0.01796003
v -0.02400498 0.01492854 -0.01790703
v -0.02400498 0.01501492 -0.01772181
v -0.02400498 0.01509696 -0.01754589
v -0.02400498 0.01510600 -0.01751216
v -0.02400498 0.01511372 -0.01748338
v -0.02400498 0.01513178 -0.01741592
v -0.02400498 0.01514720 -0.01735836
v -0.02400498 0.01516529 -0.01729093
v -0.02400498 0.01519106 -0.01719470
v -0.02400498 0.01520010 -0.01716099
v -0.02400498 0.01520315 -0.01712621
v -0.02400498 0.01521182 -0.01702697
v -0.02400498 0.01523178 -0.01679881
v -0.02400498 0.01523481 -0.01676403
v -0.01847850 0.01294881 -0.01905000
v -0.01847850 0.01299843 -0.01904568
v -0.01847850 0.01309767 -0.01903698
v -0.01847850 0.01319694 -0.01902831
v -0.01847850 0.01329618 -0.01901964
v -0.01847850 0.01334580 -0.01901529
v -0.01847850 0.01339389 -0.01900239
v -0.01847850 0.01349013 -0.01897662
v -0.01847850 0.01358634 -0.01895082
v -0.01847850 0.01368258 -0.01892505
v -0.01847850 0.01373067 -0.01891215
v -0.01847850 0.01377582 -0.01889112
v -0.01847850 0.01386612 -0.01884900
v -0.01847850 0.01395639 -0.01880691
v -0.01847850 0.01404669 -0.01876482
v -0.01847850 0.01409184 -0.01874376
v -0.01847850 0.01413264 -0.01871517
v -0.01847850 0.01421424 -0.01865805
v -0.01847850 0.01429584 -0.01860090
v -0.01847850 0.01437744 -0.01854375
v -0.01847850 0.01441824 -0.01851519
v -0.01847850 0.01445346 -0.01847997
v -0.01847850 0.01452390 -0.01840953
v -0.01847850 0.01459434 -0.01833909
v -0.01847850 0.01466478 -0.01826865
v -0.01847850 0.01470000 -0.01823343
v -0.01847850 0.01472859 -0.01819263
v -0.01847850 0.01478571 -0.01811103
v -0.01847850 0.01484286 -0.01802943
v -0.01847850 0.01489998 -0.01794783
v -0.01847850 0.01492854 -0.01790703
v -0.01847850 0.01494960 -0.01786188
v -0.01847850 0.01499172 -0.01777158
v -0.01847850 0.01503381 -0.01768131
v -0.01847850 0.01507590 -0.01759101
v -0.01847850 0.01509696 -0.01754589
v -0.01847850 0.01510986 -0.01749777
v -0.01847850 0.01513563 -0.01740153
v -0.01847850 0.01516143 -0.01730532
v -0.01847850 0.01518720 -0.01720908
v -0.01847850 0.01520010 -0.01716099
v -0.01847850 0.01520445 -0.01711137
v -0.01847850 0.01521312 -0.01701213
v -0.01847850 0.01522179 -0.01691289
v -0.01847850 0.01523049 -0.01681365
v -0.01847850 0.01523481 -0.01676403
v -0.01596450 0.01523481 -0.01024953
v -0.01559706 0.01520511 -0.00988206
v -0.01523913 0.01511670 -0.00952416
v -0.01368069 0.01284912 -0.00796569
v -0.01368006 0.01303359 -0.00796509
v -0.01369434 0.01321752 -0.00797937
v -0.01372341 0.01339968 -0.00800841
v -0.01389690 0.01392396 -0.00818193
v -0.01376706 0.01357893 -0.00805209
v -0.01382502 0.01375407 -0.00811005
v -0.01431318 0.01452963 -0.00859821
v -0.01490010 0.01497189 -0.00918513
v -0.01458876 0.01477452 -0.00887376
v -0.01408053 0.01424361 -0.00836556
v -0.01398228 0.01408749 -0.00826728
v -0.00001452 0.01330860 -0.00799389
v -0.00002898 0.01366650 -0.00808104
v -0.00002181 0.01348932 -0.00803025
v -0.00003594 0.01383903 -0.00814599
v -0.00004266 0.01400574 -0.00822462
v -0.00004914 0.01416555 -0.00831642
v -0.01898067 0.00037581 0.01904997
v -0.01523916 0.01511670 0.00952413
v -0.01368069 0.01284912 0.00796566
v -0.01368006 0.01303359 0.00796506
v -0.01369434 0.01321752 0.00797934
v -0.01372341 0.01339968 0.00800838
v -0.01389693 0.01392396 0.00818190
v -0.01376706 0.01357893 0.00805206
v -0.01382502 0.01375407 0.00811002
v -0.01398228 0.01408749 0.00826728
v -0.01431318 0.01452963 0.00859815
v -0.01458876 0.01477452 0.00887373
v -0.01490010 0.01497189 0.00918510
v -0.01408056 0.01424361 0.00836553
v -0.01864590 0.00875781 0.01904997
v -0.02400498 0.01294881 0.01904997
v -0.02400498 0.01301327 0.01904435
v -0.02400498 0.01308283 0.01903825
v -0.02400498 0.01314220 0.01903306
v -0.02400498 0.01321178 0.01902698
v -0.02400498 0.01334580 0.01901526
v -0.02400498 0.01340828 0.01899850
v -0.02400498 0.01347574 0.01898044
v -0.02400498 0.01353330 0.01896502
v -0.02400498 0.01360073 0.01894693
v -0.02400498 0.01369696 0.01892116
v -0.02400498 0.01373067 0.01891212
v -0.02400498 0.01385262 0.01885527
v -0.02400498 0.01523481 0.01676399
v -0.02400498 0.01523178 0.01679877
v -0.02400498 0.01522919 0.01682845
v -0.02400498 0.01521182 0.01702691
v -0.02400498 0.01520315 0.01712615
v -0.02400498 0.01520010 0.01716093
v -0.02400498 0.01519106 0.01719466
v -0.02400498 0.01514720 0.01735833
v -0.02400498 0.01516529 0.01729090
v -0.02400498 0.01511372 0.01748335
v -0.02400498 0.01513178 0.01741589
v -0.02400498 0.01510600 0.01751212
v -0.02400498 0.01509696 0.01754583
v -0.02400498 0.01508220 0.01757748
v -0.02400498 0.01504011 0.01766778
v -0.02400498 0.01495590 0.01784835
v -0.02400498 0.01409184 0.01874370
v -0.02400498 0.01412044 0.01872368
v -0.02400498 0.01420204 0.01866656
v -0.02400498 0.01406019 0.01875846
v -0.02400498 0.01436524 0.01855226
v -0.02400498 0.01441824 0.01851516
v -0.02400498 0.01492854 0.01790699
v -0.02400498 0.01489144 0.01796000
v -0.02400498 0.01470000 0.01823340
v -0.01847850 0.01294881 0.01904997
v -0.01847850 0.01299843 0.01904565
v -0.01847850 0.01309767 0.01903695
v -0.01847850 0.01319694 0.01902828
v -0.01847850 0.01329618 0.01901961
v -0.01847850 0.01334580 0.01901526
v -0.01847850 0.01339389 0.01900236
v -0.01847850 0.01349013 0.01897659
v -0.01847850 0.01358634 0.01895079
v -0.01847850 0.01368258 0.01892502
v -0.01847850 0.01373067 0.01891212
v -0.01847850 0.01377582 0.01889106
v -0.01847850 0.01386612 0.01884897
v -0.01847850 0.01395639 0.01880688
v -0.01847850 0.01523481 0.01676400
v -0.01847850 0.01523049 0.01681362
v -0.01847850 0.01522179 0.01691283
v -0.01847850 0.01521312 0.01701207
v -0.01847850 0.01520445 0.01711131
v -0.01847850 0.01520010 0.01716093
v -0.01847850 0.01518720 0.01720905
v -0.01847850 0.01513563 0.01740150
v -0.01847850 0.01516143 0.01730529
v -0.01847850 0.01510986 0.01749774
v -0.01847850 0.01509696 0.01754583
v -0.01847850 0.01507590 0.01759098
v -0.01847850 0.01503381 0.01768128
v -0.01847850 0.01499172 0.01777155
v -0.01847850 0.01452390 0.01840950
v -0.01847850 0.01459434 0.01833906
v -0.01847850 0.01409184 0.01874370
v -0.01847850 0.01413264 0.01871514
v -0.01847850 0.01429584 0.01860087
v -0.01847850 0.01421424 0.01865802
v -0.01847850 0.01404669 0.01876476
v -0.01847850 0.01437744 0.01854372
v -0.01847850 0.01445346 0.01847994
v -0.01847850 0.01441824 0.01851516
v -0.01847850 0.01478571 0.01811100
v -0.01847850 0.01492854 0.01790700
v -0.01847850 0.01489998 0.01794780
v -0.01847850 0.01484286 0.01802940
v -0.01847850 0.01466478 0.01826862
v -0.01847850 0.01470000 0.01823340
v -0.01847850 0.01472859 0.01819260
v -0.01847850 0.01494960 0.01786185
v -0.01596450 0.01523481 0.01024947
v -0.01559706 0.01520511 0.00988203
v -0.01448739 0.01523481 0.01513536
v -0.00066957 -0.00381516 0.01905000
v -0.00000030 0.01294137 0.00796536
v -0.00000714 0.01312557 0.00797220
v -0.00004914 0.01416555 0.00831642
v -0.00011631 0.01438662 0.00848184
v -0.00013779 0.01465209 0.00873594
v -0.00015567 0.01487322 0.00902943
v -0.00016953 0.01504431 0.00935460
v -0.00650511 0.01523481 0.01187811
v -0.00017895 0.01516089 0.00970308
v -0.00018372 0.01521996 0.01006575
v -0.00000000 -0.02233035 -0.01823343
v -0.00000000 -0.02244462 -0.01807023
v -0.00000000 -0.02255889 -0.01790703
v -0.00000000 -0.02204859 -0.01851519
v -0.00000000 -0.02188539 -0.01862946
v -0.00000000 -0.02172216 -0.01874376
v -0.00000000 -0.02218947 -0.01837431
v -0.00000000 -0.02264310 -0.01772643
v -0.00000000 -0.02272731 -0.01754586
v -0.00000000 -0.02277888 -0.01735341
v -0.00000000 -0.02283045 -0.01716099
v -0.00000000 -0.02284779 -0.01696248
v -0.00000000 -0.02286516 -0.01676400
v -0.00000000 -0.02154159 -0.01882794
v -0.00000000 -0.02136102 -0.01891215
v -0.00000000 -0.02116857 -0.01896372
v -0.00000000 -0.02097615 -0.01901529
v -0.00000000 -0.02077764 -0.01903263
v -0.00000000 -0.02057916 -0.01905000
v -0.00000000 -0.02286516 -0.01171338
v -0.00000000 -0.02283234 -0.01132734
v -0.00000000 -0.02273478 -0.01095237
v -0.00000000 -0.02257530 -0.01059930
v -0.00000000 -0.02235852 -0.01027821
v -0.00000000 -0.02209059 -0.00999834
v 0.00006096 -0.02201520 -0.00993738
v -0.00000000 -0.02193981 -0.00987642
v 0.00005436 -0.02185953 -0.00982206
v -0.00000000 -0.02177925 -0.00976773
v -0.00000000 -0.02161008 -0.00967302
v 0.00004002 -0.02152176 -0.00963303
v -0.00000000 -0.02143347 -0.00959301
v 0.00003237 -0.02134209 -0.00956064
v -0.00000000 -0.02125071 -0.00952824
v 0.00584319 -0.02286516 -0.01234470
v 0.00002454 -0.02115693 -0.00950373
v -0.00000000 -0.02106315 -0.00947919
v 0.00001650 -0.02096760 -0.00946272
v -0.00000000 -0.02087208 -0.00944622
v 0.00000834 -0.02077548 -0.00943788
v -0.00000000 -0.02067888 -0.00942954
v 0.00720630 -0.01229688 -0.00906360
v 0.01571334 -0.02209059 -0.00999834
v 0.01559142 -0.02193981 -0.00987642
v 0.01548273 -0.02177925 -0.00976773
v 0.01599318 -0.02235852 -0.01027818
v 0.01631430 -0.02257530 -0.01059930
v 0.01530801 -0.02143347 -0.00959301
v 0.01524324 -0.02125071 -0.00952824
v 0.01538802 -0.02161008 -0.00967302
v 0.01704234 -0.02283234 -0.01132734
v 0.01666740 -0.02273478 -0.01095237
v 0.01742838 -0.02286516 -0.01171338
v 0.01881327 -0.02257995 -0.01786188
v 0.01881327 -0.02235891 -0.01819263
v 0.01881327 -0.02233035 -0.01823343
v 0.01881327 -0.02229513 -0.01826865
v 0.01881327 -0.02247321 -0.01802940
v 0.01881327 -0.02253033 -0.01794780
v 0.01881327 -0.02255889 -0.01790700
v 0.01881327 -0.02241606 -0.01811103
v 0.01881327 -0.02204859 -0.01851519
v 0.01881327 -0.02208381 -0.01847997
v 0.01881327 -0.02200779 -0.01854375
v 0.01881327 -0.02167704 -0.01876479
v 0.01881327 -0.02184459 -0.01865802
v 0.01881327 -0.02192619 -0.01860090
v 0.01881327 -0.02176296 -0.01871517
v 0.01881327 -0.02172216 -0.01874373
v 0.01881327 -0.02222469 -0.01833909
v 0.01881327 -0.02215425 -0.01840953
v 0.01881327 -0.02262204 -0.01777158
v 0.01881327 -0.02266416 -0.01768131
v 0.01881327 -0.02270625 -0.01759101
v 0.01881327 -0.02272731 -0.01754586
v 0.01881327 -0.02274018 -0.01749774
v 0.01881327 -0.02279175 -0.01730532
v 0.01881327 -0.02276598 -0.01740153
v 0.01881327 -0.02281755 -0.01720908
v 0.01881327 -0.02283045 -0.01716096
v 0.01881327 -0.02283477 -0.01711134
v 0.01881327 -0.02284347 -0.01701210
v 0.01881327 -0.02285214 -0.01691286
v 0.01881327 -0.02286084 -0.01681362
v 0.01881327 -0.02286516 -0.01676400
v 0.01881327 -0.02158674 -0.01880688
v 0.01881330 -0.02149647 -0.01884900
v 0.01881330 -0.02140617 -0.01889109
v 0.01881330 -0.02136102 -0.01891215
v 0.01881330 -0.02131293 -0.01892505
v 0.01881330 -0.02121669 -0.01895082
v 0.01881330 -0.02112048 -0.01897659
v 0.01881330 -0.02102424 -0.01900239
v 0.01881330 -0.02097615 -0.01901529
v 0.01881330 -0.02092653 -0.01901961
v 0.01881330 -0.02082726 -0.01902831
v 0.01881330 -0.02072802 -0.01903698
v 0.01881330 -0.02062878 -0.01904565
v 0.01881330 -0.02057916 -0.01905000
v 0.02400498 -0.02233035 -0.01823342
v 0.02400498 -0.02255889 -0.01790700
v 0.02400498 -0.02240818 -0.01812228
v 0.02400498 -0.02204859 -0.01851519
v 0.02400498 -0.02207409 -0.01848969
v 0.02400498 -0.02201905 -0.01853587
v 0.02400498 -0.02199653 -0.01855163
v 0.02400498 -0.02168949 -0.01875898
v 0.02400498 -0.02187837 -0.01863437
v 0.02400498 -0.02193745 -0.01859301
v 0.02400498 -0.02172216 -0.01874373
v 0.02400498 -0.02223441 -0.01832936
v 0.02400498 -0.02264673 -0.01771868
v 0.02400498 -0.02258576 -0.01784942
v 0.02400498 -0.02261624 -0.01778404
v 0.02400498 -0.02270044 -0.01760347
v 0.02400498 -0.02271206 -0.01757855
v 0.02400498 -0.02272731 -0.01754586
v 0.02400498 -0.02273663 -0.01751102
v 0.02400498 -0.02276242 -0.01741481
v 0.02400498 -0.02274374 -0.01748447
v 0.02400498 -0.02279531 -0.01729204
v 0.02400498 -0.02277665 -0.01736170
v 0.02400498 -0.02283045 -0.01716096
v 0.02400498 -0.02283358 -0.01712503
v 0.02400498 -0.02283597 -0.01709765
v 0.02400498 -0.02284227 -0.01702579
v 0.02400498 -0.02284855 -0.01695394
v 0.02400498 -0.02285334 -0.01689917
v 0.02400498 -0.02285964 -0.01682731
v 0.02400498 -0.02286203 -0.01679993
v 0.02400498 -0.02286516 -0.01676400
v 0.02400498 -0.02136102 -0.01891215
v 0.02400498 -0.02132620 -0.01892149
v 0.02400498 -0.02122997 -0.01894726
v 0.02400498 -0.02097615 -0.01901528
v 0.02400498 -0.02094022 -0.01901841
v 0.02400498 -0.02084096 -0.01902711
v 0.02400498 -0.02064247 -0.01904445
v 0.02400498 -0.02057916 -0.01905000
v 0.01898067 -0.01638816 -0.01905000
v 0.01516122 -0.02087208 -0.00944622
v 0.01519419 -0.02106315 -0.00947919
v 0.01514454 -0.02067888 -0.00942954
v 0.01723536 -0.02284875 -0.00019302
v 0.01931544 -0.00800616 -0.01905000
v 0.01441263 -0.00391488 -0.00869763
v 0.01441263 -0.00391488 -0.00073194
v -0.00000000 -0.02106315 0.00947919
v 0.00001647 -0.02096760 0.00946269
v -0.00000000 -0.02087208 0.00944619
v -0.00000000 -0.02067888 0.00942954
v -0.00000000 -0.02257530 0.01059927
v -0.00000000 -0.02235852 0.01027818
v 0.00016056 -0.02246691 0.01043874
v -0.00000000 -0.02209059 0.00999831
v -0.00000000 -0.02177925 0.00976770
v -0.00000000 -0.02193981 0.00987639
v 0.00013992 -0.02222457 0.01013826
v -0.00000000 -0.02273478 0.01095237
v 0.00017655 -0.02265504 0.01077582
v 0.00018747 -0.02278356 0.01113984
v -0.00000000 -0.02283234 0.01132731
v 0.00019302 -0.02284875 0.01152033
v -0.00000000 -0.02286516 0.01171335
v -0.00000000 -0.02161008 0.00967302
v -0.00000000 -0.02143347 0.00959298
v 0.00003237 -0.02134209 0.00956061
v -0.00000000 -0.02125071 0.00952821
v 0.00574200 -0.02286516 0.01297602
v -0.00000000 -0.02286516 0.01676400
v -0.00000000 -0.02284779 0.01696248
v -0.00000000 -0.02283045 0.01716093
v -0.00000000 -0.02277888 0.01735338
v -0.00000000 -0.02272731 0.01754583
v -0.00000000 -0.02264310 0.01772643
v -0.00000000 -0.02255889 0.01790700
v -0.00000000 -0.02244462 0.01807020
v -0.00000000 -0.02233035 0.01823340
v -0.00000000 -0.02218947 0.01837428
v -0.00000000 -0.02204859 0.01851516
v -0.00000000 -0.02188539 0.01862943
v -0.00000000 -0.02172216 0.01874373
v -0.00000000 -0.02154159 0.01882794
v -0.00000000 -0.02136102 0.01891212
v -0.00000000 -0.02116857 0.01896369
v -0.00000000 -0.02097615 0.01901526
v -0.00000000 -0.02077764 0.01903263
v -0.00000000 -0.02057916 0.01905000
v 0.00073194 -0.00391488 0.00869760
v 0.01742838 -0.02286516 0.00000000
v 0.01516122 -0.02087208 0.00944619
v 0.01519419 -0.02106315 0.00947919
v 0.01514454 -0.02067888 0.00942954
v 0.01571331 -0.02209059 0.00999831
v 0.01548273 -0.02177925 0.00976770
v 0.01559142 -0.02193981 0.00987642
v 0.01599318 -0.02235852 0.01027818
v 0.01631427 -0.02257530 0.01059927
v 0.01530798 -0.02143347 0.00959298
v 0.01524324 -0.02125071 0.00952821
v 0.01538802 -0.02161008 0.00967302
v 0.01666737 -0.02273478 0.01095237
v 0.01704234 -0.02283234 0.01132731
v 0.01742838 -0.02286516 0.01171338
v 0.01732719 -0.02286516 0.01360734
v 0.01445619 -0.02286516 0.01550133
v 0.01881327 -0.02286516 0.01676400
v 0.01881327 -0.02286084 0.01681362
v 0.01881327 -0.02285214 0.01691286
v 0.01881327 -0.02284347 0.01701210
v 0.01881327 -0.02283477 0.01711134
v 0.01881327 -0.02283045 0.01716096
v 0.01881327 -0.02281755 0.01720905
v 0.01881327 -0.02279175 0.01730529
v 0.01881327 -0.02276598 0.01740150
v 0.01881327 -0.02274018 0.01749774
v 0.01881327 -0.02272731 0.01754586
v 0.01881327 -0.02270625 0.01759098
v 0.01881327 -0.02266416 0.01768128
v 0.01881327 -0.02262204 0.01777158
v 0.01881327 -0.02257995 0.01786185
v 0.01881327 -0.02255889 0.01790700
v 0.01881327 -0.02253033 0.01794780
v 0.01881327 -0.02247321 0.01802940
v 0.01881327 -0.02241606 0.01811100
v 0.01881327 -0.02235891 0.01819260
v 0.01881327 -0.02233035 0.01823340
v 0.01881327 -0.02229513 0.01826862
v 0.01881327 -0.02222469 0.01833906
v 0.01881327 -0.02215425 0.01840950
v 0.01881327 -0.02208381 0.01847994
v 0.01881327 -0.02204859 0.01851516
v 0.01881327 -0.02200779 0.01854375
v 0.01881327 -0.02192619 0.01860087
v 0.01881327 -0.02184459 0.01865802
v 0.01881327 -0.02176296 0.01871517
v 0.01881327 -0.02172216 0.01874373
v 0.01881327 -0.02167704 0.01876479
v 0.01881327 -0.02158674 0.01880688
v 0.01881327 -0.02149647 0.01884897
v 0.01881327 -0.02140617 0.01889109
v 0.01881327 -0.02136102 0.01891215
v 0.01881327 -0.02131293 0.01892502
v 0.01881327 -0.02121669 0.01895082
v 0.01881327 -0.02112048 0.01897659
v 0.01881327 -0.02102424 0.01900239
v 0.01881327 -0.02097615 0.01901526
v 0.01881327 -0.02092653 0.01901961
v 0.01881327 -0.02082726 0.01902828
v 0.01881327 -0.02072802 0.01903698
v 0.01881327 -0.02062878 0.01904565
v 0.01881327 -0.02057916 0.01905000
v 0.02400498 -0.02286516 0.01676400
v 0.02400498 -0.02286203 0.01679993
v 0.02400498 -0.02285964 0.01682731
v 0.02400498 -0.02285334 0.01689917
v 0.02400498 -0.02284706 0.01697102
v 0.02400498 -0.02284227 0.01702579
v 0.02400498 -0.02283597 0.01709765
v 0.02400498 -0.02283358 0.01712503
v 0.02400498 -0.02283045 0.01716096
v 0.02400498 -0.02281399 0.01722233
v 0.02400498 -0.02274374 0.01748446
v 0.02400498 -0.02273663 0.01751102
v 0.02400498 -0.02272731 0.01754586
v 0.02400498 -0.02270044 0.01760344
v 0.02400498 -0.02264673 0.01771866
v 0.02400498 -0.02261624 0.01778404
v 0.02400498 -0.02258576 0.01784940
v 0.02400498 -0.02257414 0.01787431
v 0.02400498 -0.02255889 0.01790700
v 0.02400498 -0.02248109 0.01801814
v 0.02400498 -0.02243971 0.01807722
v 0.02400498 -0.02240818 0.01812227
v 0.02400498 -0.02233035 0.01823341
v 0.02400498 -0.02204859 0.01851517
v 0.02400498 -0.02201905 0.01853587
v 0.02400498 -0.02193745 0.01859299
v 0.02400498 -0.02187837 0.01863437
v 0.02400498 -0.02177422 0.01870728
v 0.02400498 -0.02172216 0.01874373
v 0.02400498 -0.02159920 0.01880108
v 0.02400498 -0.02148401 0.01885478
v 0.02400498 -0.02136102 0.01891215
v 0.02400498 -0.02129965 0.01892858
v 0.02400498 -0.02122997 0.01894726
v 0.02400498 -0.02116031 0.01896592
v 0.02400498 -0.02101097 0.01900595
v 0.02400498 -0.02103752 0.01899883
v 0.02400498 -0.02097615 0.01901527
v 0.02400498 -0.02094022 0.01901842
v 0.02400498 -0.02084096 0.01902709
v 0.02400498 -0.02076911 0.01903339
v 0.02400498 -0.02071433 0.01903818
v 0.02400498 -0.02057916 0.01905000
v 0.01864587 -0.01638816 0.01905000
v 0.01441260 -0.00391488 0.00869760
v 0.01831110 -0.00800616 0.01905000
v 0.00066957 -0.00381516 -0.01905000
v -0.00000000 0.01294881 -0.01905000
v -0.00000000 0.01314729 -0.01903263
v -0.00000000 0.01334580 -0.01901529
v -0.00000000 0.01353822 -0.01896372
v -0.00000000 0.01373067 -0.01891215
v -0.00000000 0.01391124 -0.01882794
v -0.00000000 0.01409184 -0.01874376
v -0.00000000 0.01425504 -0.01862946
v -0.00000000 0.01441824 -0.01851519
v -0.00000000 0.01455912 -0.01837431
v -0.00000000 0.01470000 -0.01823343
v -0.00000000 0.01481427 -0.01807023
v -0.00000000 0.01492854 -0.01790703
v -0.00000000 0.01501275 -0.01772643
v -0.00000000 0.01509696 -0.01754586
v -0.00000000 0.01514853 -0.01735341
v -0.00000000 0.01520010 -0.01716099
v -0.00000000 0.01521747 -0.01696248
v -0.00000000 0.01523481 -0.01676400
v -0.00000000 0.01523481 -0.01024950
v 0.00018372 0.01521996 -0.01006578
v -0.00000000 0.01520511 -0.00988206
v 0.00017895 0.01516089 -0.00970311
v 0.00650511 0.01523481 -0.01187814
v -0.00000000 0.01284912 -0.00796569
v 0.00000030 0.01294137 -0.00796539
v -0.00000000 0.01303359 -0.00796509
v 0.00000714 0.01312557 -0.00797223
v -0.00000000 0.01321752 -0.00797937
v -0.00000000 0.01339968 -0.00800841
v -0.00000000 0.01357893 -0.00805206
v -0.00000000 0.01375407 -0.00811005
v -0.00000000 0.01392396 -0.00818193
v -0.00000000 0.01424361 -0.00836556
v 0.00011631 0.01438662 -0.00848187
v -0.00000000 0.01452963 -0.00859821
v 0.00015567 0.01487322 -0.00902943
v 0.00016953 0.01504431 -0.00935463
v -0.00000000 0.01511670 -0.00952416
v -0.00000000 0.01497189 -0.00918513
v -0.00000000 0.01477452 -0.00887376
v 0.00013779 0.01465209 -0.00873597
v -0.00000000 0.01408749 -0.00826728
v 0.01898067 0.00037581 -0.01905000
v 0.01448739 0.01523481 -0.01513539
v 0.01559706 0.01520511 -0.00988206
v 0.01596450 0.01523481 -0.01024950
v 0.01864590 0.00875781 -0.01905000
v 0.01847850 0.01294881 -0.01905000
v 0.01847850 0.01299843 -0.01904565
v 0.01847850 0.01309767 -0.01903698
v 0.01847850 0.01319694 -0.01902831
v 0.01847850 0.01329618 -0.01901961
v 0.01847850 0.01334580 -0.01901529
v 0.01847850 0.01339389 -0.01900239
v 0.01847850 0.01349013 -0.01897659
v 0.01847850 0.01358634 -0.01895082
v 0.01847850 0.01368258 -0.01892505
v 0.01847850 0.01373067 -0.01891215
v 0.01847850 0.01377582 -0.01889109
v 0.01847850 0.01386612 -0.01884900
v 0.01847850 0.01395639 -0.01880688
v 0.01847850 0.01404669 -0.01876479
v 0.01847850 0.01409184 -0.01874373
v 0.01847850 0.01413264 -0.01871517
v 0.01847850 0.01421424 -0.01865802
v 0.01847850 0.01429584 -0.01860090
v 0.01847850 0.01437744 -0.01854375
v 0.01847850 0.01441824 -0.01851519
v 0.01847850 0.01445346 -0.01847997
v 0.01847850 0.01452390 -0.01840953
v 0.01847850 0.01459434 -0.01833909
v 0.01847850 0.01466478 -0.01826865
v 0.01847850 0.01470000 -0.01823343
v 0.01847850 0.01472859 -0.01819263
v 0.01847850 0.01478571 -0.01811103
v 0.01847850 0.01484286 -0.01802940
v 0.01847850 0.01489998 -0.01794780
v 0.01847850 0.01492854 -0.01790700
v 0.01847850 0.01494960 -0.01786188
v 0.01847850 0.01499172 -0.01777158
v 0.01847850 0.01503381 -0.01768131
v 0.01847850 0.01507590 -0.01759101
v 0.01847850 0.01509696 -0.01754586
v 0.01847850 0.01510986 -0.01749774
v 0.01847850 0.01513563 -0.01740153
v 0.01847850 0.01516143 -0.01730532
v 0.01847850 0.01518720 -0.01720908
v 0.01847850 0.01520010 -0.01716096
v 0.01847850 0.01520445 -0.01711134
v 0.01847850 0.01521312 -0.01701210
v 0.01847850 0.01522179 -0.01691286
v 0.01847850 0.01523049 -0.01681362
v 0.01847850 0.01523481 -0.01676400
v 0.02400498 0.01294881 -0.01905000
v 0.02400498 0.01301327 -0.01904435
v 0.02400498 0.01321178 -0.01902701
v 0.02400498 0.01331102 -0.01901831
v 0.02400498 0.01334580 -0.01901528
v 0.02400498 0.01360073 -0.01894696
v 0.02400498 0.01369696 -0.01892119
v 0.02400498 0.01373067 -0.01891215
v 0.02400498 0.01378932 -0.01888479
v 0.02400498 0.01385262 -0.01885529
v 0.02400498 0.01391589 -0.01882577
v 0.02400498 0.01409184 -0.01874373
v 0.02400498 0.01412044 -0.01872371
v 0.02400498 0.01414484 -0.01870663
v 0.02400498 0.01425085 -0.01863239
v 0.02400498 0.01430804 -0.01859235
v 0.02400498 0.01436524 -0.01855229
v 0.02400498 0.01438964 -0.01853521
v 0.02400498 0.01441824 -0.01851519
v 0.02400498 0.01444293 -0.01849050
v 0.02400498 0.01460487 -0.01832855
v 0.02400498 0.01470000 -0.01823342
v 0.02400498 0.01485140 -0.01801720
v 0.02400498 0.01489144 -0.01796000
v 0.02400498 0.01492854 -0.01790700
v 0.02400498 0.01495590 -0.01784838
v 0.02400498 0.01504011 -0.01766781
v 0.02400498 0.01508220 -0.01757751
v 0.02400498 0.01509696 -0.01754586
v 0.02400498 0.01510600 -0.01751213
v 0.02400498 0.01511372 -0.01748336
v 0.02400498 0.01514720 -0.01735836
v 0.02400498 0.01520010 -0.01716096
v 0.02400498 0.01520315 -0.01712618
v 0.02400498 0.01521182 -0.01702694
v 0.02400498 0.01523178 -0.01679878
v 0.02400498 0.01523481 -0.01676400
v 0.01368069 0.01284912 -0.00796569
v 0.01368009 0.01303359 -0.00796509
v 0.01369437 0.01321752 -0.00797934
v 0.01372341 0.01339968 -0.00800841
v 0.01376706 0.01357893 -0.00805206
v 0.01382502 0.01375407 -0.00811002
v 0.01389693 0.01392396 -0.00818193
v 0.01408056 0.01424361 -0.00836556
v 0.01431318 0.01452963 -0.00859818
v 0.01490013 0.01497189 -0.00918510
v 0.01458876 0.01477452 -0.00887376
v 0.01398228 0.01408749 -0.00826728
v 0.01523916 0.01511670 -0.00952416
v -0.00000000 0.01284912 0.00796566
v -0.00000000 0.01303359 0.00796506
v -0.00000000 0.01321752 0.00797934
v 0.00001452 0.01330860 0.00799386
v -0.00000000 0.01339968 0.00800838
v 0.00002181 0.01348932 0.00803022
v -0.00000000 0.01357893 0.00805206
v 0.00002898 0.01366650 0.00808104
v -0.00000000 0.01375407 0.00811002
v 0.00003594 0.01383903 0.00814596
v -0.00000000 0.01392396 0.00818190
v 0.00004269 0.01400574 0.00822459
v -0.00000000 0.01408749 0.00826728
v -0.00000000 0.01424361 0.00836553
v -0.00000000 0.01452963 0.00859815
v -0.00000000 0.01477452 0.00887373
v -0.00000000 0.01497189 0.00918510
v -0.00000000 0.01511670 0.00952413
v -0.00000000 0.01520511 0.00988203
v -0.00000000 0.01523481 0.01024950
v -0.00000000 0.01294881 0.01905000
v -0.00000000 0.01314729 0.01903263
v -0.00000000 0.01334580 0.01901526
v -0.00000000 0.01353822 0.01896369
v -0.00000000 0.01373067 0.01891212
v -0.00000000 0.01391124 0.01882794
v -0.00000000 0.01523481 0.01676400
v -0.00000000 0.01521747 0.01696248
v -0.00000000 0.01520010 0.01716093
v -0.00000000 0.01514853 0.01735338
v -0.00000000 0.01509696 0.01754583
v -0.00000000 0.01501275 0.01772643
v -0.00000000 0.01455912 0.01837428
v -0.00000000 0.01409184 0.01874373
v -0.00000000 0.01425504 0.01862943
v -0.00000000 0.01441824 0.01851516
v -0.00000000 0.01492854 0.01790700
v -0.00000000 0.01481427 0.01807020
v -0.00000000 0.01470000 0.01823340
v 0.01797633 0.00037581 0.01905000
v 0.01368069 0.01284912 0.00796569
v 0.01368006 0.01303359 0.00796506
v 0.01369434 0.01321752 0.00797934
v 0.01372341 0.01339968 0.00800841
v 0.01376706 0.01357893 0.00805206
v 0.01382502 0.01375407 0.00811002
v 0.01389693 0.01392396 0.00818190
v 0.01398228 0.01408749 0.00826728
v 0.01408056 0.01424361 0.00836556
v 0.01431318 0.01452963 0.00859818
v 0.01458876 0.01477452 0.00887373
v 0.01490010 0.01497189 0.00918510
v 0.01523916 0.01511670 0.00952413
v 0.01559706 0.01520511 0.00988203
v 0.01596450 0.01523481 0.01024950
v 0.01831110 0.00875781 0.01905000
v 0.01847850 0.01294881 0.01905000
v 0.01847850 0.01299843 0.01904565
v 0.01847850 0.01309767 0.01903698
v 0.01847850 0.01319694 0.01902828
v 0.01847850 0.01329618 0.01901961
v 0.01847850 0.01334580 0.01901526
v 0.01847850 0.01339389 0.01900239
v 0.01847850 0.01349013 0.01897659
v 0.01847850 0.01358634 0.01895082
v 0.01847850 0.01368258 0.01892502
v 0.01847850 0.01373067 0.01891215
v 0.01847850 0.01377582 0.01889109
v 0.01847850 0.01386612 0.01884897
v 0.01847850 0.01395639 0.01880688
v 0.01847850 0.01523481 0.01676400
v 0.01847850 0.01523049 0.01681362
v 0.01847850 0.01522179 0.01691286
v 0.01847850 0.01521312 0.01701210
v 0.01847850 0.01520445 0.01711134
v 0.01847850 0.01520010 0.01716096
v 0.01847850 0.01518720 0.01720905
v 0.01847850 0.01513563 0.01740150
v 0.01847850 0.01516143 0.01730529
v 0.01847850 0.01510986 0.01749774
v 0.01847850 0.01509696 0.01754586
v 0.01847850 0.01507590 0.01759098
v 0.01847850 0.01503381 0.01768128
v 0.01847850 0.01499172 0.01777158
v 0.01847850 0.01452390 0.01840950
v 0.01847850 0.01459434 0.01833906
v 0.01847850 0.01409184 0.01874373
v 0.01847850 0.01413264 0.01871517
v 0.01847850 0.01429584 0.01860087
v 0.01847850 0.01421424 0.01865802
v 0.01847850 0.01404669 0.01876479
v 0.01847850 0.01437744 0.01854375
v 0.01847850 0.01445346 0.01847994
v 0.01847850 0.01441824 0.01851516
v 0.01847850 0.01478571 0.01811100
v 0.01847850 0.01492854 0.01790700
v 0.01847850 0.01489998 0.01794780
v 0.01847850 0.01484286 0.01802940
v 0.01847850 0.01466478 0.01826862
v 0.01847850 0.01470000 0.01823340
v 0.01847850 0.01472859 0.01819260
v 0.01847850 0.01494960 0.01786185
v 0.02400498 0.01294881 0.01905000
v 0.02400498 0.01328134 0.01902091
v 0.02400498 0.01331102 0.01901832
v 0.02400498 0.01334580 0.01901527
v 0.02400498 0.01340828 0.01899853
v 0.02400498 0.01337951 0.01900625
v 0.02400498 0.01353330 0.01896502
v 0.02400498 0.01360073 0.01894696
v 0.02400498 0.01366819 0.01892888
v 0.02400498 0.01373067 0.01891215
v 0.02400498 0.01396989 0.01880058
v 0.02400498 0.01523481 0.01676400
v 0.02400498 0.01523178 0.01679878
v 0.02400498 0.01522919 0.01682846
v 0.02400498 0.01521182 0.01702694
v 0.02400498 0.01520315 0.01712618
v 0.02400498 0.01520010 0.01716096
v 0.02400498 0.01519106 0.01719467
v 0.02400498 0.01514720 0.01735833
v 0.02400498 0.01516529 0.01729090
v 0.02400498 0.01511372 0.01748335
v 0.02400498 0.01513178 0.01741589
v 0.02400498 0.01510600 0.01751213
v 0.02400498 0.01509696 0.01754586
v 0.02400498 0.01508220 0.01757748
v 0.02400498 0.01504011 0.01766778
v 0.02400498 0.01495590 0.01784836
v 0.02400498 0.01409184 0.01874373
v 0.02400498 0.01430804 0.01859233
v 0.02400498 0.01425085 0.01863239
v 0.02400498 0.01406019 0.01875849
v 0.02400498 0.01438964 0.01853521
v 0.02400498 0.01441824 0.01851517
v 0.02400498 0.01492854 0.01790700
v 0.02400498 0.01470000 0.01823341
f 42 1 2
f 46 3 4
f 47 4 1
f 49 5 6
f 48 6 7
f 52 9 10
f 50 7 9
f 54 10 11
f 54 11 12
f 55 12 8
f 42 2 5
f 58 13 3
f 59 14 13
f 60 15 14
f 61 17 16
f 61 16 15
f 62 18 17
f 63 19 18
f 66 21 20
f 66 20 19
f 67 22 21
f 68 23 22
f 68 24 23
f 69 25 24
f 70 26 25
f 70 27 26
f 71 28 27
f 51 8 29
f 72 29 30
f 73 30 31
f 74 31 32
f 75 32 33
f 75 33 34
f 79 34 35
f 80 35 36
f 80 36 37
f 81 37 38
f 84 38 39
f 42 41 1
f 41 47 1
f 44 4 47
f 45 4 44
f 45 46 4
f 46 40 3
f 49 6 48
f 50 48 7
f 51 55 8
f 52 53 9
f 50 9 53
f 52 10 54
f 54 12 55
f 42 5 43
f 56 43 5
f 57 56 5
f 57 5 49
f 58 59 13
f 40 58 3
f 60 14 59
f 60 61 15
f 62 17 61
f 62 64 18
f 63 18 64
f 63 65 19
f 65 66 19
f 66 67 21
f 67 68 22
f 68 69 24
f 69 70 25
f 70 71 27
f 51 29 72
f 72 30 73
f 73 31 74
f 75 74 32
f 75 34 76
f 76 34 77
f 78 34 79
f 77 34 78
f 79 35 80
f 80 37 81
f 81 38 82
f 82 38 83
f 83 38 84
f 84 39 85
f 71 87 28
f 87 88 28
f 88 89 28
f 42 43 447
f 56 447 43
f 42 447 41
f 44 47 448
f 45 44 449
f 45 449 46
f 46 449 40
f 41 448 47
f 49 48 450
f 50 53 450
f 50 450 48
f 52 451 53
f 52 54 451
f 54 55 452
f 51 452 55
f 57 49 453
f 57 453 56
f 58 454 59
f 40 449 58
f 60 59 454
f 62 61 455
f 60 455 61
f 62 456 64
f 63 64 456
f 63 457 65
f 66 457 67
f 65 457 66
f 67 457 68
f 68 458 69
f 69 458 70
f 70 459 71
f 51 72 460
f 72 73 460
f 73 74 461
f 75 461 74
f 75 76 461
f 76 77 461
f 77 78 462
f 78 79 462
f 79 80 463
f 80 81 463
f 81 82 463
f 82 83 464
f 83 84 464
f 84 85 465
f 85 86 465
f 87 106 88
f 88 106 89
f 86 104 465
f 89 103 28
f 103 209 28
f 89 90 103
f 90 114 103
f 90 91 211
f 91 92 210
f 92 93 212
f 93 94 213
f 94 95 214
f 95 96 215
f 96 97 215
f 97 98 218
f 98 99 219
f 99 100 115
f 100 101 116
f 101 102 117
f 85 39 233
f 85 233 86
f 102 105 220
f 71 459 87
f 41 447 448
f 44 448 449
f 49 450 453
f 53 451 450
f 54 452 451
f 56 453 447
f 58 449 454
f 60 454 455
f 62 455 456
f 63 456 457
f 68 457 458
f 70 458 459
f 51 460 452
f 73 461 460
f 77 462 461
f 79 463 462
f 82 464 463
f 84 465 464
f 87 459 106
f 89 107 90
f 90 108 91
f 91 109 92
f 92 110 93
f 93 111 94
f 94 471 95
f 95 473 96
f 96 112 97
f 97 476 98
f 98 478 99
f 89 106 466
f 89 466 107
f 90 107 467
f 90 467 108
f 91 108 468
f 91 468 109
f 92 109 469
f 92 469 110
f 93 110 470
f 93 470 111
f 94 111 471
f 95 471 472
f 95 472 473
f 96 473 474
f 96 475 112
f 96 474 475
f 97 112 476
f 98 476 477
f 98 477 478
f 99 478 479
f 99 479 480
f 99 480 100
f 100 483 101
f 101 485 102
f 100 480 482
f 100 482 483
f 101 483 484
f 101 484 485
f 102 485 486
f 102 486 487
f 102 487 113
f 104 745 465
f 102 113 105
f 209 162 28
f 162 118 28
f 90 211 114
f 103 114 209
f 91 210 211
f 93 213 212
f 94 214 213
f 95 216 214
f 95 215 216
f 92 212 210
f 97 217 215
f 97 218 217
f 98 219 218
f 99 115 219
f 100 116 115
f 101 117 116
f 114 211 209
f 102 220 117
f 162 119 118
f 163 120 119
f 163 121 120
f 164 122 121
f 165 123 122
f 165 124 123
f 166 125 124
f 167 126 125
f 169 127 126
f 169 128 127
f 170 129 128
f 170 130 129
f 172 131 130
f 172 132 131
f 173 133 132
f 174 134 133
f 175 135 134
f 175 136 135
f 177 137 136
f 178 138 137
f 182 139 138
f 187 140 139
f 187 141 140
f 188 142 141
f 188 143 142
f 190 144 143
f 191 145 144
f 191 146 145
f 192 147 146
f 193 148 147
f 195 149 148
f 197 150 149
f 197 151 150
f 198 152 151
f 199 153 152
f 200 154 153
f 200 155 154
f 202 156 155
f 202 157 156
f 203 158 157
f 205 159 158
f 206 160 159
f 207 161 160
f 162 163 119
f 163 164 121
f 164 165 122
f 165 166 124
f 166 167 125
f 167 168 126
f 168 169 126
f 169 170 128
f 170 171 130
f 171 172 130
f 172 173 132
f 173 174 133
f 174 175 134
f 175 176 136
f 176 177 136
f 177 178 137
f 178 179 138
f 179 180 138
f 180 181 138
f 181 182 138
f 182 183 139
f 183 184 139
f 184 185 139
f 185 186 139
f 186 187 139
f 187 188 141
f 188 189 143
f 189 190 143
f 190 191 144
f 191 192 146
f 192 193 147
f 193 194 148
f 194 195 148
f 195 196 149
f 196 197 149
f 197 198 151
f 198 199 152
f 199 200 153
f 200 201 155
f 201 202 155
f 202 203 157
f 203 204 158
f 204 205 158
f 205 206 159
f 206 207 160
f 207 208 161
f 208 222 161
f 209 616 162
f 162 616 163
f 163 616 164
f 164 617 165
f 165 617 166
f 166 618 167
f 167 618 168
f 168 618 169
f 169 619 170
f 170 619 171
f 171 620 172
f 172 620 173
f 173 621 174
f 174 621 175
f 175 622 176
f 176 622 177
f 177 622 178
f 178 622 179
f 179 623 180
f 180 623 181
f 181 624 182
f 182 624 183
f 183 624 184
f 184 625 185
f 185 625 186
f 186 626 187
f 187 626 188
f 188 626 189
f 189 627 190
f 190 627 191
f 191 628 192
f 192 628 193
f 193 629 194
f 194 629 195
f 195 630 196
f 196 630 197
f 197 630 198
f 198 630 199
f 199 631 200
f 200 631 201
f 201 632 202
f 202 632 203
f 203 632 204
f 204 633 205
f 205 633 206
f 206 634 207
f 207 634 208
f 117 221 230
f 117 220 221
f 222 334 161
f 334 348 161
f 208 436 222
f 115 223 219
f 115 116 594
f 116 117 224
f 117 230 597
f 223 614 219
f 115 594 223
f 116 595 594
f 116 596 595
f 116 224 596
f 117 597 224
f 212 213 598
f 213 214 599
f 211 610 209
f 212 605 210
f 210 608 211
f 214 216 226
f 216 215 227
f 215 217 228
f 217 218 229
f 218 219 612
f 209 610 225
f 209 225 616
f 164 616 617
f 166 617 618
f 169 618 619
f 171 619 620
f 173 620 621
f 175 621 622
f 179 622 623
f 181 623 624
f 184 624 625
f 186 625 626
f 189 626 627
f 191 627 628
f 193 628 629
f 195 629 630
f 199 630 631
f 201 631 632
f 204 632 633
f 206 633 634
f 208 634 436
f 212 598 606
f 213 599 600
f 213 600 598
f 214 226 601
f 214 601 604
f 215 602 227
f 215 228 602
f 216 603 226
f 216 227 603
f 214 604 599
f 212 606 605
f 210 605 607
f 210 607 608
f 211 608 609
f 211 609 610
f 217 229 611
f 217 611 228
f 218 612 229
f 219 613 612
f 219 614 613
f 225 610 615
f 225 615 616
f 230 221 635
f 230 635 597
f 86 233 104
f 104 233 231
f 105 316 220
f 231 233 232
f 267 233 234
f 268 234 235
f 269 235 236
f 271 236 237
f 272 237 238
f 273 238 239
f 274 239 240
f 277 240 241
f 278 241 242
f 279 242 243
f 281 243 244
f 282 244 245
f 283 245 246
f 285 246 247
f 287 247 248
f 288 248 249
f 292 249 250
f 295 250 251
f 296 251 252
f 296 252 253
f 297 253 254
f 300 254 255
f 302 255 256
f 303 256 257
f 304 257 258
f 304 258 259
f 305 259 260
f 306 260 261
f 307 261 262
f 307 262 263
f 308 263 264
f 309 264 265
f 312 265 266
f 232 233 267
f 267 234 268
f 268 235 269
f 269 236 270
f 270 236 271
f 271 237 272
f 272 238 273
f 273 239 274
f 274 240 275
f 275 240 276
f 276 240 277
f 277 241 278
f 278 242 279
f 279 243 280
f 280 243 281
f 281 244 282
f 282 245 283
f 283 246 284
f 284 246 285
f 285 247 286
f 286 247 287
f 287 248 288
f 288 249 289
f 289 249 290
f 290 249 291
f 291 249 292
f 292 250 293
f 293 250 294
f 294 250 295
f 295 251 296
f 296 253 297
f 297 254 298
f 298 254 299
f 299 254 300
f 300 255 301
f 301 255 302
f 302 256 303
f 303 257 304
f 304 259 305
f 305 260 306
f 306 261 307
f 307 263 308
f 308 264 309
f 309 265 310
f 310 265 311
f 311 265 312
f 231 232 746
f 232 267 746
f 267 268 746
f 268 269 747
f 269 270 747
f 270 271 748
f 271 272 748
f 272 273 748
f 273 274 749
f 274 275 749
f 275 276 750
f 276 277 750
f 277 278 750
f 278 279 750
f 279 280 751
f 280 281 751
f 281 282 752
f 282 283 752
f 283 284 753
f 284 285 753
f 285 286 754
f 286 287 754
f 287 288 754
f 288 289 755
f 289 290 755
f 290 291 756
f 291 292 756
f 292 293 756
f 293 294 757
f 294 295 757
f 295 296 758
f 296 297 758
f 297 298 758
f 298 299 758
f 299 300 759
f 300 301 759
f 302 303 760
f 301 302 760
f 303 304 761
f 304 305 761
f 305 306 762
f 306 307 762
f 307 308 762
f 308 309 762
f 309 310 763
f 310 311 763
f 311 312 764
f 312 266 362
f 312 362 313
f 313 434 314
f 314 335 315
f 324 315 346
f 316 317 337
f 318 319 339
f 317 318 338
f 320 327 343
f 319 321 339
f 321 322 342
f 320 340 322
f 323 325 344
f 324 345 325
f 323 347 326
f 326 343 327
f 104 231 745
f 231 746 745
f 105 113 316
f 312 313 764
f 268 747 746
f 270 748 747
f 273 749 748
f 275 750 749
f 279 751 750
f 281 752 751
f 283 753 752
f 285 754 753
f 288 755 754
f 290 756 755
f 293 757 756
f 295 758 757
f 299 759 758
f 301 760 759
f 303 761 760
f 305 762 761
f 309 763 762
f 311 764 763
f 313 314 765
f 314 315 767
f 313 769 764
f 314 766 765
f 314 767 766
f 315 768 767
f 315 784 768
f 313 765 769
f 316 771 317
f 317 774 318
f 318 328 319
f 321 329 322
f 319 330 321
f 320 322 331
f 320 332 327
f 324 325 785
f 324 784 315
f 323 326 781
f 323 786 325
f 326 327 333
f 113 770 316
f 316 770 771
f 317 771 772
f 317 772 773
f 317 773 774
f 318 774 328
f 319 328 775
f 319 775 330
f 321 330 776
f 321 776 329
f 322 329 777
f 322 777 331
f 320 778 332
f 320 331 778
f 326 333 779
f 326 779 780
f 323 781 787
f 326 780 781
f 324 785 783
f 324 783 784
f 325 782 785
f 323 787 786
f 325 786 782
f 327 788 333
f 327 332 788
f 220 336 221
f 348 387 161
f 387 349 161
f 222 436 334
f 436 348 334
f 313 362 433
f 220 316 336
f 313 433 434
f 314 434 335
f 315 335 346
f 316 337 336
f 317 338 337
f 318 339 338
f 320 343 340
f 321 341 339
f 321 342 341
f 322 340 342
f 324 346 345
f 325 345 344
f 326 347 343
f 323 344 347
f 388 350 349
f 388 351 350
f 389 352 351
f 390 353 352
f 392 354 353
f 393 355 354
f 394 357 356
f 394 356 355
f 395 358 357
f 396 359 358
f 397 360 359
f 398 361 360
f 421 381 361
f 401 362 363
f 402 363 364
f 402 364 365
f 405 365 366
f 406 367 368
f 406 366 367
f 407 368 370
f 409 370 369
f 408 369 372
f 408 372 371
f 410 371 373
f 411 373 374
f 411 374 375
f 412 375 376
f 413 376 377
f 430 386 383
f 417 378 381
f 417 379 378
f 418 380 379
f 422 382 380
f 424 383 382
f 426 384 385
f 427 385 386
f 432 377 384
f 435 362 401
f 387 388 349
f 388 389 351
f 389 390 352
f 390 391 353
f 391 392 353
f 392 393 354
f 393 394 355
f 394 395 357
f 395 396 358
f 396 397 359
f 397 398 360
f 398 399 361
f 399 400 361
f 400 421 361
f 401 363 402
f 402 365 403
f 403 365 404
f 404 365 405
f 406 368 407
f 405 366 406
f 409 369 408
f 407 370 409
f 408 371 410
f 410 373 411
f 411 375 412
f 412 376 413
f 414 413 377
f 414 377 432
f 416 429 383
f 415 416 383
f 429 430 383
f 417 418 379
f 418 420 380
f 420 419 380
f 419 422 380
f 417 381 421
f 424 382 422
f 423 383 424
f 415 383 423
f 425 428 386
f 432 384 426
f 427 426 385
f 427 386 428
f 431 386 430
f 425 386 431
f 433 362 444
f 348 910 387
f 444 362 435
f 387 910 388
f 388 911 389
f 389 911 390
f 390 912 391
f 391 912 392
f 392 912 393
f 393 913 394
f 394 913 395
f 395 914 396
f 396 914 397
f 397 914 398
f 398 914 399
f 399 915 400
f 400 915 421
f 401 402 916
f 402 403 916
f 403 404 917
f 404 405 917
f 406 407 918
f 405 406 918
f 407 409 918
f 409 408 919
f 408 410 919
f 410 411 920
f 411 412 920
f 412 413 921
f 414 432 926
f 414 921 413
f 415 922 416
f 415 423 922
f 417 421 923
f 417 923 418
f 418 924 420
f 420 924 419
f 424 422 925
f 419 925 422
f 423 424 925
f 425 431 927
f 432 426 926
f 427 926 426
f 427 428 926
f 425 927 428
f 431 430 928
f 416 928 429
f 429 928 430
f 221 336 635
f 336 337 437
f 337 338 438
f 338 339 894
f 341 342 898
f 339 341 896
f 340 900 342
f 340 343 902
f 343 347 439
f 345 346 442
f 346 335 443
f 344 440 347
f 344 345 441
f 336 890 635
f 336 437 890
f 337 891 437
f 337 438 891
f 338 892 438
f 338 893 892
f 338 894 893
f 339 895 894
f 339 896 895
f 341 897 896
f 341 898 897
f 342 899 898
f 342 900 899
f 340 901 900
f 340 902 901
f 343 439 902
f 347 903 439
f 347 440 903
f 344 904 440
f 344 441 904
f 345 905 441
f 345 442 905
f 346 906 442
f 335 907 443
f 346 443 906
f 436 910 348
f 434 433 446
f 335 434 445
f 433 444 909
f 435 401 916
f 444 435 916
f 388 910 911
f 390 911 912
f 393 912 913
f 395 913 914
f 399 914 915
f 421 915 923
f 403 917 916
f 405 918 917
f 409 919 918
f 410 920 919
f 412 921 920
f 414 926 921
f 416 922 928
f 418 923 924
f 419 924 925
f 423 925 922
f 428 927 926
f 431 928 927
f 434 908 445
f 434 446 908
f 433 909 446
f 335 445 907
f 106 459 481
f 106 481 466
f 107 466 497
f 107 497 467
f 108 467 498
f 108 498 468
f 109 468 493
f 111 470 489
f 111 489 471
f 472 490 473
f 473 490 474
f 112 475 496
f 474 491 475
f 109 493 469
f 110 469 492
f 110 492 470
f 471 489 472
f 112 496 476
f 476 496 477
f 477 494 478
f 478 494 479
f 479 495 480
f 447 501 448
f 449 448 504
f 453 450 509
f 450 451 513
f 451 452 514
f 447 453 516
f 449 518 454
f 454 520 455
f 455 522 456
f 456 523 457
f 457 528 458
f 458 530 459
f 460 511 452
f 460 461 533
f 461 462 537
f 462 463 539
f 463 464 542
f 464 465 544
f 459 499 481
f 481 499 466
f 472 489 490
f 475 491 496
f 474 490 491
f 477 496 494
f 479 494 495
f 467 497 498
f 468 498 493
f 466 499 497
f 469 493 492
f 470 492 489
f 465 745 586
f 480 495 482
f 482 588 483
f 484 587 485
f 485 587 486
f 483 588 484
f 486 589 487
f 495 588 482
f 484 588 587
f 486 587 589
f 487 589 488
f 113 487 488
f 113 488 592
f 447 503 502
f 447 516 503
f 447 502 501
f 448 507 504
f 449 504 505
f 449 505 506
f 449 506 500
f 448 501 507
f 450 508 509
f 450 513 510
f 450 510 508
f 451 512 513
f 451 514 512
f 452 515 514
f 452 511 515
f 453 509 517
f 453 517 516
f 454 518 519
f 449 500 518
f 454 519 520
f 455 521 522
f 455 520 521
f 456 522 524
f 456 524 523
f 457 523 525
f 457 526 527
f 457 525 526
f 457 527 528
f 458 528 529
f 458 529 530
f 459 530 531
f 460 532 511
f 460 533 532
f 461 534 533
f 461 535 534
f 461 536 535
f 461 537 536
f 462 538 537
f 462 539 538
f 463 540 539
f 463 541 540
f 463 542 541
f 464 543 542
f 464 544 543
f 465 545 544
f 459 531 499
f 465 586 545
f 506 559 500
f 502 548 501
f 502 503 546
f 504 507 547
f 505 504 547
f 505 547 506
f 501 548 507
f 509 508 550
f 510 551 508
f 511 553 515
f 512 554 513
f 512 514 554
f 510 513 555
f 514 515 554
f 516 557 503
f 517 557 516
f 517 509 557
f 518 558 519
f 500 559 518
f 520 519 561
f 520 562 521
f 522 521 564
f 522 565 524
f 523 524 568
f 523 569 525
f 526 570 527
f 525 569 526
f 527 571 528
f 528 573 529
f 529 574 530
f 530 576 531
f 511 532 553
f 533 534 553
f 532 533 553
f 535 553 534
f 535 536 579
f 536 537 580
f 537 538 580
f 538 539 580
f 539 540 580
f 540 541 582
f 541 542 583
f 542 543 583
f 543 544 584
f 544 545 584
f 545 586 585
f 506 547 559
f 502 546 548
f 503 557 546
f 507 548 547
f 508 549 550
f 510 555 552
f 510 552 551
f 508 551 549
f 513 554 555
f 515 556 554
f 515 553 556
f 509 550 557
f 518 559 560
f 518 560 558
f 519 558 561
f 520 561 562
f 521 563 564
f 521 562 563
f 522 564 566
f 522 566 565
f 524 565 568
f 523 568 567
f 523 567 569
f 526 569 570
f 527 570 571
f 528 571 572
f 528 572 573
f 529 573 574
f 530 574 575
f 530 575 576
f 531 576 577
f 535 578 553
f 535 579 578
f 536 580 579
f 540 581 580
f 540 582 581
f 541 583 582
f 543 584 583
f 545 585 584
f 586 591 585
f 499 590 497
f 498 644 493
f 489 642 490
f 490 642 491
f 491 641 496
f 492 493 643
f 492 640 489
f 496 647 494
f 494 646 495
f 495 646 588
f 587 588 638
f 587 637 589
f 497 648 498
f 499 636 590
f 497 590 649
f 589 639 593
f 531 577 699
f 531 699 499
f 586 745 591
f 591 789 585
f 789 793 585
f 589 592 488
f 589 593 592
f 223 638 614
f 223 594 638
f 595 596 637
f 594 595 638
f 224 639 596
f 224 597 639
f 597 635 639
f 638 646 614
f 595 637 638
f 596 639 637
f 226 642 601
f 227 641 603
f 227 602 641
f 228 647 602
f 226 603 642
f 598 644 606
f 599 604 643
f 599 643 600
f 598 600 644
f 604 601 640
f 605 606 648
f 605 648 607
f 607 649 608
f 608 649 609
f 609 650 610
f 228 611 647
f 229 645 611
f 229 612 645
f 612 613 645
f 613 614 646
f 610 650 615
f 601 642 640
f 602 647 641
f 603 641 642
f 611 645 647
f 613 646 645
f 600 643 644
f 604 640 643
f 606 644 648
f 607 648 649
f 609 649 650
f 615 652 616
f 616 655 617
f 617 657 618
f 618 660 619
f 619 662 620
f 620 664 621
f 621 666 622
f 622 670 623
f 623 672 624
f 624 675 625
f 625 677 626
f 626 680 627
f 627 682 628
f 628 684 629
f 629 686 630
f 630 690 631
f 631 692 632
f 632 695 633
f 633 697 634
f 616 652 653
f 639 635 743
f 436 634 744
f 489 640 642
f 491 642 641
f 493 644 643
f 492 643 640
f 494 647 645
f 494 645 646
f 588 646 638
f 496 641 647
f 587 638 637
f 589 637 639
f 498 648 644
f 497 649 648
f 590 636 649
f 636 650 649
f 499 699 636
f 636 699 650
f 615 650 651
f 615 651 652
f 616 653 654
f 616 654 655
f 617 655 656
f 617 656 657
f 618 657 658
f 618 658 659
f 618 659 660
f 619 660 661
f 619 661 662
f 620 662 663
f 620 663 664
f 621 664 665
f 621 665 666
f 622 666 667
f 622 667 668
f 622 668 669
f 622 669 670
f 623 670 671
f 623 671 672
f 624 672 673
f 624 673 674
f 624 674 675
f 625 675 676
f 625 676 677
f 626 677 678
f 626 678 679
f 626 679 680
f 627 680 681
f 627 681 682
f 628 682 683
f 628 683 684
f 629 684 685
f 629 685 686
f 630 686 687
f 630 687 688
f 630 688 689
f 630 689 690
f 631 690 691
f 631 691 692
f 632 692 693
f 632 693 694
f 632 694 695
f 633 695 696
f 633 696 697
f 634 697 698
f 634 698 742
f 634 742 744
f 650 699 651
f 651 699 652
f 652 699 653
f 653 700 654
f 654 702 655
f 655 703 656
f 656 705 657
f 657 706 658
f 658 708 659
f 659 708 660
f 660 709 661
f 661 709 662
f 662 710 663
f 663 712 664
f 664 712 665
f 665 713 666
f 666 714 667
f 667 716 668
f 668 718 669
f 669 718 670
f 670 719 671
f 671 720 672
f 672 721 673
f 673 722 674
f 674 722 675
f 675 722 676
f 676 722 677
f 677 722 678
f 678 723 679
f 679 724 680
f 680 725 681
f 681 726 682
f 682 727 683
f 683 728 684
f 684 728 685
f 685 729 686
f 686 730 687
f 687 730 688
f 688 731 689
f 689 732 690
f 690 733 691
f 691 735 692
f 692 734 693
f 693 737 694
f 694 738 695
f 695 739 696
f 696 740 697
f 697 741 698
f 653 699 700
f 654 700 701
f 654 701 702
f 655 702 703
f 656 703 704
f 656 704 705
f 657 705 706
f 658 706 707
f 658 707 708
f 660 708 709
f 662 709 710
f 663 710 711
f 663 711 712
f 665 712 713
f 666 713 714
f 667 714 715
f 667 715 716
f 668 716 717
f 668 717 718
f 670 718 719
f 671 719 720
f 672 720 721
f 673 721 722
f 678 722 723
f 679 723 724
f 680 724 725
f 681 725 726
f 682 726 727
f 683 727 728
f 685 728 729
f 686 729 730
f 688 730 731
f 689 731 732
f 690 732 733
f 691 733 735
f 692 735 734
f 693 734 736
f 693 736 737
f 694 737 738
f 695 738 739
f 696 739 740
f 697 740 741
f 593 639 743
f 698 741 992
f 698 992 742
f 113 592 877
f 768 784 889
f 765 766 792
f 766 767 791
f 767 768 791
f 745 746 793
f 746 747 795
f 747 748 797
f 748 749 800
f 749 750 802
f 750 751 806
f 751 752 808
f 752 753 810
f 753 754 812
f 754 755 815
f 755 756 817
f 756 757 820
f 757 758 822
f 758 759 826
f 759 760 828
f 760 761 830
f 761 762 832
f 762 763 836
f 763 764 838
f 764 769 790
f 764 790 839
f 769 765 792
f 768 889 791
f 766 791 792
f 113 877 770
f 770 877 771
f 771 878 772
f 772 878 773
f 773 879 774
f 328 774 879
f 328 879 775
f 330 775 880
f 329 776 881
f 329 881 777
f 330 880 776
f 331 777 882
f 331 882 778
f 332 778 883
f 332 883 788
f 779 884 780
f 781 885 787
f 780 885 781
f 785 886 783
f 784 783 889
f 785 782 886
f 786 787 887
f 782 786 887
f 333 788 888
f 333 888 779
f 771 877 878
f 773 878 879
f 775 879 880
f 776 880 881
f 777 881 882
f 778 882 883
f 788 883 888
f 884 885 780
f 787 885 887
f 782 887 886
f 783 886 889
f 779 888 884
f 591 745 789
f 745 793 789
f 793 794 585
f 794 840 585
f 592 593 877
f 793 746 794
f 746 795 794
f 747 796 795
f 747 797 796
f 748 798 797
f 748 799 798
f 748 800 799
f 749 801 800
f 749 802 801
f 750 803 802
f 750 804 803
f 750 805 804
f 750 806 805
f 751 807 806
f 751 808 807
f 752 809 808
f 752 810 809
f 753 811 810
f 753 812 811
f 754 813 812
f 754 814 813
f 754 815 814
f 755 816 815
f 755 817 816
f 756 818 817
f 756 819 818
f 756 820 819
f 757 821 820
f 757 822 821
f 758 823 822
f 758 824 823
f 758 825 824
f 758 826 825
f 759 827 826
f 759 828 827
f 760 830 829
f 760 829 828
f 761 831 830
f 761 832 831
f 762 833 832
f 762 834 833
f 762 835 834
f 762 836 835
f 763 837 836
f 763 838 837
f 764 839 838
f 790 769 876
f 769 792 876
f 794 795 840
f 795 796 841
f 796 797 841
f 797 798 842
f 798 799 843
f 799 800 844
f 800 801 844
f 801 802 844
f 802 803 845
f 803 804 846
f 804 805 847
f 805 806 848
f 806 807 850
f 807 808 850
f 808 809 850
f 809 810 852
f 810 811 853
f 811 812 854
f 812 813 855
f 813 814 857
f 814 815 859
f 815 816 859
f 816 817 859
f 817 818 860
f 818 819 860
f 819 820 861
f 820 821 861
f 821 822 861
f 822 823 863
f 823 824 863
f 824 825 864
f 825 826 865
f 826 827 865
f 827 828 866
f 828 829 867
f 829 830 869
f 830 831 870
f 831 832 871
f 832 833 871
f 833 834 871
f 834 835 873
f 835 836 874
f 836 837 874
f 837 838 874
f 838 839 875
f 839 790 876
f 795 841 840
f 797 842 841
f 798 843 842
f 799 844 843
f 802 845 844
f 803 846 845
f 804 847 846
f 805 848 847
f 806 849 848
f 806 850 849
f 809 851 850
f 809 852 851
f 810 853 852
f 811 854 853
f 812 855 854
f 813 856 855
f 813 857 856
f 814 858 857
f 814 859 858
f 817 860 859
f 819 861 860
f 822 862 861
f 822 863 862
f 824 864 863
f 825 865 864
f 827 866 865
f 828 867 866
f 829 869 868
f 829 868 867
f 830 870 869
f 831 871 870
f 834 872 871
f 834 873 872
f 835 874 873
f 838 875 874
f 839 876 875
f 593 930 877
f 877 930 878
f 878 932 879
f 879 932 880
f 881 934 882
f 880 934 881
f 882 936 883
f 883 936 888
f 884 888 938
f 884 939 885
f 885 940 887
f 886 887 941
f 886 942 889
f 791 889 943
f 792 791 944
f 792 944 876
f 635 930 743
f 436 929 910
f 436 744 929
f 635 890 930
f 437 930 890
f 437 891 931
f 438 931 891
f 438 892 931
f 892 893 932
f 893 894 933
f 894 895 933
f 895 896 934
f 896 897 934
f 897 898 935
f 898 899 935
f 899 900 936
f 900 901 936
f 901 902 937
f 439 937 902
f 439 903 937
f 440 938 903
f 440 904 938
f 441 939 904
f 441 905 939
f 442 940 905
f 442 906 940
f 443 941 906
f 443 907 941
f 437 931 930
f 892 932 931
f 893 933 932
f 895 934 933
f 897 935 934
f 899 936 935
f 901 937 936
f 903 938 937
f 938 904 939
f 905 940 939
f 906 941 940
f 907 942 941
f 444 944 909
f 445 942 907
f 445 908 942
f 446 943 908
f 446 909 943
f 444 916 944
f 942 908 943
f 909 944 943
f 910 947 911
f 911 949 912
f 912 952 913
f 913 954 914
f 914 958 915
f 915 980 923
f 916 917 962
f 917 918 964
f 918 919 968
f 919 920 969
f 920 921 971
f 921 926 973
f 922 975 928
f 923 977 924
f 924 978 925
f 922 925 982
f 927 987 926
f 927 928 990
f 944 916 960
f 593 743 930
f 742 992 744
f 744 992 929
f 878 930 931
f 878 931 932
f 880 932 933
f 880 933 934
f 882 934 935
f 882 935 936
f 888 936 937
f 888 937 938
f 884 938 939
f 885 939 940
f 887 940 941
f 886 941 942
f 889 942 943
f 791 943 944
f 944 960 876
f 960 1003 876
f 929 945 910
f 945 946 910
f 910 946 947
f 911 947 948
f 911 948 949
f 912 949 950
f 912 950 951
f 912 951 952
f 913 952 953
f 913 953 954
f 914 954 955
f 914 955 956
f 914 956 957
f 914 957 958
f 915 958 959
f 915 959 980
f 916 961 960
f 916 962 961
f 917 963 962
f 917 964 963
f 918 966 965
f 918 965 964
f 918 968 966
f 919 967 968
f 919 969 967
f 920 970 969
f 920 971 970
f 921 972 971
f 926 991 973
f 921 973 972
f 922 974 975
f 922 982 974
f 923 980 976
f 923 976 977
f 924 977 979
f 924 979 978
f 925 981 983
f 925 978 981
f 925 983 982
f 927 990 984
f 926 985 991
f 926 986 985
f 926 987 986
f 927 984 987
f 928 989 990
f 928 975 988
f 928 988 989
f 929 992 945
f 945 992 946
f 946 993 947
f 947 993 948
f 948 993 949
f 949 993 950
f 950 994 951
f 951 997 952
f 952 998 953
f 953 998 954
f 954 999 955
f 955 1001 956
f 956 1002 957
f 957 1002 958
f 958 1002 959
f 959 1002 980
f 960 961 1004
f 961 962 1005
f 962 963 1005
f 963 964 1006
f 965 966 1009
f 964 965 1007
f 968 967 1010
f 966 968 1011
f 967 969 1012
f 969 970 1014
f 970 971 1016
f 973 1017 972
f 971 972 1017
f 973 991 1017
f 974 982 1026
f 982 983 1026
f 974 1026 975
f 976 1021 977
f 977 1021 979
f 979 1021 978
f 976 980 1022
f 978 1023 981
f 983 981 1023
f 990 989 1025
f 986 1025 985
f 986 987 1025
f 984 990 1025
f 984 1025 987
f 975 1026 988
f 988 1026 989
f 991 985 1018
f 946 992 993
f 950 993 994
f 951 994 995
f 951 995 997
f 952 997 996
f 952 996 998
f 954 998 999
f 955 999 1000
f 955 1000 1001
f 956 1001 1002
f 980 1002 1022
f 960 1004 1003
f 961 1005 1004
f 963 1006 1005
f 964 1007 1006
f 965 1009 1008
f 965 1008 1007
f 966 1011 1009
f 968 1010 1011
f 967 1013 1010
f 967 1012 1013
f 969 1014 1012
f 970 1015 1014
f 970 1016 1015
f 971 1017 1016
f 991 1018 1017
f 983 1024 1026
f 976 1022 1019
f 976 1019 1021
f 978 1020 1023
f 978 1021 1020
f 983 1023 1024
f 989 1026 1025
f 985 1025 1018
f 1 362 2
f 16 362 15
f 17 362 16
f 17 18 362
f 19 362 18
f 13 362 3
f 3 362 4
f 4 362 1
f 14 362 13
f 14 15 362
f 21 362 20
f 21 22 362
f 19 20 362
f 22 23 362
f 24 362 23
f 24 25 362
f 26 362 25
f 26 27 362
f 27 28 362
f 6 5 362
f 2 362 5
f 9 7 362
f 6 362 7
f 10 9 362
f 10 362 11
f 12 11 362
f 29 8 362
f 8 12 362
f 32 31 362
f 32 362 33
f 30 29 362
f 30 362 31
f 33 362 34
f 34 362 35
f 35 362 36
f 36 362 37
f 37 362 38
f 38 362 39
f 161 28 118
f 124 152 123
f 124 125 152
f 125 126 152
f 126 127 152
f 119 161 118
f 119 120 161
f 158 120 121
f 122 158 121
f 122 123 158
f 137 138 139
f 130 148 129
f 148 130 131
f 132 148 131
f 132 133 148
f 143 134 135
f 136 142 135
f 133 134 147
f 137 141 136
f 137 139 141
f 128 152 127
f 128 129 152
f 141 142 136
f 135 142 143
f 143 144 134
f 141 139 140
f 145 134 144
f 145 146 134
f 147 148 133
f 134 146 147
f 129 148 149
f 129 149 150
f 151 129 150
f 129 151 152
f 153 123 152
f 153 154 123
f 155 123 154
f 123 155 156
f 157 123 156
f 123 157 158
f 158 159 120
f 159 160 120
f 120 160 161
f 28 161 349
f 39 362 233
f 233 362 234
f 235 234 362
f 236 235 362
f 237 236 362
f 237 362 238
f 239 238 362
f 240 239 362
f 240 362 241
f 242 241 362
f 242 362 243
f 243 362 244
f 244 362 245
f 245 362 246
f 246 362 247
f 247 362 248
f 248 362 249
f 249 362 250
f 250 362 251
f 251 362 252
f 253 252 362
f 253 362 254
f 255 254 362
f 256 255 362
f 257 256 362
f 257 362 258
f 259 258 362
f 259 362 260
f 260 362 261
f 261 362 262
f 262 362 263
f 264 263 362
f 264 362 265
f 265 362 266
f 28 349 350
f 28 350 351
f 28 351 352
f 28 352 353
f 28 353 354
f 28 354 355
f 28 356 357
f 28 355 356
f 28 357 358
f 28 358 359
f 28 359 360
f 28 361 381
f 28 360 361
f 28 381 378
f 28 378 379
f 28 379 380
f 28 380 382
f 28 382 383
f 28 383 386
f 28 363 362
f 28 364 363
f 28 365 364
f 28 366 365
f 28 368 367
f 28 370 368
f 28 367 366
f 28 376 375
f 28 377 376
f 28 386 385
f 28 385 384
f 28 384 377
f 28 372 369
f 28 369 370
f 28 371 372
f 28 373 371
f 28 374 373
f 28 375 374
f 557 550 547
f 557 548 546
f 547 551 559
f 557 547 548
f 559 554 560
f 553 561 558
f 553 558 560
f 553 564 563
f 553 562 561
f 553 563 562
f 553 566 564
f 553 565 566
f 549 551 550
f 551 552 559
f 547 550 551
f 555 559 552
f 554 559 555
f 556 560 554
f 553 560 556
f 568 565 580
f 568 580 567
f 578 565 553
f 578 579 565
f 580 565 579
f 572 580 581
f 567 580 569
f 571 570 580
f 569 580 570
f 571 580 572
f 572 583 573
f 574 573 583
f 574 583 575
f 576 585 577
f 576 575 585
f 572 581 582
f 572 582 583
f 584 575 583
f 585 575 584
f 577 585 699
f 699 585 840
f 699 876 700
f 701 876 702
f 701 700 876
f 702 876 703
f 704 703 876
f 704 876 705
f 706 876 707
f 706 705 876
f 707 876 708
f 708 876 709
f 710 876 711
f 710 709 876
f 711 876 712
f 712 876 713
f 713 876 714
f 716 715 876
f 714 876 715
f 716 876 717
f 717 876 718
f 718 876 719
f 720 719 876
f 720 876 721
f 721 876 722
f 722 876 723
f 724 723 876
f 724 876 725
f 726 725 876
f 727 726 876
f 727 876 728
f 729 728 876
f 729 876 730
f 730 876 731
f 731 876 732
f 732 876 733
f 735 733 876
f 734 735 876
f 734 876 736
f 736 876 737
f 738 737 876
f 738 876 739
f 740 739 876
f 740 876 741
f 699 840 841
f 699 841 842
f 699 842 843
f 699 843 844
f 699 844 845
f 699 845 846
f 699 846 847
f 699 847 848
f 699 848 849
f 699 849 850
f 699 850 851
f 699 852 853
f 699 851 852
f 699 853 854
f 699 854 855
f 699 855 856
f 699 856 857
f 699 857 858
f 699 858 859
f 699 859 860
f 699 860 861
f 699 861 862
f 699 862 863
f 699 863 864
f 699 864 865
f 699 865 866
f 699 866 867
f 699 867 868
f 699 869 870
f 699 868 869
f 699 870 871
f 699 871 872
f 699 872 873
f 699 873 874
f 699 874 875
f 699 875 876
f 741 876 992
f 876 993 992
f 876 994 993
f 876 995 994
f 876 997 995
f 876 996 997
f 876 1003 1004
f 876 1004 1005
f 876 1005 1006
f 876 1006 1007
f 876 1007 1008
f 876 1008 1009
f 876 1009 1011
f 876 998 996
f 876 999 998
f 876 1000 999
f 876 1002 1001
f 876 1001 1000
f 876 1020 1021
f 876 1019 1022
f 876 1022 1002
f 876 1021 1019
f 876 1017 1018
f 876 1013 1012
f 876 1014 1015
f 876 1012 1014
f 876 1011 1010
f 876 1010 1013
f 876 1016 1017
f 876 1015 1016
f 876 1018 1025
f 876 1025 1026
f 876 1026 1024
f 876 1024 1023
f 876 1023 1020