# https://github.com/mikedh/trimesh

o coacd_hull_00_oriented.ply
v -0.08997633 0.01058800 -0.00089827
v -0.08974156 0.01058434 -0.00136056
v -0.08993825 0.01056421 -0.00156905
v -0.09184813 0.01012507 -0.00086352
v -0.09035069 0.01050566 -0.00041936
v -0.09009689 0.01052762 -0.00024713
v -0.08995730 0.01039038 0.00149025
v -0.08948776 0.01047638 0.00044933
v -0.08469085 0.01027877 0.00124249
v -0.08204494 0.01017630 0.00156881
v -0.08156905 0.01017813 0.00131500
v -0.08105510 0.01018545 0.00091918
v -0.06770498 0.00976460 0.00063667
v -0.07212117 0.00984877 -0.00162042
v -0.08961466 0.01054042 -0.00169747
v -0.06521770 0.00966030 -0.00045562
v -0.06489410 0.00959443 -0.00120798
v -0.08980501 0.01051298 -0.00183192
v -0.09065525 0.01037391 -0.00179567
v -0.09160702 0.01009030 0.00104760
v -0.09137225 0.01019460 0.00031488
v -0.09063622 0.01040685 0.00011999
v -0.09299025 0.00959992 -0.00179264
v -0.09347883 0.00945354 -0.00167480
v -0.09246996 0.00991464 -0.00077590
v -0.09012227 0.01039038 0.00129990
v -0.09049663 0.01028792 0.00171385
v -0.08998902 0.01014153 0.00225168
v -0.08187996 0.01012689 0.00186039
v -0.08156271 0.01014885 0.00167910
v -0.05326350 0.00910039 0.00179392
v -0.06492582 0.00965298 0.00070919
v -0.07192448 0.00978839 -0.00181984
v -0.08802204 0.01030987 -0.00236069
v -0.06418979 0.00950477 -0.00152675
v -0.06876461 0.00968775 -0.00165970
v -0.05278128 0.00912967 -0.00021994
v -0.05191834 0.00908941 -0.00063691
v -0.06086495 0.00946635 -0.00070187
v -0.04412654 0.00873992 -0.00064295
v -0.08970983 0.00990549 -0.00320974
v -0.09089002 0.00995307 -0.00271875
v -0.09114383 0.01006102 -0.00228818
v -0.09324406 0.00918822 -0.00299068
v -0.09418948 0.00909124 -0.00229271
v -0.09217174 0.00986890 0.00122587
v -0.09145474 0.01003540 0.00169572
v -0.09083927 0.01023851 0.00142378
v -0.09300929 0.00968226 -0.00051151
v -0.09392299 0.00924860 -0.00121704
v -0.09179737 0.00983596 0.00219729
v -0.09069967 0.00975545 0.00284541
v -0.08775554 0.00987804 0.00277592
v -0.08420862 0.00955783 0.00325634
v -0.06465933 0.00916077 0.00265354
v -0.06906918 0.00944439 0.00237254
v -0.05573175 0.00913699 0.00197672
v -0.05174702 0.00892290 0.00210967
v -0.04696281 0.00871431 0.00208701
v -0.03839691 0.00826235 0.00227132
v -0.03873319 0.00840324 0.00178334
v -0.05071276 0.00901073 0.00156579
v -0.04566206 0.00882226 0.00074998
v -0.04605545 0.00884422 0.00052487
v -0.07498282 0.00977375 -0.00233803
v -0.08541419 0.00962737 -0.00351492
v -0.05118231 0.00895584 -0.00118985
v -0.04727371 0.00868869 -0.00147689
v -0.04559226 0.00882043 -0.00008246
v -0.04056693 0.00856061 0.00019855
v -0.03524338 0.00825320 0.00039797
v -0.03635378 0.00823857 -0.00060820
v -0.03396167 0.00803180 -0.00088165
v -0.03396167 0.00795495 -0.00117776
v -0.08959562 0.00976826 -0.00340463
v -0.09106134 0.00911869 -0.00410563
v -0.09151185 0.00941694 -0.00354967
v -0.08759056 0.00951941 -0.00382916
v -0.08830756 0.00945171 -0.00393189
v -0.09312984 0.00908026 -0.00337593
v -0.09144840 0.00979753 -0.00273687
v -0.09370092 0.00910954 -0.00275802
v -0.09427197 0.00893388 -0.00254652
v -0.09480496 0.00838861 -0.00301788
v -0.09502070 0.00828431 -0.00290608
v -0.09449404 0.00892473 -0.00216580
v -0.09219712 0.00977741 0.00172291
v -0.09250802 0.00970239 0.00141623
v -0.09373264 0.00915711 0.00134069
v -0.09427197 0.00898877 0.00051279
v -0.09220980 0.00966762 0.00221995
v -0.09207655 0.00963285 0.00246772
v -0.09288239 0.00900890 0.00308562
v -0.09124535 0.00918273 0.00346785
v -0.08946237 0.00894669 0.00414165
v -0.08904360 0.00899426 0.00412050
v -0.08739386 0.00962919 0.00317778
v -0.08419593 0.00929984 0.00365820
v -0.05205794 0.00839959 0.00312037
v -0.05274320 0.00856975 0.00289376
v -0.05611880 0.00882592 0.00268678
v -0.05571272 0.00893388 0.00242995
v -0.05094754 0.00881860 0.00228190
v -0.03640454 0.00796959 0.00269433
v -0.03396167 0.00795861 0.00239218
v -0.03617612 0.00815988 0.00220787
v -0.04336513 0.00836299 0.00256441
v -0.03656951 0.00826052 0.00182111
v -0.03598576 0.00825320 0.00165946
v -0.03812406 0.00840690 0.00133011
v -0.04135372 0.00857158 0.00137392
v -0.04086515 0.00857158 0.00062307
v -0.07491937 0.00956881 -0.00274292
v -0.04781940 0.00855329 -0.00193768
v -0.04754656 0.00842886 -0.00220508
v -0.07506531 0.00933460 -0.00316140
v -0.08417055 0.00953405 -0.00357082
v -0.08453856 0.00943341 -0.00376268
v -0.03396167 0.00794031 -0.00122157
v -0.04423441 0.00844167 -0.00164006
v -0.03396167 0.00817086 0.00107328
v -0.03396167 0.00815988 0.00056415
v -0.03396167 0.00813793 0.00014114
v -0.03396167 0.00810133 -0.00039367
v -0.03396167 0.00807205 -0.00060820
v -0.09156895 0.00894486 -0.00425066
v -0.08793955 0.00913699 -0.00435037
v -0.08987480 0.00882409 -0.00456792
v -0.09279990 0.00910222 -0.00349679
v -0.08503348 0.00928337 -0.00401196
v -0.08743194 0.00920103 -0.00427786
v -0.09354228 0.00816354 -0.00451051
v -0.09415776 0.00798789 -0.00427181
v -0.09422755 0.00826967 -0.00374758
v -0.09358035 0.00903269 -0.00302996
v -0.09463999 0.00790554 -0.00393491
v -0.09536333 0.00764206 -0.00356478
v -0.09564885 0.00759997 -0.00328982
v -0.09540774 0.00818550 -0.00222926
v -0.09474151 0.00873260 -0.00206458
v -0.09522374 0.00833371 -0.00003260
v -0.09501435 0.00843801 0.00135277
v -0.09266666 0.00953588 0.00195255
v -0.09370725 0.00904367 0.00196615
v -0.09273010 0.00940596 0.00232269
v -0.09328213 0.00901439 0.00266261
v -0.09391664 0.00866124 0.00263541
v -0.09328848 0.00878750 0.00305390
v -0.09368822 0.00830627 0.00342555
v -0.09394202 0.00783967 0.00390597
v -0.09363112 0.00800618 0.00389842
v -0.09364380 0.00765487 0.00433503
v -0.09154992 0.00870882 0.00396187
v -0.08918953 0.00863929 0.00448308
v -0.08878979 0.00867588 0.00449970
v -0.09061083 0.00809584 0.00472934
v -0.08851060 0.00883873 0.00432294
v -0.03497689 0.00684976 0.00431539
v -0.03467232 0.00710776 0.00400115
v -0.05501475 0.00807572 0.00377755
v -0.03474212 0.00736576 0.00363554
v -0.04304153 0.00809584 0.00300253
v -0.05225463 0.00871065 0.00260973
v -0.03884741 0.00790920 0.00301462
v -0.03396167 0.00762742 0.00310829
v -0.03449466 0.00771159 0.00299951
v -0.03396167 0.00779942 0.00275628
v -0.03396167 0.00807754 0.00191327
v -0.03441217 0.00803546 0.00225470
v -0.03396167 0.00813610 0.00154917
v -0.03396167 0.00816720 0.00116242
v -0.04396157 0.00833554 -0.00186667
v -0.03599211 0.00779759 -0.00185156
v -0.03396167 0.00727427 -0.00258580
v -0.04767346 0.00802631 -0.00283205
v -0.07516049 0.00913516 -0.00350585
v -0.08373273 0.00915711 -0.00410865
v -0.03396167 0.00770427 -0.00172164
v -0.09082022 0.00834286 -0.00498943
v -0.09202580 0.00790920 -0.00523266
v -0.09268568 0.00796776 -0.00501058
v -0.09343441 0.00791652 -0.00486252
v -0.08731773 0.00889728 -0.00458908
v -0.08994460 0.00786895 -0.00554388
v -0.08991922 0.00817635 -0.00524777
v -0.08597891 0.00884788 -0.00458152
v -0.09394202 0.00783784 -0.00466763
v -0.09429100 0.00783052 -0.00438512
v -0.09538871 0.00736027 -0.00391829
v -0.09557271 0.00747921 -0.00355269
v -0.09582652 0.00750482 -0.00287586
v -0.09575038 0.00739321 -0.00334118
v -0.09719072 0.00523041 -0.00295291
v -0.09743184 0.00506024 -0.00249666
v -0.09608667 0.00757984 -0.00144819
v -0.09568693 0.00792750 -0.00046317
v -0.09536968 0.00820197 0.00051279
v -0.09548388 0.00809767 0.00097206
v -0.09506512 0.00815622 0.00200996
v -0.09434812 0.00851303 0.00242844
v -0.09446232 0.00860086 0.00193291
v -0.09543312 0.00805742 0.00147363
v -0.09438618 0.00814342 0.00301462
v -0.09432907 0.00786346 0.00348749
v -0.09423390 0.00755789 0.00401928
v -0.09399278 0.00742065 0.00439546
v -0.09361207 0.00715168 0.00481092
v -0.09174027 0.00747372 0.00503602
v -0.09115653 0.00787627 0.00480790
v -0.09056008 0.00769695 0.00510703
v -0.08910070 0.00830993 0.00480790
v -0.08876441 0.00824588 0.00487588
v -0.08687991 0.00803729 0.00500581
v -0.03972303 0.00683330 0.00451783
v -0.03568754 0.00651309 0.00466589
v -0.03480557 0.00628070 0.00478070
v -0.03396167 0.00665581 0.00436071
v -0.03396167 0.00705470 0.00393770
v -0.03396167 0.00735844 0.00356454
v -0.03396167 0.00738223 0.00353130
v -0.03396167 0.00716083 -0.00274443
v -0.03396167 0.00695955 -0.00300428
v -0.03993877 0.00689734 -0.00354967
v -0.05604266 0.00805193 -0.00344845
v -0.05558581 0.00822576 -0.00320068
v -0.08328223 0.00890094 -0.00436095
v -0.09087734 0.00780125 -0.00550158
v -0.09042683 0.00816720 -0.00520547
v -0.09227960 0.00772806 -0.00535201
v -0.09315524 0.00772623 -0.00509820
v -0.09288239 0.00701627 -0.00573575
v -0.09370725 0.00757070 -0.00503022
v -0.08457664 0.00818733 -0.00516166
v -0.08629616 0.00820563 -0.00520396
v -0.08755249 0.00812146 -0.00530518
v -0.08913243 0.00740053 -0.00589438
v -0.09002075 0.00720840 -0.00598653
v -0.09066795 0.00767133 -0.00564057
v -0.08689260 0.00804095 -0.00536561
v -0.08719717 0.00762925 -0.00571006
v -0.08264773 0.00865575 -0.00457095
v -0.08361217 0.00823124 -0.00506043
v -0.09420218 0.00729989 -0.00495317
v -0.09507145 0.00712240 -0.00441685
v -0.09487475 0.00658445 -0.00503777
v -0.09555368 0.00700347 -0.00404067
v -0.09674656 0.00506207 -0.00410261
v -0.09616281 0.00719376 -0.00233350
v -0.09635316 0.00709861 -0.00178660
v -0.09692423 0.00512245 -0.00368564
v -0.09712727 0.00509135 -0.00330190
v -0.09736839 0.00488275 -0.00301486
v -0.09799655 0.00377391 -0.00273083
v -0.09767295 0.00453876 -0.00254501
v -0.09792040 0.00409229 -0.00224890
v -0.09740011 0.00524871 -0.00188933
v -0.09618819 0.00744993 -0.00031511
v -0.09634048 0.00722487 -0.00046619
v -0.09564251 0.00786346 0.00132860
v -0.09500165 0.00791286 0.00257649
v -0.09571230 0.00757619 0.00190874
v -0.09611839 0.00708764 0.00196463
v -0.09479228 0.00778112 0.00307807
v -0.09479228 0.00736027 0.00363705
v -0.09456384 0.00718278 0.00411143
v -0.09404989 0.00715168 0.00460999
v -0.09366283 0.00650577 0.00525055
v -0.09340903 0.00681683 0.00514178
v -0.09281260 0.00678938 0.00532156
v -0.09100424 0.00733283 0.00530494
v -0.08914511 0.00775367 0.00527775
v -0.03568120 0.00595866 0.00509343
v -0.03396167 0.00511514 0.00554364
v -0.03396167 0.00611968 0.00480941
v -0.03396167 0.00615994 -0.00377779
v -0.03419009 0.00690832 -0.00307982
v -0.03398070 0.00591475 -0.00399988
v -0.07860589 0.00783967 -0.00510878
v -0.07910080 0.00822393 -0.00478547
v -0.09318696 0.00602454 -0.00621919
v -0.09404989 0.00624228 -0.00576445
v -0.09038241 0.00674181 -0.00625998
v -0.09054103 0.00609956 -0.00663314
v -0.09410699 0.00695772 -0.00526590
v -0.08249544 0.00756521 -0.00556805
v -0.08943699 0.00628985 -0.00655458
v -0.08992557 0.00627521 -0.00655156
v -0.08498272 0.00731819 -0.00585812
v -0.09488745 0.00611053 -0.00531122
v -0.09519836 0.00564394 -0.00538072
v -0.09537601 0.00565858 -0.00522360
v -0.09453212 0.00647283 -0.00532180
v -0.09641027 0.00454242 -0.00499547
v -0.09672117 0.00467050 -0.00449088
v -0.09708920 0.00416914 -0.00434282
v -0.09750797 0.00388370 -0.00377779
v -0.09807904 0.00343540 -0.00299522
v -0.09829478 0.00290660 -0.00275047
v -0.09812346 0.00345553 -0.00253594
v -0.09804730 0.00373731 -0.00226098
v -0.09784427 0.00433931 -0.00169747
v -0.09837726 0.00313898 -0.00069885
v -0.09798387 0.00405936 -0.00123970
v -0.09785697 0.00435944 -0.00122913
v -0.09721610 0.00567688 -0.00022900
v -0.09606764 0.00728342 0.00136184
v -0.09704478 0.00596781 0.00094789
v -0.09684809 0.00620202 0.00142529
v -0.09639758 0.00675645 0.00174557
v -0.09703843 0.00599343 0.00007466
v -0.09587094 0.00715534 0.00235592
v -0.09589632 0.00680951 0.00287261
v -0.09671484 0.00607943 0.00225168
v -0.09638490 0.00644355 0.00248434
v -0.09503338 0.00747555 0.00316569
v -0.09549023 0.00701078 0.00316267
v -0.09469074 0.00667228 0.00434862
v -0.09554733 0.00659177 0.00350864
v -0.09592170 0.00588364 0.00369899
v -0.09474151 0.00630449 0.00455409
v -0.09444329 0.00641794 0.00474596
v -0.09367552 0.00592573 0.00547566
v -0.09312984 0.00559637 0.00584580
v -0.09246996 0.00572262 0.00602256
v -0.09235574 0.00640330 0.00569925
v -0.09479228 0.00534935 0.00506624
v -0.09444329 0.00505475 0.00543638
v -0.09391031 0.00512063 0.00569170
v -0.09191158 0.00645087 0.00576270
v -0.09082022 0.00690466 0.00563882
v -0.08953217 0.00739321 0.00546357
v -0.08924030 0.00727610 0.00552098
v -0.08637865 0.00721206 0.00551343
v -0.03550353 0.00509684 0.00564637
v -0.03583348 0.00548841 0.00541372
v -0.03517993 0.00559820 0.00530192
v -0.03396167 0.00490837 0.00565091
v -0.03396167 0.00593671 -0.00397721
v -0.03396167 0.00590560 -0.00400441
v -0.03396167 0.00588181 -0.00402103
v -0.03396167 0.00550305 -0.00427937
v -0.03494516 0.00578300 -0.00414944
v -0.08190534 0.00723219 -0.00577654
v -0.09243824 0.00451497 -0.00700630
v -0.09363112 0.00491386 -0.00654401
v -0.09404989 0.00474003 -0.00649868
v -0.09168951 0.00565675 -0.00665429
v -0.09193696 0.00477846 -0.00700933
v -0.09487475 0.00390565 -0.00648056
v -0.09537601 0.00424782 -0.00604092
v -0.08985578 0.00592024 -0.00672077
v -0.09057277 0.00538777 -0.00693983
v -0.09114383 0.00532190 -0.00689451
v -0.08495100 0.00687538 -0.00611193
v -0.08611850 0.00661555 -0.00627962
v -0.07991298 0.00330366 -0.00760608
v -0.07989395 0.00308957 -0.00769975
v -0.09562348 0.00479675 -0.00555143
v -0.09586459 0.00441067 -0.00558316
v -0.09584555 0.00508220 -0.00516770
v -0.09631510 0.00369523 -0.00558769
v -0.09663235 0.00301638 -0.00561791
v -0.09672752 0.00402459 -0.00492598
v -0.09826304 0.00245464 -0.00356024
v -0.09813614 0.00278034 -0.00352852
v -0.09691153 0.00340247 -0.00501964
v -0.09819324 0.00298162 -0.00316291
v -0.09832649 0.00254613 -0.00324298
v -0.09846608 0.00215273 -0.00304960
v -0.09833919 0.00324876 -0.00042540
v -0.09877700 0.00129090 -0.00130316
v -0.09700036 0.00572994 0.00171989
v -0.09763488 0.00454059 0.00093429
v -0.09753336 0.00438871 0.00190269
v -0.09608667 0.00611419 0.00325483
v -0.09676559 0.00568237 0.00263239
v -0.09637855 0.00542986 0.00339986
v -0.09606764 0.00527799 0.00394072
v -0.09549023 0.00443263 0.00498164
v -0.09340903 0.00460463 0.00605730
v -0.09273645 0.00533654 0.00607845
v -0.09226057 0.00533288 0.00618421
v -0.09193696 0.00559454 0.00614493
v -0.09211463 0.00602819 0.00596364
v -0.09486841 0.00484433 0.00524300
v -0.09569328 0.00394591 0.00506020
v -0.09439887 0.00437042 0.00574004
v -0.09132783 0.00645819 0.00581860
v -0.09086464 0.00612151 0.00601802
v -0.09013496 0.00669057 0.00579443
v -0.08268580 0.00619105 0.00592436
v -0.03421547 0.00414719 0.00596968
v -0.03396167 0.00430272 0.00590623
v -0.03396167 0.00474003 0.00573249
v -0.08014774 0.00332013 0.00708614
v -0.07984318 0.00272545 0.00730066
v -0.03396167 0.00489556 -0.00463742
v -0.04154408 0.00545364 -0.00471296
v -0.03396167 0.00482054 -0.00467670
v -0.09247631 0.00407216 -0.00715285
v -0.09355497 0.00404106 -0.00688091
v -0.09196235 0.00422403 -0.00722688
v -0.09391031 0.00384527 -0.00684163
v -0.09483668 0.00261383 -0.00676156
v -0.09540774 0.00333842 -0.00637631
v -0.09533794 0.00378672 -0.00628718
v -0.09421487 0.00312800 -0.00689451
v -0.09568058 0.00381416 -0.00605150
v -0.09140398 0.00422403 -0.00725709
v -0.08266041 0.00647466 -0.00620258
v -0.03479923 0.00436676 -0.00492295
v -0.07979877 0.00248392 -0.00782967
v -0.03471039 0.00334574 -0.00529158
v -0.03470405 0.00286451 -0.00542151
v -0.03396167 0.00280047 -0.00540036
v -0.09628336 0.00312800 -0.00586718
v -0.09659427 0.00263030 -0.00576143
v -0.09680367 0.00277119 -0.00550913
v -0.09738742 0.00242719 -0.00478547
v -0.09778082 0.00200086 -0.00430354
v -0.09828843 0.00186179 -0.00360557
v -0.09840263 0.00215273 -0.00337895
v -0.09852320 0.00181422 -0.00299975
v -0.09838995 0.00293404 -0.00034080
v -0.09796482 0.00227532 0.00258858
v -0.09784427 0.00297979 0.00242391
v -0.09785062 0.00355434 0.00164284
v -0.09800290 0.00367327 0.00069861
v -0.09875795 0.00103473 -0.00179264
v -0.09877065 0.00085908 -0.00133186
v -0.09871989 0.00125065 -0.00083935
v -0.09773006 0.00403008 0.00156730
v -0.09767295 0.00376476 0.00219125
v -0.09700671 0.00515539 0.00256592
v -0.09687346 0.00503280 0.00297383
v -0.09663869 0.00470527 0.00352979
v -0.09702575 0.00332378 0.00382590
v -0.09616916 0.00444361 0.00425496
v -0.09312984 0.00394408 0.00627788
v -0.09264761 0.00456620 0.00628392
v -0.09388492 0.00400263 0.00604068
v -0.09384684 0.00312617 0.00623557
v -0.09238747 0.00390199 0.00644708
v -0.09188621 0.00508220 0.00626579
v -0.09023647 0.00591475 0.00609960
v -0.07984953 0.00223324 0.00743059
v -0.09599784 0.00409046 0.00463416
v -0.09674022 0.00235217 0.00457675
v -0.09644200 0.00210698 0.00494387
v -0.09606764 0.00195145 0.00525962
v -0.09524912 0.00307311 0.00559048
v -0.09517297 0.00400080 0.00537897
v -0.09455115 0.00340430 0.00587450
v -0.03497689 0.00396421 0.00604522
v -0.03452004 0.00354519 0.00617665
v -0.03396167 0.00411425 0.00597270
v -0.03396167 0.00438871 -0.00484893
v -0.09229864 0.00375744 -0.00727069
v -0.09248264 0.00335489 -0.00732356
v -0.09337731 0.00349761 -0.00707580
v -0.09215270 0.00342076 -0.00734169
v -0.09351690 0.00252966 -0.00725558
v -0.09440522 0.00237962 -0.00696551
v -0.09471613 0.00207222 -0.00689904
v -0.09605494 0.00249307 -0.00616329
v -0.09582017 0.00311336 -0.00618293
v -0.08066170 0.00231375 -0.00784478
v -0.03396167 0.00397884 -0.00501058
v -0.07960841 0.00204843 -0.00786744
v -0.08009698 0.00171541 -0.00792183
v -0.08047135 0.00179958 -0.00791881
v -0.03396167 0.00251685 -0.00544266
v -0.03396167 0.00033027 -0.00570553
v -0.03396167 0.00326340 -0.00525532
v -0.03396167 0.00298345 -0.00534899
v -0.09641662 0.00237230 -0.00594726
v -0.09678464 0.00249124 -0.00557863
v -0.09728590 0.00089567 -0.00504079
v -0.09762219 0.00084810 -0.00459361
v -0.09778082 0.00100363 -0.00436095
v -0.09777448 0.00076210 -0.00430807
v -0.09794579 0.00085359 -0.00397419
v -0.09863105 0.00091214 -0.00225645
v -0.09847243 0.00141350 0.00058228
v -0.09783158 0.00220030 0.00299800
v -0.09778082 0.00255894 0.00293153
v -0.09814884 0.00136226 0.00226377
v -0.09806000 0.00103473 0.00263844
v -0.09759046 0.00329817 0.00280160
v -0.09870085 0.00076759 -0.00184250
v -0.09872624 0.00084261 -0.00099496
v -0.09746356 -0.00272729 -0.00143912
v -0.09798387 -0.00146657 -0.00039367
v -0.09869452 0.00063767 -0.00121100
v -0.09812979 -0.00083896 0.00017589
v -0.09798387 -0.00113721 0.00076357
v -0.09783792 -0.00132385 0.00163226
v -0.09816787 0.00092861 0.00224110
v -0.09719707 0.00421489 0.00294361
v -0.09719707 0.00364400 0.00336058
v -0.09696865 0.00414352 0.00342404
v -0.09741914 0.00276570 0.00342857
v -0.09756508 0.00233936 0.00336209
v -0.09729224 0.00166418 0.00401323
v -0.09292680 0.00318655 0.00643046
v -0.09494455 0.00250221 0.00586392
v -0.09409431 0.00272545 0.00619176
v -0.09448771 0.00179775 0.00615852
v -0.09404355 0.00168248 0.00633377
v -0.09333923 0.00192950 0.00647579
v -0.09299025 0.00241622 0.00650147
v -0.09215270 0.00314813 0.00654981
v -0.08040155 0.00214907 0.00742153
v -0.08014774 0.00174652 0.00747591
v -0.03466598 0.00242171 0.00634284
v -0.03429796 0.00305298 0.00628392
v -0.09681001 0.00142082 0.00467797
v -0.09611839 0.00147388 0.00531249
v -0.09567425 0.00185996 0.00554515
v -0.09519836 0.00193681 0.00583975
v -0.03396167 0.00347017 0.00616608
v -0.03396167 0.00357629 0.00613737
v -0.09270473 0.00172273 -0.00748975
v -0.09330116 0.00239426 -0.00732961
v -0.09294584 0.00293953 -0.00730695
v -0.09229229 0.00061755 -0.00763478
v -0.09357400 0.00085176 -0.00739910
v -0.09398644 0.00138422 -0.00722688
v -0.09455749 0.00158550 -0.00703652
v -0.09595342 0.00205026 -0.00625998
v -0.07981146 0.00133299 -0.00794600
v -0.09198773 -0.00012168 -0.00771032
v -0.03396167 -0.00009058 -0.00574481
v -0.09604226 0.00120124 -0.00623128
v -0.09634683 0.00102559 -0.00602581
v -0.09677194 0.00120307 -0.00560582
v -0.09664504 0.00054069 -0.00565870
v -0.09638490 -0.00046934 -0.00575841
v -0.09664504 -0.00055717 -0.00545021
v -0.09709555 -0.00059194 -0.00480965
v -0.09700671 -0.00135130 -0.00464346
v -0.09729224 -0.00163857 -0.00386844
v -0.09746356 -0.00157453 -0.00342125
v -0.09730493 -0.00214359 -0.00332154
v -0.09751432 0.00126529 0.00364007
v -0.09804097 0.00056814 0.00252664
v -0.09793945 0.00068342 0.00281066
v -0.09756508 -0.00179776 -0.00276105
v -0.09728590 -0.00274741 -0.00249817
v -0.09748259 -0.00251320 -0.00188782
v -0.09771737 -0.00198074 -0.00160984
v -0.09861837 0.00066512 -0.00052662
v -0.09814884 0.00038333 0.00200089
v -0.09733032 -0.00303469 -0.00149653
v -0.09763488 -0.00239061 -0.00045259
v -0.09757143 -0.00247295 0.00020761
v -0.09783158 -0.00178129 0.00024991
v -0.09776178 -0.00187644 0.00082098
v -0.09759681 -0.00200086 0.00156579
v -0.09761584 -0.00173921 0.00194499
v -0.09797117 -0.00046934 0.00209154
v -0.09701940 0.00108231 0.00435165
v -0.09454480 0.00104937 0.00614795
v -0.09516029 0.00136226 0.00588659
v -0.09397374 0.00081882 0.00633075
v -0.09332021 0.00106218 0.00650751
v -0.09267935 0.00160196 0.00658456
v -0.09210195 0.00154341 0.00666161
v -0.08011602 0.00122869 0.00748800
v -0.07955131 0.00161111 0.00747138
v -0.08043963 0.00150682 0.00747138
v -0.03396167 0.00080967 0.00643348
v -0.03396167 0.00294319 0.00628090
v -0.09654352 0.00090848 0.00484416
v -0.09621358 0.00050959 0.00510401
v -0.09554099 0.00106950 0.00564486
v -0.09567425 0.00151597 0.00558292
v -0.09283163 0.00113720 -0.00751392
v -0.09306005 0.00049312 -0.00752601
v -0.09331386 0.00160196 -0.00739457
v -0.09367552 0.00041810 -0.00736133
v -0.09384684 0.00077674 -0.00730392
v -0.09283797 -0.00051143 -0.00759550
v -0.09383416 -0.00058828 -0.00729788
v -0.09484938 0.00074746 -0.00689451
v -0.09503973 0.00128358 -0.00679782
v -0.08019851 0.00086273 -0.00792636
v -0.09209560 -0.00063402 -0.00770126
v -0.03396167 -0.00050777 -0.00576747
v -0.03396167 -0.00094874 -0.00576747
v -0.03396167 -0.00107866 -0.00576596
v -0.03434237 -0.00136776 -0.00576747
v -0.03396167 -0.00166602 -0.00572970
v -0.09566790 0.00029002 -0.00645034
v -0.09585190 -0.00062670 -0.00622675
v -0.09594074 -0.00123968 -0.00603337
v -0.09621991 -0.00103291 -0.00578107
v -0.09604859 -0.00195512 -0.00563151
v -0.09656255 -0.00125249 -0.00527799
v -0.09627701 -0.00252418 -0.00500907
v -0.09654987 -0.00279499 -0.00448181
v -0.09685443 -0.00229363 -0.00431714
v -0.09698768 -0.00267605 -0.00370981
v -0.09700671 -0.00292307 -0.00331248
v -0.09759681 0.00000640 0.00326994
v -0.09791405 0.00019670 0.00265354
v -0.09678464 -0.00337137 -0.00326111
v -0.09720975 -0.00306031 -0.00209178
v -0.09741914 -0.00281329 -0.00023051
v -0.09705748 -0.00350860 -0.00167027
v -0.09707016 -0.00352324 -0.00124575
v -0.09722880 -0.00313350 0.00026200
v -0.09722880 -0.00283524 0.00141169
v -0.09743817 -0.00212895 0.00195255
v -0.09767295 -0.00058096 0.00282879
v -0.09780620 -0.00097436 0.00210665
v -0.09725417 -0.00200636 0.00253268
v -0.09743184 -0.00132202 0.00275174
v -0.09656255 -0.00148121 0.00416431
v -0.09719072 -0.00052424 0.00364914
v -0.09450039 0.00013265 0.00606335
v -0.09406893 -0.00040164 0.00618119
v -0.09501435 0.00008874 0.00580954
v -0.09380242 0.00030465 0.00633528
v -0.09306639 0.00007776 0.00651658
v -0.09286970 0.00060108 0.00656945
v -0.09215270 0.00109146 0.00664801
v -0.09108673 -0.00003020 0.00669787
v -0.08003988 0.00062852 0.00744268
v -0.03396167 -0.00147938 0.00637456
v -0.03396167 -0.00084262 0.00641535
v -0.03396167 -0.00019305 0.00643499
v -0.09554099 -0.00181972 0.00497257
v -0.09567425 -0.00090666 0.00513120
v -0.09498262 -0.00217286 0.00531703
v -0.09520470 -0.00120491 0.00540465
v -0.09554099 -0.00028636 0.00538652
v -0.09550926 0.00026623 0.00553307
v -0.09247631 -0.00096155 -0.00763780
v -0.09284432 -0.00105670 -0.00757737
v -0.09406893 -0.00107500 -0.00715436
v -0.09457019 -0.00077857 -0.00696098
v -0.09415141 -0.00019854 -0.00717098
v -0.09532526 -0.00005398 -0.00661653
v -0.08778092 -0.00216006 -0.00752601
v -0.08936720 -0.00181972 -0.00765442
v -0.09020475 -0.00183619 -0.00766198
v -0.09084561 -0.00125798 -0.00769824
v -0.03396167 -0.00173555 -0.00572366
v -0.03491344 -0.00188925 -0.00573877
v -0.03432334 -0.00233022 -0.00563151
v -0.09146108 -0.00125981 -0.00768464
v -0.09203215 -0.00111891 -0.00767255
v -0.09522374 -0.00114270 -0.00658480
v -0.09550926 -0.00188193 -0.00619502
v -0.09550926 -0.00251869 -0.00592308
v -0.09545216 -0.00286635 -0.00583093
v -0.09577575 -0.00270167 -0.00557561
v -0.09627701 -0.00323780 -0.00457246
v -0.09613743 -0.00366230 -0.00449390
v -0.09674656 -0.00284988 -0.00410714
v -0.09675291 -0.00321950 -0.00367053
v -0.09731762 -0.00096155 0.00326994
v -0.09689884 -0.00127627 0.00376698
v -0.09642296 -0.00366047 -0.00385484
v -0.09605494 -0.00406485 -0.00422347
v -0.09554733 -0.00500170 -0.00366751
v -0.09587094 -0.00481506 -0.00287133
v -0.09689884 -0.00377026 -0.00146632
v -0.09627701 -0.00459732 -0.00074568
v -0.09593439 -0.00497791 0.00033452
v -0.09602322 -0.00477481 0.00104458
v -0.09626433 -0.00430455 0.00159752
v -0.09631510 -0.00402643 0.00215197
v -0.09668311 -0.00346286 0.00207190
v -0.09707016 -0.00257176 0.00231362
v -0.09707016 -0.00165138 0.00322310
v -0.09654987 -0.00310788 0.00283484
v -0.09686077 -0.00231376 0.00301009
v -0.09661967 -0.00191670 0.00380475
v -0.09620723 -0.00229912 0.00405251
v -0.09581384 -0.00228448 0.00452236
v -0.09456384 -0.00192767 0.00562976
v -0.09395471 -0.00256993 0.00577177
v -0.09369457 -0.00200452 0.00599989
v -0.09335826 -0.00072185 0.00635190
v -0.09277453 -0.00101096 0.00647276
v -0.09249534 -0.00017109 0.00658154
v -0.09202580 -0.00116649 0.00654377
v -0.09160067 -0.00166236 0.00651506
v -0.09081388 -0.00208138 0.00649392
v -0.08031906 0.00015827 0.00735656
v -0.07951958 0.00007776 0.00733692
v -0.03396167 -0.00243818 0.00623557
v -0.09470344 -0.00347932 0.00503451
v -0.09452577 -0.00257176 0.00547113
v -0.09251437 -0.00125981 -0.00759097
v -0.09307274 -0.00266873 -0.00707429
v -0.09344076 -0.00248942 -0.00704558
v -0.09457654 -0.00159466 -0.00682652
v -0.09374532 -0.00200086 -0.00705314
v -0.08824411 -0.00239061 -0.00748824
v -0.08839005 -0.00303286 -0.00733565
v -0.08984308 -0.00257176 -0.00748068
v -0.09074408 -0.00249857 -0.00751694
v -0.09106134 -0.00206674 -0.00762270
v -0.03396167 -0.00223691 -0.00563604
v -0.03396167 -0.00282609 -0.00546532
v -0.03439948 -0.00280231 -0.00549856
v -0.03518628 -0.00266324 -0.00557107
v -0.04227377 -0.00277852 -0.00579467
v -0.08774919 -0.00281146 -0.00737191
v -0.09490013 -0.00207772 -0.00650020
v -0.09543312 -0.00319571 -0.00564963
v -0.09504607 -0.00274193 -0.00612855
v -0.09508415 -0.00319571 -0.00588229
v -0.09592804 -0.00361656 -0.00479152
v -0.09592804 -0.00319022 -0.00506648
v -0.09577575 -0.00422770 -0.00444857
v -0.09566790 -0.00454059 -0.00422800
v -0.09570596 -0.00515906 -0.00230479
v -0.09547754 -0.00473272 -0.00422347
v -0.09522374 -0.00526885 -0.00368413
v -0.09496358 -0.00564029 -0.00334873
v -0.09536333 -0.00535119 -0.00299824
v -0.09583920 -0.00509136 -0.00056590
v -0.09551561 -0.00539876 0.00022574
v -0.09560445 -0.00522676 0.00126213
v -0.09560445 -0.00513710 0.00173953
v -0.09598514 -0.00460830 0.00192082
v -0.09636585 -0.00371903 0.00254628
v -0.09564885 -0.00486081 0.00237707
v -0.09616916 -0.00359643 0.00308109
v -0.09555368 -0.00374281 0.00383194
v -0.09483033 -0.00380320 0.00466286
v -0.09434812 -0.00295052 0.00542278
v -0.09448136 -0.00359094 0.00508437
v -0.09377706 -0.00332014 0.00548472
v -0.09290777 -0.00372634 0.00560256
v -0.09333290 -0.00290295 0.00583069
v -0.09277453 -0.00288831 0.00602256
v -0.09333923 -0.00244367 0.00599234
v -0.09309177 -0.00176299 0.00623557
v -0.09271741 -0.00229546 0.00619025
v -0.09221615 -0.00280963 0.00614493
v -0.09163874 -0.00275290 0.00624464
v -0.09083927 -0.00270350 0.00635643
v -0.09025551 -0.00251137 0.00642291
v -0.07988760 -0.00032662 0.00722664
v -0.08929105 -0.00325609 0.00629147
v -0.03396167 -0.00283707 0.00614040
v -0.03396167 -0.00259920 0.00620385
v -0.09460191 -0.00444362 0.00447402
v -0.09148012 -0.00248758 -0.00742932
v -0.09316157 -0.00339882 -0.00680386
v -0.09212098 -0.00323596 -0.00706975
v -0.09351690 -0.00310971 -0.00678875
v -0.09387222 -0.00261567 -0.00681292
v -0.09424658 -0.00238329 -0.00672832
v -0.08345355 -0.00398983 -0.00680990
v -0.08886594 -0.00381783 -0.00704860
v -0.08962101 -0.00373915 -0.00708788
v -0.04131565 -0.00306945 -0.00567078
v -0.04183596 -0.00321950 -0.00564057
v -0.09099154 -0.00417464 -0.00682954
v -0.09018572 -0.00408498 -0.00693681
v -0.03396167 -0.00286635 -0.00545323
v -0.03396167 -0.00292856 -0.00543359
v -0.03396167 -0.00348116 -0.00525834
v -0.03432334 -0.00355069 -0.00525381
v -0.09335826 -0.00441068 -0.00613459
v -0.09377071 -0.00469796 -0.00563302
v -0.09394836 -0.00501634 -0.00524475
v -0.09527449 -0.00359460 -0.00543208
v -0.09476054 -0.00319754 -0.00606358
v -0.09358670 -0.00379039 -0.00640653
v -0.09505242 -0.00479493 -0.00454828
v -0.09505877 -0.00577386 -0.00239091
v -0.09428465 -0.00528348 -0.00467066
v -0.09479228 -0.00566591 -0.00361463
v -0.09458922 -0.00592574 -0.00329888
v -0.09484303 -0.00586535 -0.00291061
v -0.09479862 -0.00598795 -0.00013231
v -0.09422120 -0.00643075 0.00064573
v -0.09487475 -0.00589280 0.00089803
v -0.09528719 -0.00541340 0.00193895
v -0.09561713 -0.00465953 0.00275930
v -0.09519202 -0.00514259 0.00286354
v -0.09571865 -0.00419294 0.00315210
v -0.09490013 -0.00444728 0.00405856
v -0.09352325 -0.00460830 0.00493178
v -0.09350421 -0.00434664 0.00508588
v -0.09335193 -0.00405936 0.00528681
v -0.09333290 -0.00443813 0.00510250
v -0.09285066 -0.00419294 0.00536235
v -0.09130245 -0.00425698 0.00567055
v -0.09111211 -0.00399166 0.00584580
v -0.09136590 -0.00323596 0.00610263
v -0.08984308 -0.00350128 0.00621593
v -0.08167058 -0.00373549 0.00616004
v -0.03396167 -0.00316826 0.00603162
v -0.09465268 -0.00464672 0.00419150
v -0.09426562 -0.00562931 0.00336663
v -0.09439887 -0.00474187 0.00427762
v -0.09365015 -0.00527800 0.00417791
v -0.09323771 -0.00518285 0.00453898
v -0.09352325 -0.00492302 0.00462812
v -0.09259051 -0.00414902 -0.00656818
v -0.09307274 -0.00397154 -0.00654099
v -0.09209560 -0.00432468 -0.00658933
v -0.08339010 -0.00430638 -0.00665580
v -0.03541470 -0.00403375 -0.00509669
v -0.04007201 -0.00483702 -0.00488670
v -0.08957659 -0.00423319 -0.00684918
v -0.09097251 -0.00466685 -0.00653797
v -0.08893573 -0.00480042 -0.00651228
v -0.09012862 -0.00456987 -0.00664070
v -0.03396167 -0.00390749 -0.00508612
v -0.09366283 -0.00489374 -0.00554841
v -0.09290777 -0.00430455 -0.00638689
v -0.09240016 -0.00452047 -0.00641559
v -0.09213367 -0.00524506 -0.00585661
v -0.09363747 -0.00527433 -0.00517223
v -0.09354228 -0.00580497 -0.00467821
v -0.09358035 -0.00686990 -0.00083935
v -0.09399278 -0.00659543 -0.00007943
v -0.09263493 -0.00660275 -0.00370981
v -0.09262858 -0.00702360 -0.00256767
v -0.09272376 -0.00708582 -0.00219451
v -0.09450039 -0.00617458 0.00112163
v -0.09370092 -0.00680220 0.00074998
v -0.09379609 -0.00670888 0.00126968
v -0.09394202 -0.00649663 0.00176672
v -0.09420218 -0.00613250 0.00245714
v -0.09469074 -0.00575557 0.00244808
v -0.09415776 -0.00599893 0.00297987
v -0.09476054 -0.00523225 0.00334850
v -0.09293950 -0.00509868 0.00469157
v -0.09149280 -0.00529812 0.00489703
v -0.09108673 -0.00486447 0.00533062
v -0.09089002 -0.00438323 0.00567961
v -0.09019841 -0.00402277 0.00596515
v -0.08974791 -0.00394592 0.00603917
v -0.08166423 -0.00408681 0.00601349
v -0.03450735 -0.00354337 0.00590018
v -0.03396167 -0.00361107 0.00585939
v -0.09394836 -0.00593671 0.00321253
v -0.09396106 -0.00526153 0.00399057
v -0.09289508 -0.00630450 0.00335907
v -0.09246996 -0.00625876 0.00359777
v -0.09081388 -0.00638318 0.00397395
v -0.09110576 -0.00566408 0.00466135
v -0.09382147 -0.00623497 0.00292246
v -0.08281270 -0.00471991 -0.00640351
v -0.08669591 -0.00511149 -0.00629775
v -0.03596038 -0.00468149 -0.00480058
v -0.03610632 -0.00487361 -0.00468274
v -0.04097937 -0.00528532 -0.00455282
v -0.06083957 -0.00568055 -0.00501964
v -0.08722889 -0.00547378 -0.00607567
v -0.08472893 -0.00518468 -0.00618596
v -0.08741289 -0.00508221 -0.00633099
v -0.08962101 -0.00491753 -0.00643221
v -0.09061083 -0.00532374 -0.00608474
v -0.09123266 -0.00507123 -0.00618898
v -0.03396167 -0.00402826 -0.00502267
v -0.09218442 -0.00475651 -0.00627056
v -0.09160067 -0.00566957 -0.00560582
v -0.09269203 -0.00600991 -0.00478245
v -0.09238112 -0.00618739 -0.00465102
v -0.09303467 -0.00712424 -0.00036195
v -0.09292045 -0.00721756 0.00060041
v -0.09222884 -0.00676377 -0.00364485
v -0.09167047 -0.00709679 -0.00330190
v -0.09231134 -0.00695590 -0.00310550
v -0.09184179 -0.00724500 -0.00274896
v -0.09228595 -0.00724318 -0.00212350
v -0.09127073 -0.00774636 -0.00057799
v -0.09165144 -0.00758351 -0.00089676
v -0.09333290 -0.00699067 0.00110048
v -0.09324406 -0.00697420 0.00156881
v -0.09352958 -0.00675829 0.00182262
v -0.09399913 -0.00620569 0.00274570
v -0.09064890 -0.00537131 0.00502998
v -0.09023014 -0.00488093 0.00547566
v -0.08970349 -0.00442532 0.00578839
v -0.08920223 -0.00454974 0.00573551
v -0.08881517 -0.00432651 0.00585184
v -0.08476699 -0.00474004 0.00566904
v -0.08159444 -0.00469979 0.00567357
v -0.03420913 -0.00425515 0.00553760
v -0.03396167 -0.00384528 0.00574155
v -0.09248899 -0.00659909 0.00311131
v -0.09199408 -0.00673633 0.00309318
v -0.09014130 -0.00676743 0.00361590
v -0.09015399 -0.00637037 0.00410388
v -0.09011592 -0.00599893 0.00453747
v -0.09371360 -0.00646369 0.00244808
v -0.09302199 -0.00690101 0.00209607
v -0.09246996 -0.00697054 0.00236801
v -0.09207021 -0.00693028 0.00274268
v -0.03396167 -0.00419660 -0.00492144
v -0.03396167 -0.00481872 -0.00454073
v -0.03570023 -0.00493034 -0.00461023
v -0.03396167 -0.00562931 -0.00392585
v -0.04026237 -0.00559089 -0.00426426
v -0.06528115 -0.00630267 -0.00464951
v -0.08238123 -0.00623497 -0.00522058
v -0.08667687 -0.00589646 -0.00566021
v -0.08970983 -0.00560187 -0.00591251
v -0.09048393 -0.00562382 -0.00582639
v -0.09111211 -0.00545731 -0.00589589
v -0.09020475 -0.00612152 -0.00535957
v -0.09014130 -0.00663569 -0.00475979
v -0.09113114 -0.00635390 -0.00484591
v -0.09107403 -0.00670888 -0.00435793
v -0.09041414 -0.00733283 -0.00358290
v -0.09227325 -0.00746458 0.00080890
v -0.09266031 -0.00728343 0.00119716
v -0.09137860 -0.00727062 -0.00304658
v -0.09037606 -0.00741700 -0.00334269
v -0.09139128 -0.00737858 -0.00253896
v -0.09040146 -0.00785981 -0.00113848
v -0.09177199 -0.00735845 -0.00222926
v -0.08986846 -0.00795679 -0.00118078
v -0.08981770 -0.00800436 -0.00075626
v -0.09082022 -0.00783968 0.00046897
v -0.09131515 -0.00775002 0.00103249
v -0.09156895 -0.00767317 0.00063516
v -0.09264126 -0.00717547 0.00179392
v -0.08937354 -0.00575008 0.00485322
v -0.08974156 -0.00537863 0.00512818
v -0.08900553 -0.00539144 0.00518559
v -0.08943699 -0.00491936 0.00549076
v -0.08887862 -0.00483336 0.00557688
v -0.08580759 -0.00494863 0.00554364
v -0.08525556 -0.00487544 0.00558897
v -0.08116931 -0.00512978 0.00542580
v -0.03490710 -0.00483519 0.00517350
v -0.03396167 -0.00443996 0.00540616
v -0.03396167 -0.00421855 0.00554666
v -0.09167047 -0.00707667 0.00264599
v -0.09024282 -0.00714254 0.00301160
v -0.08963369 -0.00709130 0.00324576
v -0.08949409 -0.00686258 0.00357964
v -0.08939257 -0.00616178 0.00443625
v -0.09186718 -0.00723403 0.00218521
v -0.03396167 -0.00518834 -0.00428088
v -0.03396167 -0.00520114 -0.00427181
v -0.03396167 -0.00578667 -0.00376117
v -0.03522435 -0.00609956 -0.00353154
v -0.04661382 -0.00606297 -0.00407088
v -0.03978014 -0.00672535 -0.00304054
v -0.06630906 -0.00644356 -0.00453771
v -0.08243199 -0.00663569 -0.00474922
v -0.08875172 -0.00648016 -0.00503777
v -0.08601063 -0.00616178 -0.00536108
v -0.08990653 -0.00685160 -0.00448483
v -0.08807279 -0.00742432 -0.00346053
v -0.08993191 -0.00742798 -0.00341068
v -0.09185448 -0.00759083 0.00105666
v -0.09204483 -0.00749020 0.00137846
v -0.08980501 -0.00755424 -0.00303903
v -0.09014130 -0.00755973 -0.00286982
v -0.08929105 -0.00802998 -0.00113093
v -0.08909436 -0.00808853 -0.00050547
v -0.09013496 -0.00791653 0.00054149
v -0.09085195 -0.00779943 0.00109292
v -0.09151185 -0.00764390 0.00137090
v -0.08884054 -0.00582510 0.00481243
v -0.08542688 -0.00632463 0.00448006
v -0.08512232 -0.00590927 0.00483811
v -0.08839005 -0.00529995 0.00526113
v -0.08150560 -0.00596599 0.00477315
v -0.03467232 -0.00537131 0.00475955
v -0.03422816 -0.00506940 0.00498919
v -0.03396167 -0.00493766 0.00506926
v -0.09115018 -0.00736211 0.00223657
v -0.09048393 -0.00748471 0.00226528
v -0.08976693 -0.00740054 0.00259765
v -0.08903091 -0.00744079 0.00264750
v -0.08895476 -0.00719743 0.00311433
v -0.08550936 -0.00734015 0.00308864
v -0.09097886 -0.00762194 0.00169572
v -0.03396167 -0.00639416 -0.00310097
v -0.03535125 -0.00649480 -0.00306471
v -0.03396167 -0.00649480 -0.00295291
v -0.03537029 -0.00669058 -0.00273838
v -0.03960882 -0.00691016 -0.00266134
v -0.06167078 -0.00715901 -0.00337593
v -0.06476085 -0.00698518 -0.00382463
v -0.06793975 -0.00693760 -0.00398779
v -0.08276193 -0.00700896 -0.00420383
v -0.08865654 -0.00676926 -0.00463893
v -0.08857405 -0.00694675 -0.00433376
v -0.08682916 -0.00712973 -0.00402556
v -0.08272386 -0.00729075 -0.00369772
v -0.08203860 -0.00734381 -0.00355118
v -0.06566186 -0.00734747 -0.00312212
v -0.08240661 -0.00742981 -0.00329737
v -0.07057932 -0.00790190 -0.00135452
v -0.08303477 -0.00806108 -0.00105086
v -0.08852965 -0.00807572 -0.00088618
v -0.08836468 -0.00810134 -0.00034986
v -0.08881517 -0.00781956 0.00150838
v -0.09022379 -0.00770245 0.00181809
v -0.08130890 -0.00621667 0.00454200
v -0.08077592 -0.00603735 0.00470517
v -0.08464643 -0.00673450 0.00391503
v -0.07293970 -0.00683147 0.00368389
v -0.06559841 -0.00669790 0.00379871
v -0.03816213 -0.00575923 0.00439546
v -0.03497054 -0.00558357 0.00453294
v -0.03442486 -0.00572812 0.00432898
v -0.03396167 -0.00577386 0.00423683
v -0.03396167 -0.00557259 0.00446042
v -0.03420278 -0.00532557 0.00475955
v -0.03396167 -0.00511880 0.00492272
v -0.08937354 -0.00769696 0.00192233
v -0.08585200 -0.00770062 0.00226074
v -0.08624540 -0.00754326 0.00263541
v -0.08147387 -0.00731088 0.00309469
v -0.08533805 -0.00764390 0.00243599
v -0.06585856 -0.00751947 0.00251606
v -0.03396167 -0.00662471 -0.00273234
v -0.03582079 -0.00687722 -0.00236976
v -0.04023064 -0.00709313 -0.00219602
v -0.06118220 -0.00728160 -0.00304054
v -0.06617581 -0.00729258 -0.00327471
v -0.06613773 -0.00709496 -0.00368564
v -0.06811106 -0.00718279 -0.00357535
v -0.06047155 -0.00729990 -0.00293025
v -0.06030658 -0.00745726 -0.00237882
v -0.06081419 -0.00749752 -0.00226552
v -0.06158829 -0.00777381 -0.00129560
v -0.08224799 -0.00808670 -0.00080914
v -0.06200073 -0.00785249 -0.00096172
v -0.08271117 -0.00810500 -0.00049187
v -0.08215915 -0.00809951 -0.00030303
v -0.07697519 -0.00785432 0.00179392
v -0.08576952 -0.00780492 0.00173651
v -0.06182306 -0.00728892 0.00287261
v -0.05835863 -0.00705105 0.00317325
v -0.05818731 -0.00688820 0.00339986
v -0.05717843 -0.00659543 0.00375792
v -0.03780046 -0.00629901 0.00371108
v -0.03499592 -0.00604650 0.00395885
v -0.03396167 -0.00615263 0.00377453
v -0.03396167 -0.00527433 0.00478373
v -0.07662621 -0.00775185 0.00210060
v -0.06627098 -0.00767134 0.00215650
v -0.06229260 -0.00749568 0.00248887
v -0.03396167 -0.00682050 -0.00222623
v -0.03564312 -0.00703092 -0.00183797
v -0.04005932 -0.00729075 -0.00135150
v -0.05270513 -0.00763658 -0.00110525
v -0.06149946 -0.00785798 -0.00084388
v -0.06201976 -0.00788177 -0.00053115
v -0.04767346 -0.00761279 -0.00063389
v -0.06332685 -0.00789275 0.00010035
v -0.06371391 -0.00789275 0.00018948
v -0.06573165 -0.00781590 0.00134371
v -0.06605525 -0.00773904 0.00191780
v -0.04616967 -0.00699250 0.00296325
v -0.05161378 -0.00691930 0.00321706
v -0.04206438 -0.00673816 0.00323217
v -0.03447562 -0.00643075 0.00344065
v -0.03396167 -0.00647101 0.00336058
v -0.06232432 -0.00760730 0.00214895
v -0.05134728 -0.00732552 0.00243146
v -0.04613794 -0.00721573 0.00247981
v -0.03396167 -0.00682416 -0.00221415
v -0.03396167 -0.00683331 -0.00217789
v -0.03396167 -0.00697786 -0.00160380
v -0.03564947 -0.00710777 -0.00146179
v -0.04015450 -0.00744079 -0.00057799
v -0.04721026 -0.00764573 -0.00030756
v -0.04784478 -0.00766768 -0.00018519
v -0.04918359 -0.00770062 -0.00003109
v -0.04458974 -0.00756339 -0.00049187
v -0.04905669 -0.00764573 0.00043272
v -0.05484344 -0.00755973 0.00181960
v -0.06520501 -0.00775551 0.00171838
v -0.03396167 -0.00698518 0.00247376
v -0.03396167 -0.00692113 0.00260520
v -0.03396167 -0.00675279 0.00293757
v -0.03396167 -0.00660824 0.00315512
v -0.03430431 -0.00702543 0.00238463
v -0.03396167 -0.00724318 -0.00007943
v -0.03533856 -0.00724866 -0.00062784
v -0.03580810 -0.00730905 -0.00023051
v -0.04056693 -0.00746092 -0.00026375
v -0.04310498 -0.00755058 0.00011999
v -0.04331437 -0.00755058 -0.00015044
v -0.03396167 -0.00718096 0.00175615
v -0.03396167 -0.00716998 0.00180147
v -0.03646164 -0.00712790 0.00215197
v -0.03396167 -0.00721024 0.00098112
v -0.03396167 -0.00718279 0.00173802
f 1 2 3
f 1 3 4
f 1 4 5
f 1 5 6
f 1 6 7
f 1 7 8
f 1 8 9
f 1 9 10
f 1 10 11
f 1 11 12
f 1 12 13
f 1 13 2
f 2 14 15
f 2 15 3
f 2 13 16
f 2 16 17
f 2 17 14
f 3 15 18
f 3 18 19
f 3 19 4
f 4 20 21
f 4 21 22
f 4 22 5
f 4 19 23
f 4 23 24
f 4 24 25
f 4 25 20
f 5 26 6
f 5 22 27
f 5 27 26
f 6 26 7
f 7 26 27
f 7 27 28
f 7 28 29
f 7 29 30
f 7 30 10
f 7 10 9
f 7 9 8
f 10 30 13
f 10 13 11
f 11 13 12
f 13 31 32
f 13 32 16
f 13 30 31
f 14 33 34
f 14 34 15
f 14 17 35
f 14 35 36
f 14 36 33
f 15 34 18
f 16 32 37
f 16 37 38
f 16 38 39
f 16 39 17
f 17 39 38
f 17 38 40
f 17 40 35
f 18 41 42
f 18 42 19
f 18 34 41
f 19 42 43
f 19 43 44
f 19 44 45
f 19 45 23
f 20 25 46
f 20 46 47
f 20 47 27
f 20 27 48
f 20 48 22
f 20 22 21
f 22 48 27
f 23 45 24
f 24 49 25
f 24 45 50
f 24 50 49
f 25 49 46
f 27 47 51
f 27 51 52
f 27 52 28
f 28 52 53
f 28 53 29
f 29 53 54
f 29 54 55
f 29 55 56
f 29 56 57
f 29 57 31
f 29 31 30
f 31 57 58
f 31 58 59
f 31 59 60
f 31 60 61
f 31 61 62
f 31 62 32
f 32 62 63
f 32 63 64
f 32 64 37
f 33 65 34
f 33 36 65
f 34 66 41
f 34 65 66
f 35 40 67
f 35 67 68
f 35 68 36
f 36 68 65
f 37 64 69
f 37 69 38
f 38 69 40
f 40 69 70
f 40 70 71
f 40 71 72
f 40 72 73
f 40 73 74
f 40 74 68
f 40 68 67
f 41 75 76
f 41 76 77
f 41 77 42
f 41 66 78
f 41 78 79
f 41 79 75
f 42 77 80
f 42 80 81
f 42 81 43
f 43 81 80
f 43 80 44
f 44 80 82
f 44 82 45
f 45 82 83
f 45 83 84
f 45 84 85
f 45 85 86
f 45 86 50
f 46 87 51
f 46 51 47
f 46 49 88
f 46 88 87
f 49 89 88
f 49 50 90
f 49 90 89
f 50 86 90
f 51 87 91
f 51 91 92
f 51 92 52
f 52 92 93
f 52 93 94
f 52 94 95
f 52 95 96
f 52 96 53
f 53 96 97
f 53 97 54
f 54 97 98
f 54 98 99
f 54 99 100
f 54 100 101
f 54 101 55
f 55 101 102
f 55 102 57
f 55 57 56
f 57 102 103
f 57 103 58
f 58 103 60
f 58 60 59
f 60 104 105
f 60 105 106
f 60 106 61
f 60 103 107
f 60 107 104
f 61 106 108
f 61 108 109
f 61 109 110
f 61 110 111
f 61 111 62
f 62 111 63
f 63 111 110
f 63 110 112
f 63 112 70
f 63 70 64
f 64 70 69
f 65 113 66
f 65 68 114
f 65 114 115
f 65 115 113
f 66 113 116
f 66 116 117
f 66 117 118
f 66 118 78
f 68 74 119
f 68 119 120
f 68 120 114
f 70 112 110
f 70 110 71
f 71 110 121
f 71 121 122
f 71 122 123
f 71 123 124
f 71 124 72
f 72 124 125
f 72 125 73
f 73 125 124
f 73 124 123
f 73 123 122
f 73 122 121
f 73 121 171
f 73 171 170
f 73 170 168
f 73 168 105
f 73 105 167
f 73 167 165
f 73 165 220
f 73 220 219
f 73 219 218
f 73 218 217
f 73 217 274
f 73 274 273
f 73 273 337
f 73 337 394
f 73 394 393
f 73 393 456
f 73 456 522
f 73 522 521
f 73 521 573
f 73 573 572
f 73 572 632
f 73 632 631
f 73 631 630
f 73 630 694
f 73 694 752
f 73 752 751
f 73 751 801
f 73 801 846
f 73 846 892
f 73 892 941
f 73 941 940
f 73 940 977
f 73 977 1018
f 73 1018 1049
f 73 1049 1016
f 73 1016 1015
f 73 1015 1048
f 73 1048 1068
f 73 1068 1087
f 73 1087 1086
f 73 1086 1085
f 73 1085 1084
f 73 1084 1096
f 73 1096 1095
f 73 1095 1099
f 73 1099 1098
f 73 1098 1089
f 73 1089 1074
f 73 1074 1073
f 73 1073 1072
f 73 1072 1053
f 73 1053 1025
f 73 1025 987
f 73 987 985
f 73 985 950
f 73 950 905
f 73 905 949
f 73 949 948
f 73 948 903
f 73 903 902
f 73 902 866
f 73 866 818
f 73 818 769
f 73 769 768
f 73 768 767
f 73 767 708
f 73 708 707
f 73 707 649
f 73 649 593
f 73 593 591
f 73 591 590
f 73 590 589
f 73 589 533
f 73 533 473
f 73 473 472
f 73 472 415
f 73 415 475
f 73 475 474
f 73 474 468
f 73 468 457
f 73 457 399
f 73 399 397
f 73 397 341
f 73 341 340
f 73 340 339
f 73 339 338
f 73 338 275
f 73 275 222
f 73 222 221
f 73 221 174
f 73 174 178
f 73 178 119
f 73 119 74
f 75 79 76
f 76 126 77
f 76 79 127
f 76 127 128
f 76 128 126
f 77 126 129
f 77 129 80
f 78 118 130
f 78 130 131
f 78 131 79
f 79 131 127
f 80 129 132
f 80 132 133
f 80 133 134
f 80 134 84
f 80 84 83
f 80 83 135
f 80 135 82
f 82 135 83
f 84 136 137
f 84 137 138
f 84 138 85
f 84 134 133
f 84 133 136
f 85 138 139
f 85 139 86
f 86 140 141
f 86 141 142
f 86 142 90
f 86 139 140
f 87 88 143
f 87 143 91
f 88 89 143
f 89 144 143
f 89 90 142
f 89 142 144
f 91 143 145
f 91 145 92
f 92 145 93
f 93 145 146
f 93 146 147
f 93 147 148
f 93 148 149
f 93 149 150
f 93 150 151
f 93 151 152
f 93 152 153
f 93 153 94
f 94 153 95
f 95 154 155
f 95 155 96
f 95 153 156
f 95 156 154
f 96 155 157
f 96 157 98
f 96 98 97
f 98 157 158
f 98 158 159
f 98 159 160
f 98 160 99
f 99 160 161
f 99 161 100
f 100 161 162
f 100 162 107
f 100 107 163
f 100 163 101
f 101 163 103
f 101 103 102
f 103 163 107
f 104 164 165
f 104 165 166
f 104 166 167
f 104 167 105
f 104 107 164
f 105 168 169
f 105 169 106
f 106 169 168
f 106 168 108
f 107 162 164
f 108 168 109
f 109 168 170
f 109 170 171
f 109 171 110
f 110 171 121
f 113 115 116
f 114 120 172
f 114 172 115
f 115 172 173
f 115 173 174
f 115 174 175
f 115 175 176
f 115 176 116
f 116 176 117
f 117 176 118
f 118 176 177
f 118 177 130
f 119 178 173
f 119 173 172
f 119 172 120
f 126 128 179
f 126 179 180
f 126 180 181
f 126 181 182
f 126 182 132
f 126 132 129
f 127 131 183
f 127 183 184
f 127 184 185
f 127 185 128
f 128 185 179
f 130 177 131
f 131 177 186
f 131 186 183
f 132 182 187
f 132 187 133
f 133 187 188
f 133 188 136
f 136 189 137
f 136 188 189
f 137 189 190
f 137 190 138
f 138 191 139
f 138 190 192
f 138 192 193
f 138 193 194
f 138 194 191
f 139 191 195
f 139 195 196
f 139 196 197
f 139 197 141
f 139 141 140
f 141 197 198
f 141 198 142
f 142 199 200
f 142 200 201
f 142 201 144
f 142 198 202
f 142 202 199
f 143 144 145
f 144 146 145
f 144 201 200
f 144 200 146
f 146 200 147
f 147 200 203
f 147 203 148
f 148 203 149
f 149 203 150
f 150 203 204
f 150 204 205
f 150 205 206
f 150 206 152
f 150 152 151
f 152 206 207
f 152 207 153
f 153 208 209
f 153 209 210
f 153 210 156
f 153 207 208
f 154 156 211
f 154 211 155
f 155 211 212
f 155 212 213
f 155 213 214
f 155 214 157
f 156 210 211
f 157 214 158
f 158 214 215
f 158 215 216
f 158 216 217
f 158 217 159
f 159 217 218
f 159 218 219
f 159 219 220
f 159 220 161
f 159 161 160
f 161 220 165
f 161 165 164
f 161 164 162
f 165 167 166
f 173 178 174
f 174 221 175
f 175 221 222
f 175 222 223
f 175 223 224
f 175 224 225
f 175 225 176
f 176 225 177
f 177 226 186
f 177 225 224
f 177 224 226
f 179 227 180
f 179 185 228
f 179 228 227
f 180 227 229
f 180 229 181
f 181 229 182
f 182 230 231
f 182 231 232
f 182 232 187
f 182 229 230
f 183 186 233
f 183 233 234
f 183 234 235
f 183 235 184
f 184 236 237
f 184 237 238
f 184 238 227
f 184 227 228
f 184 228 185
f 184 235 239
f 184 239 240
f 184 240 236
f 186 226 241
f 186 241 242
f 186 242 233
f 187 243 244
f 187 244 188
f 187 232 243
f 188 244 189
f 189 244 245
f 189 245 246
f 189 246 190
f 190 246 247
f 190 247 192
f 191 248 249
f 191 249 195
f 191 194 248
f 192 247 250
f 192 250 251
f 192 251 193
f 193 251 252
f 193 252 194
f 194 252 253
f 194 253 254
f 194 254 255
f 194 255 256
f 194 256 249
f 194 249 248
f 195 257 198
f 195 198 196
f 195 249 258
f 195 258 257
f 196 198 197
f 198 257 259
f 198 259 202
f 199 260 200
f 199 202 261
f 199 261 260
f 200 260 203
f 202 259 262
f 202 262 261
f 203 260 263
f 203 263 204
f 204 263 205
f 205 263 264
f 205 264 265
f 205 265 206
f 206 265 266
f 206 266 207
f 207 266 267
f 207 267 268
f 207 268 269
f 207 269 208
f 208 270 210
f 208 210 209
f 208 269 270
f 210 270 271
f 210 271 211
f 211 271 212
f 212 271 213
f 213 271 272
f 213 272 215
f 213 215 214
f 215 272 216
f 216 272 273
f 216 273 274
f 216 274 217
f 222 275 276
f 222 276 223
f 223 276 275
f 223 275 277
f 223 277 278
f 223 278 279
f 223 279 224
f 224 279 226
f 226 279 241
f 227 238 229
f 229 231 230
f 229 238 231
f 231 280 281
f 231 281 232
f 231 238 282
f 231 282 283
f 231 283 280
f 232 281 284
f 232 284 243
f 233 242 279
f 233 279 278
f 233 278 285
f 233 285 240
f 233 240 239
f 233 239 234
f 234 239 235
f 236 286 287
f 236 287 282
f 236 282 237
f 236 240 288
f 236 288 286
f 237 282 238
f 240 285 288
f 241 279 242
f 243 284 245
f 243 245 244
f 245 289 290
f 245 290 291
f 245 291 246
f 245 284 292
f 245 292 289
f 246 293 294
f 246 294 247
f 246 291 293
f 247 294 295
f 247 295 250
f 249 256 258
f 250 295 251
f 251 295 296
f 251 296 252
f 252 296 297
f 252 297 253
f 253 297 298
f 253 298 299
f 253 299 300
f 253 300 255
f 253 255 254
f 255 301 256
f 255 300 302
f 255 302 303
f 255 303 301
f 256 301 304
f 256 304 305
f 256 305 258
f 257 306 259
f 257 258 307
f 257 307 308
f 257 308 309
f 257 309 306
f 258 310 307
f 258 305 310
f 259 306 262
f 260 261 311
f 260 311 312
f 260 312 263
f 261 262 311
f 262 306 309
f 262 309 313
f 262 313 314
f 262 314 311
f 263 312 315
f 263 315 264
f 264 315 316
f 264 316 265
f 265 317 266
f 265 316 312
f 265 312 318
f 265 318 319
f 265 319 317
f 266 317 320
f 266 320 321
f 266 321 267
f 267 322 323
f 267 323 324
f 267 324 325
f 267 325 268
f 267 321 326
f 267 326 327
f 267 327 328
f 267 328 322
f 268 325 269
f 269 325 329
f 269 329 270
f 270 329 330
f 270 330 271
f 271 330 331
f 271 331 332
f 271 332 333
f 271 333 334
f 271 334 335
f 271 335 272
f 272 335 336
f 272 336 273
f 273 336 335
f 273 335 334
f 273 334 337
f 275 338 277
f 277 338 339
f 277 339 340
f 277 340 341
f 277 341 342
f 277 342 343
f 277 343 285
f 277 285 278
f 280 344 345
f 280 345 346
f 280 346 281
f 280 283 347
f 280 347 348
f 280 348 344
f 281 346 349
f 281 349 350
f 281 350 290
f 281 290 289
f 281 289 292
f 281 292 284
f 282 287 283
f 283 287 286
f 283 286 351
f 283 351 352
f 283 352 353
f 283 353 347
f 285 343 288
f 286 288 354
f 286 354 355
f 286 355 356
f 286 356 357
f 286 357 351
f 288 343 354
f 290 350 358
f 290 358 291
f 291 358 359
f 291 359 360
f 291 360 293
f 293 361 362
f 293 362 363
f 293 363 295
f 293 295 294
f 293 360 359
f 293 359 361
f 295 364 365
f 295 365 296
f 295 363 366
f 295 366 364
f 296 365 297
f 297 365 364
f 297 364 367
f 297 367 368
f 297 368 298
f 298 368 369
f 298 369 302
f 298 302 299
f 299 302 300
f 301 303 304
f 302 370 303
f 302 369 371
f 302 371 370
f 303 370 304
f 304 370 307
f 304 307 305
f 305 307 310
f 307 372 308
f 307 370 373
f 307 373 374
f 307 374 372
f 308 372 313
f 308 313 309
f 311 314 312
f 312 375 319
f 312 319 318
f 312 316 315
f 312 314 375
f 313 376 314
f 313 372 374
f 313 374 376
f 314 376 375
f 317 319 320
f 319 375 376
f 319 376 377
f 319 377 378
f 319 378 320
f 320 326 321
f 320 378 379
f 320 379 326
f 322 328 323
f 323 328 380
f 323 380 381
f 323 381 324
f 324 381 382
f 324 382 383
f 324 383 384
f 324 384 325
f 325 384 329
f 326 385 327
f 326 379 386
f 326 386 385
f 327 385 387
f 327 387 328
f 328 387 380
f 329 384 330
f 330 384 388
f 330 388 389
f 330 389 390
f 330 390 331
f 331 390 332
f 332 390 391
f 332 391 333
f 333 391 334
f 334 392 393
f 334 393 394
f 334 394 337
f 334 391 395
f 334 395 396
f 334 396 392
f 341 397 398
f 341 398 343
f 341 343 342
f 343 398 397
f 343 397 399
f 343 399 354
f 344 400 401
f 344 401 346
f 344 346 345
f 344 348 402
f 344 402 400
f 346 403 349
f 346 401 403
f 347 353 348
f 348 353 402
f 349 404 405
f 349 405 406
f 349 406 350
f 349 403 407
f 349 407 404
f 350 406 408
f 350 408 358
f 351 357 352
f 352 409 402
f 352 402 353
f 352 357 409
f 354 410 356
f 354 356 355
f 354 399 410
f 356 410 399
f 356 399 411
f 356 411 357
f 357 412 409
f 357 411 413
f 357 413 414
f 357 414 415
f 357 415 412
f 358 408 359
f 359 408 361
f 361 416 362
f 361 408 416
f 362 416 417
f 362 417 418
f 362 418 366
f 362 366 363
f 364 419 420
f 364 420 421
f 364 421 422
f 364 422 368
f 364 368 367
f 364 366 418
f 364 418 419
f 368 422 369
f 369 422 423
f 369 423 371
f 370 371 424
f 370 424 425
f 370 425 426
f 370 426 427
f 370 427 428
f 370 428 373
f 371 423 429
f 371 429 430
f 371 430 431
f 371 431 424
f 373 428 432
f 373 432 374
f 374 432 433
f 374 433 434
f 374 434 376
f 376 434 435
f 376 435 377
f 377 435 436
f 377 436 378
f 378 436 437
f 378 437 438
f 378 438 386
f 378 386 379
f 380 439 440
f 380 440 381
f 380 387 441
f 380 441 442
f 380 442 439
f 381 440 382
f 382 440 443
f 382 443 444
f 382 444 383
f 383 445 389
f 383 389 384
f 383 444 446
f 383 446 396
f 383 396 445
f 384 389 388
f 385 386 387
f 386 438 447
f 386 447 437
f 386 437 448
f 386 448 449
f 386 449 450
f 386 450 451
f 386 451 452
f 386 452 387
f 387 452 451
f 387 451 453
f 387 453 441
f 389 445 390
f 390 445 395
f 390 395 391
f 392 454 455
f 392 455 456
f 392 456 393
f 392 396 454
f 395 445 396
f 396 446 455
f 396 455 454
f 399 457 411
f 400 402 458
f 400 458 459
f 400 459 460
f 400 460 401
f 401 460 403
f 402 461 459
f 402 459 458
f 402 409 461
f 403 460 462
f 403 462 407
f 404 407 463
f 404 463 464
f 404 464 405
f 405 465 466
f 405 466 406
f 405 464 465
f 406 466 408
f 407 462 463
f 408 466 416
f 409 412 467
f 409 467 461
f 411 457 468
f 411 468 413
f 412 469 470
f 412 470 471
f 412 471 467
f 412 415 472
f 412 472 473
f 412 473 469
f 413 468 474
f 413 474 475
f 413 475 415
f 413 415 414
f 416 476 417
f 416 466 476
f 417 476 477
f 417 477 418
f 418 477 419
f 419 477 420
f 420 477 478
f 420 478 479
f 420 479 421
f 421 423 422
f 421 479 480
f 421 480 481
f 421 481 482
f 421 482 423
f 423 483 429
f 423 482 483
f 424 431 484
f 424 484 425
f 425 485 486
f 425 486 426
f 425 484 487
f 425 487 488
f 425 488 485
f 426 486 489
f 426 489 433
f 426 433 427
f 427 433 432
f 427 432 428
f 429 483 490
f 429 490 430
f 430 491 431
f 430 490 492
f 430 492 493
f 430 493 494
f 430 494 495
f 430 495 496
f 430 496 497
f 430 497 491
f 431 491 498
f 431 498 484
f 433 489 499
f 433 499 434
f 434 499 435
f 435 499 500
f 435 500 501
f 435 501 436
f 436 501 437
f 437 447 438
f 437 501 500
f 437 500 486
f 437 486 502
f 437 502 503
f 437 503 504
f 437 504 448
f 439 505 443
f 439 443 440
f 439 442 505
f 441 453 442
f 442 453 506
f 442 506 507
f 442 507 508
f 442 508 509
f 442 509 510
f 442 510 511
f 442 511 505
f 443 505 511
f 443 511 512
f 443 512 513
f 443 513 444
f 444 513 446
f 446 513 514
f 446 514 515
f 446 515 516
f 446 516 455
f 448 504 517
f 448 517 449
f 449 517 518
f 449 518 450
f 450 518 519
f 450 519 451
f 451 520 506
f 451 506 453
f 451 519 520
f 455 516 521
f 455 521 522
f 455 522 456
f 459 523 524
f 459 524 525
f 459 525 460
f 459 461 523
f 460 525 462
f 461 467 471
f 461 471 526
f 461 526 523
f 462 525 524
f 462 524 527
f 462 527 528
f 462 528 529
f 462 529 463
f 463 529 464
f 464 529 465
f 465 529 530
f 465 530 476
f 465 476 466
f 469 531 470
f 469 473 531
f 470 531 471
f 471 531 532
f 471 532 526
f 473 533 531
f 476 530 534
f 476 534 535
f 476 535 536
f 476 536 477
f 477 536 478
f 478 536 535
f 478 535 537
f 478 537 538
f 478 538 539
f 478 539 479
f 479 540 541
f 479 541 481
f 479 481 480
f 479 539 540
f 481 542 482
f 481 541 542
f 482 542 483
f 483 542 543
f 483 543 544
f 483 544 490
f 484 498 487
f 485 545 504
f 485 504 503
f 485 503 502
f 485 502 486
f 485 488 545
f 486 500 489
f 487 498 488
f 488 498 546
f 488 546 547
f 488 547 545
f 489 500 499
f 490 544 548
f 490 548 549
f 490 549 550
f 490 550 551
f 490 551 492
f 491 552 553
f 491 553 498
f 491 497 552
f 492 551 550
f 492 550 554
f 492 554 555
f 492 555 493
f 493 555 556
f 493 556 557
f 493 557 558
f 493 558 494
f 494 558 495
f 495 558 496
f 496 558 497
f 497 558 559
f 497 559 560
f 497 560 561
f 497 561 552
f 498 553 546
f 504 545 562
f 504 562 517
f 506 520 507
f 507 520 508
f 508 563 509
f 508 520 564
f 508 564 563
f 509 565 566
f 509 566 510
f 509 563 565
f 510 566 567
f 510 567 511
f 511 567 568
f 511 568 512
f 512 568 514
f 512 514 513
f 514 569 570
f 514 570 515
f 514 568 571
f 514 571 569
f 515 572 573
f 515 573 516
f 515 570 572
f 516 573 521
f 517 562 574
f 517 574 575
f 517 575 518
f 518 575 576
f 518 576 577
f 518 577 520
f 518 520 519
f 520 577 564
f 523 526 578
f 523 578 579
f 523 579 580
f 523 580 524
f 524 580 527
f 526 532 579
f 526 579 578
f 527 581 582
f 527 582 529
f 527 529 528
f 527 580 579
f 527 579 583
f 527 583 584
f 527 584 581
f 529 582 584
f 529 584 585
f 529 585 586
f 529 586 530
f 530 586 534
f 531 587 588
f 531 588 532
f 531 533 589
f 531 589 590
f 531 590 591
f 531 591 592
f 531 592 593
f 531 593 587
f 532 588 583
f 532 583 579
f 534 594 535
f 534 586 594
f 535 538 537
f 535 594 595
f 535 595 538
f 538 595 596
f 538 596 539
f 539 596 597
f 539 597 598
f 539 598 599
f 539 599 541
f 539 541 540
f 541 599 598
f 541 598 600
f 541 600 601
f 541 601 602
f 541 602 542
f 542 544 543
f 542 602 603
f 542 603 544
f 544 549 548
f 544 603 604
f 544 604 549
f 545 547 605
f 545 605 562
f 546 553 561
f 546 561 606
f 546 606 547
f 547 606 605
f 549 604 607
f 549 607 608
f 549 608 554
f 549 554 550
f 552 561 553
f 554 609 555
f 554 608 610
f 554 610 611
f 554 611 609
f 555 609 556
f 556 609 612
f 556 612 613
f 556 613 559
f 556 559 558
f 556 558 557
f 559 613 614
f 559 614 560
f 560 615 616
f 560 616 561
f 560 614 617
f 560 617 618
f 560 618 615
f 561 616 615
f 561 615 606
f 562 619 574
f 562 605 620
f 562 620 619
f 563 621 622
f 563 622 565
f 563 564 621
f 564 623 621
f 564 577 576
f 564 576 623
f 565 622 624
f 565 624 625
f 565 625 566
f 566 625 626
f 566 626 568
f 566 568 567
f 568 626 627
f 568 627 628
f 568 628 569
f 568 569 571
f 569 628 629
f 569 629 630
f 569 630 631
f 569 631 632
f 569 632 572
f 569 572 570
f 574 619 575
f 575 633 634
f 575 634 635
f 575 635 636
f 575 636 637
f 575 637 638
f 575 638 576
f 575 619 633
f 576 638 623
f 581 584 582
f 583 639 640
f 583 640 584
f 583 588 639
f 584 641 642
f 584 642 643
f 584 643 585
f 584 640 641
f 585 644 594
f 585 594 586
f 585 643 642
f 585 642 644
f 587 645 646
f 587 646 647
f 587 647 648
f 587 648 588
f 587 593 649
f 587 649 650
f 587 650 651
f 587 651 645
f 588 648 652
f 588 652 653
f 588 653 639
f 591 593 592
f 594 644 654
f 594 654 595
f 595 654 596
f 596 654 655
f 596 655 598
f 596 598 597
f 598 655 656
f 598 656 657
f 598 657 658
f 598 658 600
f 600 658 601
f 601 658 659
f 601 659 660
f 601 660 661
f 601 661 602
f 602 661 603
f 603 661 662
f 603 662 604
f 604 662 607
f 605 606 615
f 605 615 663
f 605 663 664
f 605 664 620
f 607 610 608
f 607 662 665
f 607 665 666
f 607 666 667
f 607 667 668
f 607 668 610
f 609 611 612
f 610 668 669
f 610 669 611
f 611 669 670
f 611 670 671
f 611 671 672
f 611 672 612
f 612 672 673
f 612 673 613
f 613 673 674
f 613 674 675
f 613 675 614
f 614 675 676
f 614 676 617
f 615 618 663
f 617 677 618
f 617 676 678
f 617 678 679
f 617 679 677
f 618 677 663
f 619 620 664
f 619 664 680
f 619 680 681
f 619 681 682
f 619 682 633
f 621 623 622
f 622 623 683
f 622 683 684
f 622 684 685
f 622 685 686
f 622 686 624
f 623 638 636
f 623 636 683
f 624 686 625
f 625 686 687
f 625 687 688
f 625 688 626
f 626 688 627
f 627 688 628
f 628 688 689
f 628 689 629
f 629 689 690
f 629 690 691
f 629 691 692
f 629 692 693
f 629 693 694
f 629 694 630
f 633 682 695
f 633 695 635
f 633 635 634
f 635 695 696
f 635 696 683
f 635 683 636
f 636 638 637
f 639 653 640
f 640 653 697
f 640 697 698
f 640 698 699
f 640 699 641
f 641 700 642
f 641 699 701
f 641 701 700
f 642 700 654
f 642 654 644
f 645 702 646
f 645 651 702
f 646 702 703
f 646 703 704
f 646 704 705
f 646 705 706
f 646 706 647
f 647 706 652
f 647 652 648
f 649 707 650
f 650 707 651
f 651 707 708
f 651 708 709
f 651 709 710
f 651 710 711
f 651 711 712
f 651 712 702
f 652 706 653
f 653 706 697
f 654 700 713
f 654 713 655
f 655 657 656
f 655 713 657
f 657 714 658
f 657 713 715
f 657 715 716
f 657 716 714
f 658 714 717
f 658 717 718
f 658 718 660
f 658 660 659
f 660 718 717
f 660 717 719
f 660 719 666
f 660 666 661
f 661 666 662
f 662 666 665
f 663 677 664
f 664 677 680
f 666 719 720
f 666 720 667
f 667 721 668
f 667 720 722
f 667 722 723
f 667 723 724
f 667 724 725
f 667 725 721
f 668 721 669
f 669 721 670
f 670 721 726
f 670 726 671
f 671 726 727
f 671 727 728
f 671 728 672
f 672 728 729
f 672 729 730
f 672 730 673
f 673 730 674
f 674 731 675
f 674 730 732
f 674 732 731
f 675 731 676
f 676 731 678
f 677 679 680
f 678 731 733
f 678 733 679
f 679 733 680
f 680 733 734
f 680 734 681
f 681 734 735
f 681 735 695
f 681 695 682
f 683 696 684
f 684 696 736
f 684 736 695
f 684 695 737
f 684 737 738
f 684 738 739
f 684 739 740
f 684 740 741
f 684 741 742
f 684 742 685
f 685 742 743
f 685 743 686
f 686 743 687
f 687 743 744
f 687 744 690
f 687 690 689
f 687 689 688
f 690 744 745
f 690 745 746
f 690 746 747
f 690 747 691
f 691 747 748
f 691 748 692
f 692 749 693
f 692 748 750
f 692 750 749
f 693 749 751
f 693 751 752
f 693 752 694
f 695 735 753
f 695 753 737
f 695 736 696
f 697 706 754
f 697 754 698
f 698 755 699
f 698 754 756
f 698 756 755
f 699 755 757
f 699 757 758
f 699 758 759
f 699 759 700
f 699 700 701
f 700 759 713
f 702 712 703
f 703 760 761
f 703 761 762
f 703 762 705
f 703 705 704
f 703 712 711
f 703 711 763
f 703 763 764
f 703 764 760
f 705 765 756
f 705 756 754
f 705 754 706
f 705 762 766
f 705 766 765
f 708 767 709
f 709 767 768
f 709 768 769
f 709 769 770
f 709 770 763
f 709 763 710
f 710 763 711
f 713 759 715
f 714 719 717
f 714 716 771
f 714 771 772
f 714 772 773
f 714 773 774
f 714 774 719
f 715 759 757
f 715 757 775
f 715 775 716
f 716 775 776
f 716 776 771
f 719 774 777
f 719 777 722
f 719 722 720
f 721 725 778
f 721 778 726
f 722 777 779
f 722 779 780
f 722 780 723
f 723 780 724
f 724 780 781
f 724 781 782
f 724 782 725
f 725 782 778
f 726 778 727
f 727 778 783
f 727 783 784
f 727 784 785
f 727 785 728
f 728 785 786
f 728 786 729
f 729 732 730
f 729 786 732
f 731 732 787
f 731 787 733
f 732 786 788
f 732 788 787
f 733 787 789
f 733 789 734
f 734 789 790
f 734 790 753
f 734 753 735
f 737 753 791
f 737 791 792
f 737 792 793
f 737 793 738
f 738 793 739
f 739 741 740
f 739 793 794
f 739 794 795
f 739 795 796
f 739 796 797
f 739 797 741
f 741 744 743
f 741 743 742
f 741 797 745
f 741 745 744
f 745 797 798
f 745 798 799
f 745 799 746
f 746 799 747
f 747 799 748
f 748 799 750
f 749 750 799
f 749 799 800
f 749 800 751
f 751 800 801
f 753 790 802
f 753 802 803
f 753 803 804
f 753 804 805
f 753 805 806
f 753 806 807
f 753 807 791
f 755 808 809
f 755 809 776
f 755 776 757
f 755 756 810
f 755 810 808
f 756 765 810
f 757 776 775
f 757 759 758
f 760 811 761
f 760 764 770
f 760 770 812
f 760 812 813
f 760 813 811
f 761 814 766
f 761 766 762
f 761 811 814
f 763 770 764
f 765 815 810
f 765 766 815
f 766 814 816
f 766 816 817
f 766 817 815
f 769 818 770
f 770 818 812
f 771 819 772
f 771 776 809
f 771 809 820
f 771 820 821
f 771 821 822
f 771 822 819
f 772 819 773
f 773 779 777
f 773 777 774
f 773 819 823
f 773 823 824
f 773 824 779
f 778 782 825
f 778 825 826
f 778 826 784
f 778 784 783
f 779 824 780
f 780 824 781
f 781 824 827
f 781 827 828
f 781 828 829
f 781 829 782
f 782 829 825
f 784 830 785
f 784 826 831
f 784 831 832
f 784 832 830
f 785 830 786
f 786 830 832
f 786 832 833
f 786 833 834
f 786 834 835
f 786 835 788
f 787 788 789
f 788 835 836
f 788 836 837
f 788 837 802
f 788 802 790
f 788 790 789
f 791 807 806
f 791 806 838
f 791 838 839
f 791 839 840
f 791 840 794
f 791 794 792
f 792 794 793
f 794 840 796
f 794 796 795
f 796 840 841
f 796 841 797
f 797 841 842
f 797 842 798
f 798 842 799
f 799 842 843
f 799 843 800
f 800 843 844
f 800 844 845
f 800 845 801
f 801 845 846
f 802 837 803
f 803 836 847
f 803 847 805
f 803 805 848
f 803 848 804
f 803 837 836
f 804 848 805
f 805 847 806
f 806 849 850
f 806 850 851
f 806 851 852
f 806 852 839
f 806 839 838
f 806 847 853
f 806 853 849
f 808 821 809
f 808 810 821
f 809 821 820
f 810 815 821
f 811 854 855
f 811 855 814
f 811 813 854
f 812 818 856
f 812 856 813
f 813 856 857
f 813 857 858
f 813 858 859
f 813 859 860
f 813 860 861
f 813 861 855
f 813 855 854
f 814 855 862
f 814 862 816
f 815 817 863
f 815 863 864
f 815 864 865
f 815 865 821
f 816 863 817
f 816 862 860
f 816 860 863
f 818 866 856
f 819 824 823
f 819 822 824
f 821 865 867
f 821 867 822
f 822 867 868
f 822 868 824
f 824 869 870
f 824 870 827
f 824 868 869
f 825 829 871
f 825 871 872
f 825 872 831
f 825 831 826
f 827 870 873
f 827 873 874
f 827 874 875
f 827 875 828
f 828 875 876
f 828 876 829
f 829 876 877
f 829 877 878
f 829 878 879
f 829 879 871
f 831 880 832
f 831 872 880
f 832 880 881
f 832 881 882
f 832 882 833
f 833 883 834
f 833 882 883
f 834 883 835
f 835 883 836
f 836 883 853
f 836 853 847
f 839 852 884
f 839 884 840
f 840 884 885
f 840 885 841
f 841 885 842
f 842 885 886
f 842 886 843
f 843 886 887
f 843 887 888
f 843 888 889
f 843 889 844
f 844 889 890
f 844 890 891
f 844 891 845
f 845 891 892
f 845 892 846
f 849 893 850
f 849 853 893
f 850 893 894
f 850 894 851
f 851 894 895
f 851 895 896
f 851 896 897
f 851 897 852
f 852 897 884
f 853 883 898
f 853 898 899
f 853 899 900
f 853 900 901
f 853 901 893
f 855 860 862
f 855 861 860
f 856 866 902
f 856 902 903
f 856 903 857
f 857 903 904
f 857 904 905
f 857 905 906
f 857 906 858
f 858 906 859
f 859 906 907
f 859 907 860
f 860 908 909
f 860 909 910
f 860 910 863
f 860 907 908
f 863 910 864
f 864 911 912
f 864 912 865
f 864 910 911
f 865 912 867
f 867 912 868
f 868 912 911
f 868 911 913
f 868 913 914
f 868 914 915
f 868 915 870
f 868 870 869
f 870 915 916
f 870 916 917
f 870 917 873
f 871 918 872
f 871 879 878
f 871 878 918
f 872 918 919
f 872 919 880
f 873 917 874
f 874 917 920
f 874 920 876
f 874 876 875
f 876 920 921
f 876 921 922
f 876 922 923
f 876 923 924
f 876 924 877
f 877 924 878
f 878 924 923
f 878 923 925
f 878 925 926
f 878 926 927
f 878 927 928
f 878 928 929
f 878 929 918
f 880 919 881
f 881 899 882
f 881 919 930
f 881 930 899
f 882 898 883
f 882 899 898
f 884 897 931
f 884 931 932
f 884 932 885
f 885 932 933
f 885 933 934
f 885 934 935
f 885 935 886
f 886 935 887
f 887 935 936
f 887 936 889
f 887 889 888
f 889 936 937
f 889 937 938
f 889 938 890
f 890 938 891
f 891 939 940
f 891 940 941
f 891 941 892
f 891 938 939
f 893 901 894
f 894 901 942
f 894 942 943
f 894 943 895
f 895 943 944
f 895 944 945
f 895 945 896
f 896 945 946
f 896 946 897
f 897 946 931
f 899 930 900
f 900 930 901
f 901 947 942
f 901 930 947
f 903 948 904
f 904 948 949
f 904 949 905
f 905 950 951
f 905 951 906
f 906 951 952
f 906 952 907
f 907 952 951
f 907 951 953
f 907 953 954
f 907 954 908
f 908 955 956
f 908 956 957
f 908 957 909
f 908 954 955
f 909 957 956
f 909 956 910
f 910 956 913
f 910 913 911
f 913 956 914
f 914 956 958
f 914 958 917
f 914 917 916
f 914 916 915
f 917 958 959
f 917 959 960
f 917 960 921
f 917 921 920
f 918 929 961
f 918 961 962
f 918 962 919
f 919 962 930
f 921 923 922
f 921 960 963
f 921 963 964
f 921 964 923
f 923 964 925
f 925 964 965
f 925 965 926
f 926 965 966
f 926 966 927
f 927 966 967
f 927 967 928
f 928 961 929
f 928 967 968
f 928 968 969
f 928 969 962
f 928 962 961
f 930 962 969
f 930 969 947
f 931 946 970
f 931 970 933
f 931 933 932
f 933 970 971
f 933 971 972
f 933 972 973
f 933 973 935
f 933 935 934
f 935 973 936
f 936 973 972
f 936 972 938
f 936 938 937
f 938 972 974
f 938 974 975
f 938 975 976
f 938 976 939
f 939 976 977
f 939 977 940
f 942 947 978
f 942 978 979
f 942 979 943
f 943 980 944
f 943 979 980
f 944 980 981
f 944 981 982
f 944 982 983
f 944 983 945
f 945 983 971
f 945 971 946
f 946 971 970
f 947 969 984
f 947 984 978
f 950 985 951
f 951 985 986
f 951 986 953
f 953 986 987
f 953 987 988
f 953 988 989
f 953 989 990
f 953 990 991
f 953 991 954
f 954 991 992
f 954 992 955
f 955 993 994
f 955 994 956
f 955 992 993
f 956 994 958
f 958 994 995
f 958 995 959
f 959 963 960
f 959 995 996
f 959 996 997
f 959 997 998
f 959 998 999
f 959 999 1000
f 959 1000 1001
f 959 1001 963
f 963 965 964
f 963 1001 1002
f 963 1002 965
f 965 1003 966
f 965 1002 1003
f 966 1003 1004
f 966 1004 967
f 967 1004 1005
f 967 1005 968
f 968 1005 1006
f 968 1006 969
f 969 1006 984
f 971 1007 1008
f 971 1008 974
f 971 974 972
f 971 983 1009
f 971 1009 1010
f 971 1010 1011
f 971 1011 1007
f 974 1008 975
f 975 1011 1012
f 975 1012 1013
f 975 1013 1014
f 975 1014 1015
f 975 1015 1016
f 975 1016 1017
f 975 1017 1018
f 975 1018 976
f 975 1008 1007
f 975 1007 1011
f 976 1018 977
f 978 984 979
f 979 984 1006
f 979 1006 980
f 980 1006 981
f 981 1006 1019
f 981 1019 1020
f 981 1020 1021
f 981 1021 983
f 981 983 982
f 983 1022 1010
f 983 1010 1009
f 983 1021 1023
f 983 1023 1024
f 983 1024 1022
f 985 987 986
f 987 1025 988
f 988 1025 1026
f 988 1026 989
f 989 1026 1027
f 989 1027 1028
f 989 1028 990
f 990 1028 999
f 990 999 1029
f 990 1029 1030
f 990 1030 991
f 991 1030 992
f 992 1030 993
f 993 997 996
f 993 996 994
f 993 1030 1031
f 993 1031 997
f 994 996 995
f 997 1031 1029
f 997 1029 998
f 998 1029 999
f 999 1028 1032
f 999 1032 1033
f 999 1033 1034
f 999 1034 1035
f 999 1035 1001
f 999 1001 1000
f 1001 1036 1002
f 1001 1035 1037
f 1001 1037 1036
f 1002 1036 1003
f 1003 1036 1038
f 1003 1038 1004
f 1004 1038 1039
f 1004 1039 1040
f 1004 1040 1005
f 1005 1040 1041
f 1005 1041 1020
f 1005 1020 1006
f 1006 1020 1019
f 1010 1022 1011
f 1011 1042 1043
f 1011 1043 1044
f 1011 1044 1045
f 1011 1045 1012
f 1011 1022 1042
f 1012 1046 1047
f 1012 1047 1013
f 1012 1045 1046
f 1013 1047 1014
f 1014 1048 1015
f 1014 1047 1048
f 1016 1049 1017
f 1017 1049 1018
f 1020 1041 1040
f 1020 1040 1023
f 1020 1023 1021
f 1022 1024 1042
f 1023 1040 1050
f 1023 1050 1024
f 1024 1051 1052
f 1024 1052 1042
f 1024 1050 1051
f 1025 1053 1026
f 1026 1053 1054
f 1026 1054 1027
f 1027 1054 1055
f 1027 1055 1056
f 1027 1056 1035
f 1027 1035 1033
f 1027 1033 1032
f 1027 1032 1028
f 1029 1031 1030
f 1033 1035 1034
f 1035 1056 1037
f 1036 1037 1057
f 1036 1057 1058
f 1036 1058 1038
f 1037 1056 1059
f 1037 1059 1057
f 1038 1058 1039
f 1039 1058 1060
f 1039 1060 1061
f 1039 1061 1062
f 1039 1062 1040
f 1040 1062 1063
f 1040 1063 1051
f 1040 1051 1050
f 1042 1052 1064
f 1042 1064 1043
f 1043 1065 1044
f 1043 1064 1065
f 1044 1065 1045
f 1045 1065 1046
f 1046 1066 1067
f 1046 1067 1047
f 1046 1065 1066
f 1047 1067 1048
f 1048 1067 1068
f 1051 1063 1069
f 1051 1069 1052
f 1052 1069 1070
f 1052 1070 1071
f 1052 1071 1064
f 1053 1072 1054
f 1054 1072 1073
f 1054 1073 1074
f 1054 1074 1075
f 1054 1075 1055
f 1055 1075 1076
f 1055 1076 1059
f 1055 1059 1056
f 1057 1059 1077
f 1057 1077 1078
f 1057 1078 1079
f 1057 1079 1058
f 1058 1079 1060
f 1059 1076 1080
f 1059 1080 1077
f 1060 1079 1061
f 1061 1079 1062
f 1062 1079 1081
f 1062 1081 1082
f 1062 1082 1083
f 1062 1083 1063
f 1063 1083 1082
f 1063 1082 1069
f 1064 1071 1084
f 1064 1084 1085
f 1064 1085 1086
f 1064 1086 1066
f 1064 1066 1065
f 1066 1086 1067
f 1067 1086 1087
f 1067 1087 1068
f 1069 1082 1088
f 1069 1088 1070
f 1070 1088 1071
f 1071 1088 1084
f 1074 1089 1090
f 1074 1090 1075
f 1075 1090 1076
f 1076 1090 1091
f 1076 1091 1092
f 1076 1092 1093
f 1076 1093 1094
f 1076 1094 1077
f 1076 1077 1080
f 1077 1094 1078
f 1078 1094 1093
f 1078 1093 1079
f 1079 1093 1095
f 1079 1095 1081
f 1081 1095 1082
f 1082 1095 1096
f 1082 1096 1097
f 1082 1097 1088
f 1084 1088 1096
f 1088 1097 1096
f 1089 1091 1090
f 1089 1098 1093
f 1089 1093 1091
f 1091 1093 1092
f 1093 1098 1099
f 1093 1099 1095

