# https://github.com/mikedh/trimesh

o decomp_8.obj
v -0.00420667 0.01800396 0.01514688 0.11764706 0.63921569 0.14117647
v -0.00420667 0.01800293 0.01515953 0.11764706 0.63921569 0.14117647
v -0.00420667 0.01800396 0.00860231 0.11764706 0.63921569 0.14117647
v -0.03146128 0.01800396 0.01515784 0.11764706 0.63921569 0.14117647
v -0.00420667 0.01797217 0.01549266 0.11764706 0.63921569 0.14117647
v -0.00420667 0.00782449 0.00860231 0.11764706 0.63921569 0.14117647
v -0.03146128 0.01800396 0.00860231 0.11764706 0.63921569 0.14117647
v -0.03146128 0.01797832 0.01542688 0.11764706 0.63921569 0.14117647
v -0.00420667 0.01797012 0.01550616 0.11764706 0.63921569 0.14117647
v -0.03146128 0.01797012 0.01550616 0.11764706 0.63921569 0.14117647
v -0.00420667 0.00753122 0.01502796 0.11764706 0.63921569 0.14117647
v -0.01777661 0.00781629 0.00876930 0.11764706 0.63921569 0.14117647
v -0.03146128 0.00782449 0.00860231 0.11764706 0.63921569 0.14117647
v -0.00420667 0.01796704 0.01551881 0.11764706 0.63921569 0.14117647
v -0.03146128 0.01796807 0.01551712 0.11764706 0.63921569 0.14117647
v -0.00420667 0.00753019 0.01505664 0.11764706 0.63921569 0.14117647
v -0.03146128 0.00753019 0.01505664 0.11764706 0.63921569 0.14117647
v -0.03146128 0.00753224 0.01500351 0.11764706 0.63921569 0.14117647
v -0.01777928 0.00781629 0.00876930 0.11764706 0.63921569 0.14117647
v -0.01725366 0.01795884 0.01555001 0.11764706 0.63921569 0.14117647
v -0.00420667 0.01788398 0.01581652 0.11764706 0.63921569 0.14117647
v -0.03146128 0.01794345 0.01560483 0.11764706 0.63921569 0.14117647
v -0.00420667 0.00753019 0.01522278 0.11764706 0.63921569 0.14117647
v -0.01777661 0.00752917 0.01522363 0.11764706 0.63921569 0.14117647
v -0.03146128 0.00752917 0.01522278 0.11764706 0.63921569 0.14117647
v -0.01777661 0.01790962 0.01572543 0.11764706 0.63921569 0.14117647
v -0.00420667 0.01787680 0.01584182 0.11764706 0.63921569 0.14117647
v -0.01777928 0.01790962 0.01572543 0.11764706 0.63921569 0.14117647
v -0.03146128 0.01790039 0.01575748 0.11764706 0.63921569 0.14117647
v -0.03146128 0.01787578 0.01584435 0.11764706 0.63921569 0.14117647
v -0.00420667 0.00754352 0.01538977 0.11764706 0.63921569 0.14117647
v -0.01782730 0.00752917 0.01522363 0.11764706 0.63921569 0.14117647
v -0.03146128 0.00754352 0.01538977 0.11764706 0.63921569 0.14117647
v -0.00420667 0.01787270 0.01585447 0.11764706 0.63921569 0.14117647
v -0.03146128 0.01787270 0.01585447 0.11764706 0.63921569 0.14117647
v -0.00420667 0.00757018 0.01555507 0.11764706 0.63921569 0.14117647
v -0.01782730 0.00757018 0.01555507 0.11764706 0.63921569 0.14117647
v -0.03146128 0.00757018 0.01555423 0.11764706 0.63921569 0.14117647
v -0.00420667 0.01786757 0.01586712 0.11764706 0.63921569 0.14117647
v -0.03146128 0.01786860 0.01586459 0.11764706 0.63921569 0.14117647
v -0.00420667 0.00761223 0.01571700 0.11764706 0.63921569 0.14117647
v -0.01777661 0.00759069 0.01563604 0.11764706 0.63921569 0.14117647
v -0.01777928 0.00759069 0.01563604 0.11764706 0.63921569 0.14117647
v -0.03146128 0.00761120 0.01571616 0.11764706 0.63921569 0.14117647
v -0.00420667 0.01779989 0.01600628 0.11764706 0.63921569 0.14117647
v -0.03146128 0.01775888 0.01609061 0.11764706 0.63921569 0.14117647
v -0.00420667 0.00766657 0.01587555 0.11764706 0.63921569 0.14117647
v -0.01777661 0.00763889 0.01579628 0.11764706 0.63921569 0.14117647
v -0.01785398 0.00763889 0.01579628 0.11764706 0.63921569 0.14117647
v -0.01782730 0.00766657 0.01587555 0.11764706 0.63921569 0.14117647
v -0.03146128 0.00766760 0.01587724 0.11764706 0.63921569 0.14117647
v -0.01725366 0.01773427 0.01614122 0.11764706 0.63921569 0.14117647
v -0.00420667 0.01771991 0.01616989 0.11764706 0.63921569 0.14117647
v -0.03146128 0.01771889 0.01617242 0.11764706 0.63921569 0.14117647
v -0.00420667 0.00773425 0.01602989 0.11764706 0.63921569 0.14117647
v -0.01786199 0.00770041 0.01595314 0.11764706 0.63921569 0.14117647
v -0.01782730 0.00773425 0.01602989 0.11764706 0.63921569 0.14117647
v -0.03146128 0.00773425 0.01602820 0.11764706 0.63921569 0.14117647
v -0.00420667 0.01771376 0.01618170 0.11764706 0.63921569 0.14117647
v -0.03146128 0.01770761 0.01619097 0.11764706 0.63921569 0.14117647
v -0.01777928 0.01771376 0.01618170 0.11764706 0.63921569 0.14117647
v -0.00420667 0.00781526 0.01617748 0.11764706 0.63921569 0.14117647
v -0.01777661 0.00777424 0.01610326 0.11764706 0.63921569 0.14117647
v -0.01777928 0.00777424 0.01610326 0.11764706 0.63921569 0.14117647
v -0.03146128 0.00781424 0.01617579 0.11764706 0.63921569 0.14117647
v -0.00420667 0.01770658 0.01619266 0.11764706 0.63921569 0.14117647
v -0.03146128 0.01766659 0.01624748 0.11764706 0.63921569 0.14117647
v -0.00420667 0.00790858 0.01631917 0.11764706 0.63921569 0.14117647
v -0.01777661 0.00790755 0.01631917 0.11764706 0.63921569 0.14117647
v -0.01782730 0.00781526 0.01617748 0.11764706 0.63921569 0.14117647
v -0.01787266 0.00786141 0.01624832 0.11764706 0.63921569 0.14117647
v -0.01777928 0.00790755 0.01631917 0.11764706 0.63921569 0.14117647
v -0.03146128 0.00790653 0.01631664 0.11764706 0.63921569 0.14117647
v -0.00420667 0.01749842 0.01647772 0.11764706 0.63921569 0.14117647
v -0.03146128 0.01757122 0.01637820 0.11764706 0.63921569 0.14117647
v -0.00420667 0.00812289 0.01657218 0.11764706 0.63921569 0.14117647
v -0.01777661 0.00801727 0.01644820 0.11764706 0.63921569 0.14117647
v -0.01777928 0.00801727 0.01644820 0.11764706 0.63921569 0.14117647
v -0.03146128 0.00791473 0.01632760 0.11764706 0.63921569 0.14117647
v -0.00420667 0.01726154 0.01670459 0.11764706 0.63921569 0.14117647
v -0.01777928 0.01749842 0.01647772 0.11764706 0.63921569 0.14117647
v -0.03146128 0.01750457 0.01646844 0.11764706 0.63921569 0.14117647
v -0.00420667 0.00813417 0.01658399 0.11764706 0.63921569 0.14117647
v -0.01777661 0.00812802 0.01657808 0.11764706 0.63921569 0.14117647
v -0.03146128 0.00812802 0.01657808 0.11764706 0.63921569 0.14117647
v -0.00420667 0.01723180 0.01673242 0.11764706 0.63921569 0.14117647
v -0.03146128 0.01729025 0.01667676 0.11764706 0.63921569 0.14117647
v -0.01777928 0.01723180 0.01673242 0.11764706 0.63921569 0.14117647
v -0.03146128 0.01749021 0.01648531 0.11764706 0.63921569 0.14117647
v -0.00420667 0.00837925 0.01679230 0.11764706 0.63921569 0.14117647
v -0.01777928 0.00825722 0.01668856 0.11764706 0.63921569 0.14117647
v -0.03146128 0.00814032 0.01658905 0.11764706 0.63921569 0.14117647
v -0.00420667 0.01711183 0.01681338 0.11764706 0.63921569 0.14117647
v -0.03146128 0.01722258 0.01673917 0.11764706 0.63921569 0.14117647
v -0.03146128 0.01723898 0.01672483 0.11764706 0.63921569 0.14117647
v -0.00420667 0.00839155 0.01680158 0.11764706 0.63921569 0.14117647
v -0.01777661 0.00838848 0.01679989 0.11764706 0.63921569 0.14117647
v -0.03146128 0.00838848 0.01679989 0.11764706 0.63921569 0.14117647
v -0.00420667 0.01708927 0.01682856 0.11764706 0.63921569 0.14117647
v -0.03146128 0.01693238 0.01693398 0.11764706 0.63921569 0.14117647
v -0.00420667 0.00866945 0.01697109 0.11764706 0.63921569 0.14117647
v -0.03146128 0.00839771 0.01680579 0.11764706 0.63921569 0.14117647
v -0.00420667 0.01692315 0.01693989 0.11764706 0.63921569 0.14117647
v -0.03146128 0.01691290 0.01694410 0.11764706 0.63921569 0.14117647
v -0.01777928 0.01692315 0.01693989 0.11764706 0.63921569 0.14117647
v -0.00420667 0.00868278 0.01697868 0.11764706 0.63921569 0.14117647
v -0.03146128 0.00868278 0.01697868 0.11764706 0.63921569 0.14117647
v -0.01725366 0.01670986 0.01703519 0.11764706 0.63921569 0.14117647
v -0.01725366 0.01662475 0.01707314 0.11764706 0.63921569 0.14117647
v -0.00420667 0.01659399 0.01708664 0.11764706 0.63921569 0.14117647
v -0.03146128 0.01684727 0.01697362 0.11764706 0.63921569 0.14117647
v -0.00420667 0.00869611 0.01698459 0.11764706 0.63921569 0.14117647
v -0.03146128 0.00869611 0.01698459 0.11764706 0.63921569 0.14117647
v -0.03146128 0.01665654 0.01705880 0.11764706 0.63921569 0.14117647
v -0.03146128 0.01659193 0.01708748 0.11764706 0.63921569 0.14117647
v -0.00420667 0.01658168 0.01709170 0.11764706 0.63921569 0.14117647
v -0.00420667 0.00900271 0.01711025 0.11764706 0.63921569 0.14117647
v -0.03146128 0.00900271 0.01711025 0.11764706 0.63921569 0.14117647
v -0.03146128 0.01658168 0.01709170 0.11764706 0.63921569 0.14117647
v -0.00420667 0.01656835 0.01709591 0.11764706 0.63921569 0.14117647
v -0.00420667 0.00934110 0.01719037 0.11764706 0.63921569 0.14117647
v -0.03146128 0.00934110 0.01719037 0.11764706 0.63921569 0.14117647
v -0.03146128 0.01657040 0.01709507 0.11764706 0.63921569 0.14117647
v -0.01725366 0.01635506 0.01715073 0.11764706 0.63921569 0.14117647
v -0.00420667 0.01644017 0.01712880 0.11764706 0.63921569 0.14117647
v -0.01777928 0.01653554 0.01710435 0.11764706 0.63921569 0.14117647
v -0.00420667 0.00966309 0.01721567 0.11764706 0.63921569 0.14117647
v -0.01764321 0.00951543 0.01720471 0.11764706 0.63921569 0.14117647
v -0.03146128 0.00936264 0.01719206 0.11764706 0.63921569 0.14117647
v -0.03146128 0.01647914 0.01711868 0.11764706 0.63921569 0.14117647
v -0.01777661 0.01626277 0.01717435 0.11764706 0.63921569 0.14117647
v -0.03146128 0.01622893 0.01718278 0.11764706 0.63921569 0.14117647
v -0.01777928 0.01626277 0.01717435 0.11764706 0.63921569 0.14117647
v -0.00420667 0.01625867 0.01717519 0.11764706 0.63921569 0.14117647
v -0.00420667 0.00968873 0.01721736 0.11764706 0.63921569 0.14117647
v -0.03146128 0.00968873 0.01721736 0.11764706 0.63921569 0.14117647
v -0.00420667 0.01621868 0.01718531 0.11764706 0.63921569 0.14117647
v -0.03146128 0.01621868 0.01718531 0.11764706 0.63921569 0.14117647
v -0.00420667 0.01584337 0.01721736 0.11764706 0.63921569 0.14117647
v -0.03146128 0.01584337 0.01721736 0.11764706 0.63921569 0.14117647
v -0.00420667 0.01620432 0.01718700 0.11764706 0.63921569 0.14117647
v -0.03146128 0.01611306 0.01719459 0.11764706 0.63921569 0.14117647
v -0.01725366 0.01588951 0.01721398 0.11764706 0.63921569 0.14117647
f 1 2 5
f 1 5 9
f 1 9 14
f 1 14 21
f 1 21 27
f 1 27 34
f 1 34 39
f 1 39 45
f 1 45 53
f 1 53 59
f 1 59 66
f 1 66 74
f 1 74 80
f 1 80 86
f 1 86 93
f 1 93 99
f 1 99 103
f 1 103 110
f 1 110 116
f 1 116 120
f 1 120 125
f 1 125 134
f 1 134 137
f 1 137 141
f 1 141 139
f 1 139 135
f 1 135 127
f 1 127 121
f 1 121 117
f 1 117 112
f 1 112 106
f 1 106 101
f 1 101 96
f 1 96 90
f 1 90 83
f 1 83 76
f 1 76 68
f 1 68 62
f 1 62 55
f 1 55 47
f 1 47 41
f 1 41 36
f 1 36 31
f 1 31 23
f 1 23 16
f 1 16 11
f 1 11 6
f 1 6 3
f 1 3 7
f 1 7 4
f 1 4 2
f 2 4 5
f 3 6 13
f 3 13 7
f 4 7 13
f 4 13 18
f 4 18 17
f 4 17 25
f 4 25 33
f 4 33 38
f 4 38 44
f 4 44 51
f 4 51 58
f 4 58 65
f 4 65 73
f 4 73 79
f 4 79 85
f 4 85 92
f 4 92 98
f 4 98 102
f 4 102 107
f 4 107 113
f 4 113 118
f 4 118 122
f 4 122 129
f 4 129 136
f 4 136 140
f 4 140 142
f 4 142 138
f 4 138 132
f 4 132 130
f 4 130 123
f 4 123 119
f 4 119 115
f 4 115 114
f 4 114 111
f 4 111 104
f 4 104 100
f 4 100 94
f 4 94 95
f 4 95 87
f 4 87 89
f 4 89 82
f 4 82 75
f 4 75 67
f 4 67 60
f 4 60 54
f 4 54 46
f 4 46 40
f 4 40 35
f 4 35 30
f 4 30 29
f 4 29 22
f 4 22 15
f 4 15 10
f 4 10 8
f 4 8 5
f 5 8 10
f 5 10 9
f 6 11 12
f 6 12 19
f 6 19 13
f 9 10 15
f 9 15 14
f 11 16 17
f 11 17 18
f 11 18 12
f 12 18 19
f 13 19 18
f 14 20 21
f 14 15 20
f 15 22 28
f 15 28 26
f 15 26 20
f 16 23 24
f 16 24 25
f 16 25 17
f 20 26 21
f 21 26 28
f 21 28 29
f 21 29 30
f 21 30 27
f 22 29 28
f 23 31 24
f 24 31 33
f 24 33 32
f 24 32 25
f 25 32 33
f 27 30 35
f 27 35 34
f 31 36 37
f 31 37 33
f 33 37 38
f 34 35 40
f 34 40 39
f 36 41 42
f 36 42 43
f 36 43 37
f 37 43 44
f 37 44 38
f 39 40 46
f 39 46 52
f 39 52 45
f 41 47 48
f 41 48 44
f 41 44 42
f 42 44 43
f 44 49 50
f 44 50 51
f 44 48 49
f 45 52 53
f 46 54 52
f 47 55 56
f 47 56 50
f 47 50 49
f 47 49 48
f 50 56 51
f 51 56 57
f 51 57 58
f 52 54 53
f 53 54 59
f 54 60 61
f 54 61 59
f 55 62 63
f 55 63 64
f 55 64 57
f 55 57 56
f 57 64 65
f 57 65 58
f 59 61 66
f 60 67 66
f 60 66 61
f 62 68 69
f 62 69 72
f 62 72 71
f 62 71 70
f 62 70 65
f 62 65 63
f 63 65 64
f 65 70 71
f 65 71 72
f 65 72 73
f 66 67 75
f 66 75 74
f 68 76 69
f 69 76 77
f 69 77 78
f 69 78 72
f 72 78 79
f 72 79 73
f 74 75 81
f 74 81 80
f 75 82 81
f 76 83 84
f 76 84 85
f 76 85 78
f 76 78 77
f 78 85 79
f 80 81 87
f 80 87 88
f 80 88 86
f 81 82 89
f 81 89 87
f 83 90 91
f 83 91 92
f 83 92 85
f 83 85 84
f 86 88 94
f 86 94 93
f 87 95 88
f 88 95 94
f 90 96 97
f 90 97 98
f 90 98 91
f 91 98 92
f 93 94 99
f 94 100 99
f 96 101 102
f 96 102 97
f 97 102 98
f 99 100 103
f 100 104 105
f 100 105 103
f 101 106 107
f 101 107 102
f 103 108 109
f 103 109 110
f 103 105 108
f 104 111 105
f 105 111 108
f 106 112 113
f 106 113 107
f 108 111 114
f 108 114 109
f 109 114 115
f 109 115 110
f 110 115 119
f 110 119 116
f 112 117 118
f 112 118 113
f 116 119 120
f 117 121 122
f 117 122 118
f 119 123 120
f 120 124 125
f 120 123 126
f 120 126 124
f 121 127 128
f 121 128 122
f 122 128 129
f 123 130 126
f 124 131 125
f 124 126 130
f 124 130 132
f 124 132 133
f 124 133 131
f 125 131 134
f 127 135 136
f 127 136 128
f 128 136 129
f 131 137 134
f 131 133 132
f 131 132 137
f 132 138 137
f 135 139 140
f 135 140 136
f 137 138 141
f 138 142 141
f 139 141 143
f 139 143 140
f 140 143 142
f 141 142 143

