# https://github.com/mikedh/trimesh
v -0.01435890 0.01800498 -0.00106523
v -0.01435890 0.01800498 -0.00866706
v -0.01435890 0.00826326 -0.00106523
v -0.01435890 0.00860991 -0.00866706
v -0.00336012 0.00761978 -0.00106523
v -0.01435890 0.00844726 -0.00510243
v -0.00300039 0.00761978 -0.00866706
v 0.07194962 0.00761978 -0.00866706
v 0.07242455 0.01800498 -0.00106523
v 0.07242455 0.01800498 -0.00129532
v 0.07242455 0.01771012 -0.00106523
v 0.07242455 0.01800498 -0.00106523
v 0.07242455 0.01764660 -0.00106523
v 0.07242455 0.01771012 -0.00106523
v 0.07242455 0.01762656 -0.00866706
v 0.07242455 0.00912544 -0.00866706
v 0.07242455 0.01770457 -0.00866706
v 0.07242455 0.01762656 -0.00866706
v 0.07242455 0.01799808 -0.00866706
v 0.07242455 0.01770457 -0.00866706
v 0.07242455 0.00761978 -0.00866687
v 0.07242455 0.00761978 -0.00819509
v 0.07242455 0.01800498 -0.00129532
v 0.07242455 0.01800498 -0.00866706
v 0.07242455 0.00761978 -0.00106523
v 0.07242455 0.01764660 -0.00106523
v 0.07242455 0.00912544 -0.00866706
v 0.07242455 0.00820827 -0.00866706
v 0.07242455 0.01800498 -0.00866706
v 0.07242455 0.01799808 -0.00866706
v 0.07242455 0.00761978 -0.00819509
v 0.07242455 0.00761978 -0.00818148
v 0.07242455 0.00761978 -0.00818148
v 0.07242455 0.00761978 -0.00106523
v 0.07242455 0.00820827 -0.00866706
v 0.07242455 0.00761978 -0.00866687
f 5 3 7
f 4 7 6
f 6 7 3
f 21 8 28
f 1 3 25
f 25 9 1
f 25 3 5
f 1 9 24
f 24 2 1
f 6 3 1
f 1 2 6
f 2 4 6
f 8 25 5
f 21 25 8
f 5 7 8
f 9 25 28
f 28 24 9
f 28 25 21
f 2 24 28
f 28 4 2
f 28 7 4
f 28 8 7

