# https://github.com/mikedh/trimesh

o decomp_11.obj
v -0.00420667 -0.00752917 0.01522360 0.56470588 0.01568627 0.61568627
v -0.00420667 -0.00754352 0.01539059 0.56470588 0.01568627 0.61568627
v -0.00420667 -0.00753019 0.01505661 0.56470588 0.01568627 0.61568627
v -0.03146128 -0.00753019 0.01505324 0.56470588 0.01568627 0.61568627
v -0.03146128 -0.00752917 0.01522276 0.56470588 0.01568627 0.61568627
v -0.01782730 -0.00752917 0.01522360 0.56470588 0.01568627 0.61568627
v -0.00420667 -0.00757018 0.01555505 0.56470588 0.01568627 0.61568627
v -0.03146128 -0.00754352 0.01538975 0.56470588 0.01568627 0.61568627
v -0.03146128 -0.00757018 0.01555505 0.56470588 0.01568627 0.61568627
v -0.00420667 -0.00753327 0.01498662 0.56470588 0.01568627 0.61568627
v -0.03146128 -0.00782449 0.00860232 0.56470588 0.01568627 0.61568627
v -0.00420667 -0.00782449 0.00860232 0.56470588 0.01568627 0.61568627
v -0.00420667 -0.00761223 0.01571697 0.56470588 0.01568627 0.61568627
v -0.03146128 -0.00761223 0.01571697 0.56470588 0.01568627 0.61568627
v -0.03146128 -0.01800396 0.00860232 0.56470588 0.01568627 0.61568627
v -0.00420667 -0.01800396 0.00860232 0.56470588 0.01568627 0.61568627
v -0.01777661 -0.00763889 0.01579625 0.56470588 0.01568627 0.61568627
v -0.00420667 -0.00766657 0.01587553 0.56470588 0.01568627 0.61568627
v -0.03146128 -0.00766760 0.01587806 0.56470588 0.01568627 0.61568627
v -0.01779795 -0.00763889 0.01579625 0.56470588 0.01568627 0.61568627
v -0.03146128 -0.01800396 0.01515698 0.56470588 0.01568627 0.61568627
v -0.00420667 -0.01800396 0.01514685 0.56470588 0.01568627 0.61568627
v -0.01777661 -0.00770041 0.01595312 0.56470588 0.01568627 0.61568627
v -0.00420667 -0.00773528 0.01603155 0.56470588 0.01568627 0.61568627
v -0.01782730 -0.00766657 0.01587553 0.56470588 0.01568627 0.61568627
v -0.03146128 -0.00773630 0.01603239 0.56470588 0.01568627 0.61568627
v -0.01782730 -0.00773425 0.01602986 0.56470588 0.01568627 0.61568627
v -0.01779262 -0.00770041 0.01595312 0.56470588 0.01568627 0.61568627
v -0.00420667 -0.01800293 0.01515951 0.56470588 0.01568627 0.61568627
v -0.00420667 -0.01797217 0.01549264 0.56470588 0.01568627 0.61568627
v -0.01725366 -0.01797524 0.01546143 0.56470588 0.01568627 0.61568627
v -0.03146128 -0.01797832 0.01542685 0.56470588 0.01568627 0.61568627
v -0.01777661 -0.00773425 0.01602986 0.56470588 0.01568627 0.61568627
v -0.00420667 -0.00781629 0.01617998 0.56470588 0.01568627 0.61568627
v -0.03146128 -0.00781526 0.01617745 0.56470588 0.01568627 0.61568627
v -0.00420667 -0.01797012 0.01550613 0.56470588 0.01568627 0.61568627
v -0.03146128 -0.01797012 0.01550613 0.56470588 0.01568627 0.61568627
v -0.01777661 -0.00786141 0.01624829 0.56470588 0.01568627 0.61568627
v -0.00420667 -0.00791165 0.01632335 0.56470588 0.01568627 0.61568627
v -0.01787266 -0.00786141 0.01624829 0.56470588 0.01568627 0.61568627
v -0.03146128 -0.00791165 0.01632335 0.56470588 0.01568627 0.61568627
v -0.00420667 -0.01796704 0.01551878 0.56470588 0.01568627 0.61568627
v -0.03146128 -0.01796807 0.01551625 0.56470588 0.01568627 0.61568627
v -0.01777661 -0.00790858 0.01631914 0.56470588 0.01568627 0.61568627
v -0.00420667 -0.00813417 0.01658396 0.56470588 0.01568627 0.61568627
v -0.01794203 -0.00801830 0.01644902 0.56470588 0.01568627 0.61568627
v -0.01777661 -0.00812802 0.01657805 0.56470588 0.01568627 0.61568627
v -0.01782730 -0.00790858 0.01631914 0.56470588 0.01568627 0.61568627
v -0.03146128 -0.00812289 0.01657215 0.56470588 0.01568627 0.61568627
v -0.00420667 -0.01788398 0.01581649 0.56470588 0.01568627 0.61568627
v -0.01725366 -0.01795884 0.01554998 0.56470588 0.01568627 0.61568627
v -0.03146128 -0.01794961 0.01558288 0.56470588 0.01568627 0.61568627
v -0.00420667 -0.00838848 0.01679986 0.56470588 0.01568627 0.61568627
v -0.03146128 -0.00813417 0.01658396 0.56470588 0.01568627 0.61568627
v -0.01777661 -0.00825620 0.01668769 0.56470588 0.01568627 0.61568627
v -0.01782730 -0.00812802 0.01657805 0.56470588 0.01568627 0.61568627
v -0.00420667 -0.01787680 0.01584179 0.56470588 0.01568627 0.61568627
v -0.01777661 -0.01788603 0.01580974 0.56470588 0.01568627 0.61568627
v -0.01777928 -0.01788603 0.01580974 0.56470588 0.01568627 0.61568627
v -0.03146128 -0.01790654 0.01573637 0.56470588 0.01568627 0.61568627
v -0.00420667 -0.00839771 0.01680576 0.56470588 0.01568627 0.61568627
v -0.03146128 -0.00838027 0.01679311 0.56470588 0.01568627 0.61568627
v -0.01782730 -0.00838848 0.01679986 0.56470588 0.01568627 0.61568627
v -0.01777928 -0.00825620 0.01668769 0.56470588 0.01568627 0.61568627
v -0.00420667 -0.01787270 0.01585444 0.56470588 0.01568627 0.61568627
v -0.01777928 -0.01787270 0.01585444 0.56470588 0.01568627 0.61568627
v -0.03146128 -0.01787578 0.01584432 0.56470588 0.01568627 0.61568627
v -0.01777661 -0.00853306 0.01688841 0.56470588 0.01568627 0.61568627
v -0.00420667 -0.00868278 0.01697865 0.56470588 0.01568627 0.61568627
v -0.03146128 -0.00839771 0.01680576 0.56470588 0.01568627 0.61568627
v -0.00420667 -0.01786757 0.01586709 0.56470588 0.01568627 0.61568627
v -0.03146128 -0.01786860 0.01586456 0.56470588 0.01568627 0.61568627
v -0.01777928 -0.00853306 0.01688841 0.56470588 0.01568627 0.61568627
v -0.00420667 -0.00869611 0.01698456 0.56470588 0.01568627 0.61568627
v -0.03146128 -0.00868278 0.01697865 0.56470588 0.01568627 0.61568627
v -0.00420667 -0.01779989 0.01600625 0.56470588 0.01568627 0.61568627
v -0.03146128 -0.01775888 0.01609059 0.56470588 0.01568627 0.61568627
v -0.00420667 -0.00871046 0.01699046 0.56470588 0.01568627 0.61568627
v -0.03146128 -0.00869611 0.01698456 0.56470588 0.01568627 0.61568627
v -0.00420667 -0.01771991 0.01616986 0.56470588 0.01568627 0.61568627
v -0.01725366 -0.01773427 0.01614119 0.56470588 0.01568627 0.61568627
v -0.03146128 -0.01771889 0.01617155 0.56470588 0.01568627 0.61568627
v -0.00420667 -0.00900271 0.01711022 0.56470588 0.01568627 0.61568627
v -0.03146128 -0.00900271 0.01711022 0.56470588 0.01568627 0.61568627
v -0.00420667 -0.01771376 0.01618167 0.56470588 0.01568627 0.61568627
v -0.01777928 -0.01771376 0.01618167 0.56470588 0.01568627 0.61568627
v -0.03146128 -0.01770761 0.01619010 0.56470588 0.01568627 0.61568627
v -0.00420667 -0.00934110 0.01719034 0.56470588 0.01568627 0.61568627
v -0.03146128 -0.00931957 0.01718528 0.56470588 0.01568627 0.61568627
v -0.00420667 -0.01770658 0.01619263 0.56470588 0.01568627 0.61568627
v -0.03146128 -0.01766659 0.01624661 0.56470588 0.01568627 0.61568627
v -0.01777928 -0.01768812 0.01621793 0.56470588 0.01568627 0.61568627
v -0.00420667 -0.00936264 0.01719202 0.56470588 0.01568627 0.61568627
v -0.03146128 -0.00934110 0.01719034 0.56470588 0.01568627 0.61568627
v -0.00420667 -0.01749842 0.01647769 0.56470588 0.01568627 0.61568627
v -0.01777661 -0.01768812 0.01621793 0.56470588 0.01568627 0.61568627
v -0.03146128 -0.01750457 0.01646841 0.56470588 0.01568627 0.61568627
v -0.01777928 -0.01749842 0.01647769 0.56470588 0.01568627 0.61568627
v -0.00420667 -0.00968873 0.01721733 0.56470588 0.01568627 0.61568627
v -0.03146128 -0.00968873 0.01721733 0.56470588 0.01568627 0.61568627
v -0.00420667 -0.01723180 0.01673239 0.56470588 0.01568627 0.61568627
v -0.01777661 -0.01733435 0.01663456 0.56470588 0.01568627 0.61568627
v -0.03146128 -0.01724001 0.01672480 0.56470588 0.01568627 0.61568627
v -0.03146128 -0.01749021 0.01648444 0.56470588 0.01568627 0.61568627
v -0.03146128 -0.01743997 0.01653335 0.56470588 0.01568627 0.61568627
v -0.00420667 -0.01584337 0.01721733 0.56470588 0.01568627 0.61568627
v -0.03146128 -0.01584337 0.01721733 0.56470588 0.01568627 0.61568627
v -0.00420667 -0.01708927 0.01682853 0.56470588 0.01568627 0.61568627
v -0.03146128 -0.01712824 0.01680239 0.56470588 0.01568627 0.61568627
v -0.01777928 -0.01723180 0.01673239 0.56470588 0.01568627 0.61568627
v -0.03146128 -0.01722258 0.01673829 0.56470588 0.01568627 0.61568627
v -0.01725366 -0.01598385 0.01720552 0.56470588 0.01568627 0.61568627
v -0.00420667 -0.01620432 0.01718696 0.56470588 0.01568627 0.61568627
v -0.03146128 -0.01611408 0.01719455 0.56470588 0.01568627 0.61568627
v -0.00420667 -0.01692315 0.01693986 0.56470588 0.01568627 0.61568627
v -0.01725366 -0.01703902 0.01686227 0.56470588 0.01568627 0.61568627
v -0.03146128 -0.01699185 0.01689347 0.56470588 0.01568627 0.61568627
v -0.03146128 -0.01714567 0.01679058 0.56470588 0.01568627 0.61568627
v -0.01777928 -0.01692315 0.01693986 0.56470588 0.01568627 0.61568627
v -0.00420667 -0.01621868 0.01718528 0.56470588 0.01568627 0.61568627
v -0.03146128 -0.01621868 0.01718528 0.56470588 0.01568627 0.61568627
v -0.00420667 -0.01661962 0.01707564 0.56470588 0.01568627 0.61568627
v -0.01777661 -0.01688213 0.01695841 0.56470588 0.01568627 0.61568627
v -0.03146128 -0.01693238 0.01693311 0.56470588 0.01568627 0.61568627
v -0.01777928 -0.01688213 0.01695841 0.56470588 0.01568627 0.61568627
v -0.03146128 -0.01691290 0.01694407 0.56470588 0.01568627 0.61568627
v -0.00420667 -0.01625867 0.01717516 0.56470588 0.01568627 0.61568627
v -0.03146128 -0.01622893 0.01718275 0.56470588 0.01568627 0.61568627
v -0.00420667 -0.01659501 0.01708660 0.56470588 0.01568627 0.61568627
v -0.01725366 -0.01662475 0.01707311 0.56470588 0.01568627 0.61568627
v -0.03146128 -0.01659193 0.01708745 0.56470588 0.01568627 0.61568627
v -0.03146128 -0.01667705 0.01704949 0.56470588 0.01568627 0.61568627
v -0.01725366 -0.01635506 0.01715070 0.56470588 0.01568627 0.61568627
v -0.00420667 -0.01644017 0.01712877 0.56470588 0.01568627 0.61568627
v -0.03146128 -0.01629866 0.01716504 0.56470588 0.01568627 0.61568627
v -0.00420667 -0.01658168 0.01709166 0.56470588 0.01568627 0.61568627
v -0.03146128 -0.01658168 0.01709166 0.56470588 0.01568627 0.61568627
v -0.00420667 -0.01656835 0.01709588 0.56470588 0.01568627 0.61568627
v -0.03146128 -0.01634173 0.01715407 0.56470588 0.01568627 0.61568627
v -0.03146128 -0.01657143 0.01709504 0.56470588 0.01568627 0.61568627
f 1 2 7
f 1 7 13
f 1 13 18
f 1 18 24
f 1 24 34
f 1 34 39
f 1 39 45
f 1 45 53
f 1 53 61
f 1 61 69
f 1 69 74
f 1 74 78
f 1 78 83
f 1 83 88
f 1 88 93
f 1 93 99
f 1 99 106
f 1 106 113
f 1 113 120
f 1 120 127
f 1 127 134
f 1 134 138
f 1 138 136
f 1 136 129
f 1 129 122
f 1 122 115
f 1 115 108
f 1 108 101
f 1 101 95
f 1 95 90
f 1 90 85
f 1 85 80
f 1 80 76
f 1 76 71
f 1 71 65
f 1 65 57
f 1 57 50
f 1 50 42
f 1 42 36
f 1 36 30
f 1 30 29
f 1 29 22
f 1 22 16
f 1 16 12
f 1 12 10
f 1 10 3
f 1 3 4
f 1 4 5
f 1 5 6
f 1 6 2
f 2 6 8
f 2 8 9
f 2 9 7
f 3 10 4
f 4 11 15
f 4 15 21
f 4 21 32
f 4 32 37
f 4 37 43
f 4 43 52
f 4 52 60
f 4 60 67
f 4 67 72
f 4 72 77
f 4 77 82
f 4 82 87
f 4 87 91
f 4 91 97
f 4 97 104
f 4 104 105
f 4 105 103
f 4 103 111
f 4 111 118
f 4 118 109
f 4 109 117
f 4 117 124
f 4 124 126
f 4 126 132
f 4 132 131
f 4 131 137
f 4 137 140
f 4 140 139
f 4 139 135
f 4 135 128
f 4 128 121
f 4 121 114
f 4 114 107
f 4 107 100
f 4 100 94
f 4 94 89
f 4 89 84
f 4 84 79
f 4 79 75
f 4 75 70
f 4 70 62
f 4 62 54
f 4 54 49
f 4 49 41
f 4 41 35
f 4 35 26
f 4 26 19
f 4 19 14
f 4 14 9
f 4 9 8
f 4 8 5
f 4 10 12
f 4 12 11
f 5 8 6
f 7 9 14
f 7 14 13
f 11 12 16
f 11 16 15
f 13 17 18
f 13 14 20
f 13 20 17
f 14 19 20
f 15 16 22
f 15 22 21
f 17 20 25
f 17 25 18
f 18 23 24
f 18 25 19
f 18 19 23
f 19 25 20
f 19 26 27
f 19 27 28
f 19 28 23
f 21 22 29
f 21 29 30
f 21 30 31
f 21 31 32
f 23 33 24
f 23 28 27
f 23 27 33
f 24 33 34
f 26 35 27
f 27 35 34
f 27 34 33
f 30 36 37
f 30 37 31
f 31 37 32
f 34 38 39
f 34 35 40
f 34 40 38
f 35 41 40
f 36 42 43
f 36 43 37
f 38 44 39
f 38 40 48
f 38 48 44
f 39 44 48
f 39 48 41
f 39 41 46
f 39 46 47
f 39 47 45
f 40 41 48
f 41 49 46
f 42 50 51
f 42 51 43
f 43 51 52
f 45 47 56
f 45 56 54
f 45 54 64
f 45 64 55
f 45 55 53
f 46 49 47
f 47 49 56
f 49 54 56
f 50 57 58
f 50 58 51
f 51 58 59
f 51 59 52
f 52 59 60
f 53 55 62
f 53 62 63
f 53 63 70
f 53 70 61
f 54 62 64
f 55 64 62
f 57 65 66
f 57 66 67
f 57 67 59
f 57 59 58
f 59 67 60
f 61 68 69
f 61 70 73
f 61 73 68
f 62 70 63
f 65 71 72
f 65 72 66
f 66 72 67
f 68 73 75
f 68 75 69
f 69 75 79
f 69 79 74
f 70 75 73
f 71 76 81
f 71 81 77
f 71 77 72
f 74 79 78
f 76 80 81
f 77 81 82
f 78 79 84
f 78 84 83
f 80 85 86
f 80 86 82
f 80 82 81
f 82 86 87
f 83 84 89
f 83 89 88
f 85 90 86
f 86 90 87
f 87 90 92
f 87 92 91
f 88 89 94
f 88 94 93
f 90 95 96
f 90 96 92
f 91 92 98
f 91 98 97
f 92 96 95
f 92 95 98
f 93 94 100
f 93 100 99
f 95 101 102
f 95 102 103
f 95 103 98
f 97 98 104
f 98 103 105
f 98 105 104
f 99 100 107
f 99 107 106
f 101 108 109
f 101 109 110
f 101 110 103
f 101 103 102
f 103 110 111
f 106 112 113
f 106 107 112
f 107 114 112
f 108 115 116
f 108 116 109
f 109 118 110
f 109 116 119
f 109 119 117
f 110 118 111
f 112 114 113
f 113 114 121
f 113 121 120
f 115 122 123
f 115 123 125
f 115 125 119
f 115 119 116
f 117 119 124
f 119 125 126
f 119 126 124
f 120 121 128
f 120 128 127
f 122 129 130
f 122 130 125
f 122 125 123
f 125 131 132
f 125 132 126
f 125 130 131
f 127 133 134
f 127 128 133
f 128 135 133
f 129 136 137
f 129 137 131
f 129 131 130
f 133 138 134
f 133 135 139
f 133 139 140
f 133 140 138
f 136 138 140
f 136 140 137

