# https://github.com/mikedh/trimesh

o coacd_hull_02_oriented.ply
v 0.06954312 -0.00149300 -0.00005347
v 0.07021169 -0.00154794 -0.00010196
v 0.06912008 -0.00156664 -0.00039290
v 0.06855506 -0.00150703 -0.00029765
v 0.06855506 -0.00150235 -0.00010109
v 0.06855506 -0.00150235 -0.00004134
v 0.07310787 -0.00150586 0.00088518
v 0.07270259 -0.00156314 0.00055440
v 0.07176480 -0.00157015 0.00026605
v 0.09592816 -0.00214761 0.00530130
v 0.07185355 -0.00169406 -0.00001883
v 0.06874143 -0.00166016 -0.00052279
v 0.06855506 -0.00169757 -0.00057820
v 0.06855506 -0.00158535 -0.00045871
v 0.07147785 -0.00177004 -0.00015218
v 0.06855506 -0.00156197 0.00024354
v 0.07301320 -0.00161107 0.00135363
v 0.09570037 -0.00215112 0.00596718
v 0.09583054 -0.00207514 0.00553336
v 0.09537496 -0.00206812 0.00541993
v 0.09622400 -0.00214060 0.00566065
v 0.09680974 -0.00241414 0.00565546
v 0.09649912 -0.00244219 0.00529697
v 0.09611158 -0.00251233 0.00504672
v 0.09553176 -0.00222944 0.00508569
v 0.08040598 -0.00213008 0.00163505
v 0.07210205 -0.00185421 -0.00007944
v 0.06915262 -0.00177823 -0.00053578
v 0.06855506 -0.00206696 -0.00072801
v 0.07183580 -0.00196760 -0.00019721
v 0.06855506 -0.00158067 0.00029636
v 0.06899288 -0.00170575 0.00067216
v 0.06857872 -0.00174082 0.00064013
v 0.06855506 -0.00174666 0.00064186
v 0.06869113 -0.00208332 0.00101679
v 0.09529509 -0.00239543 0.00627458
v 0.09610862 -0.00224113 0.00614729
v 0.09665887 -0.00234867 0.00614296
v 0.09707598 -0.00253103 0.00621397
v 0.09737773 -0.00277885 0.00586414
v 0.09722094 -0.00277768 0.00564766
v 0.09702866 -0.00279404 0.00545630
v 0.09664111 -0.00286418 0.00520692
v 0.09773272 -0.00964176 0.00422758
v 0.09732744 -0.00973294 0.00403794
v 0.09581280 -0.00919288 0.00373747
v 0.09206463 -0.00877790 0.00284645
v 0.08712427 -0.00447149 0.00249923
v 0.08719528 -0.00305706 0.00288369
v 0.08096807 -0.00243751 0.00166622
v 0.07603954 -0.00220606 0.00063926
v 0.07068798 -0.00210904 -0.00042840
v 0.06855506 -0.00213359 -0.00074706
v 0.07055190 -0.00248544 -0.00054876
v 0.07553367 -0.00234049 0.00048859
v 0.07614900 -0.00257896 0.00056652
v 0.07521121 -0.00450773 0.00001321
v 0.06855506 -0.00168822 0.00052323
v 0.06855506 -0.00210670 0.00098822
v 0.06927983 -0.00240011 0.00116746
v 0.08690536 -0.00299510 0.00489779
v 0.09288111 -0.00291795 0.00611872
v 0.09512942 -0.00280339 0.00655080
v 0.09583054 -0.00245739 0.00641139
v 0.09654349 -0.00256610 0.00653348
v 0.09709078 -0.00274612 0.00660622
v 0.09741028 -0.00296120 0.00662094
v 0.09749606 -0.00282210 0.00619751
v 0.09778006 -0.00320318 0.00613863
v 0.09752861 -0.00317395 0.00565546
v 0.09715882 -0.00323006 0.00540434
v 0.09815280 -0.00964994 0.00448995
v 0.09787473 -0.01012687 0.00421892
v 0.09746057 -0.01025312 0.00404054
v 0.09690440 -0.00984866 0.00391845
v 0.09163864 -0.00889597 0.00274428
v 0.07645962 -0.00796665 -0.00025522
v 0.06855506 -0.00300796 -0.00090032
v 0.06928279 -0.00328150 -0.00089426
v 0.07473789 -0.00463280 -0.00010022
v 0.06855506 -0.00260234 0.00098302
v 0.06885087 -0.00252635 0.00107741
v 0.09320061 -0.00334813 0.00624167
v 0.09520042 -0.00324526 0.00663653
v 0.09576546 -0.00304654 0.00667116
v 0.09614412 -0.00292146 0.00668242
v 0.09660266 -0.00276014 0.00667116
v 0.09714107 -0.00309563 0.00678113
v 0.09768835 -0.00334345 0.00656033
v 0.09869418 -0.01000179 0.00599749
v 0.09872375 -0.00965929 0.00562948
v 0.09877405 -0.01009998 0.00549093
v 0.09782739 -0.00364504 0.00599749
v 0.09765877 -0.00362517 0.00568663
v 0.09846342 -0.00956577 0.00491597
v 0.09859063 -0.01004738 0.00495840
v 0.09822972 -0.01003686 0.00451246
v 0.09791023 -0.01062484 0.00444752
v 0.09751381 -0.01070200 0.00421892
v 0.08545284 -0.01191186 0.00144109
v 0.08543213 -0.01163131 0.00140818
v 0.06905796 -0.01110996 -0.00203553
v 0.07735895 -0.00817706 -0.00009676
v 0.06855506 -0.00842137 -0.00172640
v 0.06864971 -0.00939160 -0.00185195
v 0.06855801 -0.00841787 -0.00172553
v 0.06855506 -0.01248464 0.00044703
v 0.07186243 -0.00893454 0.00147832
v 0.07224996 -0.00888895 0.00156145
v 0.07833222 -0.00906897 0.00279017
v 0.09766763 -0.01018298 0.00624774
v 0.09810251 -0.01005089 0.00631181
v 0.09669140 -0.00325110 0.00677594
v 0.08826913 -0.01147467 0.00439296
v 0.09727123 -0.00353282 0.00673351
v 0.09862022 -0.00975982 0.00608062
v 0.09826522 -0.01044015 0.00613430
v 0.09868529 -0.01023792 0.00591263
v 0.09856993 -0.01049626 0.00530043
v 0.09858176 -0.00957980 0.00512639
v 0.09818535 -0.01058276 0.00469950
v 0.09793389 -0.01069966 0.00456528
v 0.09750789 -0.01090422 0.00439123
v 0.08546762 -0.01222865 0.00163159
v 0.08591729 -0.01207785 0.00165237
v 0.08494401 -0.01184523 0.00132766
v 0.07777014 -0.01280026 0.00014829
v 0.07551593 -0.01271259 -0.00043446
v 0.07188313 -0.01251621 -0.00126487
v 0.07141867 -0.01237593 -0.00139735
v 0.07104002 -0.01203927 -0.00152031
v 0.07062881 -0.01233034 -0.00156361
v 0.06903726 -0.01163949 -0.00196366
v 0.06859942 -0.01143843 -0.00206064
v 0.06855506 -0.01141973 -0.00206323
v 0.06855506 -0.01088201 -0.00202427
v 0.06855506 -0.00938810 -0.00186321
v 0.06855506 -0.01282014 0.00039248
v 0.07048681 -0.01247880 0.00085574
v 0.09711444 -0.01035599 0.00610832
v 0.09741028 -0.01070784 0.00602866
v 0.09789838 -0.01058744 0.00610053
v 0.08840817 -0.01190017 0.00431157
v 0.08784313 -0.01159390 0.00428646
v 0.07456927 -0.01254192 0.00162986
v 0.09845160 -0.01060497 0.00572559
v 0.09830664 -0.01068914 0.00516189
v 0.09780964 -0.01092293 0.00495754
v 0.09741323 -0.01108541 0.00479994
v 0.09699020 -0.01117659 0.00465966
v 0.09341954 -0.01179847 0.00402062
v 0.08575459 -0.01235489 0.00186538
v 0.08505347 -0.01237944 0.00167575
v 0.08003028 -0.01287975 0.00073538
v 0.07512543 -0.01279793 -0.00047170
v 0.07216418 -0.01276987 -0.00110468
v 0.07171156 -0.01280260 -0.00116962
v 0.07017620 -0.01255595 -0.00152551
v 0.07015845 -0.01225904 -0.00164673
v 0.06874143 -0.01217370 -0.00183983
v 0.06855506 -0.01218306 -0.00184762
v 0.06855506 -0.01145480 -0.00205544
v 0.06855506 -0.01320472 0.00009720
v 0.06891596 -0.01314510 0.00022016
v 0.06932716 -0.01305977 0.00036737
v 0.07057853 -0.01282364 0.00077434
v 0.08861230 -0.01223683 0.00408384
v 0.09696652 -0.01082941 0.00589791
v 0.09747240 -0.01085513 0.00588146
v 0.08345303 -0.01236308 0.00328460
v 0.08363645 -0.01271259 0.00314952
v 0.07325283 -0.01288677 0.00122461
v 0.07892980 -0.01269389 0.00232951
v 0.09803742 -0.01083993 0.00550652
v 0.09679790 -0.01123971 0.00515323
v 0.09725052 -0.01111697 0.00532381
v 0.09372424 -0.01181834 0.00458520
v 0.09385440 -0.01173886 0.00415224
v 0.08878092 -0.01239814 0.00360845
v 0.08461268 -0.01282949 0.00239965
v 0.08491738 -0.01264830 0.00204116
v 0.07988828 -0.01311354 0.00108347
v 0.07498933 -0.01317783 -0.00020327
v 0.07461660 -0.01296625 -0.00045698
v 0.07224405 -0.01309717 -0.00088214
v 0.07177664 -0.01306094 -0.00098951
v 0.06855506 -0.01317666 -0.00135752
v 0.06855506 -0.01313224 -0.00138610
v 0.06855506 -0.01271727 -0.00160777
v 0.06855506 -0.01259920 -0.00166578
v 0.06855506 -0.01325499 -0.00002662
v 0.06999278 -0.01330174 0.00007642
v 0.07361373 -0.01316381 0.00092328
v 0.07956287 -0.01297911 0.00213122
v 0.07437402 -0.01304691 0.00123414
v 0.07296291 -0.01296859 0.00110252
v 0.09355265 -0.01172366 0.00479648
v 0.09403190 -0.01160442 0.00496360
v 0.08819814 -0.01231749 0.00392797
v 0.09706710 -0.01098722 0.00573166
v 0.08424290 -0.01289846 0.00274514
v 0.07483256 -0.01290547 0.00148179
v 0.09414431 -0.01172015 0.00472720
v 0.08921283 -0.01233619 0.00374094
v 0.07985279 -0.01315212 0.00153461
v 0.07396874 -0.01335318 0.00001321
v 0.07221742 -0.01325265 -0.00069077
v 0.06895737 -0.01322810 -0.00123629
v 0.06855506 -0.01342916 -0.00094448
v 0.06855506 -0.01335435 -0.00028813
v 0.06872959 -0.01339993 -0.00040416
v 0.07381785 -0.01331109 0.00043577
v 0.08023441 -0.01311705 0.00171818
v 0.07427935 -0.01330174 0.00050331
v 0.06880946 -0.01343383 -0.00087521
v 0.07171451 -0.01332746 -0.00060418
v 0.06855506 -0.01342214 -0.00072021
v 0.06855506 -0.01340227 -0.00045092
f 1 2 3
f 1 3 4
f 1 4 5
f 1 5 6
f 1 6 7
f 1 7 2
f 2 7 8
f 2 8 9
f 2 9 10
f 2 10 11
f 2 11 3
f 3 12 13
f 3 13 14
f 3 14 4
f 3 11 15
f 3 15 12
f 4 14 13
f 4 13 29
f 4 29 53
f 4 53 78
f 4 78 104
f 4 104 137
f 4 137 136
f 4 136 135
f 4 135 162
f 4 162 161
f 4 161 190
f 4 190 189
f 4 189 188
f 4 188 187
f 4 187 209
f 4 209 217
f 4 217 218
f 4 218 210
f 4 210 191
f 4 191 163
f 4 163 138
f 4 138 107
f 4 107 81
f 4 81 59
f 4 59 34
f 4 34 58
f 4 58 31
f 4 31 16
f 4 16 6
f 4 6 5
f 6 16 7
f 7 16 17
f 7 17 18
f 7 18 19
f 7 19 20
f 7 20 8
f 8 20 10
f 8 10 9
f 10 20 19
f 10 19 21
f 10 21 22
f 10 22 23
f 10 23 24
f 10 24 25
f 10 25 11
f 11 26 27
f 11 27 15
f 11 25 26
f 12 28 13
f 12 15 28
f 13 28 29
f 15 27 30
f 15 30 28
f 16 31 17
f 17 31 32
f 17 32 33
f 17 33 34
f 17 34 35
f 17 35 36
f 17 36 18
f 18 36 37
f 18 37 21
f 18 21 19
f 21 37 38
f 21 38 39
f 21 39 22
f 22 39 40
f 22 40 41
f 22 41 23
f 23 41 42
f 23 42 24
f 24 42 43
f 24 43 44
f 24 44 45
f 24 45 46
f 24 46 47
f 24 47 48
f 24 48 49
f 24 49 50
f 24 50 26
f 24 26 25
f 26 51 30
f 26 30 27
f 26 50 51
f 28 30 52
f 28 52 29
f 29 52 53
f 30 54 52
f 30 51 55
f 30 55 56
f 30 56 57
f 30 57 54
f 31 58 32
f 32 58 33
f 33 58 34
f 34 59 35
f 35 59 60
f 35 60 61
f 35 61 62
f 35 62 63
f 35 63 36
f 36 63 64
f 36 64 37
f 37 64 65
f 37 65 38
f 38 65 66
f 38 66 39
f 39 66 67
f 39 67 68
f 39 68 40
f 40 68 69
f 40 69 70
f 40 70 41
f 41 70 42
f 42 70 71
f 42 71 43
f 43 71 44
f 44 72 73
f 44 73 45
f 44 71 72
f 45 73 74
f 45 74 75
f 45 75 47
f 45 47 46
f 47 75 76
f 47 76 77
f 47 77 57
f 47 57 48
f 48 50 49
f 48 57 56
f 48 56 55
f 48 55 50
f 50 55 51
f 52 54 53
f 53 54 79
f 53 79 78
f 54 57 80
f 54 80 79
f 57 77 80
f 59 81 82
f 59 82 60
f 60 82 83
f 60 83 61
f 61 83 62
f 62 83 84
f 62 84 63
f 63 84 85
f 63 85 86
f 63 86 87
f 63 87 64
f 64 87 65
f 65 87 66
f 66 88 67
f 66 87 88
f 67 88 89
f 67 89 69
f 67 69 68
f 69 89 90
f 69 90 91
f 69 91 92
f 69 92 93
f 69 93 70
f 70 94 95
f 70 95 72
f 70 72 71
f 70 93 94
f 72 95 96
f 72 96 97
f 72 97 73
f 73 98 99
f 73 99 74
f 73 97 98
f 74 76 75
f 74 99 100
f 74 100 101
f 74 101 76
f 76 101 102
f 76 102 103
f 76 103 77
f 77 103 102
f 77 102 80
f 78 79 104
f 79 80 102
f 79 102 105
f 79 105 106
f 79 106 104
f 81 107 82
f 82 107 108
f 82 108 83
f 83 108 109
f 83 109 110
f 83 110 84
f 84 111 112
f 84 112 113
f 84 113 85
f 84 110 114
f 84 114 111
f 85 113 86
f 86 113 88
f 86 88 87
f 88 112 115
f 88 115 89
f 88 113 112
f 89 112 116
f 89 116 90
f 89 115 112
f 90 116 112
f 90 112 117
f 90 117 118
f 90 118 92
f 90 92 91
f 92 118 119
f 92 119 96
f 92 96 120
f 92 120 93
f 93 120 96
f 93 96 94
f 94 96 95
f 96 119 121
f 96 121 97
f 97 121 98
f 98 121 122
f 98 122 123
f 98 123 99
f 99 123 124
f 99 124 125
f 99 125 100
f 100 126 101
f 100 125 124
f 100 124 127
f 100 127 128
f 100 128 129
f 100 129 130
f 100 130 131
f 100 131 126
f 101 126 102
f 102 131 132
f 102 132 133
f 102 133 134
f 102 134 135
f 102 135 136
f 102 136 137
f 102 137 105
f 102 126 131
f 104 106 105
f 104 105 137
f 107 138 139
f 107 139 108
f 108 139 110
f 108 110 109
f 110 139 114
f 111 140 141
f 111 141 142
f 111 142 112
f 111 114 143
f 111 143 140
f 112 142 117
f 114 144 143
f 114 139 145
f 114 145 144
f 117 146 118
f 117 142 146
f 118 146 119
f 119 146 147
f 119 147 121
f 121 147 122
f 122 147 123
f 123 147 148
f 123 148 149
f 123 149 150
f 123 150 151
f 123 151 152
f 123 152 124
f 124 152 153
f 124 153 154
f 124 154 127
f 127 154 155
f 127 155 128
f 128 155 156
f 128 156 129
f 129 156 157
f 129 157 132
f 129 132 130
f 130 132 131
f 132 158 159
f 132 159 133
f 132 157 158
f 133 160 134
f 133 159 160
f 134 161 162
f 134 162 135
f 134 160 161
f 138 163 164
f 138 164 165
f 138 165 166
f 138 166 145
f 138 145 139
f 140 143 141
f 141 167 168
f 141 168 169
f 141 169 142
f 141 143 167
f 142 169 146
f 143 144 145
f 143 145 170
f 143 170 171
f 143 171 167
f 145 166 172
f 145 172 173
f 145 173 170
f 146 169 174
f 146 174 147
f 147 174 148
f 148 174 149
f 149 175 150
f 149 174 176
f 149 176 175
f 150 175 177
f 150 177 178
f 150 178 151
f 151 178 177
f 151 177 179
f 151 179 180
f 151 180 181
f 151 181 152
f 152 181 154
f 152 154 153
f 154 182 183
f 154 183 155
f 154 181 182
f 155 183 184
f 155 184 185
f 155 185 156
f 156 185 157
f 157 185 186
f 157 186 187
f 157 187 188
f 157 188 158
f 158 188 189
f 158 189 190
f 158 190 160
f 158 160 159
f 160 190 161
f 163 191 192
f 163 192 193
f 163 193 194
f 163 194 195
f 163 195 171
f 163 171 196
f 163 196 164
f 164 196 165
f 165 196 172
f 165 172 166
f 167 177 197
f 167 197 198
f 167 198 168
f 167 171 199
f 167 199 177
f 168 198 200
f 168 200 169
f 169 200 176
f 169 176 174
f 170 173 171
f 171 201 199
f 171 173 172
f 171 172 202
f 171 202 196
f 171 195 194
f 171 194 201
f 172 196 202
f 175 176 200
f 175 200 203
f 175 203 177
f 177 203 197
f 177 199 204
f 177 204 179
f 179 201 180
f 179 204 201
f 180 201 182
f 180 182 181
f 182 205 206
f 182 206 183
f 182 201 205
f 183 206 207
f 183 207 185
f 183 185 184
f 185 207 208
f 185 208 187
f 185 187 186
f 187 208 209
f 191 210 192
f 192 210 211
f 192 211 212
f 192 212 193
f 193 212 194
f 194 212 213
f 194 213 201
f 197 203 198
f 198 203 200
f 199 201 204
f 201 213 205
f 205 213 212
f 205 212 214
f 205 214 206
f 206 212 211
f 206 211 215
f 206 215 216
f 206 216 207
f 206 214 212
f 207 216 209
f 207 209 208
f 209 216 215
f 209 215 217
f 210 218 211
f 211 218 217
f 211 217 215

