# https://github.com/mikedh/trimesh

o coacd_hull_08_oriented.ply
v 0.06249109 0.01354362 0.00187310
v 0.06232085 0.01351613 0.00231457
v 0.06278256 0.01348864 0.00242454
v 0.06855246 0.01307079 0.00277723
v 0.06259684 0.01350376 0.00137704
v 0.05375497 0.01331270 0.00152936
v 0.05384525 0.01330858 0.00201564
v 0.06207582 0.01343641 0.00273895
v 0.06265616 0.01340067 0.00285543
v 0.06855246 0.01301581 0.00324070
v 0.06855246 0.01303368 0.00311852
v 0.06855246 0.01295945 0.00220543
v 0.06282382 0.01320687 0.00090543
v 0.06223058 0.01345840 0.00120681
v 0.05398969 0.01316563 0.00100643
v 0.05332938 0.01324810 0.00139822
v 0.05099253 0.01299794 0.00118074
v 0.05139748 0.01305430 0.00133224
v 0.04805470 0.01271066 0.00133306
v 0.05154193 0.01308866 0.00178268
v 0.05316947 0.01325635 0.00184866
v 0.05211711 0.01313952 0.00206940
v 0.05258654 0.01317663 0.00216470
v 0.05302760 0.01320824 0.00228932
v 0.05347640 0.01322474 0.00240988
v 0.06186174 0.01329209 0.00316495
v 0.06248851 0.01326735 0.00327084
v 0.05398969 0.01322474 0.00248074
v 0.05382461 0.01307629 0.00294177
v 0.06839772 0.01289760 0.00363168
v 0.06855246 0.01287423 0.00366915
v 0.06855246 0.01285774 0.00205962
v 0.06241113 0.01310240 0.00078406
v 0.06855246 0.01262544 0.00178431
v 0.06855246 0.01254023 0.00169716
v 0.06783542 0.01202890 0.00115060
v 0.05374208 0.01304467 0.00079302
v 0.05353831 0.01309416 0.00090054
v 0.05113440 0.01287148 0.00067654
v 0.04831779 0.01267218 0.00079139
v 0.04762654 0.01264194 0.00119948
v 0.04748209 0.01260070 0.00164258
v 0.05134847 0.01302268 0.00225756
v 0.05228219 0.01307491 0.00254672
v 0.05313336 0.01310378 0.00276583
v 0.06151870 0.01316563 0.00346877
v 0.06175083 0.01314776 0.00352823
v 0.06245756 0.01307354 0.00367892
v 0.06855246 0.01268318 0.00409759
v 0.05326748 0.01292097 0.00323826
v 0.05372918 0.01289485 0.00334741
v 0.06593189 0.01185296 0.00076207
v 0.06260975 0.01293471 0.00073926
v 0.05915863 0.01235879 0.00014139
v 0.05907351 0.01257321 0.00026765
v 0.05105186 0.01269692 0.00041101
v 0.06855246 0.01210450 0.00137949
v 0.06855246 0.01175537 0.00116608
v 0.06855246 0.01146123 0.00100317
v 0.04863246 0.01256909 0.00046802
v 0.04834616 0.01254297 0.00051119
v 0.04713904 0.01250036 0.00099503
v 0.04704619 0.01253198 0.00144709
v 0.04749241 0.01244401 0.00207347
v 0.04790510 0.01263369 0.00176313
v 0.04695591 0.01235879 0.00191708
v 0.05081714 0.01286049 0.00257848
v 0.05163736 0.01290997 0.00281877
v 0.05194430 0.01286186 0.00306232
v 0.05271294 0.01293884 0.00309979
v 0.06150064 0.01301993 0.00375223
v 0.06232860 0.01253473 0.00444621
v 0.06341448 0.01292371 0.00387278
v 0.06105958 0.01273128 0.00418067
v 0.06855246 0.01224745 0.00472560
v 0.05266135 0.01245638 0.00390943
v 0.05359248 0.01238765 0.00412529
v 0.05443075 0.01236704 0.00422384
v 0.06042764 0.01278764 0.00404546
v 0.06545988 0.00916028 0.00004446
v 0.06437398 0.00103411 -0.00147057
v 0.04928761 0.01031075 -0.00080835
v 0.05060821 0.01178286 -0.00036525
v 0.05055920 0.01187496 -0.00028787
v 0.04867115 0.01241927 0.00030349
v 0.06855246 0.00238527 -0.00012822
v 0.06480731 0.00109047 -0.00136957
v 0.04792057 0.01228594 0.00036376
v 0.04693786 0.01222683 0.00067654
v 0.04669024 0.01231893 0.00092172
v 0.04677794 0.01243026 0.00116526
v 0.04380658 0.01141862 0.00128256
v 0.04377047 0.01141312 0.00150981
v 0.04688885 0.01209900 0.00230399
v 0.04742277 0.01218560 0.00245549
v 0.04902452 0.01232443 0.00293362
v 0.04995823 0.01240140 0.00319672
v 0.05094611 0.01243576 0.00355267
v 0.04871242 0.01252373 0.00242535
v 0.04382721 0.01131965 0.00174114
v 0.05149807 0.01250861 0.00358525
v 0.05994790 0.01223371 0.00467998
v 0.06115759 0.01195330 0.00496996
v 0.06323652 0.01239590 0.00459364
v 0.06829454 0.01211962 0.00489421
v 0.06855246 0.01207839 0.00493331
v 0.05176117 0.01182822 0.00444133
v 0.05354862 0.01204127 0.00450649
v 0.06817588 0.00104511 -0.00022678
v 0.06430951 0.00075508 -0.00109263
v 0.05391747 -0.00049573 -0.00186155
v 0.05537736 0.00069873 -0.00176869
v 0.05591385 0.00475082 -0.00130766
v 0.04899357 0.01002898 -0.00084664
v 0.04258398 0.00990252 0.00000455
v 0.04282128 0.00998911 -0.00000278
v 0.04776840 0.01190382 0.00011044
v 0.04763943 0.01207426 0.00024973
v 0.06855246 0.00214885 -0.00015591
v 0.06776062 0.00120043 -0.00040597
v 0.04660771 0.01183922 0.00038657
v 0.04275938 0.01006884 0.00004609
v 0.04387364 0.01127154 0.00101458
v 0.04354091 0.01119182 0.00110255
v 0.04346611 0.01126055 0.00138356
v 0.04285997 0.01091004 0.00160674
v 0.04285739 0.01077397 0.00188450
v 0.04358992 0.01124680 0.00166539
v 0.04711841 0.01180623 0.00279434
v 0.04947073 0.01177874 0.00383124
v 0.05075007 0.01182960 0.00418963
v 0.04335520 0.01091554 0.00197410
v 0.05386588 0.01161792 0.00491539
v 0.05520712 0.01145573 0.00512065
v 0.06201908 0.01185846 0.00506037
v 0.05640134 0.01107636 0.00541388
v 0.06700230 0.01155194 0.00530962
v 0.06855246 0.01151071 0.00534546
v 0.05152645 0.01107361 0.00500987
v 0.05264844 0.01170864 0.00470849
v 0.06830743 0.00132414 -0.00021537
v 0.06855246 0.00113995 -0.00008342
v 0.06854473 0.00113720 -0.00008586
v 0.06855246 0.00105198 0.00009904
v 0.06833322 0.00100112 0.00002329
v 0.06801081 0.00093377 -0.00008423
v 0.06761876 0.00091178 -0.00018361
v 0.05499562 -0.00049573 -0.00154225
v 0.05477380 -0.00049573 -0.00161637
v 0.05435079 -0.00049573 -0.00174100
v 0.04936499 -0.00049573 -0.00195929
v 0.04623370 0.00411029 -0.00137690
v 0.04220740 0.00167876 -0.00097859
v 0.04220740 0.00657343 -0.00031230
v 0.04220740 0.00984616 0.00013895
v 0.04220740 0.00996437 0.00020574
v 0.04379110 0.00200590 -0.00125391
v 0.04356412 0.00191518 -0.00122295
v 0.04289608 0.01091142 0.00136727
v 0.04263041 0.01073685 0.00149841
v 0.04220740 0.01035336 0.00174196
v 0.04270263 0.01075197 0.00176558
v 0.04220740 0.01022141 0.00190079
v 0.04220740 0.01019392 0.00192930
v 0.04281097 0.01043171 0.00213130
v 0.04328814 0.01051968 0.00227059
v 0.04731186 0.01134852 0.00333682
v 0.04819657 0.01152720 0.00357059
v 0.04680631 0.01151758 0.00294828
v 0.05007172 0.01089080 0.00475981
v 0.04895746 0.01086468 0.00438268
v 0.05259944 0.01089767 0.00529740
v 0.05346093 0.01074235 0.00549533
v 0.05449008 0.01117945 0.00528437
v 0.06129945 0.01157806 0.00522491
v 0.06855246 0.01120144 0.00555642
v 0.05452361 0.01049906 0.00568757
v 0.05700490 0.01099114 0.00548230
v 0.05165026 0.01005784 0.00558493
v 0.06855246 0.00102037 0.00034258
v 0.06794375 0.00089941 0.00011859
v 0.05525355 -0.00049573 -0.00140622
v 0.05517617 -0.00049573 -0.00145509
v 0.04681147 -0.00049573 -0.00186236
v 0.04557340 0.00075096 -0.00170434
v 0.04220740 0.00146984 -0.00100384
v 0.04220740 0.01036298 0.00148782
v 0.04220740 -0.00049573 -0.00120015
v 0.04220740 0.01036436 0.00155380
v 0.04220740 0.00971009 0.00216470
v 0.04220740 0.00967435 0.00218099
v 0.04730412 0.00935683 0.00453581
v 0.04760332 0.00999599 0.00438268
v 0.04808823 0.01075197 0.00412040
v 0.04897035 0.01041522 0.00467184
v 0.05014652 0.00975819 0.00536664
v 0.06855246 0.01101038 0.00564847
v 0.05642713 0.01079596 0.00557597
v 0.05534899 0.01029288 0.00581137
v 0.05183338 0.00910392 0.00594333
v 0.05094353 0.00881390 0.00587165
v 0.06855246 0.00111383 0.00061220
v 0.06820425 0.00103549 0.00053400
v 0.05540057 -0.00049573 -0.00085152
v 0.05539283 -0.00049573 -0.00092402
v 0.05536188 -0.00049573 -0.00114720
v 0.05487439 -0.00049573 -0.00049639
v 0.05519423 -0.00049573 -0.00063975
v 0.05529740 -0.00049573 -0.00073830
v 0.04614343 -0.00049573 -0.00180616
v 0.04593450 -0.00049573 -0.00177684
v 0.04220740 -0.00049573 0.00020819
v 0.04220740 0.00919327 0.00224615
v 0.04664640 0.00763868 0.00469057
v 0.04745888 0.00813489 0.00502942
v 0.04821203 0.00908056 0.00500498
v 0.04815013 0.00966748 0.00474922
v 0.04917412 0.00956714 0.00515975
v 0.04995049 0.00842079 0.00576169
v 0.06815784 0.01088255 0.00569327
v 0.06855246 0.01066126 0.00576495
v 0.05564819 0.00939532 0.00610461
v 0.05671860 0.00979393 0.00600523
v 0.05108539 0.00833282 0.00601175
v 0.05202941 0.00811977 0.00620724
v 0.05382203 0.00874655 0.00616570
v 0.06855246 0.00113858 0.00064885
v 0.06851120 0.00112346 0.00063663
v 0.06019035 0.00118668 0.00193744
v 0.04610474 -0.00049573 0.00083375
v 0.04626982 -0.00049573 0.00080931
v 0.04527936 0.00356461 0.00330668
v 0.04447204 0.00338729 0.00291326
v 0.04419864 0.00423812 0.00307372
v 0.04354348 0.00412541 0.00263632
v 0.04343000 0.00411166 0.00253531
v 0.04331135 0.00453502 0.00254183
v 0.04319528 0.00501473 0.00254427
v 0.04220740 0.00871356 0.00219077
v 0.04291156 -0.00049573 0.00040938
v 0.04939852 0.00424224 0.00516871
v 0.04391491 0.00513843 0.00309083
v 0.04456231 0.00617757 0.00359828
v 0.04530000 0.00709850 0.00399333
v 0.04690691 0.00669576 0.00484045
v 0.04771423 0.00687445 0.00523061
v 0.04853703 0.00707650 0.00555235
v 0.04836164 0.00831770 0.00532754
v 0.05024453 0.00756034 0.00596532
v 0.06855246 0.00991214 0.00594007
v 0.05774001 0.00932797 0.00611520
v 0.05423472 0.00692943 0.00636200
v 0.05245500 0.00628066 0.00623819
v 0.06855246 0.00257907 0.00200016
v 0.06143874 0.00226156 0.00322930
v 0.06060562 0.00202514 0.00317880
v 0.05968222 0.00176123 0.00296620
v 0.04576427 -0.00049573 0.00087529
v 0.04927213 0.00461611 0.00529333
v 0.04739181 0.00493500 0.00467836
v 0.04580038 0.00458037 0.00389966
v 0.04499564 0.00440581 0.00349972
v 0.04470417 0.00526626 0.00356326
v 0.04540059 -0.00049573 0.00083864
v 0.05163993 0.00333506 0.00507259
v 0.05046119 0.00387525 0.00522654
v 0.05129173 0.00408830 0.00551896
v 0.04554245 0.00545320 0.00400066
v 0.04634203 0.00562501 0.00441037
v 0.04714936 0.00580370 0.00479972
v 0.04877175 0.00617207 0.00554828
v 0.05073202 0.00577621 0.00588387
v 0.06814493 0.00974582 0.00595799
v 0.06855246 0.00937745 0.00595229
v 0.05898581 0.00861597 0.00617384
v 0.05497756 0.00521403 0.00605736
v 0.06855246 0.00896372 0.00593111
v 0.05303018 0.00461199 0.00582033
v 0.06855246 0.00272890 0.00213130
v 0.06108795 0.00287322 0.00384346
v 0.06014392 0.00264505 0.00383694
v 0.05898839 0.00274402 0.00415787
v 0.05825328 0.00233716 0.00382228
v 0.05410318 0.00239489 0.00436394
v 0.05541347 0.00208150 0.00382798
v 0.05455456 0.00178597 0.00352742
v 0.05585453 0.00142585 0.00286764
v 0.04568173 -0.00049573 0.00087366
v 0.05306888 0.00240726 0.00448857
v 0.04900388 0.00531712 0.00545949
v 0.05201394 0.00261756 0.00452522
v 0.05369049 0.00305878 0.00506689
v 0.05518907 0.00413916 0.00563381
v 0.06855246 0.00804004 0.00567698
v 0.06855246 0.00285398 0.00223068
v 0.05961000 0.00335018 0.00452441
v 0.05752850 0.00362233 0.00502290
v 0.05544442 0.00361134 0.00528437
v 0.05451329 0.00332406 0.00517685
v 0.05385299 0.00276189 0.00481357
v 0.05632654 0.00389311 0.00538130
v 0.05722157 0.00419001 0.00542366
v 0.06855246 0.00788197 0.00560122
v 0.06855246 0.00718509 0.00515893
v 0.06855246 0.00725244 0.00520373
f 1 2 3
f 1 3 4
f 1 4 5
f 1 5 6
f 1 6 7
f 1 7 2
f 2 8 3
f 2 7 8
f 3 8 9
f 3 9 10
f 3 10 11
f 3 11 4
f 4 11 10
f 4 10 31
f 4 31 49
f 4 49 75
f 4 75 106
f 4 106 138
f 4 138 176
f 4 176 197
f 4 197 221
f 4 221 250
f 4 250 274
f 4 274 277
f 4 277 294
f 4 294 303
f 4 303 305
f 4 305 304
f 4 304 295
f 4 295 279
f 4 279 254
f 4 254 227
f 4 227 202
f 4 202 180
f 4 180 144
f 4 144 142
f 4 142 119
f 4 119 86
f 4 86 59
f 4 59 58
f 4 58 57
f 4 57 35
f 4 35 34
f 4 34 32
f 4 32 12
f 4 12 5
f 5 12 13
f 5 13 14
f 5 14 6
f 6 15 16
f 6 16 17
f 6 17 18
f 6 18 19
f 6 19 20
f 6 20 21
f 6 21 7
f 6 14 15
f 7 21 22
f 7 22 23
f 7 23 24
f 7 24 25
f 7 25 8
f 8 26 27
f 8 27 9
f 8 25 28
f 8 28 29
f 8 29 26
f 9 27 30
f 9 30 10
f 10 30 31
f 12 32 13
f 13 33 14
f 13 32 34
f 13 34 35
f 13 35 36
f 13 36 33
f 14 33 37
f 14 37 15
f 15 37 38
f 15 38 39
f 15 39 16
f 16 39 17
f 17 39 40
f 17 40 19
f 17 19 18
f 19 40 41
f 19 41 42
f 19 42 43
f 19 43 22
f 19 22 20
f 20 22 21
f 22 43 24
f 22 24 23
f 24 43 44
f 24 44 25
f 25 44 45
f 25 45 28
f 26 46 27
f 26 29 46
f 27 46 47
f 27 47 48
f 27 48 49
f 27 49 30
f 28 45 29
f 29 45 50
f 29 50 51
f 29 51 46
f 30 49 31
f 33 36 52
f 33 52 53
f 33 53 54
f 33 54 55
f 33 55 56
f 33 56 37
f 35 57 36
f 36 57 58
f 36 58 59
f 36 59 52
f 37 56 39
f 37 39 38
f 39 56 60
f 39 60 40
f 40 60 61
f 40 61 62
f 40 62 41
f 41 62 63
f 41 63 42
f 42 64 65
f 42 65 43
f 42 63 66
f 42 66 64
f 43 65 67
f 43 67 44
f 44 67 68
f 44 68 45
f 45 68 69
f 45 69 70
f 45 70 50
f 46 51 47
f 47 51 71
f 47 71 48
f 48 72 73
f 48 73 49
f 48 71 74
f 48 74 72
f 49 73 75
f 50 70 76
f 50 76 51
f 51 76 77
f 51 77 78
f 51 78 79
f 51 79 71
f 52 59 80
f 52 80 54
f 52 54 53
f 54 80 81
f 54 81 82
f 54 82 83
f 54 83 55
f 55 83 84
f 55 84 56
f 56 84 85
f 56 85 60
f 59 86 87
f 59 87 81
f 59 81 80
f 60 85 61
f 61 85 88
f 61 88 89
f 61 89 90
f 61 90 62
f 62 90 91
f 62 91 63
f 63 91 92
f 63 92 93
f 63 93 66
f 64 66 94
f 64 94 95
f 64 95 96
f 64 96 97
f 64 97 98
f 64 98 99
f 64 99 67
f 64 67 65
f 66 93 100
f 66 100 94
f 67 69 68
f 67 99 69
f 69 99 98
f 69 98 101
f 69 101 70
f 70 101 76
f 71 79 74
f 72 74 102
f 72 102 103
f 72 103 104
f 72 104 105
f 72 105 75
f 72 75 73
f 74 79 78
f 74 78 102
f 75 105 106
f 76 101 98
f 76 98 107
f 76 107 108
f 76 108 77
f 77 108 78
f 78 108 102
f 81 87 109
f 81 109 110
f 81 110 111
f 81 111 112
f 81 112 113
f 81 113 82
f 82 114 115
f 82 115 116
f 82 116 83
f 82 113 114
f 83 116 117
f 83 117 85
f 83 85 84
f 85 117 118
f 85 118 88
f 86 119 87
f 87 119 120
f 87 120 109
f 88 118 121
f 88 121 89
f 89 121 122
f 89 122 123
f 89 123 90
f 90 123 92
f 90 92 91
f 92 123 124
f 92 124 125
f 92 125 93
f 93 125 126
f 93 126 127
f 93 127 128
f 93 128 100
f 94 129 95
f 94 100 129
f 95 129 130
f 95 130 96
f 96 130 98
f 96 98 97
f 98 130 131
f 98 131 107
f 100 128 127
f 100 127 132
f 100 132 129
f 102 108 133
f 102 133 134
f 102 134 103
f 103 135 106
f 103 106 105
f 103 105 104
f 103 134 136
f 103 136 135
f 106 137 138
f 106 135 137
f 107 139 140
f 107 140 108
f 107 131 139
f 108 140 133
f 109 120 141
f 109 141 142
f 109 142 143
f 109 143 144
f 109 144 145
f 109 145 146
f 109 146 110
f 110 146 147
f 110 147 148
f 110 148 149
f 110 149 150
f 110 150 111
f 111 151 112
f 111 150 149
f 111 149 148
f 111 148 183
f 111 183 182
f 111 182 206
f 111 206 205
f 111 205 204
f 111 204 209
f 111 209 208
f 111 208 207
f 111 207 231
f 111 231 230
f 111 230 258
f 111 258 288
f 111 288 264
f 111 264 240
f 111 240 212
f 111 212 188
f 111 188 211
f 111 211 210
f 111 210 184
f 111 184 151
f 112 151 114
f 112 114 113
f 114 151 152
f 114 152 115
f 115 153 154
f 115 154 155
f 115 155 156
f 115 156 122
f 115 122 116
f 115 152 157
f 115 157 158
f 115 158 153
f 116 122 117
f 117 122 118
f 118 122 121
f 119 142 141
f 119 141 120
f 122 156 123
f 123 156 124
f 124 156 159
f 124 159 125
f 125 159 126
f 126 159 160
f 126 160 161
f 126 161 162
f 126 162 127
f 127 162 163
f 127 163 164
f 127 164 165
f 127 165 166
f 127 166 167
f 127 167 168
f 127 168 132
f 129 132 169
f 129 169 168
f 129 168 130
f 130 170 131
f 130 168 171
f 130 171 170
f 131 170 139
f 132 168 169
f 133 140 172
f 133 172 173
f 133 173 174
f 133 174 134
f 134 174 136
f 135 136 175
f 135 175 176
f 135 176 137
f 136 174 177
f 136 177 178
f 136 178 175
f 137 176 138
f 139 179 172
f 139 172 140
f 139 170 179
f 142 144 143
f 144 180 145
f 145 180 146
f 146 180 181
f 146 181 182
f 146 182 183
f 146 183 148
f 146 148 147
f 151 184 185
f 151 185 152
f 152 185 157
f 153 186 188
f 153 188 212
f 153 212 239
f 153 239 213
f 153 213 191
f 153 191 190
f 153 190 164
f 153 164 163
f 153 163 161
f 153 161 189
f 153 189 187
f 153 187 156
f 153 156 155
f 153 155 154
f 153 158 186
f 156 187 160
f 156 160 159
f 157 185 158
f 158 185 188
f 158 188 186
f 160 187 189
f 160 189 161
f 161 163 162
f 164 190 165
f 165 190 191
f 165 191 192
f 165 192 193
f 165 193 194
f 165 194 166
f 166 194 167
f 167 194 168
f 168 194 171
f 170 171 195
f 170 195 196
f 170 196 179
f 171 194 195
f 172 179 173
f 173 177 174
f 173 179 177
f 175 178 176
f 176 178 198
f 176 198 199
f 176 199 197
f 177 199 198
f 177 198 178
f 177 179 200
f 177 200 199
f 179 196 201
f 179 201 200
f 180 202 203
f 180 203 181
f 181 204 205
f 181 205 206
f 181 206 182
f 181 203 207
f 181 207 208
f 181 208 209
f 181 209 204
f 184 210 185
f 185 210 211
f 185 211 188
f 191 213 214
f 191 214 215
f 191 215 192
f 192 215 216
f 192 216 217
f 192 217 193
f 193 217 195
f 193 195 194
f 195 218 196
f 195 217 218
f 196 219 201
f 196 218 219
f 197 220 221
f 197 199 220
f 199 222 223
f 199 223 220
f 199 200 222
f 200 201 224
f 200 224 225
f 200 225 226
f 200 226 222
f 201 219 224
f 202 227 228
f 202 228 203
f 203 228 229
f 203 229 230
f 203 230 231
f 203 231 207
f 212 232 233
f 212 233 234
f 212 234 235
f 212 235 236
f 212 236 237
f 212 237 238
f 212 238 239
f 212 240 241
f 212 241 232
f 213 239 238
f 213 238 242
f 213 242 243
f 213 243 244
f 213 244 214
f 214 244 245
f 214 245 246
f 214 246 215
f 215 246 247
f 215 247 248
f 215 248 216
f 216 248 218
f 216 218 217
f 218 248 219
f 219 249 224
f 219 248 247
f 219 247 249
f 220 223 221
f 221 223 222
f 221 222 251
f 221 251 250
f 222 226 252
f 222 252 251
f 224 249 225
f 225 249 253
f 225 253 252
f 225 252 226
f 227 254 255
f 227 255 256
f 227 256 228
f 228 256 257
f 228 257 229
f 229 257 230
f 230 257 258
f 232 241 259
f 232 259 260
f 232 260 233
f 233 260 261
f 233 261 262
f 233 262 234
f 234 262 263
f 234 263 242
f 234 242 235
f 235 237 236
f 235 242 237
f 237 242 238
f 240 264 265
f 240 265 266
f 240 266 241
f 241 266 267
f 241 267 259
f 242 263 243
f 243 263 245
f 243 245 244
f 245 263 268
f 245 268 269
f 245 269 246
f 246 269 270
f 246 270 271
f 246 271 247
f 247 271 249
f 249 272 253
f 249 271 272
f 250 273 274
f 250 251 275
f 250 275 273
f 251 252 275
f 252 276 277
f 252 277 274
f 252 274 273
f 252 273 275
f 252 253 276
f 253 272 267
f 253 267 278
f 253 278 276
f 254 279 280
f 254 280 255
f 255 280 281
f 255 281 282
f 255 282 256
f 256 282 283
f 256 283 257
f 257 283 284
f 257 284 285
f 257 285 286
f 257 286 287
f 257 287 258
f 258 287 286
f 258 286 289
f 258 289 288
f 259 267 290
f 259 290 260
f 260 290 270
f 260 270 269
f 260 269 261
f 261 269 262
f 262 269 268
f 262 268 263
f 264 288 289
f 264 289 291
f 264 291 265
f 265 267 266
f 265 291 289
f 265 289 292
f 265 292 267
f 267 272 290
f 267 292 278
f 270 290 271
f 271 290 272
f 276 278 293
f 276 293 294
f 276 294 277
f 278 292 293
f 279 295 280
f 280 295 296
f 280 296 282
f 280 282 281
f 282 296 297
f 282 297 298
f 282 298 299
f 282 299 300
f 282 300 283
f 283 300 284
f 284 300 289
f 284 289 285
f 285 289 286
f 289 300 292
f 292 300 299
f 292 299 293
f 293 298 301
f 293 301 302
f 293 302 294
f 293 299 298
f 294 302 303
f 295 304 296
f 296 302 301
f 296 301 297
f 296 304 305
f 296 305 303
f 296 303 302
f 297 301 298

