# https://github.com/mikedh/trimesh

o decomp_13.obj
v -0.01435890 0.01800498 -0.00106523 0.67843137 0.35686275 0.43529412
v -0.01435890 0.00826359 -0.00106523 0.67843137 0.35686275 0.43529412
v -0.01435890 0.01800498 -0.00866706 0.67843137 0.35686275 0.43529412
v -0.07268915 0.01800498 -0.00106523 0.67843137 0.35686275 0.43529412
v -0.01435890 0.00840369 -0.00414243 0.67843137 0.35686275 0.43529412
v -0.03228355 0.00820121 -0.00106523 0.67843137 0.35686275 0.43529412
v -0.03265489 0.00820121 -0.00866706 0.67843137 0.35686275 0.43529412
v -0.01435890 0.00861002 -0.00866706 0.67843137 0.35686275 0.43529412
v -0.07268915 0.01800498 -0.00866706 0.67843137 0.35686275 0.43529412
v -0.07287187 0.01798963 -0.00106523 0.67843137 0.35686275 0.43529412
v -0.07457534 0.00820121 -0.00106523 0.67843137 0.35686275 0.43529412
v -0.07457534 0.00820121 -0.00866706 0.67843137 0.35686275 0.43529412
v -0.07299566 0.01797907 -0.00866706 0.67843137 0.35686275 0.43529412
v -0.07308407 0.01797139 -0.00106523 0.67843137 0.35686275 0.43529412
v -0.07457534 0.01705109 -0.00106523 0.67843137 0.35686275 0.43529412
v -0.07457534 0.01705109 -0.00866706 0.67843137 0.35686275 0.43529412
v -0.07308407 0.01797139 -0.00866706 0.67843137 0.35686275 0.43529412
v -0.07329037 0.01791957 -0.00106523 0.67843137 0.35686275 0.43529412
v -0.07443977 0.01723246 -0.00106523 0.67843137 0.35686275 0.43529412
v -0.07443977 0.01723246 -0.00866706 0.67843137 0.35686275 0.43529412
v -0.07338468 0.01789558 -0.00866706 0.67843137 0.35686275 0.43529412
v -0.07346721 0.01787447 -0.00106523 0.67843137 0.35686275 0.43529412
v -0.07415684 0.01749924 -0.00106523 0.67843137 0.35686275 0.43529412
v -0.07415684 0.01749924 -0.00866706 0.67843137 0.35686275 0.43529412
v -0.07346721 0.01787447 -0.00866706 0.67843137 0.35686275 0.43529412
v -0.07363814 0.01779962 -0.00106523 0.67843137 0.35686275 0.43529412
v -0.07400359 0.01760001 -0.00106523 0.67843137 0.35686275 0.43529412
v -0.07382676 0.01771517 -0.00866706 0.67843137 0.35686275 0.43529412
v -0.07375013 0.01774971 -0.00866706 0.67843137 0.35686275 0.43529412
v -0.07382676 0.01771517 -0.00106523 0.67843137 0.35686275 0.43529412
f 1 2 5
f 1 5 8
f 1 8 3
f 1 3 9
f 1 9 4
f 1 4 10
f 1 10 14
f 1 14 18
f 1 18 22
f 1 22 26
f 1 26 30
f 1 30 27
f 1 27 23
f 1 23 19
f 1 19 15
f 1 15 11
f 1 11 6
f 1 6 2
f 2 6 7
f 2 7 5
f 3 8 7
f 3 7 12
f 3 12 16
f 3 16 20
f 3 20 24
f 3 24 28
f 3 28 29
f 3 29 25
f 3 25 21
f 3 21 17
f 3 17 13
f 3 13 9
f 4 9 10
f 5 7 8
f 6 11 12
f 6 12 7
f 9 13 10
f 10 13 14
f 11 15 16
f 11 16 12
f 13 17 14
f 14 17 18
f 15 19 20
f 15 20 16
f 17 21 18
f 18 21 22
f 19 23 24
f 19 24 20
f 21 25 22
f 22 25 26
f 23 27 24
f 24 27 28
f 25 29 26
f 26 29 30
f 27 30 28
f 28 30 29

