# https://github.com/mikedh/trimesh

o decomp_9.obj
v -0.03181849 0.00778945 0.00860147 0.94117647 0.52156863 0.41176471
v -0.03177241 -0.00782204 0.00860147 0.94117647 0.52156863 0.41176471
v -0.03177241 -0.00821845 -0.00012590 0.94117647 0.52156863 0.41176471
v -0.03177241 -0.00826137 -0.00106449 0.94117647 0.52156863 0.41176471
v -0.03228356 0.00778945 -0.00106449 0.94117647 0.52156863 0.41176471
v -0.07457115 0.00778945 0.00860147 0.94117647 0.52156863 0.41176471
v -0.03177241 -0.01800498 0.00860147 0.94117647 0.52156863 0.41176471
v -0.03177241 -0.01800498 -0.00106449 0.94117647 0.52156863 0.41176471
v -0.07457115 0.00778945 -0.00106449 0.94117647 0.52156863 0.41176471
v -0.07457115 -0.01705056 0.00860147 0.94117647 0.52156863 0.41176471
v -0.07268575 -0.01800498 0.00860147 0.94117647 0.52156863 0.41176471
v -0.07268575 -0.01800498 -0.00106449 0.94117647 0.52156863 0.41176471
v -0.07457115 -0.01705056 -0.00106449 0.94117647 0.52156863 0.41176471
v -0.07455439 -0.01707834 -0.00003601 0.94117647 0.52156863 0.41176471
v -0.07443708 -0.01723236 0.00860147 0.94117647 0.52156863 0.41176471
v -0.07308378 -0.01797216 0.00860147 0.94117647 0.52156863 0.41176471
v -0.07308378 -0.01797216 -0.00106449 0.94117647 0.52156863 0.41176471
v -0.07454602 -0.01708844 -0.00106449 0.94117647 0.52156863 0.41176471
v -0.07443708 -0.01723236 -0.00106449 0.94117647 0.52156863 0.41176471
v -0.07437842 -0.01729043 0.00860147 0.94117647 0.52156863 0.41176471
v -0.07346923 -0.01787368 0.00860147 0.94117647 0.52156863 0.41176471
v -0.07326394 -0.01792671 -0.00106449 0.94117647 0.52156863 0.41176471
v -0.07430720 -0.01735608 -0.00106449 0.94117647 0.52156863 0.41176471
v -0.07429882 -0.01736618 -0.00003601 0.94117647 0.52156863 0.41176471
v -0.07421921 -0.01744193 0.00860147 0.94117647 0.52156863 0.41176471
v -0.07346923 -0.01787368 -0.00106449 0.94117647 0.52156863 0.41176471
v -0.07382956 -0.01771461 0.00860147 0.94117647 0.52156863 0.41176471
v -0.07363683 -0.01780046 -0.00106449 0.94117647 0.52156863 0.41176471
v -0.07415637 -0.01749747 -0.00106449 0.94117647 0.52156863 0.41176471
v -0.07415637 -0.01749747 0.00860147 0.94117647 0.52156863 0.41176471
v -0.07408513 -0.01754544 0.00860147 0.94117647 0.52156863 0.41176471
v -0.07400553 -0.01759847 -0.00106449 0.94117647 0.52156863 0.41176471
v -0.07382956 -0.01771461 -0.00106449 0.94117647 0.52156863 0.41176471
f 1 2 3
f 1 3 4
f 1 4 5
f 1 5 9
f 1 9 6
f 1 6 10
f 1 10 15
f 1 15 20
f 1 20 25
f 1 25 30
f 1 30 31
f 1 31 27
f 1 27 21
f 1 21 16
f 1 16 11
f 1 11 7
f 1 7 2
f 2 7 8
f 2 8 4
f 2 4 3
f 4 8 12
f 4 12 17
f 4 17 22
f 4 22 26
f 4 26 28
f 4 28 33
f 4 33 32
f 4 32 29
f 4 29 23
f 4 23 19
f 4 19 18
f 4 18 13
f 4 13 9
f 4 9 5
f 6 9 13
f 6 13 10
f 7 11 12
f 7 12 8
f 10 14 15
f 10 13 14
f 11 16 17
f 11 17 12
f 13 18 14
f 14 18 19
f 14 19 15
f 15 19 20
f 16 21 22
f 16 22 17
f 19 23 24
f 19 24 20
f 20 24 25
f 21 26 22
f 21 27 28
f 21 28 26
f 23 29 24
f 24 29 25
f 25 29 30
f 27 31 32
f 27 32 33
f 27 33 28
f 29 32 31
f 29 31 30

