# https://github.com/mikedh/trimesh
v 0.11413322 0.01534275 0.00335279 0.54509804 0.71372549 0.60000000
v 0.11413322 0.01534275 -0.01676385 0.54509804 0.71372549 0.60000000
v 0.11412440 0.01534275 0.01676388 0.54509804 0.71372549 0.60000000
v 0.11404500 0.01514079 0.01676388 0.54509804 0.71372549 0.60000000
v 0.11404500 0.01514079 -0.01676385 0.54509804 0.71372549 0.60000000
v 0.11401854 0.01515949 -0.01715917 0.54509804 0.71372549 0.60000000
v 0.11408911 0.01534275 -0.01715917 0.54509804 0.71372549 0.60000000
v 0.11411558 0.01534275 0.01692798 0.54509804 0.71372549 0.60000000
v 0.11401854 0.01515949 0.01715920 0.54509804 0.71372549 0.60000000
v 0.11385973 0.01483785 0.01676388 0.54509804 0.71372549 0.60000000
v 0.11395678 0.01498745 0.00000001 0.54509804 0.71372549 0.60000000
v 0.11385973 0.01483785 -0.01676385 0.54509804 0.71372549 0.60000000
v 0.11383327 0.01485655 -0.01715917 0.54509804 0.71372549 0.60000000
v 0.11392149 0.01520437 -0.01754330 0.54509804 0.71372549 0.60000000
v 0.11398325 0.01534275 -0.01754330 0.54509804 0.71372549 0.60000000
v 0.11403618 0.01534275 -0.01735683 0.54509804 0.71372549 0.60000000
v 0.11408911 0.01534275 0.01715920 0.54509804 0.71372549 0.60000000
v 0.11398325 0.01534275 0.01754334 0.54509804 0.71372549 0.60000000
v 0.11392149 0.01520437 0.01754334 0.54509804 0.71372549 0.60000000
v 0.11383327 0.01485655 0.01715920 0.54509804 0.71372549 0.60000000
v 0.11403618 0.01534275 0.01735686 0.54509804 0.71372549 0.60000000
v 0.11363036 0.01456483 0.01676388 0.54509804 0.71372549 0.60000000
v 0.11374504 0.01469947 0.00000001 0.54509804 0.71372549 0.60000000
v 0.11363036 0.01456483 -0.01676385 0.54509804 0.71372549 0.60000000
v 0.11360389 0.01458727 -0.01715917 0.54509804 0.71372549 0.60000000
v 0.11374504 0.01491639 -0.01754330 0.54509804 0.71372549 0.60000000
v 0.11361271 0.01501737 -0.01790506 0.54509804 0.71372549 0.60000000
v 0.11377151 0.01528291 -0.01790506 0.54509804 0.71372549 0.60000000
v 0.11379798 0.01534275 -0.01790506 0.54509804 0.71372549 0.60000000
v 0.11379798 0.01534275 0.01790509 0.54509804 0.71372549 0.60000000
v 0.11377151 0.01528291 0.01790509 0.54509804 0.71372549 0.60000000
v 0.11361271 0.01501737 0.01790509 0.54509804 0.71372549 0.60000000
v 0.11374504 0.01491639 0.01754334 0.54509804 0.71372549 0.60000000
v 0.11360389 0.01458727 0.01715920 0.54509804 0.71372549 0.60000000
v 0.10441991 0.00539059 0.01705851 0.54509804 0.71372549 0.60000000
v 0.10443756 0.00537189 0.01676388 0.54509804 0.71372549 0.60000000
v 0.10443756 0.00537189 -0.01676385 0.54509804 0.71372549 0.60000000
v 0.10441991 0.00539059 -0.01705848 0.54509804 0.71372549 0.60000000
v 0.10434051 0.00546913 -0.01754330 0.54509804 0.71372549 0.60000000
v 0.11352448 0.01466207 -0.01754330 0.54509804 0.71372549 0.60000000
v 0.08603432 -0.01298032 -0.01715917 0.54509804 0.71372549 0.60000000
v 0.08601667 -0.01296162 -0.01725614 0.54509804 0.71372549 0.60000000
v 0.11340980 0.01478175 -0.01790506 0.54509804 0.71372549 0.60000000
v 0.11325099 0.01494257 -0.01823325 0.54509804 0.71372549 0.60000000
v 0.11342744 0.01515201 -0.01823325 0.54509804 0.71372549 0.60000000
v 0.11357742 0.01534275 -0.01819223 0.54509804 0.71372549 0.60000000
v 0.11365682 0.01534275 -0.01809154 0.54509804 0.71372549 0.60000000
v 0.11365682 0.01534275 0.01809156 0.54509804 0.71372549 0.60000000
v 0.11354213 0.01534275 0.01823328 0.54509804 0.71372549 0.60000000
v 0.11342744 0.01515201 0.01823328 0.54509804 0.71372549 0.60000000
v 0.11325099 0.01494257 0.01823328 0.54509804 0.71372549 0.60000000
v 0.11340980 0.01478175 0.01790509 0.54509804 0.71372549 0.60000000
v 0.11352448 0.01466207 0.01754334 0.54509804 0.71372549 0.60000000
v 0.10434051 0.00546913 0.01754334 0.54509804 0.71372549 0.60000000
v 0.08601667 -0.01296162 0.01725617 0.54509804 0.71372549 0.60000000
v 0.08603432 -0.01298032 0.01715920 0.54509804 0.71372549 0.60000000
v 0.08605196 -0.01299902 0.01686085 0.54509804 0.71372549 0.60000000
v 0.07686798 -0.02219196 0.01676388 0.54509804 0.71372549 0.60000000
v 0.08605196 -0.01299902 -0.01686082 0.54509804 0.71372549 0.60000000
v 0.07686798 -0.02219196 -0.01676385 0.54509804 0.71372549 0.60000000
v 0.09503302 -0.00360038 -0.01790506 0.54509804 0.71372549 0.60000000
v 0.10425229 0.00555889 -0.01781556 0.54509804 0.71372549 0.60000000
v 0.07677094 -0.02209472 -0.01754330 0.54509804 0.71372549 0.60000000
v 0.07684152 -0.02216952 -0.01715917 0.54509804 0.71372549 0.60000000
v 0.10418171 0.00562995 -0.01798711 0.54509804 0.71372549 0.60000000
v 0.10410231 0.00571223 -0.01815121 0.54509804 0.71372549 0.60000000
v 0.10405819 0.00574963 -0.01823325 0.54509804 0.71372549 0.60000000
v 0.09467131 -0.00324134 -0.01851296 0.54509804 0.71372549 0.60000000
v 0.11304808 0.01514079 -0.01851296 0.54509804 0.71372549 0.60000000
v 0.11319806 0.01531657 -0.01851296 0.54509804 0.71372549 0.60000000
v 0.11321571 0.01534275 -0.01851296 0.54509804 0.71372549 0.60000000
v 0.11354213 0.01534275 -0.01823325 0.54509804 0.71372549 0.60000000
v 0.11321571 0.01534275 0.01851299 0.54509804 0.71372549 0.60000000
v 0.11319806 0.01531657 0.01851299 0.54509804 0.71372549 0.60000000
v 0.11304808 0.01514079 0.01851299 0.54509804 0.71372549 0.60000000
v 0.09467131 -0.00324134 0.01851299 0.54509804 0.71372549 0.60000000
v 0.10405819 0.00574963 0.01823328 0.54509804 0.71372549 0.60000000
v 0.10410231 0.00571223 0.01815123 0.54509804 0.71372549 0.60000000
v 0.10418171 0.00562995 0.01798714 0.54509804 0.71372549 0.60000000
v 0.10425229 0.00555889 0.01781558 0.54509804 0.71372549 0.60000000
v 0.09503302 -0.00360038 0.01790509 0.54509804 0.71372549 0.60000000
v 0.07677094 -0.02209472 0.01754334 0.54509804 0.71372549 0.60000000
v 0.07684152 -0.02216952 0.01715920 0.54509804 0.71372549 0.60000000
v 0.07659449 -0.02242758 0.01676388 0.54509804 0.71372549 0.60000000
v 0.07659449 -0.02242758 -0.01676385 0.54509804 0.71372549 0.60000000
v 0.08568143 -0.01262502 -0.01823325 0.54509804 0.71372549 0.60000000
v 0.07664743 -0.02197878 -0.01790506 0.54509804 0.71372549 0.60000000
v 0.07651509 -0.02231538 -0.01754330 0.54509804 0.71372549 0.60000000
v 0.07656802 -0.02239766 -0.01715917 0.54509804 0.71372549 0.60000000
v 0.09455662 -0.00312540 -0.01862858 0.54509804 0.71372549 0.60000000
v 0.07648863 -0.02181422 -0.01823325 0.54509804 0.71372549 0.60000000
v 0.07628571 -0.02161600 -0.01851296 0.54509804 0.71372549 0.60000000
v 0.11284517 0.01534275 -0.01871062 0.54509804 0.71372549 0.60000000
v 0.10368766 0.00612363 -0.01868452 0.54509804 0.71372549 0.60000000
v 0.11316277 0.01534275 -0.01854280 0.54509804 0.71372549 0.60000000
v 0.11316277 0.01534275 0.01854283 0.54509804 0.71372549 0.60000000
v 0.11303044 0.01534275 0.01861369 0.54509804 0.71372549 0.60000000
v 0.11279224 0.01534275 0.01874049 0.54509804 0.71372549 0.60000000
v 0.09455662 -0.00312540 0.01862860 0.54509804 0.71372549 0.60000000
v 0.08568143 -0.01262502 0.01823328 0.54509804 0.71372549 0.60000000
v 0.07628571 -0.02161600 0.01851299 0.54509804 0.71372549 0.60000000
v 0.07648863 -0.02181422 0.01823328 0.54509804 0.71372549 0.60000000
v 0.07664743 -0.02197878 0.01790509 0.54509804 0.71372549 0.60000000
v 0.07651509 -0.02231538 0.01754334 0.54509804 0.71372549 0.60000000
v 0.07656802 -0.02239766 0.01715920 0.54509804 0.71372549 0.60000000
v 0.07626807 -0.02258466 0.01715920 0.54509804 0.71372549 0.60000000
v 0.07628571 -0.02261458 0.01676388 0.54509804 0.71372549 0.60000000
v 0.07628571 -0.02261458 -0.01676385 0.54509804 0.71372549 0.60000000
v 0.07626807 -0.02258466 -0.01715917 0.54509804 0.71372549 0.60000000
v 0.07640922 -0.02218074 -0.01790506 0.54509804 0.71372549 0.60000000
v 0.07622396 -0.02249116 -0.01754330 0.54509804 0.71372549 0.60000000
v 0.07614455 -0.02234156 -0.01790506 0.54509804 0.71372549 0.60000000
v 0.08524913 -0.01219492 -0.01874046 0.54509804 0.71372549 0.60000000
v 0.10362591 0.00617973 -0.01874046 0.54509804 0.71372549 0.60000000
v 0.07605633 -0.02138412 -0.01874046 0.54509804 0.71372549 0.60000000
v 0.07627689 -0.02199374 -0.01823325 0.54509804 0.71372549 0.60000000
v 0.07610927 -0.02176560 -0.01851296 0.54509804 0.71372549 0.60000000
v 0.07592400 -0.02150380 -0.01874046 0.54509804 0.71372549 0.60000000
v 0.11278341 0.01534275 -0.01874046 0.54509804 0.71372549 0.60000000
v 0.11228055 0.01534275 0.01891204 0.54509804 0.71372549 0.60000000
v 0.09418609 -0.00275514 0.01891204 0.54509804 0.71372549 0.60000000
v 0.08518737 -0.01213134 0.01878524 0.54509804 0.71372549 0.60000000
v 0.08524913 -0.01219492 0.01874049 0.54509804 0.71372549 0.60000000
v 0.07605633 -0.02138412 0.01874049 0.54509804 0.71372549 0.60000000
v 0.07592400 -0.02150380 0.01874049 0.54509804 0.71372549 0.60000000
v 0.07610927 -0.02176560 0.01851299 0.54509804 0.71372549 0.60000000
v 0.07627689 -0.02199374 0.01823328 0.54509804 0.71372549 0.60000000
v 0.07640922 -0.02218074 0.01790509 0.54509804 0.71372549 0.60000000
v 0.07614455 -0.02234156 0.01790509 0.54509804 0.71372549 0.60000000
v 0.07622396 -0.02249116 0.01754334 0.54509804 0.71372549 0.60000000
v 0.07591518 -0.02262206 0.01754334 0.54509804 0.71372549 0.60000000
v 0.07594165 -0.02271930 0.01715920 0.54509804 0.71372549 0.60000000
v 0.07595929 -0.02275296 0.01676388 0.54509804 0.71372549 0.60000000
v 0.07595929 -0.02275296 -0.01676385 0.54509804 0.71372549 0.60000000
v 0.07594165 -0.02271930 -0.01715917 0.54509804 0.71372549 0.60000000
v 0.07591518 -0.02262206 -0.01754330 0.54509804 0.71372549 0.60000000
v 0.07604751 -0.02213586 -0.01823325 0.54509804 0.71372549 0.60000000
v 0.07586224 -0.02246124 -0.01790506 0.54509804 0.71372549 0.60000000
v 0.08518737 -0.01213134 -0.01878521 0.54509804 0.71372549 0.60000000
v 0.10356415 0.00624705 -0.01878521 0.54509804 0.71372549 0.60000000
v 0.07580049 -0.02112980 -0.01891201 0.54509804 0.71372549 0.60000000
v 0.07591518 -0.02188528 -0.01851296 0.54509804 0.71372549 0.60000000
v 0.07576520 -0.02159730 -0.01874046 0.54509804 0.71372549 0.60000000
v 0.07560640 -0.02127566 -0.01891201 0.54509804 0.71372549 0.60000000
v 0.07571227 -0.02120834 -0.01891201 0.54509804 0.71372549 0.60000000
v 0.11227172 0.01534275 -0.01891201 0.54509804 0.71372549 0.60000000
v 0.11174239 0.01534275 0.01901274 0.54509804 0.71372549 0.60000000
v 0.09391260 -0.00248212 0.01901274 0.54509804 0.71372549 0.60000000
v 0.07580049 -0.02112980 0.01891204 0.54509804 0.71372549 0.60000000
v 0.07571227 -0.02120834 0.01891204 0.54509804 0.71372549 0.60000000
v 0.07560640 -0.02127566 0.01891204 0.54509804 0.71372549 0.60000000
v 0.07576520 -0.02159730 0.01874049 0.54509804 0.71372549 0.60000000
v 0.07591518 -0.02188528 0.01851299 0.54509804 0.71372549 0.60000000
v 0.07604751 -0.02213586 0.01823328 0.54509804 0.71372549 0.60000000
v 0.07586224 -0.02246124 0.01790509 0.54509804 0.71372549 0.60000000
v 0.07558876 -0.02270060 0.01754334 0.54509804 0.71372549 0.60000000
v 0.07559758 -0.02280158 0.01715920 0.54509804 0.71372549 0.60000000
v 0.07560640 -0.02283524 0.01676388 0.54509804 0.71372549 0.60000000
v 0.07560640 -0.02283524 -0.01676385 0.54509804 0.71372549 0.60000000
v 0.07559758 -0.02280158 -0.01715917 0.54509804 0.71372549 0.60000000
v 0.07558876 -0.02270060 -0.01754330 0.54509804 0.71372549 0.60000000
v 0.07579166 -0.02224432 -0.01823325 0.54509804 0.71372549 0.60000000
v 0.07556229 -0.02253230 -0.01790506 0.54509804 0.71372549 0.60000000
v 0.07552700 -0.02230790 -0.01823325 0.54509804 0.71372549 0.60000000
v 0.09418609 -0.00275514 -0.01891201 0.54509804 0.71372549 0.60000000
v 0.07548289 -0.02089791 -0.01901271 0.54509804 0.71372549 0.60000000
v 0.07552700 -0.02085678 -0.01901271 0.54509804 0.71372549 0.60000000
v 0.07570344 -0.02197504 -0.01851296 0.54509804 0.71372549 0.60000000
v 0.07559758 -0.02166462 -0.01874046 0.54509804 0.71372549 0.60000000
v 0.07549171 -0.02132054 -0.01891201 0.54509804 0.71372549 0.60000000
v 0.07542995 -0.02093158 -0.01901271 0.54509804 0.71372549 0.60000000
v 0.11174239 0.01534275 -0.01901271 0.54509804 0.71372549 0.60000000
v 0.11170710 0.01534275 0.01901647 0.54509804 0.71372549 0.60000000
v 0.07552700 -0.02085678 0.01901274 0.54509804 0.71372549 0.60000000
v 0.07548289 -0.02089791 0.01901274 0.54509804 0.71372549 0.60000000
v 0.07559758 -0.02166462 0.01874049 0.54509804 0.71372549 0.60000000
v 0.07542995 -0.02093158 0.01901274 0.54509804 0.71372549 0.60000000
v 0.07549171 -0.02132054 0.01891204 0.54509804 0.71372549 0.60000000
v 0.07570344 -0.02197504 0.01851299 0.54509804 0.71372549 0.60000000
v 0.07579166 -0.02224432 0.01823328 0.54509804 0.71372549 0.60000000
v 0.07552700 -0.02230790 0.01823328 0.54509804 0.71372549 0.60000000
v 0.07556229 -0.02253230 0.01790509 0.54509804 0.71372549 0.60000000
v 0.07524468 -0.02255848 0.01790509 0.54509804 0.71372549 0.60000000
v 0.07524468 -0.02272678 0.01754334 0.54509804 0.71372549 0.60000000
v 0.07524468 -0.02282776 0.01715920 0.54509804 0.71372549 0.60000000
v 0.07524468 -0.02286516 0.01676388 0.54509804 0.71372549 0.60000000
v 0.07542995 -0.02285020 0.00000001 0.54509804 0.71372549 0.60000000
v 0.07524468 -0.02286516 -0.01676385 0.54509804 0.71372549 0.60000000
v 0.07524468 -0.02282776 -0.01715917 0.54509804 0.71372549 0.60000000
v 0.07524468 -0.02272678 -0.01754330 0.54509804 0.71372549 0.60000000
v 0.07524468 -0.02255848 -0.01790506 0.54509804 0.71372549 0.60000000
v 0.07548289 -0.02202740 -0.01851296 0.54509804 0.71372549 0.60000000
v 0.07524468 -0.02233034 -0.01823325 0.54509804 0.71372549 0.60000000
v 0.09391260 -0.00248212 -0.01901271 0.54509804 0.71372549 0.60000000
v 0.07524468 -0.02057628 -0.01904627 0.54509804 0.71372549 0.60000000
v 0.08464922 -0.01159652 -0.01902390 0.54509804 0.71372549 0.60000000
v 0.11170710 0.01534275 -0.01901644 0.54509804 0.71372549 0.60000000
v 0.07542995 -0.02170576 -0.01874046 0.54509804 0.71372549 0.60000000
v 0.07536820 -0.02135046 -0.01891201 0.54509804 0.71372549 0.60000000
v 0.07536820 -0.02095401 -0.01901271 0.54509804 0.71372549 0.60000000
v 0.11116894 0.01534275 0.01905003 0.54509804 0.71372549 0.60000000
v 0.10282308 0.00699132 0.01905003 0.54509804 0.71372549 0.60000000
v 0.10302600 0.00677814 0.01902393 0.54509804 0.71372549 0.60000000
v 0.08464922 -0.01159652 0.01902393 0.54509804 0.71372549 0.60000000
v 0.07524468 -0.02057628 0.01904630 0.54509804 0.71372549 0.60000000
v 0.07542995 -0.02170576 0.01874049 0.54509804 0.71372549 0.60000000
v 0.07536820 -0.02095401 0.01901274 0.54509804 0.71372549 0.60000000
v 0.07536820 -0.02135046 0.01891204 0.54509804 0.71372549 0.60000000
v 0.07548289 -0.02202740 0.01851299 0.54509804 0.71372549 0.60000000
v 0.07524468 -0.02233034 0.01823328 0.54509804 0.71372549 0.60000000
v 0.02400498 -0.02255848 0.01790509 0.54509804 0.71372549 0.60000000
v 0.02400498 -0.02258466 0.01784915 0.54509804 0.71372549 0.60000000
v 0.02400498 -0.02272678 0.01754334 0.54509804 0.71372549 0.60000000
v 0.03762656 -0.02275296 0.01744637 0.54509804 0.71372549 0.60000000
v 0.05644444 -0.02281654 0.01720769 0.54509804 0.71372549 0.60000000
v 0.02400498 -0.02282776 0.01715920 0.54509804 0.71372549 0.60000000
v 0.02400498 -0.02283524 0.01709580 0.54509804 0.71372549 0.60000000
v 0.03762656 -0.02283898 0.01705851 0.54509804 0.71372549 0.60000000
v 0.02400498 -0.02286516 0.01676388 0.54509804 0.71372549 0.60000000
v 0.02400498 -0.02286516 -0.01676385 0.54509804 0.71372549 0.60000000
v 0.03763538 -0.02283898 -0.01705848 0.54509804 0.71372549 0.60000000
v 0.05644444 -0.02284272 -0.01700999 0.54509804 0.71372549 0.60000000
v 0.02400498 -0.02283524 -0.01709577 0.54509804 0.71372549 0.60000000
v 0.02400498 -0.02282776 -0.01715917 0.54509804 0.71372549 0.60000000
v 0.05644444 -0.02281654 -0.01720765 0.54509804 0.71372549 0.60000000
v 0.03763538 -0.02275296 -0.01744634 0.54509804 0.71372549 0.60000000
v 0.02400498 -0.02272678 -0.01754330 0.54509804 0.71372549 0.60000000
v 0.02400498 -0.02271182 -0.01757687 0.54509804 0.71372549 0.60000000
v 0.02400498 -0.02258466 -0.01784912 0.54509804 0.71372549 0.60000000
v 0.02400498 -0.02255848 -0.01790506 0.54509804 0.71372549 0.60000000
v 0.07524468 -0.02204610 -0.01851296 0.54509804 0.71372549 0.60000000
v 0.07524468 -0.02172072 -0.01874046 0.54509804 0.71372549 0.60000000
v 0.02400498 -0.02233034 -0.01823325 0.54509804 0.71372549 0.60000000
v 0.05644444 -0.02208350 -0.01847940 0.54509804 0.71372549 0.60000000
v 0.11118659 0.01534275 -0.01904627 0.54509804 0.71372549 0.60000000
v 0.07530644 -0.02096898 -0.01901271 0.54509804 0.71372549 0.60000000
v 0.07524468 -0.02097272 -0.01901271 0.54509804 0.71372549 0.60000000
v 0.05644444 -0.02057628 -0.01905000 0.54509804 0.71372549 0.60000000
v 0.10302600 0.00677814 -0.01902390 0.54509804 0.71372549 0.60000000
v 0.07524468 -0.02135794 -0.01891201 0.54509804 0.71372549 0.60000000
v 0.09467131 0.01534275 0.01905003 0.54509804 0.71372549 0.60000000
v 0.09363029 -0.00220162 0.01905003 0.54509804 0.71372549 0.60000000
v 0.07524468 -0.02097272 0.01901274 0.54509804 0.71372549 0.60000000
v 0.07530644 -0.02096898 0.01901274 0.54509804 0.71372549 0.60000000
v 0.02400498 -0.02057628 0.01904630 0.54509804 0.71372549 0.60000000
v 0.05644444 -0.02062864 0.01904257 0.54509804 0.71372549 0.60000000
v 0.05644444 -0.02082686 0.01902765 0.54509804 0.71372549 0.60000000
v 0.07524468 -0.02172072 0.01874049 0.54509804 0.71372549 0.60000000
v 0.07524468 -0.02135794 0.01891204 0.54509804 0.71372549 0.60000000
v 0.07524468 -0.02204610 0.01851299 0.54509804 0.71372549 0.60000000
v 0.05644444 -0.02208350 0.01847943 0.54509804 0.71372549 0.60000000
v 0.02400498 -0.02233034 0.01823328 0.54509804 0.71372549 0.60000000
v 0.02400498 -0.02281280 0.01721887 0.54509804 0.71372549 0.60000000
v 0.02400498 -0.02279410 -0.01728970 0.54509804 0.71372549 0.60000000
v 0.02400498 -0.02277540 -0.01736056 0.54509804 0.71372549 0.60000000
v 0.02400498 -0.02204610 -0.01851296 0.54509804 0.71372549 0.60000000
v 0.02400498 -0.02201618 -0.01853534 0.54509804 0.71372549 0.60000000
v 0.05644444 -0.02200496 -0.01854280 0.54509804 0.71372549 0.60000000
v 0.05644444 -0.02176186 -0.01871435 0.54509804 0.71372549 0.60000000
v 0.02400498 -0.02172072 -0.01874046 0.54509804 0.71372549 0.60000000
v 0.05644444 -0.02167584 -0.01876284 0.54509804 0.71372549 0.60000000
v 0.05644444 -0.02149632 -0.01884861 0.54509804 0.71372549 0.60000000
v 0.05661207 -0.01638747 -0.01905000 0.54509804 0.71372549 0.60000000
v 0.05560633 0.00875660 -0.01905000 0.54509804 0.71372549 0.60000000
v 0.05543870 0.01294541 -0.01905000 0.54509804 0.71372549 0.60000000
v 0.07791783 0.01534275 -0.01904627 0.54509804 0.71372549 0.60000000
v 0.05644444 -0.02102134 -0.01900152 0.54509804 0.71372549 0.60000000
v 0.02400498 -0.02097272 -0.01901271 0.54509804 0.71372549 0.60000000
v 0.03763538 -0.02087548 -0.01902390 0.54509804 0.71372549 0.60000000
v 0.05644444 -0.02082686 -0.01902763 0.54509804 0.71372549 0.60000000
v 0.02400498 -0.02057628 -0.01905000 0.54509804 0.71372549 0.60000000
v 0.02400498 -0.02135794 -0.01891201 0.54509804 0.71372549 0.60000000
v 0.07791783 0.01534275 0.01904630 0.54509804 0.71372549 0.60000000
v 0.02400498 0.01294541 0.01904630 0.54509804 0.71372549 0.60000000
v 0.03762656 -0.02087548 0.01902393 0.54509804 0.71372549 0.60000000
v 0.02400498 -0.02097272 0.01901274 0.54509804 0.71372549 0.60000000
v 0.02400498 -0.02101012 0.01900528 0.54509804 0.71372549 0.60000000
v 0.05644444 -0.02102134 0.01900155 0.54509804 0.71372549 0.60000000
v 0.02400498 -0.02076702 0.01903138 0.54509804 0.71372549 0.60000000
v 0.03762656 -0.02067725 0.01903884 0.54509804 0.71372549 0.60000000
v 0.05644444 -0.02149632 0.01884864 0.54509804 0.71372549 0.60000000
v 0.05644444 -0.02167584 0.01876286 0.54509804 0.71372549 0.60000000
v 0.02400498 -0.02172072 0.01874049 0.54509804 0.71372549 0.60000000
v 0.05644444 -0.02176186 0.01871438 0.54509804 0.71372549 0.60000000
v 0.02400498 -0.02135794 0.01891204 0.54509804 0.71372549 0.60000000
v 0.05644444 -0.02200496 0.01854283 0.54509804 0.71372549 0.60000000
v 0.02400498 -0.02201618 0.01853537 0.54509804 0.71372549 0.60000000
v 0.02400498 -0.02204610 0.01851299 0.54509804 0.71372549 0.60000000
v 0.02400498 -0.02187780 -0.01863231 0.54509804 0.71372549 0.60000000
v 0.03763538 -0.02163096 -0.01878521 0.54509804 0.71372549 0.60000000
v 0.02400498 0.01294541 -0.01905000 0.54509804 0.71372549 0.60000000
v 0.07786490 0.01534275 -0.01904254 0.54509804 0.71372549 0.60000000
v 0.02400498 0.01330819 -0.01901644 0.54509804 0.71372549 0.60000000
v 0.02400498 0.01334559 -0.01901271 0.54509804 0.71372549 0.60000000
v 0.02400498 0.01372707 -0.01891201 0.54509804 0.71372549 0.60000000
v 0.02400498 0.01408985 -0.01874046 0.54509804 0.71372549 0.60000000
v 0.02400498 0.01411977 -0.01872181 0.54509804 0.71372549 0.60000000
v 0.02400498 0.01425067 -0.01863231 0.54509804 0.71372549 0.60000000
v 0.02400498 0.01441523 -0.01851296 0.54509804 0.71372549 0.60000000
v 0.02400498 0.01469947 -0.01823325 0.54509804 0.71372549 0.60000000
v 0.02400498 0.01492761 -0.01790506 0.54509804 0.71372549 0.60000000
v 0.02400498 0.01503981 -0.01766638 0.54509804 0.71372549 0.60000000
v 0.02400498 0.01508095 -0.01757687 0.54509804 0.71372549 0.60000000
v 0.02400498 0.01509591 -0.01754330 0.54509804 0.71372549 0.60000000
v 0.02400498 0.01519689 -0.01715917 0.54509804 0.71372549 0.60000000
v 0.02400498 0.01520063 -0.01712561 0.54509804 0.71372549 0.60000000
v 0.02400498 0.01523429 -0.01676385 0.54509804 0.71372549 0.60000000
v 0.02400498 -0.02093906 -0.01901644 0.54509804 0.71372549 0.60000000
v 0.07745907 0.01534275 0.01901274 0.54509804 0.71372549 0.60000000
v 0.02400498 0.01523429 0.01676388 0.54509804 0.71372549 0.60000000
v 0.02400498 0.01520063 0.01712564 0.54509804 0.71372549 0.60000000
v 0.02400498 0.01519689 0.01715920 0.54509804 0.71372549 0.60000000
v 0.02400498 0.01518941 0.01719277 0.54509804 0.71372549 0.60000000
v 0.02400498 0.01509591 0.01754334 0.54509804 0.71372549 0.60000000
v 0.02400498 0.01508095 0.01757690 0.54509804 0.71372549 0.60000000
v 0.02400498 0.01503981 0.01766641 0.54509804 0.71372549 0.60000000
v 0.02400498 0.01492761 0.01790509 0.54509804 0.71372549 0.60000000
v 0.02400498 0.01469947 0.01823328 0.54509804 0.71372549 0.60000000
v 0.02400498 0.01441523 0.01851299 0.54509804 0.71372549 0.60000000
v 0.02400498 0.01425067 0.01863233 0.54509804 0.71372549 0.60000000
v 0.02400498 0.01408985 0.01874049 0.54509804 0.71372549 0.60000000
v 0.02400498 0.01405993 0.01875541 0.54509804 0.71372549 0.60000000
v 0.02400498 0.01396643 0.01880016 0.54509804 0.71372549 0.60000000
v 0.02400498 0.01372707 0.01891204 0.54509804 0.71372549 0.60000000
v 0.02400498 0.01353259 0.01896425 0.54509804 0.71372549 0.60000000
v 0.02400498 0.01337925 0.01900528 0.54509804 0.71372549 0.60000000
v 0.02400498 0.01334559 0.01901274 0.54509804 0.71372549 0.60000000
v 0.02400498 0.01327827 0.01902020 0.54509804 0.71372549 0.60000000
v 0.02400498 -0.02093906 0.01901647 0.54509804 0.71372549 0.60000000
v 0.03762656 -0.02163096 0.01878524 0.54509804 0.71372549 0.60000000
v 0.02400498 -0.02159730 0.01880016 0.54509804 0.71372549 0.60000000
v 0.02400498 -0.02177308 0.01870692 0.54509804 0.71372549 0.60000000
v 0.07745907 0.01534275 -0.01901271 0.54509804 0.71372549 0.60000000
v 0.07458302 0.01534275 -0.01676385 0.54509804 0.71372549 0.60000000
v 0.07460948 0.01534275 -0.01684963 0.54509804 0.71372549 0.60000000
v 0.07470653 0.01534275 -0.01715917 0.54509804 0.71372549 0.60000000
v 0.07495355 0.01534275 -0.01754330 0.54509804 0.71372549 0.60000000
v 0.07529762 0.01534275 -0.01790506 0.54509804 0.71372549 0.60000000
v 0.07569462 0.01534275 -0.01823325 0.54509804 0.71372549 0.60000000
v 0.07610045 0.01534275 -0.01851296 0.54509804 0.71372549 0.60000000
v 0.07623278 0.01534275 -0.01858009 0.54509804 0.71372549 0.60000000
v 0.07655038 0.01534275 -0.01874046 0.54509804 0.71372549 0.60000000
v 0.07699149 0.01534275 -0.01891201 0.54509804 0.71372549 0.60000000
v 0.07699149 0.01534275 0.01891204 0.54509804 0.71372549 0.60000000
v 0.07655038 0.01534275 0.01874049 0.54509804 0.71372549 0.60000000
v 0.07610045 0.01534275 0.01851299 0.54509804 0.71372549 0.60000000
v 0.07569462 0.01534275 0.01823328 0.54509804 0.71372549 0.60000000
v 0.07529762 0.01534275 0.01790509 0.54509804 0.71372549 0.60000000
v 0.07495355 0.01534275 0.01754334 0.54509804 0.71372549 0.60000000
v 0.07470653 0.01534275 0.01715920 0.54509804 0.71372549 0.60000000
v 0.07458302 0.01534275 0.01676388 0.54509804 0.71372549 0.60000000
f 1 2 7
f 1 7 16
f 1 16 15
f 1 15 29
f 1 29 47
f 1 47 46
f 1 46 72
f 1 72 71
f 1 71 95
f 1 95 93
f 1 93 119
f 1 119 146
f 1 146 172
f 1 172 197
f 1 197 235
f 1 235 266
f 1 266 292
f 1 292 333
f 1 333 343
f 1 343 342
f 1 342 341
f 1 341 340
f 1 340 339
f 1 339 338
f 1 338 337
f 1 337 336
f 1 336 335
f 1 335 334
f 1 334 351
f 1 351 350
f 1 350 349
f 1 349 348
f 1 348 347
f 1 347 346
f 1 346 345
f 1 345 344
f 1 344 309
f 1 309 273
f 1 273 241
f 1 241 201
f 1 201 173
f 1 173 147
f 1 147 120
f 1 120 98
f 1 98 97
f 1 97 96
f 1 96 73
f 1 73 49
f 1 49 48
f 1 48 30
f 1 30 18
f 1 18 21
f 1 21 17
f 1 17 8
f 1 8 3
f 1 3 4
f 1 4 5
f 1 5 2
f 2 5 6
f 2 6 7
f 3 8 4
f 4 8 9
f 4 9 20
f 4 20 10
f 4 10 11
f 4 11 5
f 5 11 12
f 5 12 13
f 5 13 6
f 6 13 14
f 6 14 15
f 6 15 16
f 6 16 7
f 8 17 9
f 9 18 19
f 9 19 20
f 9 17 21
f 9 21 18
f 10 20 22
f 10 22 23
f 10 23 12
f 10 12 11
f 12 23 24
f 12 24 13
f 13 24 25
f 13 25 26
f 13 26 14
f 14 26 27
f 14 27 28
f 14 28 15
f 15 28 29
f 18 30 31
f 18 31 19
f 19 31 32
f 19 32 33
f 19 33 20
f 20 33 34
f 20 34 22
f 22 34 35
f 22 35 36
f 22 36 37
f 22 37 24
f 22 24 23
f 24 37 38
f 24 38 25
f 25 39 40
f 25 40 26
f 25 38 41
f 25 41 42
f 25 42 39
f 26 40 43
f 26 43 27
f 27 43 44
f 27 44 45
f 27 45 46
f 27 46 28
f 28 46 47
f 28 47 29
f 30 48 31
f 31 48 32
f 32 48 49
f 32 49 50
f 32 50 51
f 32 51 52
f 32 52 33
f 33 52 53
f 33 53 34
f 34 53 54
f 34 54 55
f 34 55 56
f 34 56 35
f 35 56 36
f 36 56 57
f 36 57 58
f 36 58 60
f 36 60 37
f 37 59 41
f 37 41 38
f 37 60 59
f 39 61 62
f 39 62 43
f 39 43 40
f 39 42 63
f 39 63 61
f 41 59 60
f 41 60 64
f 41 64 42
f 42 64 63
f 43 65 44
f 43 62 61
f 43 61 65
f 44 65 61
f 44 61 66
f 44 66 67
f 44 67 68
f 44 68 69
f 44 69 70
f 44 70 45
f 45 70 71
f 45 71 72
f 45 72 46
f 49 73 50
f 50 73 74
f 50 74 51
f 51 74 75
f 51 75 76
f 51 76 77
f 51 77 78
f 51 78 81
f 51 81 79
f 51 79 52
f 52 80 54
f 52 54 53
f 52 79 81
f 52 81 80
f 54 80 81
f 54 81 82
f 54 82 55
f 55 82 83
f 55 83 56
f 56 83 58
f 56 58 57
f 58 83 84
f 58 84 85
f 58 85 60
f 60 85 64
f 61 86 66
f 61 63 87
f 61 87 91
f 61 91 86
f 63 64 88
f 63 88 87
f 64 85 89
f 64 89 88
f 66 86 67
f 67 86 68
f 68 90 69
f 68 86 91
f 68 91 92
f 68 92 90
f 69 93 70
f 69 90 94
f 69 94 93
f 70 93 95
f 70 95 71
f 73 96 74
f 74 96 97
f 74 97 98
f 74 98 75
f 75 98 99
f 75 99 76
f 76 100 77
f 76 99 101
f 76 101 102
f 76 102 100
f 77 100 78
f 78 100 81
f 81 100 102
f 81 102 103
f 81 103 82
f 82 103 104
f 82 104 83
f 83 104 105
f 83 105 84
f 84 105 106
f 84 106 107
f 84 107 108
f 84 108 85
f 85 108 109
f 85 109 89
f 87 88 110
f 87 110 116
f 87 116 91
f 88 89 109
f 88 109 111
f 88 111 112
f 88 112 110
f 90 113 114
f 90 114 94
f 90 92 115
f 90 115 113
f 91 116 117
f 91 117 92
f 92 117 118
f 92 118 115
f 93 94 119
f 94 114 119
f 98 120 121
f 98 121 122
f 98 122 123
f 98 123 99
f 99 123 124
f 99 124 101
f 101 124 125
f 101 125 126
f 101 126 127
f 101 127 102
f 102 127 128
f 102 128 103
f 103 128 104
f 104 128 129
f 104 129 130
f 104 130 106
f 104 106 105
f 106 130 131
f 106 131 132
f 106 132 133
f 106 133 107
f 107 133 134
f 107 134 108
f 108 134 109
f 109 134 135
f 109 135 136
f 109 136 111
f 110 112 137
f 110 137 116
f 111 136 138
f 111 138 112
f 112 138 162
f 112 162 137
f 113 139 114
f 113 115 139
f 114 140 119
f 114 139 140
f 115 118 141
f 115 141 139
f 116 137 117
f 117 137 142
f 117 142 118
f 118 142 143
f 118 143 144
f 118 144 145
f 118 145 141
f 119 140 146
f 120 147 121
f 121 147 148
f 121 148 174
f 121 174 149
f 121 149 122
f 122 149 124
f 122 124 123
f 124 149 125
f 125 149 150
f 125 150 151
f 125 151 152
f 125 152 153
f 125 153 126
f 126 153 154
f 126 154 127
f 127 154 128
f 128 154 129
f 129 154 180
f 129 180 155
f 129 155 131
f 129 131 130
f 131 155 156
f 131 156 132
f 132 156 157
f 132 157 133
f 133 157 158
f 133 158 159
f 133 159 134
f 134 159 160
f 134 160 135
f 135 160 161
f 135 161 136
f 136 161 138
f 137 162 168
f 137 168 142
f 138 161 163
f 138 163 164
f 138 164 162
f 139 165 140
f 139 141 165
f 140 165 146
f 141 145 166
f 141 166 167
f 141 167 194
f 141 194 165
f 142 168 143
f 143 168 169
f 143 169 144
f 144 169 170
f 144 170 171
f 144 171 166
f 144 166 145
f 146 165 172
f 147 173 148
f 148 173 174
f 149 174 175
f 149 175 150
f 150 175 177
f 150 177 151
f 151 176 152
f 151 177 178
f 151 178 176
f 152 176 179
f 152 179 153
f 153 179 180
f 153 180 154
f 155 180 181
f 155 181 182
f 155 182 156
f 156 182 183
f 156 183 184
f 156 184 157
f 157 184 185
f 157 185 186
f 157 186 158
f 158 186 187
f 158 187 159
f 159 187 188
f 159 188 160
f 160 188 189
f 160 189 190
f 160 190 161
f 161 190 191
f 161 191 163
f 162 164 168
f 163 191 164
f 164 192 168
f 164 191 193
f 164 193 192
f 165 194 172
f 166 171 195
f 166 195 167
f 167 195 196
f 167 196 197
f 167 197 194
f 168 192 198
f 168 198 169
f 169 198 170
f 170 198 199
f 170 199 236
f 170 236 200
f 170 200 171
f 171 200 195
f 172 194 197
f 173 201 202
f 173 202 203
f 173 203 204
f 173 204 174
f 174 204 205
f 174 205 175
f 175 205 177
f 176 178 206
f 176 206 179
f 177 207 178
f 177 205 207
f 178 207 244
f 178 244 208
f 178 208 206
f 179 206 209
f 179 209 181
f 179 181 180
f 181 209 210
f 181 210 183
f 181 183 182
f 183 210 252
f 183 252 211
f 183 211 212
f 183 212 184
f 184 212 213
f 184 213 214
f 184 214 215
f 184 215 185
f 185 215 216
f 185 216 217
f 185 217 218
f 185 218 186
f 186 188 187
f 186 218 219
f 186 219 220
f 186 220 188
f 188 220 221
f 188 221 222
f 188 222 189
f 189 222 221
f 189 221 223
f 189 223 224
f 189 224 225
f 189 225 190
f 190 225 226
f 190 226 227
f 190 227 228
f 190 228 191
f 191 228 229
f 191 229 230
f 191 230 233
f 191 233 193
f 192 193 231
f 192 231 232
f 192 232 198
f 193 233 234
f 193 234 231
f 195 235 196
f 195 200 236
f 195 236 237
f 195 237 238
f 195 238 235
f 196 235 239
f 196 239 197
f 197 239 235
f 198 232 199
f 199 232 240
f 199 240 237
f 199 237 236
f 201 241 242
f 201 242 202
f 202 242 203
f 203 242 204
f 204 242 205
f 205 243 244
f 205 244 207
f 205 242 245
f 205 245 246
f 205 246 247
f 205 247 243
f 206 208 248
f 206 248 209
f 208 244 243
f 208 243 249
f 208 249 248
f 209 248 250
f 209 250 210
f 210 250 251
f 210 251 252
f 211 252 288
f 211 288 287
f 211 287 332
f 211 332 283
f 211 283 331
f 211 331 285
f 211 285 277
f 211 277 276
f 211 276 329
f 211 329 279
f 211 279 245
f 211 245 274
f 211 274 328
f 211 328 327
f 211 327 326
f 211 326 325
f 211 325 324
f 211 324 323
f 211 323 322
f 211 322 321
f 211 321 320
f 211 320 319
f 211 319 318
f 211 318 317
f 211 317 316
f 211 316 315
f 211 315 314
f 211 314 313
f 211 313 312
f 211 312 311
f 211 311 310
f 211 310 307
f 211 307 306
f 211 306 305
f 211 305 304
f 211 304 303
f 211 303 302
f 211 302 301
f 211 301 300
f 211 300 299
f 211 299 298
f 211 298 297
f 211 297 296
f 211 296 295
f 211 295 294
f 211 294 293
f 211 293 291
f 211 291 271
f 211 271 308
f 211 308 268
f 211 268 272
f 211 272 260
f 211 260 289
f 211 289 257
f 211 257 256
f 211 256 233
f 211 233 230
f 211 230 229
f 211 229 228
f 211 228 227
f 211 227 255
f 211 255 254
f 211 254 224
f 211 224 223
f 211 223 220
f 211 220 219
f 211 219 217
f 211 217 216
f 211 216 253
f 211 253 213
f 211 213 212
f 213 253 214
f 214 253 215
f 215 253 216
f 217 219 218
f 220 223 221
f 224 254 225
f 225 254 255
f 225 255 226
f 226 255 227
f 231 234 256
f 231 256 257
f 231 257 258
f 231 258 259
f 231 259 232
f 232 259 260
f 232 260 290
f 232 290 261
f 232 261 262
f 232 262 240
f 233 256 234
f 235 238 263
f 235 263 264
f 235 264 265
f 235 265 291
f 235 291 266
f 237 240 267
f 237 267 268
f 237 268 269
f 237 269 270
f 237 270 238
f 238 270 269
f 238 269 271
f 238 271 291
f 238 291 265
f 238 265 264
f 238 264 263
f 240 262 272
f 240 272 267
f 241 273 274
f 241 274 242
f 242 274 245
f 243 247 275
f 243 275 276
f 243 276 277
f 243 277 278
f 243 278 249
f 245 279 275
f 245 275 280
f 245 280 246
f 246 280 275
f 246 275 247
f 248 249 281
f 248 281 282
f 248 282 330
f 248 330 283
f 248 283 284
f 248 284 250
f 249 278 277
f 249 277 285
f 249 285 281
f 250 284 286
f 250 286 287
f 250 287 288
f 250 288 251
f 251 288 252
f 257 289 259
f 257 259 258
f 259 289 260
f 260 272 290
f 261 290 262
f 262 290 272
f 266 291 293
f 266 293 294
f 266 294 295
f 266 295 296
f 266 296 297
f 266 297 298
f 266 298 299
f 266 299 300
f 266 300 301
f 266 301 302
f 266 302 303
f 266 303 304
f 266 304 305
f 266 305 306
f 266 306 307
f 266 307 292
f 267 272 268
f 268 308 269
f 269 308 271
f 273 309 310
f 273 310 311
f 273 311 312
f 273 312 313
f 273 313 314
f 273 314 315
f 273 315 316
f 273 316 317
f 273 317 318
f 273 318 319
f 273 319 320
f 273 320 321
f 273 321 322
f 273 322 323
f 273 323 324
f 273 324 325
f 273 325 326
f 273 326 327
f 273 327 328
f 273 328 274
f 275 279 329
f 275 329 276
f 281 285 330
f 281 330 282
f 283 330 331
f 283 332 284
f 284 332 287
f 284 287 286
f 285 331 330
f 292 307 333
f 307 310 351
f 307 351 334
f 307 334 335
f 307 335 336
f 307 336 337
f 307 337 338
f 307 338 339
f 307 339 340
f 307 340 341
f 307 341 342
f 307 342 343
f 307 343 333
f 309 344 310
f 310 344 345
f 310 345 346
f 310 346 347
f 310 347 348
f 310 348 349
f 310 349 350
f 310 350 351